999
DXF created by UltiBoard 14.2.0.0
0
SECTION
2
HEADER
9
$ACADVER
1
AC1014
9
$EXTMIN
10
-4099.200000
20
-2599.200000
30
0.0
9
$EXTMAX
10
4099.200000
20
2599.200000
30
0.0
9
$LUNITS
70
2
9
$HANDSEED
5
80
0
ENDSEC
0
SECTION
2
TABLES
0
TABLE
2
VPORT
5
41
100
AcDbSymbolTable
70
1
0
VPORT
5
42
100
AcDbSymbolTableRecord
100
AcDbViewportTableRecord
2
*ACTIVE
70
0
0
ENDTAB
0
TABLE
2
LTYPE
5
43
100
AcDbSymbolTable
70
1
0
LTYPE
5
44
100
AcDbSymbolTableRecord
100
AcDbLinetypeTableRecord
2
BYBLOCK
70
0
3

72
65
73
0
40
0.0
0
LTYPE
5
45
100
AcDbSymbolTableRecord
100
AcDbLinetypeTableRecord
2
BYLAYER
70
0
3

72
65
73
0
40
0.0
0
LTYPE
5
46
100
AcDbSymbolTableRecord
100
AcDbLinetypeTableRecord
2
CONTINUOUS
70
0
3
Solid line
72
65
73
0
40
0.0
0
ENDTAB
0
TABLE
2
LAYER
5
47
100
AcDbSymbolTable
70
2
0
LAYER
5
48
100
AcDbSymbolTableRecord
100
AcDbLayerTableRecord
2
0
70
0
62
7
6
CONTINUOUS
0
LAYER
5
49
100
AcDbSymbolTableRecord
100
AcDbLayerTableRecord
2
SILKSCREEN_BOTTOM
70
0
62
6
6
CONTINUOUS
0
ENDTAB
0
TABLE
2
STYLE
5
4A
100
AcDbSymbolTable
70
2
0
STYLE
5
4B
100
AcDbSymbolTableRecord
100
AcDbTextStyleTableRecord
2
MONOTxtStyle
70
0
40
0.0
41
1.0
50
0.0
71
0
42
0.2
3
monotxt
4

0
ENDTAB
0
TABLE
2
VIEW
5
4C
100
AcDbSymbolTable
70
0
0
ENDTAB
0
TABLE
2
UCS
5
4D
100
AcDbSymbolTable
70
0
0
ENDTAB
0
TABLE
2
APPID
5
4E
100
AcDbSymbolTable
70
1
0
APPID
5
4F
100
AcDbSymbolTableRecord
100
AcDbRegAppTableRecord
2
ACAD
70
0
0
ENDTAB
0
TABLE
2
DIMSTYLE
5
50
100
AcDbSymbolTable
70
1
0
DIMSTYLE
105
51
100
AcDbSymbolTableRecord
100
AcDbDimStyleTableRecord
2
STANDARD
70
0
0
ENDTAB
0
TABLE
2
BLOCK_RECORD
5
52
100
AcDbSymbolTable
70
0
0
BLOCK_RECORD
5
53
100
AcDbSymbolTableRecord
100
AcDbBlockTableRecord
2
*MODEL_SPACE
0
BLOCK_RECORD
5
54
100
AcDbSymbolTableRecord
100
AcDbBlockTableRecord
2
*PAPER_SPACE
0
ENDTAB
0
ENDSEC
0
SECTION
2
BLOCKS
0
BLOCK
5
55
100
AcDbEntity
8
0
100
AcDbBlockBegin
2
*MODEL_SPACE
70
0
0
ENDBLK
5
56
100
AcDbEntity
8
0
100
AcDbBlockEnd
0
BLOCK
5
57
100
AcDbEntity
8
0
100
AcDbBlockBegin
2
*PAPER_SPACE
70
0
0
ENDBLK
5
58
100
AcDbEntity
8
0
100
AcDbBlockEnd
0
ENDSEC
0
SECTION
2
ENTITIES
0
HATCH
5
59
100
AcDbEntity
8
SILKSCREEN_BOTTOM
62
255
100
AcDbHatch
10
0.0
20
0.0
30
0.0
210
0.0
220
0.0
230
1.0
2
SOLID
70
1
71
0
91
1
92
1
93
1
72
2
10
3211.000000
20
1089.000000
40
125.000000
50
0.000000
51
360.000000
73
1
97
0
75
0
76
0
98
1
10
0.0
20
0.0
0
CIRCLE
5
5A
100
AcDbEntity
8
SILKSCREEN_BOTTOM
62
255
100
AcDbCircle
39
0.000039
10
3211.000000
20
1089.000000
30
0
40
125.000000
0
HATCH
5
5B
100
AcDbEntity
8
SILKSCREEN_BOTTOM
62
255
100
AcDbHatch
10
0.0
20
0.0
30
0.0
210
0.0
220
0.0
230
1.0
2
SOLID
70
1
71
0
91
1
92
1
93
1
72
2
10
3211.000000
20
-1089.000000
40
125.000000
50
0.000000
51
360.000000
73
1
97
0
75
0
76
0
98
1
10
0.0
20
0.0
0
CIRCLE
5
5C
100
AcDbEntity
8
SILKSCREEN_BOTTOM
62
255
100
AcDbCircle
39
0.000039
10
3211.000000
20
-1089.000000
30
0
40
125.000000
0
HATCH
5
5D
100
AcDbEntity
8
SILKSCREEN_BOTTOM
62
255
100
AcDbHatch
10
0.0
20
0.0
30
0.0
210
0.0
220
0.0
230
1.0
2
SOLID
70
1
71
0
91
1
92
1
93
1
72
2
10
-3211.000000
20
-1089.000000
40
125.000000
50
0.000000
51
360.000000
73
1
97
0
75
0
76
0
98
1
10
0.0
20
0.0
0
CIRCLE
5
5E
100
AcDbEntity
8
SILKSCREEN_BOTTOM
62
255
100
AcDbCircle
39
0.000039
10
-3211.000000
20
-1089.000000
30
0
40
125.000000
0
HATCH
5
5F
100
AcDbEntity
8
SILKSCREEN_BOTTOM
62
255
100
AcDbHatch
10
0.0
20
0.0
30
0.0
210
0.0
220
0.0
230
1.0
2
SOLID
70
1
71
0
91
1
92
1
93
1
72
2
10
-3211.000000
20
1089.000000
40
125.000000
50
0.000000
51
360.000000
73
1
97
0
75
0
76
0
98
1
10
0.0
20
0.0
0
CIRCLE
5
60
100
AcDbEntity
8
SILKSCREEN_BOTTOM
62
255
100
AcDbCircle
39
0.000039
10
-3211.000000
20
1089.000000
30
0
40
125.000000
0
HATCH
5
61
100
AcDbEntity
8
SILKSCREEN_BOTTOM
62
255
100
AcDbHatch
10
0.0
20
0.0
30
0.0
210
0.0
220
0.0
230
1.0
2
SOLID
70
1
71
0
91
1
92
1
93
1
72
2
10
-2524.000000
20
1714.000000
40
125.000000
50
0.000000
51
360.000000
73
1
97
0
75
0
76
0
98
1
10
0.0
20
0.0
0
CIRCLE
5
62
100
AcDbEntity
8
SILKSCREEN_BOTTOM
62
255
100
AcDbCircle
39
0.000039
10
-2524.000000
20
1714.000000
30
0
40
125.000000
0
HATCH
5
63
100
AcDbEntity
8
SILKSCREEN_BOTTOM
62
255
100
AcDbHatch
10
0.0
20
0.0
30
0.0
210
0.0
220
0.0
230
1.0
2
SOLID
70
1
71
0
91
1
92
1
93
1
72
2
10
2524.000000
20
1714.000000
40
125.000000
50
0.000000
51
360.000000
73
1
97
0
75
0
76
0
98
1
10
0.0
20
0.0
0
CIRCLE
5
64
100
AcDbEntity
8
SILKSCREEN_BOTTOM
62
255
100
AcDbCircle
39
0.000039
10
2524.000000
20
1714.000000
30
0
40
125.000000
0
HATCH
5
65
100
AcDbEntity
8
SILKSCREEN_BOTTOM
62
255
100
AcDbHatch
10
0.0
20
0.0
30
0.0
210
0.0
220
0.0
230
1.0
2
SOLID
70
1
71
0
91
1
92
1
93
1
72
2
10
2524.000000
20
-1714.000000
40
125.000000
50
0.000000
51
360.000000
73
1
97
0
75
0
76
0
98
1
10
0.0
20
0.0
0
CIRCLE
5
66
100
AcDbEntity
8
SILKSCREEN_BOTTOM
62
255
100
AcDbCircle
39
0.000039
10
2524.000000
20
-1714.000000
30
0
40
125.000000
0
HATCH
5
67
100
AcDbEntity
8
SILKSCREEN_BOTTOM
62
255
100
AcDbHatch
10
0.0
20
0.0
30
0.0
210
0.0
220
0.0
230
1.0
2
SOLID
70
1
71
0
91
1
92
1
93
1
72
2
10
-2524.000000
20
-1720.000000
40
125.000000
50
0.000000
51
360.000000
73
1
97
0
75
0
76
0
98
1
10
0.0
20
0.0
0
CIRCLE
5
68
100
AcDbEntity
8
SILKSCREEN_BOTTOM
62
255
100
AcDbCircle
39
0.000039
10
-2524.000000
20
-1720.000000
30
0
40
125.000000
0
HATCH
5
69
100
AcDbEntity
8
SILKSCREEN_BOTTOM
62
255
100
AcDbHatch
10
0.0
20
0.0
30
0.0
210
0.0
220
0.0
230
1.0
2
SOLID
70
1
71
0
91
1
92
1
93
1
72
2
10
2209.196850
20
-1219.543307
40
68.897638
50
0.000000
51
360.000000
73
1
97
0
75
0
76
0
98
1
10
0.0
20
0.0
0
CIRCLE
5
6A
100
AcDbEntity
8
SILKSCREEN_BOTTOM
62
255
100
AcDbCircle
39
0.000039
10
2209.196850
20
-1219.543307
30
0
40
68.897638
0
HATCH
5
6B
100
AcDbEntity
8
SILKSCREEN_BOTTOM
62
255
100
AcDbHatch
10
0.0
20
0.0
30
0.0
210
0.0
220
0.0
230
1.0
2
SOLID
70
1
71
0
91
1
92
1
93
1
72
2
10
559.590551
20
1526.519685
40
68.897638
50
0.000000
51
360.000000
73
1
97
0
75
0
76
0
98
1
10
0.0
20
0.0
0
CIRCLE
5
6C
100
AcDbEntity
8
SILKSCREEN_BOTTOM
62
255
100
AcDbCircle
39
0.000039
10
559.590551
20
1526.519685
30
0
40
68.897638
0
LWPOLYLINE
5
6D
100
AcDbEntity
8
SILKSCREEN_BOTTOM
62
6
100
AcDbPolyline
90
2
70
0
43
0.000039
39
0.000039
10
2524.000000
20
2000.000000
10
-2524.000000
20
2000.000000
0
LWPOLYLINE
5
6E
100
AcDbEntity
8
SILKSCREEN_BOTTOM
62
6
100
AcDbPolyline
90
2
70
0
43
0.000039
39
0.000039
10
-2524.000000
20
2000.000000
10
-3500.000000
20
1089.000000
0
LWPOLYLINE
5
6F
100
AcDbEntity
8
SILKSCREEN_BOTTOM
62
6
100
AcDbPolyline
90
2
70
0
43
0.000039
39
0.000039
10
-3500.000000
20
1089.000000
10
-3500.000000
20
-1089.000000
0
LWPOLYLINE
5
70
100
AcDbEntity
8
SILKSCREEN_BOTTOM
62
6
100
AcDbPolyline
90
2
70
0
43
0.000039
39
0.000039
10
2524.000000
20
-2000.000000
10
-2524.000000
20
-2000.000000
0
LWPOLYLINE
5
71
100
AcDbEntity
8
SILKSCREEN_BOTTOM
62
6
100
AcDbPolyline
90
2
70
0
43
0.000039
39
0.000039
10
-3500.000000
20
-1089.000000
10
-2520.000000
20
-2000.000000
0
LWPOLYLINE
5
72
100
AcDbEntity
8
SILKSCREEN_BOTTOM
62
6
100
AcDbPolyline
90
2
70
0
43
0.000039
39
0.000039
10
3500.000000
20
1089.000000
10
3500.000000
20
-1089.000000
0
LWPOLYLINE
5
73
100
AcDbEntity
8
SILKSCREEN_BOTTOM
62
6
100
AcDbPolyline
90
2
70
0
43
0.000039
39
0.000039
10
3500.000000
20
-1089.000000
10
2524.000000
20
-2000.000000
0
LWPOLYLINE
5
74
100
AcDbEntity
8
SILKSCREEN_BOTTOM
62
6
100
AcDbPolyline
90
2
70
0
43
0.000039
39
0.000039
10
2524.000000
20
2000.000000
10
3500.000000
20
1089.000000
0
LWPOLYLINE
5
75
100
AcDbEntity
8
SILKSCREEN_BOTTOM
62
6
100
AcDbPolyline
90
2
70
0
43
0.000039
39
0.000039
10
0.000000
20
2000.000000
10
0.000000
20
-2000.000000
0
LWPOLYLINE
5
76
100
AcDbEntity
8
SILKSCREEN_BOTTOM
62
6
100
AcDbPolyline
90
2
70
0
43
0.000039
39
0.000039
10
-3500.000000
20
1089.000000
10
3500.000000
20
1089.000000
0
LWPOLYLINE
5
77
100
AcDbEntity
8
SILKSCREEN_BOTTOM
62
6
100
AcDbPolyline
90
2
70
0
43
0.000039
39
0.000039
10
-2524.000000
20
2000.000000
10
-2524.000000
20
-2000.000000
0
LWPOLYLINE
5
78
100
AcDbEntity
8
SILKSCREEN_BOTTOM
62
6
100
AcDbPolyline
90
2
70
0
43
0.000039
39
0.000039
10
-3500.000000
20
-1089.000000
10
3500.000000
20
-1089.000000
0
LWPOLYLINE
5
79
100
AcDbEntity
8
SILKSCREEN_BOTTOM
62
6
100
AcDbPolyline
90
2
70
0
43
0.000039
39
0.000039
10
2524.000000
20
2000.000000
10
2524.000000
20
-2000.000000
0
LWPOLYLINE
5
7A
100
AcDbEntity
8
SILKSCREEN_BOTTOM
62
6
100
AcDbPolyline
90
2
70
0
43
0.000039
39
0.000039
10
-3500.000000
20
0.000000
10
3500.000000
20
0.000000
0
ENDSEC
0
SECTION
2
OBJECTS
0
DICTIONARY
5
7B
100
AcDbDictionary
3
ACAD_GROUP
350
7C
3
ACAD_LAYOUT
350
7D
3
ACAD_MLINESTYLE
350
7E
0
DICTIONARY
5
7C
100
AcDbDictionary
0
DICTIONARY
5
7D
100
AcDbDictionary
0
DICTIONARY
5
7E
100
AcDbDictionary
3
STANDARD
350
7F
0
MLINESTYLE
5
7F
100
AcDbMlineStyle
2
Standard
70
0
3

62
256
51
90.0
52
90.0
71
2
49
0.5
62
256
6
BYLAYER
49
-0.5
62
256
6
BYLAYER
0
ENDSEC
0
EOF
