G04 Generated by Ultiboard 14.2 *
%FSLAX24Y24*%
%MOIN*%

%ADD10C,0.0001*%
%ADD11C,0.0236*%
%ADD12R,1.7617X1.6042*%
%ADD13C,0.0100*%
%ADD14C,0.1250*%
%ADD15C,0.0620*%
%ADD16C,0.0197*%
%ADD17C,0.0350*%
%ADD18C,0.0392*%
%ADD19C,0.0394*%
%ADD20C,0.0984*%
%ADD21C,0.1378*%
%ADD22C,0.0839*%


G04 ColorRGB 000000 for the following layer *
%LNDrill-Copper Top-Copper Bottom*%
%LPD*%
G54D11*
X-33500Y5800D03*
X-26400Y9500D03*
X-27400Y-8400D03*
X-16600Y-19700D03*
X27200Y-7900D03*
X-10600Y3600D03*
X-10800Y8300D03*
X-11000Y-4100D03*
X-16700Y-4100D03*
X-16700Y-5100D03*
X2624Y5027D03*
X-27900Y12700D03*
G54D12*
X12200Y-8600D03*
G54D13*
X3392Y-16621D02*
X21008Y-16621D01*
X21008Y-579D01*
X3392Y-579D01*
X3392Y-16621D01*D02*
G54D14*
X-25240Y17140D03*
X25240Y17140D03*
X32110Y10890D03*
X32110Y-10890D03*
X-32110Y10890D03*
X-25240Y-17140D03*
X25240Y-17140D03*
X-32110Y-10890D03*
G54D15*
X-2700Y-6200D03*
X26100Y-6200D03*
X-20100Y-14700D03*
X-20100Y14100D03*
X26100Y8500D03*
X-2700Y8500D03*
G54D16*
X-6900Y5100D03*
X-6900Y6100D03*
X-9900Y5100D03*
X-9900Y6100D03*
X-9900Y-1700D03*
X-9900Y-2700D03*
X-6900Y-1700D03*
X-6900Y-2700D03*
G54D17*
X-27800Y-4000D03*
X-27800Y-3000D03*
X-27800Y-5000D03*
X-8300Y13300D03*
X-9300Y13300D03*
X-7300Y13300D03*
X-9096Y-13196D03*
X-8096Y-13196D03*
X-10096Y-13196D03*
X28000Y-3500D03*
X28000Y-4500D03*
X28000Y-2500D03*
X15600Y18600D03*
X15600Y17600D03*
X15600Y15600D03*
X15600Y16600D03*
X15600Y14600D03*
G54D18*
X-27800Y-2000D03*
X-10300Y13300D03*
X-7096Y-13196D03*
X28000Y-5500D03*
X15600Y19600D03*
G54D19*
X-12200Y-9600D03*
X-12200Y-8600D03*
X-12200Y-7600D03*
X-12200Y-6600D03*
X-12200Y-5600D03*
X-12200Y-4600D03*
X-12200Y-3600D03*
X-12200Y-2600D03*
X-12200Y-1600D03*
X-12200Y-600D03*
X-12200Y400D03*
X-12200Y1400D03*
X-12200Y2400D03*
X-12200Y3400D03*
X-12200Y4400D03*
X-12200Y5400D03*
X-12200Y6400D03*
X-12200Y7400D03*
X-12200Y8400D03*
X-21200Y-9600D03*
X-21200Y-8600D03*
X-21200Y-7600D03*
X-21200Y-6600D03*
X-21200Y-5600D03*
X-21200Y-4600D03*
X-21200Y-3600D03*
X-21200Y-2600D03*
X-21200Y-1600D03*
X-21200Y-600D03*
X-21200Y400D03*
X-21200Y1400D03*
X-21200Y2400D03*
X-21200Y3400D03*
X-21200Y4400D03*
X-21200Y5400D03*
X-21200Y6400D03*
X-21200Y7400D03*
X-21200Y8400D03*
X22100Y-7955D03*
X22100Y-8955D03*
X22100Y-9955D03*
X22100Y-10955D03*
X22100Y-11955D03*
X22100Y-12955D03*
X22100Y-13955D03*
X22100Y-14955D03*
X22092Y-6314D03*
X22092Y-5314D03*
X22092Y-4314D03*
X22092Y-3314D03*
X22092Y-2314D03*
X22092Y-1314D03*
G54D20*
X-12400Y-10800D03*
X-20900Y-10800D03*
X-20900Y9600D03*
X-12400Y9600D03*
G54D21*
X5596Y11265D03*
X22092Y-16195D03*
G54D22*
X773Y13929D03*

M02*
