G04 Generated by Ultiboard 14.2 *
%FSLAX24Y24*%
%MOIN*%

%ADD10C,0.0001*%
%ADD11C,0.0100*%
%ADD12C,0.0050*%
%ADD13C,0.0394*%
%ADD14C,0.1750*%
%ADD15C,0.0760*%
%ADD16C,0.0337*%
%ADD17C,0.0633*%
%ADD18R,0.0208X0.0208*%
%ADD19C,0.0392*%
%ADD20C,0.0534*%
%ADD21C,0.1124*%
%ADD22C,0.1518*%
%ADD23C,0.1083*%


G04 ColorRGB 0000FF for the following layer *
%LNCopper Bottom*%
%LPD*%
G54D10*
G36*
X15154Y16461D02*
X15154Y16461D01*
X14639Y16976D01*
X14617Y16999D01*
X-2199Y16999D01*
X-2199Y13800D01*
G75*
D01*
G02X-2258Y13658I-201J0*
G01*
X-2258Y13658D01*
X-2865Y13051D01*
X24136Y13051D01*
X21787Y15399D01*
X16021Y15399D01*
G75*
D01*
G02X16021Y15801I-421J201*
G01*
X16021Y15801D01*
X21871Y15801D01*
G74*
D01*
G02X22013Y15742I0J201*
G01*
X22013Y15742D01*
X24842Y12913D01*
G74*
D01*
G02X24901Y12771I142J142*
G01*
X24901Y12771D01*
X24901Y-6017D01*
X25483Y-6599D01*
X25751Y-6599D01*
G75*
D01*
G02X26449Y-6599I349J399*
G01*
X26449Y-6599D01*
X27400Y-6599D01*
G75*
D01*
G02X27454Y-6607I0J-201*
G01*
G74*
D01*
G02X27542Y-6658I54J193*
G01*
X27542Y-6658D01*
X28809Y-7925D01*
X28809Y0D01*
G75*
D01*
G02X28960Y151I151J0*
G01*
X28960Y151D01*
X35489Y151D01*
X35489Y8000D01*
X35489Y8000D01*
X35489Y8000D01*
X35492Y12725D01*
G75*
D01*
G02X35491Y12737I151J12*
G01*
G74*
D01*
G03X34393Y13835I1098J0*
G01*
G75*
D01*
G02X34381Y13836I0J152*
G01*
X34381Y13836D01*
X32296Y13836D01*
G74*
D01*
G02X32266Y13833I30J151*
G01*
G75*
D01*
G02X28305Y17794I0J3961*
G01*
G74*
D01*
G02X28308Y17824I154J0*
G01*
X28308Y17824D01*
X28308Y19406D01*
G75*
D01*
G02X28308Y19418I151J12*
G01*
G74*
D01*
G03X27209Y20516I1099J0*
G01*
G75*
D01*
G02X27197Y20517I0J152*
G01*
X27197Y20517D01*
X-4349Y20517D01*
X-4349Y13987D01*
G75*
D01*
G02X-4500Y13836I-151J0*
G01*
X-4500Y13836D01*
X-12500Y13836D01*
G75*
D01*
G02X-12651Y13987I0J151*
G01*
X-12651Y13987D01*
X-12651Y20517D01*
X-16896Y20517D01*
X-16896Y20517D01*
X-20500Y20517D01*
X-20500Y20517D01*
X-20500Y20517D01*
X-26345Y20517D01*
X-26345Y20517D01*
X-27197Y20517D01*
G74*
D01*
G02X-27209Y20516I12J151*
G01*
G75*
D01*
G03X-28308Y19418I0J-1098*
G01*
G75*
D01*
G02X-28308Y19406I-151J0*
G01*
X-28308Y19406D01*
X-28308Y17824D01*
G74*
D01*
G02X-28305Y17794I151J30*
G01*
G75*
D01*
G02X-32266Y13833I-3961J0*
G01*
G75*
D01*
G02X-32296Y13836I0J154*
G01*
X-32296Y13836D01*
X-34381Y13836D01*
G74*
D01*
G02X-34393Y13835I12J151*
G01*
G75*
D01*
G03X-35491Y12737I0J-1098*
G01*
G75*
D01*
G02X-35492Y12725I-152J0*
G01*
X-35492Y12725D01*
X-35492Y151D01*
X-28459Y151D01*
G74*
D01*
G02X-28308Y0I0J151*
G01*
X-28308Y0D01*
X-28308Y-8000D01*
G75*
D01*
G02X-28459Y-8151I-151J0*
G01*
X-28459Y-8151D01*
X-35489Y-8151D01*
X-35491Y-11370D01*
X-35491Y-11370D01*
X-35492Y-12725D01*
G74*
D01*
G02X-35491Y-12737I151J12*
G01*
G75*
D01*
G03X-34393Y-13835I1098J0*
G01*
G74*
D01*
G02X-34381Y-13836I0J152*
G01*
X-34381Y-13836D01*
X-32296Y-13836D01*
G75*
D01*
G02X-32266Y-13833I30J-151*
G01*
G74*
D01*
G02X-28305Y-17794I0J3961*
G01*
G75*
D01*
G02X-28308Y-17824I-154J0*
G01*
X-28308Y-17824D01*
X-28308Y-19406D01*
G74*
D01*
G02X-28308Y-19418I151J12*
G01*
G75*
D01*
G03X-27209Y-20516I1099J0*
G01*
G74*
D01*
G02X-27197Y-20517I0J152*
G01*
X-27197Y-20517D01*
X-12651Y-20517D01*
X-12651Y-13988D01*
G75*
D01*
G02X-12500Y-13837I151J0*
G01*
X-12500Y-13837D01*
X-5147Y-13837D01*
X-6383Y-12601D01*
X-12246Y-12601D01*
X-12640Y-12995D01*
X-10518Y-12995D01*
G75*
D01*
G02X-10518Y-13397I422J-201*
G01*
X-10518Y-13397D01*
X-12699Y-13397D01*
X-12699Y-18570D01*
G75*
D01*
G02X-12758Y-18713I-201J-1*
G01*
X-12758Y-18713D01*
X-14487Y-20442D01*
G74*
D01*
G02X-14563Y-20490I142J142*
G01*
G74*
D01*
G02X-14629Y-20501I66J190*
G01*
X-14629Y-20501D01*
X-16900Y-20501D01*
G75*
D01*
G02X-17042Y-20442I0J201*
G01*
X-17042Y-20442D01*
X-17383Y-20101D01*
X-25700Y-20101D01*
G75*
D01*
G02X-25842Y-20042I0J201*
G01*
X-25842Y-20042D01*
X-26345Y-19539D01*
X-27642Y-18242D01*
G75*
D01*
G02X-27701Y-18100I142J142*
G01*
X-27701Y-18100D01*
X-27701Y-16083D01*
X-30383Y-13401D01*
X-34000Y-13401D01*
G75*
D01*
G02X-34018Y-13400I0J201*
G01*
G74*
D01*
G02X-34142Y-13342I18J200*
G01*
X-34142Y-13342D01*
X-34842Y-12642D01*
G75*
D01*
G02X-34901Y-12500I142J142*
G01*
X-34901Y-12500D01*
X-34901Y-8700D01*
G74*
D01*
G02X-34842Y-8558I201J0*
G01*
X-34842Y-8558D01*
X-34792Y-8508D01*
G75*
D01*
G02X-34650Y-8449I142J-142*
G01*
X-34650Y-8449D01*
X-28233Y-8449D01*
X-28001Y-8217D01*
X-28001Y-5421D01*
G75*
D01*
G02X-27599Y-5421I201J421*
G01*
X-27599Y-5421D01*
X-27599Y-8116D01*
G74*
D01*
G02X-27523Y-8076I199J284*
G01*
X-27523Y-8076D01*
X-27523Y-8277D01*
X-27599Y-8277D01*
X-27599Y-8300D01*
G75*
D01*
G02X-27658Y-8442I-201J0*
G01*
X-27658Y-8442D01*
X-27865Y-8649D01*
X-27641Y-8649D01*
G74*
D01*
G02X-27724Y-8523I241J249*
G01*
X-27724Y-8523D01*
X-27523Y-8523D01*
X-27523Y-8649D01*
X-27333Y-8649D01*
X-27277Y-8593D01*
X-27277Y-8523D01*
X-27207Y-8523D01*
X-26701Y-8017D01*
X-26701Y387D01*
X-27413Y1099D01*
X-34670Y1099D01*
G75*
D01*
G02X-34744Y1113I-1J201*
G01*
G74*
D01*
G02X-34813Y1158I73J187*
G01*
X-34813Y1158D01*
X-34842Y1187D01*
G75*
D01*
G02X-34901Y1329I142J142*
G01*
X-34901Y1329D01*
X-34901Y3800D01*
G74*
D01*
G02X-34842Y3942I201J0*
G01*
X-34842Y3942D01*
X-33201Y5583D01*
X-33201Y5624D01*
G74*
D01*
G02X-33377Y5476I299J176*
G01*
X-33377Y5476D01*
X-33377Y5677D01*
X-33201Y5677D01*
X-33201Y5923D01*
X-33377Y5923D01*
X-33377Y6124D01*
G74*
D01*
G02X-33201Y5976I123J324*
G01*
X-33201Y5976D01*
X-33201Y6117D01*
X-34612Y7528D01*
X-34612Y7528D01*
X-34842Y7758D01*
G75*
D01*
G02X-34901Y7900I142J142*
G01*
X-34901Y7900D01*
X-34901Y11800D01*
G74*
D01*
G02X-34842Y11942I201J0*
G01*
X-34842Y11942D01*
X-34542Y12242D01*
G74*
D01*
G02X-34459Y12292I142J142*
G01*
G75*
D01*
G02X-34400Y12301I59J-192*
G01*
X-34400Y12301D01*
X-28583Y12301D01*
X-28242Y12642D01*
G75*
D01*
G02X-27958Y12358I342J58*
G01*
X-27958Y12358D01*
X-28358Y11958D01*
G75*
D01*
G02X-28500Y11899I-142J142*
G01*
X-28500Y11899D01*
X-34317Y11899D01*
X-34499Y11717D01*
X-34499Y7983D01*
X-34043Y7528D01*
X-34043Y7528D01*
X-32858Y6342D01*
G75*
D01*
G02X-32799Y6200I-142J-142*
G01*
X-32799Y6200D01*
X-32799Y5501D01*
G75*
D01*
G02X-32858Y5358I-201J-1*
G01*
X-32858Y5358D01*
X-34499Y3717D01*
X-34499Y1501D01*
X-27329Y1501D01*
G74*
D01*
G02X-27276Y1494I0J201*
G01*
G74*
D01*
G02X-27187Y1442I53J194*
G01*
X-27187Y1442D01*
X-26501Y756D01*
X-26501Y9168D01*
G75*
D01*
G02X-26099Y9328I101J332*
G01*
X-26099Y9328D01*
X-26099Y-8199D01*
G75*
D01*
G02X-26158Y-8342I-201J-1*
G01*
X-26158Y-8342D01*
X-26345Y-8529D01*
X-27058Y-9242D01*
G74*
D01*
G02X-27187Y-9301I142J142*
G01*
G74*
D01*
G02X-27200Y-9301I13J201*
G01*
X-27200Y-9301D01*
X-34017Y-9301D01*
X-34099Y-9383D01*
X-34099Y-12117D01*
X-33617Y-12599D01*
X-30000Y-12599D01*
G75*
D01*
G02X-29858Y-12658I0J-201*
G01*
X-29858Y-12658D01*
X-26958Y-15558D01*
G75*
D01*
G02X-26899Y-15700I-142J-142*
G01*
X-26899Y-15700D01*
X-26899Y-17808D01*
X-25587Y-19120D01*
X-14804Y-19120D01*
X-13701Y-18017D01*
X-13701Y-12971D01*
G74*
D01*
G02X-13642Y-12828I201J0*
G01*
X-13642Y-12828D01*
X-12572Y-11758D01*
G75*
D01*
G02X-12429Y-11699I143J-142*
G01*
X-12429Y-11699D01*
X-11783Y-11699D01*
X-11701Y-11617D01*
X-11701Y1800D01*
G74*
D01*
G02X-11642Y1942I201J0*
G01*
X-11642Y1942D01*
X-11501Y2083D01*
X-11501Y10700D01*
G74*
D01*
G02X-11442Y10842I201J0*
G01*
X-11442Y10842D01*
X-10785Y11499D01*
X-12887Y11499D01*
X-14199Y10187D01*
X-14199Y1083D01*
X-13717Y601D01*
X-12565Y601D01*
G75*
D01*
G02X-12565Y199I365J-201*
G01*
X-12565Y199D01*
X-13800Y199D01*
G75*
D01*
G02X-13831Y201I0J201*
G01*
G74*
D01*
G02X-13942Y258I31J199*
G01*
X-13942Y258D01*
X-14499Y815D01*
X-14499Y-917D01*
X-14017Y-1399D01*
X-12565Y-1399D01*
G75*
D01*
G02X-12565Y-1801I365J-201*
G01*
X-12565Y-1801D01*
X-14100Y-1801D01*
G75*
D01*
G02X-14242Y-1742I0J201*
G01*
X-14242Y-1742D01*
X-14842Y-1142D01*
G75*
D01*
G02X-14901Y-1000I142J142*
G01*
X-14901Y-1000D01*
X-14901Y972D01*
G74*
D01*
G02X-14958Y858I199J28*
G01*
X-14958Y858D01*
X-16896Y-1080D01*
X-17737Y-1921D01*
X-17737Y-1921D01*
X-18558Y-2742D01*
G75*
D01*
G02X-18700Y-2801I-142J142*
G01*
X-18700Y-2801D01*
X-20835Y-2801D01*
G75*
D01*
G02X-20835Y-2399I-365J201*
G01*
X-20835Y-2399D01*
X-18783Y-2399D01*
X-18305Y-1921D01*
X-18305Y-1921D01*
X-16896Y-512D01*
X-16896Y-512D01*
X-15301Y1083D01*
X-15301Y1215D01*
X-16896Y-380D01*
X-16896Y-380D01*
X-18258Y-1742D01*
G75*
D01*
G02X-18400Y-1801I-142J142*
G01*
X-18400Y-1801D01*
X-20835Y-1801D01*
G75*
D01*
G02X-20835Y-1399I-365J201*
G01*
X-20835Y-1399D01*
X-18483Y-1399D01*
X-16896Y188D01*
X-16885Y199D01*
X-20835Y199D01*
G75*
D01*
G02X-20835Y601I-365J201*
G01*
X-20835Y601D01*
X-16783Y601D01*
X-15801Y1583D01*
X-15801Y10600D01*
G74*
D01*
G02X-15742Y10742I201J0*
G01*
X-15742Y10742D01*
X-13642Y12842D01*
G75*
D01*
G02X-13500Y12901I142J-142*
G01*
X-13500Y12901D01*
X-10588Y12901D01*
G74*
D01*
G02X-10747Y13140I184J295*
G01*
X-10747Y13140D01*
X-10460Y13140D01*
X-10460Y12901D01*
X-10140Y12901D01*
X-10140Y13140D01*
X-9853Y13140D01*
G74*
D01*
G02X-10012Y12901I343J56*
G01*
X-10012Y12901D01*
X-9542Y12901D01*
G75*
D01*
G02X-9058Y12901I242J399*
G01*
X-9058Y12901D01*
X-8542Y12901D01*
G75*
D01*
G02X-8099Y12879I242J399*
G01*
X-8099Y12879D01*
X-8099Y12730D01*
G75*
D01*
G02X-8101Y12701I-201J-1*
G01*
X-8101Y12701D01*
X-4683Y12701D01*
X-4585Y12799D01*
X-7000Y12799D01*
G75*
D01*
G02X-7059Y12808I0J201*
G01*
G74*
D01*
G02X-7142Y12858I59J192*
G01*
X-7142Y12858D01*
X-7144Y12860D01*
G75*
D01*
G02X-6844Y13201I-156J440*
G01*
X-6844Y13201D01*
X-4183Y13201D01*
X-3201Y14183D01*
X-3201Y17871D01*
G74*
D01*
G02X-3142Y18013I201J0*
G01*
X-3142Y18013D01*
X-3113Y18042D01*
G74*
D01*
G02X-3021Y18094I142J142*
G01*
G75*
D01*
G02X-2970Y18101I50J-194*
G01*
X-2970Y18101D01*
X12817Y18101D01*
X15158Y20442D01*
G75*
D01*
G02X15300Y20501I142J-142*
G01*
X15300Y20501D01*
X24300Y20501D01*
G74*
D01*
G02X24442Y20442I0J201*
G01*
X24442Y20442D01*
X27908Y16976D01*
X27908Y16976D01*
X28042Y16842D01*
G74*
D01*
G02X28101Y16700I142J142*
G01*
X28101Y16700D01*
X28101Y13583D01*
X29183Y12501D01*
X34771Y12501D01*
G74*
D01*
G02X34913Y12442I0J201*
G01*
X34913Y12442D01*
X34942Y12413D01*
G74*
D01*
G02X35001Y12271I142J142*
G01*
X35001Y12271D01*
X35001Y929D01*
G75*
D01*
G02X34942Y787I-201J0*
G01*
X34942Y787D01*
X34913Y758D01*
G74*
D01*
G02X34821Y706I142J142*
G01*
G75*
D01*
G02X34770Y699I-50J194*
G01*
X34770Y699D01*
X29013Y699D01*
X28801Y487D01*
X28801Y-1900D01*
G75*
D01*
G02X28742Y-2042I-201J0*
G01*
X28742Y-2042D01*
X28440Y-2344D01*
G75*
D01*
G02X28156Y-2060I-440J-156*
G01*
X28156Y-2060D01*
X28295Y-1921D01*
X28295Y-1921D01*
X28399Y-1817D01*
X28399Y570D01*
G75*
D01*
G02X28458Y713I201J1*
G01*
X28458Y713D01*
X28787Y1042D01*
G74*
D01*
G02X28882Y1095I142J142*
G01*
G75*
D01*
G02X28929Y1101I47J-195*
G01*
X28929Y1101D01*
X34599Y1101D01*
X34599Y12099D01*
X29100Y12099D01*
G75*
D01*
G02X28958Y12158I0J201*
G01*
X28958Y12158D01*
X27758Y13358D01*
G75*
D01*
G02X27699Y13500I142J142*
G01*
X27699Y13500D01*
X27699Y16617D01*
X27339Y16976D01*
X24217Y20099D01*
X15383Y20099D01*
X13185Y17901D01*
X13617Y17901D01*
X15153Y19437D01*
G75*
D01*
G02X15148Y19496I343J59*
G01*
X15148Y19496D01*
X15148Y19704D01*
G75*
D01*
G02X15496Y20052I348J0*
G01*
X15496Y20052D01*
X15704Y20052D01*
G74*
D01*
G02X16052Y19704I0J348*
G01*
X16052Y19704D01*
X16052Y19496D01*
G75*
D01*
G02X15704Y19148I-348J0*
G01*
X15704Y19148D01*
X15496Y19148D01*
G75*
D01*
G02X15437Y19153I0J348*
G01*
X15437Y19153D01*
X13985Y17701D01*
X15144Y17701D01*
G75*
D01*
G02X15243Y17299I456J-101*
G01*
X15243Y17299D01*
X14885Y17299D01*
X15208Y16976D01*
X15262Y16922D01*
G75*
D01*
G02X15154Y16461I338J-322*
G01*
D02*
G37*
%LPC*%
G36*
X25788Y16840D02*
X25788Y16840D01*
X26220Y16840D01*
G74*
D01*
G02X25540Y16160I980J300*
G01*
X25540Y16160D01*
X25540Y16592D01*
G75*
D01*
G02X24940Y16592I-300J548*
G01*
X24940Y16592D01*
X24940Y16160D01*
G74*
D01*
G02X24260Y16840I300J980*
G01*
X24260Y16840D01*
X24692Y16840D01*
G75*
D01*
G02X24692Y17440I548J300*
G01*
X24692Y17440D01*
X24260Y17440D01*
G74*
D01*
G02X24940Y18120I980J300*
G01*
X24940Y18120D01*
X24940Y17688D01*
G75*
D01*
G02X25540Y17688I300J-548*
G01*
X25540Y17688D01*
X25540Y18120D01*
G74*
D01*
G02X26220Y17440I300J980*
G01*
X26220Y17440D01*
X25788Y17440D01*
G75*
D01*
G02X25788Y16840I-548J-300*
G01*
D02*
G37*
G36*
X-11803Y7528D02*
G75*
D01*
G02X-11803Y7528I-397J-128*
G01*
D02*
G37*
G36*
X-7543Y-13357D02*
X-7543Y-13357D01*
X-7257Y-13357D01*
X-7257Y-13643D01*
G74*
D01*
G02X-7543Y-13357I57J342*
G01*
D02*
G37*
G36*
X-7543Y-13036D02*
G74*
D01*
G02X-7257Y-12749I343J56*
G01*
X-7257Y-12749D01*
X-7257Y-13036D01*
X-7543Y-13036D01*
D02*
G37*
G36*
X-20647Y-11466D02*
X-20647Y-11466D01*
X-20647Y-11222D01*
G75*
D01*
G02X-21153Y-11222I-253J422*
G01*
X-21153Y-11222D01*
X-21153Y-11466D01*
G74*
D01*
G02X-21566Y-11053I253J666*
G01*
X-21566Y-11053D01*
X-21322Y-11053D01*
G75*
D01*
G02X-21322Y-10547I422J253*
G01*
X-21322Y-10547D01*
X-21566Y-10547D01*
G74*
D01*
G02X-21153Y-10134I666J253*
G01*
X-21153Y-10134D01*
X-21153Y-10378D01*
G75*
D01*
G02X-20647Y-10378I253J-422*
G01*
X-20647Y-10378D01*
X-20647Y-10134D01*
G74*
D01*
G02X-20234Y-10547I253J666*
G01*
X-20234Y-10547D01*
X-20478Y-10547D01*
G75*
D01*
G02X-20478Y-11053I-422J-253*
G01*
X-20478Y-11053D01*
X-20234Y-11053D01*
G74*
D01*
G02X-20647Y-11466I666J253*
G01*
D02*
G37*
G36*
X-33090Y-11190D02*
X-33090Y-11190D01*
X-32658Y-11190D01*
G75*
D01*
G02X-32658Y-10590I548J300*
G01*
X-32658Y-10590D01*
X-33090Y-10590D01*
G74*
D01*
G02X-32410Y-9910I980J300*
G01*
X-32410Y-9910D01*
X-32410Y-10342D01*
G75*
D01*
G02X-31810Y-10342I300J-548*
G01*
X-31810Y-10342D01*
X-31810Y-9910D01*
G74*
D01*
G02X-31130Y-10590I300J980*
G01*
X-31130Y-10590D01*
X-31562Y-10590D01*
G75*
D01*
G02X-31562Y-11190I-548J-300*
G01*
X-31562Y-11190D01*
X-31130Y-11190D01*
G74*
D01*
G02X-31810Y-11870I980J300*
G01*
X-31810Y-11870D01*
X-31810Y-11438D01*
G75*
D01*
G02X-32410Y-11438I-300J548*
G01*
X-32410Y-11438D01*
X-32410Y-11870D01*
G74*
D01*
G02X-33090Y-11190I300J980*
G01*
D02*
G37*
G36*
X-16983Y-3899D02*
G75*
D01*
G02X-16983Y-4301I283J-201*
G01*
X-16983Y-4301D01*
X-17117Y-4301D01*
X-18558Y-5742D01*
G74*
D01*
G02X-18630Y-5788I142J142*
G01*
G74*
D01*
G02X-18700Y-5801I70J188*
G01*
X-18700Y-5801D01*
X-20835Y-5801D01*
G75*
D01*
G02X-20835Y-5399I-365J201*
G01*
X-20835Y-5399D01*
X-18783Y-5399D01*
X-17342Y-3958D01*
G74*
D01*
G02X-17221Y-3900I142J142*
G01*
G75*
D01*
G02X-17200Y-3899I21J-200*
G01*
X-17200Y-3899D01*
X-16983Y-3899D01*
D02*
G37*
G36*
X-12147Y-11466D02*
X-12147Y-11466D01*
X-12147Y-11222D01*
G75*
D01*
G02X-12653Y-11222I-253J422*
G01*
X-12653Y-11222D01*
X-12653Y-11466D01*
G74*
D01*
G02X-13066Y-11053I253J666*
G01*
X-13066Y-11053D01*
X-12822Y-11053D01*
G75*
D01*
G02X-12822Y-10547I422J253*
G01*
X-12822Y-10547D01*
X-13066Y-10547D01*
G74*
D01*
G02X-12653Y-10134I666J253*
G01*
X-12653Y-10134D01*
X-12653Y-10378D01*
G75*
D01*
G02X-12147Y-10378I253J-422*
G01*
X-12147Y-10378D01*
X-12147Y-10134D01*
G74*
D01*
G02X-11734Y-10547I253J666*
G01*
X-11734Y-10547D01*
X-11978Y-10547D01*
G75*
D01*
G02X-11978Y-11053I-422J-253*
G01*
X-11978Y-11053D01*
X-11734Y-11053D01*
G74*
D01*
G02X-12147Y-11466I666J253*
G01*
D02*
G37*
G36*
X-18058Y-6742D02*
G74*
D01*
G02X-18130Y-6788I142J142*
G01*
G74*
D01*
G02X-18200Y-6801I70J188*
G01*
X-18200Y-6801D01*
X-20835Y-6801D01*
G75*
D01*
G02X-20835Y-6399I-365J201*
G01*
X-20835Y-6399D01*
X-18283Y-6399D01*
X-17042Y-5158D01*
G75*
D01*
G02X-16758Y-5442I342J58*
G01*
X-16758Y-5442D01*
X-16896Y-5580D01*
X-16896Y-5580D01*
X-18058Y-6742D01*
D02*
G37*
G36*
X-25788Y16840D02*
G75*
D01*
G02X-25788Y17440I548J300*
G01*
X-25788Y17440D01*
X-26220Y17440D01*
G74*
D01*
G02X-25540Y18120I980J300*
G01*
X-25540Y18120D01*
X-25540Y17688D01*
G75*
D01*
G02X-24940Y17688I300J-548*
G01*
X-24940Y17688D01*
X-24940Y18120D01*
G74*
D01*
G02X-24260Y17440I300J980*
G01*
X-24260Y17440D01*
X-24692Y17440D01*
G75*
D01*
G02X-24692Y16840I-548J-300*
G01*
X-24692Y16840D01*
X-24260Y16840D01*
G74*
D01*
G02X-24940Y16160I980J300*
G01*
X-24940Y16160D01*
X-24940Y16592D01*
G75*
D01*
G02X-25540Y16592I-300J548*
G01*
X-25540Y16592D01*
X-25540Y16160D01*
G74*
D01*
G02X-26220Y16840I300J980*
G01*
X-26220Y16840D01*
X-25788Y16840D01*
D02*
G37*
G36*
X-27621Y-1921D02*
G75*
D01*
G02X-27621Y-1921I-179J-79*
G01*
D02*
G37*
G36*
X-21597Y7528D02*
G75*
D01*
G02X-21597Y7528I397J-128*
G01*
D02*
G37*
G36*
X-7292Y-13196D02*
G75*
D01*
G02X-7292Y-13196I196J0*
G01*
D02*
G37*
G36*
X-6936Y-13643D02*
X-6936Y-13643D01*
X-6936Y-13357D01*
X-6649Y-13357D01*
G74*
D01*
G02X-6936Y-13643I343J56*
G01*
D02*
G37*
G36*
X-6649Y-13036D02*
X-6649Y-13036D01*
X-6936Y-13036D01*
X-6936Y-12749D01*
G74*
D01*
G02X-6649Y-13036I56J343*
G01*
D02*
G37*
G36*
X-11978Y9853D02*
G75*
D01*
G02X-11978Y9347I-422J-253*
G01*
X-11978Y9347D01*
X-11734Y9347D01*
G74*
D01*
G02X-12147Y8934I666J253*
G01*
X-12147Y8934D01*
X-12147Y9178D01*
G75*
D01*
G02X-12653Y9178I-253J422*
G01*
X-12653Y9178D01*
X-12653Y8934D01*
G74*
D01*
G02X-13066Y9347I253J666*
G01*
X-13066Y9347D01*
X-12822Y9347D01*
G75*
D01*
G02X-12822Y9853I422J253*
G01*
X-12822Y9853D01*
X-13066Y9853D01*
G74*
D01*
G02X-12653Y10266I666J253*
G01*
X-12653Y10266D01*
X-12653Y10022D01*
G75*
D01*
G02X-12147Y10022I253J-422*
G01*
X-12147Y10022D01*
X-12147Y10266D01*
G74*
D01*
G02X-11734Y9853I253J666*
G01*
X-11734Y9853D01*
X-11978Y9853D01*
D02*
G37*
G36*
X-12617Y8400D02*
G75*
D01*
G02X-12617Y8400I417J0*
G01*
D02*
G37*
G36*
X1113Y14174D02*
G75*
D01*
G02X1113Y13684I-340J-245*
G01*
X1113Y13684D01*
X1420Y13684D01*
G74*
D01*
G02X1018Y13283I647J245*
G01*
X1018Y13283D01*
X1018Y13589D01*
G75*
D01*
G02X528Y13589I-245J340*
G01*
X528Y13589D01*
X528Y13283D01*
G74*
D01*
G02X127Y13684I245J646*
G01*
X127Y13684D01*
X433Y13684D01*
G75*
D01*
G02X433Y14174I340J245*
G01*
X433Y14174D01*
X127Y14174D01*
G74*
D01*
G02X528Y14576I646J245*
G01*
X528Y14576D01*
X528Y14269D01*
G75*
D01*
G02X1018Y14269I245J-340*
G01*
X1018Y14269D01*
X1018Y14576D01*
G74*
D01*
G02X1420Y14174I245J647*
G01*
X1420Y14174D01*
X1113Y14174D01*
D02*
G37*
G36*
X32658Y11190D02*
G75*
D01*
G02X32658Y10590I-548J-300*
G01*
X32658Y10590D01*
X33090Y10590D01*
G74*
D01*
G02X32410Y9910I980J300*
G01*
X32410Y9910D01*
X32410Y10342D01*
G75*
D01*
G02X31810Y10342I-300J548*
G01*
X31810Y10342D01*
X31810Y9910D01*
G74*
D01*
G02X31130Y10590I300J980*
G01*
X31130Y10590D01*
X31562Y10590D01*
G75*
D01*
G02X31562Y11190I548J300*
G01*
X31562Y11190D01*
X31130Y11190D01*
G74*
D01*
G02X31810Y11870I980J300*
G01*
X31810Y11870D01*
X31810Y11438D01*
G75*
D01*
G02X32410Y11438I300J-548*
G01*
X32410Y11438D01*
X32410Y11870D01*
G74*
D01*
G02X33090Y11190I300J980*
G01*
X33090Y11190D01*
X32658Y11190D01*
D02*
G37*
G36*
X27553Y-5660D02*
X27553Y-5660D01*
X27840Y-5660D01*
X27840Y-5947D01*
G74*
D01*
G02X27553Y-5660I56J343*
G01*
D02*
G37*
G36*
X28160Y-5947D02*
X28160Y-5947D01*
X28160Y-5660D01*
X28447Y-5660D01*
G74*
D01*
G02X28160Y-5947I343J56*
G01*
D02*
G37*
G36*
X27804Y-5500D02*
G75*
D01*
G02X27804Y-5500I196J0*
G01*
D02*
G37*
G36*
X27840Y-5053D02*
X27840Y-5053D01*
X27840Y-5340D01*
X27553Y-5340D01*
G74*
D01*
G02X27840Y-5053I343J56*
G01*
D02*
G37*
G36*
X27533Y-4500D02*
G75*
D01*
G02X27533Y-4500I467J0*
G01*
D02*
G37*
G36*
X28447Y-5340D02*
X28447Y-5340D01*
X28160Y-5340D01*
X28160Y-5053D01*
G74*
D01*
G02X28447Y-5340I56J343*
G01*
D02*
G37*
G36*
X27533Y-3500D02*
G75*
D01*
G02X27533Y-3500I467J0*
G01*
D02*
G37*
G36*
X15133Y18600D02*
G75*
D01*
G02X15133Y18600I467J0*
G01*
D02*
G37*
G36*
X-12617Y-600D02*
G75*
D01*
G02X-12617Y-600I417J0*
G01*
D02*
G37*
G36*
X-12617Y1400D02*
G75*
D01*
G02X-12617Y1400I417J0*
G01*
D02*
G37*
G36*
X-12617Y2400D02*
G75*
D01*
G02X-12617Y2400I417J0*
G01*
D02*
G37*
G36*
X-12617Y3400D02*
G75*
D01*
G02X-12617Y3400I417J0*
G01*
D02*
G37*
G36*
X-12617Y4400D02*
G75*
D01*
G02X-12617Y4400I417J0*
G01*
D02*
G37*
G36*
X-12617Y5400D02*
G75*
D01*
G02X-12617Y5400I417J0*
G01*
D02*
G37*
G36*
X-12617Y6400D02*
G75*
D01*
G02X-12617Y6400I417J0*
G01*
D02*
G37*
G36*
X15435Y14164D02*
G74*
D01*
G02X15164Y14435I165J436*
G01*
X15164Y14435D01*
X15435Y14435D01*
X15435Y14164D01*
D02*
G37*
G36*
X16036Y14435D02*
G74*
D01*
G02X15765Y14164I436J165*
G01*
X15765Y14164D01*
X15765Y14435D01*
X16036Y14435D01*
D02*
G37*
G36*
X15164Y14765D02*
G74*
D01*
G02X15435Y15036I436J165*
G01*
X15435Y15036D01*
X15435Y14765D01*
X15164Y14765D01*
D02*
G37*
G36*
X15425Y14600D02*
G75*
D01*
G02X15425Y14600I175J0*
G01*
D02*
G37*
G36*
X15765Y15036D02*
G74*
D01*
G02X16036Y14765I165J436*
G01*
X16036Y14765D01*
X15765Y14765D01*
X15765Y15036D01*
D02*
G37*
G36*
X-12590Y-9452D02*
G74*
D01*
G02X-12348Y-9210I390J148*
G01*
X-12348Y-9210D01*
X-12348Y-9452D01*
X-12590Y-9452D01*
D02*
G37*
G36*
X-12052Y-9210D02*
G74*
D01*
G02X-11810Y-9452I148J390*
G01*
X-11810Y-9452D01*
X-12052Y-9452D01*
X-12052Y-9210D01*
D02*
G37*
G36*
X-11810Y-9748D02*
G74*
D01*
G02X-12052Y-9990I390J148*
G01*
X-12052Y-9990D01*
X-12052Y-9748D01*
X-11810Y-9748D01*
D02*
G37*
G36*
X-12397Y-9600D02*
G75*
D01*
G02X-12397Y-9600I197J0*
G01*
D02*
G37*
G36*
X-12348Y-9990D02*
G74*
D01*
G02X-12590Y-9748I148J390*
G01*
X-12590Y-9748D01*
X-12348Y-9748D01*
X-12348Y-9990D01*
D02*
G37*
G36*
X-12617Y-8600D02*
G75*
D01*
G02X-12617Y-8600I417J0*
G01*
D02*
G37*
G36*
X-12617Y-7600D02*
G75*
D01*
G02X-12617Y-7600I417J0*
G01*
D02*
G37*
G36*
X-12617Y-6600D02*
G75*
D01*
G02X-12617Y-6600I417J0*
G01*
D02*
G37*
G36*
X-12617Y-5600D02*
G75*
D01*
G02X-12617Y-5600I417J0*
G01*
D02*
G37*
G36*
X-12617Y-4600D02*
G75*
D01*
G02X-12617Y-4600I417J0*
G01*
D02*
G37*
G36*
X-12617Y-3600D02*
G75*
D01*
G02X-12617Y-3600I417J0*
G01*
D02*
G37*
G36*
X-12617Y-2600D02*
G75*
D01*
G02X-12617Y-2600I417J0*
G01*
D02*
G37*
G36*
X-24692Y-16840D02*
G75*
D01*
G02X-24692Y-17440I-548J-300*
G01*
X-24692Y-17440D01*
X-24260Y-17440D01*
G74*
D01*
G02X-24940Y-18120I980J300*
G01*
X-24940Y-18120D01*
X-24940Y-17688D01*
G75*
D01*
G02X-25540Y-17688I-300J548*
G01*
X-25540Y-17688D01*
X-25540Y-18120D01*
G74*
D01*
G02X-26220Y-17440I300J980*
G01*
X-26220Y-17440D01*
X-25788Y-17440D01*
G75*
D01*
G02X-25788Y-16840I548J300*
G01*
X-25788Y-16840D01*
X-26220Y-16840D01*
G74*
D01*
G02X-25540Y-16160I980J300*
G01*
X-25540Y-16160D01*
X-25540Y-16592D01*
G75*
D01*
G02X-24940Y-16592I300J-548*
G01*
X-24940Y-16592D01*
X-24940Y-16160D01*
G74*
D01*
G02X-24260Y-16840I300J980*
G01*
X-24260Y-16840D01*
X-24692Y-16840D01*
D02*
G37*
G36*
X-19853Y-14512D02*
G75*
D01*
G02X-19853Y-14888I-247J-188*
G01*
X-19853Y-14888D01*
X-19604Y-14888D01*
G74*
D01*
G02X-19912Y-15196I496J188*
G01*
X-19912Y-15196D01*
X-19912Y-14947D01*
G75*
D01*
G02X-20288Y-14947I-188J247*
G01*
X-20288Y-14947D01*
X-20288Y-15196D01*
G74*
D01*
G02X-20596Y-14888I188J496*
G01*
X-20596Y-14888D01*
X-20347Y-14888D01*
G75*
D01*
G02X-20347Y-14512I247J188*
G01*
X-20347Y-14512D01*
X-20596Y-14512D01*
G74*
D01*
G02X-20288Y-14204I496J188*
G01*
X-20288Y-14204D01*
X-20288Y-14453D01*
G75*
D01*
G02X-19912Y-14453I188J-247*
G01*
X-19912Y-14453D01*
X-19912Y-14204D01*
G74*
D01*
G02X-19604Y-14512I188J496*
G01*
X-19604Y-14512D01*
X-19853Y-14512D01*
D02*
G37*
G36*
X-9563Y-13196D02*
G75*
D01*
G02X-9563Y-13196I467J0*
G01*
D02*
G37*
G36*
X-8563Y-13196D02*
G75*
D01*
G02X-8563Y-13196I467J0*
G01*
D02*
G37*
G36*
X-27277Y-8076D02*
G74*
D01*
G02X-27076Y-8277I123J324*
G01*
X-27076Y-8277D01*
X-27277Y-8277D01*
X-27277Y-8076D01*
D02*
G37*
G36*
X-27518Y-8400D02*
G75*
D01*
G02X-27518Y-8400I118J0*
G01*
D02*
G37*
G36*
X-28267Y-4000D02*
G75*
D01*
G02X-28267Y-4000I467J0*
G01*
D02*
G37*
G36*
X-28267Y-3000D02*
G75*
D01*
G02X-28267Y-3000I467J0*
G01*
D02*
G37*
G36*
X-28247Y-2160D02*
X-28247Y-2160D01*
X-27960Y-2160D01*
X-27960Y-2447D01*
G74*
D01*
G02X-28247Y-2160I56J343*
G01*
D02*
G37*
G36*
X-27640Y-2447D02*
X-27640Y-2447D01*
X-27640Y-2160D01*
X-27353Y-2160D01*
G74*
D01*
G02X-27640Y-2447I343J56*
G01*
D02*
G37*
G36*
X-33618Y5800D02*
G75*
D01*
G02X-33618Y5800I118J0*
G01*
D02*
G37*
G36*
X-27960Y-1553D02*
X-27960Y-1553D01*
X-27960Y-1840D01*
X-28247Y-1840D01*
G74*
D01*
G02X-27960Y-1553I343J56*
G01*
D02*
G37*
G36*
X-27353Y-1840D02*
X-27353Y-1840D01*
X-27640Y-1840D01*
X-27640Y-1553D01*
G74*
D01*
G02X-27353Y-1840I56J343*
G01*
D02*
G37*
G36*
X-33824Y5923D02*
G74*
D01*
G02X-33623Y6124I324J123*
G01*
X-33623Y6124D01*
X-33623Y5923D01*
X-33824Y5923D01*
D02*
G37*
G36*
X-33623Y5476D02*
G74*
D01*
G02X-33824Y5677I123J324*
G01*
X-33824Y5677D01*
X-33623Y5677D01*
X-33623Y5476D01*
D02*
G37*
G36*
X-31562Y11190D02*
G75*
D01*
G02X-31562Y10590I-548J-300*
G01*
X-31562Y10590D01*
X-31130Y10590D01*
G74*
D01*
G02X-31810Y9910I980J300*
G01*
X-31810Y9910D01*
X-31810Y10342D01*
G75*
D01*
G02X-32410Y10342I-300J548*
G01*
X-32410Y10342D01*
X-32410Y9910D01*
G74*
D01*
G02X-33090Y10590I300J980*
G01*
X-33090Y10590D01*
X-32658Y10590D01*
G75*
D01*
G02X-32658Y11190I548J300*
G01*
X-32658Y11190D01*
X-33090Y11190D01*
G74*
D01*
G02X-32410Y11870I980J300*
G01*
X-32410Y11870D01*
X-32410Y11438D01*
G75*
D01*
G02X-31810Y11438I300J-548*
G01*
X-31810Y11438D01*
X-31810Y11870D01*
G74*
D01*
G02X-31130Y11190I300J980*
G01*
X-31130Y11190D01*
X-31562Y11190D01*
D02*
G37*
G36*
X-21617Y-600D02*
G75*
D01*
G02X-21617Y-600I417J0*
G01*
D02*
G37*
G36*
X-21617Y1400D02*
G75*
D01*
G02X-21617Y1400I417J0*
G01*
D02*
G37*
G36*
X-21617Y2400D02*
G75*
D01*
G02X-21617Y2400I417J0*
G01*
D02*
G37*
G36*
X-21617Y3400D02*
G75*
D01*
G02X-21617Y3400I417J0*
G01*
D02*
G37*
G36*
X-21617Y4400D02*
G75*
D01*
G02X-21617Y4400I417J0*
G01*
D02*
G37*
G36*
X-21617Y5400D02*
G75*
D01*
G02X-21617Y5400I417J0*
G01*
D02*
G37*
G36*
X-21617Y6400D02*
G75*
D01*
G02X-21617Y6400I417J0*
G01*
D02*
G37*
G36*
X25570Y8500D02*
G75*
D01*
G02X25570Y8500I530J0*
G01*
D02*
G37*
G36*
X-21617Y-9600D02*
G75*
D01*
G02X-21617Y-9600I417J0*
G01*
D02*
G37*
G36*
X-21617Y-8600D02*
G75*
D01*
G02X-21617Y-8600I417J0*
G01*
D02*
G37*
G36*
X-21617Y-7600D02*
G75*
D01*
G02X-21617Y-7600I417J0*
G01*
D02*
G37*
G36*
X-21617Y-4600D02*
G75*
D01*
G02X-21617Y-4600I417J0*
G01*
D02*
G37*
G36*
X-21617Y-3600D02*
G75*
D01*
G02X-21617Y-3600I417J0*
G01*
D02*
G37*
G36*
X-9853Y13460D02*
X-9853Y13460D01*
X-10140Y13460D01*
X-10140Y13747D01*
G74*
D01*
G02X-9853Y13460I56J343*
G01*
D02*
G37*
G36*
X-10496Y13300D02*
G75*
D01*
G02X-10496Y13300I196J0*
G01*
D02*
G37*
G36*
X-10460Y13747D02*
X-10460Y13747D01*
X-10460Y13460D01*
X-10747Y13460D01*
G74*
D01*
G02X-10460Y13747I343J56*
G01*
D02*
G37*
G36*
X-21617Y8400D02*
G75*
D01*
G02X-21617Y8400I417J0*
G01*
D02*
G37*
G36*
X-20478Y9853D02*
G75*
D01*
G02X-20478Y9347I-422J-253*
G01*
X-20478Y9347D01*
X-20234Y9347D01*
G74*
D01*
G02X-20647Y8934I666J253*
G01*
X-20647Y8934D01*
X-20647Y9178D01*
G75*
D01*
G02X-21153Y9178I-253J422*
G01*
X-21153Y9178D01*
X-21153Y8934D01*
G74*
D01*
G02X-21566Y9347I253J666*
G01*
X-21566Y9347D01*
X-21322Y9347D01*
G75*
D01*
G02X-21322Y9853I422J253*
G01*
X-21322Y9853D01*
X-21566Y9853D01*
G74*
D01*
G02X-21153Y10266I666J253*
G01*
X-21153Y10266D01*
X-21153Y10022D01*
G75*
D01*
G02X-20647Y10022I253J-422*
G01*
X-20647Y10022D01*
X-20647Y10266D01*
G74*
D01*
G02X-20234Y9853I253J666*
G01*
X-20234Y9853D01*
X-20478Y9853D01*
D02*
G37*
G36*
X-20630Y14100D02*
G75*
D01*
G02X-20630Y14100I530J0*
G01*
D02*
G37*
%LPD*%
G36*
X-11001Y3800D02*
X-11001Y3800D01*
X-11001Y8017D01*
G74*
D01*
G02X-11099Y8124I201J283*
G01*
X-11099Y8124D01*
X-11099Y2000D01*
G75*
D01*
G02X-11158Y1858I-201J0*
G01*
X-11158Y1858D01*
X-11299Y1717D01*
X-11299Y-3924D01*
G75*
D01*
G02X-10717Y-3899I299J-176*
G01*
X-10717Y-3899D01*
X-9183Y-3899D01*
X-8901Y-3617D01*
X-8901Y4300D01*
G74*
D01*
G02X-8842Y4442I201J0*
G01*
X-8842Y4442D01*
X-7447Y5837D01*
X-7217Y6067D01*
G75*
D01*
G02X-6933Y5783I317J33*
G01*
X-6933Y5783D01*
X-7447Y5268D01*
X-8499Y4217D01*
X-8499Y-3700D01*
G75*
D01*
G02X-8558Y-3842I-201J0*
G01*
X-8558Y-3842D01*
X-8958Y-4242D01*
G74*
D01*
G02X-9050Y-4295I142J142*
G01*
G74*
D01*
G02X-9100Y-4301I50J195*
G01*
X-9100Y-4301D01*
X-10717Y-4301D01*
G75*
D01*
G02X-11299Y-4276I-283J201*
G01*
X-11299Y-4276D01*
X-11299Y-11700D01*
G75*
D01*
G02X-11358Y-11842I-201J0*
G01*
X-11358Y-11842D01*
X-11415Y-11899D01*
X-6200Y-11899D01*
G75*
D01*
G02X-6058Y-11958I0J-201*
G01*
X-6058Y-11958D01*
X-5017Y-12999D01*
X-4100Y-12999D01*
G75*
D01*
G02X-3958Y-13058I0J-201*
G01*
X-3958Y-13058D01*
X-2643Y-14373D01*
G75*
D01*
G02X-2584Y-14515I-142J-142*
G01*
X-2584Y-14515D01*
X-2584Y-18199D01*
X26199Y-18199D01*
X26199Y-17502D01*
G74*
D01*
G02X25540Y-18120I959J362*
G01*
X25540Y-18120D01*
X25540Y-17688D01*
G75*
D01*
G02X24940Y-17688I-300J548*
G01*
X24940Y-17688D01*
X24940Y-18120D01*
G74*
D01*
G02X24260Y-17440I300J980*
G01*
X24260Y-17440D01*
X24692Y-17440D01*
G75*
D01*
G02X24692Y-16840I548J300*
G01*
X24692Y-16840D01*
X24260Y-16840D01*
G74*
D01*
G02X24940Y-16160I980J300*
G01*
X24940Y-16160D01*
X24940Y-16592D01*
G75*
D01*
G02X25540Y-16592I300J-548*
G01*
X25540Y-16592D01*
X25540Y-16160D01*
G74*
D01*
G02X26199Y-16778I300J980*
G01*
X26199Y-16778D01*
X26199Y-15300D01*
G75*
D01*
G02X26258Y-15158I201J0*
G01*
X26258Y-15158D01*
X29358Y-12058D01*
G75*
D01*
G02X29500Y-11999I142J-142*
G01*
X29500Y-11999D01*
X32999Y-11999D01*
X32999Y-11400D01*
G74*
D01*
G02X32410Y-11870I889J510*
G01*
X32410Y-11870D01*
X32410Y-11438D01*
G75*
D01*
G02X31810Y-11438I-300J548*
G01*
X31810Y-11438D01*
X31810Y-11870D01*
G74*
D01*
G02X31130Y-11190I300J980*
G01*
X31130Y-11190D01*
X31562Y-11190D01*
G75*
D01*
G02X31562Y-10590I548J300*
G01*
X31562Y-10590D01*
X31130Y-10590D01*
G74*
D01*
G02X31810Y-9910I980J300*
G01*
X31810Y-9910D01*
X31810Y-10342D01*
G75*
D01*
G02X32410Y-10342I300J-548*
G01*
X32410Y-10342D01*
X32410Y-9910D01*
G74*
D01*
G02X32999Y-10380I300J980*
G01*
X32999Y-10380D01*
X32999Y-9201D01*
X29271Y-9201D01*
G75*
D01*
G02X29209Y-9191I0J201*
G01*
G74*
D01*
G02X29129Y-9142I62J191*
G01*
X29129Y-9142D01*
X28117Y-8130D01*
X27459Y-8130D01*
G75*
D01*
G02X27501Y-7728I-259J230*
G01*
X27501Y-7728D01*
X28044Y-7728D01*
X27317Y-7001D01*
X25400Y-7001D01*
G75*
D01*
G02X25329Y-6988I0J201*
G01*
G74*
D01*
G02X25258Y-6942I71J188*
G01*
X25258Y-6942D01*
X24558Y-6242D01*
G75*
D01*
G02X24499Y-6100I142J142*
G01*
X24499Y-6100D01*
X24499Y-5185D01*
X23801Y-5883D01*
X23801Y-7500D01*
G75*
D01*
G02X23742Y-7642I-201J0*
G01*
X23742Y-7642D01*
X22509Y-8875D01*
G75*
D01*
G02X22250Y-8566I-409J-80*
G01*
X22250Y-8566D01*
X23399Y-7417D01*
X23399Y-5883D01*
X22225Y-4709D01*
G75*
D01*
G02X22497Y-4413I-133J395*
G01*
X22497Y-4413D01*
X23600Y-5516D01*
X24299Y-4817D01*
X24299Y-391D01*
X22769Y-1921D01*
X22769Y-1921D01*
X22492Y-2197D01*
G75*
D01*
G02X22208Y-1913I-400J-117*
G01*
X22208Y-1913D01*
X24099Y-22D01*
X24099Y12287D01*
X23987Y12399D01*
X-2917Y12399D01*
X-4158Y11158D01*
G74*
D01*
G02X-4243Y11107I142J142*
G01*
G74*
D01*
G02X-4300Y11099I57J193*
G01*
X-4300Y11099D01*
X-10117Y11099D01*
X-10199Y11017D01*
X-10199Y5683D01*
X-9933Y5417D01*
G75*
D01*
G02X-10217Y5133I33J-317*
G01*
X-10217Y5133D01*
X-10542Y5458D01*
G74*
D01*
G02X-10599Y5572I142J142*
G01*
X-10599Y5572D01*
X-10599Y3947D01*
G75*
D01*
G02X-10942Y3658I-1J-347*
G01*
G75*
D01*
G02X-11001Y3800I142J142*
G01*
D02*
G37*
%LPC*%
G36*
X-10129Y-1921D02*
G75*
D01*
G02X-10129Y-1921I229J221*
G01*
D02*
G37*
G36*
X3191Y-16671D02*
X3191Y-16671D01*
X3191Y-529D01*
G75*
D01*
G02X3342Y-378I151J0*
G01*
X3342Y-378D01*
X21058Y-378D01*
G74*
D01*
G02X21209Y-529I0J151*
G01*
X21209Y-529D01*
X21209Y-16671D01*
G75*
D01*
G02X21058Y-16822I-151J0*
G01*
X21058Y-16822D01*
X3342Y-16822D01*
G75*
D01*
G02X3191Y-16671I0J151*
G01*
D02*
G37*
G36*
X22058Y-11370D02*
G75*
D01*
G02X22058Y-11370I42J415*
G01*
D02*
G37*
G36*
X-6671Y-1921D02*
G75*
D01*
G02X-6671Y-1921I-229J221*
G01*
D02*
G37*
G36*
X-10218Y-2700D02*
G75*
D01*
G02X-10218Y-2700I318J0*
G01*
D02*
G37*
G36*
X21675Y-1314D02*
G75*
D01*
G02X21675Y-1314I417J0*
G01*
D02*
G37*
G36*
X-10198Y6213D02*
G74*
D01*
G02X-10013Y6398I298J113*
G01*
X-10013Y6398D01*
X-10013Y6213D01*
X-10198Y6213D01*
D02*
G37*
G36*
X-9787Y6398D02*
G74*
D01*
G02X-9602Y6213I113J298*
G01*
X-9602Y6213D01*
X-9787Y6213D01*
X-9787Y6398D01*
D02*
G37*
G36*
X-9602Y5987D02*
G74*
D01*
G02X-9787Y5802I298J113*
G01*
X-9787Y5802D01*
X-9787Y5987D01*
X-9602Y5987D01*
D02*
G37*
G36*
X-10013Y5802D02*
G74*
D01*
G02X-10198Y5987I113J298*
G01*
X-10198Y5987D01*
X-10013Y5987D01*
X-10013Y5802D01*
D02*
G37*
G36*
X-9998Y6100D02*
G75*
D01*
G02X-9998Y6100I98J0*
G01*
D02*
G37*
G36*
X-3230Y8500D02*
G75*
D01*
G02X-3230Y8500I530J0*
G01*
D02*
G37*
G36*
X6216Y11565D02*
G75*
D01*
G02X6216Y10965I-620J-300*
G01*
X6216Y10965D01*
X6454Y10965D01*
G74*
D01*
G02X5896Y10407I858J300*
G01*
X5896Y10407D01*
X5896Y10645D01*
G75*
D01*
G02X5296Y10645I-300J620*
G01*
X5296Y10645D01*
X5296Y10407D01*
G74*
D01*
G02X4738Y10965I300J858*
G01*
X4738Y10965D01*
X4976Y10965D01*
G75*
D01*
G02X4976Y11565I620J300*
G01*
X4976Y11565D01*
X4738Y11565D01*
G74*
D01*
G02X5296Y12123I858J300*
G01*
X5296Y12123D01*
X5296Y11885D01*
G75*
D01*
G02X5896Y11885I300J-620*
G01*
X5896Y11885D01*
X5896Y12123D01*
G74*
D01*
G02X6454Y11565I300J858*
G01*
X6454Y11565D01*
X6216Y11565D01*
D02*
G37*
G36*
X22712Y-15895D02*
G75*
D01*
G02X22712Y-16495I-620J-300*
G01*
X22712Y-16495D01*
X22950Y-16495D01*
G74*
D01*
G02X22392Y-17053I858J300*
G01*
X22392Y-17053D01*
X22392Y-16816D01*
G75*
D01*
G02X21792Y-16816I-300J621*
G01*
X21792Y-16816D01*
X21792Y-17053D01*
G74*
D01*
G02X21234Y-16495I300J858*
G01*
X21234Y-16495D01*
X21472Y-16495D01*
G75*
D01*
G02X21472Y-15895I620J300*
G01*
X21472Y-15895D01*
X21234Y-15895D01*
G74*
D01*
G02X21792Y-15337I858J300*
G01*
X21792Y-15337D01*
X21792Y-15575D01*
G75*
D01*
G02X22392Y-15575I300J-620*
G01*
X22392Y-15575D01*
X22392Y-15337D01*
G74*
D01*
G02X22950Y-15895I300J858*
G01*
X22950Y-15895D01*
X22712Y-15895D01*
D02*
G37*
G36*
X21683Y-14955D02*
G75*
D01*
G02X21683Y-14955I417J0*
G01*
D02*
G37*
G36*
X21683Y-13955D02*
G75*
D01*
G02X21683Y-13955I417J0*
G01*
D02*
G37*
G36*
X21683Y-12955D02*
G75*
D01*
G02X21683Y-12955I417J0*
G01*
D02*
G37*
G36*
X21683Y-11955D02*
G75*
D01*
G02X21683Y-11955I417J0*
G01*
D02*
G37*
G36*
X21683Y-7955D02*
G75*
D01*
G02X21683Y-7955I417J0*
G01*
D02*
G37*
G36*
X22240Y-5924D02*
G74*
D01*
G02X22482Y-6166I148J390*
G01*
X22482Y-6166D01*
X22240Y-6166D01*
X22240Y-5924D01*
D02*
G37*
G36*
X21702Y-6166D02*
G74*
D01*
G02X21944Y-5924I390J148*
G01*
X21944Y-5924D01*
X21944Y-6166D01*
X21702Y-6166D01*
D02*
G37*
G36*
X21675Y-5314D02*
G75*
D01*
G02X21675Y-5314I417J0*
G01*
D02*
G37*
G36*
X21683Y-9955D02*
G75*
D01*
G02X21683Y-9955I417J0*
G01*
D02*
G37*
G36*
X21895Y-6314D02*
G75*
D01*
G02X21895Y-6314I197J0*
G01*
D02*
G37*
G36*
X21944Y-6703D02*
G74*
D01*
G02X21702Y-6461I148J389*
G01*
X21702Y-6461D01*
X21944Y-6461D01*
X21944Y-6703D01*
D02*
G37*
G36*
X22482Y-6461D02*
G74*
D01*
G02X22240Y-6703I390J147*
G01*
X22240Y-6703D01*
X22240Y-6461D01*
X22482Y-6461D01*
D02*
G37*
G36*
X21675Y-3314D02*
G75*
D01*
G02X21675Y-3314I417J0*
G01*
D02*
G37*
G36*
X-7218Y5100D02*
G75*
D01*
G02X-7218Y5100I318J0*
G01*
D02*
G37*
G36*
X-2453Y-6012D02*
G75*
D01*
G02X-2453Y-6388I-247J-188*
G01*
X-2453Y-6388D01*
X-2204Y-6388D01*
G74*
D01*
G02X-2512Y-6696I496J188*
G01*
X-2512Y-6696D01*
X-2512Y-6447D01*
G75*
D01*
G02X-2888Y-6447I-188J247*
G01*
X-2888Y-6447D01*
X-2888Y-6696D01*
G74*
D01*
G02X-3196Y-6388I188J496*
G01*
X-3196Y-6388D01*
X-2947Y-6388D01*
G75*
D01*
G02X-2947Y-6012I247J188*
G01*
X-2947Y-6012D01*
X-3196Y-6012D01*
G74*
D01*
G02X-2888Y-5704I496J188*
G01*
X-2888Y-5704D01*
X-2888Y-5953D01*
G75*
D01*
G02X-2512Y-5953I188J-247*
G01*
X-2512Y-5953D01*
X-2512Y-5704D01*
G74*
D01*
G02X-2204Y-6012I188J496*
G01*
X-2204Y-6012D01*
X-2453Y-6012D01*
D02*
G37*
G36*
X-7198Y-2587D02*
G74*
D01*
G02X-7013Y-2402I298J113*
G01*
X-7013Y-2402D01*
X-7013Y-2587D01*
X-7198Y-2587D01*
D02*
G37*
G36*
X-7013Y-2998D02*
G74*
D01*
G02X-7198Y-2813I113J298*
G01*
X-7198Y-2813D01*
X-7013Y-2813D01*
X-7013Y-2998D01*
D02*
G37*
G36*
X-6787Y-2402D02*
G74*
D01*
G02X-6602Y-2587I113J298*
G01*
X-6602Y-2587D01*
X-6787Y-2587D01*
X-6787Y-2402D01*
D02*
G37*
G36*
X-6602Y-2813D02*
G74*
D01*
G02X-6787Y-2998I298J113*
G01*
X-6787Y-2998D01*
X-6787Y-2813D01*
X-6602Y-2813D01*
D02*
G37*
G36*
X-6998Y-2700D02*
G75*
D01*
G02X-6998Y-2700I98J0*
G01*
D02*
G37*
G36*
X2277Y5027D02*
G75*
D01*
G02X2277Y5027I347J0*
G01*
D02*
G37*
%LPD*%
G36*
X33371Y-8599D02*
X33371Y-8599D01*
X29483Y-8599D01*
X29035Y-8151D01*
X35489Y-8151D01*
X35489Y-12806D01*
X35489Y-12808D01*
G74*
D01*
G02X34393Y-13835I1096J71*
G01*
G75*
D01*
G03X34381Y-13836I0J-152*
G01*
X34381Y-13836D01*
X32296Y-13836D01*
G74*
D01*
G03X32266Y-13833I30J151*
G01*
G75*
D01*
G03X28305Y-17794I0J-3961*
G01*
G75*
D01*
G03X28308Y-17824I154J0*
G01*
X28308Y-17824D01*
X28308Y-19406D01*
G74*
D01*
G03X28308Y-19418I151J12*
G01*
G75*
D01*
G02X27209Y-20516I-1099J0*
G01*
G75*
D01*
G03X27197Y-20517I0J-152*
G01*
X27197Y-20517D01*
X20899Y-20517D01*
X20899Y-20517D01*
X20500Y-20517D01*
X12500Y-20517D01*
X12500Y-20517D01*
X12500Y-20517D01*
X11450Y-20517D01*
X11450Y-20517D01*
X4296Y-20517D01*
X4296Y-20517D01*
X4296Y-20517D01*
X2001Y-20517D01*
X2001Y-20517D01*
X0Y-20517D01*
X0Y-20517D01*
X0Y-20517D01*
X-4349Y-20517D01*
X-4349Y-13988D01*
G74*
D01*
G03X-4366Y-13918I151J0*
G01*
X-4366Y-13918D01*
X-3301Y-14983D01*
X-3301Y-18771D01*
G75*
D01*
G03X-3242Y-18913I201J0*
G01*
X-3242Y-18913D01*
X-3213Y-18942D01*
G74*
D01*
G03X-3121Y-18994I142J142*
G01*
G75*
D01*
G03X-3070Y-19001I50J194*
G01*
X-3070Y-19001D01*
X27071Y-19001D01*
G74*
D01*
G03X27213Y-18942I0J201*
G01*
X27213Y-18942D01*
X27242Y-18913D01*
G75*
D01*
G03X27301Y-18771I-142J142*
G01*
X27301Y-18771D01*
X27301Y-16083D01*
X30348Y-13036D01*
X30365Y-13019D01*
X30683Y-12701D01*
X33370Y-12701D01*
G75*
D01*
G03X33421Y-12694I1J201*
G01*
G74*
D01*
G03X33513Y-12642I50J194*
G01*
X33513Y-12642D01*
X33542Y-12613D01*
G75*
D01*
G03X33601Y-12471I-142J142*
G01*
X33601Y-12471D01*
X33601Y-8829D01*
G74*
D01*
G03X33542Y-8687I201J0*
G01*
X33542Y-8687D01*
X33513Y-8658D01*
G74*
D01*
G03X33371Y-8599I142J142*
G01*
D02*
G37*
G36*
X26601Y-18371D02*
X26601Y-18371D01*
X26601Y-15383D01*
X29583Y-12401D01*
X30415Y-12401D01*
X30348Y-12468D01*
X26958Y-15858D01*
G75*
D01*
G03X26899Y-16000I142J-142*
G01*
X26899Y-16000D01*
X26899Y-18599D01*
X26399Y-18599D01*
G74*
D01*
G03X26513Y-18542I28J199*
G01*
X26513Y-18542D01*
X26542Y-18513D01*
G75*
D01*
G03X26601Y-18371I-142J142*
G01*
D02*
G37*
G36*
X-4158Y-13558D02*
X-4158Y-13558D01*
X-2986Y-14729D01*
X-2986Y-14598D01*
X-4183Y-13401D01*
X-5015Y-13401D01*
X-4917Y-13499D01*
X-4300Y-13499D01*
G75*
D01*
G02X-4158Y-13558I0J-201*
G01*
D02*
G37*
G36*
X-11099Y8476D02*
X-11099Y8476D01*
X-11099Y10617D01*
X-10600Y11115D01*
G74*
D01*
G03X-10601Y11100I200J15*
G01*
X-10601Y11100D01*
X-10601Y8584D01*
G75*
D01*
G03X-11099Y8476I-199J-284*
G01*
D02*
G37*
G36*
X25788Y-16840D02*
G75*
D01*
G02X25788Y-17440I-548J-300*
G01*
X25788Y-17440D01*
X26199Y-17440D01*
X26199Y-16840D01*
X25788Y-16840D01*
D02*
G37*
G36*
X32658Y-10590D02*
G75*
D01*
G02X32658Y-11190I-548J-300*
G01*
X32658Y-11190D01*
X32999Y-11190D01*
X32999Y-10590D01*
X32658Y-10590D01*
D02*
G37*
G36*
X-16946Y-19670D02*
X-16946Y-19670D01*
X-17094Y-19522D01*
X-16898Y-19522D01*
G74*
D01*
G03X-16946Y-19670I298J178*
G01*
D02*
G37*
G36*
X-2898Y-18542D02*
X-2898Y-18542D01*
X-2899Y-18541D01*
X-2899Y-18599D01*
X-2784Y-18599D01*
G74*
D01*
G02X-2807Y-18594I28J199*
G01*
G74*
D01*
G02X-2898Y-18542I51J194*
G01*
D02*
G37*
G54D11*
X25788Y-16840D02*
G75*
D01*
G02X25788Y-17440I-548J-300*
G01*
X26199Y-17440D01*
X26199Y-16840D01*
X25788Y-16840D01*
X33371Y-8599D02*
X29483Y-8599D01*
X29035Y-8151D01*
X35489Y-8151D01*
X35489Y-12806D01*
X35489Y-12808D01*
G74*
D01*
G02X34393Y-13835I1096J71*
G01*
G75*
D01*
G03X34381Y-13836I0J-152*
G01*
X32296Y-13836D01*
G74*
D01*
G03X32266Y-13833I30J151*
G01*
G75*
D01*
G03X28305Y-17794I0J-3961*
G01*
G75*
D01*
G03X28308Y-17824I154J0*
G01*
X28308Y-19406D01*
G74*
D01*
G03X28308Y-19418I151J12*
G01*
G75*
D01*
G02X27209Y-20516I-1099J0*
G01*
G75*
D01*
G03X27197Y-20517I0J-152*
G01*
X20899Y-20517D01*
X20899Y-20517D01*
X20500Y-20517D01*
X12500Y-20517D01*
X12500Y-20517D01*
X11450Y-20517D01*
X11450Y-20517D01*
X4296Y-20517D01*
X4296Y-20517D01*
X2001Y-20517D01*
X2001Y-20517D01*
X0Y-20517D01*
X0Y-20517D01*
X-4349Y-20517D01*
X-4349Y-13988D01*
G74*
D01*
G03X-4366Y-13918I151J0*
G01*
X-3301Y-14983D01*
X-3301Y-18771D01*
G75*
D01*
G03X-3242Y-18913I201J0*
G01*
X-3213Y-18942D01*
G74*
D01*
G03X-3121Y-18994I142J142*
G01*
G75*
D01*
G03X-3070Y-19001I50J194*
G01*
X27071Y-19001D01*
G74*
D01*
G03X27213Y-18942I0J201*
G01*
X27242Y-18913D01*
G75*
D01*
G03X27301Y-18771I-142J142*
G01*
X27301Y-16083D01*
X30348Y-13036D01*
X30365Y-13019D01*
X30683Y-12701D01*
X33370Y-12701D01*
G75*
D01*
G03X33421Y-12694I1J201*
G01*
G74*
D01*
G03X33513Y-12642I50J194*
G01*
X33542Y-12613D01*
G75*
D01*
G03X33601Y-12471I-142J142*
G01*
X33601Y-8829D01*
G74*
D01*
G03X33542Y-8687I201J0*
G01*
X33513Y-8658D01*
G74*
D01*
G03X33371Y-8599I142J142*
G01*
X-4158Y-13558D02*
X-2986Y-14729D01*
X-2986Y-14598D01*
X-4183Y-13401D01*
X-5015Y-13401D01*
X-4917Y-13499D01*
X-4300Y-13499D01*
G75*
D01*
G02X-4158Y-13558I0J-201*
G01*
X25788Y16840D02*
X26220Y16840D01*
G74*
D01*
G02X25540Y16160I980J300*
G01*
X25540Y16592D01*
G75*
D01*
G02X24940Y16592I-300J548*
G01*
X24940Y16160D01*
G74*
D01*
G02X24260Y16840I300J980*
G01*
X24692Y16840D01*
G75*
D01*
G02X24692Y17440I548J300*
G01*
X24260Y17440D01*
G74*
D01*
G02X24940Y18120I980J300*
G01*
X24940Y17688D01*
G75*
D01*
G02X25540Y17688I300J-548*
G01*
X25540Y18120D01*
G74*
D01*
G02X26220Y17440I300J980*
G01*
X25788Y17440D01*
G75*
D01*
G02X25788Y16840I-548J-300*
G01*
X-11803Y7528D02*
G75*
D01*
G02X-11803Y7528I-397J-128*
G01*
X-7543Y-13357D02*
X-7257Y-13357D01*
X-7257Y-13643D01*
G74*
D01*
G02X-7543Y-13357I57J342*
G01*
X-7543Y-13036D02*
G74*
D01*
G02X-7257Y-12749I343J56*
G01*
X-7257Y-13036D01*
X-7543Y-13036D01*
X-20647Y-11466D02*
X-20647Y-11222D01*
G75*
D01*
G02X-21153Y-11222I-253J422*
G01*
X-21153Y-11466D01*
G74*
D01*
G02X-21566Y-11053I253J666*
G01*
X-21322Y-11053D01*
G75*
D01*
G02X-21322Y-10547I422J253*
G01*
X-21566Y-10547D01*
G74*
D01*
G02X-21153Y-10134I666J253*
G01*
X-21153Y-10378D01*
G75*
D01*
G02X-20647Y-10378I253J-422*
G01*
X-20647Y-10134D01*
G74*
D01*
G02X-20234Y-10547I253J666*
G01*
X-20478Y-10547D01*
G75*
D01*
G02X-20478Y-11053I-422J-253*
G01*
X-20234Y-11053D01*
G74*
D01*
G02X-20647Y-11466I666J253*
G01*
X-33090Y-11190D02*
X-32658Y-11190D01*
G75*
D01*
G02X-32658Y-10590I548J300*
G01*
X-33090Y-10590D01*
G74*
D01*
G02X-32410Y-9910I980J300*
G01*
X-32410Y-10342D01*
G75*
D01*
G02X-31810Y-10342I300J-548*
G01*
X-31810Y-9910D01*
G74*
D01*
G02X-31130Y-10590I300J980*
G01*
X-31562Y-10590D01*
G75*
D01*
G02X-31562Y-11190I-548J-300*
G01*
X-31130Y-11190D01*
G74*
D01*
G02X-31810Y-11870I980J300*
G01*
X-31810Y-11438D01*
G75*
D01*
G02X-32410Y-11438I-300J548*
G01*
X-32410Y-11870D01*
G74*
D01*
G02X-33090Y-11190I300J980*
G01*
X-16983Y-3899D02*
G75*
D01*
G02X-16983Y-4301I283J-201*
G01*
X-17117Y-4301D01*
X-18558Y-5742D01*
G74*
D01*
G02X-18630Y-5788I142J142*
G01*
G74*
D01*
G02X-18700Y-5801I70J188*
G01*
X-20835Y-5801D01*
G75*
D01*
G02X-20835Y-5399I-365J201*
G01*
X-18783Y-5399D01*
X-17342Y-3958D01*
G74*
D01*
G02X-17221Y-3900I142J142*
G01*
G75*
D01*
G02X-17200Y-3899I21J-200*
G01*
X-16983Y-3899D01*
X-12147Y-11466D02*
X-12147Y-11222D01*
G75*
D01*
G02X-12653Y-11222I-253J422*
G01*
X-12653Y-11466D01*
G74*
D01*
G02X-13066Y-11053I253J666*
G01*
X-12822Y-11053D01*
G75*
D01*
G02X-12822Y-10547I422J253*
G01*
X-13066Y-10547D01*
G74*
D01*
G02X-12653Y-10134I666J253*
G01*
X-12653Y-10378D01*
G75*
D01*
G02X-12147Y-10378I253J-422*
G01*
X-12147Y-10134D01*
G74*
D01*
G02X-11734Y-10547I253J666*
G01*
X-11978Y-10547D01*
G75*
D01*
G02X-11978Y-11053I-422J-253*
G01*
X-11734Y-11053D01*
G74*
D01*
G02X-12147Y-11466I666J253*
G01*
X-18058Y-6742D02*
G74*
D01*
G02X-18130Y-6788I142J142*
G01*
G74*
D01*
G02X-18200Y-6801I70J188*
G01*
X-20835Y-6801D01*
G75*
D01*
G02X-20835Y-6399I-365J201*
G01*
X-18283Y-6399D01*
X-17042Y-5158D01*
G75*
D01*
G02X-16758Y-5442I342J58*
G01*
X-16896Y-5580D01*
X-16896Y-5580D01*
X-18058Y-6742D01*
X-25788Y16840D02*
G75*
D01*
G02X-25788Y17440I548J300*
G01*
X-26220Y17440D01*
G74*
D01*
G02X-25540Y18120I980J300*
G01*
X-25540Y17688D01*
G75*
D01*
G02X-24940Y17688I300J-548*
G01*
X-24940Y18120D01*
G74*
D01*
G02X-24260Y17440I300J980*
G01*
X-24692Y17440D01*
G75*
D01*
G02X-24692Y16840I-548J-300*
G01*
X-24260Y16840D01*
G74*
D01*
G02X-24940Y16160I980J300*
G01*
X-24940Y16592D01*
G75*
D01*
G02X-25540Y16592I-300J548*
G01*
X-25540Y16160D01*
G74*
D01*
G02X-26220Y16840I300J980*
G01*
X-25788Y16840D01*
X-27621Y-1921D02*
G75*
D01*
G02X-27621Y-1921I-179J-79*
G01*
X-21597Y7528D02*
G75*
D01*
G02X-21597Y7528I397J-128*
G01*
X-7292Y-13196D02*
G75*
D01*
G02X-7292Y-13196I196J0*
G01*
X-6936Y-13643D02*
X-6936Y-13357D01*
X-6649Y-13357D01*
G74*
D01*
G02X-6936Y-13643I343J56*
G01*
X-6649Y-13036D02*
X-6936Y-13036D01*
X-6936Y-12749D01*
G74*
D01*
G02X-6649Y-13036I56J343*
G01*
X-11978Y9853D02*
G75*
D01*
G02X-11978Y9347I-422J-253*
G01*
X-11734Y9347D01*
G74*
D01*
G02X-12147Y8934I666J253*
G01*
X-12147Y9178D01*
G75*
D01*
G02X-12653Y9178I-253J422*
G01*
X-12653Y8934D01*
G74*
D01*
G02X-13066Y9347I253J666*
G01*
X-12822Y9347D01*
G75*
D01*
G02X-12822Y9853I422J253*
G01*
X-13066Y9853D01*
G74*
D01*
G02X-12653Y10266I666J253*
G01*
X-12653Y10022D01*
G75*
D01*
G02X-12147Y10022I253J-422*
G01*
X-12147Y10266D01*
G74*
D01*
G02X-11734Y9853I253J666*
G01*
X-11978Y9853D01*
X-12617Y8400D02*
G75*
D01*
G02X-12617Y8400I417J0*
G01*
X1113Y14174D02*
G75*
D01*
G02X1113Y13684I-340J-245*
G01*
X1420Y13684D01*
G74*
D01*
G02X1018Y13283I647J245*
G01*
X1018Y13589D01*
G75*
D01*
G02X528Y13589I-245J340*
G01*
X528Y13283D01*
G74*
D01*
G02X127Y13684I245J646*
G01*
X433Y13684D01*
G75*
D01*
G02X433Y14174I340J245*
G01*
X127Y14174D01*
G74*
D01*
G02X528Y14576I646J245*
G01*
X528Y14269D01*
G75*
D01*
G02X1018Y14269I245J-340*
G01*
X1018Y14576D01*
G74*
D01*
G02X1420Y14174I245J647*
G01*
X1113Y14174D01*
X32658Y11190D02*
G75*
D01*
G02X32658Y10590I-548J-300*
G01*
X33090Y10590D01*
G74*
D01*
G02X32410Y9910I980J300*
G01*
X32410Y10342D01*
G75*
D01*
G02X31810Y10342I-300J548*
G01*
X31810Y9910D01*
G74*
D01*
G02X31130Y10590I300J980*
G01*
X31562Y10590D01*
G75*
D01*
G02X31562Y11190I548J300*
G01*
X31130Y11190D01*
G74*
D01*
G02X31810Y11870I980J300*
G01*
X31810Y11438D01*
G75*
D01*
G02X32410Y11438I300J-548*
G01*
X32410Y11870D01*
G74*
D01*
G02X33090Y11190I300J980*
G01*
X32658Y11190D01*
X27553Y-5660D02*
X27840Y-5660D01*
X27840Y-5947D01*
G74*
D01*
G02X27553Y-5660I56J343*
G01*
X28160Y-5947D02*
X28160Y-5660D01*
X28447Y-5660D01*
G74*
D01*
G02X28160Y-5947I343J56*
G01*
X27804Y-5500D02*
G75*
D01*
G02X27804Y-5500I196J0*
G01*
X27840Y-5053D02*
X27840Y-5340D01*
X27553Y-5340D01*
G74*
D01*
G02X27840Y-5053I343J56*
G01*
X27533Y-4500D02*
G75*
D01*
G02X27533Y-4500I467J0*
G01*
X28447Y-5340D02*
X28160Y-5340D01*
X28160Y-5053D01*
G74*
D01*
G02X28447Y-5340I56J343*
G01*
X27533Y-3500D02*
G75*
D01*
G02X27533Y-3500I467J0*
G01*
X15133Y18600D02*
G75*
D01*
G02X15133Y18600I467J0*
G01*
X-12617Y-600D02*
G75*
D01*
G02X-12617Y-600I417J0*
G01*
X-12617Y1400D02*
G75*
D01*
G02X-12617Y1400I417J0*
G01*
X-12617Y2400D02*
G75*
D01*
G02X-12617Y2400I417J0*
G01*
X-12617Y3400D02*
G75*
D01*
G02X-12617Y3400I417J0*
G01*
X-12617Y4400D02*
G75*
D01*
G02X-12617Y4400I417J0*
G01*
X-12617Y5400D02*
G75*
D01*
G02X-12617Y5400I417J0*
G01*
X-12617Y6400D02*
G75*
D01*
G02X-12617Y6400I417J0*
G01*
X15435Y14164D02*
G74*
D01*
G02X15164Y14435I165J436*
G01*
X15435Y14435D01*
X15435Y14164D01*
X16036Y14435D02*
G74*
D01*
G02X15765Y14164I436J165*
G01*
X15765Y14435D01*
X16036Y14435D01*
X15164Y14765D02*
G74*
D01*
G02X15435Y15036I436J165*
G01*
X15435Y14765D01*
X15164Y14765D01*
X15425Y14600D02*
G75*
D01*
G02X15425Y14600I175J0*
G01*
X15765Y15036D02*
G74*
D01*
G02X16036Y14765I165J436*
G01*
X15765Y14765D01*
X15765Y15036D01*
X-12590Y-9452D02*
G74*
D01*
G02X-12348Y-9210I390J148*
G01*
X-12348Y-9452D01*
X-12590Y-9452D01*
X-12052Y-9210D02*
G74*
D01*
G02X-11810Y-9452I148J390*
G01*
X-12052Y-9452D01*
X-12052Y-9210D01*
X-11810Y-9748D02*
G74*
D01*
G02X-12052Y-9990I390J148*
G01*
X-12052Y-9748D01*
X-11810Y-9748D01*
X-12397Y-9600D02*
G75*
D01*
G02X-12397Y-9600I197J0*
G01*
X-12348Y-9990D02*
G74*
D01*
G02X-12590Y-9748I148J390*
G01*
X-12348Y-9748D01*
X-12348Y-9990D01*
X-12617Y-8600D02*
G75*
D01*
G02X-12617Y-8600I417J0*
G01*
X-12617Y-7600D02*
G75*
D01*
G02X-12617Y-7600I417J0*
G01*
X-12617Y-6600D02*
G75*
D01*
G02X-12617Y-6600I417J0*
G01*
X-12617Y-5600D02*
G75*
D01*
G02X-12617Y-5600I417J0*
G01*
X-12617Y-4600D02*
G75*
D01*
G02X-12617Y-4600I417J0*
G01*
X-12617Y-3600D02*
G75*
D01*
G02X-12617Y-3600I417J0*
G01*
X-12617Y-2600D02*
G75*
D01*
G02X-12617Y-2600I417J0*
G01*
X-24692Y-16840D02*
G75*
D01*
G02X-24692Y-17440I-548J-300*
G01*
X-24260Y-17440D01*
G74*
D01*
G02X-24940Y-18120I980J300*
G01*
X-24940Y-17688D01*
G75*
D01*
G02X-25540Y-17688I-300J548*
G01*
X-25540Y-18120D01*
G74*
D01*
G02X-26220Y-17440I300J980*
G01*
X-25788Y-17440D01*
G75*
D01*
G02X-25788Y-16840I548J300*
G01*
X-26220Y-16840D01*
G74*
D01*
G02X-25540Y-16160I980J300*
G01*
X-25540Y-16592D01*
G75*
D01*
G02X-24940Y-16592I300J-548*
G01*
X-24940Y-16160D01*
G74*
D01*
G02X-24260Y-16840I300J980*
G01*
X-24692Y-16840D01*
X-19853Y-14512D02*
G75*
D01*
G02X-19853Y-14888I-247J-188*
G01*
X-19604Y-14888D01*
G74*
D01*
G02X-19912Y-15196I496J188*
G01*
X-19912Y-14947D01*
G75*
D01*
G02X-20288Y-14947I-188J247*
G01*
X-20288Y-15196D01*
G74*
D01*
G02X-20596Y-14888I188J496*
G01*
X-20347Y-14888D01*
G75*
D01*
G02X-20347Y-14512I247J188*
G01*
X-20596Y-14512D01*
G74*
D01*
G02X-20288Y-14204I496J188*
G01*
X-20288Y-14453D01*
G75*
D01*
G02X-19912Y-14453I188J-247*
G01*
X-19912Y-14204D01*
G74*
D01*
G02X-19604Y-14512I188J496*
G01*
X-19853Y-14512D01*
X-9563Y-13196D02*
G75*
D01*
G02X-9563Y-13196I467J0*
G01*
X-8563Y-13196D02*
G75*
D01*
G02X-8563Y-13196I467J0*
G01*
X-27277Y-8076D02*
G74*
D01*
G02X-27076Y-8277I123J324*
G01*
X-27277Y-8277D01*
X-27277Y-8076D01*
X-27518Y-8400D02*
G75*
D01*
G02X-27518Y-8400I118J0*
G01*
X-28267Y-4000D02*
G75*
D01*
G02X-28267Y-4000I467J0*
G01*
X-28267Y-3000D02*
G75*
D01*
G02X-28267Y-3000I467J0*
G01*
X-28247Y-2160D02*
X-27960Y-2160D01*
X-27960Y-2447D01*
G74*
D01*
G02X-28247Y-2160I56J343*
G01*
X-27640Y-2447D02*
X-27640Y-2160D01*
X-27353Y-2160D01*
G74*
D01*
G02X-27640Y-2447I343J56*
G01*
X-33618Y5800D02*
G75*
D01*
G02X-33618Y5800I118J0*
G01*
X-27960Y-1553D02*
X-27960Y-1840D01*
X-28247Y-1840D01*
G74*
D01*
G02X-27960Y-1553I343J56*
G01*
X-27353Y-1840D02*
X-27640Y-1840D01*
X-27640Y-1553D01*
G74*
D01*
G02X-27353Y-1840I56J343*
G01*
X-33824Y5923D02*
G74*
D01*
G02X-33623Y6124I324J123*
G01*
X-33623Y5923D01*
X-33824Y5923D01*
X-33623Y5476D02*
G74*
D01*
G02X-33824Y5677I123J324*
G01*
X-33623Y5677D01*
X-33623Y5476D01*
X-31562Y11190D02*
G75*
D01*
G02X-31562Y10590I-548J-300*
G01*
X-31130Y10590D01*
G74*
D01*
G02X-31810Y9910I980J300*
G01*
X-31810Y10342D01*
G75*
D01*
G02X-32410Y10342I-300J548*
G01*
X-32410Y9910D01*
G74*
D01*
G02X-33090Y10590I300J980*
G01*
X-32658Y10590D01*
G75*
D01*
G02X-32658Y11190I548J300*
G01*
X-33090Y11190D01*
G74*
D01*
G02X-32410Y11870I980J300*
G01*
X-32410Y11438D01*
G75*
D01*
G02X-31810Y11438I300J-548*
G01*
X-31810Y11870D01*
G74*
D01*
G02X-31130Y11190I300J980*
G01*
X-31562Y11190D01*
X-21617Y-600D02*
G75*
D01*
G02X-21617Y-600I417J0*
G01*
X-21617Y1400D02*
G75*
D01*
G02X-21617Y1400I417J0*
G01*
X-21617Y2400D02*
G75*
D01*
G02X-21617Y2400I417J0*
G01*
X-21617Y3400D02*
G75*
D01*
G02X-21617Y3400I417J0*
G01*
X-21617Y4400D02*
G75*
D01*
G02X-21617Y4400I417J0*
G01*
X-21617Y5400D02*
G75*
D01*
G02X-21617Y5400I417J0*
G01*
X-21617Y6400D02*
G75*
D01*
G02X-21617Y6400I417J0*
G01*
X25570Y8500D02*
G75*
D01*
G02X25570Y8500I530J0*
G01*
X-21617Y-9600D02*
G75*
D01*
G02X-21617Y-9600I417J0*
G01*
X-21617Y-8600D02*
G75*
D01*
G02X-21617Y-8600I417J0*
G01*
X-21617Y-7600D02*
G75*
D01*
G02X-21617Y-7600I417J0*
G01*
X-21617Y-4600D02*
G75*
D01*
G02X-21617Y-4600I417J0*
G01*
X-21617Y-3600D02*
G75*
D01*
G02X-21617Y-3600I417J0*
G01*
X-9853Y13460D02*
X-10140Y13460D01*
X-10140Y13747D01*
G74*
D01*
G02X-9853Y13460I56J343*
G01*
X-10496Y13300D02*
G75*
D01*
G02X-10496Y13300I196J0*
G01*
X-10460Y13747D02*
X-10460Y13460D01*
X-10747Y13460D01*
G74*
D01*
G02X-10460Y13747I343J56*
G01*
X-21617Y8400D02*
G75*
D01*
G02X-21617Y8400I417J0*
G01*
X-20478Y9853D02*
G75*
D01*
G02X-20478Y9347I-422J-253*
G01*
X-20234Y9347D01*
G74*
D01*
G02X-20647Y8934I666J253*
G01*
X-20647Y9178D01*
G75*
D01*
G02X-21153Y9178I-253J422*
G01*
X-21153Y8934D01*
G74*
D01*
G02X-21566Y9347I253J666*
G01*
X-21322Y9347D01*
G75*
D01*
G02X-21322Y9853I422J253*
G01*
X-21566Y9853D01*
G74*
D01*
G02X-21153Y10266I666J253*
G01*
X-21153Y10022D01*
G75*
D01*
G02X-20647Y10022I253J-422*
G01*
X-20647Y10266D01*
G74*
D01*
G02X-20234Y9853I253J666*
G01*
X-20478Y9853D01*
X-20630Y14100D02*
G75*
D01*
G02X-20630Y14100I530J0*
G01*
X15154Y16461D02*
X14639Y16976D01*
X14617Y16999D01*
X-2199Y16999D01*
X-2199Y13800D01*
G75*
D01*
G02X-2258Y13658I-201J0*
G01*
X-2865Y13051D01*
X24136Y13051D01*
X21787Y15399D01*
X16021Y15399D01*
G75*
D01*
G02X16021Y15801I-421J201*
G01*
X21871Y15801D01*
G74*
D01*
G02X22013Y15742I0J201*
G01*
X24842Y12913D01*
G74*
D01*
G02X24901Y12771I142J142*
G01*
X24901Y-6017D01*
X25483Y-6599D01*
X25751Y-6599D01*
G75*
D01*
G02X26449Y-6599I349J399*
G01*
X27400Y-6599D01*
G75*
D01*
G02X27454Y-6607I0J-201*
G01*
G74*
D01*
G02X27542Y-6658I54J193*
G01*
X28809Y-7925D01*
X28809Y0D01*
G75*
D01*
G02X28960Y151I151J0*
G01*
X35489Y151D01*
X35489Y8000D01*
X35489Y8000D01*
X35492Y12725D01*
G75*
D01*
G02X35491Y12737I151J12*
G01*
G74*
D01*
G03X34393Y13835I1098J0*
G01*
G75*
D01*
G02X34381Y13836I0J152*
G01*
X32296Y13836D01*
G74*
D01*
G02X32266Y13833I30J151*
G01*
G75*
D01*
G02X28305Y17794I0J3961*
G01*
G74*
D01*
G02X28308Y17824I154J0*
G01*
X28308Y19406D01*
G75*
D01*
G02X28308Y19418I151J12*
G01*
G74*
D01*
G03X27209Y20516I1099J0*
G01*
G75*
D01*
G02X27197Y20517I0J152*
G01*
X-4349Y20517D01*
X-4349Y13987D01*
G75*
D01*
G02X-4500Y13836I-151J0*
G01*
X-12500Y13836D01*
G75*
D01*
G02X-12651Y13987I0J151*
G01*
X-12651Y20517D01*
X-16896Y20517D01*
X-16896Y20517D01*
X-20500Y20517D01*
X-20500Y20517D01*
X-26345Y20517D01*
X-26345Y20517D01*
X-27197Y20517D01*
G74*
D01*
G02X-27209Y20516I12J151*
G01*
G75*
D01*
G03X-28308Y19418I0J-1098*
G01*
G75*
D01*
G02X-28308Y19406I-151J0*
G01*
X-28308Y17824D01*
G74*
D01*
G02X-28305Y17794I151J30*
G01*
G75*
D01*
G02X-32266Y13833I-3961J0*
G01*
G75*
D01*
G02X-32296Y13836I0J154*
G01*
X-34381Y13836D01*
G74*
D01*
G02X-34393Y13835I12J151*
G01*
G75*
D01*
G03X-35491Y12737I0J-1098*
G01*
G75*
D01*
G02X-35492Y12725I-152J0*
G01*
X-35492Y151D01*
X-28459Y151D01*
G74*
D01*
G02X-28308Y0I0J151*
G01*
X-28308Y-8000D01*
G75*
D01*
G02X-28459Y-8151I-151J0*
G01*
X-35489Y-8151D01*
X-35491Y-11370D01*
X-35491Y-11370D01*
X-35492Y-12725D01*
G74*
D01*
G02X-35491Y-12737I151J12*
G01*
G75*
D01*
G03X-34393Y-13835I1098J0*
G01*
G74*
D01*
G02X-34381Y-13836I0J152*
G01*
X-32296Y-13836D01*
G75*
D01*
G02X-32266Y-13833I30J-151*
G01*
G74*
D01*
G02X-28305Y-17794I0J3961*
G01*
G75*
D01*
G02X-28308Y-17824I-154J0*
G01*
X-28308Y-19406D01*
G74*
D01*
G02X-28308Y-19418I151J12*
G01*
G75*
D01*
G03X-27209Y-20516I1099J0*
G01*
G74*
D01*
G02X-27197Y-20517I0J152*
G01*
X-12651Y-20517D01*
X-12651Y-13988D01*
G75*
D01*
G02X-12500Y-13837I151J0*
G01*
X-5147Y-13837D01*
X-6383Y-12601D01*
X-12246Y-12601D01*
X-12640Y-12995D01*
X-10518Y-12995D01*
G75*
D01*
G02X-10518Y-13397I422J-201*
G01*
X-12699Y-13397D01*
X-12699Y-18570D01*
G75*
D01*
G02X-12758Y-18713I-201J-1*
G01*
X-14487Y-20442D01*
G74*
D01*
G02X-14563Y-20490I142J142*
G01*
G74*
D01*
G02X-14629Y-20501I66J190*
G01*
X-16900Y-20501D01*
G75*
D01*
G02X-17042Y-20442I0J201*
G01*
X-17383Y-20101D01*
X-25700Y-20101D01*
G75*
D01*
G02X-25842Y-20042I0J201*
G01*
X-26345Y-19539D01*
X-27642Y-18242D01*
G75*
D01*
G02X-27701Y-18100I142J142*
G01*
X-27701Y-16083D01*
X-30383Y-13401D01*
X-34000Y-13401D01*
G75*
D01*
G02X-34018Y-13400I0J201*
G01*
G74*
D01*
G02X-34142Y-13342I18J200*
G01*
X-34842Y-12642D01*
G75*
D01*
G02X-34901Y-12500I142J142*
G01*
X-34901Y-8700D01*
G74*
D01*
G02X-34842Y-8558I201J0*
G01*
X-34792Y-8508D01*
G75*
D01*
G02X-34650Y-8449I142J-142*
G01*
X-28233Y-8449D01*
X-28001Y-8217D01*
X-28001Y-5421D01*
G75*
D01*
G02X-27599Y-5421I201J421*
G01*
X-27599Y-8116D01*
G74*
D01*
G02X-27523Y-8076I199J284*
G01*
X-27523Y-8277D01*
X-27599Y-8277D01*
X-27599Y-8300D01*
G75*
D01*
G02X-27658Y-8442I-201J0*
G01*
X-27865Y-8649D01*
X-27641Y-8649D01*
G74*
D01*
G02X-27724Y-8523I241J249*
G01*
X-27523Y-8523D01*
X-27523Y-8649D01*
X-27333Y-8649D01*
X-27277Y-8593D01*
X-27277Y-8523D01*
X-27207Y-8523D01*
X-26701Y-8017D01*
X-26701Y387D01*
X-27413Y1099D01*
X-34670Y1099D01*
G75*
D01*
G02X-34744Y1113I-1J201*
G01*
G74*
D01*
G02X-34813Y1158I73J187*
G01*
X-34842Y1187D01*
G75*
D01*
G02X-34901Y1329I142J142*
G01*
X-34901Y3800D01*
G74*
D01*
G02X-34842Y3942I201J0*
G01*
X-33201Y5583D01*
X-33201Y5624D01*
G74*
D01*
G02X-33377Y5476I299J176*
G01*
X-33377Y5677D01*
X-33201Y5677D01*
X-33201Y5923D01*
X-33377Y5923D01*
X-33377Y6124D01*
G74*
D01*
G02X-33201Y5976I123J324*
G01*
X-33201Y6117D01*
X-34612Y7528D01*
X-34612Y7528D01*
X-34842Y7758D01*
G75*
D01*
G02X-34901Y7900I142J142*
G01*
X-34901Y11800D01*
G74*
D01*
G02X-34842Y11942I201J0*
G01*
X-34542Y12242D01*
G74*
D01*
G02X-34459Y12292I142J142*
G01*
G75*
D01*
G02X-34400Y12301I59J-192*
G01*
X-28583Y12301D01*
X-28242Y12642D01*
G75*
D01*
G02X-27958Y12358I342J58*
G01*
X-28358Y11958D01*
G75*
D01*
G02X-28500Y11899I-142J142*
G01*
X-34317Y11899D01*
X-34499Y11717D01*
X-34499Y7983D01*
X-34043Y7528D01*
X-34043Y7528D01*
X-32858Y6342D01*
G75*
D01*
G02X-32799Y6200I-142J-142*
G01*
X-32799Y5501D01*
G75*
D01*
G02X-32858Y5358I-201J-1*
G01*
X-34499Y3717D01*
X-34499Y1501D01*
X-27329Y1501D01*
G74*
D01*
G02X-27276Y1494I0J201*
G01*
G74*
D01*
G02X-27187Y1442I53J194*
G01*
X-26501Y756D01*
X-26501Y9168D01*
G75*
D01*
G02X-26099Y9328I101J332*
G01*
X-26099Y-8199D01*
G75*
D01*
G02X-26158Y-8342I-201J-1*
G01*
X-26345Y-8529D01*
X-27058Y-9242D01*
G74*
D01*
G02X-27187Y-9301I142J142*
G01*
G74*
D01*
G02X-27200Y-9301I13J201*
G01*
X-34017Y-9301D01*
X-34099Y-9383D01*
X-34099Y-12117D01*
X-33617Y-12599D01*
X-30000Y-12599D01*
G75*
D01*
G02X-29858Y-12658I0J-201*
G01*
X-26958Y-15558D01*
G75*
D01*
G02X-26899Y-15700I-142J-142*
G01*
X-26899Y-17808D01*
X-25587Y-19120D01*
X-14804Y-19120D01*
X-13701Y-18017D01*
X-13701Y-12971D01*
G74*
D01*
G02X-13642Y-12828I201J0*
G01*
X-12572Y-11758D01*
G75*
D01*
G02X-12429Y-11699I143J-142*
G01*
X-11783Y-11699D01*
X-11701Y-11617D01*
X-11701Y1800D01*
G74*
D01*
G02X-11642Y1942I201J0*
G01*
X-11501Y2083D01*
X-11501Y10700D01*
G74*
D01*
G02X-11442Y10842I201J0*
G01*
X-10785Y11499D01*
X-12887Y11499D01*
X-14199Y10187D01*
X-14199Y1083D01*
X-13717Y601D01*
X-12565Y601D01*
G75*
D01*
G02X-12565Y199I365J-201*
G01*
X-13800Y199D01*
G75*
D01*
G02X-13831Y201I0J201*
G01*
G74*
D01*
G02X-13942Y258I31J199*
G01*
X-14499Y815D01*
X-14499Y-917D01*
X-14017Y-1399D01*
X-12565Y-1399D01*
G75*
D01*
G02X-12565Y-1801I365J-201*
G01*
X-14100Y-1801D01*
G75*
D01*
G02X-14242Y-1742I0J201*
G01*
X-14842Y-1142D01*
G75*
D01*
G02X-14901Y-1000I142J142*
G01*
X-14901Y972D01*
G74*
D01*
G02X-14958Y858I199J28*
G01*
X-16896Y-1080D01*
X-17737Y-1921D01*
X-17737Y-1921D01*
X-18558Y-2742D01*
G75*
D01*
G02X-18700Y-2801I-142J142*
G01*
X-20835Y-2801D01*
G75*
D01*
G02X-20835Y-2399I-365J201*
G01*
X-18783Y-2399D01*
X-18305Y-1921D01*
X-18305Y-1921D01*
X-16896Y-512D01*
X-16896Y-512D01*
X-15301Y1083D01*
X-15301Y1215D01*
X-16896Y-380D01*
X-16896Y-380D01*
X-18258Y-1742D01*
G75*
D01*
G02X-18400Y-1801I-142J142*
G01*
X-20835Y-1801D01*
G75*
D01*
G02X-20835Y-1399I-365J201*
G01*
X-18483Y-1399D01*
X-16896Y188D01*
X-16885Y199D01*
X-20835Y199D01*
G75*
D01*
G02X-20835Y601I-365J201*
G01*
X-16783Y601D01*
X-15801Y1583D01*
X-15801Y10600D01*
G74*
D01*
G02X-15742Y10742I201J0*
G01*
X-13642Y12842D01*
G75*
D01*
G02X-13500Y12901I142J-142*
G01*
X-10588Y12901D01*
G74*
D01*
G02X-10747Y13140I184J295*
G01*
X-10460Y13140D01*
X-10460Y12901D01*
X-10140Y12901D01*
X-10140Y13140D01*
X-9853Y13140D01*
G74*
D01*
G02X-10012Y12901I343J56*
G01*
X-9542Y12901D01*
G75*
D01*
G02X-9058Y12901I242J399*
G01*
X-8542Y12901D01*
G75*
D01*
G02X-8099Y12879I242J399*
G01*
X-8099Y12730D01*
G75*
D01*
G02X-8101Y12701I-201J-1*
G01*
X-4683Y12701D01*
X-4585Y12799D01*
X-7000Y12799D01*
G75*
D01*
G02X-7059Y12808I0J201*
G01*
G74*
D01*
G02X-7142Y12858I59J192*
G01*
X-7144Y12860D01*
G75*
D01*
G02X-6844Y13201I-156J440*
G01*
X-4183Y13201D01*
X-3201Y14183D01*
X-3201Y17871D01*
G74*
D01*
G02X-3142Y18013I201J0*
G01*
X-3113Y18042D01*
G74*
D01*
G02X-3021Y18094I142J142*
G01*
G75*
D01*
G02X-2970Y18101I50J-194*
G01*
X12817Y18101D01*
X15158Y20442D01*
G75*
D01*
G02X15300Y20501I142J-142*
G01*
X24300Y20501D01*
G74*
D01*
G02X24442Y20442I0J201*
G01*
X27908Y16976D01*
X27908Y16976D01*
X28042Y16842D01*
G74*
D01*
G02X28101Y16700I142J142*
G01*
X28101Y13583D01*
X29183Y12501D01*
X34771Y12501D01*
G74*
D01*
G02X34913Y12442I0J201*
G01*
X34942Y12413D01*
G74*
D01*
G02X35001Y12271I142J142*
G01*
X35001Y929D01*
G75*
D01*
G02X34942Y787I-201J0*
G01*
X34913Y758D01*
G74*
D01*
G02X34821Y706I142J142*
G01*
G75*
D01*
G02X34770Y699I-50J194*
G01*
X29013Y699D01*
X28801Y487D01*
X28801Y-1900D01*
G75*
D01*
G02X28742Y-2042I-201J0*
G01*
X28440Y-2344D01*
G75*
D01*
G02X28156Y-2060I-440J-156*
G01*
X28295Y-1921D01*
X28295Y-1921D01*
X28399Y-1817D01*
X28399Y570D01*
G75*
D01*
G02X28458Y713I201J1*
G01*
X28787Y1042D01*
G74*
D01*
G02X28882Y1095I142J142*
G01*
G75*
D01*
G02X28929Y1101I47J-195*
G01*
X34599Y1101D01*
X34599Y12099D01*
X29100Y12099D01*
G75*
D01*
G02X28958Y12158I0J201*
G01*
X27758Y13358D01*
G75*
D01*
G02X27699Y13500I142J142*
G01*
X27699Y16617D01*
X27339Y16976D01*
X24217Y20099D01*
X15383Y20099D01*
X13185Y17901D01*
X13617Y17901D01*
X15153Y19437D01*
G75*
D01*
G02X15148Y19496I343J59*
G01*
X15148Y19704D01*
G75*
D01*
G02X15496Y20052I348J0*
G01*
X15704Y20052D01*
G74*
D01*
G02X16052Y19704I0J348*
G01*
X16052Y19496D01*
G75*
D01*
G02X15704Y19148I-348J0*
G01*
X15496Y19148D01*
G75*
D01*
G02X15437Y19153I0J348*
G01*
X13985Y17701D01*
X15144Y17701D01*
G75*
D01*
G02X15243Y17299I456J-101*
G01*
X14885Y17299D01*
X15208Y16976D01*
X15262Y16922D01*
G75*
D01*
G02X15154Y16461I338J-322*
G01*
X32658Y-10590D02*
G75*
D01*
G02X32658Y-11190I-548J-300*
G01*
X32999Y-11190D01*
X32999Y-10590D01*
X32658Y-10590D01*
X-16946Y-19670D02*
X-17094Y-19522D01*
X-16898Y-19522D01*
G74*
D01*
G03X-16946Y-19670I298J178*
G01*
X-2898Y-18542D02*
X-2899Y-18541D01*
X-2899Y-18599D01*
X-2784Y-18599D01*
G74*
D01*
G02X-2807Y-18594I28J199*
G01*
G74*
D01*
G02X-2898Y-18542I51J194*
G01*
X26601Y-18371D02*
X26601Y-15383D01*
X29583Y-12401D01*
X30415Y-12401D01*
X30348Y-12468D01*
X26958Y-15858D01*
G75*
D01*
G03X26899Y-16000I142J-142*
G01*
X26899Y-18599D01*
X26399Y-18599D01*
G74*
D01*
G03X26513Y-18542I28J199*
G01*
X26542Y-18513D01*
G75*
D01*
G03X26601Y-18371I-142J142*
G01*
X-11099Y8476D02*
X-11099Y10617D01*
X-10600Y11115D01*
G74*
D01*
G03X-10601Y11100I200J15*
G01*
X-10601Y8584D01*
G75*
D01*
G03X-11099Y8476I-199J-284*
G01*
X-10129Y-1921D02*
G75*
D01*
G02X-10129Y-1921I229J221*
G01*
X3191Y-16671D02*
X3191Y-529D01*
G75*
D01*
G02X3342Y-378I151J0*
G01*
X21058Y-378D01*
G74*
D01*
G02X21209Y-529I0J151*
G01*
X21209Y-16671D01*
G75*
D01*
G02X21058Y-16822I-151J0*
G01*
X3342Y-16822D01*
G75*
D01*
G02X3191Y-16671I0J151*
G01*
X22058Y-11370D02*
G75*
D01*
G02X22058Y-11370I42J415*
G01*
X-6671Y-1921D02*
G75*
D01*
G02X-6671Y-1921I-229J221*
G01*
X-10218Y-2700D02*
G75*
D01*
G02X-10218Y-2700I318J0*
G01*
X21675Y-1314D02*
G75*
D01*
G02X21675Y-1314I417J0*
G01*
X-10198Y6213D02*
G74*
D01*
G02X-10013Y6398I298J113*
G01*
X-10013Y6213D01*
X-10198Y6213D01*
X-9787Y6398D02*
G74*
D01*
G02X-9602Y6213I113J298*
G01*
X-9787Y6213D01*
X-9787Y6398D01*
X-9602Y5987D02*
G74*
D01*
G02X-9787Y5802I298J113*
G01*
X-9787Y5987D01*
X-9602Y5987D01*
X-10013Y5802D02*
G74*
D01*
G02X-10198Y5987I113J298*
G01*
X-10013Y5987D01*
X-10013Y5802D01*
X-9998Y6100D02*
G75*
D01*
G02X-9998Y6100I98J0*
G01*
X-3230Y8500D02*
G75*
D01*
G02X-3230Y8500I530J0*
G01*
X6216Y11565D02*
G75*
D01*
G02X6216Y10965I-620J-300*
G01*
X6454Y10965D01*
G74*
D01*
G02X5896Y10407I858J300*
G01*
X5896Y10645D01*
G75*
D01*
G02X5296Y10645I-300J620*
G01*
X5296Y10407D01*
G74*
D01*
G02X4738Y10965I300J858*
G01*
X4976Y10965D01*
G75*
D01*
G02X4976Y11565I620J300*
G01*
X4738Y11565D01*
G74*
D01*
G02X5296Y12123I858J300*
G01*
X5296Y11885D01*
G75*
D01*
G02X5896Y11885I300J-620*
G01*
X5896Y12123D01*
G74*
D01*
G02X6454Y11565I300J858*
G01*
X6216Y11565D01*
X22712Y-15895D02*
G75*
D01*
G02X22712Y-16495I-620J-300*
G01*
X22950Y-16495D01*
G74*
D01*
G02X22392Y-17053I858J300*
G01*
X22392Y-16816D01*
G75*
D01*
G02X21792Y-16816I-300J621*
G01*
X21792Y-17053D01*
G74*
D01*
G02X21234Y-16495I300J858*
G01*
X21472Y-16495D01*
G75*
D01*
G02X21472Y-15895I620J300*
G01*
X21234Y-15895D01*
G74*
D01*
G02X21792Y-15337I858J300*
G01*
X21792Y-15575D01*
G75*
D01*
G02X22392Y-15575I300J-620*
G01*
X22392Y-15337D01*
G74*
D01*
G02X22950Y-15895I300J858*
G01*
X22712Y-15895D01*
X21683Y-14955D02*
G75*
D01*
G02X21683Y-14955I417J0*
G01*
X21683Y-13955D02*
G75*
D01*
G02X21683Y-13955I417J0*
G01*
X21683Y-12955D02*
G75*
D01*
G02X21683Y-12955I417J0*
G01*
X21683Y-11955D02*
G75*
D01*
G02X21683Y-11955I417J0*
G01*
X21683Y-7955D02*
G75*
D01*
G02X21683Y-7955I417J0*
G01*
X22240Y-5924D02*
G74*
D01*
G02X22482Y-6166I148J390*
G01*
X22240Y-6166D01*
X22240Y-5924D01*
X21702Y-6166D02*
G74*
D01*
G02X21944Y-5924I390J148*
G01*
X21944Y-6166D01*
X21702Y-6166D01*
X21675Y-5314D02*
G75*
D01*
G02X21675Y-5314I417J0*
G01*
X21683Y-9955D02*
G75*
D01*
G02X21683Y-9955I417J0*
G01*
X21895Y-6314D02*
G75*
D01*
G02X21895Y-6314I197J0*
G01*
X21944Y-6703D02*
G74*
D01*
G02X21702Y-6461I148J389*
G01*
X21944Y-6461D01*
X21944Y-6703D01*
X22482Y-6461D02*
G74*
D01*
G02X22240Y-6703I390J147*
G01*
X22240Y-6461D01*
X22482Y-6461D01*
X21675Y-3314D02*
G75*
D01*
G02X21675Y-3314I417J0*
G01*
X-7218Y5100D02*
G75*
D01*
G02X-7218Y5100I318J0*
G01*
X-2453Y-6012D02*
G75*
D01*
G02X-2453Y-6388I-247J-188*
G01*
X-2204Y-6388D01*
G74*
D01*
G02X-2512Y-6696I496J188*
G01*
X-2512Y-6447D01*
G75*
D01*
G02X-2888Y-6447I-188J247*
G01*
X-2888Y-6696D01*
G74*
D01*
G02X-3196Y-6388I188J496*
G01*
X-2947Y-6388D01*
G75*
D01*
G02X-2947Y-6012I247J188*
G01*
X-3196Y-6012D01*
G74*
D01*
G02X-2888Y-5704I496J188*
G01*
X-2888Y-5953D01*
G75*
D01*
G02X-2512Y-5953I188J-247*
G01*
X-2512Y-5704D01*
G74*
D01*
G02X-2204Y-6012I188J496*
G01*
X-2453Y-6012D01*
X-7198Y-2587D02*
G74*
D01*
G02X-7013Y-2402I298J113*
G01*
X-7013Y-2587D01*
X-7198Y-2587D01*
X-7013Y-2998D02*
G74*
D01*
G02X-7198Y-2813I113J298*
G01*
X-7013Y-2813D01*
X-7013Y-2998D01*
X-6787Y-2402D02*
G74*
D01*
G02X-6602Y-2587I113J298*
G01*
X-6787Y-2587D01*
X-6787Y-2402D01*
X-6602Y-2813D02*
G74*
D01*
G02X-6787Y-2998I298J113*
G01*
X-6787Y-2813D01*
X-6602Y-2813D01*
X-6998Y-2700D02*
G75*
D01*
G02X-6998Y-2700I98J0*
G01*
X2277Y5027D02*
G75*
D01*
G02X2277Y5027I347J0*
G01*
X-11001Y3800D02*
X-11001Y8017D01*
G74*
D01*
G02X-11099Y8124I201J283*
G01*
X-11099Y2000D01*
G75*
D01*
G02X-11158Y1858I-201J0*
G01*
X-11299Y1717D01*
X-11299Y-3924D01*
G75*
D01*
G02X-10717Y-3899I299J-176*
G01*
X-9183Y-3899D01*
X-8901Y-3617D01*
X-8901Y4300D01*
G74*
D01*
G02X-8842Y4442I201J0*
G01*
X-7447Y5837D01*
X-7217Y6067D01*
G75*
D01*
G02X-6933Y5783I317J33*
G01*
X-7447Y5268D01*
X-8499Y4217D01*
X-8499Y-3700D01*
G75*
D01*
G02X-8558Y-3842I-201J0*
G01*
X-8958Y-4242D01*
G74*
D01*
G02X-9050Y-4295I142J142*
G01*
G74*
D01*
G02X-9100Y-4301I50J195*
G01*
X-10717Y-4301D01*
G75*
D01*
G02X-11299Y-4276I-283J201*
G01*
X-11299Y-11700D01*
G75*
D01*
G02X-11358Y-11842I-201J0*
G01*
X-11415Y-11899D01*
X-6200Y-11899D01*
G75*
D01*
G02X-6058Y-11958I0J-201*
G01*
X-5017Y-12999D01*
X-4100Y-12999D01*
G75*
D01*
G02X-3958Y-13058I0J-201*
G01*
X-2643Y-14373D01*
G75*
D01*
G02X-2584Y-14515I-142J-142*
G01*
X-2584Y-18199D01*
X26199Y-18199D01*
X26199Y-17502D01*
G74*
D01*
G02X25540Y-18120I959J362*
G01*
X25540Y-17688D01*
G75*
D01*
G02X24940Y-17688I-300J548*
G01*
X24940Y-18120D01*
G74*
D01*
G02X24260Y-17440I300J980*
G01*
X24692Y-17440D01*
G75*
D01*
G02X24692Y-16840I548J300*
G01*
X24260Y-16840D01*
G74*
D01*
G02X24940Y-16160I980J300*
G01*
X24940Y-16592D01*
G75*
D01*
G02X25540Y-16592I300J-548*
G01*
X25540Y-16160D01*
G74*
D01*
G02X26199Y-16778I300J980*
G01*
X26199Y-15300D01*
G75*
D01*
G02X26258Y-15158I201J0*
G01*
X29358Y-12058D01*
G75*
D01*
G02X29500Y-11999I142J-142*
G01*
X32999Y-11999D01*
X32999Y-11400D01*
G74*
D01*
G02X32410Y-11870I889J510*
G01*
X32410Y-11438D01*
G75*
D01*
G02X31810Y-11438I-300J548*
G01*
X31810Y-11870D01*
G74*
D01*
G02X31130Y-11190I300J980*
G01*
X31562Y-11190D01*
G75*
D01*
G02X31562Y-10590I548J300*
G01*
X31130Y-10590D01*
G74*
D01*
G02X31810Y-9910I980J300*
G01*
X31810Y-10342D01*
G75*
D01*
G02X32410Y-10342I300J-548*
G01*
X32410Y-9910D01*
G74*
D01*
G02X32999Y-10380I300J980*
G01*
X32999Y-9201D01*
X29271Y-9201D01*
G75*
D01*
G02X29209Y-9191I0J201*
G01*
G74*
D01*
G02X29129Y-9142I62J191*
G01*
X28117Y-8130D01*
X27459Y-8130D01*
G75*
D01*
G02X27501Y-7728I-259J230*
G01*
X28044Y-7728D01*
X27317Y-7001D01*
X25400Y-7001D01*
G75*
D01*
G02X25329Y-6988I0J201*
G01*
G74*
D01*
G02X25258Y-6942I71J188*
G01*
X24558Y-6242D01*
G75*
D01*
G02X24499Y-6100I142J142*
G01*
X24499Y-5185D01*
X23801Y-5883D01*
X23801Y-7500D01*
G75*
D01*
G02X23742Y-7642I-201J0*
G01*
X22509Y-8875D01*
G75*
D01*
G02X22250Y-8566I-409J-80*
G01*
X23399Y-7417D01*
X23399Y-5883D01*
X22225Y-4709D01*
G75*
D01*
G02X22497Y-4413I-133J395*
G01*
X23600Y-5516D01*
X24299Y-4817D01*
X24299Y-391D01*
X22769Y-1921D01*
X22769Y-1921D01*
X22492Y-2197D01*
G75*
D01*
G02X22208Y-1913I-400J-117*
G01*
X24099Y-22D01*
X24099Y12287D01*
X23987Y12399D01*
X-2917Y12399D01*
X-4158Y11158D01*
G74*
D01*
G02X-4243Y11107I142J142*
G01*
G74*
D01*
G02X-4300Y11099I57J193*
G01*
X-10117Y11099D01*
X-10199Y11017D01*
X-10199Y5683D01*
X-9933Y5417D01*
G75*
D01*
G02X-10217Y5133I33J-317*
G01*
X-10542Y5458D01*
G74*
D01*
G02X-10599Y5572I142J142*
G01*
X-10599Y3947D01*
G75*
D01*
G02X-10942Y3658I-1J-347*
G01*
G75*
D01*
G02X-11001Y3800I142J142*
G01*
X28600Y-1900D02*
X28000Y-2500D01*
X-10300Y13300D02*
X-12500Y13300D01*
X-34000Y-13200D02*
X-34700Y-12500D01*
X-34700Y-8700D01*
X-26700Y-7700D02*
X-26700Y-1500D01*
X-26700Y-7700D02*
X-27400Y-8400D01*
X-34100Y-9100D02*
X-34300Y-9300D01*
X-34300Y-12200D01*
X-33700Y-12800D01*
X-6900Y-2700D02*
X-6900Y-6196D01*
X-2704Y-6196D01*
X27200Y-4700D02*
X28000Y-5500D01*
X27200Y-4700D02*
X27200Y-500D01*
X22145Y-8955D02*
X23600Y-7500D01*
X22114Y-4314D02*
X23600Y-5800D01*
X22092Y-4314D02*
X22114Y-4314D01*
X-17300Y-19900D02*
X-16900Y-20300D01*
X-33700Y-12800D02*
X-30000Y-12800D01*
X-30300Y-13200D02*
X-34000Y-13200D01*
X-34700Y-8700D02*
X-34650Y-8650D01*
X-14721Y-19321D02*
X-13500Y-18100D01*
X-12900Y-18571D02*
X-14629Y-20300D01*
X-16900Y-20300D02*
X-14629Y-20300D01*
X-30000Y-12800D02*
X-27100Y-15700D01*
X-27500Y-16000D02*
X-30300Y-13200D01*
X27200Y-500D02*
X29000Y1300D01*
X28600Y571D02*
X28600Y-1900D01*
X28929Y900D02*
X28600Y571D01*
X34800Y929D02*
X34771Y900D01*
X28929Y900D01*
X34771Y12300D02*
X34800Y12271D01*
X34800Y929D01*
X27700Y13200D02*
X28900Y12000D01*
X27900Y13500D02*
X29100Y12300D01*
X27900Y16700D02*
X27900Y13500D01*
X29100Y12300D02*
X34771Y12300D01*
X-33500Y5800D02*
X-34900Y4400D01*
X-34871Y1100D02*
X-34900Y1129D01*
X-34900Y4400D01*
X-27800Y-400D02*
X-26700Y-1500D01*
X-28600Y1100D02*
X-27800Y300D01*
X-34871Y1100D02*
X-28600Y1100D01*
X-27800Y300D02*
X-27800Y-2000D01*
X-34900Y4400D02*
X-34900Y11900D01*
X-34500Y12300D02*
X-34900Y11900D01*
X-25240Y17140D02*
X-25240Y16460D01*
X-25900Y15800D01*
X25240Y17140D02*
X26100Y18000D01*
X32110Y10890D02*
X32110Y11990D01*
X32110Y-10890D02*
X31100Y-11900D01*
X29500Y-11900D01*
X25240Y-16160D01*
X25300Y-16100D01*
X25240Y-17140D02*
X25240Y-16160D01*
X-27100Y-17891D02*
X-25671Y-19321D01*
X-14721Y-19321D01*
X-27100Y-15700D02*
X-27100Y-17891D01*
X-28150Y-8650D02*
X-27800Y-8300D01*
X-34650Y-8650D02*
X-28150Y-8650D01*
X-27800Y-8300D02*
X-27800Y-5000D01*
X-27500Y-18100D02*
X-25700Y-19900D01*
X-27500Y-18100D02*
X-27500Y-16000D01*
X-25700Y-19900D02*
X-17300Y-19900D01*
X1665Y11265D02*
X5596Y11265D01*
X1665Y11265D02*
X-4800Y4800D01*
X-4800Y-6196D02*
X-4800Y4800D01*
X-12900Y-13271D02*
X-12900Y-18571D01*
X-10096Y-13196D02*
X-12826Y-13196D01*
X-12900Y-13271D01*
X-13500Y-18100D02*
X-13500Y-12971D01*
X-12429Y-11900D01*
X-11700Y-11900D01*
X-11500Y-11700D01*
X-17200Y-4100D02*
X-18700Y-5600D01*
X-16700Y-4100D02*
X-17200Y-4100D01*
X-2785Y-14515D02*
X-2785Y-18371D01*
X26400Y-18371D02*
X26400Y-15300D01*
X-2756Y-18400D02*
X26371Y-18400D01*
X-2756Y-18400D02*
X-2785Y-18371D01*
X26371Y-18400D02*
X26400Y-18371D01*
X33200Y-12171D02*
X33171Y-12200D01*
X29500Y-12200D02*
X33171Y-12200D01*
X-4100Y-13200D02*
X-2785Y-14515D01*
X-6200Y-12100D02*
X-5100Y-13200D01*
X-14800Y-19700D02*
X-13300Y-18200D01*
X-13300Y-13071D02*
X-12329Y-12100D01*
X-14829Y-19100D02*
X-13800Y-18071D01*
X-16600Y-19700D02*
X-14800Y-19700D01*
X-20100Y-18300D02*
X-19300Y-19100D01*
X-12329Y-12100D02*
X-6200Y-12100D01*
X-13300Y-18200D02*
X-13300Y-13071D01*
X-5100Y-13200D02*
X-4100Y-13200D01*
X26400Y-15300D02*
X29500Y-12200D01*
X-18200Y-6600D02*
X-21200Y-6600D01*
X-20100Y-14700D02*
X-20100Y-18300D01*
X-6900Y6100D02*
X-8700Y4300D01*
X-18700Y-5600D02*
X-21200Y-5600D01*
X-11000Y-4100D02*
X-9100Y-4100D01*
X-8700Y-3700D02*
X-9100Y-4100D01*
X-8700Y4300D02*
X-8700Y-3700D01*
X28200Y-7929D02*
X27200Y-7929D01*
X-13800Y-10000D02*
X-13400Y-9600D01*
X-13800Y-18071D02*
X-13800Y-10000D01*
X-13400Y-9600D02*
X-12200Y-9600D01*
X-20900Y-10800D02*
X-12400Y-10800D01*
X-10800Y8300D02*
X-10800Y3800D01*
X-10600Y3600D01*
X-16700Y-5100D02*
X-18200Y-6600D01*
X-21200Y400D02*
X-16700Y400D01*
X-10500Y11500D02*
X-4400Y11500D01*
X-16700Y400D02*
X-15600Y1500D01*
X-11500Y-11700D02*
X-11500Y1800D01*
X-10400Y5600D02*
X-9900Y5100D01*
X-13800Y400D02*
X-12200Y400D01*
X-18400Y-1600D02*
X-15300Y1500D01*
X-18400Y-1600D02*
X-21200Y-1600D01*
X-27200Y15800D02*
X-30700Y12300D01*
X-34500Y12300D01*
X-24800Y15800D02*
X-27200Y15800D01*
X-11300Y10700D02*
X-11300Y2000D01*
X-10500Y11500D02*
X-11300Y10700D01*
X-11300Y2000D02*
X-11500Y1800D01*
X-7000Y13000D02*
X-4100Y13000D01*
X-7000Y13000D02*
X-7300Y13300D01*
X-10200Y11300D02*
X-10400Y11100D01*
X-4300Y11300D02*
X-10200Y11300D01*
X-10400Y11100D02*
X-10400Y5600D01*
X33300Y1329D02*
X33271Y1300D01*
X33300Y11971D02*
X33271Y12000D01*
X28900Y12000D02*
X33271Y12000D01*
X29000Y1300D02*
X33271Y1300D01*
X33300Y1329D02*
X33300Y11971D01*
X22121Y-17192D02*
X22092Y-17163D01*
X22092Y-16195D02*
X22092Y-17163D01*
X22121Y-17192D02*
X25192Y-17192D01*
X33171Y-9000D02*
X33200Y-9029D01*
X33200Y-12171D02*
X33200Y-9029D01*
X29271Y-9000D02*
X28200Y-7929D01*
X29271Y-9000D02*
X33171Y-9000D01*
X-26400Y9500D02*
X-26300Y9400D01*
X-26300Y-8200D02*
X-27200Y-9100D01*
X-34100Y-9100D01*
X-26300Y9400D02*
X-26300Y-8200D01*
X-19300Y-19100D02*
X-14829Y-19100D01*
X-25240Y-17140D02*
X-20160Y-17140D01*
X23600Y-5800D02*
X23600Y-7500D01*
X24500Y-4900D02*
X23600Y-5800D01*
X24300Y-106D02*
X22092Y-2314D01*
X24300Y12371D02*
X24300Y-106D01*
X24500Y12571D02*
X24500Y-4900D01*
X26150Y18050D02*
X27700Y16500D01*
X27700Y13200D01*
X-15600Y1500D02*
X-15600Y10600D01*
X-8329Y12700D02*
X-8300Y12729D01*
X-15600Y10600D02*
X-13500Y12700D01*
X-8300Y12729D02*
X-8300Y13300D01*
X-13500Y12700D02*
X-8329Y12700D01*
X-13271Y12500D02*
X-15300Y10471D01*
X-15300Y1500D02*
X-15300Y10471D01*
X-13271Y12500D02*
X-4600Y12500D01*
X-34400Y12100D02*
X-28500Y12100D01*
X-27900Y12700D01*
X-13800Y400D02*
X-14400Y1000D01*
X-14400Y10271D01*
X-12971Y11700D02*
X-14400Y10271D01*
X-12971Y11700D02*
X-4500Y11700D01*
X33371Y-8800D02*
X33400Y-8829D01*
X-13171Y12200D02*
X-4600Y12200D01*
X-2800Y14000D01*
X-14100Y-1600D02*
X-12200Y-1600D01*
X-14700Y-1000D02*
X-14100Y-1600D01*
X-14700Y10300D02*
X-14700Y-1000D01*
X-13100Y11900D02*
X-14700Y10300D01*
X-13100Y11900D02*
X-4600Y11900D01*
X-2600Y13900D02*
X-4600Y11900D01*
X-15100Y1000D02*
X-15100Y10271D01*
X-21200Y-2600D02*
X-18700Y-2600D01*
X-15100Y10271D02*
X-13171Y12200D01*
X-18700Y-2600D02*
X-15100Y1000D01*
X33400Y-12471D02*
X33400Y-8829D01*
X33400Y-12471D02*
X33371Y-12500D01*
X33371Y-8800D02*
X29400Y-8800D01*
X30600Y-12500D02*
X33371Y-12500D01*
X-26500Y471D02*
X-27329Y1300D01*
X-34700Y3800D02*
X-34700Y1329D01*
X-34400Y12100D02*
X-34700Y11800D01*
X-34671Y1300D02*
X-34700Y1329D01*
X-34671Y1300D02*
X-27329Y1300D01*
X-33000Y5500D02*
X-34700Y3800D01*
X-3071Y-18800D02*
X27071Y-18800D01*
X-13100Y-18329D02*
X-13100Y-13171D01*
X-12329Y-12400D02*
X-6300Y-12400D01*
X-13100Y-13171D02*
X-12329Y-12400D01*
X-6300Y-12400D02*
X-5000Y-13700D01*
X-4300Y-13700D02*
X-3100Y-14900D01*
X-16850Y-20050D02*
X-14821Y-20050D01*
X-5000Y-13700D02*
X-4300Y-13700D01*
X-13100Y-18329D02*
X-14821Y-20050D01*
X27100Y-18771D02*
X27100Y-16000D01*
X27071Y-18800D02*
X27100Y-18771D01*
X-3071Y-18800D02*
X-3100Y-18771D01*
X27100Y-16000D02*
X30600Y-12500D01*
X-3100Y-14900D02*
X-3100Y-18771D01*
X-27300Y-18000D02*
X-25700Y-19600D01*
X-30100Y-13000D02*
X-27300Y-15800D01*
X-25700Y-19600D02*
X-17300Y-19600D01*
X-27300Y-15800D02*
X-27300Y-18000D01*
X-27250Y-8850D02*
X-34371Y-8850D01*
X-33871Y-13000D02*
X-30100Y-13000D01*
X-26500Y-8100D02*
X-27250Y-8850D01*
X-17300Y-19600D02*
X-16850Y-20050D01*
X-34371Y-8850D02*
X-34500Y-8979D01*
X25400Y-6800D02*
X24700Y-6100D01*
X24700Y12771D01*
X-33000Y6200D02*
X-33000Y5500D01*
X-26500Y471D02*
X-26500Y-8100D01*
X-34500Y-8979D02*
X-34500Y-12371D01*
X-34700Y11800D02*
X-34700Y7900D01*
X-33000Y6200D01*
X-34500Y-12371D02*
X-33871Y-13000D01*
X29400Y-8800D02*
X27400Y-6800D01*
X25400Y-6800D01*
X-4500Y11700D02*
X-2400Y13800D01*
X15300Y16600D02*
X15600Y16600D01*
X15600Y15600D02*
X21871Y15600D01*
X24700Y12771D01*
X-2371Y17200D02*
X-2400Y17171D01*
X14700Y17200D02*
X15300Y16600D01*
X-2400Y13800D02*
X-2400Y17171D01*
X-2371Y17200D02*
X14700Y17200D01*
X-2571Y17500D02*
X-2600Y17471D01*
X-2600Y13900D02*
X-2600Y17471D01*
X15500Y17500D02*
X15600Y17600D01*
X-2571Y17500D02*
X15500Y17500D01*
X-2771Y17700D02*
X-2800Y17671D01*
X-2800Y14000D02*
X-2800Y17671D01*
X13700Y17700D02*
X15600Y19600D01*
X-2771Y17700D02*
X13700Y17700D01*
X-4600Y12500D02*
X-3000Y14100D01*
X-2971Y17900D02*
X-3000Y17871D01*
X-3000Y14100D01*
X14929Y13929D02*
X15600Y14600D01*
X24300Y20300D02*
X27900Y16700D01*
X12900Y17900D02*
X15300Y20300D01*
X-2971Y17900D02*
X12900Y17900D01*
X15300Y20300D02*
X24300Y20300D01*
X773Y13929D02*
X14929Y13929D01*
X-9900Y6100D02*
X-9100Y6900D01*
X-6300Y6900D01*
X-6300Y-2100D01*
X-6900Y-2700D01*
X-3000Y12600D02*
X24071Y12600D01*
X24300Y12371D01*
X-3000Y12600D02*
X-4300Y11300D01*
X24221Y12850D02*
X-3050Y12850D01*
X-4400Y11500D02*
X-3050Y12850D01*
X24221Y12850D02*
X24500Y12571D01*
X-12500Y13300D02*
X-13000Y13800D01*
X-13029Y19700D02*
X-13000Y19671D01*
X-20900Y19700D02*
X-24800Y15800D01*
X-13000Y13800D02*
X-13000Y19671D01*
X-13029Y19700D02*
X-20900Y19700D01*
G54D12*
X-35743Y-20768D02*
X-35743Y-16614D01*
X-35743Y-20768D02*
X-28594Y-20768D01*
X35743Y-20768D02*
X28594Y-20768D01*
X35743Y-20768D02*
X35743Y-16614D01*
X35743Y20768D02*
X35743Y16614D01*
X35743Y20768D02*
X28594Y20768D01*
X-35743Y20768D02*
X-28594Y20768D01*
X-35743Y20768D02*
X-35743Y16614D01*
X-37711Y-20768D02*
X-41648Y-20768D01*
X-39680Y-22736D02*
X-39680Y-18799D01*
X-41156Y-20768D02*
G75*
D01*
G02X-41156Y-20768I1476J0*
G01*
X37711Y-20768D02*
X41648Y-20768D01*
X39680Y-22736D02*
X39680Y-18799D01*
X38203Y-20768D02*
G75*
D01*
G02X38203Y-20768I1477J0*
G01*
X39188Y-20768D02*
G75*
D01*
G02X39188Y-20768I492J0*
G01*
X-37711Y20768D02*
X-41648Y20768D01*
X-39680Y18799D02*
X-39680Y22736D01*
X-41156Y20768D02*
G75*
D01*
G02X-41156Y20768I1476J0*
G01*
X-40664Y20768D02*
G75*
D01*
G02X-40664Y20768I984J0*
G01*
X-40172Y20768D02*
G75*
D01*
G02X-40172Y20768I492J0*
G01*
G54D13*
X-33500Y5800D03*
X-26400Y9500D03*
X-27400Y-8400D03*
X-16600Y-19700D03*
X27200Y-7900D03*
X-10600Y3600D03*
X-10800Y8300D03*
X-11000Y-4100D03*
X-16700Y-4100D03*
X-16700Y-5100D03*
X2624Y5027D03*
X-27900Y12700D03*
G54D14*
X-25240Y17140D03*
X25240Y17140D03*
X32110Y10890D03*
X32110Y-10890D03*
X-32110Y10890D03*
X-25240Y-17140D03*
X25240Y-17140D03*
X-32110Y-10890D03*
G54D15*
X-2700Y-6200D03*
X26100Y-6200D03*
X-20100Y-14700D03*
X-20100Y14100D03*
X26100Y8500D03*
X-2700Y8500D03*
G54D16*
X-6900Y5100D03*
X-6900Y6100D03*
X-9900Y5100D03*
X-9900Y6100D03*
X-9900Y-1700D03*
X-9900Y-2700D03*
X-6900Y-1700D03*
X-6900Y-2700D03*
G54D17*
X-27800Y-4000D03*
X-27800Y-3000D03*
X-27800Y-5000D03*
X-8300Y13300D03*
X-9300Y13300D03*
X-7300Y13300D03*
X-9096Y-13196D03*
X-8096Y-13196D03*
X-10096Y-13196D03*
X28000Y-3500D03*
X28000Y-4500D03*
X28000Y-2500D03*
X15600Y18600D03*
X15600Y17600D03*
X15600Y15600D03*
X15600Y16600D03*
X15600Y14600D03*
G54D18*
X-27800Y-2000D03*
X-10300Y13300D03*
X-7096Y-13196D03*
X28000Y-5500D03*
X15600Y19600D03*
G54D19*
X-27904Y-2104D02*
X-27696Y-2104D01*
X-27696Y-1896D01*
X-27904Y-1896D01*
X-27904Y-2104D01*D02*
X-10404Y13196D02*
X-10196Y13196D01*
X-10196Y13404D01*
X-10404Y13404D01*
X-10404Y13196D01*D02*
X-7200Y-13300D02*
X-6992Y-13300D01*
X-6992Y-13092D01*
X-7200Y-13092D01*
X-7200Y-13300D01*D02*
X27896Y-5604D02*
X28104Y-5604D01*
X28104Y-5396D01*
X27896Y-5396D01*
X27896Y-5604D01*D02*
X15496Y19496D02*
X15704Y19496D01*
X15704Y19704D01*
X15496Y19704D01*
X15496Y19496D01*D02*
G54D20*
X-12200Y-9600D03*
X-12200Y-8600D03*
X-12200Y-7600D03*
X-12200Y-6600D03*
X-12200Y-5600D03*
X-12200Y-4600D03*
X-12200Y-3600D03*
X-12200Y-2600D03*
X-12200Y-1600D03*
X-12200Y-600D03*
X-12200Y400D03*
X-12200Y1400D03*
X-12200Y2400D03*
X-12200Y3400D03*
X-12200Y4400D03*
X-12200Y5400D03*
X-12200Y6400D03*
X-12200Y7400D03*
X-12200Y8400D03*
X-21200Y-9600D03*
X-21200Y-8600D03*
X-21200Y-7600D03*
X-21200Y-6600D03*
X-21200Y-5600D03*
X-21200Y-4600D03*
X-21200Y-3600D03*
X-21200Y-2600D03*
X-21200Y-1600D03*
X-21200Y-600D03*
X-21200Y400D03*
X-21200Y1400D03*
X-21200Y2400D03*
X-21200Y3400D03*
X-21200Y4400D03*
X-21200Y5400D03*
X-21200Y6400D03*
X-21200Y7400D03*
X-21200Y8400D03*
X22100Y-7955D03*
X22100Y-8955D03*
X22100Y-9955D03*
X22100Y-10955D03*
X22100Y-11955D03*
X22100Y-12955D03*
X22100Y-13955D03*
X22100Y-14955D03*
X22092Y-6314D03*
X22092Y-5314D03*
X22092Y-4314D03*
X22092Y-3314D03*
X22092Y-2314D03*
X22092Y-1314D03*
G54D21*
X-12400Y-10800D03*
X-20900Y-10800D03*
X-20900Y9600D03*
X-12400Y9600D03*
G54D22*
X5596Y11265D03*
X22092Y-16195D03*
G54D23*
X773Y13929D03*

M02*
