G04 Generated by Ultiboard 14.2 *
%FSLAX24Y24*%
%MOIN*%

%ADD10C,0.0001*%
%ADD11C,0.0001*%
%ADD12C,0.0050*%


G04 ColorRGB 00FFFF for the following layer *
%LNBoard Outline*%
%LPD*%
G54D10*
G54D11*
X-28459Y-19418D02*
X-28454Y-19527D01*
X-28440Y-19635D01*
X-28416Y-19741D01*
X-28383Y-19845D01*
X-28342Y-19946D01*
X-28291Y-20043D01*
X-28233Y-20135D01*
X-28166Y-20221D01*
X-28093Y-20302D01*
X-28012Y-20375D01*
X-27926Y-20442D01*
X-27834Y-20500D01*
X-27737Y-20551D01*
X-27636Y-20592D01*
X-27532Y-20625D01*
X-27426Y-20649D01*
X-27318Y-20663D01*
X-27209Y-20668D01*
X-28459Y-17794D02*
X-28459Y-19418D01*
X-28459Y-17794D02*
X-28473Y-17462D01*
X-28517Y-17133D01*
X-28588Y-16809D01*
X-28688Y-16492D01*
X-28815Y-16185D01*
X-28969Y-15890D01*
X-29147Y-15610D01*
X-29349Y-15347D01*
X-29574Y-15102D01*
X-29819Y-14877D01*
X-30082Y-14675D01*
X-30362Y-14497D01*
X-30657Y-14343D01*
X-30964Y-14216D01*
X-31281Y-14116D01*
X-31605Y-14045D01*
X-31934Y-14001D01*
X-32266Y-13987D01*
X-32266Y-13987D01*
X-34393Y-13987D02*
X-32266Y-13987D01*
X-35643Y-12737D02*
X-35638Y-12846D01*
X-35624Y-12954D01*
X-35600Y-13060D01*
X-35567Y-13164D01*
X-35526Y-13265D01*
X-35475Y-13362D01*
X-35417Y-13454D01*
X-35350Y-13540D01*
X-35277Y-13621D01*
X-35196Y-13694D01*
X-35110Y-13761D01*
X-35018Y-13819D01*
X-34921Y-13870D01*
X-34820Y-13911D01*
X-34716Y-13944D01*
X-34610Y-13968D01*
X-34502Y-13982D01*
X-34393Y-13987D01*
X-34393Y13987D02*
X-34502Y13982D01*
X-34610Y13968D01*
X-34716Y13944D01*
X-34820Y13911D01*
X-34921Y13870D01*
X-35018Y13819D01*
X-35110Y13761D01*
X-35196Y13694D01*
X-35277Y13621D01*
X-35350Y13540D01*
X-35417Y13454D01*
X-35475Y13362D01*
X-35526Y13265D01*
X-35567Y13164D01*
X-35600Y13060D01*
X-35624Y12954D01*
X-35638Y12846D01*
X-35643Y12737D01*
X-32266Y13987D02*
X-34393Y13987D01*
X-32266Y13987D02*
X-31934Y14001D01*
X-31605Y14045D01*
X-31281Y14116D01*
X-30964Y14216D01*
X-30657Y14343D01*
X-30362Y14497D01*
X-30082Y14675D01*
X-29819Y14877D01*
X-29574Y15102D01*
X-29349Y15347D01*
X-29147Y15610D01*
X-28969Y15890D01*
X-28815Y16185D01*
X-28688Y16492D01*
X-28588Y16809D01*
X-28517Y17133D01*
X-28473Y17462D01*
X-28459Y17794D01*
X-28459Y19418D02*
X-28459Y17794D01*
X-27209Y20668D02*
X-27318Y20663D01*
X-27426Y20649D01*
X-27532Y20625D01*
X-27636Y20592D01*
X-27737Y20551D01*
X-27834Y20500D01*
X-27926Y20442D01*
X-28012Y20375D01*
X-28093Y20302D01*
X-28166Y20221D01*
X-28233Y20135D01*
X-28291Y20043D01*
X-28342Y19946D01*
X-28383Y19845D01*
X-28416Y19741D01*
X-28440Y19635D01*
X-28454Y19527D01*
X-28459Y19418D01*
X-27209Y20668D02*
X-20500Y20668D01*
X-35643Y12737D02*
X-35643Y0D01*
X-12500Y20668D02*
X-12500Y13987D01*
X-28459Y0D02*
X-28459Y-8000D01*
X-35640Y-8000D01*
X-28459Y0D02*
X-35643Y0D01*
X-35640Y-8000D02*
X-35643Y-12737D01*
X28459Y19418D02*
X28454Y19527D01*
X28440Y19635D01*
X28416Y19741D01*
X28383Y19845D01*
X28342Y19946D01*
X28291Y20043D01*
X28233Y20135D01*
X28166Y20221D01*
X28093Y20302D01*
X28012Y20375D01*
X27926Y20442D01*
X27834Y20500D01*
X27737Y20551D01*
X27636Y20592D01*
X27532Y20625D01*
X27426Y20649D01*
X27318Y20663D01*
X27209Y20668D01*
X28459Y17794D02*
X28459Y19418D01*
X28459Y17794D02*
X28473Y17462D01*
X28517Y17133D01*
X28588Y16809D01*
X28688Y16492D01*
X28815Y16185D01*
X28969Y15890D01*
X29147Y15610D01*
X29349Y15347D01*
X29574Y15102D01*
X29819Y14877D01*
X30082Y14675D01*
X30362Y14497D01*
X30657Y14343D01*
X30964Y14216D01*
X31281Y14116D01*
X31605Y14045D01*
X31934Y14001D01*
X32266Y13987D01*
X32266Y13987D01*
X34393Y13987D02*
X32266Y13987D01*
X35643Y12737D02*
X35638Y12846D01*
X35624Y12954D01*
X35600Y13060D01*
X35567Y13164D01*
X35526Y13265D01*
X35475Y13362D01*
X35417Y13454D01*
X35350Y13540D01*
X35277Y13621D01*
X35196Y13694D01*
X35110Y13761D01*
X35018Y13819D01*
X34921Y13870D01*
X34820Y13911D01*
X34716Y13944D01*
X34610Y13968D01*
X34502Y13982D01*
X34393Y13987D01*
X32266Y-13987D02*
X34393Y-13987D01*
X32266Y-13987D02*
X31934Y-14001D01*
X31605Y-14045D01*
X31281Y-14116D01*
X30964Y-14216D01*
X30657Y-14343D01*
X30362Y-14497D01*
X30082Y-14675D01*
X29819Y-14877D01*
X29574Y-15102D01*
X29349Y-15347D01*
X29147Y-15610D01*
X28969Y-15890D01*
X28815Y-16185D01*
X28688Y-16492D01*
X28588Y-16809D01*
X28517Y-17133D01*
X28473Y-17462D01*
X28459Y-17794D01*
X28459Y-17794D01*
X28459Y-19418D02*
X28459Y-17794D01*
X27209Y-20668D02*
X27318Y-20663D01*
X27426Y-20649D01*
X27532Y-20625D01*
X27636Y-20592D01*
X27737Y-20551D01*
X27834Y-20500D01*
X27926Y-20442D01*
X28012Y-20375D01*
X28093Y-20302D01*
X28166Y-20221D01*
X28233Y-20135D01*
X28291Y-20043D01*
X28342Y-19946D01*
X28383Y-19845D01*
X28416Y-19741D01*
X28440Y-19635D01*
X28454Y-19527D01*
X28459Y-19418D01*
X27209Y-20668D02*
X20500Y-20668D01*
X27209Y20668D02*
X0Y20668D01*
X35640Y8000D02*
X35643Y12737D01*
X20500Y-20668D02*
X12500Y-20668D01*
X-27209Y-20668D02*
X-12500Y-20668D01*
X4296Y-20668D02*
X12500Y-20668D01*
X0Y-20668D02*
X4296Y-20668D01*
X-12500Y13987D02*
X-4500Y13987D01*
X-4500Y20668D01*
X0Y20668D01*
X-20500Y20668D02*
X-12500Y20668D01*
X35640Y4000D02*
X35640Y8000D01*
X35640Y4000D02*
X35640Y0D01*
X28960Y0D01*
X28960Y-8000D01*
X35640Y-8000D01*
X35640Y-12818D01*
X-12500Y-20668D02*
X-12500Y-13988D01*
X-4500Y-13988D01*
X-4500Y-20668D01*
X0Y-20668D01*
X34393Y-13987D02*
X34502Y-13982D01*
X34610Y-13968D01*
X34716Y-13944D01*
X34820Y-13911D01*
X34921Y-13870D01*
X35018Y-13819D01*
X35110Y-13761D01*
X35196Y-13694D01*
X35277Y-13621D01*
X35350Y-13540D01*
X35417Y-13454D01*
X35475Y-13362D01*
X35526Y-13265D01*
X35567Y-13164D01*
X35600Y-13060D01*
X35624Y-12954D01*
X35638Y-12846D01*
X35640Y-12818D01*
G54D12*
X-35743Y-20768D02*
X-35743Y-16614D01*
X-35743Y-20768D02*
X-28594Y-20768D01*
X35743Y-20768D02*
X28594Y-20768D01*
X35743Y-20768D02*
X35743Y-16614D01*
X35743Y20768D02*
X35743Y16614D01*
X35743Y20768D02*
X28594Y20768D01*
X-35743Y20768D02*
X-28594Y20768D01*
X-35743Y20768D02*
X-35743Y16614D01*
X-37711Y-20768D02*
X-41648Y-20768D01*
X-39680Y-22736D02*
X-39680Y-18799D01*
X-41156Y-20768D02*
G75*
D01*
G02X-41156Y-20768I1476J0*
G01*
X37711Y-20768D02*
X41648Y-20768D01*
X39680Y-22736D02*
X39680Y-18799D01*
X38203Y-20768D02*
G75*
D01*
G02X38203Y-20768I1477J0*
G01*
X39188Y-20768D02*
G75*
D01*
G02X39188Y-20768I492J0*
G01*
X-37711Y20768D02*
X-41648Y20768D01*
X-39680Y18799D02*
X-39680Y22736D01*
X-41156Y20768D02*
G75*
D01*
G02X-41156Y20768I1476J0*
G01*
X-40664Y20768D02*
G75*
D01*
G02X-40664Y20768I984J0*
G01*
X-40172Y20768D02*
G75*
D01*
G02X-40172Y20768I492J0*
G01*

M02*
