M48
INCH,TZ
VER,1
FMAT,2
DETECT,ON
ATC,ON
T1C0.0236
T2C0.0100
T3C0.1250
T4C0.0620
T5C0.0197
T6C0.0350
T7C0.0392
T8C0.0394
T9C0.0984
T10C0.1378
T11C0.0839
%
T1
X-33500Y5800
X-26400Y9500
X-27400Y-8400
X-16600Y-19700
X27200Y-7900
X-10600Y3600
X-10800Y8300
X-11000Y-4100
X-16700
Y-5100
X2624Y5027
X-27900Y12700
T2
X3392Y-16621G85X21008Y-16621
X21008Y-16621G85X21008Y-579
X21008Y-579G85X3392Y-579
X3392Y-579G85X3392Y-16621
T3
X-25240Y17140
X25240
X32110Y10890
Y-10890
X-32110Y10890
X-25240Y-17140
X25240
X-32110Y-10890
T4
X-2700Y-6200
X26100
X-20100Y-14700
Y14100
X26100Y8500
X-2700
T5
X-6900Y5100
Y6100
X-9900Y5100
Y6100
Y-1700
Y-2700
X-6900Y-1700
Y-2700
T6
X-27800Y-4000
Y-3000
Y-5000
X-8300Y13300
X-9300
X-7300
X-9096Y-13196
X-8096
X-10096
X28000Y-3500
Y-4500
Y-2500
X15600Y18600
Y17600
Y15600
Y16600
Y14600
T7
X-27800Y-2000
X-10300Y13300
X-7096Y-13196
X28000Y-5500
X15600Y19600
T8
X-12200Y-9600
Y-8600
Y-7600
Y-6600
Y-5600
Y-4600
Y-3600
Y-2600
Y-1600
Y-600
Y400
Y1400
Y2400
Y3400
Y4400
Y5400
Y6400
Y7400
Y8400
X-21200Y-9600
Y-8600
Y-7600
Y-6600
Y-5600
Y-4600
Y-3600
Y-2600
Y-1600
Y-600
Y400
Y1400
Y2400
Y3400
Y4400
Y5400
Y6400
Y7400
Y8400
X22100Y-7955
Y-8955
Y-9955
Y-10955
Y-11955
Y-12955
Y-13955
Y-14955
X22092Y-6314
Y-5314
Y-4314
Y-3314
X22092Y-2314
Y-1314
T9
X-12400Y-10800
X-20900
Y9600
X-12400
T10
X5596Y11265
X22092Y-16195
T11
X773Y13929
M30
