G04 Generated by Ultiboard 14.2 *
%FSLAX24Y24*%
%MOIN*%

%ADD10C,0.0001*%
%ADD11C,0.0100*%
%ADD12C,0.0050*%
%ADD13C,0.0394*%
%ADD14C,0.1750*%
%ADD15C,0.0760*%
%ADD16C,0.0337*%
%ADD17R,0.0433X0.0236*%
%ADD18R,0.0236X0.0657*%
%ADD19R,0.0236X0.0157*%
%ADD20R,0.0551X0.0413*%
%ADD21R,0.0571X0.0453*%
%ADD22R,0.0413X0.0551*%
%ADD23C,0.0633*%
%ADD24R,0.0208X0.0208*%
%ADD25C,0.0392*%
%ADD26C,0.0534*%
%ADD27C,0.1124*%
%ADD28C,0.1518*%
%ADD29C,0.1083*%


G04 ColorRGB 00FF00 for the following layer *
%LNCopper Top*%
%LPD*%
G54D10*
G36*
X27197Y20517D02*
X27197Y20517D01*
X-4349Y20517D01*
X-4349Y13987D01*
G75*
D01*
G02X-4500Y13836I-151J0*
G01*
X-4500Y13836D01*
X-12500Y13836D01*
G75*
D01*
G02X-12651Y13987I0J151*
G01*
X-12651Y13987D01*
X-12651Y20517D01*
X-16896Y20517D01*
X-16896Y20517D01*
X-20500Y20517D01*
X-20500Y20517D01*
X-20500Y20517D01*
X-26345Y20517D01*
X-26345Y20517D01*
X-27197Y20517D01*
G74*
D01*
G02X-27209Y20516I12J151*
G01*
G75*
D01*
G03X-28308Y19418I0J-1098*
G01*
G75*
D01*
G02X-28308Y19406I-151J0*
G01*
X-28308Y19406D01*
X-28308Y17824D01*
G74*
D01*
G02X-28305Y17794I151J30*
G01*
G75*
D01*
G02X-32266Y13833I-3961J0*
G01*
G75*
D01*
G02X-32296Y13836I0J154*
G01*
X-32296Y13836D01*
X-34381Y13836D01*
G74*
D01*
G02X-34393Y13835I12J151*
G01*
G75*
D01*
G03X-35491Y12737I0J-1098*
G01*
G75*
D01*
G02X-35492Y12725I-152J0*
G01*
X-35492Y12725D01*
X-35492Y151D01*
X-28459Y151D01*
G74*
D01*
G02X-28308Y0I0J151*
G01*
X-28308Y0D01*
X-28308Y-8000D01*
G75*
D01*
G02X-28459Y-8151I-151J0*
G01*
X-28459Y-8151D01*
X-35489Y-8151D01*
X-35491Y-11370D01*
X-35491Y-11370D01*
X-35492Y-12725D01*
G74*
D01*
G02X-35491Y-12737I151J12*
G01*
G75*
D01*
G03X-34393Y-13835I1098J0*
G01*
G74*
D01*
G02X-34381Y-13836I0J152*
G01*
X-34381Y-13836D01*
X-32296Y-13836D01*
G75*
D01*
G02X-32266Y-13833I30J-151*
G01*
G74*
D01*
G02X-28305Y-17794I0J3961*
G01*
G75*
D01*
G02X-28308Y-17824I-154J0*
G01*
X-28308Y-17824D01*
X-28308Y-19406D01*
G74*
D01*
G02X-28308Y-19418I151J12*
G01*
G75*
D01*
G03X-27209Y-20516I1099J0*
G01*
G74*
D01*
G02X-27197Y-20517I0J152*
G01*
X-27197Y-20517D01*
X-12651Y-20517D01*
X-12651Y-13988D01*
G75*
D01*
G02X-12500Y-13837I151J0*
G01*
X-12500Y-13837D01*
X-4500Y-13837D01*
G74*
D01*
G02X-4349Y-13988I0J151*
G01*
X-4349Y-13988D01*
X-4349Y-20517D01*
X0Y-20517D01*
X0Y-20517D01*
X0Y-20517D01*
X2001Y-20517D01*
X2001Y-20517D01*
X4296Y-20517D01*
X4296Y-20517D01*
X4296Y-20517D01*
X11450Y-20517D01*
X11450Y-20517D01*
X12500Y-20517D01*
X12500Y-20517D01*
X12500Y-20517D01*
X20500Y-20517D01*
X20899Y-20517D01*
X20899Y-20517D01*
X27197Y-20517D01*
G75*
D01*
G02X27209Y-20516I12J-151*
G01*
G75*
D01*
G03X28308Y-19418I0J1098*
G01*
G74*
D01*
G02X28308Y-19406I151J0*
G01*
X28308Y-19406D01*
X28308Y-17824D01*
G75*
D01*
G02X28305Y-17794I151J30*
G01*
G75*
D01*
G02X32266Y-13833I3961J0*
G01*
G74*
D01*
G02X32296Y-13836I0J154*
G01*
X32296Y-13836D01*
X34381Y-13836D01*
G75*
D01*
G02X34393Y-13835I12J-151*
G01*
G74*
D01*
G03X35489Y-12808I0J1098*
G01*
X35489Y-12806D01*
X35489Y-12806D01*
X35489Y-8151D01*
X28960Y-8151D01*
G75*
D01*
G02X28809Y-8000I0J151*
G01*
X28809Y-8000D01*
X28809Y0D01*
G75*
D01*
G02X28960Y151I151J0*
G01*
X28960Y151D01*
X35489Y151D01*
X35489Y8000D01*
X35489Y8000D01*
X35489Y8000D01*
X35492Y12725D01*
G75*
D01*
G02X35491Y12737I151J12*
G01*
G74*
D01*
G03X34393Y13835I1098J0*
G01*
G75*
D01*
G02X34381Y13836I0J152*
G01*
X34381Y13836D01*
X32296Y13836D01*
G74*
D01*
G02X32266Y13833I30J151*
G01*
G75*
D01*
G02X28305Y17794I0J3961*
G01*
G74*
D01*
G02X28308Y17824I154J0*
G01*
X28308Y17824D01*
X28308Y19406D01*
G75*
D01*
G02X28308Y19418I151J12*
G01*
G74*
D01*
G03X27209Y20516I1099J0*
G01*
G75*
D01*
G02X27197Y20517I0J152*
G01*
D02*
G37*
%LPC*%
G36*
X15324Y16976D02*
G75*
D01*
G02X15324Y16976I276J-376*
G01*
D02*
G37*
G36*
X15153Y14734D02*
X15153Y14734D01*
X14487Y15399D01*
X-1949Y15399D01*
X-1949Y13206D01*
X-1813Y13342D01*
G74*
D01*
G02X-1732Y13391I142J142*
G01*
G75*
D01*
G02X-1670Y13401I61J-191*
G01*
X-1670Y13401D01*
X327Y13401D01*
G75*
D01*
G02X1219Y13401I446J528*
G01*
X1219Y13401D01*
X23870Y13401D01*
G75*
D01*
G02X23935Y13391I1J-201*
G01*
G74*
D01*
G02X24013Y13342I64J191*
G01*
X24013Y13342D01*
X24542Y12813D01*
G74*
D01*
G02X24601Y12671I142J142*
G01*
X24601Y12671D01*
X24601Y-1006D01*
G75*
D01*
G02X24542Y-1148I-201J0*
G01*
X24542Y-1148D01*
X23769Y-1921D01*
X23769Y-1921D01*
X22492Y-3197D01*
G75*
D01*
G02X22208Y-2913I-400J-117*
G01*
X22208Y-2913D01*
X23200Y-1921D01*
X23200Y-1921D01*
X24199Y-922D01*
X24199Y12587D01*
X23787Y12999D01*
X-1587Y12999D01*
X-1699Y12887D01*
X-1699Y9183D01*
X-1558Y9042D01*
G75*
D01*
G02X-1499Y8900I-142J-142*
G01*
X-1499Y8900D01*
X-1499Y7430D01*
G75*
D01*
G02X-1558Y7287I-201J-1*
G01*
X-1558Y7287D01*
X-1587Y7258D01*
G75*
D01*
G02X-1730Y7199I-142J142*
G01*
X-1730Y7199D01*
X-4287Y7199D01*
X-5899Y5587D01*
X-5899Y-3370D01*
G75*
D01*
G02X-5958Y-3513I-201J-1*
G01*
X-5958Y-3513D01*
X-5987Y-3542D01*
G74*
D01*
G02X-6078Y-3594I142J142*
G01*
G74*
D01*
G02X-6129Y-3601I51J194*
G01*
X-6129Y-3601D01*
X-9500Y-3601D01*
G75*
D01*
G02X-9642Y-3542I0J201*
G01*
X-9642Y-3542D01*
X-10042Y-3142D01*
G74*
D01*
G02X-10049Y-3135I142J142*
G01*
X-10049Y-3135D01*
X-10049Y-4920D01*
G75*
D01*
G02X-10108Y-5063I-201J-1*
G01*
X-10108Y-5063D01*
X-10287Y-5242D01*
G74*
D01*
G02X-10366Y-5291I142J142*
G01*
G74*
D01*
G02X-10429Y-5301I63J191*
G01*
X-10429Y-5301D01*
X-11910Y-5301D01*
G75*
D01*
G02X-12490Y-5301I-290J-299*
G01*
X-12490Y-5301D01*
X-16417Y-5301D01*
G75*
D01*
G02X-16417Y-4899I-283J201*
G01*
X-16417Y-4899D01*
X-12490Y-4899D01*
G75*
D01*
G02X-12490Y-4301I290J299*
G01*
X-12490Y-4301D01*
X-16417Y-4301D01*
G75*
D01*
G02X-16417Y-3899I-283J201*
G01*
X-16417Y-3899D01*
X-12490Y-3899D01*
G75*
D01*
G02X-11910Y-3899I290J299*
G01*
X-11910Y-3899D01*
X-11283Y-3899D01*
G75*
D01*
G02X-11283Y-4301I283J-201*
G01*
X-11283Y-4301D01*
X-11910Y-4301D01*
G75*
D01*
G02X-11910Y-4899I-290J-299*
G01*
X-11910Y-4899D01*
X-10513Y-4899D01*
X-10451Y-4837D01*
X-10451Y-2529D01*
G74*
D01*
G02X-10392Y-2387I201J0*
G01*
X-10392Y-2387D01*
X-10063Y-2058D01*
G74*
D01*
G02X-9980Y-2008I142J142*
G01*
G75*
D01*
G02X-10201Y-1596I80J308*
G01*
X-10201Y-1596D01*
X-10201Y-931D01*
X-10276Y-931D01*
G75*
D01*
G02X-10426Y-781I0J150*
G01*
X-10426Y-781D01*
X-10426Y-367D01*
G75*
D01*
G02X-10276Y-217I150J0*
G01*
X-10276Y-217D01*
X-9724Y-217D01*
G74*
D01*
G02X-9574Y-367I0J150*
G01*
X-9574Y-367D01*
X-9574Y-781D01*
G75*
D01*
G02X-9724Y-931I-150J0*
G01*
X-9724Y-931D01*
X-9799Y-931D01*
X-9799Y-1398D01*
G75*
D01*
G02X-9791Y-1999I-101J-302*
G01*
X-9791Y-1999D01*
X-7483Y-1999D01*
X-7447Y-1963D01*
X-7405Y-1921D01*
X-7405Y-1921D01*
X-7217Y-1733D01*
G75*
D01*
G02X-7101Y-1453I317J33*
G01*
X-7101Y-1453D01*
X-7101Y-929D01*
G75*
D01*
G02X-7226Y-781I25J148*
G01*
X-7226Y-781D01*
X-7226Y-367D01*
G75*
D01*
G02X-7076Y-217I150J0*
G01*
X-7076Y-217D01*
X-6524Y-217D01*
G74*
D01*
G02X-6374Y-367I0J150*
G01*
X-6374Y-367D01*
X-6374Y-781D01*
G75*
D01*
G02X-6524Y-931I-150J0*
G01*
X-6524Y-931D01*
X-6699Y-931D01*
X-6699Y-1453D01*
G75*
D01*
G02X-6933Y-2017I-201J-247*
G01*
X-6933Y-2017D01*
X-7258Y-2342D01*
G75*
D01*
G02X-7400Y-2401I-142J142*
G01*
X-7400Y-2401D01*
X-9791Y-2401D01*
G75*
D01*
G02X-9683Y-2933I-109J-299*
G01*
X-9683Y-2933D01*
X-9417Y-3199D01*
X-6301Y-3199D01*
X-6301Y5671D01*
G74*
D01*
G02X-6242Y5813I201J0*
G01*
X-6242Y5813D01*
X-4656Y7399D01*
X-8887Y7399D01*
X-9699Y6587D01*
X-9699Y6347D01*
G75*
D01*
G02X-10101Y6347I-201J-247*
G01*
X-10101Y6347D01*
X-10101Y6486D01*
X-11299Y5287D01*
X-11299Y100D01*
G75*
D01*
G02X-11358Y-42I-201J0*
G01*
X-11358Y-42D01*
X-11800Y-484D01*
G75*
D01*
G02X-12084Y-200I-400J-116*
G01*
X-12084Y-200D01*
X-11701Y183D01*
X-11701Y5371D01*
G74*
D01*
G02X-11642Y5513I201J0*
G01*
X-11642Y5513D01*
X-9627Y7528D01*
X-9213Y7942D01*
G74*
D01*
G02X-9113Y7996I142J142*
G01*
G75*
D01*
G02X-9071Y8001I42J-196*
G01*
X-9071Y8001D01*
X-2879Y8001D01*
G75*
D01*
G02X-2901Y8990I179J499*
G01*
X-2901Y8990D01*
X-2901Y12187D01*
X-3113Y12399D01*
X-11444Y12399D01*
X-10658Y11613D01*
G75*
D01*
G02X-10599Y11470I-142J-142*
G01*
X-10599Y11470D01*
X-10599Y8583D01*
G75*
D01*
G02X-11130Y8193I-201J-283*
G01*
G74*
D01*
G02X-11158Y8158I170J107*
G01*
X-11158Y8158D01*
X-11800Y7516D01*
G75*
D01*
G02X-12084Y7800I-400J-116*
G01*
X-12084Y7800D01*
X-11501Y8383D01*
X-11501Y11537D01*
X-11963Y11999D01*
X-15100Y11999D01*
G75*
D01*
G02X-15242Y12058I0J201*
G01*
X-15242Y12058D01*
X-17083Y13899D01*
X-19610Y13899D01*
G75*
D01*
G02X-20476Y14473I-490J201*
G01*
X-20476Y14473D01*
X-24066Y14473D01*
X-24364Y14175D01*
X-24036Y14175D01*
X-24036Y14204D01*
G75*
D01*
G02X-23885Y14354I151J0*
G01*
X-23885Y14354D01*
X-23315Y14354D01*
G74*
D01*
G02X-23164Y14204I0J150*
G01*
X-23164Y14204D01*
X-23164Y13751D01*
G75*
D01*
G02X-23235Y13623I-151J0*
G01*
G74*
D01*
G02X-23164Y13495I80J128*
G01*
X-23164Y13495D01*
X-23164Y13042D01*
G75*
D01*
G02X-23315Y12891I-151J0*
G01*
X-23315Y12891D01*
X-23885Y12891D01*
G75*
D01*
G02X-24036Y13042I0J151*
G01*
X-24036Y13042D01*
X-24036Y13068D01*
X-24487Y13068D01*
G74*
D01*
G02X-24632Y12957I145J40*
G01*
X-24632Y12957D01*
X-25065Y12957D01*
G75*
D01*
G02X-25216Y13108I0J151*
G01*
X-25216Y13108D01*
X-25216Y13344D01*
X-25216Y13348D01*
X-25216Y13348D01*
X-25584Y13348D01*
G74*
D01*
G02X-25584Y13338I151J10*
G01*
X-25584Y13338D01*
X-25584Y13102D01*
G75*
D01*
G02X-25735Y12951I-151J0*
G01*
X-25735Y12951D01*
X-25799Y12951D01*
X-25799Y11683D01*
X-21643Y7528D01*
X-21607Y7491D01*
G75*
D01*
G02X-21109Y6993I407J-91*
G01*
X-21109Y6993D01*
X-21058Y6942D01*
G75*
D01*
G02X-20999Y6800I-142J-142*
G01*
X-20999Y6800D01*
X-20999Y6765D01*
G75*
D01*
G02X-21109Y5993I-201J-365*
G01*
X-21109Y5993D01*
X-21058Y5942D01*
G75*
D01*
G02X-20999Y5800I-142J-142*
G01*
X-20999Y5800D01*
X-20999Y5765D01*
G75*
D01*
G02X-21109Y4993I-201J-365*
G01*
X-21109Y4993D01*
X-21058Y4942D01*
G75*
D01*
G02X-20999Y4800I-142J-142*
G01*
X-20999Y4800D01*
X-20999Y4765D01*
G75*
D01*
G02X-21431Y4747I-201J-365*
G01*
X-21431Y4747D01*
X-24212Y7528D01*
X-24533Y7849D01*
X-27249Y7849D01*
G74*
D01*
G02X-27337Y7821I88J122*
G01*
X-27337Y7821D01*
X-27573Y7821D01*
G75*
D01*
G02X-27724Y7971I0J150*
G01*
X-27724Y7971D01*
X-27724Y8129D01*
G75*
D01*
G02X-27573Y8279I151J0*
G01*
X-27573Y8279D01*
X-27337Y8279D01*
G74*
D01*
G02X-27249Y8251I0J150*
G01*
X-27249Y8251D01*
X-24450Y8251D01*
G74*
D01*
G02X-24401Y8245I0J201*
G01*
G74*
D01*
G02X-24308Y8192I49J195*
G01*
X-24308Y8192D01*
X-23643Y7528D01*
X-21607Y5491D01*
G74*
D01*
G02X-21431Y5747I407J91*
G01*
X-21431Y5747D01*
X-23212Y7528D01*
X-25164Y9480D01*
X-25164Y9128D01*
G75*
D01*
G02X-25235Y9000I-151J0*
G01*
G74*
D01*
G02X-25164Y8872I80J128*
G01*
X-25164Y8872D01*
X-25164Y8419D01*
G75*
D01*
G02X-25315Y8269I-151J0*
G01*
X-25315Y8269D01*
X-25885Y8269D01*
G75*
D01*
G02X-26036Y8419I0J150*
G01*
X-26036Y8419D01*
X-26036Y8445D01*
X-27189Y8445D01*
G74*
D01*
G02X-27337Y8321I148J26*
G01*
X-27337Y8321D01*
X-27573Y8321D01*
G75*
D01*
G02X-27724Y8471I0J150*
G01*
X-27724Y8471D01*
X-27724Y8599D01*
X-28149Y8599D01*
X-28149Y8050D01*
G75*
D01*
G02X-28350Y7849I-201J0*
G01*
X-28350Y7849D01*
X-29139Y7849D01*
G74*
D01*
G02X-29227Y7821I88J122*
G01*
X-29227Y7821D01*
X-29463Y7821D01*
G75*
D01*
G02X-29614Y7971I0J150*
G01*
X-29614Y7971D01*
X-29614Y8129D01*
G75*
D01*
G02X-29463Y8279I151J0*
G01*
X-29463Y8279D01*
X-29227Y8279D01*
G74*
D01*
G02X-29139Y8251I0J150*
G01*
X-29139Y8251D01*
X-28551Y8251D01*
X-28551Y8599D01*
X-29076Y8599D01*
X-29076Y8471D01*
G75*
D01*
G02X-29227Y8321I-151J0*
G01*
X-29227Y8321D01*
X-29463Y8321D01*
G75*
D01*
G02X-29614Y8471I0J150*
G01*
X-29614Y8471D01*
X-29614Y8574D01*
X-34012Y8574D01*
X-34199Y8387D01*
X-34199Y6001D01*
X-33783Y6001D01*
G75*
D01*
G02X-33783Y5599I283J-201*
G01*
X-33783Y5599D01*
X-34199Y5599D01*
X-34199Y5301D01*
X-26463Y5301D01*
G75*
D01*
G02X-26323Y5398I140J-54*
G01*
X-26323Y5398D01*
X-25890Y5398D01*
G74*
D01*
G02X-25764Y5330I0J151*
G01*
X-25764Y5330D01*
X-25729Y5330D01*
G74*
D01*
G02X-25682Y5325I0J201*
G01*
G74*
D01*
G02X-25587Y5271I47J196*
G01*
X-25587Y5271D01*
X-25371Y5055D01*
X-25371Y5253D01*
G75*
D01*
G02X-25220Y5404I151J0*
G01*
X-25220Y5404D01*
X-24787Y5404D01*
G74*
D01*
G02X-24661Y5336I0J151*
G01*
X-24661Y5336D01*
X-22935Y5336D01*
G75*
D01*
G02X-22793Y5277I0J-201*
G01*
X-22793Y5277D01*
X-21316Y3800D01*
G75*
D01*
G02X-21600Y3516I116J-400*
G01*
X-21600Y3516D01*
X-23018Y4934D01*
X-24649Y4934D01*
G74*
D01*
G02X-24637Y4875I138J61*
G01*
X-24637Y4875D01*
X-24293Y4531D01*
X-23915Y4531D01*
G74*
D01*
G02X-23764Y4381I0J150*
G01*
X-23764Y4381D01*
X-23764Y3928D01*
G75*
D01*
G02X-23835Y3800I-151J0*
G01*
G74*
D01*
G02X-23764Y3672I80J128*
G01*
X-23764Y3672D01*
X-23764Y3579D01*
X-24066Y3579D01*
X-24066Y3777D01*
X-24334Y3777D01*
X-24334Y3579D01*
X-24636Y3579D01*
X-24636Y3672D01*
G74*
D01*
G02X-24565Y3800I151J0*
G01*
G75*
D01*
G02X-24636Y3928I80J128*
G01*
X-24636Y3928D01*
X-24636Y4306D01*
X-24637Y4307D01*
X-24637Y4257D01*
G75*
D01*
G02X-24787Y4106I-150J0*
G01*
X-24787Y4106D01*
X-25220Y4106D01*
G75*
D01*
G02X-25346Y4174I0J151*
G01*
X-25346Y4174D01*
X-25475Y4174D01*
G75*
D01*
G02X-25617Y4233I0J201*
G01*
X-25617Y4233D01*
X-25861Y4476D01*
X-26011Y4476D01*
X-26011Y4549D01*
X-26202Y4549D01*
X-26202Y4476D01*
X-26473Y4476D01*
X-26473Y4499D01*
G74*
D01*
G02X-26465Y4549I150J0*
G01*
X-26465Y4549D01*
X-34250Y4549D01*
G75*
D01*
G02X-34392Y4608I0J201*
G01*
X-34392Y4608D01*
X-34792Y5008D01*
G75*
D01*
G02X-34851Y5150I142J142*
G01*
X-34851Y5150D01*
X-34851Y11850D01*
G74*
D01*
G02X-34792Y11992I201J0*
G01*
X-34792Y11992D01*
X-34692Y12092D01*
G74*
D01*
G02X-34622Y12138I142J142*
G01*
G75*
D01*
G02X-34550Y12151I72J-188*
G01*
X-34550Y12151D01*
X-30133Y12151D01*
X-28162Y14122D01*
G74*
D01*
G02X-28022Y14181I142J142*
G01*
X-28020Y14181D01*
X-28020Y14181D01*
X-26294Y14181D01*
G75*
D01*
G02X-26168Y14249I126J-83*
G01*
X-26168Y14249D01*
X-26152Y14249D01*
X-26152Y14351D01*
G74*
D01*
G02X-26093Y14493I201J0*
G01*
X-26093Y14493D01*
X-23610Y16976D01*
X-20934Y19652D01*
G74*
D01*
G02X-20802Y19711I142J142*
G01*
G75*
D01*
G02X-20791Y19711I10J-201*
G01*
X-20791Y19711D01*
X-16610Y19711D01*
G74*
D01*
G02X-16593Y19711I0J201*
G01*
G74*
D01*
G02X-16468Y19652I17J201*
G01*
X-16468Y19652D01*
X-15458Y18642D01*
G75*
D01*
G02X-15399Y18499I-142J-142*
G01*
X-15399Y18499D01*
X-15399Y17225D01*
G75*
D01*
G02X-15381Y17226I18J-149*
G01*
X-15381Y17226D01*
X-14967Y17226D01*
G74*
D01*
G02X-14817Y17076I0J150*
G01*
X-14817Y17076D01*
X-14817Y16524D01*
G75*
D01*
G02X-14967Y16374I-150J0*
G01*
X-14967Y16374D01*
X-14973Y16374D01*
X-14973Y13257D01*
X-14717Y13001D01*
X-10692Y13001D01*
G75*
D01*
G02X-10752Y13196I288J195*
G01*
X-10752Y13196D01*
X-10752Y13404D01*
G75*
D01*
G02X-10404Y13752I348J0*
G01*
X-10404Y13752D01*
X-10196Y13752D01*
G74*
D01*
G02X-9848Y13404I0J348*
G01*
X-9848Y13404D01*
X-9848Y13196D01*
G75*
D01*
G02X-9908Y13001I-348J0*
G01*
X-9908Y13001D01*
X-9658Y13001D01*
G74*
D01*
G02X-9736Y13135I358J299*
G01*
X-9736Y13135D01*
X-9465Y13135D01*
X-9465Y13001D01*
X-9135Y13001D01*
X-9135Y13135D01*
X-8864Y13135D01*
G74*
D01*
G02X-8942Y13001I436J165*
G01*
X-8942Y13001D01*
X-8658Y13001D01*
G75*
D01*
G02X-8099Y12879I358J299*
G01*
X-8099Y12879D01*
X-8099Y12830D01*
G75*
D01*
G02X-8101Y12801I-201J-1*
G01*
X-8101Y12801D01*
X-3030Y12801D01*
G75*
D01*
G02X-2887Y12742I1J-201*
G01*
X-2887Y12742D01*
X-2558Y12413D01*
G74*
D01*
G02X-2551Y12406I142J142*
G01*
X-2551Y12406D01*
X-2551Y16171D01*
G74*
D01*
G02X-2492Y16313I201J0*
G01*
X-2492Y16313D01*
X-2463Y16342D01*
G74*
D01*
G02X-2371Y16394I142J142*
G01*
G75*
D01*
G02X-2320Y16401I50J-194*
G01*
X-2320Y16401D01*
X13117Y16401D01*
X13692Y16976D01*
X15160Y18444D01*
G75*
D01*
G02X15444Y18160I440J156*
G01*
X15444Y18160D01*
X13342Y16058D01*
G74*
D01*
G02X13200Y15999I142J142*
G01*
X13200Y15999D01*
X-2149Y15999D01*
X-2149Y15799D01*
G75*
D01*
G02X-2120Y15801I28J-199*
G01*
X-2120Y15801D01*
X14571Y15801D01*
G74*
D01*
G02X14713Y15742I0J201*
G01*
X14713Y15742D01*
X15423Y15032D01*
G75*
D01*
G02X15153Y14734I177J-432*
G01*
D02*
G37*
G36*
X26252Y16976D02*
G75*
D01*
G02X26252Y16976I-1012J164*
G01*
D02*
G37*
G36*
X-7447Y12857D02*
G75*
D01*
G02X-7447Y12857I147J443*
G01*
D02*
G37*
G36*
X30476Y1983D02*
G74*
D01*
G02X30626Y1833I0J150*
G01*
X30626Y1833D01*
X30626Y1753D01*
X30327Y1753D01*
X30327Y1983D01*
X30476Y1983D01*
D02*
G37*
G36*
X30626Y1419D02*
G75*
D01*
G02X30476Y1269I-150J0*
G01*
X30476Y1269D01*
X30327Y1269D01*
X30327Y1499D01*
X30626Y1499D01*
X30626Y1419D01*
D02*
G37*
G36*
X27579Y-3299D02*
G75*
D01*
G02X27579Y-3701I421J-201*
G01*
X27579Y-3701D01*
X27401Y-3701D01*
X27401Y-7617D01*
G75*
D01*
G02X26999Y-7617I-201J-283*
G01*
X26999Y-7617D01*
X26999Y-3471D01*
X26999Y-3470D01*
X26999Y-3470D01*
X26999Y-500D01*
G75*
D01*
G02X27058Y-358I201J0*
G01*
X27058Y-358D01*
X29774Y2358D01*
X29774Y2581D01*
G75*
D01*
G02X29924Y2731I150J0*
G01*
X29924Y2731D01*
X30476Y2731D01*
G74*
D01*
G02X30626Y2581I0J150*
G01*
X30626Y2581D01*
X30626Y2167D01*
G75*
D01*
G02X30476Y2017I-150J0*
G01*
X30476Y2017D01*
X30001Y2017D01*
X29968Y1983D01*
X30073Y1983D01*
X30073Y1753D01*
X29774Y1753D01*
X29774Y1789D01*
X27401Y-583D01*
X27401Y-3299D01*
X27579Y-3299D01*
D02*
G37*
G36*
X26301Y-5710D02*
G75*
D01*
G02X25899Y-5710I-201J-490*
G01*
X25899Y-5710D01*
X25899Y8010D01*
G75*
D01*
G02X26301Y8010I201J490*
G01*
X26301Y8010D01*
X26301Y-5710D01*
D02*
G37*
G36*
X33401Y-9029D02*
X33401Y-9029D01*
X33401Y-12171D01*
G75*
D01*
G02X33342Y-12313I-201J0*
G01*
X33342Y-12313D01*
X33313Y-12342D01*
G74*
D01*
G02X33221Y-12394I142J142*
G01*
G75*
D01*
G02X33170Y-12401I-50J194*
G01*
X33170Y-12401D01*
X29583Y-12401D01*
X26601Y-15383D01*
X26601Y-18371D01*
G75*
D01*
G02X26542Y-18513I-201J0*
G01*
X26542Y-18513D01*
X26513Y-18542D01*
G74*
D01*
G02X26371Y-18601I142J142*
G01*
X26371Y-18601D01*
X25323Y-18601D01*
X24682Y-19242D01*
G74*
D01*
G02X24540Y-19301I142J142*
G01*
X24540Y-19301D01*
X-2071Y-19301D01*
G75*
D01*
G02X-2082Y-19301I0J201*
G01*
G74*
D01*
G02X-2213Y-19242I11J201*
G01*
X-2213Y-19242D01*
X-2442Y-19013D01*
G75*
D01*
G02X-2501Y-18871I142J142*
G01*
X-2501Y-18871D01*
X-2501Y-14283D01*
X-3387Y-13397D01*
X-6658Y-13397D01*
G74*
D01*
G02X-6992Y-13648I334J96*
G01*
X-6992Y-13648D01*
X-7200Y-13648D01*
G75*
D01*
G02X-7548Y-13301I0J347*
G01*
X-7548Y-13301D01*
X-7548Y-13092D01*
G75*
D01*
G02X-7200Y-12745I348J0*
G01*
X-7200Y-12745D01*
X-6992Y-12745D01*
G74*
D01*
G02X-6658Y-12995I0J347*
G01*
X-6658Y-12995D01*
X-6389Y-12995D01*
X-9583Y-9801D01*
X-11835Y-9801D01*
G75*
D01*
G02X-11835Y-9399I-365J201*
G01*
X-11835Y-9399D01*
X-9500Y-9399D01*
X-9500Y-9399D01*
X-9500Y-9399D01*
X-9472Y-9399D01*
G74*
D01*
G02X-9282Y-9533I0J201*
G01*
X-9282Y-9533D01*
X-5820Y-12995D01*
X-4997Y-12995D01*
X-4997Y-6200D01*
G75*
D01*
G02X-4796Y-5999I201J0*
G01*
X-4796Y-5999D01*
X-3190Y-5999D01*
G75*
D01*
G02X-3190Y-6401I490J-201*
G01*
X-3190Y-6401D01*
X-4595Y-6401D01*
X-4595Y-12995D01*
X-3304Y-12995D01*
G74*
D01*
G02X-3161Y-13055I0J201*
G01*
X-3161Y-13055D01*
X-2158Y-14058D01*
G75*
D01*
G02X-2099Y-14201I-142J-142*
G01*
X-2099Y-14201D01*
X-2099Y-18787D01*
X-1987Y-18899D01*
X24457Y-18899D01*
X25039Y-18317D01*
X25039Y-18145D01*
G75*
D01*
G02X26199Y-16778I201J1005*
G01*
X26199Y-16778D01*
X26199Y-15300D01*
G75*
D01*
G02X26258Y-15158I201J0*
G01*
X26258Y-15158D01*
X29358Y-12058D01*
G74*
D01*
G02X29432Y-12011I142J142*
G01*
G75*
D01*
G02X29500Y-11999I68J-189*
G01*
X29500Y-11999D01*
X32999Y-11999D01*
X32999Y-11400D01*
G75*
D01*
G02X32999Y-10380I-889J510*
G01*
X32999Y-10380D01*
X32999Y-9201D01*
X29300Y-9201D01*
G75*
D01*
G02X29158Y-9142I0J201*
G01*
X29158Y-9142D01*
X28817Y-8801D01*
X26900Y-8801D01*
G75*
D01*
G02X26758Y-8742I0J201*
G01*
X26758Y-8742D01*
X24530Y-6515D01*
X22457Y-6515D01*
G75*
D01*
G02X22457Y-6113I-365J201*
G01*
X22457Y-6113D01*
X24614Y-6113D01*
G74*
D01*
G02X24756Y-6172I0J201*
G01*
X24756Y-6172D01*
X26983Y-8399D01*
X28415Y-8399D01*
X27858Y-7842D01*
G75*
D01*
G02X27799Y-7700I142J142*
G01*
X27799Y-7700D01*
X27799Y-5938D01*
G75*
D01*
G02X27548Y-5604I97J334*
G01*
X27548Y-5604D01*
X27548Y-5396D01*
G75*
D01*
G02X27896Y-5048I348J0*
G01*
X27896Y-5048D01*
X28104Y-5048D01*
G74*
D01*
G02X28452Y-5396I0J348*
G01*
X28452Y-5396D01*
X28452Y-5604D01*
G75*
D01*
G02X28201Y-5938I-348J0*
G01*
X28201Y-5938D01*
X28201Y-7617D01*
X29042Y-8458D01*
X29042Y-8458D01*
X29042Y-8458D01*
X29383Y-8799D01*
X33171Y-8799D01*
G74*
D01*
G02X33313Y-8858I0J201*
G01*
X33313Y-8858D01*
X33342Y-8887D01*
G74*
D01*
G02X33401Y-9029I142J142*
G01*
D02*
G37*
G36*
X-14069Y17076D02*
X-14069Y17076D01*
X-14069Y16927D01*
X-14299Y16927D01*
X-14299Y17226D01*
X-14219Y17226D01*
G74*
D01*
G02X-14069Y17076I0J150*
G01*
D02*
G37*
G36*
X-14633Y17226D02*
X-14633Y17226D01*
X-14553Y17226D01*
X-14553Y16927D01*
X-14783Y16927D01*
X-14783Y17076D01*
G75*
D01*
G02X-14633Y17226I150J0*
G01*
D02*
G37*
G36*
X21209Y-529D02*
X21209Y-529D01*
X21209Y-15980D01*
G74*
D01*
G02X21883Y-15311I883J215*
G01*
G75*
D01*
G02X22313Y-15314I217J356*
G01*
G75*
D01*
G02X21209Y-16411I-221J-881*
G01*
X21209Y-16411D01*
X21209Y-16671D01*
G75*
D01*
G02X21058Y-16822I-151J0*
G01*
X21058Y-16822D01*
X3342Y-16822D01*
G75*
D01*
G02X3191Y-16671I0J151*
G01*
X3191Y-16671D01*
X3191Y-529D01*
G75*
D01*
G02X3342Y-378I151J0*
G01*
X3342Y-378D01*
X21058Y-378D01*
G74*
D01*
G02X21209Y-529I0J151*
G01*
D02*
G37*
G36*
X22233Y-1921D02*
G75*
D01*
G02X22233Y-1921I-141J-393*
G01*
D02*
G37*
G36*
X22058Y-11370D02*
G75*
D01*
G02X22058Y-11370I42J415*
G01*
D02*
G37*
G36*
X-24228Y16976D02*
G75*
D01*
G02X-24228Y16976I-1012J164*
G01*
D02*
G37*
G36*
X-26100Y-801D02*
G75*
D01*
G02X-26242Y-742I0J201*
G01*
X-26242Y-742D01*
X-26345Y-639D01*
X-26345Y-639D01*
X-29609Y2625D01*
X-32974Y2625D01*
X-32974Y2619D01*
G75*
D01*
G02X-33124Y2469I-150J0*
G01*
X-33124Y2469D01*
X-33676Y2469D01*
G75*
D01*
G02X-33826Y2619I0J150*
G01*
X-33826Y2619D01*
X-33826Y3033D01*
G75*
D01*
G02X-33676Y3183I150J0*
G01*
X-33676Y3183D01*
X-33124Y3183D01*
G74*
D01*
G02X-32974Y3033I0J150*
G01*
X-32974Y3033D01*
X-32974Y3027D01*
X-29526Y3027D01*
G75*
D01*
G02X-29384Y2968I0J-201*
G01*
X-29384Y2968D01*
X-26017Y-399D01*
X-23800Y-399D01*
X-23800Y-399D01*
X-23800Y-399D01*
X-21565Y-399D01*
G75*
D01*
G02X-21565Y-801I365J-201*
G01*
X-21565Y-801D01*
X-23717Y-801D01*
X-24837Y-1921D01*
X-24837Y-1921D01*
X-26345Y-3429D01*
X-27058Y-4142D01*
G74*
D01*
G02X-27179Y-4200I142J142*
G01*
G74*
D01*
G02X-27200Y-4201I21J200*
G01*
X-27200Y-4201D01*
X-27379Y-4201D01*
G75*
D01*
G02X-27379Y-3799I-421J201*
G01*
X-27379Y-3799D01*
X-27283Y-3799D01*
X-26345Y-2861D01*
X-25405Y-1921D01*
X-25405Y-1921D01*
X-24285Y-801D01*
X-26100Y-801D01*
D02*
G37*
G36*
X-28252Y-2104D02*
X-28252Y-2104D01*
X-28252Y-1896D01*
G75*
D01*
G02X-27904Y-1548I348J0*
G01*
X-27904Y-1548D01*
X-27696Y-1548D01*
G74*
D01*
G02X-27348Y-1896I0J348*
G01*
X-27348Y-1896D01*
X-27348Y-2104D01*
G75*
D01*
G02X-27696Y-2452I-348J0*
G01*
X-27696Y-2452D01*
X-27904Y-2452D01*
G75*
D01*
G02X-28252Y-2104I0J348*
G01*
D02*
G37*
G36*
X-26323Y4112D02*
G75*
D01*
G02X-26473Y4263I0J151*
G01*
X-26473Y4263D01*
X-26473Y4286D01*
X-26202Y4286D01*
X-26202Y4112D01*
X-26323Y4112D01*
D02*
G37*
G36*
X-31105Y-10689D02*
X-31105Y-10689D01*
X-27601Y-10689D01*
X-27601Y-8683D01*
G75*
D01*
G02X-27199Y-8683I201J283*
G01*
X-27199Y-8683D01*
X-27199Y-14499D01*
X-20590Y-14499D01*
G75*
D01*
G02X-20590Y-14901I490J-201*
G01*
X-20590Y-14901D01*
X-27400Y-14901D01*
G75*
D01*
G02X-27601Y-14700I0J201*
G01*
X-27601Y-14700D01*
X-27601Y-11091D01*
X-31105Y-11091D01*
G75*
D01*
G02X-31105Y-10689I-1005J201*
G01*
D02*
G37*
G36*
X-25858Y-5142D02*
G74*
D01*
G02X-25979Y-5200I142J142*
G01*
G74*
D01*
G02X-26000Y-5201I21J200*
G01*
X-26000Y-5201D01*
X-27379Y-5201D01*
G75*
D01*
G02X-27379Y-4799I-421J201*
G01*
X-27379Y-4799D01*
X-26083Y-4799D01*
X-23205Y-1921D01*
X-23205Y-1921D01*
X-22742Y-1458D01*
G75*
D01*
G02X-22600Y-1399I142J-142*
G01*
X-22600Y-1399D01*
X-21565Y-1399D01*
G75*
D01*
G02X-21565Y-1801I365J-201*
G01*
X-21565Y-1801D01*
X-22517Y-1801D01*
X-22637Y-1921D01*
X-22637Y-1921D01*
X-25858Y-5142D01*
D02*
G37*
G36*
X-18858Y-13358D02*
G75*
D01*
G02X-18799Y-13500I-142J-142*
G01*
X-18799Y-13500D01*
X-18799Y-17187D01*
X-16896Y-19090D01*
X-16896Y-19090D01*
X-16632Y-19355D01*
G75*
D01*
G02X-16937Y-19618I32J-345*
G01*
X-16937Y-19618D01*
X-19142Y-17413D01*
G75*
D01*
G02X-19201Y-17271I142J142*
G01*
X-19201Y-17271D01*
X-19201Y-13583D01*
X-20142Y-12642D01*
G75*
D01*
G02X-20201Y-12500I142J142*
G01*
X-20201Y-12500D01*
X-20201Y-10936D01*
G75*
D01*
G02X-20201Y-10664I-699J136*
G01*
X-20201Y-10664D01*
X-20201Y117D01*
X-21084Y1000D01*
G75*
D01*
G02X-20800Y1284I-116J400*
G01*
X-20800Y1284D01*
X-19858Y342D01*
G74*
D01*
G02X-19801Y228I142J142*
G01*
X-19801Y228D01*
X-19801Y717D01*
X-21084Y2000D01*
G75*
D01*
G02X-20800Y2284I-116J400*
G01*
X-20800Y2284D01*
X-19458Y942D01*
G75*
D01*
G02X-19399Y800I-142J-142*
G01*
X-19399Y800D01*
X-19399Y-10917D01*
X-16587Y-13728D01*
X-13383Y-13728D01*
X-12242Y-12587D01*
G75*
D01*
G02X-12100Y-12528I142J-142*
G01*
X-12100Y-12528D01*
X-9564Y-12528D01*
G75*
D01*
G02X-9421Y-12587I1J-201*
G01*
X-9421Y-12587D01*
X-9252Y-12756D01*
G75*
D01*
G02X-9536Y-13041I156J-440*
G01*
X-9536Y-13041D01*
X-9647Y-12930D01*
X-9713Y-12930D01*
G75*
D01*
G02X-10480Y-12930I-383J-266*
G01*
X-10480Y-12930D01*
X-12017Y-12930D01*
X-13114Y-14027D01*
X-13114Y-17595D01*
G75*
D01*
G02X-13158Y-17813I-186J-76*
G01*
X-13158Y-17813D01*
X-13187Y-17842D01*
G75*
D01*
G02X-13330Y-17901I-142J142*
G01*
X-13330Y-17901D01*
X-14917Y-17901D01*
X-15189Y-18174D01*
X-15153Y-18174D01*
X-15153Y-18473D01*
X-15383Y-18473D01*
X-15383Y-18368D01*
X-15417Y-18401D01*
X-15417Y-18876D01*
G75*
D01*
G02X-15567Y-19026I-150J0*
G01*
X-15567Y-19026D01*
X-15981Y-19026D01*
G75*
D01*
G02X-16131Y-18876I0J150*
G01*
X-16131Y-18876D01*
X-16131Y-18324D01*
G75*
D01*
G02X-15981Y-18174I150J0*
G01*
X-15981Y-18174D01*
X-15758Y-18174D01*
X-15142Y-17558D01*
G75*
D01*
G02X-15000Y-17499I142J-142*
G01*
X-15000Y-17499D01*
X-13516Y-17499D01*
X-13516Y-14130D01*
X-16671Y-14130D01*
G75*
D01*
G02X-16813Y-14071I0J201*
G01*
X-16813Y-14071D01*
X-19514Y-11370D01*
X-19742Y-11142D01*
G74*
D01*
G02X-19799Y-11028I142J142*
G01*
X-19799Y-11028D01*
X-19799Y-12417D01*
X-18858Y-13358D01*
D02*
G37*
G36*
X-12741Y-10175D02*
G75*
D01*
G02X-13025Y-10459I341J-625*
G01*
X-13025Y-10459D01*
X-16896Y-6588D01*
X-18642Y-4842D01*
G75*
D01*
G02X-18701Y-4700I142J142*
G01*
X-18701Y-4700D01*
X-18701Y9399D01*
X-20217Y9399D01*
G75*
D01*
G02X-20217Y9801I-683J201*
G01*
X-20217Y9801D01*
X-13083Y9801D01*
G75*
D01*
G02X-13083Y9399I683J-201*
G01*
X-13083Y9399D01*
X-18299Y9399D01*
X-18299Y-4617D01*
X-12741Y-10175D01*
D02*
G37*
G36*
X-12466Y-1921D02*
G75*
D01*
G02X-12466Y-1921I266J321*
G01*
D02*
G37*
G36*
X-9724Y531D02*
G74*
D01*
G02X-9574Y381I0J150*
G01*
X-9574Y381D01*
X-9574Y-33D01*
G75*
D01*
G02X-9724Y-183I-150J0*
G01*
X-9724Y-183D01*
X-10276Y-183D01*
G75*
D01*
G02X-10426Y-33I0J150*
G01*
X-10426Y-33D01*
X-10426Y381D01*
G75*
D01*
G02X-10276Y531I150J0*
G01*
X-10276Y531D01*
X-10201Y531D01*
X-10201Y1469D01*
X-10276Y1469D01*
G75*
D01*
G02X-10426Y1619I0J150*
G01*
X-10426Y1619D01*
X-10426Y1625D01*
X-10574Y1625D01*
G75*
D01*
G02X-10775Y1826I0J201*
G01*
X-10775Y1826D01*
X-10775Y3301D01*
G75*
D01*
G02X-10373Y3338I175J299*
G01*
X-10373Y3338D01*
X-10373Y2896D01*
G75*
D01*
G02X-10276Y2931I97J-115*
G01*
X-10276Y2931D01*
X-10101Y2931D01*
X-10101Y4853D01*
G75*
D01*
G02X-9699Y4853I201J247*
G01*
X-9699Y4853D01*
X-9699Y2929D01*
G74*
D01*
G02X-9574Y2781I25J148*
G01*
X-9574Y2781D01*
X-9574Y2367D01*
G75*
D01*
G02X-9724Y2217I-150J0*
G01*
X-9724Y2217D01*
X-10276Y2217D01*
G75*
D01*
G02X-10373Y2252I0J150*
G01*
X-10373Y2252D01*
X-10373Y2148D01*
G75*
D01*
G02X-10276Y2183I97J-115*
G01*
X-10276Y2183D01*
X-9724Y2183D01*
G74*
D01*
G02X-9574Y2033I0J150*
G01*
X-9574Y2033D01*
X-9574Y1619D01*
G75*
D01*
G02X-9724Y1469I-150J0*
G01*
X-9724Y1469D01*
X-9799Y1469D01*
X-9799Y1201D01*
X-7001Y1201D01*
X-7001Y1469D01*
X-7076Y1469D01*
G75*
D01*
G02X-7226Y1619I0J150*
G01*
X-7226Y1619D01*
X-7226Y2033D01*
G75*
D01*
G02X-7076Y2183I150J0*
G01*
X-7076Y2183D01*
X-6524Y2183D01*
G74*
D01*
G02X-6374Y2033I0J150*
G01*
X-6374Y2033D01*
X-6374Y1842D01*
G75*
D01*
G02X-6374Y1810I-200J-16*
G01*
X-6374Y1810D01*
X-6374Y1619D01*
G75*
D01*
G02X-6524Y1469I-150J0*
G01*
X-6524Y1469D01*
X-6599Y1469D01*
X-6599Y531D01*
X-6524Y531D01*
G74*
D01*
G02X-6374Y381I0J150*
G01*
X-6374Y381D01*
X-6374Y-33D01*
G75*
D01*
G02X-6524Y-183I-150J0*
G01*
X-6524Y-183D01*
X-7076Y-183D01*
G75*
D01*
G02X-7226Y-33I0J150*
G01*
X-7226Y-33D01*
X-7226Y381D01*
G75*
D01*
G02X-7076Y531I150J0*
G01*
X-7076Y531D01*
X-7001Y531D01*
X-7001Y799D01*
X-9799Y799D01*
X-9799Y531D01*
X-9724Y531D01*
D02*
G37*
G36*
X-7218Y-2700D02*
G75*
D01*
G02X-7218Y-2700I318J0*
G01*
D02*
G37*
G36*
X29774Y1419D02*
X29774Y1419D01*
X29774Y1499D01*
X30073Y1499D01*
X30073Y1269D01*
X29924Y1269D01*
G75*
D01*
G02X29774Y1419I0J150*
G01*
D02*
G37*
G36*
X-12617Y-2600D02*
G75*
D01*
G02X-12617Y-2600I417J0*
G01*
D02*
G37*
G36*
X-6699Y4853D02*
X-6699Y4853D01*
X-6699Y2931D01*
X-6524Y2931D01*
G74*
D01*
G02X-6374Y2781I0J150*
G01*
X-6374Y2781D01*
X-6374Y2367D01*
G75*
D01*
G02X-6524Y2217I-150J0*
G01*
X-6524Y2217D01*
X-7076Y2217D01*
G75*
D01*
G02X-7226Y2367I0J150*
G01*
X-7226Y2367D01*
X-7226Y2781D01*
G74*
D01*
G02X-7101Y2929I150J0*
G01*
X-7101Y2929D01*
X-7101Y4853D01*
G75*
D01*
G02X-6699Y4853I201J247*
G01*
D02*
G37*
G36*
X-7218Y6100D02*
G75*
D01*
G02X-7218Y6100I318J0*
G01*
D02*
G37*
G36*
X21675Y-1314D02*
G75*
D01*
G02X21675Y-1314I417J0*
G01*
D02*
G37*
G36*
X-9475Y13300D02*
G75*
D01*
G02X-9475Y13300I175J0*
G01*
D02*
G37*
G36*
X-9736Y13465D02*
G74*
D01*
G02X-9465Y13736I436J165*
G01*
X-9465Y13736D01*
X-9465Y13465D01*
X-9736Y13465D01*
D02*
G37*
G36*
X-9135Y13736D02*
G74*
D01*
G02X-8864Y13465I165J436*
G01*
X-8864Y13465D01*
X-9135Y13465D01*
X-9135Y13736D01*
D02*
G37*
G36*
X-14219Y16374D02*
X-14219Y16374D01*
X-14299Y16374D01*
X-14299Y16673D01*
X-14069Y16673D01*
X-14069Y16524D01*
G75*
D01*
G02X-14219Y16374I-150J0*
G01*
D02*
G37*
G36*
X-14633Y16374D02*
G75*
D01*
G02X-14783Y16524I0J150*
G01*
X-14783Y16524D01*
X-14783Y16673D01*
X-14553Y16673D01*
X-14553Y16374D01*
X-14633Y16374D01*
D02*
G37*
G36*
X-12617Y8400D02*
G75*
D01*
G02X-12617Y8400I417J0*
G01*
D02*
G37*
G36*
X15133Y17600D02*
G75*
D01*
G02X15133Y17600I467J0*
G01*
D02*
G37*
G36*
X15704Y20052D02*
G74*
D01*
G02X16052Y19704I0J348*
G01*
X16052Y19704D01*
X16052Y19496D01*
G75*
D01*
G02X15704Y19148I-348J0*
G01*
X15704Y19148D01*
X15496Y19148D01*
G75*
D01*
G02X15148Y19496I0J348*
G01*
X15148Y19496D01*
X15148Y19704D01*
G75*
D01*
G02X15496Y20052I348J0*
G01*
X15496Y20052D01*
X15704Y20052D01*
D02*
G37*
G36*
X15133Y15600D02*
G75*
D01*
G02X15133Y15600I467J0*
G01*
D02*
G37*
G36*
X31085Y10890D02*
G75*
D01*
G02X31085Y10890I1025J0*
G01*
D02*
G37*
G36*
X4687Y11265D02*
G75*
D01*
G02X4687Y11265I909J0*
G01*
D02*
G37*
G36*
X-21617Y-9600D02*
G75*
D01*
G02X-21617Y-9600I417J0*
G01*
D02*
G37*
G36*
X-21617Y-8600D02*
G75*
D01*
G02X-21617Y-8600I417J0*
G01*
D02*
G37*
G36*
X-21617Y-7600D02*
G75*
D01*
G02X-21617Y-7600I417J0*
G01*
D02*
G37*
G36*
X-21617Y-6600D02*
G75*
D01*
G02X-21617Y-6600I417J0*
G01*
D02*
G37*
G36*
X-21617Y-5600D02*
G75*
D01*
G02X-21617Y-5600I417J0*
G01*
D02*
G37*
G36*
X-21617Y-4600D02*
G75*
D01*
G02X-21617Y-4600I417J0*
G01*
D02*
G37*
G36*
X-21617Y-3600D02*
G75*
D01*
G02X-21617Y-3600I417J0*
G01*
D02*
G37*
G36*
X-21617Y-2600D02*
G75*
D01*
G02X-21617Y-2600I417J0*
G01*
D02*
G37*
G36*
X-21617Y8400D02*
G75*
D01*
G02X-21617Y8400I417J0*
G01*
D02*
G37*
G36*
X21683Y-13955D02*
G75*
D01*
G02X21683Y-13955I417J0*
G01*
D02*
G37*
G36*
X21683Y-12955D02*
G75*
D01*
G02X21683Y-12955I417J0*
G01*
D02*
G37*
G36*
X21683Y-11955D02*
G75*
D01*
G02X21683Y-11955I417J0*
G01*
D02*
G37*
G36*
X-25890Y4112D02*
X-25890Y4112D01*
X-26011Y4112D01*
X-26011Y4286D01*
X-25739Y4286D01*
X-25739Y4263D01*
G75*
D01*
G02X-25890Y4112I-151J0*
G01*
D02*
G37*
G36*
X-23764Y3219D02*
G75*
D01*
G02X-23915Y3069I-151J0*
G01*
X-23915Y3069D01*
X-24066Y3069D01*
X-24066Y3312D01*
X-23764Y3312D01*
X-23764Y3219D01*
D02*
G37*
G36*
X-24636Y3219D02*
X-24636Y3219D01*
X-24636Y3312D01*
X-24334Y3312D01*
X-24334Y3069D01*
X-24485Y3069D01*
G75*
D01*
G02X-24636Y3219I0J150*
G01*
D02*
G37*
G36*
X-21617Y400D02*
G75*
D01*
G02X-21617Y400I417J0*
G01*
D02*
G37*
G36*
X-12617Y-8600D02*
G75*
D01*
G02X-12617Y-8600I417J0*
G01*
D02*
G37*
G36*
X-12617Y-7600D02*
G75*
D01*
G02X-12617Y-7600I417J0*
G01*
D02*
G37*
G36*
X-12617Y-6600D02*
G75*
D01*
G02X-12617Y-6600I417J0*
G01*
D02*
G37*
G36*
X27533Y-2500D02*
G75*
D01*
G02X27533Y-2500I467J0*
G01*
D02*
G37*
G36*
X21683Y-9955D02*
G75*
D01*
G02X21683Y-9955I417J0*
G01*
D02*
G37*
G36*
X21683Y-8955D02*
G75*
D01*
G02X21683Y-8955I417J0*
G01*
D02*
G37*
G36*
X21683Y-7955D02*
G75*
D01*
G02X21683Y-7955I417J0*
G01*
D02*
G37*
G36*
X21675Y-5314D02*
G75*
D01*
G02X21675Y-5314I417J0*
G01*
D02*
G37*
G36*
X21675Y-4314D02*
G75*
D01*
G02X21675Y-4314I417J0*
G01*
D02*
G37*
G36*
X28436Y-4665D02*
G74*
D01*
G02X28165Y-4936I436J165*
G01*
X28165Y-4936D01*
X28165Y-4665D01*
X28436Y-4665D01*
D02*
G37*
G36*
X27835Y-4936D02*
G74*
D01*
G02X27564Y-4665I165J436*
G01*
X27564Y-4665D01*
X27835Y-4665D01*
X27835Y-4936D01*
D02*
G37*
G36*
X28165Y-4064D02*
G74*
D01*
G02X28436Y-4335I165J436*
G01*
X28436Y-4335D01*
X28165Y-4335D01*
X28165Y-4064D01*
D02*
G37*
G36*
X27564Y-4335D02*
G74*
D01*
G02X27835Y-4064I436J165*
G01*
X27835Y-4064D01*
X27835Y-4335D01*
X27564Y-4335D01*
D02*
G37*
G36*
X27825Y-4500D02*
G75*
D01*
G02X27825Y-4500I175J0*
G01*
D02*
G37*
G36*
X-28236Y-2835D02*
G74*
D01*
G02X-27965Y-2564I436J165*
G01*
X-27965Y-2564D01*
X-27965Y-2835D01*
X-28236Y-2835D01*
D02*
G37*
G36*
X-27364Y-3165D02*
G74*
D01*
G02X-27635Y-3436I436J165*
G01*
X-27635Y-3436D01*
X-27635Y-3165D01*
X-27364Y-3165D01*
D02*
G37*
G36*
X-27975Y-3000D02*
G75*
D01*
G02X-27975Y-3000I175J0*
G01*
D02*
G37*
G36*
X-27965Y-3436D02*
G74*
D01*
G02X-28236Y-3165I165J436*
G01*
X-28236Y-3165D01*
X-27965Y-3165D01*
X-27965Y-3436D01*
D02*
G37*
G36*
X-27635Y-2564D02*
G74*
D01*
G02X-27364Y-2835I165J436*
G01*
X-27364Y-2835D01*
X-27635Y-2835D01*
X-27635Y-2564D01*
D02*
G37*
G36*
X-14669Y-18324D02*
X-14669Y-18324D01*
X-14669Y-18473D01*
X-14899Y-18473D01*
X-14899Y-18174D01*
X-14819Y-18174D01*
G74*
D01*
G02X-14669Y-18324I0J150*
G01*
D02*
G37*
G36*
X-15233Y-19026D02*
G75*
D01*
G02X-15383Y-18876I0J150*
G01*
X-15383Y-18876D01*
X-15383Y-18727D01*
X-15153Y-18727D01*
X-15153Y-19026D01*
X-15233Y-19026D01*
D02*
G37*
G36*
X-14819Y-19026D02*
X-14819Y-19026D01*
X-14899Y-19026D01*
X-14899Y-18727D01*
X-14669Y-18727D01*
X-14669Y-18876D01*
G75*
D01*
G02X-14819Y-19026I-150J0*
G01*
D02*
G37*
G36*
X-7660Y-13362D02*
G74*
D01*
G02X-7931Y-13633I436J166*
G01*
X-7931Y-13633D01*
X-7931Y-13362D01*
X-7660Y-13362D01*
D02*
G37*
G36*
X-8262Y-13633D02*
G74*
D01*
G02X-8533Y-13362I166J437*
G01*
X-8533Y-13362D01*
X-8262Y-13362D01*
X-8262Y-13633D01*
D02*
G37*
G36*
X-7931Y-12760D02*
G74*
D01*
G02X-7660Y-13031I165J436*
G01*
X-7660Y-13031D01*
X-7931Y-13031D01*
X-7931Y-12760D01*
D02*
G37*
G36*
X-8533Y-13031D02*
G74*
D01*
G02X-8262Y-12760I437J165*
G01*
X-8262Y-12760D01*
X-8262Y-13031D01*
X-8533Y-13031D01*
D02*
G37*
G36*
X-8271Y-13196D02*
G75*
D01*
G02X-8271Y-13196I175J0*
G01*
D02*
G37*
G36*
X-32974Y3781D02*
X-32974Y3781D01*
X-32974Y3701D01*
X-33273Y3701D01*
X-33273Y3931D01*
X-33124Y3931D01*
G74*
D01*
G02X-32974Y3781I0J150*
G01*
D02*
G37*
G36*
X-32974Y3367D02*
G75*
D01*
G02X-33124Y3217I-150J0*
G01*
X-33124Y3217D01*
X-33273Y3217D01*
X-33273Y3447D01*
X-32974Y3447D01*
X-32974Y3367D01*
D02*
G37*
G36*
X-33826Y3367D02*
X-33826Y3367D01*
X-33826Y3447D01*
X-33527Y3447D01*
X-33527Y3217D01*
X-33676Y3217D01*
G75*
D01*
G02X-33826Y3367I0J150*
G01*
D02*
G37*
G36*
X-33676Y3931D02*
X-33676Y3931D01*
X-33527Y3931D01*
X-33527Y3701D01*
X-33826Y3701D01*
X-33826Y3781D01*
G75*
D01*
G02X-33676Y3931I150J0*
G01*
D02*
G37*
G36*
X-26265Y-17140D02*
G75*
D01*
G02X-26265Y-17140I1025J0*
G01*
D02*
G37*
G36*
X2277Y5027D02*
G75*
D01*
G02X2277Y5027I347J0*
G01*
D02*
G37*
G36*
X-12617Y400D02*
G75*
D01*
G02X-12617Y400I417J0*
G01*
D02*
G37*
G36*
X-12617Y1400D02*
G75*
D01*
G02X-12617Y1400I417J0*
G01*
D02*
G37*
G36*
X-12617Y2400D02*
G75*
D01*
G02X-12617Y2400I417J0*
G01*
D02*
G37*
G36*
X-12617Y3400D02*
G75*
D01*
G02X-12617Y3400I417J0*
G01*
D02*
G37*
G36*
X-12617Y4400D02*
G75*
D01*
G02X-12617Y4400I417J0*
G01*
D02*
G37*
G36*
X-12617Y5400D02*
G75*
D01*
G02X-12617Y5400I417J0*
G01*
D02*
G37*
G36*
X-12617Y6400D02*
G75*
D01*
G02X-12617Y6400I417J0*
G01*
D02*
G37*
%LPD*%
G36*
X-17132Y14816D02*
X-17132Y14816D01*
X-15801Y13485D01*
X-15801Y18417D01*
X-16694Y19309D01*
X-20708Y19309D01*
X-25750Y14267D01*
X-25750Y14249D01*
X-25735Y14249D01*
G74*
D01*
G02X-25584Y14098I0J151*
G01*
X-25584Y14098D01*
X-25584Y13862D01*
G75*
D01*
G02X-25602Y13790I-151J0*
G01*
G74*
D01*
G02X-25587Y13750I133J72*
G01*
X-25587Y13750D01*
X-25172Y13750D01*
G75*
D01*
G02X-25216Y13856I107J106*
G01*
X-25216Y13856D01*
X-25216Y14092D01*
G75*
D01*
G02X-25065Y14243I151J0*
G01*
X-25065Y14243D01*
X-24864Y14243D01*
X-24291Y14816D01*
G74*
D01*
G02X-24167Y14874I142J142*
G01*
G75*
D01*
G02X-24149Y14875I18J-200*
G01*
X-24149Y14875D01*
X-17274Y14875D01*
G75*
D01*
G02X-17132Y14816I0J-201*
G01*
D02*
G37*
G36*
X-26712Y9349D02*
G75*
D01*
G03X-26117Y9299I312J151*
G01*
X-26117Y9299D01*
X-26036Y9299D01*
X-26036Y9128D01*
G75*
D01*
G03X-25965Y9000I151J0*
G01*
G74*
D01*
G03X-26036Y8872I80J128*
G01*
X-26036Y8872D01*
X-26036Y8847D01*
X-27186Y8847D01*
X-27186Y9129D01*
G74*
D01*
G03X-27337Y9279I151J0*
G01*
X-27337Y9279D01*
X-27573Y9279D01*
G75*
D01*
G03X-27724Y9129I0J-150*
G01*
X-27724Y9129D01*
X-27724Y9001D01*
X-28149Y9001D01*
X-28149Y10999D01*
X-27724Y10999D01*
X-27724Y10871D01*
G75*
D01*
G03X-27573Y10721I151J0*
G01*
X-27573Y10721D01*
X-27337Y10721D01*
G75*
D01*
G03X-27186Y10871I0J150*
G01*
X-27186Y10871D01*
X-27186Y10999D01*
X-26655Y10999D01*
G74*
D01*
G03X-26589Y11010I0J201*
G01*
G74*
D01*
G03X-26513Y11058I66J190*
G01*
X-26513Y11058D01*
X-26345Y11226D01*
X-26345Y11226D01*
X-26208Y11363D01*
G74*
D01*
G03X-26152Y11469I142J142*
G01*
G74*
D01*
G03X-26142Y11458I152J131*
G01*
X-26142Y11458D01*
X-22212Y7528D01*
X-21431Y6747D01*
G74*
D01*
G03X-21607Y6491I231J347*
G01*
X-21607Y6491D01*
X-25708Y10592D01*
G74*
D01*
G03X-25826Y10650I142J142*
G01*
G74*
D01*
G03X-25850Y10651I24J200*
G01*
X-25850Y10651D01*
X-27249Y10651D01*
G74*
D01*
G03X-27337Y10679I88J122*
G01*
X-27337Y10679D01*
X-27573Y10679D01*
G75*
D01*
G03X-27724Y10529I0J-150*
G01*
X-27724Y10529D01*
X-27724Y10371D01*
G75*
D01*
G03X-27573Y10221I151J0*
G01*
X-27573Y10221D01*
X-27337Y10221D01*
G74*
D01*
G03X-27249Y10249I0J150*
G01*
X-27249Y10249D01*
X-25933Y10249D01*
X-25416Y9731D01*
X-25885Y9731D01*
G75*
D01*
G03X-25976Y9701I0J-150*
G01*
X-25976Y9701D01*
X-26117Y9701D01*
G75*
D01*
G03X-26639Y9751I-283J-201*
G01*
X-26639Y9751D01*
X-27249Y9751D01*
G74*
D01*
G03X-27337Y9779I88J122*
G01*
X-27337Y9779D01*
X-27573Y9779D01*
G75*
D01*
G03X-27724Y9629I0J-150*
G01*
X-27724Y9629D01*
X-27724Y9471D01*
G75*
D01*
G03X-27573Y9321I151J0*
G01*
X-27573Y9321D01*
X-27337Y9321D01*
G74*
D01*
G03X-27249Y9349I0J150*
G01*
X-27249Y9349D01*
X-26712Y9349D01*
D02*
G37*
G36*
X-27597Y13287D02*
X-27597Y13287D01*
X-27597Y13287D01*
X-27436Y13448D01*
X-27436Y13604D01*
G75*
D01*
G02X-27285Y13754I151J0*
G01*
X-27285Y13754D01*
X-26715Y13754D01*
G74*
D01*
G02X-26564Y13604I0J150*
G01*
X-26564Y13604D01*
X-26564Y13151D01*
G75*
D01*
G02X-26635Y13023I-151J0*
G01*
G74*
D01*
G02X-26564Y12895I80J128*
G01*
X-26564Y12895D01*
X-26564Y12442D01*
G75*
D01*
G02X-26715Y12291I-151J0*
G01*
X-26715Y12291D01*
X-26799Y12291D01*
X-26799Y11401D01*
X-26738Y11401D01*
X-26551Y11588D01*
X-26551Y13571D01*
G74*
D01*
G02X-26492Y13713I201J0*
G01*
X-26492Y13713D01*
X-26463Y13742D01*
G74*
D01*
G02X-26412Y13779I142J142*
G01*
X-26412Y13779D01*
X-27937Y13779D01*
X-29565Y12151D01*
X-29551Y12151D01*
G75*
D01*
G02X-29463Y12179I88J-122*
G01*
X-29463Y12179D01*
X-29227Y12179D01*
G74*
D01*
G02X-29076Y12029I0J150*
G01*
X-29076Y12029D01*
X-29076Y11871D01*
G75*
D01*
G02X-29227Y11721I-151J0*
G01*
X-29227Y11721D01*
X-29463Y11721D01*
G75*
D01*
G02X-29551Y11749I0J150*
G01*
X-29551Y11749D01*
X-31551Y11749D01*
G74*
D01*
G02X-31098Y11055I559J859*
G01*
X-31098Y11055D01*
X-29764Y11055D01*
X-29614Y11205D01*
X-29614Y11529D01*
G75*
D01*
G02X-29463Y11679I151J0*
G01*
X-29463Y11679D01*
X-29227Y11679D01*
G74*
D01*
G02X-29076Y11529I0J150*
G01*
X-29076Y11529D01*
X-29076Y11401D01*
X-27724Y11401D01*
X-27724Y11529D01*
G75*
D01*
G02X-27573Y11679I151J0*
G01*
X-27573Y11679D01*
X-27337Y11679D01*
G74*
D01*
G02X-27201Y11594I0J150*
G01*
X-27201Y11594D01*
X-27201Y11806D01*
G74*
D01*
G02X-27337Y11721I136J65*
G01*
X-27337Y11721D01*
X-27573Y11721D01*
G75*
D01*
G02X-27724Y11871I0J150*
G01*
X-27724Y11871D01*
X-27724Y12029D01*
G74*
D01*
G02X-27656Y12155I151J0*
G01*
X-27656Y12155D01*
X-27656Y12453D01*
G75*
D01*
G02X-27842Y13042I-244J247*
G01*
X-27842Y13042D01*
X-27597Y13287D01*
D02*
G37*
G36*
X-33715Y10069D02*
X-33715Y10069D01*
X-33799Y10069D01*
X-33799Y9201D01*
X-29978Y9201D01*
X-29614Y9565D01*
X-29614Y9629D01*
G75*
D01*
G02X-29463Y9779I151J0*
G01*
X-29463Y9779D01*
X-29227Y9779D01*
G74*
D01*
G02X-29076Y9629I0J150*
G01*
X-29076Y9629D01*
X-29076Y9471D01*
G75*
D01*
G02X-29227Y9321I-151J0*
G01*
X-29227Y9321D01*
X-29290Y9321D01*
X-29331Y9279D01*
X-29227Y9279D01*
G74*
D01*
G02X-29076Y9129I0J150*
G01*
X-29076Y9129D01*
X-29076Y9001D01*
X-28551Y9001D01*
X-28551Y10999D01*
X-29076Y10999D01*
X-29076Y10871D01*
G75*
D01*
G02X-29144Y10745I-151J0*
G01*
X-29144Y10745D01*
X-29144Y10655D01*
G74*
D01*
G02X-29076Y10529I83J126*
G01*
X-29076Y10529D01*
X-29076Y10371D01*
G75*
D01*
G02X-29227Y10221I-151J0*
G01*
X-29227Y10221D01*
X-29463Y10221D01*
G75*
D01*
G02X-29614Y10371I0J150*
G01*
X-29614Y10371D01*
X-29614Y10529D01*
G74*
D01*
G02X-29546Y10655I151J0*
G01*
X-29546Y10655D01*
X-29546Y10705D01*
G75*
D01*
G02X-29681Y10653I-135J149*
G01*
X-29681Y10653D01*
X-31113Y10653D01*
G75*
D01*
G02X-33107Y10653I-997J237*
G01*
X-33107Y10653D01*
X-33564Y10653D01*
X-33564Y10219D01*
G75*
D01*
G02X-33715Y10069I-151J0*
G01*
D02*
G37*
G36*
X-33122Y11055D02*
G74*
D01*
G02X-32669Y11749I1012J165*
G01*
X-32669Y11749D01*
X-34449Y11749D01*
X-34449Y9201D01*
X-34201Y9201D01*
X-34201Y10069D01*
X-34285Y10069D01*
G75*
D01*
G02X-34436Y10219I0J150*
G01*
X-34436Y10219D01*
X-34436Y10672D01*
G74*
D01*
G02X-34365Y10800I151J0*
G01*
G75*
D01*
G02X-34436Y10928I80J128*
G01*
X-34436Y10928D01*
X-34436Y11381D01*
G75*
D01*
G02X-34285Y11531I151J0*
G01*
X-34285Y11531D01*
X-33715Y11531D01*
G74*
D01*
G02X-33564Y11381I0J150*
G01*
X-33564Y11381D01*
X-33564Y11055D01*
X-33122Y11055D01*
D02*
G37*
G36*
X25441Y-18145D02*
X25441Y-18145D01*
X25441Y-18199D01*
X26199Y-18199D01*
X26199Y-17502D01*
G74*
D01*
G02X25441Y-18145I959J362*
G01*
D02*
G37*
G36*
X-19610Y14301D02*
X-19610Y14301D01*
X-17185Y14301D01*
X-17357Y14473D01*
X-19724Y14473D01*
G74*
D01*
G02X-19610Y14301I376J373*
G01*
D02*
G37*
G36*
X-11001Y8583D02*
X-11001Y8583D01*
X-11001Y11387D01*
X-11099Y11486D01*
X-11099Y8476D01*
G74*
D01*
G02X-11001Y8583I299J176*
G01*
D02*
G37*
G36*
X-24506Y13773D02*
G74*
D01*
G02X-24632Y13705I126J83*
G01*
X-24632Y13705D01*
X-24723Y13705D01*
G74*
D01*
G02X-24648Y13549I126J156*
G01*
X-24648Y13549D01*
X-24648Y13495D01*
X-24632Y13495D01*
G74*
D01*
G02X-24549Y13469I0J151*
G01*
X-24549Y13469D01*
X-24036Y13469D01*
X-24036Y13495D01*
G74*
D01*
G02X-23965Y13623I151J0*
G01*
G75*
D01*
G02X-24036Y13751I80J128*
G01*
X-24036Y13751D01*
X-24036Y13773D01*
X-24506Y13773D01*
D02*
G37*
G36*
X-15399Y16375D02*
X-15399Y16375D01*
X-15399Y13383D01*
X-15375Y13359D01*
X-15375Y16374D01*
X-15381Y16374D01*
G75*
D01*
G02X-15399Y16375I0J150*
G01*
D02*
G37*
G36*
X-2301Y8151D02*
X-2301Y8151D01*
X-2301Y8001D01*
X-2521Y8001D01*
G74*
D01*
G03X-2301Y8151I179J499*
G01*
D02*
G37*
G36*
X-27254Y12155D02*
G74*
D01*
G02X-27201Y12094I83J126*
G01*
X-27201Y12094D01*
X-27201Y12291D01*
X-27254Y12291D01*
X-27254Y12155D01*
D02*
G37*
G36*
X-34356Y8799D02*
X-34356Y8799D01*
X-34449Y8799D01*
X-34449Y8706D01*
X-34356Y8799D01*
D02*
G37*
G36*
X-29635Y8976D02*
X-29635Y8976D01*
X-29614Y8976D01*
X-29614Y8997D01*
X-29635Y8976D01*
D02*
G37*
G54D11*
X15324Y16976D02*
G75*
D01*
G02X15324Y16976I276J-376*
G01*
X15153Y14734D02*
X14487Y15399D01*
X-1949Y15399D01*
X-1949Y13206D01*
X-1813Y13342D01*
G74*
D01*
G02X-1732Y13391I142J142*
G01*
G75*
D01*
G02X-1670Y13401I61J-191*
G01*
X327Y13401D01*
G75*
D01*
G02X1219Y13401I446J528*
G01*
X23870Y13401D01*
G75*
D01*
G02X23935Y13391I1J-201*
G01*
G74*
D01*
G02X24013Y13342I64J191*
G01*
X24542Y12813D01*
G74*
D01*
G02X24601Y12671I142J142*
G01*
X24601Y-1006D01*
G75*
D01*
G02X24542Y-1148I-201J0*
G01*
X23769Y-1921D01*
X23769Y-1921D01*
X22492Y-3197D01*
G75*
D01*
G02X22208Y-2913I-400J-117*
G01*
X23200Y-1921D01*
X23200Y-1921D01*
X24199Y-922D01*
X24199Y12587D01*
X23787Y12999D01*
X-1587Y12999D01*
X-1699Y12887D01*
X-1699Y9183D01*
X-1558Y9042D01*
G75*
D01*
G02X-1499Y8900I-142J-142*
G01*
X-1499Y7430D01*
G75*
D01*
G02X-1558Y7287I-201J-1*
G01*
X-1587Y7258D01*
G75*
D01*
G02X-1730Y7199I-142J142*
G01*
X-4287Y7199D01*
X-5899Y5587D01*
X-5899Y-3370D01*
G75*
D01*
G02X-5958Y-3513I-201J-1*
G01*
X-5987Y-3542D01*
G74*
D01*
G02X-6078Y-3594I142J142*
G01*
G74*
D01*
G02X-6129Y-3601I51J194*
G01*
X-9500Y-3601D01*
G75*
D01*
G02X-9642Y-3542I0J201*
G01*
X-10042Y-3142D01*
G74*
D01*
G02X-10049Y-3135I142J142*
G01*
X-10049Y-4920D01*
G75*
D01*
G02X-10108Y-5063I-201J-1*
G01*
X-10287Y-5242D01*
G74*
D01*
G02X-10366Y-5291I142J142*
G01*
G74*
D01*
G02X-10429Y-5301I63J191*
G01*
X-11910Y-5301D01*
G75*
D01*
G02X-12490Y-5301I-290J-299*
G01*
X-16417Y-5301D01*
G75*
D01*
G02X-16417Y-4899I-283J201*
G01*
X-12490Y-4899D01*
G75*
D01*
G02X-12490Y-4301I290J299*
G01*
X-16417Y-4301D01*
G75*
D01*
G02X-16417Y-3899I-283J201*
G01*
X-12490Y-3899D01*
G75*
D01*
G02X-11910Y-3899I290J299*
G01*
X-11283Y-3899D01*
G75*
D01*
G02X-11283Y-4301I283J-201*
G01*
X-11910Y-4301D01*
G75*
D01*
G02X-11910Y-4899I-290J-299*
G01*
X-10513Y-4899D01*
X-10451Y-4837D01*
X-10451Y-2529D01*
G74*
D01*
G02X-10392Y-2387I201J0*
G01*
X-10063Y-2058D01*
G74*
D01*
G02X-9980Y-2008I142J142*
G01*
G75*
D01*
G02X-10201Y-1596I80J308*
G01*
X-10201Y-931D01*
X-10276Y-931D01*
G75*
D01*
G02X-10426Y-781I0J150*
G01*
X-10426Y-367D01*
G75*
D01*
G02X-10276Y-217I150J0*
G01*
X-9724Y-217D01*
G74*
D01*
G02X-9574Y-367I0J150*
G01*
X-9574Y-781D01*
G75*
D01*
G02X-9724Y-931I-150J0*
G01*
X-9799Y-931D01*
X-9799Y-1398D01*
G75*
D01*
G02X-9791Y-1999I-101J-302*
G01*
X-7483Y-1999D01*
X-7447Y-1963D01*
X-7405Y-1921D01*
X-7405Y-1921D01*
X-7217Y-1733D01*
G75*
D01*
G02X-7101Y-1453I317J33*
G01*
X-7101Y-929D01*
G75*
D01*
G02X-7226Y-781I25J148*
G01*
X-7226Y-367D01*
G75*
D01*
G02X-7076Y-217I150J0*
G01*
X-6524Y-217D01*
G74*
D01*
G02X-6374Y-367I0J150*
G01*
X-6374Y-781D01*
G75*
D01*
G02X-6524Y-931I-150J0*
G01*
X-6699Y-931D01*
X-6699Y-1453D01*
G75*
D01*
G02X-6933Y-2017I-201J-247*
G01*
X-7258Y-2342D01*
G75*
D01*
G02X-7400Y-2401I-142J142*
G01*
X-9791Y-2401D01*
G75*
D01*
G02X-9683Y-2933I-109J-299*
G01*
X-9417Y-3199D01*
X-6301Y-3199D01*
X-6301Y5671D01*
G74*
D01*
G02X-6242Y5813I201J0*
G01*
X-4656Y7399D01*
X-8887Y7399D01*
X-9699Y6587D01*
X-9699Y6347D01*
G75*
D01*
G02X-10101Y6347I-201J-247*
G01*
X-10101Y6486D01*
X-11299Y5287D01*
X-11299Y100D01*
G75*
D01*
G02X-11358Y-42I-201J0*
G01*
X-11800Y-484D01*
G75*
D01*
G02X-12084Y-200I-400J-116*
G01*
X-11701Y183D01*
X-11701Y5371D01*
G74*
D01*
G02X-11642Y5513I201J0*
G01*
X-9627Y7528D01*
X-9213Y7942D01*
G74*
D01*
G02X-9113Y7996I142J142*
G01*
G75*
D01*
G02X-9071Y8001I42J-196*
G01*
X-2879Y8001D01*
G75*
D01*
G02X-2901Y8990I179J499*
G01*
X-2901Y12187D01*
X-3113Y12399D01*
X-11444Y12399D01*
X-10658Y11613D01*
G75*
D01*
G02X-10599Y11470I-142J-142*
G01*
X-10599Y8583D01*
G75*
D01*
G02X-11130Y8193I-201J-283*
G01*
G74*
D01*
G02X-11158Y8158I170J107*
G01*
X-11800Y7516D01*
G75*
D01*
G02X-12084Y7800I-400J-116*
G01*
X-11501Y8383D01*
X-11501Y11537D01*
X-11963Y11999D01*
X-15100Y11999D01*
G75*
D01*
G02X-15242Y12058I0J201*
G01*
X-17083Y13899D01*
X-19610Y13899D01*
G75*
D01*
G02X-20476Y14473I-490J201*
G01*
X-24066Y14473D01*
X-24364Y14175D01*
X-24036Y14175D01*
X-24036Y14204D01*
G75*
D01*
G02X-23885Y14354I151J0*
G01*
X-23315Y14354D01*
G74*
D01*
G02X-23164Y14204I0J150*
G01*
X-23164Y13751D01*
G75*
D01*
G02X-23235Y13623I-151J0*
G01*
G74*
D01*
G02X-23164Y13495I80J128*
G01*
X-23164Y13042D01*
G75*
D01*
G02X-23315Y12891I-151J0*
G01*
X-23885Y12891D01*
G75*
D01*
G02X-24036Y13042I0J151*
G01*
X-24036Y13068D01*
X-24487Y13068D01*
G74*
D01*
G02X-24632Y12957I145J40*
G01*
X-25065Y12957D01*
G75*
D01*
G02X-25216Y13108I0J151*
G01*
X-25216Y13344D01*
X-25216Y13348D01*
X-25584Y13348D01*
G74*
D01*
G02X-25584Y13338I151J10*
G01*
X-25584Y13102D01*
G75*
D01*
G02X-25735Y12951I-151J0*
G01*
X-25799Y12951D01*
X-25799Y11683D01*
X-21643Y7528D01*
X-21607Y7491D01*
G75*
D01*
G02X-21109Y6993I407J-91*
G01*
X-21058Y6942D01*
G75*
D01*
G02X-20999Y6800I-142J-142*
G01*
X-20999Y6765D01*
G75*
D01*
G02X-21109Y5993I-201J-365*
G01*
X-21058Y5942D01*
G75*
D01*
G02X-20999Y5800I-142J-142*
G01*
X-20999Y5765D01*
G75*
D01*
G02X-21109Y4993I-201J-365*
G01*
X-21058Y4942D01*
G75*
D01*
G02X-20999Y4800I-142J-142*
G01*
X-20999Y4765D01*
G75*
D01*
G02X-21431Y4747I-201J-365*
G01*
X-24212Y7528D01*
X-24533Y7849D01*
X-27249Y7849D01*
G74*
D01*
G02X-27337Y7821I88J122*
G01*
X-27573Y7821D01*
G75*
D01*
G02X-27724Y7971I0J150*
G01*
X-27724Y8129D01*
G75*
D01*
G02X-27573Y8279I151J0*
G01*
X-27337Y8279D01*
G74*
D01*
G02X-27249Y8251I0J150*
G01*
X-24450Y8251D01*
G74*
D01*
G02X-24401Y8245I0J201*
G01*
G74*
D01*
G02X-24308Y8192I49J195*
G01*
X-23643Y7528D01*
X-21607Y5491D01*
G74*
D01*
G02X-21431Y5747I407J91*
G01*
X-23212Y7528D01*
X-25164Y9480D01*
X-25164Y9128D01*
G75*
D01*
G02X-25235Y9000I-151J0*
G01*
G74*
D01*
G02X-25164Y8872I80J128*
G01*
X-25164Y8419D01*
G75*
D01*
G02X-25315Y8269I-151J0*
G01*
X-25885Y8269D01*
G75*
D01*
G02X-26036Y8419I0J150*
G01*
X-26036Y8445D01*
X-27189Y8445D01*
G74*
D01*
G02X-27337Y8321I148J26*
G01*
X-27573Y8321D01*
G75*
D01*
G02X-27724Y8471I0J150*
G01*
X-27724Y8599D01*
X-28149Y8599D01*
X-28149Y8050D01*
G75*
D01*
G02X-28350Y7849I-201J0*
G01*
X-29139Y7849D01*
G74*
D01*
G02X-29227Y7821I88J122*
G01*
X-29463Y7821D01*
G75*
D01*
G02X-29614Y7971I0J150*
G01*
X-29614Y8129D01*
G75*
D01*
G02X-29463Y8279I151J0*
G01*
X-29227Y8279D01*
G74*
D01*
G02X-29139Y8251I0J150*
G01*
X-28551Y8251D01*
X-28551Y8599D01*
X-29076Y8599D01*
X-29076Y8471D01*
G75*
D01*
G02X-29227Y8321I-151J0*
G01*
X-29463Y8321D01*
G75*
D01*
G02X-29614Y8471I0J150*
G01*
X-29614Y8574D01*
X-34012Y8574D01*
X-34199Y8387D01*
X-34199Y6001D01*
X-33783Y6001D01*
G75*
D01*
G02X-33783Y5599I283J-201*
G01*
X-34199Y5599D01*
X-34199Y5301D01*
X-26463Y5301D01*
G75*
D01*
G02X-26323Y5398I140J-54*
G01*
X-25890Y5398D01*
G74*
D01*
G02X-25764Y5330I0J151*
G01*
X-25729Y5330D01*
G74*
D01*
G02X-25682Y5325I0J201*
G01*
G74*
D01*
G02X-25587Y5271I47J196*
G01*
X-25371Y5055D01*
X-25371Y5253D01*
G75*
D01*
G02X-25220Y5404I151J0*
G01*
X-24787Y5404D01*
G74*
D01*
G02X-24661Y5336I0J151*
G01*
X-22935Y5336D01*
G75*
D01*
G02X-22793Y5277I0J-201*
G01*
X-21316Y3800D01*
G75*
D01*
G02X-21600Y3516I116J-400*
G01*
X-23018Y4934D01*
X-24649Y4934D01*
G74*
D01*
G02X-24637Y4875I138J61*
G01*
X-24293Y4531D01*
X-23915Y4531D01*
G74*
D01*
G02X-23764Y4381I0J150*
G01*
X-23764Y3928D01*
G75*
D01*
G02X-23835Y3800I-151J0*
G01*
G74*
D01*
G02X-23764Y3672I80J128*
G01*
X-23764Y3579D01*
X-24066Y3579D01*
X-24066Y3777D01*
X-24334Y3777D01*
X-24334Y3579D01*
X-24636Y3579D01*
X-24636Y3672D01*
G74*
D01*
G02X-24565Y3800I151J0*
G01*
G75*
D01*
G02X-24636Y3928I80J128*
G01*
X-24636Y4306D01*
X-24637Y4307D01*
X-24637Y4257D01*
G75*
D01*
G02X-24787Y4106I-150J0*
G01*
X-25220Y4106D01*
G75*
D01*
G02X-25346Y4174I0J151*
G01*
X-25475Y4174D01*
G75*
D01*
G02X-25617Y4233I0J201*
G01*
X-25861Y4476D01*
X-26011Y4476D01*
X-26011Y4549D01*
X-26202Y4549D01*
X-26202Y4476D01*
X-26473Y4476D01*
X-26473Y4499D01*
G74*
D01*
G02X-26465Y4549I150J0*
G01*
X-34250Y4549D01*
G75*
D01*
G02X-34392Y4608I0J201*
G01*
X-34792Y5008D01*
G75*
D01*
G02X-34851Y5150I142J142*
G01*
X-34851Y11850D01*
G74*
D01*
G02X-34792Y11992I201J0*
G01*
X-34692Y12092D01*
G74*
D01*
G02X-34622Y12138I142J142*
G01*
G75*
D01*
G02X-34550Y12151I72J-188*
G01*
X-30133Y12151D01*
X-28162Y14122D01*
G74*
D01*
G02X-28022Y14181I142J142*
G01*
X-28020Y14181D01*
X-26294Y14181D01*
G75*
D01*
G02X-26168Y14249I126J-83*
G01*
X-26152Y14249D01*
X-26152Y14351D01*
G74*
D01*
G02X-26093Y14493I201J0*
G01*
X-23610Y16976D01*
X-20934Y19652D01*
G74*
D01*
G02X-20802Y19711I142J142*
G01*
G75*
D01*
G02X-20791Y19711I10J-201*
G01*
X-16610Y19711D01*
G74*
D01*
G02X-16593Y19711I0J201*
G01*
G74*
D01*
G02X-16468Y19652I17J201*
G01*
X-15458Y18642D01*
G75*
D01*
G02X-15399Y18499I-142J-142*
G01*
X-15399Y17225D01*
G75*
D01*
G02X-15381Y17226I18J-149*
G01*
X-14967Y17226D01*
G74*
D01*
G02X-14817Y17076I0J150*
G01*
X-14817Y16524D01*
G75*
D01*
G02X-14967Y16374I-150J0*
G01*
X-14973Y16374D01*
X-14973Y13257D01*
X-14717Y13001D01*
X-10692Y13001D01*
G75*
D01*
G02X-10752Y13196I288J195*
G01*
X-10752Y13404D01*
G75*
D01*
G02X-10404Y13752I348J0*
G01*
X-10196Y13752D01*
G74*
D01*
G02X-9848Y13404I0J348*
G01*
X-9848Y13196D01*
G75*
D01*
G02X-9908Y13001I-348J0*
G01*
X-9658Y13001D01*
G74*
D01*
G02X-9736Y13135I358J299*
G01*
X-9465Y13135D01*
X-9465Y13001D01*
X-9135Y13001D01*
X-9135Y13135D01*
X-8864Y13135D01*
G74*
D01*
G02X-8942Y13001I436J165*
G01*
X-8658Y13001D01*
G75*
D01*
G02X-8099Y12879I358J299*
G01*
X-8099Y12830D01*
G75*
D01*
G02X-8101Y12801I-201J-1*
G01*
X-3030Y12801D01*
G75*
D01*
G02X-2887Y12742I1J-201*
G01*
X-2558Y12413D01*
G74*
D01*
G02X-2551Y12406I142J142*
G01*
X-2551Y16171D01*
G74*
D01*
G02X-2492Y16313I201J0*
G01*
X-2463Y16342D01*
G74*
D01*
G02X-2371Y16394I142J142*
G01*
G75*
D01*
G02X-2320Y16401I50J-194*
G01*
X13117Y16401D01*
X13692Y16976D01*
X15160Y18444D01*
G75*
D01*
G02X15444Y18160I440J156*
G01*
X13342Y16058D01*
G74*
D01*
G02X13200Y15999I142J142*
G01*
X-2149Y15999D01*
X-2149Y15799D01*
G75*
D01*
G02X-2120Y15801I28J-199*
G01*
X14571Y15801D01*
G74*
D01*
G02X14713Y15742I0J201*
G01*
X15423Y15032D01*
G75*
D01*
G02X15153Y14734I177J-432*
G01*
X26252Y16976D02*
G75*
D01*
G02X26252Y16976I-1012J164*
G01*
X-7447Y12857D02*
G75*
D01*
G02X-7447Y12857I147J443*
G01*
X30476Y1983D02*
G74*
D01*
G02X30626Y1833I0J150*
G01*
X30626Y1753D01*
X30327Y1753D01*
X30327Y1983D01*
X30476Y1983D01*
X30626Y1419D02*
G75*
D01*
G02X30476Y1269I-150J0*
G01*
X30327Y1269D01*
X30327Y1499D01*
X30626Y1499D01*
X30626Y1419D01*
X27579Y-3299D02*
G75*
D01*
G02X27579Y-3701I421J-201*
G01*
X27401Y-3701D01*
X27401Y-7617D01*
G75*
D01*
G02X26999Y-7617I-201J-283*
G01*
X26999Y-3471D01*
X26999Y-3470D01*
X26999Y-500D01*
G75*
D01*
G02X27058Y-358I201J0*
G01*
X29774Y2358D01*
X29774Y2581D01*
G75*
D01*
G02X29924Y2731I150J0*
G01*
X30476Y2731D01*
G74*
D01*
G02X30626Y2581I0J150*
G01*
X30626Y2167D01*
G75*
D01*
G02X30476Y2017I-150J0*
G01*
X30001Y2017D01*
X29968Y1983D01*
X30073Y1983D01*
X30073Y1753D01*
X29774Y1753D01*
X29774Y1789D01*
X27401Y-583D01*
X27401Y-3299D01*
X27579Y-3299D01*
X26301Y-5710D02*
G75*
D01*
G02X25899Y-5710I-201J-490*
G01*
X25899Y8010D01*
G75*
D01*
G02X26301Y8010I201J490*
G01*
X26301Y-5710D01*
X33401Y-9029D02*
X33401Y-12171D01*
G75*
D01*
G02X33342Y-12313I-201J0*
G01*
X33313Y-12342D01*
G74*
D01*
G02X33221Y-12394I142J142*
G01*
G75*
D01*
G02X33170Y-12401I-50J194*
G01*
X29583Y-12401D01*
X26601Y-15383D01*
X26601Y-18371D01*
G75*
D01*
G02X26542Y-18513I-201J0*
G01*
X26513Y-18542D01*
G74*
D01*
G02X26371Y-18601I142J142*
G01*
X25323Y-18601D01*
X24682Y-19242D01*
G74*
D01*
G02X24540Y-19301I142J142*
G01*
X-2071Y-19301D01*
G75*
D01*
G02X-2082Y-19301I0J201*
G01*
G74*
D01*
G02X-2213Y-19242I11J201*
G01*
X-2442Y-19013D01*
G75*
D01*
G02X-2501Y-18871I142J142*
G01*
X-2501Y-14283D01*
X-3387Y-13397D01*
X-6658Y-13397D01*
G74*
D01*
G02X-6992Y-13648I334J96*
G01*
X-7200Y-13648D01*
G75*
D01*
G02X-7548Y-13301I0J347*
G01*
X-7548Y-13092D01*
G75*
D01*
G02X-7200Y-12745I348J0*
G01*
X-6992Y-12745D01*
G74*
D01*
G02X-6658Y-12995I0J347*
G01*
X-6389Y-12995D01*
X-9583Y-9801D01*
X-11835Y-9801D01*
G75*
D01*
G02X-11835Y-9399I-365J201*
G01*
X-9500Y-9399D01*
X-9500Y-9399D01*
X-9472Y-9399D01*
G74*
D01*
G02X-9282Y-9533I0J201*
G01*
X-5820Y-12995D01*
X-4997Y-12995D01*
X-4997Y-6200D01*
G75*
D01*
G02X-4796Y-5999I201J0*
G01*
X-3190Y-5999D01*
G75*
D01*
G02X-3190Y-6401I490J-201*
G01*
X-4595Y-6401D01*
X-4595Y-12995D01*
X-3304Y-12995D01*
G74*
D01*
G02X-3161Y-13055I0J201*
G01*
X-2158Y-14058D01*
G75*
D01*
G02X-2099Y-14201I-142J-142*
G01*
X-2099Y-18787D01*
X-1987Y-18899D01*
X24457Y-18899D01*
X25039Y-18317D01*
X25039Y-18145D01*
G75*
D01*
G02X26199Y-16778I201J1005*
G01*
X26199Y-15300D01*
G75*
D01*
G02X26258Y-15158I201J0*
G01*
X29358Y-12058D01*
G74*
D01*
G02X29432Y-12011I142J142*
G01*
G75*
D01*
G02X29500Y-11999I68J-189*
G01*
X32999Y-11999D01*
X32999Y-11400D01*
G75*
D01*
G02X32999Y-10380I-889J510*
G01*
X32999Y-9201D01*
X29300Y-9201D01*
G75*
D01*
G02X29158Y-9142I0J201*
G01*
X28817Y-8801D01*
X26900Y-8801D01*
G75*
D01*
G02X26758Y-8742I0J201*
G01*
X24530Y-6515D01*
X22457Y-6515D01*
G75*
D01*
G02X22457Y-6113I-365J201*
G01*
X24614Y-6113D01*
G74*
D01*
G02X24756Y-6172I0J201*
G01*
X26983Y-8399D01*
X28415Y-8399D01*
X27858Y-7842D01*
G75*
D01*
G02X27799Y-7700I142J142*
G01*
X27799Y-5938D01*
G75*
D01*
G02X27548Y-5604I97J334*
G01*
X27548Y-5396D01*
G75*
D01*
G02X27896Y-5048I348J0*
G01*
X28104Y-5048D01*
G74*
D01*
G02X28452Y-5396I0J348*
G01*
X28452Y-5604D01*
G75*
D01*
G02X28201Y-5938I-348J0*
G01*
X28201Y-7617D01*
X29042Y-8458D01*
X29042Y-8458D01*
X29383Y-8799D01*
X33171Y-8799D01*
G74*
D01*
G02X33313Y-8858I0J201*
G01*
X33342Y-8887D01*
G74*
D01*
G02X33401Y-9029I142J142*
G01*
X-14069Y17076D02*
X-14069Y16927D01*
X-14299Y16927D01*
X-14299Y17226D01*
X-14219Y17226D01*
G74*
D01*
G02X-14069Y17076I0J150*
G01*
X-14633Y17226D02*
X-14553Y17226D01*
X-14553Y16927D01*
X-14783Y16927D01*
X-14783Y17076D01*
G75*
D01*
G02X-14633Y17226I150J0*
G01*
X21209Y-529D02*
X21209Y-15980D01*
G74*
D01*
G02X21883Y-15311I883J215*
G01*
G75*
D01*
G02X22313Y-15314I217J356*
G01*
G75*
D01*
G02X21209Y-16411I-221J-881*
G01*
X21209Y-16671D01*
G75*
D01*
G02X21058Y-16822I-151J0*
G01*
X3342Y-16822D01*
G75*
D01*
G02X3191Y-16671I0J151*
G01*
X3191Y-529D01*
G75*
D01*
G02X3342Y-378I151J0*
G01*
X21058Y-378D01*
G74*
D01*
G02X21209Y-529I0J151*
G01*
X22233Y-1921D02*
G75*
D01*
G02X22233Y-1921I-141J-393*
G01*
X22058Y-11370D02*
G75*
D01*
G02X22058Y-11370I42J415*
G01*
X-24228Y16976D02*
G75*
D01*
G02X-24228Y16976I-1012J164*
G01*
X-26100Y-801D02*
G75*
D01*
G02X-26242Y-742I0J201*
G01*
X-26345Y-639D01*
X-26345Y-639D01*
X-29609Y2625D01*
X-32974Y2625D01*
X-32974Y2619D01*
G75*
D01*
G02X-33124Y2469I-150J0*
G01*
X-33676Y2469D01*
G75*
D01*
G02X-33826Y2619I0J150*
G01*
X-33826Y3033D01*
G75*
D01*
G02X-33676Y3183I150J0*
G01*
X-33124Y3183D01*
G74*
D01*
G02X-32974Y3033I0J150*
G01*
X-32974Y3027D01*
X-29526Y3027D01*
G75*
D01*
G02X-29384Y2968I0J-201*
G01*
X-26017Y-399D01*
X-23800Y-399D01*
X-23800Y-399D01*
X-21565Y-399D01*
G75*
D01*
G02X-21565Y-801I365J-201*
G01*
X-23717Y-801D01*
X-24837Y-1921D01*
X-24837Y-1921D01*
X-26345Y-3429D01*
X-27058Y-4142D01*
G74*
D01*
G02X-27179Y-4200I142J142*
G01*
G74*
D01*
G02X-27200Y-4201I21J200*
G01*
X-27379Y-4201D01*
G75*
D01*
G02X-27379Y-3799I-421J201*
G01*
X-27283Y-3799D01*
X-26345Y-2861D01*
X-25405Y-1921D01*
X-25405Y-1921D01*
X-24285Y-801D01*
X-26100Y-801D01*
X-28252Y-2104D02*
X-28252Y-1896D01*
G75*
D01*
G02X-27904Y-1548I348J0*
G01*
X-27696Y-1548D01*
G74*
D01*
G02X-27348Y-1896I0J348*
G01*
X-27348Y-2104D01*
G75*
D01*
G02X-27696Y-2452I-348J0*
G01*
X-27904Y-2452D01*
G75*
D01*
G02X-28252Y-2104I0J348*
G01*
X-26323Y4112D02*
G75*
D01*
G02X-26473Y4263I0J151*
G01*
X-26473Y4286D01*
X-26202Y4286D01*
X-26202Y4112D01*
X-26323Y4112D01*
X-31105Y-10689D02*
X-27601Y-10689D01*
X-27601Y-8683D01*
G75*
D01*
G02X-27199Y-8683I201J283*
G01*
X-27199Y-14499D01*
X-20590Y-14499D01*
G75*
D01*
G02X-20590Y-14901I490J-201*
G01*
X-27400Y-14901D01*
G75*
D01*
G02X-27601Y-14700I0J201*
G01*
X-27601Y-11091D01*
X-31105Y-11091D01*
G75*
D01*
G02X-31105Y-10689I-1005J201*
G01*
X-25858Y-5142D02*
G74*
D01*
G02X-25979Y-5200I142J142*
G01*
G74*
D01*
G02X-26000Y-5201I21J200*
G01*
X-27379Y-5201D01*
G75*
D01*
G02X-27379Y-4799I-421J201*
G01*
X-26083Y-4799D01*
X-23205Y-1921D01*
X-23205Y-1921D01*
X-22742Y-1458D01*
G75*
D01*
G02X-22600Y-1399I142J-142*
G01*
X-21565Y-1399D01*
G75*
D01*
G02X-21565Y-1801I365J-201*
G01*
X-22517Y-1801D01*
X-22637Y-1921D01*
X-22637Y-1921D01*
X-25858Y-5142D01*
X-18858Y-13358D02*
G75*
D01*
G02X-18799Y-13500I-142J-142*
G01*
X-18799Y-17187D01*
X-16896Y-19090D01*
X-16896Y-19090D01*
X-16632Y-19355D01*
G75*
D01*
G02X-16937Y-19618I32J-345*
G01*
X-19142Y-17413D01*
G75*
D01*
G02X-19201Y-17271I142J142*
G01*
X-19201Y-13583D01*
X-20142Y-12642D01*
G75*
D01*
G02X-20201Y-12500I142J142*
G01*
X-20201Y-10936D01*
G75*
D01*
G02X-20201Y-10664I-699J136*
G01*
X-20201Y117D01*
X-21084Y1000D01*
G75*
D01*
G02X-20800Y1284I-116J400*
G01*
X-19858Y342D01*
G74*
D01*
G02X-19801Y228I142J142*
G01*
X-19801Y717D01*
X-21084Y2000D01*
G75*
D01*
G02X-20800Y2284I-116J400*
G01*
X-19458Y942D01*
G75*
D01*
G02X-19399Y800I-142J-142*
G01*
X-19399Y-10917D01*
X-16587Y-13728D01*
X-13383Y-13728D01*
X-12242Y-12587D01*
G75*
D01*
G02X-12100Y-12528I142J-142*
G01*
X-9564Y-12528D01*
G75*
D01*
G02X-9421Y-12587I1J-201*
G01*
X-9252Y-12756D01*
G75*
D01*
G02X-9536Y-13041I156J-440*
G01*
X-9647Y-12930D01*
X-9713Y-12930D01*
G75*
D01*
G02X-10480Y-12930I-383J-266*
G01*
X-12017Y-12930D01*
X-13114Y-14027D01*
X-13114Y-17595D01*
G75*
D01*
G02X-13158Y-17813I-186J-76*
G01*
X-13187Y-17842D01*
G75*
D01*
G02X-13330Y-17901I-142J142*
G01*
X-14917Y-17901D01*
X-15189Y-18174D01*
X-15153Y-18174D01*
X-15153Y-18473D01*
X-15383Y-18473D01*
X-15383Y-18368D01*
X-15417Y-18401D01*
X-15417Y-18876D01*
G75*
D01*
G02X-15567Y-19026I-150J0*
G01*
X-15981Y-19026D01*
G75*
D01*
G02X-16131Y-18876I0J150*
G01*
X-16131Y-18324D01*
G75*
D01*
G02X-15981Y-18174I150J0*
G01*
X-15758Y-18174D01*
X-15142Y-17558D01*
G75*
D01*
G02X-15000Y-17499I142J-142*
G01*
X-13516Y-17499D01*
X-13516Y-14130D01*
X-16671Y-14130D01*
G75*
D01*
G02X-16813Y-14071I0J201*
G01*
X-19514Y-11370D01*
X-19742Y-11142D01*
G74*
D01*
G02X-19799Y-11028I142J142*
G01*
X-19799Y-12417D01*
X-18858Y-13358D01*
X-12741Y-10175D02*
G75*
D01*
G02X-13025Y-10459I341J-625*
G01*
X-16896Y-6588D01*
X-18642Y-4842D01*
G75*
D01*
G02X-18701Y-4700I142J142*
G01*
X-18701Y9399D01*
X-20217Y9399D01*
G75*
D01*
G02X-20217Y9801I-683J201*
G01*
X-13083Y9801D01*
G75*
D01*
G02X-13083Y9399I683J-201*
G01*
X-18299Y9399D01*
X-18299Y-4617D01*
X-12741Y-10175D01*
X-12466Y-1921D02*
G75*
D01*
G02X-12466Y-1921I266J321*
G01*
X-9724Y531D02*
G74*
D01*
G02X-9574Y381I0J150*
G01*
X-9574Y-33D01*
G75*
D01*
G02X-9724Y-183I-150J0*
G01*
X-10276Y-183D01*
G75*
D01*
G02X-10426Y-33I0J150*
G01*
X-10426Y381D01*
G75*
D01*
G02X-10276Y531I150J0*
G01*
X-10201Y531D01*
X-10201Y1469D01*
X-10276Y1469D01*
G75*
D01*
G02X-10426Y1619I0J150*
G01*
X-10426Y1625D01*
X-10574Y1625D01*
G75*
D01*
G02X-10775Y1826I0J201*
G01*
X-10775Y3301D01*
G75*
D01*
G02X-10373Y3338I175J299*
G01*
X-10373Y2896D01*
G75*
D01*
G02X-10276Y2931I97J-115*
G01*
X-10101Y2931D01*
X-10101Y4853D01*
G75*
D01*
G02X-9699Y4853I201J247*
G01*
X-9699Y2929D01*
G74*
D01*
G02X-9574Y2781I25J148*
G01*
X-9574Y2367D01*
G75*
D01*
G02X-9724Y2217I-150J0*
G01*
X-10276Y2217D01*
G75*
D01*
G02X-10373Y2252I0J150*
G01*
X-10373Y2148D01*
G75*
D01*
G02X-10276Y2183I97J-115*
G01*
X-9724Y2183D01*
G74*
D01*
G02X-9574Y2033I0J150*
G01*
X-9574Y1619D01*
G75*
D01*
G02X-9724Y1469I-150J0*
G01*
X-9799Y1469D01*
X-9799Y1201D01*
X-7001Y1201D01*
X-7001Y1469D01*
X-7076Y1469D01*
G75*
D01*
G02X-7226Y1619I0J150*
G01*
X-7226Y2033D01*
G75*
D01*
G02X-7076Y2183I150J0*
G01*
X-6524Y2183D01*
G74*
D01*
G02X-6374Y2033I0J150*
G01*
X-6374Y1842D01*
G75*
D01*
G02X-6374Y1810I-200J-16*
G01*
X-6374Y1619D01*
G75*
D01*
G02X-6524Y1469I-150J0*
G01*
X-6599Y1469D01*
X-6599Y531D01*
X-6524Y531D01*
G74*
D01*
G02X-6374Y381I0J150*
G01*
X-6374Y-33D01*
G75*
D01*
G02X-6524Y-183I-150J0*
G01*
X-7076Y-183D01*
G75*
D01*
G02X-7226Y-33I0J150*
G01*
X-7226Y381D01*
G75*
D01*
G02X-7076Y531I150J0*
G01*
X-7001Y531D01*
X-7001Y799D01*
X-9799Y799D01*
X-9799Y531D01*
X-9724Y531D01*
X-7218Y-2700D02*
G75*
D01*
G02X-7218Y-2700I318J0*
G01*
X29774Y1419D02*
X29774Y1499D01*
X30073Y1499D01*
X30073Y1269D01*
X29924Y1269D01*
G75*
D01*
G02X29774Y1419I0J150*
G01*
X-12617Y-2600D02*
G75*
D01*
G02X-12617Y-2600I417J0*
G01*
X-6699Y4853D02*
X-6699Y2931D01*
X-6524Y2931D01*
G74*
D01*
G02X-6374Y2781I0J150*
G01*
X-6374Y2367D01*
G75*
D01*
G02X-6524Y2217I-150J0*
G01*
X-7076Y2217D01*
G75*
D01*
G02X-7226Y2367I0J150*
G01*
X-7226Y2781D01*
G74*
D01*
G02X-7101Y2929I150J0*
G01*
X-7101Y4853D01*
G75*
D01*
G02X-6699Y4853I201J247*
G01*
X-7218Y6100D02*
G75*
D01*
G02X-7218Y6100I318J0*
G01*
X21675Y-1314D02*
G75*
D01*
G02X21675Y-1314I417J0*
G01*
X-9475Y13300D02*
G75*
D01*
G02X-9475Y13300I175J0*
G01*
X-9736Y13465D02*
G74*
D01*
G02X-9465Y13736I436J165*
G01*
X-9465Y13465D01*
X-9736Y13465D01*
X-9135Y13736D02*
G74*
D01*
G02X-8864Y13465I165J436*
G01*
X-9135Y13465D01*
X-9135Y13736D01*
X-14219Y16374D02*
X-14299Y16374D01*
X-14299Y16673D01*
X-14069Y16673D01*
X-14069Y16524D01*
G75*
D01*
G02X-14219Y16374I-150J0*
G01*
X-14633Y16374D02*
G75*
D01*
G02X-14783Y16524I0J150*
G01*
X-14783Y16673D01*
X-14553Y16673D01*
X-14553Y16374D01*
X-14633Y16374D01*
X-12617Y8400D02*
G75*
D01*
G02X-12617Y8400I417J0*
G01*
X15133Y17600D02*
G75*
D01*
G02X15133Y17600I467J0*
G01*
X15704Y20052D02*
G74*
D01*
G02X16052Y19704I0J348*
G01*
X16052Y19496D01*
G75*
D01*
G02X15704Y19148I-348J0*
G01*
X15496Y19148D01*
G75*
D01*
G02X15148Y19496I0J348*
G01*
X15148Y19704D01*
G75*
D01*
G02X15496Y20052I348J0*
G01*
X15704Y20052D01*
X15133Y15600D02*
G75*
D01*
G02X15133Y15600I467J0*
G01*
X31085Y10890D02*
G75*
D01*
G02X31085Y10890I1025J0*
G01*
X4687Y11265D02*
G75*
D01*
G02X4687Y11265I909J0*
G01*
X-21617Y-9600D02*
G75*
D01*
G02X-21617Y-9600I417J0*
G01*
X-21617Y-8600D02*
G75*
D01*
G02X-21617Y-8600I417J0*
G01*
X-21617Y-7600D02*
G75*
D01*
G02X-21617Y-7600I417J0*
G01*
X-21617Y-6600D02*
G75*
D01*
G02X-21617Y-6600I417J0*
G01*
X-21617Y-5600D02*
G75*
D01*
G02X-21617Y-5600I417J0*
G01*
X-21617Y-4600D02*
G75*
D01*
G02X-21617Y-4600I417J0*
G01*
X-21617Y-3600D02*
G75*
D01*
G02X-21617Y-3600I417J0*
G01*
X-21617Y-2600D02*
G75*
D01*
G02X-21617Y-2600I417J0*
G01*
X-21617Y8400D02*
G75*
D01*
G02X-21617Y8400I417J0*
G01*
X21683Y-13955D02*
G75*
D01*
G02X21683Y-13955I417J0*
G01*
X21683Y-12955D02*
G75*
D01*
G02X21683Y-12955I417J0*
G01*
X21683Y-11955D02*
G75*
D01*
G02X21683Y-11955I417J0*
G01*
X-25890Y4112D02*
X-26011Y4112D01*
X-26011Y4286D01*
X-25739Y4286D01*
X-25739Y4263D01*
G75*
D01*
G02X-25890Y4112I-151J0*
G01*
X-23764Y3219D02*
G75*
D01*
G02X-23915Y3069I-151J0*
G01*
X-24066Y3069D01*
X-24066Y3312D01*
X-23764Y3312D01*
X-23764Y3219D01*
X-24636Y3219D02*
X-24636Y3312D01*
X-24334Y3312D01*
X-24334Y3069D01*
X-24485Y3069D01*
G75*
D01*
G02X-24636Y3219I0J150*
G01*
X-21617Y400D02*
G75*
D01*
G02X-21617Y400I417J0*
G01*
X-12617Y-8600D02*
G75*
D01*
G02X-12617Y-8600I417J0*
G01*
X-12617Y-7600D02*
G75*
D01*
G02X-12617Y-7600I417J0*
G01*
X-12617Y-6600D02*
G75*
D01*
G02X-12617Y-6600I417J0*
G01*
X27533Y-2500D02*
G75*
D01*
G02X27533Y-2500I467J0*
G01*
X21683Y-9955D02*
G75*
D01*
G02X21683Y-9955I417J0*
G01*
X21683Y-8955D02*
G75*
D01*
G02X21683Y-8955I417J0*
G01*
X21683Y-7955D02*
G75*
D01*
G02X21683Y-7955I417J0*
G01*
X21675Y-5314D02*
G75*
D01*
G02X21675Y-5314I417J0*
G01*
X21675Y-4314D02*
G75*
D01*
G02X21675Y-4314I417J0*
G01*
X28436Y-4665D02*
G74*
D01*
G02X28165Y-4936I436J165*
G01*
X28165Y-4665D01*
X28436Y-4665D01*
X27835Y-4936D02*
G74*
D01*
G02X27564Y-4665I165J436*
G01*
X27835Y-4665D01*
X27835Y-4936D01*
X28165Y-4064D02*
G74*
D01*
G02X28436Y-4335I165J436*
G01*
X28165Y-4335D01*
X28165Y-4064D01*
X27564Y-4335D02*
G74*
D01*
G02X27835Y-4064I436J165*
G01*
X27835Y-4335D01*
X27564Y-4335D01*
X27825Y-4500D02*
G75*
D01*
G02X27825Y-4500I175J0*
G01*
X-28236Y-2835D02*
G74*
D01*
G02X-27965Y-2564I436J165*
G01*
X-27965Y-2835D01*
X-28236Y-2835D01*
X-27364Y-3165D02*
G74*
D01*
G02X-27635Y-3436I436J165*
G01*
X-27635Y-3165D01*
X-27364Y-3165D01*
X-27975Y-3000D02*
G75*
D01*
G02X-27975Y-3000I175J0*
G01*
X-27965Y-3436D02*
G74*
D01*
G02X-28236Y-3165I165J436*
G01*
X-27965Y-3165D01*
X-27965Y-3436D01*
X-27635Y-2564D02*
G74*
D01*
G02X-27364Y-2835I165J436*
G01*
X-27635Y-2835D01*
X-27635Y-2564D01*
X-14669Y-18324D02*
X-14669Y-18473D01*
X-14899Y-18473D01*
X-14899Y-18174D01*
X-14819Y-18174D01*
G74*
D01*
G02X-14669Y-18324I0J150*
G01*
X-15233Y-19026D02*
G75*
D01*
G02X-15383Y-18876I0J150*
G01*
X-15383Y-18727D01*
X-15153Y-18727D01*
X-15153Y-19026D01*
X-15233Y-19026D01*
X-14819Y-19026D02*
X-14899Y-19026D01*
X-14899Y-18727D01*
X-14669Y-18727D01*
X-14669Y-18876D01*
G75*
D01*
G02X-14819Y-19026I-150J0*
G01*
X-7660Y-13362D02*
G74*
D01*
G02X-7931Y-13633I436J166*
G01*
X-7931Y-13362D01*
X-7660Y-13362D01*
X-8262Y-13633D02*
G74*
D01*
G02X-8533Y-13362I166J437*
G01*
X-8262Y-13362D01*
X-8262Y-13633D01*
X-7931Y-12760D02*
G74*
D01*
G02X-7660Y-13031I165J436*
G01*
X-7931Y-13031D01*
X-7931Y-12760D01*
X-8533Y-13031D02*
G74*
D01*
G02X-8262Y-12760I437J165*
G01*
X-8262Y-13031D01*
X-8533Y-13031D01*
X-8271Y-13196D02*
G75*
D01*
G02X-8271Y-13196I175J0*
G01*
X-32974Y3781D02*
X-32974Y3701D01*
X-33273Y3701D01*
X-33273Y3931D01*
X-33124Y3931D01*
G74*
D01*
G02X-32974Y3781I0J150*
G01*
X-32974Y3367D02*
G75*
D01*
G02X-33124Y3217I-150J0*
G01*
X-33273Y3217D01*
X-33273Y3447D01*
X-32974Y3447D01*
X-32974Y3367D01*
X-33826Y3367D02*
X-33826Y3447D01*
X-33527Y3447D01*
X-33527Y3217D01*
X-33676Y3217D01*
G75*
D01*
G02X-33826Y3367I0J150*
G01*
X-33676Y3931D02*
X-33527Y3931D01*
X-33527Y3701D01*
X-33826Y3701D01*
X-33826Y3781D01*
G75*
D01*
G02X-33676Y3931I150J0*
G01*
X-26265Y-17140D02*
G75*
D01*
G02X-26265Y-17140I1025J0*
G01*
X2277Y5027D02*
G75*
D01*
G02X2277Y5027I347J0*
G01*
X-12617Y400D02*
G75*
D01*
G02X-12617Y400I417J0*
G01*
X-12617Y1400D02*
G75*
D01*
G02X-12617Y1400I417J0*
G01*
X-12617Y2400D02*
G75*
D01*
G02X-12617Y2400I417J0*
G01*
X-12617Y3400D02*
G75*
D01*
G02X-12617Y3400I417J0*
G01*
X-12617Y4400D02*
G75*
D01*
G02X-12617Y4400I417J0*
G01*
X-12617Y5400D02*
G75*
D01*
G02X-12617Y5400I417J0*
G01*
X-12617Y6400D02*
G75*
D01*
G02X-12617Y6400I417J0*
G01*
X27197Y20517D02*
X-4349Y20517D01*
X-4349Y13987D01*
G75*
D01*
G02X-4500Y13836I-151J0*
G01*
X-12500Y13836D01*
G75*
D01*
G02X-12651Y13987I0J151*
G01*
X-12651Y20517D01*
X-16896Y20517D01*
X-16896Y20517D01*
X-20500Y20517D01*
X-20500Y20517D01*
X-26345Y20517D01*
X-26345Y20517D01*
X-27197Y20517D01*
G74*
D01*
G02X-27209Y20516I12J151*
G01*
G75*
D01*
G03X-28308Y19418I0J-1098*
G01*
G75*
D01*
G02X-28308Y19406I-151J0*
G01*
X-28308Y17824D01*
G74*
D01*
G02X-28305Y17794I151J30*
G01*
G75*
D01*
G02X-32266Y13833I-3961J0*
G01*
G75*
D01*
G02X-32296Y13836I0J154*
G01*
X-34381Y13836D01*
G74*
D01*
G02X-34393Y13835I12J151*
G01*
G75*
D01*
G03X-35491Y12737I0J-1098*
G01*
G75*
D01*
G02X-35492Y12725I-152J0*
G01*
X-35492Y151D01*
X-28459Y151D01*
G74*
D01*
G02X-28308Y0I0J151*
G01*
X-28308Y-8000D01*
G75*
D01*
G02X-28459Y-8151I-151J0*
G01*
X-35489Y-8151D01*
X-35491Y-11370D01*
X-35491Y-11370D01*
X-35492Y-12725D01*
G74*
D01*
G02X-35491Y-12737I151J12*
G01*
G75*
D01*
G03X-34393Y-13835I1098J0*
G01*
G74*
D01*
G02X-34381Y-13836I0J152*
G01*
X-32296Y-13836D01*
G75*
D01*
G02X-32266Y-13833I30J-151*
G01*
G74*
D01*
G02X-28305Y-17794I0J3961*
G01*
G75*
D01*
G02X-28308Y-17824I-154J0*
G01*
X-28308Y-19406D01*
G74*
D01*
G02X-28308Y-19418I151J12*
G01*
G75*
D01*
G03X-27209Y-20516I1099J0*
G01*
G74*
D01*
G02X-27197Y-20517I0J152*
G01*
X-12651Y-20517D01*
X-12651Y-13988D01*
G75*
D01*
G02X-12500Y-13837I151J0*
G01*
X-4500Y-13837D01*
G74*
D01*
G02X-4349Y-13988I0J151*
G01*
X-4349Y-20517D01*
X0Y-20517D01*
X0Y-20517D01*
X2001Y-20517D01*
X2001Y-20517D01*
X4296Y-20517D01*
X4296Y-20517D01*
X11450Y-20517D01*
X11450Y-20517D01*
X12500Y-20517D01*
X12500Y-20517D01*
X20500Y-20517D01*
X20899Y-20517D01*
X20899Y-20517D01*
X27197Y-20517D01*
G75*
D01*
G02X27209Y-20516I12J-151*
G01*
G75*
D01*
G03X28308Y-19418I0J1098*
G01*
G74*
D01*
G02X28308Y-19406I151J0*
G01*
X28308Y-17824D01*
G75*
D01*
G02X28305Y-17794I151J30*
G01*
G75*
D01*
G02X32266Y-13833I3961J0*
G01*
G74*
D01*
G02X32296Y-13836I0J154*
G01*
X34381Y-13836D01*
G75*
D01*
G02X34393Y-13835I12J-151*
G01*
G74*
D01*
G03X35489Y-12808I0J1098*
G01*
X35489Y-12806D01*
X35489Y-8151D01*
X28960Y-8151D01*
G75*
D01*
G02X28809Y-8000I0J151*
G01*
X28809Y0D01*
G75*
D01*
G02X28960Y151I151J0*
G01*
X35489Y151D01*
X35489Y8000D01*
X35489Y8000D01*
X35492Y12725D01*
G75*
D01*
G02X35491Y12737I151J12*
G01*
G74*
D01*
G03X34393Y13835I1098J0*
G01*
G75*
D01*
G02X34381Y13836I0J152*
G01*
X32296Y13836D01*
G74*
D01*
G02X32266Y13833I30J151*
G01*
G75*
D01*
G02X28305Y17794I0J3961*
G01*
G74*
D01*
G02X28308Y17824I154J0*
G01*
X28308Y19406D01*
G75*
D01*
G02X28308Y19418I151J12*
G01*
G74*
D01*
G03X27209Y20516I1099J0*
G01*
G75*
D01*
G02X27197Y20517I0J152*
G01*
X25441Y-18145D02*
X25441Y-18199D01*
X26199Y-18199D01*
X26199Y-17502D01*
G74*
D01*
G02X25441Y-18145I959J362*
G01*
X-26712Y9349D02*
G75*
D01*
G03X-26117Y9299I312J151*
G01*
X-26036Y9299D01*
X-26036Y9128D01*
G75*
D01*
G03X-25965Y9000I151J0*
G01*
G74*
D01*
G03X-26036Y8872I80J128*
G01*
X-26036Y8847D01*
X-27186Y8847D01*
X-27186Y9129D01*
G74*
D01*
G03X-27337Y9279I151J0*
G01*
X-27573Y9279D01*
G75*
D01*
G03X-27724Y9129I0J-150*
G01*
X-27724Y9001D01*
X-28149Y9001D01*
X-28149Y10999D01*
X-27724Y10999D01*
X-27724Y10871D01*
G75*
D01*
G03X-27573Y10721I151J0*
G01*
X-27337Y10721D01*
G75*
D01*
G03X-27186Y10871I0J150*
G01*
X-27186Y10999D01*
X-26655Y10999D01*
G74*
D01*
G03X-26589Y11010I0J201*
G01*
G74*
D01*
G03X-26513Y11058I66J190*
G01*
X-26345Y11226D01*
X-26345Y11226D01*
X-26208Y11363D01*
G74*
D01*
G03X-26152Y11469I142J142*
G01*
G74*
D01*
G03X-26142Y11458I152J131*
G01*
X-22212Y7528D01*
X-21431Y6747D01*
G74*
D01*
G03X-21607Y6491I231J347*
G01*
X-25708Y10592D01*
G74*
D01*
G03X-25826Y10650I142J142*
G01*
G74*
D01*
G03X-25850Y10651I24J200*
G01*
X-27249Y10651D01*
G74*
D01*
G03X-27337Y10679I88J122*
G01*
X-27573Y10679D01*
G75*
D01*
G03X-27724Y10529I0J-150*
G01*
X-27724Y10371D01*
G75*
D01*
G03X-27573Y10221I151J0*
G01*
X-27337Y10221D01*
G74*
D01*
G03X-27249Y10249I0J150*
G01*
X-25933Y10249D01*
X-25416Y9731D01*
X-25885Y9731D01*
G75*
D01*
G03X-25976Y9701I0J-150*
G01*
X-26117Y9701D01*
G75*
D01*
G03X-26639Y9751I-283J-201*
G01*
X-27249Y9751D01*
G74*
D01*
G03X-27337Y9779I88J122*
G01*
X-27573Y9779D01*
G75*
D01*
G03X-27724Y9629I0J-150*
G01*
X-27724Y9471D01*
G75*
D01*
G03X-27573Y9321I151J0*
G01*
X-27337Y9321D01*
G74*
D01*
G03X-27249Y9349I0J150*
G01*
X-26712Y9349D01*
X-2301Y8151D02*
X-2301Y8001D01*
X-2521Y8001D01*
G74*
D01*
G03X-2301Y8151I179J499*
G01*
X-34356Y8799D02*
X-34449Y8799D01*
X-34449Y8706D01*
X-34356Y8799D01*
X-11001Y8583D02*
X-11001Y11387D01*
X-11099Y11486D01*
X-11099Y8476D01*
G74*
D01*
G02X-11001Y8583I299J176*
G01*
X-33122Y11055D02*
G74*
D01*
G02X-32669Y11749I1012J165*
G01*
X-34449Y11749D01*
X-34449Y9201D01*
X-34201Y9201D01*
X-34201Y10069D01*
X-34285Y10069D01*
G75*
D01*
G02X-34436Y10219I0J150*
G01*
X-34436Y10672D01*
G74*
D01*
G02X-34365Y10800I151J0*
G01*
G75*
D01*
G02X-34436Y10928I80J128*
G01*
X-34436Y11381D01*
G75*
D01*
G02X-34285Y11531I151J0*
G01*
X-33715Y11531D01*
G74*
D01*
G02X-33564Y11381I0J150*
G01*
X-33564Y11055D01*
X-33122Y11055D01*
X-33715Y10069D02*
X-33799Y10069D01*
X-33799Y9201D01*
X-29978Y9201D01*
X-29614Y9565D01*
X-29614Y9629D01*
G75*
D01*
G02X-29463Y9779I151J0*
G01*
X-29227Y9779D01*
G74*
D01*
G02X-29076Y9629I0J150*
G01*
X-29076Y9471D01*
G75*
D01*
G02X-29227Y9321I-151J0*
G01*
X-29290Y9321D01*
X-29331Y9279D01*
X-29227Y9279D01*
G74*
D01*
G02X-29076Y9129I0J150*
G01*
X-29076Y9001D01*
X-28551Y9001D01*
X-28551Y10999D01*
X-29076Y10999D01*
X-29076Y10871D01*
G75*
D01*
G02X-29144Y10745I-151J0*
G01*
X-29144Y10655D01*
G74*
D01*
G02X-29076Y10529I83J126*
G01*
X-29076Y10371D01*
G75*
D01*
G02X-29227Y10221I-151J0*
G01*
X-29463Y10221D01*
G75*
D01*
G02X-29614Y10371I0J150*
G01*
X-29614Y10529D01*
G74*
D01*
G02X-29546Y10655I151J0*
G01*
X-29546Y10705D01*
G75*
D01*
G02X-29681Y10653I-135J149*
G01*
X-31113Y10653D01*
G75*
D01*
G02X-33107Y10653I-997J237*
G01*
X-33564Y10653D01*
X-33564Y10219D01*
G75*
D01*
G02X-33715Y10069I-151J0*
G01*
X-29635Y8976D02*
X-29614Y8976D01*
X-29614Y8997D01*
X-29635Y8976D01*
X-27597Y13287D02*
X-27597Y13287D01*
X-27436Y13448D01*
X-27436Y13604D01*
G75*
D01*
G02X-27285Y13754I151J0*
G01*
X-26715Y13754D01*
G74*
D01*
G02X-26564Y13604I0J150*
G01*
X-26564Y13151D01*
G75*
D01*
G02X-26635Y13023I-151J0*
G01*
G74*
D01*
G02X-26564Y12895I80J128*
G01*
X-26564Y12442D01*
G75*
D01*
G02X-26715Y12291I-151J0*
G01*
X-26799Y12291D01*
X-26799Y11401D01*
X-26738Y11401D01*
X-26551Y11588D01*
X-26551Y13571D01*
G74*
D01*
G02X-26492Y13713I201J0*
G01*
X-26463Y13742D01*
G74*
D01*
G02X-26412Y13779I142J142*
G01*
X-27937Y13779D01*
X-29565Y12151D01*
X-29551Y12151D01*
G75*
D01*
G02X-29463Y12179I88J-122*
G01*
X-29227Y12179D01*
G74*
D01*
G02X-29076Y12029I0J150*
G01*
X-29076Y11871D01*
G75*
D01*
G02X-29227Y11721I-151J0*
G01*
X-29463Y11721D01*
G75*
D01*
G02X-29551Y11749I0J150*
G01*
X-31551Y11749D01*
G74*
D01*
G02X-31098Y11055I559J859*
G01*
X-29764Y11055D01*
X-29614Y11205D01*
X-29614Y11529D01*
G75*
D01*
G02X-29463Y11679I151J0*
G01*
X-29227Y11679D01*
G74*
D01*
G02X-29076Y11529I0J150*
G01*
X-29076Y11401D01*
X-27724Y11401D01*
X-27724Y11529D01*
G75*
D01*
G02X-27573Y11679I151J0*
G01*
X-27337Y11679D01*
G74*
D01*
G02X-27201Y11594I0J150*
G01*
X-27201Y11806D01*
G74*
D01*
G02X-27337Y11721I136J65*
G01*
X-27573Y11721D01*
G75*
D01*
G02X-27724Y11871I0J150*
G01*
X-27724Y12029D01*
G74*
D01*
G02X-27656Y12155I151J0*
G01*
X-27656Y12453D01*
G75*
D01*
G02X-27842Y13042I-244J247*
G01*
X-27597Y13287D01*
X-27254Y12155D02*
G74*
D01*
G02X-27201Y12094I83J126*
G01*
X-27201Y12291D01*
X-27254Y12291D01*
X-27254Y12155D01*
X-17132Y14816D02*
X-15801Y13485D01*
X-15801Y18417D01*
X-16694Y19309D01*
X-20708Y19309D01*
X-25750Y14267D01*
X-25750Y14249D01*
X-25735Y14249D01*
G74*
D01*
G02X-25584Y14098I0J151*
G01*
X-25584Y13862D01*
G75*
D01*
G02X-25602Y13790I-151J0*
G01*
G74*
D01*
G02X-25587Y13750I133J72*
G01*
X-25172Y13750D01*
G75*
D01*
G02X-25216Y13856I107J106*
G01*
X-25216Y14092D01*
G75*
D01*
G02X-25065Y14243I151J0*
G01*
X-24864Y14243D01*
X-24291Y14816D01*
G74*
D01*
G02X-24167Y14874I142J142*
G01*
G75*
D01*
G02X-24149Y14875I18J-200*
G01*
X-17274Y14875D01*
G75*
D01*
G02X-17132Y14816I0J-201*
G01*
X-24506Y13773D02*
G74*
D01*
G02X-24632Y13705I126J83*
G01*
X-24723Y13705D01*
G74*
D01*
G02X-24648Y13549I126J156*
G01*
X-24648Y13495D01*
X-24632Y13495D01*
G74*
D01*
G02X-24549Y13469I0J151*
G01*
X-24036Y13469D01*
X-24036Y13495D01*
G74*
D01*
G02X-23965Y13623I151J0*
G01*
G75*
D01*
G02X-24036Y13751I80J128*
G01*
X-24036Y13773D01*
X-24506Y13773D01*
X-15399Y16375D02*
X-15399Y13383D01*
X-15375Y13359D01*
X-15375Y16374D01*
X-15381Y16374D01*
G75*
D01*
G02X-15399Y16375I0J150*
G01*
X-19610Y14301D02*
X-17185Y14301D01*
X-17357Y14473D01*
X-19724Y14473D01*
G74*
D01*
G02X-19610Y14301I376J373*
G01*
X30200Y2374D02*
X30074Y2374D01*
X30126Y1626D02*
X30200Y1626D01*
X-8600Y-13700D02*
X-8096Y-13196D01*
X-12671Y-13700D02*
X-13100Y-14129D01*
X-13129Y-17900D02*
X-13100Y-17871D01*
X-13100Y-14129D01*
X-14326Y-17900D02*
X-15026Y-18600D01*
X-14326Y-17900D02*
X-13129Y-17900D01*
X-13329Y-17700D02*
X-13300Y-17671D01*
X-26135Y5100D02*
X-26106Y5129D01*
X-25355Y4755D02*
X-25729Y5129D01*
X-26106Y5129D01*
X-29370Y8775D02*
X-29345Y8800D01*
X-29345Y11200D02*
X-29345Y10450D01*
X-28350Y8050D02*
X-28350Y11150D01*
X-28400Y11200D01*
X-29345Y8800D02*
X-27455Y8800D01*
X-24849Y13226D02*
X-24849Y13549D01*
X-25900Y13549D01*
X-25951Y13600D01*
X-26350Y13571D02*
X-26321Y13600D01*
X-25951Y13600D02*
X-26321Y13600D01*
X-9563Y-12729D02*
X-9096Y-13196D01*
X-13315Y-17685D02*
X-13315Y-13944D01*
X-12100Y-12729D01*
X-6900Y5100D02*
X-6900Y2674D01*
X-6800Y2574D01*
X-9900Y5100D02*
X-9900Y2674D01*
X-10000Y2574D01*
X-10000Y1826D02*
X-10000Y174D01*
X-10000Y-574D02*
X-10000Y-1600D01*
X-9900Y-1700D01*
X-6800Y174D02*
X-6800Y1826D01*
X-10000Y1000D02*
X-6800Y1000D01*
X30074Y2374D02*
X27200Y-500D01*
X27200Y-3471D02*
X27229Y-3500D01*
X28000Y-3500D01*
X28571Y-4500D02*
X28000Y-4500D01*
X28600Y-4471D02*
X28571Y-4500D01*
X-10000Y1826D02*
X-10574Y1826D01*
X-27400Y-14700D02*
X-20100Y-14700D01*
X-27400Y-8400D02*
X-27400Y-14700D01*
X-9900Y-2700D02*
X-9900Y-3000D01*
X-9500Y-3400D01*
X-27200Y-2400D02*
X-27800Y-3000D01*
X-6574Y1826D02*
X-6800Y1826D01*
X-33781Y4381D02*
X-26106Y4381D01*
X-34252Y4381D02*
X-33810Y4381D01*
X26100Y8500D02*
X26100Y-6200D01*
X-12100Y-12729D02*
X-9563Y-12729D01*
X-34096Y8775D02*
X-29370Y8775D01*
X-34300Y5100D02*
X-26135Y5100D01*
X-34300Y5100D02*
X-34400Y5200D01*
X-34400Y8471D01*
X-34096Y8775D01*
X-33500Y5800D02*
X-34400Y5800D01*
X22092Y-6314D02*
X24614Y-6314D01*
X26900Y-8600D01*
X-24149Y14674D02*
X-24849Y13974D01*
X-24149Y14674D02*
X-17274Y14674D01*
X28585Y-4485D02*
X28585Y-4500D01*
X28485Y-4600D02*
X28585Y-4500D01*
X28485Y-4600D02*
X28485Y-7856D01*
X28000Y-5500D02*
X28000Y-7700D01*
X-9900Y6671D02*
X-9900Y6100D01*
X-13200Y18026D02*
X-14400Y16826D01*
X28600Y-4471D02*
X28600Y571D01*
X30229Y900D02*
X30200Y929D01*
X30200Y1626D02*
X30200Y929D01*
X28929Y900D02*
X30200Y900D01*
X28929Y900D02*
X28600Y571D01*
X34800Y929D02*
X34771Y900D01*
X30229Y900D02*
X34771Y900D01*
X34800Y929D02*
X34800Y9800D01*
X34771Y12350D02*
X34800Y12321D01*
X34800Y9800D02*
X34800Y12321D01*
X29050Y12350D02*
X34771Y12350D01*
X29500Y-12200D02*
X26400Y-15300D01*
X26371Y-18400D02*
X26400Y-18371D01*
X26400Y-15300D02*
X26400Y-18371D01*
X33200Y-12171D02*
X33171Y-12200D01*
X29500Y-12200D01*
X-26200Y14400D02*
X-28100Y14400D01*
X-30300Y12200D01*
X-34252Y4381D02*
X-34881Y5010D01*
X-27200Y200D02*
X-27200Y-2400D01*
X-27650Y650D02*
X-27200Y200D01*
X-34881Y11971D02*
X-34652Y12200D01*
X-30300Y12200D01*
X-34881Y5010D02*
X-34881Y11971D01*
X-27400Y-10890D02*
X-27410Y-10890D01*
X25240Y-17140D02*
X25240Y-18360D01*
X-26350Y13571D02*
X-26350Y11505D01*
X-29345Y11200D02*
X-26655Y11200D01*
X-26350Y11505D02*
X-26655Y11200D01*
X-25475Y4375D02*
X-25004Y4375D01*
X-25850Y4750D02*
X-25475Y4375D01*
X-34250Y4750D02*
X-25850Y4750D01*
X-34650Y5150D02*
X-34250Y4750D01*
X-34650Y11850D02*
X-34650Y5150D01*
X-34550Y11950D02*
X-34650Y11850D01*
X-34550Y11950D02*
X-29345Y11950D01*
X-28020Y13980D02*
X-30050Y11950D01*
X-25951Y13980D02*
X-28020Y13980D01*
X-15600Y13300D02*
X-15600Y16900D01*
X-25997Y13554D02*
X-25951Y13600D01*
X-24849Y13974D02*
X-23603Y13974D01*
X-23600Y13269D02*
X-24806Y13269D01*
X-24849Y13226D01*
X-25355Y4755D02*
X-24801Y4755D01*
X-24200Y4154D01*
X-26106Y4381D02*
X-26106Y3906D01*
X-25646Y3446D01*
X-24200Y3446D01*
X-25600Y8646D02*
X-27301Y8646D01*
X-27455Y8800D01*
X-26400Y9500D02*
X-25746Y9500D01*
X-25600Y9354D01*
X-27455Y9550D02*
X-26450Y9550D01*
X-26400Y9500D01*
X-27223Y13377D02*
X-27000Y13377D01*
X-27000Y12669D02*
X-27000Y11200D01*
X-27455Y11950D02*
X-27455Y13145D01*
X-2700Y-6200D02*
X-4796Y-6200D01*
X-4796Y-13193D01*
X-29345Y8050D02*
X-28350Y8050D01*
X-29895Y9000D02*
X-33450Y9000D01*
X-29895Y9000D02*
X-29345Y9550D01*
X-33450Y9000D02*
X-34650Y9000D01*
X-34029Y9000D02*
X-34000Y9029D01*
X-34000Y10446D02*
X-34000Y9029D01*
X-29310Y11190D02*
X-29300Y11200D01*
X-32110Y-10890D02*
X-27400Y-10890D01*
X-2150Y9050D02*
X-1900Y8800D01*
X-1900Y7629D02*
X-1900Y8800D01*
X-1900Y9100D02*
X-1700Y8900D01*
X-33400Y4381D02*
X-33400Y3574D01*
X-33400Y2826D02*
X-29526Y2826D01*
X-34200Y650D02*
X-27650Y650D01*
X-34071Y650D02*
X-34250Y650D01*
X-34285Y4415D02*
X-34285Y685D01*
X-34250Y650D01*
X-9500Y-9600D02*
X-5904Y-13196D01*
X-21900Y-600D02*
X-21200Y-600D01*
X-12200Y-9600D02*
X-9472Y-9600D01*
X-21200Y2400D02*
X-19600Y800D01*
X-27455Y8050D02*
X-24450Y8050D01*
X-21200Y4400D02*
X-21200Y4800D01*
X-21200Y5800D02*
X-25850Y10450D01*
X-21200Y6800D02*
X-21200Y6400D01*
X-26000Y11600D02*
X-26000Y13171D01*
X-21200Y5800D02*
X-21200Y5400D01*
X-21200Y1400D02*
X-20000Y200D01*
X-25850Y10450D02*
X-27455Y10450D01*
X-19600Y800D02*
X-19600Y-11000D01*
X-21200Y4800D02*
X-24450Y8050D01*
X-21200Y6800D02*
X-26000Y11600D01*
X-19600Y-11000D02*
X-16671Y-13929D01*
X-19000Y-13500D02*
X-19000Y-17271D01*
X-26000Y13171D02*
X-25951Y13220D01*
X-19000Y-17271D02*
X-16571Y-19700D01*
X-20000Y-12500D02*
X-19000Y-13500D01*
X-20000Y200D02*
X-20000Y-12500D01*
X-25004Y5135D02*
X-22935Y5135D01*
X-21200Y3400D01*
X27200Y-500D02*
X27200Y-3600D01*
X27200Y-7871D02*
X27200Y-3600D01*
X-10574Y3571D02*
X-10603Y3600D01*
X-10574Y1826D02*
X-10574Y3571D01*
X-10800Y8300D02*
X-10800Y11471D01*
X-11300Y8300D02*
X-12200Y7400D01*
X-12400Y9600D02*
X-20900Y9600D01*
X-29345Y11190D02*
X-29310Y11190D01*
X-16671Y-13929D02*
X-13315Y-13929D01*
X-13300Y-13929D01*
X-16700Y-4100D02*
X-11000Y-4100D01*
X-10429Y-5100D02*
X-16700Y-5100D01*
X-10250Y-4921D02*
X-10429Y-5100D01*
X-10250Y-2529D02*
X-10250Y-4921D01*
X-10250Y-2529D02*
X-9921Y-2200D01*
X-7400Y-2200D02*
X-9921Y-2200D01*
X-6900Y-674D02*
X-6800Y-574D01*
X-7400Y-2200D02*
X-6900Y-1700D01*
X-6900Y-674D01*
X-11300Y11621D02*
X-11300Y8300D01*
X-15174Y16800D02*
X-15174Y13174D01*
X-33700Y10854D02*
X-29681Y10854D01*
X-33700Y10854D02*
X-34000Y11154D01*
X-29681Y10854D02*
X-29345Y11190D01*
X-12400Y-10800D02*
X-18500Y-4700D01*
X-18500Y9571D01*
X-2700Y12271D02*
X-2700Y8500D01*
X-1900Y7629D02*
X-1929Y7600D01*
X-3729Y7600D02*
X-1929Y7600D01*
X-9900Y6671D02*
X-8971Y7600D01*
X-3729Y7600D02*
X-8971Y7600D01*
X-1700Y8900D02*
X-1700Y7429D01*
X-1729Y7400D02*
X-1700Y7429D01*
X-4371Y7400D02*
X-1729Y7400D01*
X-6100Y-3371D02*
X-6129Y-3400D01*
X-9500Y-3400D02*
X-6129Y-3400D01*
X-6100Y5671D02*
X-4371Y7400D01*
X-6100Y-3371D02*
X-6100Y5671D01*
X26900Y-8600D02*
X28900Y-8600D01*
X33171Y-9000D02*
X33200Y-9029D01*
X28000Y-7700D02*
X29300Y-9000D01*
X33200Y-9029D02*
X33200Y-12171D01*
X29300Y-9000D02*
X33171Y-9000D01*
X28485Y-7856D02*
X29415Y-8785D01*
X33435Y-8815D02*
X33406Y-8785D01*
X33435Y-12471D02*
X33406Y-12500D01*
X29415Y-8785D02*
X33406Y-8785D01*
X33435Y-8815D02*
X33435Y-12471D01*
X-15600Y18500D02*
X-16610Y19510D01*
X-15600Y16900D02*
X-15600Y18500D01*
X-20792Y19510D02*
X-25951Y14351D01*
X-25951Y13980D01*
X-16610Y19510D02*
X-20792Y19510D01*
X-14426Y16800D02*
X-14426Y13874D01*
X-14352Y13800D01*
X-6800Y13800D01*
X-9300Y13300D02*
X-8900Y13700D01*
X-8900Y13800D01*
X-15174Y13174D02*
X-14800Y12800D01*
X-14900Y12600D02*
X-3029Y12600D01*
X-14900Y12600D02*
X-15600Y13300D01*
X-3029Y12600D02*
X-2700Y12271D01*
X-15000Y12400D02*
X-11729Y12400D01*
X-10800Y11471D02*
X-11729Y12400D01*
X-17274Y14674D02*
X-15000Y12400D01*
X-11879Y12200D02*
X-11300Y11621D01*
X-17000Y14100D02*
X-15100Y12200D01*
X-11879Y12200D01*
X-20100Y14100D02*
X-17000Y14100D01*
X-21200Y-1600D02*
X-22600Y-1600D01*
X-29526Y2826D02*
X-26100Y-600D01*
X-21900Y-600D01*
X-26000Y-5000D02*
X-27800Y-5000D01*
X-22600Y-1600D02*
X-26000Y-5000D01*
X-23800Y-600D02*
X-27200Y-4000D01*
X-27800Y-4000D01*
X-15774Y-18474D02*
X-15000Y-17700D01*
X-13329Y-17700D01*
X-15774Y-18600D02*
X-15774Y-18474D01*
X24400Y12671D02*
X24400Y-1006D01*
X22092Y-3314D01*
X-1900Y12971D02*
X-1900Y9100D01*
X23871Y13200D02*
X-1671Y13200D01*
X24400Y12671D02*
X23871Y13200D01*
X-1671Y13200D02*
X-1900Y12971D01*
X30100Y-12500D02*
X27100Y-15500D01*
X27100Y-18771D01*
X33406Y-12500D02*
X30100Y-12500D01*
X-27900Y12700D02*
X-27223Y13377D01*
X-4000Y7800D02*
X-9071Y7800D01*
X-11500Y100D02*
X-12200Y-600D01*
X-2100Y7829D02*
X-2129Y7800D01*
X-2100Y8700D02*
X-2100Y7829D01*
X-2129Y7800D02*
X-4000Y7800D01*
X-9071Y7800D02*
X-11500Y5371D01*
X-11500Y100D01*
X-2121Y15600D02*
X-2150Y15571D01*
X-2150Y9050D02*
X-2150Y15571D01*
X-2321Y16200D02*
X-2350Y16171D01*
X-2350Y8950D02*
X-2350Y16171D01*
X13200Y16200D02*
X15600Y18600D01*
X-2321Y16200D02*
X13200Y16200D01*
X14571Y15600D02*
X15571Y14600D01*
X15600Y14600D01*
X-2121Y15600D02*
X14571Y15600D01*
X-6800Y13800D02*
X-4129Y13800D01*
X-4100Y13829D01*
X-4100Y15071D02*
X-1171Y18000D01*
X-4100Y13829D02*
X-4100Y15071D01*
X-8329Y12800D02*
X-8300Y12829D01*
X-8300Y13300D01*
X-14800Y12800D02*
X-8329Y12800D01*
X-2350Y8950D02*
X-2100Y8700D01*
X15200Y20100D02*
X13100Y18000D01*
X20700Y20100D02*
X15200Y20100D01*
X-1171Y18000D02*
X13100Y18000D01*
X29050Y12350D02*
X28450Y12350D01*
X20700Y20100D01*
X-13229Y19750D02*
X-13200Y19721D01*
X-13200Y18026D01*
X-20850Y19750D02*
X-13229Y19750D01*
X-20850Y19750D02*
X-26200Y14400D01*
X26371Y-19500D02*
X-2371Y-19500D01*
X26371Y-19500D02*
X27100Y-18771D01*
X26371Y-18400D02*
X25240Y-18400D01*
X24540Y-19100D02*
X-2071Y-19100D01*
X24540Y-19100D02*
X25240Y-18400D01*
X-2371Y-19500D02*
X-3500Y-18371D01*
X-2071Y-19100D02*
X-2300Y-18871D01*
X-2300Y-14200D02*
X-3304Y-13196D01*
X-7096Y-13196D01*
X-2300Y-18871D02*
X-2300Y-14200D01*
X-3829Y-13700D02*
X-3500Y-14029D01*
X-12671Y-13700D02*
X-3829Y-13700D01*
X-3500Y-18371D02*
X-3500Y-14029D01*
G54D12*
X-35743Y-20768D02*
X-35743Y-16614D01*
X-35743Y-20768D02*
X-28594Y-20768D01*
X35743Y-20768D02*
X28594Y-20768D01*
X35743Y-20768D02*
X35743Y-16614D01*
X35743Y20768D02*
X35743Y16614D01*
X35743Y20768D02*
X28594Y20768D01*
X-35743Y20768D02*
X-28594Y20768D01*
X-35743Y20768D02*
X-35743Y16614D01*
X-37711Y-20768D02*
X-41648Y-20768D01*
X-39680Y-22736D02*
X-39680Y-18799D01*
X-41156Y-20768D02*
G75*
D01*
G02X-41156Y-20768I1476J0*
G01*
X37711Y-20768D02*
X41648Y-20768D01*
X39680Y-22736D02*
X39680Y-18799D01*
X38203Y-20768D02*
G75*
D01*
G02X38203Y-20768I1477J0*
G01*
X39188Y-20768D02*
G75*
D01*
G02X39188Y-20768I492J0*
G01*
X-37711Y20768D02*
X-41648Y20768D01*
X-39680Y18799D02*
X-39680Y22736D01*
X-41156Y20768D02*
G75*
D01*
G02X-41156Y20768I1476J0*
G01*
X-40664Y20768D02*
G75*
D01*
G02X-40664Y20768I984J0*
G01*
X-40172Y20768D02*
G75*
D01*
G02X-40172Y20768I492J0*
G01*
G54D13*
X-33500Y5800D03*
X-26400Y9500D03*
X-27400Y-8400D03*
X-16600Y-19700D03*
X27200Y-7900D03*
X-10600Y3600D03*
X-10800Y8300D03*
X-11000Y-4100D03*
X-16700Y-4100D03*
X-16700Y-5100D03*
X2624Y5027D03*
X-27900Y12700D03*
G54D14*
X-25240Y17140D03*
X25240Y17140D03*
X32110Y10890D03*
X32110Y-10890D03*
X-32110Y10890D03*
X-25240Y-17140D03*
X25240Y-17140D03*
X-32110Y-10890D03*
G54D15*
X-2700Y-6200D03*
X26100Y-6200D03*
X-20100Y-14700D03*
X-20100Y14100D03*
X26100Y8500D03*
X-2700Y8500D03*
G54D16*
X-6900Y5100D03*
X-6900Y6100D03*
X-9900Y5100D03*
X-9900Y6100D03*
X-9900Y-1700D03*
X-9900Y-2700D03*
X-6900Y-1700D03*
X-6900Y-2700D03*
G54D17*
X-24849Y13226D03*
X-24849Y13974D03*
X-25951Y13600D03*
X-25951Y13980D03*
X-25951Y13220D03*
X-26106Y5129D03*
X-26106Y4381D03*
X-25004Y4755D03*
X-25004Y4375D03*
X-25004Y5135D03*
G54D18*
X-29345Y8800D03*
X-27455Y8800D03*
X-29345Y11200D03*
X-27455Y11200D03*
G54D19*
X-29345Y8050D03*
X-29345Y9550D03*
X-27455Y9550D03*
X-27455Y8050D03*
X-29345Y10450D03*
X-29345Y11950D03*
X-27455Y11950D03*
X-27455Y10450D03*
G54D20*
X-33400Y2826D03*
X-33400Y3574D03*
X30200Y2374D03*
X30200Y1626D03*
X-10000Y1826D03*
X-10000Y2574D03*
X-6800Y1826D03*
X-6800Y2574D03*
X-6800Y174D03*
X-6800Y-574D03*
X-10000Y174D03*
X-10000Y-574D03*
G54D21*
X-25600Y9354D03*
X-25600Y8646D03*
X-24200Y3446D03*
X-24200Y4154D03*
X-23600Y13977D03*
X-23600Y13269D03*
X-34000Y10446D03*
X-34000Y11154D03*
X-27000Y13377D03*
X-27000Y12669D03*
G54D22*
X-15174Y16800D03*
X-14426Y16800D03*
X-15774Y-18600D03*
X-15026Y-18600D03*
G54D23*
X-27800Y-4000D03*
X-27800Y-3000D03*
X-27800Y-5000D03*
X-8300Y13300D03*
X-9300Y13300D03*
X-7300Y13300D03*
X-9096Y-13196D03*
X-8096Y-13196D03*
X-10096Y-13196D03*
X28000Y-3500D03*
X28000Y-4500D03*
X28000Y-2500D03*
X15600Y18600D03*
X15600Y17600D03*
X15600Y15600D03*
X15600Y16600D03*
X15600Y14600D03*
G54D24*
X-27800Y-2000D03*
X-10300Y13300D03*
X-7096Y-13196D03*
X28000Y-5500D03*
X15600Y19600D03*
G54D25*
X-27904Y-2104D02*
X-27696Y-2104D01*
X-27696Y-1896D01*
X-27904Y-1896D01*
X-27904Y-2104D01*D02*
X-10404Y13196D02*
X-10196Y13196D01*
X-10196Y13404D01*
X-10404Y13404D01*
X-10404Y13196D01*D02*
X-7200Y-13300D02*
X-6992Y-13300D01*
X-6992Y-13092D01*
X-7200Y-13092D01*
X-7200Y-13300D01*D02*
X27896Y-5604D02*
X28104Y-5604D01*
X28104Y-5396D01*
X27896Y-5396D01*
X27896Y-5604D01*D02*
X15496Y19496D02*
X15704Y19496D01*
X15704Y19704D01*
X15496Y19704D01*
X15496Y19496D01*D02*
G54D26*
X-12200Y-9600D03*
X-12200Y-8600D03*
X-12200Y-7600D03*
X-12200Y-6600D03*
X-12200Y-5600D03*
X-12200Y-4600D03*
X-12200Y-3600D03*
X-12200Y-2600D03*
X-12200Y-1600D03*
X-12200Y-600D03*
X-12200Y400D03*
X-12200Y1400D03*
X-12200Y2400D03*
X-12200Y3400D03*
X-12200Y4400D03*
X-12200Y5400D03*
X-12200Y6400D03*
X-12200Y7400D03*
X-12200Y8400D03*
X-21200Y-9600D03*
X-21200Y-8600D03*
X-21200Y-7600D03*
X-21200Y-6600D03*
X-21200Y-5600D03*
X-21200Y-4600D03*
X-21200Y-3600D03*
X-21200Y-2600D03*
X-21200Y-1600D03*
X-21200Y-600D03*
X-21200Y400D03*
X-21200Y1400D03*
X-21200Y2400D03*
X-21200Y3400D03*
X-21200Y4400D03*
X-21200Y5400D03*
X-21200Y6400D03*
X-21200Y7400D03*
X-21200Y8400D03*
X22100Y-7955D03*
X22100Y-8955D03*
X22100Y-9955D03*
X22100Y-10955D03*
X22100Y-11955D03*
X22100Y-12955D03*
X22100Y-13955D03*
X22100Y-14955D03*
X22092Y-6314D03*
X22092Y-5314D03*
X22092Y-4314D03*
X22092Y-3314D03*
X22092Y-2314D03*
X22092Y-1314D03*
G54D27*
X-12400Y-10800D03*
X-20900Y-10800D03*
X-20900Y9600D03*
X-12400Y9600D03*
G54D28*
X5596Y11265D03*
X22092Y-16195D03*
G54D29*
X773Y13929D03*

M02*
