999
DXF created by UltiBoard 14.2.0.0
0
SECTION
2
HEADER
9
$ACADVER
1
AC1014
9
$EXTMIN
10
-3995.619213
20
-2498.119370
30
0.0
9
$EXTMAX
10
3995.619213
20
2498.119370
30
0.0
9
$LUNITS
70
2
9
$HANDSEED
5
250
0
ENDSEC
0
SECTION
2
TABLES
0
TABLE
2
VPORT
5
129
100
AcDbSymbolTable
70
1
0
VPORT
5
12A
100
AcDbSymbolTableRecord
100
AcDbViewportTableRecord
2
*ACTIVE
70
0
0
ENDTAB
0
TABLE
2
LTYPE
5
12B
100
AcDbSymbolTable
70
1
0
LTYPE
5
12C
100
AcDbSymbolTableRecord
100
AcDbLinetypeTableRecord
2
BYBLOCK
70
0
3

72
65
73
0
40
0.0
0
LTYPE
5
12D
100
AcDbSymbolTableRecord
100
AcDbLinetypeTableRecord
2
BYLAYER
70
0
3

72
65
73
0
40
0.0
0
LTYPE
5
12E
100
AcDbSymbolTableRecord
100
AcDbLinetypeTableRecord
2
CONTINUOUS
70
0
3
Solid line
72
65
73
0
40
0.0
0
ENDTAB
0
TABLE
2
LAYER
5
12F
100
AcDbSymbolTable
70
2
0
LAYER
5
130
100
AcDbSymbolTableRecord
100
AcDbLayerTableRecord
2
0
70
0
62
7
6
CONTINUOUS
0
LAYER
5
131
100
AcDbSymbolTableRecord
100
AcDbLayerTableRecord
2
BOARD_OUTLINE
70
0
62
2
6
CONTINUOUS
0
ENDTAB
0
TABLE
2
STYLE
5
132
100
AcDbSymbolTable
70
2
0
STYLE
5
133
100
AcDbSymbolTableRecord
100
AcDbTextStyleTableRecord
2
MONOTxtStyle
70
0
40
0.0
41
1.0
50
0.0
71
0
42
0.2
3
monotxt
4

0
STYLE
5
134
100
AcDbSymbolTableRecord
100
AcDbTextStyleTableRecord
2
MONOTxtStyle_M
70
0
40
0.0
41
1.0
50
0.0
71
2
42
0.2
3
monotxt
4

0
ENDTAB
0
TABLE
2
VIEW
5
135
100
AcDbSymbolTable
70
0
0
ENDTAB
0
TABLE
2
UCS
5
136
100
AcDbSymbolTable
70
0
0
ENDTAB
0
TABLE
2
APPID
5
137
100
AcDbSymbolTable
70
1
0
APPID
5
138
100
AcDbSymbolTableRecord
100
AcDbRegAppTableRecord
2
ACAD
70
0
0
ENDTAB
0
TABLE
2
DIMSTYLE
5
139
100
AcDbSymbolTable
70
1
0
DIMSTYLE
105
13A
100
AcDbSymbolTableRecord
100
AcDbDimStyleTableRecord
2
STANDARD
70
0
0
ENDTAB
0
TABLE
2
BLOCK_RECORD
5
13B
100
AcDbSymbolTable
70
0
0
BLOCK_RECORD
5
13C
100
AcDbSymbolTableRecord
100
AcDbBlockTableRecord
2
*MODEL_SPACE
0
BLOCK_RECORD
5
13D
100
AcDbSymbolTableRecord
100
AcDbBlockTableRecord
2
*PAPER_SPACE
0
ENDTAB
0
ENDSEC
0
SECTION
2
BLOCKS
0
BLOCK
5
13E
100
AcDbEntity
8
0
100
AcDbBlockBegin
2
*MODEL_SPACE
70
0
0
ENDBLK
5
13F
100
AcDbEntity
8
0
100
AcDbBlockEnd
0
BLOCK
5
140
100
AcDbEntity
8
0
100
AcDbBlockBegin
2
*PAPER_SPACE
70
0
0
ENDBLK
5
141
100
AcDbEntity
8
0
100
AcDbBlockEnd
0
ENDSEC
0
SECTION
2
ENTITIES
0
LWPOLYLINE
5
142
100
AcDbEntity
8
BOARD_OUTLINE
62
2
100
AcDbPolyline
90
2
70
0
43
0.000039
39
0.000039
10
-2845.873701
20
-1941.766063
10
-2845.398031
20
-1952.660512
0
LWPOLYLINE
5
143
100
AcDbEntity
8
BOARD_OUTLINE
62
2
100
AcDbPolyline
90
2
70
0
43
0.000039
39
0.000039
10
-2845.398031
20
-1952.660512
10
-2843.974646
20
-1963.472047
0
LWPOLYLINE
5
144
100
AcDbEntity
8
BOARD_OUTLINE
62
2
100
AcDbPolyline
90
2
70
0
43
0.000039
39
0.000039
10
-2843.974646
20
-1963.472047
10
-2841.614409
20
-1974.118425
0
LWPOLYLINE
5
145
100
AcDbEntity
8
BOARD_OUTLINE
62
2
100
AcDbPolyline
90
2
70
0
43
0.000039
39
0.000039
10
-2841.614409
20
-1974.118425
10
-2838.335276
20
-1984.518543
0
LWPOLYLINE
5
146
100
AcDbEntity
8
BOARD_OUTLINE
62
2
100
AcDbPolyline
90
2
70
0
43
0.000039
39
0.000039
10
-2838.335276
20
-1984.518543
10
-2834.162165
20
-1994.593307
0
LWPOLYLINE
5
147
100
AcDbEntity
8
BOARD_OUTLINE
62
2
100
AcDbPolyline
90
2
70
0
43
0.000039
39
0.000039
10
-2834.162165
20
-1994.593307
10
-2829.126850
20
-2004.266063
0
LWPOLYLINE
5
148
100
AcDbEntity
8
BOARD_OUTLINE
62
2
100
AcDbPolyline
90
2
70
0
43
0.000039
39
0.000039
10
-2829.126850
20
-2004.266063
10
-2823.267677
20
-2013.463110
0
LWPOLYLINE
5
149
100
AcDbEntity
8
BOARD_OUTLINE
62
2
100
AcDbPolyline
90
2
70
0
43
0.000039
39
0.000039
10
-2823.267677
20
-2013.463110
10
-2816.629252
20
-2022.114488
0
LWPOLYLINE
5
14A
100
AcDbEntity
8
BOARD_OUTLINE
62
2
100
AcDbPolyline
90
2
70
0
43
0.000039
39
0.000039
10
-2816.629252
20
-2022.114488
10
-2809.262047
20
-2030.154409
0
LWPOLYLINE
5
14B
100
AcDbEntity
8
BOARD_OUTLINE
62
2
100
AcDbPolyline
90
2
70
0
43
0.000039
39
0.000039
10
-2809.262047
20
-2030.154409
10
-2801.222126
20
-2037.521614
0
LWPOLYLINE
5
14C
100
AcDbEntity
8
BOARD_OUTLINE
62
2
100
AcDbPolyline
90
2
70
0
43
0.000039
39
0.000039
10
-2801.222126
20
-2037.521614
10
-2792.570748
20
-2044.160039
0
LWPOLYLINE
5
14D
100
AcDbEntity
8
BOARD_OUTLINE
62
2
100
AcDbPolyline
90
2
70
0
43
0.000039
39
0.000039
10
-2792.570748
20
-2044.160039
10
-2783.373701
20
-2050.019213
0
LWPOLYLINE
5
14E
100
AcDbEntity
8
BOARD_OUTLINE
62
2
100
AcDbPolyline
90
2
70
0
43
0.000039
39
0.000039
10
-2783.373701
20
-2050.019213
10
-2773.700945
20
-2055.054528
0
LWPOLYLINE
5
14F
100
AcDbEntity
8
BOARD_OUTLINE
62
2
100
AcDbPolyline
90
2
70
0
43
0.000039
39
0.000039
10
-2773.700945
20
-2055.054528
10
-2763.626181
20
-2059.227638
0
LWPOLYLINE
5
150
100
AcDbEntity
8
BOARD_OUTLINE
62
2
100
AcDbPolyline
90
2
70
0
43
0.000039
39
0.000039
10
-2763.626181
20
-2059.227638
10
-2753.226063
20
-2062.506772
0
LWPOLYLINE
5
151
100
AcDbEntity
8
BOARD_OUTLINE
62
2
100
AcDbPolyline
90
2
70
0
43
0.000039
39
0.000039
10
-2753.226063
20
-2062.506772
10
-2742.579685
20
-2064.867008
0
LWPOLYLINE
5
152
100
AcDbEntity
8
BOARD_OUTLINE
62
2
100
AcDbPolyline
90
2
70
0
43
0.000039
39
0.000039
10
-2742.579685
20
-2064.867008
10
-2731.768150
20
-2066.290394
0
LWPOLYLINE
5
153
100
AcDbEntity
8
BOARD_OUTLINE
62
2
100
AcDbPolyline
90
2
70
0
43
0.000039
39
0.000039
10
-2731.768150
20
-2066.290394
10
-2720.873701
20
-2066.766063
0
LWPOLYLINE
5
154
100
AcDbEntity
8
BOARD_OUTLINE
62
2
100
AcDbPolyline
90
2
70
0
43
0.000039
39
0.000039
10
-2720.873701
20
-2066.766063
10
-2720.873701
20
-2066.766063
0
LWPOLYLINE
5
155
100
AcDbEntity
8
BOARD_OUTLINE
62
2
100
AcDbPolyline
90
2
70
0
43
0.000039
39
0.000039
10
-2845.873622
20
-1779.402677
10
-2845.873622
20
-1941.766063
0
LWPOLYLINE
5
156
100
AcDbEntity
8
BOARD_OUTLINE
62
2
100
AcDbPolyline
90
2
70
0
43
0.000039
39
0.000039
10
-2845.873661
20
-1779.402638
10
-2847.322441
20
-1746.219488
0
LWPOLYLINE
5
157
100
AcDbEntity
8
BOARD_OUTLINE
62
2
100
AcDbPolyline
90
2
70
0
43
0.000039
39
0.000039
10
-2847.322441
20
-1746.219488
10
-2851.657835
20
-1713.288858
0
LWPOLYLINE
5
158
100
AcDbEntity
8
BOARD_OUTLINE
62
2
100
AcDbPolyline
90
2
70
0
43
0.000039
39
0.000039
10
-2851.657835
20
-1713.288858
10
-2858.846850
20
-1680.861417
0
LWPOLYLINE
5
159
100
AcDbEntity
8
BOARD_OUTLINE
62
2
100
AcDbPolyline
90
2
70
0
43
0.000039
39
0.000039
10
-2858.846850
20
-1680.861417
10
-2868.834724
20
-1649.183937
0
LWPOLYLINE
5
15A
100
AcDbEntity
8
BOARD_OUTLINE
62
2
100
AcDbPolyline
90
2
70
0
43
0.000039
39
0.000039
10
-2868.834724
20
-1649.183937
10
-2881.545433
20
-1618.497520
0
LWPOLYLINE
5
15B
100
AcDbEntity
8
BOARD_OUTLINE
62
2
100
AcDbPolyline
90
2
70
0
43
0.000039
39
0.000039
10
-2881.545433
20
-1618.497520
10
-2896.882323
20
-1589.035669
0
LWPOLYLINE
5
15C
100
AcDbEntity
8
BOARD_OUTLINE
62
2
100
AcDbPolyline
90
2
70
0
43
0.000039
39
0.000039
10
-2896.882323
20
-1589.035669
10
-2914.728583
20
-1561.022598
0
LWPOLYLINE
5
15D
100
AcDbEntity
8
BOARD_OUTLINE
62
2
100
AcDbPolyline
90
2
70
0
43
0.000039
39
0.000039
10
-2914.728583
20
-1561.022598
10
-2934.948465
20
-1534.671575
0
LWPOLYLINE
5
15E
100
AcDbEntity
8
BOARD_OUTLINE
62
2
100
AcDbPolyline
90
2
70
0
43
0.000039
39
0.000039
10
-2934.948465
20
-1534.671575
10
-2957.388031
20
-1510.183071
0
LWPOLYLINE
5
15F
100
AcDbEntity
8
BOARD_OUTLINE
62
2
100
AcDbPolyline
90
2
70
0
43
0.000039
39
0.000039
10
-2957.388031
20
-1510.183071
10
-2981.876535
20
-1487.743504
0
LWPOLYLINE
5
160
100
AcDbEntity
8
BOARD_OUTLINE
62
2
100
AcDbPolyline
90
2
70
0
43
0.000039
39
0.000039
10
-2981.876535
20
-1487.743504
10
-3008.227559
20
-1467.523622
0
LWPOLYLINE
5
161
100
AcDbEntity
8
BOARD_OUTLINE
62
2
100
AcDbPolyline
90
2
70
0
43
0.000039
39
0.000039
10
-3008.227559
20
-1467.523622
10
-3036.240591
20
-1449.677362
0
LWPOLYLINE
5
162
100
AcDbEntity
8
BOARD_OUTLINE
62
2
100
AcDbPolyline
90
2
70
0
43
0.000039
39
0.000039
10
-3036.240591
20
-1449.677362
10
-3065.702480
20
-1434.340472
0
LWPOLYLINE
5
163
100
AcDbEntity
8
BOARD_OUTLINE
62
2
100
AcDbPolyline
90
2
70
0
43
0.000039
39
0.000039
10
-3065.702480
20
-1434.340472
10
-3096.388898
20
-1421.629764
0
LWPOLYLINE
5
164
100
AcDbEntity
8
BOARD_OUTLINE
62
2
100
AcDbPolyline
90
2
70
0
43
0.000039
39
0.000039
10
-3096.388898
20
-1421.629764
10
-3128.066378
20
-1411.641890
0
LWPOLYLINE
5
165
100
AcDbEntity
8
BOARD_OUTLINE
62
2
100
AcDbPolyline
90
2
70
0
43
0.000039
39
0.000039
10
-3128.066378
20
-1411.641890
10
-3160.493819
20
-1404.452874
0
LWPOLYLINE
5
166
100
AcDbEntity
8
BOARD_OUTLINE
62
2
100
AcDbPolyline
90
2
70
0
43
0.000039
39
0.000039
10
-3160.493819
20
-1404.452874
10
-3193.424449
20
-1400.117480
0
LWPOLYLINE
5
167
100
AcDbEntity
8
BOARD_OUTLINE
62
2
100
AcDbPolyline
90
2
70
0
43
0.000039
39
0.000039
10
-3193.424449
20
-1400.117480
10
-3226.607559
20
-1398.668701
0
LWPOLYLINE
5
168
100
AcDbEntity
8
BOARD_OUTLINE
62
2
100
AcDbPolyline
90
2
70
0
43
0.000039
39
0.000039
10
-3226.607559
20
-1398.668701
10
-3226.607598
20
-1398.668701
0
LWPOLYLINE
5
169
100
AcDbEntity
8
BOARD_OUTLINE
62
2
100
AcDbPolyline
90
2
70
0
43
0.000039
39
0.000039
10
-3439.266024
20
-1398.668740
10
-3226.607677
20
-1398.668740
0
LWPOLYLINE
5
16A
100
AcDbEntity
8
BOARD_OUTLINE
62
2
100
AcDbPolyline
90
2
70
0
43
0.000039
39
0.000039
10
-3564.266063
20
-1273.668701
10
-3563.790394
20
-1284.563150
0
LWPOLYLINE
5
16B
100
AcDbEntity
8
BOARD_OUTLINE
62
2
100
AcDbPolyline
90
2
70
0
43
0.000039
39
0.000039
10
-3563.790394
20
-1284.563150
10
-3562.367008
20
-1295.374685
0
LWPOLYLINE
5
16C
100
AcDbEntity
8
BOARD_OUTLINE
62
2
100
AcDbPolyline
90
2
70
0
43
0.000039
39
0.000039
10
-3562.367008
20
-1295.374685
10
-3560.006772
20
-1306.021063
0
LWPOLYLINE
5
16D
100
AcDbEntity
8
BOARD_OUTLINE
62
2
100
AcDbPolyline
90
2
70
0
43
0.000039
39
0.000039
10
-3560.006772
20
-1306.021063
10
-3556.727638
20
-1316.421181
0
LWPOLYLINE
5
16E
100
AcDbEntity
8
BOARD_OUTLINE
62
2
100
AcDbPolyline
90
2
70
0
43
0.000039
39
0.000039
10
-3556.727638
20
-1316.421181
10
-3552.554528
20
-1326.495945
0
LWPOLYLINE
5
16F
100
AcDbEntity
8
BOARD_OUTLINE
62
2
100
AcDbPolyline
90
2
70
0
43
0.000039
39
0.000039
10
-3552.554528
20
-1326.495945
10
-3547.519213
20
-1336.168701
0
LWPOLYLINE
5
170
100
AcDbEntity
8
BOARD_OUTLINE
62
2
100
AcDbPolyline
90
2
70
0
43
0.000039
39
0.000039
10
-3547.519213
20
-1336.168701
10
-3541.660039
20
-1345.365748
0
LWPOLYLINE
5
171
100
AcDbEntity
8
BOARD_OUTLINE
62
2
100
AcDbPolyline
90
2
70
0
43
0.000039
39
0.000039
10
-3541.660039
20
-1345.365748
10
-3535.021614
20
-1354.017126
0
LWPOLYLINE
5
172
100
AcDbEntity
8
BOARD_OUTLINE
62
2
100
AcDbPolyline
90
2
70
0
43
0.000039
39
0.000039
10
-3535.021614
20
-1354.017126
10
-3527.654409
20
-1362.057047
0
LWPOLYLINE
5
173
100
AcDbEntity
8
BOARD_OUTLINE
62
2
100
AcDbPolyline
90
2
70
0
43
0.000039
39
0.000039
10
-3527.654409
20
-1362.057047
10
-3519.614488
20
-1369.424252
0
LWPOLYLINE
5
174
100
AcDbEntity
8
BOARD_OUTLINE
62
2
100
AcDbPolyline
90
2
70
0
43
0.000039
39
0.000039
10
-3519.614488
20
-1369.424252
10
-3510.963110
20
-1376.062677
0
LWPOLYLINE
5
175
100
AcDbEntity
8
BOARD_OUTLINE
62
2
100
AcDbPolyline
90
2
70
0
43
0.000039
39
0.000039
10
-3510.963110
20
-1376.062677
10
-3501.766063
20
-1381.921850
0
LWPOLYLINE
5
176
100
AcDbEntity
8
BOARD_OUTLINE
62
2
100
AcDbPolyline
90
2
70
0
43
0.000039
39
0.000039
10
-3501.766063
20
-1381.921850
10
-3492.093307
20
-1386.957165
0
LWPOLYLINE
5
177
100
AcDbEntity
8
BOARD_OUTLINE
62
2
100
AcDbPolyline
90
2
70
0
43
0.000039
39
0.000039
10
-3492.093307
20
-1386.957165
10
-3482.018543
20
-1391.130276
0
LWPOLYLINE
5
178
100
AcDbEntity
8
BOARD_OUTLINE
62
2
100
AcDbPolyline
90
2
70
0
43
0.000039
39
0.000039
10
-3482.018543
20
-1391.130276
10
-3471.618425
20
-1394.409409
0
LWPOLYLINE
5
179
100
AcDbEntity
8
BOARD_OUTLINE
62
2
100
AcDbPolyline
90
2
70
0
43
0.000039
39
0.000039
10
-3471.618425
20
-1394.409409
10
-3460.972047
20
-1396.769646
0
LWPOLYLINE
5
17A
100
AcDbEntity
8
BOARD_OUTLINE
62
2
100
AcDbPolyline
90
2
70
0
43
0.000039
39
0.000039
10
-3460.972047
20
-1396.769646
10
-3450.160512
20
-1398.193031
0
LWPOLYLINE
5
17B
100
AcDbEntity
8
BOARD_OUTLINE
62
2
100
AcDbPolyline
90
2
70
0
43
0.000039
39
0.000039
10
-3450.160512
20
-1398.193031
10
-3439.266063
20
-1398.668701
0
LWPOLYLINE
5
17C
100
AcDbEntity
8
BOARD_OUTLINE
62
2
100
AcDbPolyline
90
2
70
0
43
0.000039
39
0.000039
10
-3439.266063
20
-1398.668701
10
-3439.266063
20
-1398.668701
0
LWPOLYLINE
5
17D
100
AcDbEntity
8
BOARD_OUTLINE
62
2
100
AcDbPolyline
90
2
70
0
43
0.000039
39
0.000039
10
-3439.266063
20
1398.668701
10
-3450.160512
20
1398.193031
0
LWPOLYLINE
5
17E
100
AcDbEntity
8
BOARD_OUTLINE
62
2
100
AcDbPolyline
90
2
70
0
43
0.000039
39
0.000039
10
-3450.160512
20
1398.193031
10
-3460.972047
20
1396.769646
0
LWPOLYLINE
5
17F
100
AcDbEntity
8
BOARD_OUTLINE
62
2
100
AcDbPolyline
90
2
70
0
43
0.000039
39
0.000039
10
-3460.972047
20
1396.769646
10
-3471.618425
20
1394.409409
0
LWPOLYLINE
5
180
100
AcDbEntity
8
BOARD_OUTLINE
62
2
100
AcDbPolyline
90
2
70
0
43
0.000039
39
0.000039
10
-3471.618425
20
1394.409409
10
-3482.018543
20
1391.130276
0
LWPOLYLINE
5
181
100
AcDbEntity
8
BOARD_OUTLINE
62
2
100
AcDbPolyline
90
2
70
0
43
0.000039
39
0.000039
10
-3482.018543
20
1391.130276
10
-3492.093307
20
1386.957165
0
LWPOLYLINE
5
182
100
AcDbEntity
8
BOARD_OUTLINE
62
2
100
AcDbPolyline
90
2
70
0
43
0.000039
39
0.000039
10
-3492.093307
20
1386.957165
10
-3501.766063
20
1381.921850
0
LWPOLYLINE
5
183
100
AcDbEntity
8
BOARD_OUTLINE
62
2
100
AcDbPolyline
90
2
70
0
43
0.000039
39
0.000039
10
-3501.766063
20
1381.921850
10
-3510.963110
20
1376.062677
0
LWPOLYLINE
5
184
100
AcDbEntity
8
BOARD_OUTLINE
62
2
100
AcDbPolyline
90
2
70
0
43
0.000039
39
0.000039
10
-3510.963110
20
1376.062677
10
-3519.614488
20
1369.424252
0
LWPOLYLINE
5
185
100
AcDbEntity
8
BOARD_OUTLINE
62
2
100
AcDbPolyline
90
2
70
0
43
0.000039
39
0.000039
10
-3519.614488
20
1369.424252
10
-3527.654409
20
1362.057047
0
LWPOLYLINE
5
186
100
AcDbEntity
8
BOARD_OUTLINE
62
2
100
AcDbPolyline
90
2
70
0
43
0.000039
39
0.000039
10
-3527.654409
20
1362.057047
10
-3535.021614
20
1354.017126
0
LWPOLYLINE
5
187
100
AcDbEntity
8
BOARD_OUTLINE
62
2
100
AcDbPolyline
90
2
70
0
43
0.000039
39
0.000039
10
-3535.021614
20
1354.017126
10
-3541.660039
20
1345.365748
0
LWPOLYLINE
5
188
100
AcDbEntity
8
BOARD_OUTLINE
62
2
100
AcDbPolyline
90
2
70
0
43
0.000039
39
0.000039
10
-3541.660039
20
1345.365748
10
-3547.519213
20
1336.168701
0
LWPOLYLINE
5
189
100
AcDbEntity
8
BOARD_OUTLINE
62
2
100
AcDbPolyline
90
2
70
0
43
0.000039
39
0.000039
10
-3547.519213
20
1336.168701
10
-3552.554528
20
1326.495945
0
LWPOLYLINE
5
18A
100
AcDbEntity
8
BOARD_OUTLINE
62
2
100
AcDbPolyline
90
2
70
0
43
0.000039
39
0.000039
10
-3552.554528
20
1326.495945
10
-3556.727638
20
1316.421181
0
LWPOLYLINE
5
18B
100
AcDbEntity
8
BOARD_OUTLINE
62
2
100
AcDbPolyline
90
2
70
0
43
0.000039
39
0.000039
10
-3556.727638
20
1316.421181
10
-3560.006772
20
1306.021063
0
LWPOLYLINE
5
18C
100
AcDbEntity
8
BOARD_OUTLINE
62
2
100
AcDbPolyline
90
2
70
0
43
0.000039
39
0.000039
10
-3560.006772
20
1306.021063
10
-3562.367008
20
1295.374685
0
LWPOLYLINE
5
18D
100
AcDbEntity
8
BOARD_OUTLINE
62
2
100
AcDbPolyline
90
2
70
0
43
0.000039
39
0.000039
10
-3562.367008
20
1295.374685
10
-3563.790394
20
1284.563150
0
LWPOLYLINE
5
18E
100
AcDbEntity
8
BOARD_OUTLINE
62
2
100
AcDbPolyline
90
2
70
0
43
0.000039
39
0.000039
10
-3563.790394
20
1284.563150
10
-3564.266063
20
1273.668701
0
LWPOLYLINE
5
18F
100
AcDbEntity
8
BOARD_OUTLINE
62
2
100
AcDbPolyline
90
2
70
0
43
0.000039
39
0.000039
10
-3564.266063
20
1273.668701
10
-3564.266063
20
1273.668701
0
LWPOLYLINE
5
190
100
AcDbEntity
8
BOARD_OUTLINE
62
2
100
AcDbPolyline
90
2
70
0
43
0.000039
39
0.000039
10
-3226.607677
20
1398.668740
10
-3439.266024
20
1398.668740
0
LWPOLYLINE
5
191
100
AcDbEntity
8
BOARD_OUTLINE
62
2
100
AcDbPolyline
90
2
70
0
43
0.000039
39
0.000039
10
-3226.607598
20
1398.668701
10
-3193.424449
20
1400.117480
0
LWPOLYLINE
5
192
100
AcDbEntity
8
BOARD_OUTLINE
62
2
100
AcDbPolyline
90
2
70
0
43
0.000039
39
0.000039
10
-3193.424449
20
1400.117480
10
-3160.493819
20
1404.452874
0
LWPOLYLINE
5
193
100
AcDbEntity
8
BOARD_OUTLINE
62
2
100
AcDbPolyline
90
2
70
0
43
0.000039
39
0.000039
10
-3160.493819
20
1404.452874
10
-3128.066378
20
1411.641890
0
LWPOLYLINE
5
194
100
AcDbEntity
8
BOARD_OUTLINE
62
2
100
AcDbPolyline
90
2
70
0
43
0.000039
39
0.000039
10
-3128.066378
20
1411.641890
10
-3096.388898
20
1421.629764
0
LWPOLYLINE
5
195
100
AcDbEntity
8
BOARD_OUTLINE
62
2
100
AcDbPolyline
90
2
70
0
43
0.000039
39
0.000039
10
-3096.388898
20
1421.629764
10
-3065.702480
20
1434.340472
0
LWPOLYLINE
5
196
100
AcDbEntity
8
BOARD_OUTLINE
62
2
100
AcDbPolyline
90
2
70
0
43
0.000039
39
0.000039
10
-3065.702480
20
1434.340472
10
-3036.240630
20
1449.677362
0
LWPOLYLINE
5
197
100
AcDbEntity
8
BOARD_OUTLINE
62
2
100
AcDbPolyline
90
2
70
0
43
0.000039
39
0.000039
10
-3036.240630
20
1449.677362
10
-3008.227559
20
1467.523622
0
LWPOLYLINE
5
198
100
AcDbEntity
8
BOARD_OUTLINE
62
2
100
AcDbPolyline
90
2
70
0
43
0.000039
39
0.000039
10
-3008.227559
20
1467.523622
10
-2981.876535
20
1487.743504
0
LWPOLYLINE
5
199
100
AcDbEntity
8
BOARD_OUTLINE
62
2
100
AcDbPolyline
90
2
70
0
43
0.000039
39
0.000039
10
-2981.876535
20
1487.743504
10
-2957.388031
20
1510.183071
0
LWPOLYLINE
5
19A
100
AcDbEntity
8
BOARD_OUTLINE
62
2
100
AcDbPolyline
90
2
70
0
43
0.000039
39
0.000039
10
-2957.388031
20
1510.183071
10
-2934.948465
20
1534.671575
0
LWPOLYLINE
5
19B
100
AcDbEntity
8
BOARD_OUTLINE
62
2
100
AcDbPolyline
90
2
70
0
43
0.000039
39
0.000039
10
-2934.948465
20
1534.671575
10
-2914.728583
20
1561.022598
0
LWPOLYLINE
5
19C
100
AcDbEntity
8
BOARD_OUTLINE
62
2
100
AcDbPolyline
90
2
70
0
43
0.000039
39
0.000039
10
-2914.728583
20
1561.022598
10
-2896.882323
20
1589.035630
0
LWPOLYLINE
5
19D
100
AcDbEntity
8
BOARD_OUTLINE
62
2
100
AcDbPolyline
90
2
70
0
43
0.000039
39
0.000039
10
-2896.882323
20
1589.035630
10
-2881.545433
20
1618.497520
0
LWPOLYLINE
5
19E
100
AcDbEntity
8
BOARD_OUTLINE
62
2
100
AcDbPolyline
90
2
70
0
43
0.000039
39
0.000039
10
-2881.545433
20
1618.497520
10
-2868.834724
20
1649.183937
0
LWPOLYLINE
5
19F
100
AcDbEntity
8
BOARD_OUTLINE
62
2
100
AcDbPolyline
90
2
70
0
43
0.000039
39
0.000039
10
-2868.834724
20
1649.183937
10
-2858.846850
20
1680.861417
0
LWPOLYLINE
5
1A0
100
AcDbEntity
8
BOARD_OUTLINE
62
2
100
AcDbPolyline
90
2
70
0
43
0.000039
39
0.000039
10
-2858.846850
20
1680.861417
10
-2851.657835
20
1713.288858
0
LWPOLYLINE
5
1A1
100
AcDbEntity
8
BOARD_OUTLINE
62
2
100
AcDbPolyline
90
2
70
0
43
0.000039
39
0.000039
10
-2851.657835
20
1713.288858
10
-2847.322441
20
1746.219488
0
LWPOLYLINE
5
1A2
100
AcDbEntity
8
BOARD_OUTLINE
62
2
100
AcDbPolyline
90
2
70
0
43
0.000039
39
0.000039
10
-2847.322441
20
1746.219488
10
-2845.873661
20
1779.402598
0
LWPOLYLINE
5
1A3
100
AcDbEntity
8
BOARD_OUTLINE
62
2
100
AcDbPolyline
90
2
70
0
43
0.000039
39
0.000039
10
-2845.873661
20
1779.402598
10
-2845.873661
20
1779.402598
0
LWPOLYLINE
5
1A4
100
AcDbEntity
8
BOARD_OUTLINE
62
2
100
AcDbPolyline
90
2
70
0
43
0.000039
39
0.000039
10
-2845.873622
20
1941.766063
10
-2845.873622
20
1779.402677
0
LWPOLYLINE
5
1A5
100
AcDbEntity
8
BOARD_OUTLINE
62
2
100
AcDbPolyline
90
2
70
0
43
0.000039
39
0.000039
10
-2720.873701
20
2066.766063
10
-2731.768150
20
2066.290394
0
LWPOLYLINE
5
1A6
100
AcDbEntity
8
BOARD_OUTLINE
62
2
100
AcDbPolyline
90
2
70
0
43
0.000039
39
0.000039
10
-2731.768150
20
2066.290394
10
-2742.579685
20
2064.867008
0
LWPOLYLINE
5
1A7
100
AcDbEntity
8
BOARD_OUTLINE
62
2
100
AcDbPolyline
90
2
70
0
43
0.000039
39
0.000039
10
-2742.579685
20
2064.867008
10
-2753.226063
20
2062.506772
0
LWPOLYLINE
5
1A8
100
AcDbEntity
8
BOARD_OUTLINE
62
2
100
AcDbPolyline
90
2
70
0
43
0.000039
39
0.000039
10
-2753.226063
20
2062.506772
10
-2763.626181
20
2059.227638
0
LWPOLYLINE
5
1A9
100
AcDbEntity
8
BOARD_OUTLINE
62
2
100
AcDbPolyline
90
2
70
0
43
0.000039
39
0.000039
10
-2763.626181
20
2059.227638
10
-2773.700945
20
2055.054528
0
LWPOLYLINE
5
1AA
100
AcDbEntity
8
BOARD_OUTLINE
62
2
100
AcDbPolyline
90
2
70
0
43
0.000039
39
0.000039
10
-2773.700945
20
2055.054528
10
-2783.373701
20
2050.019213
0
LWPOLYLINE
5
1AB
100
AcDbEntity
8
BOARD_OUTLINE
62
2
100
AcDbPolyline
90
2
70
0
43
0.000039
39
0.000039
10
-2783.373701
20
2050.019213
10
-2792.570748
20
2044.160039
0
LWPOLYLINE
5
1AC
100
AcDbEntity
8
BOARD_OUTLINE
62
2
100
AcDbPolyline
90
2
70
0
43
0.000039
39
0.000039
10
-2792.570748
20
2044.160039
10
-2801.222126
20
2037.521614
0
LWPOLYLINE
5
1AD
100
AcDbEntity
8
BOARD_OUTLINE
62
2
100
AcDbPolyline
90
2
70
0
43
0.000039
39
0.000039
10
-2801.222126
20
2037.521614
10
-2809.262047
20
2030.154409
0
LWPOLYLINE
5
1AE
100
AcDbEntity
8
BOARD_OUTLINE
62
2
100
AcDbPolyline
90
2
70
0
43
0.000039
39
0.000039
10
-2809.262047
20
2030.154409
10
-2816.629252
20
2022.114488
0
LWPOLYLINE
5
1AF
100
AcDbEntity
8
BOARD_OUTLINE
62
2
100
AcDbPolyline
90
2
70
0
43
0.000039
39
0.000039
10
-2816.629252
20
2022.114488
10
-2823.267677
20
2013.463110
0
LWPOLYLINE
5
1B0
100
AcDbEntity
8
BOARD_OUTLINE
62
2
100
AcDbPolyline
90
2
70
0
43
0.000039
39
0.000039
10
-2823.267677
20
2013.463110
10
-2829.126850
20
2004.266063
0
LWPOLYLINE
5
1B1
100
AcDbEntity
8
BOARD_OUTLINE
62
2
100
AcDbPolyline
90
2
70
0
43
0.000039
39
0.000039
10
-2829.126850
20
2004.266063
10
-2834.162165
20
1994.593307
0
LWPOLYLINE
5
1B2
100
AcDbEntity
8
BOARD_OUTLINE
62
2
100
AcDbPolyline
90
2
70
0
43
0.000039
39
0.000039
10
-2834.162165
20
1994.593307
10
-2838.335276
20
1984.518543
0
LWPOLYLINE
5
1B3
100
AcDbEntity
8
BOARD_OUTLINE
62
2
100
AcDbPolyline
90
2
70
0
43
0.000039
39
0.000039
10
-2838.335276
20
1984.518543
10
-2841.614409
20
1974.118425
0
LWPOLYLINE
5
1B4
100
AcDbEntity
8
BOARD_OUTLINE
62
2
100
AcDbPolyline
90
2
70
0
43
0.000039
39
0.000039
10
-2841.614409
20
1974.118425
10
-2843.974646
20
1963.472047
0
LWPOLYLINE
5
1B5
100
AcDbEntity
8
BOARD_OUTLINE
62
2
100
AcDbPolyline
90
2
70
0
43
0.000039
39
0.000039
10
-2843.974646
20
1963.472047
10
-2845.398031
20
1952.660512
0
LWPOLYLINE
5
1B6
100
AcDbEntity
8
BOARD_OUTLINE
62
2
100
AcDbPolyline
90
2
70
0
43
0.000039
39
0.000039
10
-2845.398031
20
1952.660512
10
-2845.873701
20
1941.766063
0
LWPOLYLINE
5
1B7
100
AcDbEntity
8
BOARD_OUTLINE
62
2
100
AcDbPolyline
90
2
70
0
43
0.000039
39
0.000039
10
-2845.873701
20
1941.766063
10
-2845.873701
20
1941.766063
0
LWPOLYLINE
5
1B8
100
AcDbEntity
8
BOARD_OUTLINE
62
2
100
AcDbPolyline
90
2
70
0
43
0.000039
39
0.000039
10
-2720.873701
20
2066.766063
10
-2050.000000
20
2066.766142
0
LWPOLYLINE
5
1B9
100
AcDbEntity
8
BOARD_OUTLINE
62
2
100
AcDbPolyline
90
2
70
0
43
0.000039
39
0.000039
10
-3564.266063
20
1273.668701
10
-3564.266063
20
0.000000
0
LWPOLYLINE
5
1BA
100
AcDbEntity
8
BOARD_OUTLINE
62
2
100
AcDbPolyline
90
2
70
0
43
0.000039
39
0.000039
10
-1250.000000
20
2066.766063
10
-1250.000000
20
1398.668740
0
LWPOLYLINE
5
1BB
100
AcDbEntity
8
BOARD_OUTLINE
62
2
100
AcDbPolyline
90
2
70
0
43
0.000039
39
0.000039
10
-2845.873622
20
0.000000
10
-2845.873622
20
-800.000000
0
LWPOLYLINE
5
1BC
100
AcDbEntity
8
BOARD_OUTLINE
62
2
100
AcDbPolyline
90
2
70
0
43
0.000039
39
0.000039
10
-2845.873622
20
-800.000000
10
-3564.000000
20
-800.000000
0
LWPOLYLINE
5
1BD
100
AcDbEntity
8
BOARD_OUTLINE
62
2
100
AcDbPolyline
90
2
70
0
43
0.000039
39
0.000039
10
-2845.873622
20
0.000000
10
-3564.266063
20
0.000000
0
LWPOLYLINE
5
1BE
100
AcDbEntity
8
BOARD_OUTLINE
62
2
100
AcDbPolyline
90
2
70
0
43
0.000039
39
0.000039
10
-3564.000000
20
-800.000000
10
-3564.266063
20
-1273.668701
0
LWPOLYLINE
5
1BF
100
AcDbEntity
8
BOARD_OUTLINE
62
2
100
AcDbPolyline
90
2
70
0
43
0.000039
39
0.000039
10
2845.873701
20
1941.766063
10
2845.398031
20
1952.660512
0
LWPOLYLINE
5
1C0
100
AcDbEntity
8
BOARD_OUTLINE
62
2
100
AcDbPolyline
90
2
70
0
43
0.000039
39
0.000039
10
2845.398031
20
1952.660512
10
2843.974646
20
1963.472047
0
LWPOLYLINE
5
1C1
100
AcDbEntity
8
BOARD_OUTLINE
62
2
100
AcDbPolyline
90
2
70
0
43
0.000039
39
0.000039
10
2843.974646
20
1963.472047
10
2841.614409
20
1974.118425
0
LWPOLYLINE
5
1C2
100
AcDbEntity
8
BOARD_OUTLINE
62
2
100
AcDbPolyline
90
2
70
0
43
0.000039
39
0.000039
10
2841.614409
20
1974.118425
10
2838.335276
20
1984.518543
0
LWPOLYLINE
5
1C3
100
AcDbEntity
8
BOARD_OUTLINE
62
2
100
AcDbPolyline
90
2
70
0
43
0.000039
39
0.000039
10
2838.335276
20
1984.518543
10
2834.162165
20
1994.593307
0
LWPOLYLINE
5
1C4
100
AcDbEntity
8
BOARD_OUTLINE
62
2
100
AcDbPolyline
90
2
70
0
43
0.000039
39
0.000039
10
2834.162165
20
1994.593307
10
2829.126850
20
2004.266063
0
LWPOLYLINE
5
1C5
100
AcDbEntity
8
BOARD_OUTLINE
62
2
100
AcDbPolyline
90
2
70
0
43
0.000039
39
0.000039
10
2829.126850
20
2004.266063
10
2823.267677
20
2013.463110
0
LWPOLYLINE
5
1C6
100
AcDbEntity
8
BOARD_OUTLINE
62
2
100
AcDbPolyline
90
2
70
0
43
0.000039
39
0.000039
10
2823.267677
20
2013.463110
10
2816.629252
20
2022.114488
0
LWPOLYLINE
5
1C7
100
AcDbEntity
8
BOARD_OUTLINE
62
2
100
AcDbPolyline
90
2
70
0
43
0.000039
39
0.000039
10
2816.629252
20
2022.114488
10
2809.262047
20
2030.154409
0
LWPOLYLINE
5
1C8
100
AcDbEntity
8
BOARD_OUTLINE
62
2
100
AcDbPolyline
90
2
70
0
43
0.000039
39
0.000039
10
2809.262047
20
2030.154409
10
2801.222126
20
2037.521614
0
LWPOLYLINE
5
1C9
100
AcDbEntity
8
BOARD_OUTLINE
62
2
100
AcDbPolyline
90
2
70
0
43
0.000039
39
0.000039
10
2801.222126
20
2037.521614
10
2792.570748
20
2044.160039
0
LWPOLYLINE
5
1CA
100
AcDbEntity
8
BOARD_OUTLINE
62
2
100
AcDbPolyline
90
2
70
0
43
0.000039
39
0.000039
10
2792.570748
20
2044.160039
10
2783.373701
20
2050.019213
0
LWPOLYLINE
5
1CB
100
AcDbEntity
8
BOARD_OUTLINE
62
2
100
AcDbPolyline
90
2
70
0
43
0.000039
39
0.000039
10
2783.373701
20
2050.019213
10
2773.700945
20
2055.054528
0
LWPOLYLINE
5
1CC
100
AcDbEntity
8
BOARD_OUTLINE
62
2
100
AcDbPolyline
90
2
70
0
43
0.000039
39
0.000039
10
2773.700945
20
2055.054528
10
2763.626181
20
2059.227638
0
LWPOLYLINE
5
1CD
100
AcDbEntity
8
BOARD_OUTLINE
62
2
100
AcDbPolyline
90
2
70
0
43
0.000039
39
0.000039
10
2763.626181
20
2059.227638
10
2753.226063
20
2062.506772
0
LWPOLYLINE
5
1CE
100
AcDbEntity
8
BOARD_OUTLINE
62
2
100
AcDbPolyline
90
2
70
0
43
0.000039
39
0.000039
10
2753.226063
20
2062.506772
10
2742.579685
20
2064.867008
0
LWPOLYLINE
5
1CF
100
AcDbEntity
8
BOARD_OUTLINE
62
2
100
AcDbPolyline
90
2
70
0
43
0.000039
39
0.000039
10
2742.579685
20
2064.867008
10
2731.768150
20
2066.290394
0
LWPOLYLINE
5
1D0
100
AcDbEntity
8
BOARD_OUTLINE
62
2
100
AcDbPolyline
90
2
70
0
43
0.000039
39
0.000039
10
2731.768150
20
2066.290394
10
2720.873701
20
2066.766063
0
LWPOLYLINE
5
1D1
100
AcDbEntity
8
BOARD_OUTLINE
62
2
100
AcDbPolyline
90
2
70
0
43
0.000039
39
0.000039
10
2720.873701
20
2066.766063
10
2720.873701
20
2066.766063
0
LWPOLYLINE
5
1D2
100
AcDbEntity
8
BOARD_OUTLINE
62
2
100
AcDbPolyline
90
2
70
0
43
0.000039
39
0.000039
10
2845.873622
20
1779.402677
10
2845.873622
20
1941.766063
0
LWPOLYLINE
5
1D3
100
AcDbEntity
8
BOARD_OUTLINE
62
2
100
AcDbPolyline
90
2
70
0
43
0.000039
39
0.000039
10
2845.873661
20
1779.402638
10
2847.322441
20
1746.219488
0
LWPOLYLINE
5
1D4
100
AcDbEntity
8
BOARD_OUTLINE
62
2
100
AcDbPolyline
90
2
70
0
43
0.000039
39
0.000039
10
2847.322441
20
1746.219488
10
2851.657835
20
1713.288858
0
LWPOLYLINE
5
1D5
100
AcDbEntity
8
BOARD_OUTLINE
62
2
100
AcDbPolyline
90
2
70
0
43
0.000039
39
0.000039
10
2851.657835
20
1713.288858
10
2858.846850
20
1680.861417
0
LWPOLYLINE
5
1D6
100
AcDbEntity
8
BOARD_OUTLINE
62
2
100
AcDbPolyline
90
2
70
0
43
0.000039
39
0.000039
10
2858.846850
20
1680.861417
10
2868.834724
20
1649.183937
0
LWPOLYLINE
5
1D7
100
AcDbEntity
8
BOARD_OUTLINE
62
2
100
AcDbPolyline
90
2
70
0
43
0.000039
39
0.000039
10
2868.834724
20
1649.183937
10
2881.545433
20
1618.497520
0
LWPOLYLINE
5
1D8
100
AcDbEntity
8
BOARD_OUTLINE
62
2
100
AcDbPolyline
90
2
70
0
43
0.000039
39
0.000039
10
2881.545433
20
1618.497520
10
2896.882323
20
1589.035669
0
LWPOLYLINE
5
1D9
100
AcDbEntity
8
BOARD_OUTLINE
62
2
100
AcDbPolyline
90
2
70
0
43
0.000039
39
0.000039
10
2896.882323
20
1589.035669
10
2914.728583
20
1561.022598
0
LWPOLYLINE
5
1DA
100
AcDbEntity
8
BOARD_OUTLINE
62
2
100
AcDbPolyline
90
2
70
0
43
0.000039
39
0.000039
10
2914.728583
20
1561.022598
10
2934.948465
20
1534.671575
0
LWPOLYLINE
5
1DB
100
AcDbEntity
8
BOARD_OUTLINE
62
2
100
AcDbPolyline
90
2
70
0
43
0.000039
39
0.000039
10
2934.948465
20
1534.671575
10
2957.388031
20
1510.183071
0
LWPOLYLINE
5
1DC
100
AcDbEntity
8
BOARD_OUTLINE
62
2
100
AcDbPolyline
90
2
70
0
43
0.000039
39
0.000039
10
2957.388031
20
1510.183071
10
2981.876535
20
1487.743504
0
LWPOLYLINE
5
1DD
100
AcDbEntity
8
BOARD_OUTLINE
62
2
100
AcDbPolyline
90
2
70
0
43
0.000039
39
0.000039
10
2981.876535
20
1487.743504
10
3008.227559
20
1467.523622
0
LWPOLYLINE
5
1DE
100
AcDbEntity
8
BOARD_OUTLINE
62
2
100
AcDbPolyline
90
2
70
0
43
0.000039
39
0.000039
10
3008.227559
20
1467.523622
10
3036.240591
20
1449.677362
0
LWPOLYLINE
5
1DF
100
AcDbEntity
8
BOARD_OUTLINE
62
2
100
AcDbPolyline
90
2
70
0
43
0.000039
39
0.000039
10
3036.240591
20
1449.677362
10
3065.702480
20
1434.340472
0
LWPOLYLINE
5
1E0
100
AcDbEntity
8
BOARD_OUTLINE
62
2
100
AcDbPolyline
90
2
70
0
43
0.000039
39
0.000039
10
3065.702480
20
1434.340472
10
3096.388898
20
1421.629764
0
LWPOLYLINE
5
1E1
100
AcDbEntity
8
BOARD_OUTLINE
62
2
100
AcDbPolyline
90
2
70
0
43
0.000039
39
0.000039
10
3096.388898
20
1421.629764
10
3128.066378
20
1411.641890
0
LWPOLYLINE
5
1E2
100
AcDbEntity
8
BOARD_OUTLINE
62
2
100
AcDbPolyline
90
2
70
0
43
0.000039
39
0.000039
10
3128.066378
20
1411.641890
10
3160.493819
20
1404.452874
0
LWPOLYLINE
5
1E3
100
AcDbEntity
8
BOARD_OUTLINE
62
2
100
AcDbPolyline
90
2
70
0
43
0.000039
39
0.000039
10
3160.493819
20
1404.452874
10
3193.424449
20
1400.117480
0
LWPOLYLINE
5
1E4
100
AcDbEntity
8
BOARD_OUTLINE
62
2
100
AcDbPolyline
90
2
70
0
43
0.000039
39
0.000039
10
3193.424449
20
1400.117480
10
3226.607559
20
1398.668701
0
LWPOLYLINE
5
1E5
100
AcDbEntity
8
BOARD_OUTLINE
62
2
100
AcDbPolyline
90
2
70
0
43
0.000039
39
0.000039
10
3226.607559
20
1398.668701
10
3226.607598
20
1398.668701
0
LWPOLYLINE
5
1E6
100
AcDbEntity
8
BOARD_OUTLINE
62
2
100
AcDbPolyline
90
2
70
0
43
0.000039
39
0.000039
10
3439.266024
20
1398.668740
10
3226.607677
20
1398.668740
0
LWPOLYLINE
5
1E7
100
AcDbEntity
8
BOARD_OUTLINE
62
2
100
AcDbPolyline
90
2
70
0
43
0.000039
39
0.000039
10
3564.266063
20
1273.668701
10
3563.790394
20
1284.563150
0
LWPOLYLINE
5
1E8
100
AcDbEntity
8
BOARD_OUTLINE
62
2
100
AcDbPolyline
90
2
70
0
43
0.000039
39
0.000039
10
3563.790394
20
1284.563150
10
3562.367008
20
1295.374685
0
LWPOLYLINE
5
1E9
100
AcDbEntity
8
BOARD_OUTLINE
62
2
100
AcDbPolyline
90
2
70
0
43
0.000039
39
0.000039
10
3562.367008
20
1295.374685
10
3560.006772
20
1306.021063
0
LWPOLYLINE
5
1EA
100
AcDbEntity
8
BOARD_OUTLINE
62
2
100
AcDbPolyline
90
2
70
0
43
0.000039
39
0.000039
10
3560.006772
20
1306.021063
10
3556.727638
20
1316.421181
0
LWPOLYLINE
5
1EB
100
AcDbEntity
8
BOARD_OUTLINE
62
2
100
AcDbPolyline
90
2
70
0
43
0.000039
39
0.000039
10
3556.727638
20
1316.421181
10
3552.554528
20
1326.495945
0
LWPOLYLINE
5
1EC
100
AcDbEntity
8
BOARD_OUTLINE
62
2
100
AcDbPolyline
90
2
70
0
43
0.000039
39
0.000039
10
3552.554528
20
1326.495945
10
3547.519213
20
1336.168701
0
LWPOLYLINE
5
1ED
100
AcDbEntity
8
BOARD_OUTLINE
62
2
100
AcDbPolyline
90
2
70
0
43
0.000039
39
0.000039
10
3547.519213
20
1336.168701
10
3541.660039
20
1345.365748
0
LWPOLYLINE
5
1EE
100
AcDbEntity
8
BOARD_OUTLINE
62
2
100
AcDbPolyline
90
2
70
0
43
0.000039
39
0.000039
10
3541.660039
20
1345.365748
10
3535.021614
20
1354.017126
0
LWPOLYLINE
5
1EF
100
AcDbEntity
8
BOARD_OUTLINE
62
2
100
AcDbPolyline
90
2
70
0
43
0.000039
39
0.000039
10
3535.021614
20
1354.017126
10
3527.654409
20
1362.057047
0
LWPOLYLINE
5
1F0
100
AcDbEntity
8
BOARD_OUTLINE
62
2
100
AcDbPolyline
90
2
70
0
43
0.000039
39
0.000039
10
3527.654409
20
1362.057047
10
3519.614488
20
1369.424252
0
LWPOLYLINE
5
1F1
100
AcDbEntity
8
BOARD_OUTLINE
62
2
100
AcDbPolyline
90
2
70
0
43
0.000039
39
0.000039
10
3519.614488
20
1369.424252
10
3510.963110
20
1376.062677
0
LWPOLYLINE
5
1F2
100
AcDbEntity
8
BOARD_OUTLINE
62
2
100
AcDbPolyline
90
2
70
0
43
0.000039
39
0.000039
10
3510.963110
20
1376.062677
10
3501.766063
20
1381.921850
0
LWPOLYLINE
5
1F3
100
AcDbEntity
8
BOARD_OUTLINE
62
2
100
AcDbPolyline
90
2
70
0
43
0.000039
39
0.000039
10
3501.766063
20
1381.921850
10
3492.093307
20
1386.957165
0
LWPOLYLINE
5
1F4
100
AcDbEntity
8
BOARD_OUTLINE
62
2
100
AcDbPolyline
90
2
70
0
43
0.000039
39
0.000039
10
3492.093307
20
1386.957165
10
3482.018543
20
1391.130276
0
LWPOLYLINE
5
1F5
100
AcDbEntity
8
BOARD_OUTLINE
62
2
100
AcDbPolyline
90
2
70
0
43
0.000039
39
0.000039
10
3482.018543
20
1391.130276
10
3471.618425
20
1394.409409
0
LWPOLYLINE
5
1F6
100
AcDbEntity
8
BOARD_OUTLINE
62
2
100
AcDbPolyline
90
2
70
0
43
0.000039
39
0.000039
10
3471.618425
20
1394.409409
10
3460.972047
20
1396.769646
0
LWPOLYLINE
5
1F7
100
AcDbEntity
8
BOARD_OUTLINE
62
2
100
AcDbPolyline
90
2
70
0
43
0.000039
39
0.000039
10
3460.972047
20
1396.769646
10
3450.160512
20
1398.193031
0
LWPOLYLINE
5
1F8
100
AcDbEntity
8
BOARD_OUTLINE
62
2
100
AcDbPolyline
90
2
70
0
43
0.000039
39
0.000039
10
3450.160512
20
1398.193031
10
3439.266063
20
1398.668701
0
LWPOLYLINE
5
1F9
100
AcDbEntity
8
BOARD_OUTLINE
62
2
100
AcDbPolyline
90
2
70
0
43
0.000039
39
0.000039
10
3439.266063
20
1398.668701
10
3439.266063
20
1398.668701
0
LWPOLYLINE
5
1FA
100
AcDbEntity
8
BOARD_OUTLINE
62
2
100
AcDbPolyline
90
2
70
0
43
0.000039
39
0.000039
10
3226.607677
20
-1398.668740
10
3439.266024
20
-1398.668740
0
LWPOLYLINE
5
1FB
100
AcDbEntity
8
BOARD_OUTLINE
62
2
100
AcDbPolyline
90
2
70
0
43
0.000039
39
0.000039
10
3226.607598
20
-1398.668701
10
3193.424449
20
-1400.117480
0
LWPOLYLINE
5
1FC
100
AcDbEntity
8
BOARD_OUTLINE
62
2
100
AcDbPolyline
90
2
70
0
43
0.000039
39
0.000039
10
3193.424449
20
-1400.117480
10
3160.493819
20
-1404.452874
0
LWPOLYLINE
5
1FD
100
AcDbEntity
8
BOARD_OUTLINE
62
2
100
AcDbPolyline
90
2
70
0
43
0.000039
39
0.000039
10
3160.493819
20
-1404.452874
10
3128.066378
20
-1411.641890
0
LWPOLYLINE
5
1FE
100
AcDbEntity
8
BOARD_OUTLINE
62
2
100
AcDbPolyline
90
2
70
0
43
0.000039
39
0.000039
10
3128.066378
20
-1411.641890
10
3096.388898
20
-1421.629764
0
LWPOLYLINE
5
1FF
100
AcDbEntity
8
BOARD_OUTLINE
62
2
100
AcDbPolyline
90
2
70
0
43
0.000039
39
0.000039
10
3096.388898
20
-1421.629764
10
3065.702480
20
-1434.340472
0
LWPOLYLINE
5
200
100
AcDbEntity
8
BOARD_OUTLINE
62
2
100
AcDbPolyline
90
2
70
0
43
0.000039
39
0.000039
10
3065.702480
20
-1434.340472
10
3036.240630
20
-1449.677362
0
LWPOLYLINE
5
201
100
AcDbEntity
8
BOARD_OUTLINE
62
2
100
AcDbPolyline
90
2
70
0
43
0.000039
39
0.000039
10
3036.240630
20
-1449.677362
10
3008.227559
20
-1467.523622
0
LWPOLYLINE
5
202
100
AcDbEntity
8
BOARD_OUTLINE
62
2
100
AcDbPolyline
90
2
70
0
43
0.000039
39
0.000039
10
3008.227559
20
-1467.523622
10
2981.876535
20
-1487.743504
0
LWPOLYLINE
5
203
100
AcDbEntity
8
BOARD_OUTLINE
62
2
100
AcDbPolyline
90
2
70
0
43
0.000039
39
0.000039
10
2981.876535
20
-1487.743504
10
2957.388031
20
-1510.183071
0
LWPOLYLINE
5
204
100
AcDbEntity
8
BOARD_OUTLINE
62
2
100
AcDbPolyline
90
2
70
0
43
0.000039
39
0.000039
10
2957.388031
20
-1510.183071
10
2934.948465
20
-1534.671575
0
LWPOLYLINE
5
205
100
AcDbEntity
8
BOARD_OUTLINE
62
2
100
AcDbPolyline
90
2
70
0
43
0.000039
39
0.000039
10
2934.948465
20
-1534.671575
10
2914.728583
20
-1561.022598
0
LWPOLYLINE
5
206
100
AcDbEntity
8
BOARD_OUTLINE
62
2
100
AcDbPolyline
90
2
70
0
43
0.000039
39
0.000039
10
2914.728583
20
-1561.022598
10
2896.882323
20
-1589.035630
0
LWPOLYLINE
5
207
100
AcDbEntity
8
BOARD_OUTLINE
62
2
100
AcDbPolyline
90
2
70
0
43
0.000039
39
0.000039
10
2896.882323
20
-1589.035630
10
2881.545433
20
-1618.497520
0
LWPOLYLINE
5
208
100
AcDbEntity
8
BOARD_OUTLINE
62
2
100
AcDbPolyline
90
2
70
0
43
0.000039
39
0.000039
10
2881.545433
20
-1618.497520
10
2868.834724
20
-1649.183937
0
LWPOLYLINE
5
209
100
AcDbEntity
8
BOARD_OUTLINE
62
2
100
AcDbPolyline
90
2
70
0
43
0.000039
39
0.000039
10
2868.834724
20
-1649.183937
10
2858.846850
20
-1680.861417
0
LWPOLYLINE
5
20A
100
AcDbEntity
8
BOARD_OUTLINE
62
2
100
AcDbPolyline
90
2
70
0
43
0.000039
39
0.000039
10
2858.846850
20
-1680.861417
10
2851.657835
20
-1713.288858
0
LWPOLYLINE
5
20B
100
AcDbEntity
8
BOARD_OUTLINE
62
2
100
AcDbPolyline
90
2
70
0
43
0.000039
39
0.000039
10
2851.657835
20
-1713.288858
10
2847.322441
20
-1746.219488
0
LWPOLYLINE
5
20C
100
AcDbEntity
8
BOARD_OUTLINE
62
2
100
AcDbPolyline
90
2
70
0
43
0.000039
39
0.000039
10
2847.322441
20
-1746.219488
10
2845.873661
20
-1779.402598
0
LWPOLYLINE
5
20D
100
AcDbEntity
8
BOARD_OUTLINE
62
2
100
AcDbPolyline
90
2
70
0
43
0.000039
39
0.000039
10
2845.873661
20
-1779.402598
10
2845.873661
20
-1779.402638
0
LWPOLYLINE
5
20E
100
AcDbEntity
8
BOARD_OUTLINE
62
2
100
AcDbPolyline
90
2
70
0
43
0.000039
39
0.000039
10
2845.873622
20
-1941.766063
10
2845.873622
20
-1779.402677
0
LWPOLYLINE
5
20F
100
AcDbEntity
8
BOARD_OUTLINE
62
2
100
AcDbPolyline
90
2
70
0
43
0.000039
39
0.000039
10
2720.873701
20
-2066.766063
10
2731.768150
20
-2066.290394
0
LWPOLYLINE
5
210
100
AcDbEntity
8
BOARD_OUTLINE
62
2
100
AcDbPolyline
90
2
70
0
43
0.000039
39
0.000039
10
2731.768150
20
-2066.290394
10
2742.579685
20
-2064.867008
0
LWPOLYLINE
5
211
100
AcDbEntity
8
BOARD_OUTLINE
62
2
100
AcDbPolyline
90
2
70
0
43
0.000039
39
0.000039
10
2742.579685
20
-2064.867008
10
2753.226063
20
-2062.506772
0
LWPOLYLINE
5
212
100
AcDbEntity
8
BOARD_OUTLINE
62
2
100
AcDbPolyline
90
2
70
0
43
0.000039
39
0.000039
10
2753.226063
20
-2062.506772
10
2763.626181
20
-2059.227638
0
LWPOLYLINE
5
213
100
AcDbEntity
8
BOARD_OUTLINE
62
2
100
AcDbPolyline
90
2
70
0
43
0.000039
39
0.000039
10
2763.626181
20
-2059.227638
10
2773.700945
20
-2055.054528
0
LWPOLYLINE
5
214
100
AcDbEntity
8
BOARD_OUTLINE
62
2
100
AcDbPolyline
90
2
70
0
43
0.000039
39
0.000039
10
2773.700945
20
-2055.054528
10
2783.373701
20
-2050.019213
0
LWPOLYLINE
5
215
100
AcDbEntity
8
BOARD_OUTLINE
62
2
100
AcDbPolyline
90
2
70
0
43
0.000039
39
0.000039
10
2783.373701
20
-2050.019213
10
2792.570748
20
-2044.160039
0
LWPOLYLINE
5
216
100
AcDbEntity
8
BOARD_OUTLINE
62
2
100
AcDbPolyline
90
2
70
0
43
0.000039
39
0.000039
10
2792.570748
20
-2044.160039
10
2801.222126
20
-2037.521614
0
LWPOLYLINE
5
217
100
AcDbEntity
8
BOARD_OUTLINE
62
2
100
AcDbPolyline
90
2
70
0
43
0.000039
39
0.000039
10
2801.222126
20
-2037.521614
10
2809.262047
20
-2030.154409
0
LWPOLYLINE
5
218
100
AcDbEntity
8
BOARD_OUTLINE
62
2
100
AcDbPolyline
90
2
70
0
43
0.000039
39
0.000039
10
2809.262047
20
-2030.154409
10
2816.629252
20
-2022.114488
0
LWPOLYLINE
5
219
100
AcDbEntity
8
BOARD_OUTLINE
62
2
100
AcDbPolyline
90
2
70
0
43
0.000039
39
0.000039
10
2816.629252
20
-2022.114488
10
2823.267677
20
-2013.463110
0
LWPOLYLINE
5
21A
100
AcDbEntity
8
BOARD_OUTLINE
62
2
100
AcDbPolyline
90
2
70
0
43
0.000039
39
0.000039
10
2823.267677
20
-2013.463110
10
2829.126850
20
-2004.266063
0
LWPOLYLINE
5
21B
100
AcDbEntity
8
BOARD_OUTLINE
62
2
100
AcDbPolyline
90
2
70
0
43
0.000039
39
0.000039
10
2829.126850
20
-2004.266063
10
2834.162165
20
-1994.593307
0
LWPOLYLINE
5
21C
100
AcDbEntity
8
BOARD_OUTLINE
62
2
100
AcDbPolyline
90
2
70
0
43
0.000039
39
0.000039
10
2834.162165
20
-1994.593307
10
2838.335276
20
-1984.518543
0
LWPOLYLINE
5
21D
100
AcDbEntity
8
BOARD_OUTLINE
62
2
100
AcDbPolyline
90
2
70
0
43
0.000039
39
0.000039
10
2838.335276
20
-1984.518543
10
2841.614409
20
-1974.118425
0
LWPOLYLINE
5
21E
100
AcDbEntity
8
BOARD_OUTLINE
62
2
100
AcDbPolyline
90
2
70
0
43
0.000039
39
0.000039
10
2841.614409
20
-1974.118425
10
2843.974646
20
-1963.472047
0
LWPOLYLINE
5
21F
100
AcDbEntity
8
BOARD_OUTLINE
62
2
100
AcDbPolyline
90
2
70
0
43
0.000039
39
0.000039
10
2843.974646
20
-1963.472047
10
2845.398031
20
-1952.660512
0
LWPOLYLINE
5
220
100
AcDbEntity
8
BOARD_OUTLINE
62
2
100
AcDbPolyline
90
2
70
0
43
0.000039
39
0.000039
10
2845.398031
20
-1952.660512
10
2845.873701
20
-1941.766063
0
LWPOLYLINE
5
221
100
AcDbEntity
8
BOARD_OUTLINE
62
2
100
AcDbPolyline
90
2
70
0
43
0.000039
39
0.000039
10
2845.873701
20
-1941.766063
10
2845.873701
20
-1941.766063
0
LWPOLYLINE
5
222
100
AcDbEntity
8
BOARD_OUTLINE
62
2
100
AcDbPolyline
90
2
70
0
43
0.000039
39
0.000039
10
2720.873701
20
-2066.766063
10
2050.000000
20
-2066.766142
0
LWPOLYLINE
5
223
100
AcDbEntity
8
BOARD_OUTLINE
62
2
100
AcDbPolyline
90
2
70
0
43
0.000039
39
0.000039
10
2720.873701
20
2066.766063
10
0.000000
20
2066.766063
0
LWPOLYLINE
5
224
100
AcDbEntity
8
BOARD_OUTLINE
62
2
100
AcDbPolyline
90
2
70
0
43
0.000039
39
0.000039
10
3564.000000
20
800.000000
10
3564.266063
20
1273.668701
0
LWPOLYLINE
5
225
100
AcDbEntity
8
BOARD_OUTLINE
62
2
100
AcDbPolyline
90
2
70
0
43
0.000039
39
0.000039
10
2050.000000
20
-2066.766142
10
1250.000000
20
-2066.766063
0
LWPOLYLINE
5
226
100
AcDbEntity
8
BOARD_OUTLINE
62
2
100
AcDbPolyline
90
2
70
0
43
0.000039
39
0.000039
10
-2720.873701
20
-2066.766063
10
-1250.000000
20
-2066.766063
0
LWPOLYLINE
5
227
100
AcDbEntity
8
BOARD_OUTLINE
62
2
100
AcDbPolyline
90
2
70
0
43
0.000039
39
0.000039
10
429.570315
20
-2066.766142
10
1250.000000
20
-2066.766142
0
LWPOLYLINE
5
228
100
AcDbEntity
8
BOARD_OUTLINE
62
2
100
AcDbPolyline
90
2
70
0
43
0.000039
39
0.000039
10
0.000000
20
-2066.766063
10
429.570315
20
-2066.766142
0
LWPOLYLINE
5
229
100
AcDbEntity
8
BOARD_OUTLINE
62
2
100
AcDbPolyline
90
2
70
0
43
0.000039
39
0.000039
10
-1250.000000
20
1398.668740
10
-450.000000
20
1398.668740
0
LWPOLYLINE
5
22A
100
AcDbEntity
8
BOARD_OUTLINE
62
2
100
AcDbPolyline
90
2
70
0
43
0.000039
39
0.000039
10
-450.000000
20
1398.668740
10
-450.000000
20
2066.766063
0
LWPOLYLINE
5
22B
100
AcDbEntity
8
BOARD_OUTLINE
62
2
100
AcDbPolyline
90
2
70
0
43
0.000039
39
0.000039
10
-450.000000
20
2066.766063
10
0.000000
20
2066.766063
0
LWPOLYLINE
5
22C
100
AcDbEntity
8
BOARD_OUTLINE
62
2
100
AcDbPolyline
90
2
70
0
43
0.000039
39
0.000039
10
-2050.000000
20
2066.766142
10
-1250.000000
20
2066.766063
0
LWPOLYLINE
5
22D
100
AcDbEntity
8
BOARD_OUTLINE
62
2
100
AcDbPolyline
90
2
70
0
43
0.000039
39
0.000039
10
3564.000000
20
400.000000
10
3564.000000
20
800.000000
0
LWPOLYLINE
5
22E
100
AcDbEntity
8
BOARD_OUTLINE
62
2
100
AcDbPolyline
90
2
70
0
43
0.000039
39
0.000039
10
3564.000000
20
400.000000
10
3564.000000
20
0.000000
0
LWPOLYLINE
5
22F
100
AcDbEntity
8
BOARD_OUTLINE
62
2
100
AcDbPolyline
90
2
70
0
43
0.000039
39
0.000039
10
3564.000000
20
0.000000
10
2896.000000
20
0.000000
0
LWPOLYLINE
5
230
100
AcDbEntity
8
BOARD_OUTLINE
62
2
100
AcDbPolyline
90
2
70
0
43
0.000039
39
0.000039
10
2896.000000
20
0.000000
10
2896.000000
20
-800.000000
0
LWPOLYLINE
5
231
100
AcDbEntity
8
BOARD_OUTLINE
62
2
100
AcDbPolyline
90
2
70
0
43
0.000039
39
0.000039
10
2896.000000
20
-800.000000
10
3564.000000
20
-800.000000
0
LWPOLYLINE
5
232
100
AcDbEntity
8
BOARD_OUTLINE
62
2
100
AcDbPolyline
90
2
70
0
43
0.000039
39
0.000039
10
3564.000000
20
-800.000000
10
3564.000000
20
-1281.820276
0
LWPOLYLINE
5
233
100
AcDbEntity
8
BOARD_OUTLINE
62
2
100
AcDbPolyline
90
2
70
0
43
0.000039
39
0.000039
10
-1250.000000
20
-2066.766063
10
-1250.000000
20
-1398.766063
0
LWPOLYLINE
5
234
100
AcDbEntity
8
BOARD_OUTLINE
62
2
100
AcDbPolyline
90
2
70
0
43
0.000039
39
0.000039
10
-1250.000000
20
-1398.766063
10
-450.000000
20
-1398.766063
0
LWPOLYLINE
5
235
100
AcDbEntity
8
BOARD_OUTLINE
62
2
100
AcDbPolyline
90
2
70
0
43
0.000039
39
0.000039
10
-450.000000
20
-1398.766063
10
-450.000000
20
-2066.766063
0
LWPOLYLINE
5
236
100
AcDbEntity
8
BOARD_OUTLINE
62
2
100
AcDbPolyline
90
2
70
0
43
0.000039
39
0.000039
10
-450.000000
20
-2066.766063
10
0.000000
20
-2066.766063
0
LWPOLYLINE
5
237
100
AcDbEntity
8
BOARD_OUTLINE
62
2
100
AcDbPolyline
90
2
70
0
43
0.000039
39
0.000039
10
3439.266063
20
-1398.668701
10
3450.160512
20
-1398.193031
0
LWPOLYLINE
5
238
100
AcDbEntity
8
BOARD_OUTLINE
62
2
100
AcDbPolyline
90
2
70
0
43
0.000039
39
0.000039
10
3450.160512
20
-1398.193031
10
3460.972047
20
-1396.769646
0
LWPOLYLINE
5
239
100
AcDbEntity
8
BOARD_OUTLINE
62
2
100
AcDbPolyline
90
2
70
0
43
0.000039
39
0.000039
10
3460.972047
20
-1396.769646
10
3471.618425
20
-1394.409409
0
LWPOLYLINE
5
23A
100
AcDbEntity
8
BOARD_OUTLINE
62
2
100
AcDbPolyline
90
2
70
0
43
0.000039
39
0.000039
10
3471.618425
20
-1394.409409
10
3482.018543
20
-1391.130276
0
LWPOLYLINE
5
23B
100
AcDbEntity
8
BOARD_OUTLINE
62
2
100
AcDbPolyline
90
2
70
0
43
0.000039
39
0.000039
10
3482.018543
20
-1391.130276
10
3492.093307
20
-1386.957165
0
LWPOLYLINE
5
23C
100
AcDbEntity
8
BOARD_OUTLINE
62
2
100
AcDbPolyline
90
2
70
0
43
0.000039
39
0.000039
10
3492.093307
20
-1386.957165
10
3501.766063
20
-1381.921850
0
LWPOLYLINE
5
23D
100
AcDbEntity
8
BOARD_OUTLINE
62
2
100
AcDbPolyline
90
2
70
0
43
0.000039
39
0.000039
10
3501.766063
20
-1381.921850
10
3510.963110
20
-1376.062677
0
LWPOLYLINE
5
23E
100
AcDbEntity
8
BOARD_OUTLINE
62
2
100
AcDbPolyline
90
2
70
0
43
0.000039
39
0.000039
10
3510.963110
20
-1376.062677
10
3519.614488
20
-1369.424252
0
LWPOLYLINE
5
23F
100
AcDbEntity
8
BOARD_OUTLINE
62
2
100
AcDbPolyline
90
2
70
0
43
0.000039
39
0.000039
10
3519.614488
20
-1369.424252
10
3527.654409
20
-1362.057047
0
LWPOLYLINE
5
240
100
AcDbEntity
8
BOARD_OUTLINE
62
2
100
AcDbPolyline
90
2
70
0
43
0.000039
39
0.000039
10
3527.654409
20
-1362.057047
10
3535.021614
20
-1354.017126
0
LWPOLYLINE
5
241
100
AcDbEntity
8
BOARD_OUTLINE
62
2
100
AcDbPolyline
90
2
70
0
43
0.000039
39
0.000039
10
3535.021614
20
-1354.017126
10
3541.660039
20
-1345.365748
0
LWPOLYLINE
5
242
100
AcDbEntity
8
BOARD_OUTLINE
62
2
100
AcDbPolyline
90
2
70
0
43
0.000039
39
0.000039
10
3541.660039
20
-1345.365748
10
3547.519213
20
-1336.168701
0
LWPOLYLINE
5
243
100
AcDbEntity
8
BOARD_OUTLINE
62
2
100
AcDbPolyline
90
2
70
0
43
0.000039
39
0.000039
10
3547.519213
20
-1336.168701
10
3552.554528
20
-1326.495945
0
LWPOLYLINE
5
244
100
AcDbEntity
8
BOARD_OUTLINE
62
2
100
AcDbPolyline
90
2
70
0
43
0.000039
39
0.000039
10
3552.554528
20
-1326.495945
10
3556.727638
20
-1316.421181
0
LWPOLYLINE
5
245
100
AcDbEntity
8
BOARD_OUTLINE
62
2
100
AcDbPolyline
90
2
70
0
43
0.000039
39
0.000039
10
3556.727638
20
-1316.421181
10
3560.006772
20
-1306.021063
0
LWPOLYLINE
5
246
100
AcDbEntity
8
BOARD_OUTLINE
62
2
100
AcDbPolyline
90
2
70
0
43
0.000039
39
0.000039
10
3560.006772
20
-1306.021063
10
3562.367008
20
-1295.374685
0
LWPOLYLINE
5
247
100
AcDbEntity
8
BOARD_OUTLINE
62
2
100
AcDbPolyline
90
2
70
0
43
0.000039
39
0.000039
10
3562.367008
20
-1295.374685
10
3563.790394
20
-1284.563150
0
LWPOLYLINE
5
248
100
AcDbEntity
8
BOARD_OUTLINE
62
2
100
AcDbPolyline
90
2
70
0
43
0.000039
39
0.000039
10
3563.790394
20
-1284.563150
10
3563.999961
20
-1281.820236
0
HATCH
5
249
100
AcDbEntity
8
BOARD_OUTLINE
62
255
100
AcDbHatch
10
0.0
20
0.0
30
0.0
210
0.0
220
0.0
230
1.0
2
SOLID
70
1
71
0
91
1
92
1
93
4
72
1
10
334.173228
20
-1667.086614
11
2105.826772
21
-1667.086614
72
1
10
2105.826772
20
-1667.086614
11
2105.826772
21
-52.913386
72
1
10
2105.826772
20
-52.913386
11
334.173228
21
-52.913386
72
1
10
334.173228
20
-52.913386
11
334.173228
21
-1667.086614
97
0
75
0
76
0
98
1
10
0.0
20
0.0
0
LWPOLYLINE
5
24A
100
AcDbEntity
8
BOARD_OUTLINE
62
255
100
AcDbPolyline
90
5
70
0
43
0.000039
39
0.000039
10
334.173228
20
-1667.086614
10
2105.826772
20
-1667.086614
10
2105.826772
20
-52.913386
10
334.173228
20
-52.913386
10
334.173228
20
-1667.086614
0
ENDSEC
0
SECTION
2
OBJECTS
0
DICTIONARY
5
24B
100
AcDbDictionary
3
ACAD_GROUP
350
24C
3
ACAD_LAYOUT
350
24D
3
ACAD_MLINESTYLE
350
24E
0
DICTIONARY
5
24C
100
AcDbDictionary
0
DICTIONARY
5
24D
100
AcDbDictionary
0
DICTIONARY
5
24E
100
AcDbDictionary
3
STANDARD
350
24F
0
MLINESTYLE
5
24F
100
AcDbMlineStyle
2
Standard
70
0
3

62
256
51
90.0
52
90.0
71
2
49
0.5
62
256
6
BYLAYER
49
-0.5
62
256
6
BYLAYER
0
ENDSEC
0
EOF
