999
DXF created by UltiBoard 14.2.0.0
0
SECTION
2
HEADER
9
$ACADVER
1
AC1014
9
$EXTMIN
10
-3.995619
20
-2.498119
30
0.0
9
$EXTMAX
10
3.995619
20
2.498119
30
0.0
9
$LUNITS
70
2
9
$HANDSEED
5
218
0
ENDSEC
0
SECTION
2
TABLES
0
TABLE
2
VPORT
5
1
100
AcDbSymbolTable
70
1
0
VPORT
5
2
100
AcDbSymbolTableRecord
100
AcDbViewportTableRecord
2
*ACTIVE
70
0
0
ENDTAB
0
TABLE
2
LTYPE
5
3
100
AcDbSymbolTable
70
1
0
LTYPE
5
4
100
AcDbSymbolTableRecord
100
AcDbLinetypeTableRecord
2
BYBLOCK
70
0
3

72
65
73
0
40
0.0
0
LTYPE
5
5
100
AcDbSymbolTableRecord
100
AcDbLinetypeTableRecord
2
BYLAYER
70
0
3

72
65
73
0
40
0.0
0
LTYPE
5
6
100
AcDbSymbolTableRecord
100
AcDbLinetypeTableRecord
2
CONTINUOUS
70
0
3
Solid line
72
65
73
0
40
0.0
0
ENDTAB
0
TABLE
2
LAYER
5
7
100
AcDbSymbolTable
70
3
0
LAYER
5
8
100
AcDbSymbolTableRecord
100
AcDbLayerTableRecord
2
0
70
0
62
7
6
CONTINUOUS
0
LAYER
5
9
100
AcDbSymbolTableRecord
100
AcDbLayerTableRecord
2
BOARD_OUTLINE
70
0
62
2
6
CONTINUOUS
0
LAYER
5
A
100
AcDbSymbolTableRecord
100
AcDbLayerTableRecord
2
DRILL
70
0
62
255
6
CONTINUOUS
0
ENDTAB
0
TABLE
2
STYLE
5
B
100
AcDbSymbolTable
70
2
0
STYLE
5
C
100
AcDbSymbolTableRecord
100
AcDbTextStyleTableRecord
2
MONOTxtStyle
70
0
40
0.0
41
1.0
50
0.0
71
0
42
0.2
3
monotxt
4

0
STYLE
5
D
100
AcDbSymbolTableRecord
100
AcDbTextStyleTableRecord
2
MONOTxtStyle_M
70
0
40
0.0
41
1.0
50
0.0
71
2
42
0.2
3
monotxt
4

0
ENDTAB
0
TABLE
2
VIEW
5
E
100
AcDbSymbolTable
70
0
0
ENDTAB
0
TABLE
2
UCS
5
F
100
AcDbSymbolTable
70
0
0
ENDTAB
0
TABLE
2
APPID
5
10
100
AcDbSymbolTable
70
1
0
APPID
5
11
100
AcDbSymbolTableRecord
100
AcDbRegAppTableRecord
2
ACAD
70
0
0
ENDTAB
0
TABLE
2
DIMSTYLE
5
12
100
AcDbSymbolTable
70
1
0
DIMSTYLE
105
13
100
AcDbSymbolTableRecord
100
AcDbDimStyleTableRecord
2
STANDARD
70
0
0
ENDTAB
0
TABLE
2
BLOCK_RECORD
5
14
100
AcDbSymbolTable
70
0
0
BLOCK_RECORD
5
15
100
AcDbSymbolTableRecord
100
AcDbBlockTableRecord
2
*MODEL_SPACE
0
BLOCK_RECORD
5
16
100
AcDbSymbolTableRecord
100
AcDbBlockTableRecord
2
*PAPER_SPACE
0
ENDTAB
0
ENDSEC
0
SECTION
2
BLOCKS
0
BLOCK
5
17
100
AcDbEntity
8
0
100
AcDbBlockBegin
2
*MODEL_SPACE
70
0
0
ENDBLK
5
18
100
AcDbEntity
8
0
100
AcDbBlockEnd
0
BLOCK
5
19
100
AcDbEntity
8
0
100
AcDbBlockBegin
2
*PAPER_SPACE
70
0
0
ENDBLK
5
1A
100
AcDbEntity
8
0
100
AcDbBlockEnd
0
ENDSEC
0
SECTION
2
ENTITIES
0
LWPOLYLINE
5
1B
100
AcDbEntity
8
BOARD_OUTLINE
62
2
100
AcDbPolyline
90
2
70
0
43
0.000000
39
0.000000
10
-2.845874
20
-1.941766
10
-2.845398
20
-1.952661
0
LWPOLYLINE
5
1C
100
AcDbEntity
8
BOARD_OUTLINE
62
2
100
AcDbPolyline
90
2
70
0
43
0.000000
39
0.000000
10
-2.845398
20
-1.952661
10
-2.843975
20
-1.963472
0
LWPOLYLINE
5
1D
100
AcDbEntity
8
BOARD_OUTLINE
62
2
100
AcDbPolyline
90
2
70
0
43
0.000000
39
0.000000
10
-2.843975
20
-1.963472
10
-2.841614
20
-1.974118
0
LWPOLYLINE
5
1E
100
AcDbEntity
8
BOARD_OUTLINE
62
2
100
AcDbPolyline
90
2
70
0
43
0.000000
39
0.000000
10
-2.841614
20
-1.974118
10
-2.838335
20
-1.984519
0
LWPOLYLINE
5
1F
100
AcDbEntity
8
BOARD_OUTLINE
62
2
100
AcDbPolyline
90
2
70
0
43
0.000000
39
0.000000
10
-2.838335
20
-1.984519
10
-2.834162
20
-1.994593
0
LWPOLYLINE
5
20
100
AcDbEntity
8
BOARD_OUTLINE
62
2
100
AcDbPolyline
90
2
70
0
43
0.000000
39
0.000000
10
-2.834162
20
-1.994593
10
-2.829127
20
-2.004266
0
LWPOLYLINE
5
21
100
AcDbEntity
8
BOARD_OUTLINE
62
2
100
AcDbPolyline
90
2
70
0
43
0.000000
39
0.000000
10
-2.829127
20
-2.004266
10
-2.823268
20
-2.013463
0
LWPOLYLINE
5
22
100
AcDbEntity
8
BOARD_OUTLINE
62
2
100
AcDbPolyline
90
2
70
0
43
0.000000
39
0.000000
10
-2.823268
20
-2.013463
10
-2.816629
20
-2.022114
0
LWPOLYLINE
5
23
100
AcDbEntity
8
BOARD_OUTLINE
62
2
100
AcDbPolyline
90
2
70
0
43
0.000000
39
0.000000
10
-2.816629
20
-2.022114
10
-2.809262
20
-2.030154
0
LWPOLYLINE
5
24
100
AcDbEntity
8
BOARD_OUTLINE
62
2
100
AcDbPolyline
90
2
70
0
43
0.000000
39
0.000000
10
-2.809262
20
-2.030154
10
-2.801222
20
-2.037522
0
LWPOLYLINE
5
25
100
AcDbEntity
8
BOARD_OUTLINE
62
2
100
AcDbPolyline
90
2
70
0
43
0.000000
39
0.000000
10
-2.801222
20
-2.037522
10
-2.792571
20
-2.044160
0
LWPOLYLINE
5
26
100
AcDbEntity
8
BOARD_OUTLINE
62
2
100
AcDbPolyline
90
2
70
0
43
0.000000
39
0.000000
10
-2.792571
20
-2.044160
10
-2.783374
20
-2.050019
0
LWPOLYLINE
5
27
100
AcDbEntity
8
BOARD_OUTLINE
62
2
100
AcDbPolyline
90
2
70
0
43
0.000000
39
0.000000
10
-2.783374
20
-2.050019
10
-2.773701
20
-2.055055
0
LWPOLYLINE
5
28
100
AcDbEntity
8
BOARD_OUTLINE
62
2
100
AcDbPolyline
90
2
70
0
43
0.000000
39
0.000000
10
-2.773701
20
-2.055055
10
-2.763626
20
-2.059228
0
LWPOLYLINE
5
29
100
AcDbEntity
8
BOARD_OUTLINE
62
2
100
AcDbPolyline
90
2
70
0
43
0.000000
39
0.000000
10
-2.763626
20
-2.059228
10
-2.753226
20
-2.062507
0
LWPOLYLINE
5
2A
100
AcDbEntity
8
BOARD_OUTLINE
62
2
100
AcDbPolyline
90
2
70
0
43
0.000000
39
0.000000
10
-2.753226
20
-2.062507
10
-2.742580
20
-2.064867
0
LWPOLYLINE
5
2B
100
AcDbEntity
8
BOARD_OUTLINE
62
2
100
AcDbPolyline
90
2
70
0
43
0.000000
39
0.000000
10
-2.742580
20
-2.064867
10
-2.731768
20
-2.066290
0
LWPOLYLINE
5
2C
100
AcDbEntity
8
BOARD_OUTLINE
62
2
100
AcDbPolyline
90
2
70
0
43
0.000000
39
0.000000
10
-2.731768
20
-2.066290
10
-2.720874
20
-2.066766
0
LWPOLYLINE
5
2D
100
AcDbEntity
8
BOARD_OUTLINE
62
2
100
AcDbPolyline
90
2
70
0
43
0.000000
39
0.000000
10
-2.720874
20
-2.066766
10
-2.720874
20
-2.066766
0
LWPOLYLINE
5
2E
100
AcDbEntity
8
BOARD_OUTLINE
62
2
100
AcDbPolyline
90
2
70
0
43
0.000000
39
0.000000
10
-2.845874
20
-1.779403
10
-2.845874
20
-1.941766
0
LWPOLYLINE
5
2F
100
AcDbEntity
8
BOARD_OUTLINE
62
2
100
AcDbPolyline
90
2
70
0
43
0.000000
39
0.000000
10
-2.845874
20
-1.779403
10
-2.847322
20
-1.746219
0
LWPOLYLINE
5
30
100
AcDbEntity
8
BOARD_OUTLINE
62
2
100
AcDbPolyline
90
2
70
0
43
0.000000
39
0.000000
10
-2.847322
20
-1.746219
10
-2.851658
20
-1.713289
0
LWPOLYLINE
5
31
100
AcDbEntity
8
BOARD_OUTLINE
62
2
100
AcDbPolyline
90
2
70
0
43
0.000000
39
0.000000
10
-2.851658
20
-1.713289
10
-2.858847
20
-1.680861
0
LWPOLYLINE
5
32
100
AcDbEntity
8
BOARD_OUTLINE
62
2
100
AcDbPolyline
90
2
70
0
43
0.000000
39
0.000000
10
-2.858847
20
-1.680861
10
-2.868835
20
-1.649184
0
LWPOLYLINE
5
33
100
AcDbEntity
8
BOARD_OUTLINE
62
2
100
AcDbPolyline
90
2
70
0
43
0.000000
39
0.000000
10
-2.868835
20
-1.649184
10
-2.881545
20
-1.618498
0
LWPOLYLINE
5
34
100
AcDbEntity
8
BOARD_OUTLINE
62
2
100
AcDbPolyline
90
2
70
0
43
0.000000
39
0.000000
10
-2.881545
20
-1.618498
10
-2.896882
20
-1.589036
0
LWPOLYLINE
5
35
100
AcDbEntity
8
BOARD_OUTLINE
62
2
100
AcDbPolyline
90
2
70
0
43
0.000000
39
0.000000
10
-2.896882
20
-1.589036
10
-2.914729
20
-1.561023
0
LWPOLYLINE
5
36
100
AcDbEntity
8
BOARD_OUTLINE
62
2
100
AcDbPolyline
90
2
70
0
43
0.000000
39
0.000000
10
-2.914729
20
-1.561023
10
-2.934948
20
-1.534672
0
LWPOLYLINE
5
37
100
AcDbEntity
8
BOARD_OUTLINE
62
2
100
AcDbPolyline
90
2
70
0
43
0.000000
39
0.000000
10
-2.934948
20
-1.534672
10
-2.957388
20
-1.510183
0
LWPOLYLINE
5
38
100
AcDbEntity
8
BOARD_OUTLINE
62
2
100
AcDbPolyline
90
2
70
0
43
0.000000
39
0.000000
10
-2.957388
20
-1.510183
10
-2.981877
20
-1.487744
0
LWPOLYLINE
5
39
100
AcDbEntity
8
BOARD_OUTLINE
62
2
100
AcDbPolyline
90
2
70
0
43
0.000000
39
0.000000
10
-2.981877
20
-1.487744
10
-3.008228
20
-1.467524
0
LWPOLYLINE
5
3A
100
AcDbEntity
8
BOARD_OUTLINE
62
2
100
AcDbPolyline
90
2
70
0
43
0.000000
39
0.000000
10
-3.008228
20
-1.467524
10
-3.036241
20
-1.449677
0
LWPOLYLINE
5
3B
100
AcDbEntity
8
BOARD_OUTLINE
62
2
100
AcDbPolyline
90
2
70
0
43
0.000000
39
0.000000
10
-3.036241
20
-1.449677
10
-3.065702
20
-1.434340
0
LWPOLYLINE
5
3C
100
AcDbEntity
8
BOARD_OUTLINE
62
2
100
AcDbPolyline
90
2
70
0
43
0.000000
39
0.000000
10
-3.065702
20
-1.434340
10
-3.096389
20
-1.421630
0
LWPOLYLINE
5
3D
100
AcDbEntity
8
BOARD_OUTLINE
62
2
100
AcDbPolyline
90
2
70
0
43
0.000000
39
0.000000
10
-3.096389
20
-1.421630
10
-3.128066
20
-1.411642
0
LWPOLYLINE
5
3E
100
AcDbEntity
8
BOARD_OUTLINE
62
2
100
AcDbPolyline
90
2
70
0
43
0.000000
39
0.000000
10
-3.128066
20
-1.411642
10
-3.160494
20
-1.404453
0
LWPOLYLINE
5
3F
100
AcDbEntity
8
BOARD_OUTLINE
62
2
100
AcDbPolyline
90
2
70
0
43
0.000000
39
0.000000
10
-3.160494
20
-1.404453
10
-3.193424
20
-1.400117
0
LWPOLYLINE
5
40
100
AcDbEntity
8
BOARD_OUTLINE
62
2
100
AcDbPolyline
90
2
70
0
43
0.000000
39
0.000000
10
-3.193424
20
-1.400117
10
-3.226608
20
-1.398669
0
LWPOLYLINE
5
41
100
AcDbEntity
8
BOARD_OUTLINE
62
2
100
AcDbPolyline
90
2
70
0
43
0.000000
39
0.000000
10
-3.226608
20
-1.398669
10
-3.226608
20
-1.398669
0
LWPOLYLINE
5
42
100
AcDbEntity
8
BOARD_OUTLINE
62
2
100
AcDbPolyline
90
2
70
0
43
0.000000
39
0.000000
10
-3.439266
20
-1.398669
10
-3.226608
20
-1.398669
0
LWPOLYLINE
5
43
100
AcDbEntity
8
BOARD_OUTLINE
62
2
100
AcDbPolyline
90
2
70
0
43
0.000000
39
0.000000
10
-3.564266
20
-1.273669
10
-3.563790
20
-1.284563
0
LWPOLYLINE
5
44
100
AcDbEntity
8
BOARD_OUTLINE
62
2
100
AcDbPolyline
90
2
70
0
43
0.000000
39
0.000000
10
-3.563790
20
-1.284563
10
-3.562367
20
-1.295375
0
LWPOLYLINE
5
45
100
AcDbEntity
8
BOARD_OUTLINE
62
2
100
AcDbPolyline
90
2
70
0
43
0.000000
39
0.000000
10
-3.562367
20
-1.295375
10
-3.560007
20
-1.306021
0
LWPOLYLINE
5
46
100
AcDbEntity
8
BOARD_OUTLINE
62
2
100
AcDbPolyline
90
2
70
0
43
0.000000
39
0.000000
10
-3.560007
20
-1.306021
10
-3.556728
20
-1.316421
0
LWPOLYLINE
5
47
100
AcDbEntity
8
BOARD_OUTLINE
62
2
100
AcDbPolyline
90
2
70
0
43
0.000000
39
0.000000
10
-3.556728
20
-1.316421
10
-3.552555
20
-1.326496
0
LWPOLYLINE
5
48
100
AcDbEntity
8
BOARD_OUTLINE
62
2
100
AcDbPolyline
90
2
70
0
43
0.000000
39
0.000000
10
-3.552555
20
-1.326496
10
-3.547519
20
-1.336169
0
LWPOLYLINE
5
49
100
AcDbEntity
8
BOARD_OUTLINE
62
2
100
AcDbPolyline
90
2
70
0
43
0.000000
39
0.000000
10
-3.547519
20
-1.336169
10
-3.541660
20
-1.345366
0
LWPOLYLINE
5
4A
100
AcDbEntity
8
BOARD_OUTLINE
62
2
100
AcDbPolyline
90
2
70
0
43
0.000000
39
0.000000
10
-3.541660
20
-1.345366
10
-3.535022
20
-1.354017
0
LWPOLYLINE
5
4B
100
AcDbEntity
8
BOARD_OUTLINE
62
2
100
AcDbPolyline
90
2
70
0
43
0.000000
39
0.000000
10
-3.535022
20
-1.354017
10
-3.527654
20
-1.362057
0
LWPOLYLINE
5
4C
100
AcDbEntity
8
BOARD_OUTLINE
62
2
100
AcDbPolyline
90
2
70
0
43
0.000000
39
0.000000
10
-3.527654
20
-1.362057
10
-3.519614
20
-1.369424
0
LWPOLYLINE
5
4D
100
AcDbEntity
8
BOARD_OUTLINE
62
2
100
AcDbPolyline
90
2
70
0
43
0.000000
39
0.000000
10
-3.519614
20
-1.369424
10
-3.510963
20
-1.376063
0
LWPOLYLINE
5
4E
100
AcDbEntity
8
BOARD_OUTLINE
62
2
100
AcDbPolyline
90
2
70
0
43
0.000000
39
0.000000
10
-3.510963
20
-1.376063
10
-3.501766
20
-1.381922
0
LWPOLYLINE
5
4F
100
AcDbEntity
8
BOARD_OUTLINE
62
2
100
AcDbPolyline
90
2
70
0
43
0.000000
39
0.000000
10
-3.501766
20
-1.381922
10
-3.492093
20
-1.386957
0
LWPOLYLINE
5
50
100
AcDbEntity
8
BOARD_OUTLINE
62
2
100
AcDbPolyline
90
2
70
0
43
0.000000
39
0.000000
10
-3.492093
20
-1.386957
10
-3.482019
20
-1.391130
0
LWPOLYLINE
5
51
100
AcDbEntity
8
BOARD_OUTLINE
62
2
100
AcDbPolyline
90
2
70
0
43
0.000000
39
0.000000
10
-3.482019
20
-1.391130
10
-3.471618
20
-1.394409
0
LWPOLYLINE
5
52
100
AcDbEntity
8
BOARD_OUTLINE
62
2
100
AcDbPolyline
90
2
70
0
43
0.000000
39
0.000000
10
-3.471618
20
-1.394409
10
-3.460972
20
-1.396770
0
LWPOLYLINE
5
53
100
AcDbEntity
8
BOARD_OUTLINE
62
2
100
AcDbPolyline
90
2
70
0
43
0.000000
39
0.000000
10
-3.460972
20
-1.396770
10
-3.450161
20
-1.398193
0
LWPOLYLINE
5
54
100
AcDbEntity
8
BOARD_OUTLINE
62
2
100
AcDbPolyline
90
2
70
0
43
0.000000
39
0.000000
10
-3.450161
20
-1.398193
10
-3.439266
20
-1.398669
0
LWPOLYLINE
5
55
100
AcDbEntity
8
BOARD_OUTLINE
62
2
100
AcDbPolyline
90
2
70
0
43
0.000000
39
0.000000
10
-3.439266
20
-1.398669
10
-3.439266
20
-1.398669
0
LWPOLYLINE
5
56
100
AcDbEntity
8
BOARD_OUTLINE
62
2
100
AcDbPolyline
90
2
70
0
43
0.000000
39
0.000000
10
-3.439266
20
1.398669
10
-3.450161
20
1.398193
0
LWPOLYLINE
5
57
100
AcDbEntity
8
BOARD_OUTLINE
62
2
100
AcDbPolyline
90
2
70
0
43
0.000000
39
0.000000
10
-3.450161
20
1.398193
10
-3.460972
20
1.396770
0
LWPOLYLINE
5
58
100
AcDbEntity
8
BOARD_OUTLINE
62
2
100
AcDbPolyline
90
2
70
0
43
0.000000
39
0.000000
10
-3.460972
20
1.396770
10
-3.471618
20
1.394409
0
LWPOLYLINE
5
59
100
AcDbEntity
8
BOARD_OUTLINE
62
2
100
AcDbPolyline
90
2
70
0
43
0.000000
39
0.000000
10
-3.471618
20
1.394409
10
-3.482019
20
1.391130
0
LWPOLYLINE
5
5A
100
AcDbEntity
8
BOARD_OUTLINE
62
2
100
AcDbPolyline
90
2
70
0
43
0.000000
39
0.000000
10
-3.482019
20
1.391130
10
-3.492093
20
1.386957
0
LWPOLYLINE
5
5B
100
AcDbEntity
8
BOARD_OUTLINE
62
2
100
AcDbPolyline
90
2
70
0
43
0.000000
39
0.000000
10
-3.492093
20
1.386957
10
-3.501766
20
1.381922
0
LWPOLYLINE
5
5C
100
AcDbEntity
8
BOARD_OUTLINE
62
2
100
AcDbPolyline
90
2
70
0
43
0.000000
39
0.000000
10
-3.501766
20
1.381922
10
-3.510963
20
1.376063
0
LWPOLYLINE
5
5D
100
AcDbEntity
8
BOARD_OUTLINE
62
2
100
AcDbPolyline
90
2
70
0
43
0.000000
39
0.000000
10
-3.510963
20
1.376063
10
-3.519614
20
1.369424
0
LWPOLYLINE
5
5E
100
AcDbEntity
8
BOARD_OUTLINE
62
2
100
AcDbPolyline
90
2
70
0
43
0.000000
39
0.000000
10
-3.519614
20
1.369424
10
-3.527654
20
1.362057
0
LWPOLYLINE
5
5F
100
AcDbEntity
8
BOARD_OUTLINE
62
2
100
AcDbPolyline
90
2
70
0
43
0.000000
39
0.000000
10
-3.527654
20
1.362057
10
-3.535022
20
1.354017
0
LWPOLYLINE
5
60
100
AcDbEntity
8
BOARD_OUTLINE
62
2
100
AcDbPolyline
90
2
70
0
43
0.000000
39
0.000000
10
-3.535022
20
1.354017
10
-3.541660
20
1.345366
0
LWPOLYLINE
5
61
100
AcDbEntity
8
BOARD_OUTLINE
62
2
100
AcDbPolyline
90
2
70
0
43
0.000000
39
0.000000
10
-3.541660
20
1.345366
10
-3.547519
20
1.336169
0
LWPOLYLINE
5
62
100
AcDbEntity
8
BOARD_OUTLINE
62
2
100
AcDbPolyline
90
2
70
0
43
0.000000
39
0.000000
10
-3.547519
20
1.336169
10
-3.552555
20
1.326496
0
LWPOLYLINE
5
63
100
AcDbEntity
8
BOARD_OUTLINE
62
2
100
AcDbPolyline
90
2
70
0
43
0.000000
39
0.000000
10
-3.552555
20
1.326496
10
-3.556728
20
1.316421
0
LWPOLYLINE
5
64
100
AcDbEntity
8
BOARD_OUTLINE
62
2
100
AcDbPolyline
90
2
70
0
43
0.000000
39
0.000000
10
-3.556728
20
1.316421
10
-3.560007
20
1.306021
0
LWPOLYLINE
5
65
100
AcDbEntity
8
BOARD_OUTLINE
62
2
100
AcDbPolyline
90
2
70
0
43
0.000000
39
0.000000
10
-3.560007
20
1.306021
10
-3.562367
20
1.295375
0
LWPOLYLINE
5
66
100
AcDbEntity
8
BOARD_OUTLINE
62
2
100
AcDbPolyline
90
2
70
0
43
0.000000
39
0.000000
10
-3.562367
20
1.295375
10
-3.563790
20
1.284563
0
LWPOLYLINE
5
67
100
AcDbEntity
8
BOARD_OUTLINE
62
2
100
AcDbPolyline
90
2
70
0
43
0.000000
39
0.000000
10
-3.563790
20
1.284563
10
-3.564266
20
1.273669
0
LWPOLYLINE
5
68
100
AcDbEntity
8
BOARD_OUTLINE
62
2
100
AcDbPolyline
90
2
70
0
43
0.000000
39
0.000000
10
-3.564266
20
1.273669
10
-3.564266
20
1.273669
0
LWPOLYLINE
5
69
100
AcDbEntity
8
BOARD_OUTLINE
62
2
100
AcDbPolyline
90
2
70
0
43
0.000000
39
0.000000
10
-3.226608
20
1.398669
10
-3.439266
20
1.398669
0
LWPOLYLINE
5
6A
100
AcDbEntity
8
BOARD_OUTLINE
62
2
100
AcDbPolyline
90
2
70
0
43
0.000000
39
0.000000
10
-3.226608
20
1.398669
10
-3.193424
20
1.400117
0
LWPOLYLINE
5
6B
100
AcDbEntity
8
BOARD_OUTLINE
62
2
100
AcDbPolyline
90
2
70
0
43
0.000000
39
0.000000
10
-3.193424
20
1.400117
10
-3.160494
20
1.404453
0
LWPOLYLINE
5
6C
100
AcDbEntity
8
BOARD_OUTLINE
62
2
100
AcDbPolyline
90
2
70
0
43
0.000000
39
0.000000
10
-3.160494
20
1.404453
10
-3.128066
20
1.411642
0
LWPOLYLINE
5
6D
100
AcDbEntity
8
BOARD_OUTLINE
62
2
100
AcDbPolyline
90
2
70
0
43
0.000000
39
0.000000
10
-3.128066
20
1.411642
10
-3.096389
20
1.421630
0
LWPOLYLINE
5
6E
100
AcDbEntity
8
BOARD_OUTLINE
62
2
100
AcDbPolyline
90
2
70
0
43
0.000000
39
0.000000
10
-3.096389
20
1.421630
10
-3.065702
20
1.434340
0
LWPOLYLINE
5
6F
100
AcDbEntity
8
BOARD_OUTLINE
62
2
100
AcDbPolyline
90
2
70
0
43
0.000000
39
0.000000
10
-3.065702
20
1.434340
10
-3.036241
20
1.449677
0
LWPOLYLINE
5
70
100
AcDbEntity
8
BOARD_OUTLINE
62
2
100
AcDbPolyline
90
2
70
0
43
0.000000
39
0.000000
10
-3.036241
20
1.449677
10
-3.008228
20
1.467524
0
LWPOLYLINE
5
71
100
AcDbEntity
8
BOARD_OUTLINE
62
2
100
AcDbPolyline
90
2
70
0
43
0.000000
39
0.000000
10
-3.008228
20
1.467524
10
-2.981877
20
1.487744
0
LWPOLYLINE
5
72
100
AcDbEntity
8
BOARD_OUTLINE
62
2
100
AcDbPolyline
90
2
70
0
43
0.000000
39
0.000000
10
-2.981877
20
1.487744
10
-2.957388
20
1.510183
0
LWPOLYLINE
5
73
100
AcDbEntity
8
BOARD_OUTLINE
62
2
100
AcDbPolyline
90
2
70
0
43
0.000000
39
0.000000
10
-2.957388
20
1.510183
10
-2.934948
20
1.534672
0
LWPOLYLINE
5
74
100
AcDbEntity
8
BOARD_OUTLINE
62
2
100
AcDbPolyline
90
2
70
0
43
0.000000
39
0.000000
10
-2.934948
20
1.534672
10
-2.914729
20
1.561023
0
LWPOLYLINE
5
75
100
AcDbEntity
8
BOARD_OUTLINE
62
2
100
AcDbPolyline
90
2
70
0
43
0.000000
39
0.000000
10
-2.914729
20
1.561023
10
-2.896882
20
1.589036
0
LWPOLYLINE
5
76
100
AcDbEntity
8
BOARD_OUTLINE
62
2
100
AcDbPolyline
90
2
70
0
43
0.000000
39
0.000000
10
-2.896882
20
1.589036
10
-2.881545
20
1.618498
0
LWPOLYLINE
5
77
100
AcDbEntity
8
BOARD_OUTLINE
62
2
100
AcDbPolyline
90
2
70
0
43
0.000000
39
0.000000
10
-2.881545
20
1.618498
10
-2.868835
20
1.649184
0
LWPOLYLINE
5
78
100
AcDbEntity
8
BOARD_OUTLINE
62
2
100
AcDbPolyline
90
2
70
0
43
0.000000
39
0.000000
10
-2.868835
20
1.649184
10
-2.858847
20
1.680861
0
LWPOLYLINE
5
79
100
AcDbEntity
8
BOARD_OUTLINE
62
2
100
AcDbPolyline
90
2
70
0
43
0.000000
39
0.000000
10
-2.858847
20
1.680861
10
-2.851658
20
1.713289
0
LWPOLYLINE
5
7A
100
AcDbEntity
8
BOARD_OUTLINE
62
2
100
AcDbPolyline
90
2
70
0
43
0.000000
39
0.000000
10
-2.851658
20
1.713289
10
-2.847322
20
1.746219
0
LWPOLYLINE
5
7B
100
AcDbEntity
8
BOARD_OUTLINE
62
2
100
AcDbPolyline
90
2
70
0
43
0.000000
39
0.000000
10
-2.847322
20
1.746219
10
-2.845874
20
1.779403
0
LWPOLYLINE
5
7C
100
AcDbEntity
8
BOARD_OUTLINE
62
2
100
AcDbPolyline
90
2
70
0
43
0.000000
39
0.000000
10
-2.845874
20
1.779403
10
-2.845874
20
1.779403
0
LWPOLYLINE
5
7D
100
AcDbEntity
8
BOARD_OUTLINE
62
2
100
AcDbPolyline
90
2
70
0
43
0.000000
39
0.000000
10
-2.845874
20
1.941766
10
-2.845874
20
1.779403
0
LWPOLYLINE
5
7E
100
AcDbEntity
8
BOARD_OUTLINE
62
2
100
AcDbPolyline
90
2
70
0
43
0.000000
39
0.000000
10
-2.720874
20
2.066766
10
-2.731768
20
2.066290
0
LWPOLYLINE
5
7F
100
AcDbEntity
8
BOARD_OUTLINE
62
2
100
AcDbPolyline
90
2
70
0
43
0.000000
39
0.000000
10
-2.731768
20
2.066290
10
-2.742580
20
2.064867
0
LWPOLYLINE
5
80
100
AcDbEntity
8
BOARD_OUTLINE
62
2
100
AcDbPolyline
90
2
70
0
43
0.000000
39
0.000000
10
-2.742580
20
2.064867
10
-2.753226
20
2.062507
0
LWPOLYLINE
5
81
100
AcDbEntity
8
BOARD_OUTLINE
62
2
100
AcDbPolyline
90
2
70
0
43
0.000000
39
0.000000
10
-2.753226
20
2.062507
10
-2.763626
20
2.059228
0
LWPOLYLINE
5
82
100
AcDbEntity
8
BOARD_OUTLINE
62
2
100
AcDbPolyline
90
2
70
0
43
0.000000
39
0.000000
10
-2.763626
20
2.059228
10
-2.773701
20
2.055055
0
LWPOLYLINE
5
83
100
AcDbEntity
8
BOARD_OUTLINE
62
2
100
AcDbPolyline
90
2
70
0
43
0.000000
39
0.000000
10
-2.773701
20
2.055055
10
-2.783374
20
2.050019
0
LWPOLYLINE
5
84
100
AcDbEntity
8
BOARD_OUTLINE
62
2
100
AcDbPolyline
90
2
70
0
43
0.000000
39
0.000000
10
-2.783374
20
2.050019
10
-2.792571
20
2.044160
0
LWPOLYLINE
5
85
100
AcDbEntity
8
BOARD_OUTLINE
62
2
100
AcDbPolyline
90
2
70
0
43
0.000000
39
0.000000
10
-2.792571
20
2.044160
10
-2.801222
20
2.037522
0
LWPOLYLINE
5
86
100
AcDbEntity
8
BOARD_OUTLINE
62
2
100
AcDbPolyline
90
2
70
0
43
0.000000
39
0.000000
10
-2.801222
20
2.037522
10
-2.809262
20
2.030154
0
LWPOLYLINE
5
87
100
AcDbEntity
8
BOARD_OUTLINE
62
2
100
AcDbPolyline
90
2
70
0
43
0.000000
39
0.000000
10
-2.809262
20
2.030154
10
-2.816629
20
2.022114
0
LWPOLYLINE
5
88
100
AcDbEntity
8
BOARD_OUTLINE
62
2
100
AcDbPolyline
90
2
70
0
43
0.000000
39
0.000000
10
-2.816629
20
2.022114
10
-2.823268
20
2.013463
0
LWPOLYLINE
5
89
100
AcDbEntity
8
BOARD_OUTLINE
62
2
100
AcDbPolyline
90
2
70
0
43
0.000000
39
0.000000
10
-2.823268
20
2.013463
10
-2.829127
20
2.004266
0
LWPOLYLINE
5
8A
100
AcDbEntity
8
BOARD_OUTLINE
62
2
100
AcDbPolyline
90
2
70
0
43
0.000000
39
0.000000
10
-2.829127
20
2.004266
10
-2.834162
20
1.994593
0
LWPOLYLINE
5
8B
100
AcDbEntity
8
BOARD_OUTLINE
62
2
100
AcDbPolyline
90
2
70
0
43
0.000000
39
0.000000
10
-2.834162
20
1.994593
10
-2.838335
20
1.984519
0
LWPOLYLINE
5
8C
100
AcDbEntity
8
BOARD_OUTLINE
62
2
100
AcDbPolyline
90
2
70
0
43
0.000000
39
0.000000
10
-2.838335
20
1.984519
10
-2.841614
20
1.974118
0
LWPOLYLINE
5
8D
100
AcDbEntity
8
BOARD_OUTLINE
62
2
100
AcDbPolyline
90
2
70
0
43
0.000000
39
0.000000
10
-2.841614
20
1.974118
10
-2.843975
20
1.963472
0
LWPOLYLINE
5
8E
100
AcDbEntity
8
BOARD_OUTLINE
62
2
100
AcDbPolyline
90
2
70
0
43
0.000000
39
0.000000
10
-2.843975
20
1.963472
10
-2.845398
20
1.952661
0
LWPOLYLINE
5
8F
100
AcDbEntity
8
BOARD_OUTLINE
62
2
100
AcDbPolyline
90
2
70
0
43
0.000000
39
0.000000
10
-2.845398
20
1.952661
10
-2.845874
20
1.941766
0
LWPOLYLINE
5
90
100
AcDbEntity
8
BOARD_OUTLINE
62
2
100
AcDbPolyline
90
2
70
0
43
0.000000
39
0.000000
10
-2.845874
20
1.941766
10
-2.845874
20
1.941766
0
LWPOLYLINE
5
91
100
AcDbEntity
8
BOARD_OUTLINE
62
2
100
AcDbPolyline
90
2
70
0
43
0.000000
39
0.000000
10
-2.720874
20
2.066766
10
-2.050000
20
2.066766
0
LWPOLYLINE
5
92
100
AcDbEntity
8
BOARD_OUTLINE
62
2
100
AcDbPolyline
90
2
70
0
43
0.000000
39
0.000000
10
-3.564266
20
1.273669
10
-3.564266
20
0.000000
0
LWPOLYLINE
5
93
100
AcDbEntity
8
BOARD_OUTLINE
62
2
100
AcDbPolyline
90
2
70
0
43
0.000000
39
0.000000
10
-1.250000
20
2.066766
10
-1.250000
20
1.398669
0
LWPOLYLINE
5
94
100
AcDbEntity
8
BOARD_OUTLINE
62
2
100
AcDbPolyline
90
2
70
0
43
0.000000
39
0.000000
10
-2.845874
20
0.000000
10
-2.845874
20
-0.800000
0
LWPOLYLINE
5
95
100
AcDbEntity
8
BOARD_OUTLINE
62
2
100
AcDbPolyline
90
2
70
0
43
0.000000
39
0.000000
10
-2.845874
20
-0.800000
10
-3.564000
20
-0.800000
0
LWPOLYLINE
5
96
100
AcDbEntity
8
BOARD_OUTLINE
62
2
100
AcDbPolyline
90
2
70
0
43
0.000000
39
0.000000
10
-2.845874
20
0.000000
10
-3.564266
20
0.000000
0
LWPOLYLINE
5
97
100
AcDbEntity
8
BOARD_OUTLINE
62
2
100
AcDbPolyline
90
2
70
0
43
0.000000
39
0.000000
10
-3.564000
20
-0.800000
10
-3.564266
20
-1.273669
0
LWPOLYLINE
5
98
100
AcDbEntity
8
BOARD_OUTLINE
62
2
100
AcDbPolyline
90
2
70
0
43
0.000000
39
0.000000
10
2.845874
20
1.941766
10
2.845398
20
1.952661
0
LWPOLYLINE
5
99
100
AcDbEntity
8
BOARD_OUTLINE
62
2
100
AcDbPolyline
90
2
70
0
43
0.000000
39
0.000000
10
2.845398
20
1.952661
10
2.843975
20
1.963472
0
LWPOLYLINE
5
9A
100
AcDbEntity
8
BOARD_OUTLINE
62
2
100
AcDbPolyline
90
2
70
0
43
0.000000
39
0.000000
10
2.843975
20
1.963472
10
2.841614
20
1.974118
0
LWPOLYLINE
5
9B
100
AcDbEntity
8
BOARD_OUTLINE
62
2
100
AcDbPolyline
90
2
70
0
43
0.000000
39
0.000000
10
2.841614
20
1.974118
10
2.838335
20
1.984519
0
LWPOLYLINE
5
9C
100
AcDbEntity
8
BOARD_OUTLINE
62
2
100
AcDbPolyline
90
2
70
0
43
0.000000
39
0.000000
10
2.838335
20
1.984519
10
2.834162
20
1.994593
0
LWPOLYLINE
5
9D
100
AcDbEntity
8
BOARD_OUTLINE
62
2
100
AcDbPolyline
90
2
70
0
43
0.000000
39
0.000000
10
2.834162
20
1.994593
10
2.829127
20
2.004266
0
LWPOLYLINE
5
9E
100
AcDbEntity
8
BOARD_OUTLINE
62
2
100
AcDbPolyline
90
2
70
0
43
0.000000
39
0.000000
10
2.829127
20
2.004266
10
2.823268
20
2.013463
0
LWPOLYLINE
5
9F
100
AcDbEntity
8
BOARD_OUTLINE
62
2
100
AcDbPolyline
90
2
70
0
43
0.000000
39
0.000000
10
2.823268
20
2.013463
10
2.816629
20
2.022114
0
LWPOLYLINE
5
A0
100
AcDbEntity
8
BOARD_OUTLINE
62
2
100
AcDbPolyline
90
2
70
0
43
0.000000
39
0.000000
10
2.816629
20
2.022114
10
2.809262
20
2.030154
0
LWPOLYLINE
5
A1
100
AcDbEntity
8
BOARD_OUTLINE
62
2
100
AcDbPolyline
90
2
70
0
43
0.000000
39
0.000000
10
2.809262
20
2.030154
10
2.801222
20
2.037522
0
LWPOLYLINE
5
A2
100
AcDbEntity
8
BOARD_OUTLINE
62
2
100
AcDbPolyline
90
2
70
0
43
0.000000
39
0.000000
10
2.801222
20
2.037522
10
2.792571
20
2.044160
0
LWPOLYLINE
5
A3
100
AcDbEntity
8
BOARD_OUTLINE
62
2
100
AcDbPolyline
90
2
70
0
43
0.000000
39
0.000000
10
2.792571
20
2.044160
10
2.783374
20
2.050019
0
LWPOLYLINE
5
A4
100
AcDbEntity
8
BOARD_OUTLINE
62
2
100
AcDbPolyline
90
2
70
0
43
0.000000
39
0.000000
10
2.783374
20
2.050019
10
2.773701
20
2.055055
0
LWPOLYLINE
5
A5
100
AcDbEntity
8
BOARD_OUTLINE
62
2
100
AcDbPolyline
90
2
70
0
43
0.000000
39
0.000000
10
2.773701
20
2.055055
10
2.763626
20
2.059228
0
LWPOLYLINE
5
A6
100
AcDbEntity
8
BOARD_OUTLINE
62
2
100
AcDbPolyline
90
2
70
0
43
0.000000
39
0.000000
10
2.763626
20
2.059228
10
2.753226
20
2.062507
0
LWPOLYLINE
5
A7
100
AcDbEntity
8
BOARD_OUTLINE
62
2
100
AcDbPolyline
90
2
70
0
43
0.000000
39
0.000000
10
2.753226
20
2.062507
10
2.742580
20
2.064867
0
LWPOLYLINE
5
A8
100
AcDbEntity
8
BOARD_OUTLINE
62
2
100
AcDbPolyline
90
2
70
0
43
0.000000
39
0.000000
10
2.742580
20
2.064867
10
2.731768
20
2.066290
0
LWPOLYLINE
5
A9
100
AcDbEntity
8
BOARD_OUTLINE
62
2
100
AcDbPolyline
90
2
70
0
43
0.000000
39
0.000000
10
2.731768
20
2.066290
10
2.720874
20
2.066766
0
LWPOLYLINE
5
AA
100
AcDbEntity
8
BOARD_OUTLINE
62
2
100
AcDbPolyline
90
2
70
0
43
0.000000
39
0.000000
10
2.720874
20
2.066766
10
2.720874
20
2.066766
0
LWPOLYLINE
5
AB
100
AcDbEntity
8
BOARD_OUTLINE
62
2
100
AcDbPolyline
90
2
70
0
43
0.000000
39
0.000000
10
2.845874
20
1.779403
10
2.845874
20
1.941766
0
LWPOLYLINE
5
AC
100
AcDbEntity
8
BOARD_OUTLINE
62
2
100
AcDbPolyline
90
2
70
0
43
0.000000
39
0.000000
10
2.845874
20
1.779403
10
2.847322
20
1.746219
0
LWPOLYLINE
5
AD
100
AcDbEntity
8
BOARD_OUTLINE
62
2
100
AcDbPolyline
90
2
70
0
43
0.000000
39
0.000000
10
2.847322
20
1.746219
10
2.851658
20
1.713289
0
LWPOLYLINE
5
AE
100
AcDbEntity
8
BOARD_OUTLINE
62
2
100
AcDbPolyline
90
2
70
0
43
0.000000
39
0.000000
10
2.851658
20
1.713289
10
2.858847
20
1.680861
0
LWPOLYLINE
5
AF
100
AcDbEntity
8
BOARD_OUTLINE
62
2
100
AcDbPolyline
90
2
70
0
43
0.000000
39
0.000000
10
2.858847
20
1.680861
10
2.868835
20
1.649184
0
LWPOLYLINE
5
B0
100
AcDbEntity
8
BOARD_OUTLINE
62
2
100
AcDbPolyline
90
2
70
0
43
0.000000
39
0.000000
10
2.868835
20
1.649184
10
2.881545
20
1.618498
0
LWPOLYLINE
5
B1
100
AcDbEntity
8
BOARD_OUTLINE
62
2
100
AcDbPolyline
90
2
70
0
43
0.000000
39
0.000000
10
2.881545
20
1.618498
10
2.896882
20
1.589036
0
LWPOLYLINE
5
B2
100
AcDbEntity
8
BOARD_OUTLINE
62
2
100
AcDbPolyline
90
2
70
0
43
0.000000
39
0.000000
10
2.896882
20
1.589036
10
2.914729
20
1.561023
0
LWPOLYLINE
5
B3
100
AcDbEntity
8
BOARD_OUTLINE
62
2
100
AcDbPolyline
90
2
70
0
43
0.000000
39
0.000000
10
2.914729
20
1.561023
10
2.934948
20
1.534672
0
LWPOLYLINE
5
B4
100
AcDbEntity
8
BOARD_OUTLINE
62
2
100
AcDbPolyline
90
2
70
0
43
0.000000
39
0.000000
10
2.934948
20
1.534672
10
2.957388
20
1.510183
0
LWPOLYLINE
5
B5
100
AcDbEntity
8
BOARD_OUTLINE
62
2
100
AcDbPolyline
90
2
70
0
43
0.000000
39
0.000000
10
2.957388
20
1.510183
10
2.981877
20
1.487744
0
LWPOLYLINE
5
B6
100
AcDbEntity
8
BOARD_OUTLINE
62
2
100
AcDbPolyline
90
2
70
0
43
0.000000
39
0.000000
10
2.981877
20
1.487744
10
3.008228
20
1.467524
0
LWPOLYLINE
5
B7
100
AcDbEntity
8
BOARD_OUTLINE
62
2
100
AcDbPolyline
90
2
70
0
43
0.000000
39
0.000000
10
3.008228
20
1.467524
10
3.036241
20
1.449677
0
LWPOLYLINE
5
B8
100
AcDbEntity
8
BOARD_OUTLINE
62
2
100
AcDbPolyline
90
2
70
0
43
0.000000
39
0.000000
10
3.036241
20
1.449677
10
3.065702
20
1.434340
0
LWPOLYLINE
5
B9
100
AcDbEntity
8
BOARD_OUTLINE
62
2
100
AcDbPolyline
90
2
70
0
43
0.000000
39
0.000000
10
3.065702
20
1.434340
10
3.096389
20
1.421630
0
LWPOLYLINE
5
BA
100
AcDbEntity
8
BOARD_OUTLINE
62
2
100
AcDbPolyline
90
2
70
0
43
0.000000
39
0.000000
10
3.096389
20
1.421630
10
3.128066
20
1.411642
0
LWPOLYLINE
5
BB
100
AcDbEntity
8
BOARD_OUTLINE
62
2
100
AcDbPolyline
90
2
70
0
43
0.000000
39
0.000000
10
3.128066
20
1.411642
10
3.160494
20
1.404453
0
LWPOLYLINE
5
BC
100
AcDbEntity
8
BOARD_OUTLINE
62
2
100
AcDbPolyline
90
2
70
0
43
0.000000
39
0.000000
10
3.160494
20
1.404453
10
3.193424
20
1.400117
0
LWPOLYLINE
5
BD
100
AcDbEntity
8
BOARD_OUTLINE
62
2
100
AcDbPolyline
90
2
70
0
43
0.000000
39
0.000000
10
3.193424
20
1.400117
10
3.226608
20
1.398669
0
LWPOLYLINE
5
BE
100
AcDbEntity
8
BOARD_OUTLINE
62
2
100
AcDbPolyline
90
2
70
0
43
0.000000
39
0.000000
10
3.226608
20
1.398669
10
3.226608
20
1.398669
0
LWPOLYLINE
5
BF
100
AcDbEntity
8
BOARD_OUTLINE
62
2
100
AcDbPolyline
90
2
70
0
43
0.000000
39
0.000000
10
3.439266
20
1.398669
10
3.226608
20
1.398669
0
LWPOLYLINE
5
C0
100
AcDbEntity
8
BOARD_OUTLINE
62
2
100
AcDbPolyline
90
2
70
0
43
0.000000
39
0.000000
10
3.564266
20
1.273669
10
3.563790
20
1.284563
0
LWPOLYLINE
5
C1
100
AcDbEntity
8
BOARD_OUTLINE
62
2
100
AcDbPolyline
90
2
70
0
43
0.000000
39
0.000000
10
3.563790
20
1.284563
10
3.562367
20
1.295375
0
LWPOLYLINE
5
C2
100
AcDbEntity
8
BOARD_OUTLINE
62
2
100
AcDbPolyline
90
2
70
0
43
0.000000
39
0.000000
10
3.562367
20
1.295375
10
3.560007
20
1.306021
0
LWPOLYLINE
5
C3
100
AcDbEntity
8
BOARD_OUTLINE
62
2
100
AcDbPolyline
90
2
70
0
43
0.000000
39
0.000000
10
3.560007
20
1.306021
10
3.556728
20
1.316421
0
LWPOLYLINE
5
C4
100
AcDbEntity
8
BOARD_OUTLINE
62
2
100
AcDbPolyline
90
2
70
0
43
0.000000
39
0.000000
10
3.556728
20
1.316421
10
3.552555
20
1.326496
0
LWPOLYLINE
5
C5
100
AcDbEntity
8
BOARD_OUTLINE
62
2
100
AcDbPolyline
90
2
70
0
43
0.000000
39
0.000000
10
3.552555
20
1.326496
10
3.547519
20
1.336169
0
LWPOLYLINE
5
C6
100
AcDbEntity
8
BOARD_OUTLINE
62
2
100
AcDbPolyline
90
2
70
0
43
0.000000
39
0.000000
10
3.547519
20
1.336169
10
3.541660
20
1.345366
0
LWPOLYLINE
5
C7
100
AcDbEntity
8
BOARD_OUTLINE
62
2
100
AcDbPolyline
90
2
70
0
43
0.000000
39
0.000000
10
3.541660
20
1.345366
10
3.535022
20
1.354017
0
LWPOLYLINE
5
C8
100
AcDbEntity
8
BOARD_OUTLINE
62
2
100
AcDbPolyline
90
2
70
0
43
0.000000
39
0.000000
10
3.535022
20
1.354017
10
3.527654
20
1.362057
0
LWPOLYLINE
5
C9
100
AcDbEntity
8
BOARD_OUTLINE
62
2
100
AcDbPolyline
90
2
70
0
43
0.000000
39
0.000000
10
3.527654
20
1.362057
10
3.519614
20
1.369424
0
LWPOLYLINE
5
CA
100
AcDbEntity
8
BOARD_OUTLINE
62
2
100
AcDbPolyline
90
2
70
0
43
0.000000
39
0.000000
10
3.519614
20
1.369424
10
3.510963
20
1.376063
0
LWPOLYLINE
5
CB
100
AcDbEntity
8
BOARD_OUTLINE
62
2
100
AcDbPolyline
90
2
70
0
43
0.000000
39
0.000000
10
3.510963
20
1.376063
10
3.501766
20
1.381922
0
LWPOLYLINE
5
CC
100
AcDbEntity
8
BOARD_OUTLINE
62
2
100
AcDbPolyline
90
2
70
0
43
0.000000
39
0.000000
10
3.501766
20
1.381922
10
3.492093
20
1.386957
0
LWPOLYLINE
5
CD
100
AcDbEntity
8
BOARD_OUTLINE
62
2
100
AcDbPolyline
90
2
70
0
43
0.000000
39
0.000000
10
3.492093
20
1.386957
10
3.482019
20
1.391130
0
LWPOLYLINE
5
CE
100
AcDbEntity
8
BOARD_OUTLINE
62
2
100
AcDbPolyline
90
2
70
0
43
0.000000
39
0.000000
10
3.482019
20
1.391130
10
3.471618
20
1.394409
0
LWPOLYLINE
5
CF
100
AcDbEntity
8
BOARD_OUTLINE
62
2
100
AcDbPolyline
90
2
70
0
43
0.000000
39
0.000000
10
3.471618
20
1.394409
10
3.460972
20
1.396770
0
LWPOLYLINE
5
D0
100
AcDbEntity
8
BOARD_OUTLINE
62
2
100
AcDbPolyline
90
2
70
0
43
0.000000
39
0.000000
10
3.460972
20
1.396770
10
3.450161
20
1.398193
0
LWPOLYLINE
5
D1
100
AcDbEntity
8
BOARD_OUTLINE
62
2
100
AcDbPolyline
90
2
70
0
43
0.000000
39
0.000000
10
3.450161
20
1.398193
10
3.439266
20
1.398669
0
LWPOLYLINE
5
D2
100
AcDbEntity
8
BOARD_OUTLINE
62
2
100
AcDbPolyline
90
2
70
0
43
0.000000
39
0.000000
10
3.439266
20
1.398669
10
3.439266
20
1.398669
0
LWPOLYLINE
5
D3
100
AcDbEntity
8
BOARD_OUTLINE
62
2
100
AcDbPolyline
90
2
70
0
43
0.000000
39
0.000000
10
3.226608
20
-1.398669
10
3.439266
20
-1.398669
0
LWPOLYLINE
5
D4
100
AcDbEntity
8
BOARD_OUTLINE
62
2
100
AcDbPolyline
90
2
70
0
43
0.000000
39
0.000000
10
3.226608
20
-1.398669
10
3.193424
20
-1.400117
0
LWPOLYLINE
5
D5
100
AcDbEntity
8
BOARD_OUTLINE
62
2
100
AcDbPolyline
90
2
70
0
43
0.000000
39
0.000000
10
3.193424
20
-1.400117
10
3.160494
20
-1.404453
0
LWPOLYLINE
5
D6
100
AcDbEntity
8
BOARD_OUTLINE
62
2
100
AcDbPolyline
90
2
70
0
43
0.000000
39
0.000000
10
3.160494
20
-1.404453
10
3.128066
20
-1.411642
0
LWPOLYLINE
5
D7
100
AcDbEntity
8
BOARD_OUTLINE
62
2
100
AcDbPolyline
90
2
70
0
43
0.000000
39
0.000000
10
3.128066
20
-1.411642
10
3.096389
20
-1.421630
0
LWPOLYLINE
5
D8
100
AcDbEntity
8
BOARD_OUTLINE
62
2
100
AcDbPolyline
90
2
70
0
43
0.000000
39
0.000000
10
3.096389
20
-1.421630
10
3.065702
20
-1.434340
0
LWPOLYLINE
5
D9
100
AcDbEntity
8
BOARD_OUTLINE
62
2
100
AcDbPolyline
90
2
70
0
43
0.000000
39
0.000000
10
3.065702
20
-1.434340
10
3.036241
20
-1.449677
0
LWPOLYLINE
5
DA
100
AcDbEntity
8
BOARD_OUTLINE
62
2
100
AcDbPolyline
90
2
70
0
43
0.000000
39
0.000000
10
3.036241
20
-1.449677
10
3.008228
20
-1.467524
0
LWPOLYLINE
5
DB
100
AcDbEntity
8
BOARD_OUTLINE
62
2
100
AcDbPolyline
90
2
70
0
43
0.000000
39
0.000000
10
3.008228
20
-1.467524
10
2.981877
20
-1.487744
0
LWPOLYLINE
5
DC
100
AcDbEntity
8
BOARD_OUTLINE
62
2
100
AcDbPolyline
90
2
70
0
43
0.000000
39
0.000000
10
2.981877
20
-1.487744
10
2.957388
20
-1.510183
0
LWPOLYLINE
5
DD
100
AcDbEntity
8
BOARD_OUTLINE
62
2
100
AcDbPolyline
90
2
70
0
43
0.000000
39
0.000000
10
2.957388
20
-1.510183
10
2.934948
20
-1.534672
0
LWPOLYLINE
5
DE
100
AcDbEntity
8
BOARD_OUTLINE
62
2
100
AcDbPolyline
90
2
70
0
43
0.000000
39
0.000000
10
2.934948
20
-1.534672
10
2.914729
20
-1.561023
0
LWPOLYLINE
5
DF
100
AcDbEntity
8
BOARD_OUTLINE
62
2
100
AcDbPolyline
90
2
70
0
43
0.000000
39
0.000000
10
2.914729
20
-1.561023
10
2.896882
20
-1.589036
0
LWPOLYLINE
5
E0
100
AcDbEntity
8
BOARD_OUTLINE
62
2
100
AcDbPolyline
90
2
70
0
43
0.000000
39
0.000000
10
2.896882
20
-1.589036
10
2.881545
20
-1.618498
0
LWPOLYLINE
5
E1
100
AcDbEntity
8
BOARD_OUTLINE
62
2
100
AcDbPolyline
90
2
70
0
43
0.000000
39
0.000000
10
2.881545
20
-1.618498
10
2.868835
20
-1.649184
0
LWPOLYLINE
5
E2
100
AcDbEntity
8
BOARD_OUTLINE
62
2
100
AcDbPolyline
90
2
70
0
43
0.000000
39
0.000000
10
2.868835
20
-1.649184
10
2.858847
20
-1.680861
0
LWPOLYLINE
5
E3
100
AcDbEntity
8
BOARD_OUTLINE
62
2
100
AcDbPolyline
90
2
70
0
43
0.000000
39
0.000000
10
2.858847
20
-1.680861
10
2.851658
20
-1.713289
0
LWPOLYLINE
5
E4
100
AcDbEntity
8
BOARD_OUTLINE
62
2
100
AcDbPolyline
90
2
70
0
43
0.000000
39
0.000000
10
2.851658
20
-1.713289
10
2.847322
20
-1.746219
0
LWPOLYLINE
5
E5
100
AcDbEntity
8
BOARD_OUTLINE
62
2
100
AcDbPolyline
90
2
70
0
43
0.000000
39
0.000000
10
2.847322
20
-1.746219
10
2.845874
20
-1.779403
0
LWPOLYLINE
5
E6
100
AcDbEntity
8
BOARD_OUTLINE
62
2
100
AcDbPolyline
90
2
70
0
43
0.000000
39
0.000000
10
2.845874
20
-1.779403
10
2.845874
20
-1.779403
0
LWPOLYLINE
5
E7
100
AcDbEntity
8
BOARD_OUTLINE
62
2
100
AcDbPolyline
90
2
70
0
43
0.000000
39
0.000000
10
2.845874
20
-1.941766
10
2.845874
20
-1.779403
0
LWPOLYLINE
5
E8
100
AcDbEntity
8
BOARD_OUTLINE
62
2
100
AcDbPolyline
90
2
70
0
43
0.000000
39
0.000000
10
2.720874
20
-2.066766
10
2.731768
20
-2.066290
0
LWPOLYLINE
5
E9
100
AcDbEntity
8
BOARD_OUTLINE
62
2
100
AcDbPolyline
90
2
70
0
43
0.000000
39
0.000000
10
2.731768
20
-2.066290
10
2.742580
20
-2.064867
0
LWPOLYLINE
5
EA
100
AcDbEntity
8
BOARD_OUTLINE
62
2
100
AcDbPolyline
90
2
70
0
43
0.000000
39
0.000000
10
2.742580
20
-2.064867
10
2.753226
20
-2.062507
0
LWPOLYLINE
5
EB
100
AcDbEntity
8
BOARD_OUTLINE
62
2
100
AcDbPolyline
90
2
70
0
43
0.000000
39
0.000000
10
2.753226
20
-2.062507
10
2.763626
20
-2.059228
0
LWPOLYLINE
5
EC
100
AcDbEntity
8
BOARD_OUTLINE
62
2
100
AcDbPolyline
90
2
70
0
43
0.000000
39
0.000000
10
2.763626
20
-2.059228
10
2.773701
20
-2.055055
0
LWPOLYLINE
5
ED
100
AcDbEntity
8
BOARD_OUTLINE
62
2
100
AcDbPolyline
90
2
70
0
43
0.000000
39
0.000000
10
2.773701
20
-2.055055
10
2.783374
20
-2.050019
0
LWPOLYLINE
5
EE
100
AcDbEntity
8
BOARD_OUTLINE
62
2
100
AcDbPolyline
90
2
70
0
43
0.000000
39
0.000000
10
2.783374
20
-2.050019
10
2.792571
20
-2.044160
0
LWPOLYLINE
5
EF
100
AcDbEntity
8
BOARD_OUTLINE
62
2
100
AcDbPolyline
90
2
70
0
43
0.000000
39
0.000000
10
2.792571
20
-2.044160
10
2.801222
20
-2.037522
0
LWPOLYLINE
5
F0
100
AcDbEntity
8
BOARD_OUTLINE
62
2
100
AcDbPolyline
90
2
70
0
43
0.000000
39
0.000000
10
2.801222
20
-2.037522
10
2.809262
20
-2.030154
0
LWPOLYLINE
5
F1
100
AcDbEntity
8
BOARD_OUTLINE
62
2
100
AcDbPolyline
90
2
70
0
43
0.000000
39
0.000000
10
2.809262
20
-2.030154
10
2.816629
20
-2.022114
0
LWPOLYLINE
5
F2
100
AcDbEntity
8
BOARD_OUTLINE
62
2
100
AcDbPolyline
90
2
70
0
43
0.000000
39
0.000000
10
2.816629
20
-2.022114
10
2.823268
20
-2.013463
0
LWPOLYLINE
5
F3
100
AcDbEntity
8
BOARD_OUTLINE
62
2
100
AcDbPolyline
90
2
70
0
43
0.000000
39
0.000000
10
2.823268
20
-2.013463
10
2.829127
20
-2.004266
0
LWPOLYLINE
5
F4
100
AcDbEntity
8
BOARD_OUTLINE
62
2
100
AcDbPolyline
90
2
70
0
43
0.000000
39
0.000000
10
2.829127
20
-2.004266
10
2.834162
20
-1.994593
0
LWPOLYLINE
5
F5
100
AcDbEntity
8
BOARD_OUTLINE
62
2
100
AcDbPolyline
90
2
70
0
43
0.000000
39
0.000000
10
2.834162
20
-1.994593
10
2.838335
20
-1.984519
0
LWPOLYLINE
5
F6
100
AcDbEntity
8
BOARD_OUTLINE
62
2
100
AcDbPolyline
90
2
70
0
43
0.000000
39
0.000000
10
2.838335
20
-1.984519
10
2.841614
20
-1.974118
0
LWPOLYLINE
5
F7
100
AcDbEntity
8
BOARD_OUTLINE
62
2
100
AcDbPolyline
90
2
70
0
43
0.000000
39
0.000000
10
2.841614
20
-1.974118
10
2.843975
20
-1.963472
0
LWPOLYLINE
5
F8
100
AcDbEntity
8
BOARD_OUTLINE
62
2
100
AcDbPolyline
90
2
70
0
43
0.000000
39
0.000000
10
2.843975
20
-1.963472
10
2.845398
20
-1.952661
0
LWPOLYLINE
5
F9
100
AcDbEntity
8
BOARD_OUTLINE
62
2
100
AcDbPolyline
90
2
70
0
43
0.000000
39
0.000000
10
2.845398
20
-1.952661
10
2.845874
20
-1.941766
0
LWPOLYLINE
5
FA
100
AcDbEntity
8
BOARD_OUTLINE
62
2
100
AcDbPolyline
90
2
70
0
43
0.000000
39
0.000000
10
2.845874
20
-1.941766
10
2.845874
20
-1.941766
0
LWPOLYLINE
5
FB
100
AcDbEntity
8
BOARD_OUTLINE
62
2
100
AcDbPolyline
90
2
70
0
43
0.000000
39
0.000000
10
2.720874
20
-2.066766
10
2.050000
20
-2.066766
0
LWPOLYLINE
5
FC
100
AcDbEntity
8
BOARD_OUTLINE
62
2
100
AcDbPolyline
90
2
70
0
43
0.000000
39
0.000000
10
2.720874
20
2.066766
10
0.000000
20
2.066766
0
LWPOLYLINE
5
FD
100
AcDbEntity
8
BOARD_OUTLINE
62
2
100
AcDbPolyline
90
2
70
0
43
0.000000
39
0.000000
10
3.564000
20
0.800000
10
3.564266
20
1.273669
0
LWPOLYLINE
5
FE
100
AcDbEntity
8
BOARD_OUTLINE
62
2
100
AcDbPolyline
90
2
70
0
43
0.000000
39
0.000000
10
2.050000
20
-2.066766
10
1.250000
20
-2.066766
0
LWPOLYLINE
5
FF
100
AcDbEntity
8
BOARD_OUTLINE
62
2
100
AcDbPolyline
90
2
70
0
43
0.000000
39
0.000000
10
-2.720874
20
-2.066766
10
-1.250000
20
-2.066766
0
LWPOLYLINE
5
100
100
AcDbEntity
8
BOARD_OUTLINE
62
2
100
AcDbPolyline
90
2
70
0
43
0.000000
39
0.000000
10
0.429570
20
-2.066766
10
1.250000
20
-2.066766
0
LWPOLYLINE
5
101
100
AcDbEntity
8
BOARD_OUTLINE
62
2
100
AcDbPolyline
90
2
70
0
43
0.000000
39
0.000000
10
0.000000
20
-2.066766
10
0.429570
20
-2.066766
0
LWPOLYLINE
5
102
100
AcDbEntity
8
BOARD_OUTLINE
62
2
100
AcDbPolyline
90
2
70
0
43
0.000000
39
0.000000
10
-1.250000
20
1.398669
10
-0.450000
20
1.398669
0
LWPOLYLINE
5
103
100
AcDbEntity
8
BOARD_OUTLINE
62
2
100
AcDbPolyline
90
2
70
0
43
0.000000
39
0.000000
10
-0.450000
20
1.398669
10
-0.450000
20
2.066766
0
LWPOLYLINE
5
104
100
AcDbEntity
8
BOARD_OUTLINE
62
2
100
AcDbPolyline
90
2
70
0
43
0.000000
39
0.000000
10
-0.450000
20
2.066766
10
0.000000
20
2.066766
0
LWPOLYLINE
5
105
100
AcDbEntity
8
BOARD_OUTLINE
62
2
100
AcDbPolyline
90
2
70
0
43
0.000000
39
0.000000
10
-2.050000
20
2.066766
10
-1.250000
20
2.066766
0
LWPOLYLINE
5
106
100
AcDbEntity
8
BOARD_OUTLINE
62
2
100
AcDbPolyline
90
2
70
0
43
0.000000
39
0.000000
10
3.564000
20
0.400000
10
3.564000
20
0.800000
0
LWPOLYLINE
5
107
100
AcDbEntity
8
BOARD_OUTLINE
62
2
100
AcDbPolyline
90
2
70
0
43
0.000000
39
0.000000
10
3.564000
20
0.400000
10
3.564000
20
0.000000
0
LWPOLYLINE
5
108
100
AcDbEntity
8
BOARD_OUTLINE
62
2
100
AcDbPolyline
90
2
70
0
43
0.000000
39
0.000000
10
3.564000
20
0.000000
10
2.896000
20
0.000000
0
LWPOLYLINE
5
109
100
AcDbEntity
8
BOARD_OUTLINE
62
2
100
AcDbPolyline
90
2
70
0
43
0.000000
39
0.000000
10
2.896000
20
0.000000
10
2.896000
20
-0.800000
0
LWPOLYLINE
5
10A
100
AcDbEntity
8
BOARD_OUTLINE
62
2
100
AcDbPolyline
90
2
70
0
43
0.000000
39
0.000000
10
2.896000
20
-0.800000
10
3.564000
20
-0.800000
0
LWPOLYLINE
5
10B
100
AcDbEntity
8
BOARD_OUTLINE
62
2
100
AcDbPolyline
90
2
70
0
43
0.000000
39
0.000000
10
3.564000
20
-0.800000
10
3.564000
20
-1.281820
0
LWPOLYLINE
5
10C
100
AcDbEntity
8
BOARD_OUTLINE
62
2
100
AcDbPolyline
90
2
70
0
43
0.000000
39
0.000000
10
-1.250000
20
-2.066766
10
-1.250000
20
-1.398766
0
LWPOLYLINE
5
10D
100
AcDbEntity
8
BOARD_OUTLINE
62
2
100
AcDbPolyline
90
2
70
0
43
0.000000
39
0.000000
10
-1.250000
20
-1.398766
10
-0.450000
20
-1.398766
0
LWPOLYLINE
5
10E
100
AcDbEntity
8
BOARD_OUTLINE
62
2
100
AcDbPolyline
90
2
70
0
43
0.000000
39
0.000000
10
-0.450000
20
-1.398766
10
-0.450000
20
-2.066766
0
LWPOLYLINE
5
10F
100
AcDbEntity
8
BOARD_OUTLINE
62
2
100
AcDbPolyline
90
2
70
0
43
0.000000
39
0.000000
10
-0.450000
20
-2.066766
10
0.000000
20
-2.066766
0
LWPOLYLINE
5
110
100
AcDbEntity
8
BOARD_OUTLINE
62
2
100
AcDbPolyline
90
2
70
0
43
0.000000
39
0.000000
10
3.439266
20
-1.398669
10
3.450161
20
-1.398193
0
LWPOLYLINE
5
111
100
AcDbEntity
8
BOARD_OUTLINE
62
2
100
AcDbPolyline
90
2
70
0
43
0.000000
39
0.000000
10
3.450161
20
-1.398193
10
3.460972
20
-1.396770
0
LWPOLYLINE
5
112
100
AcDbEntity
8
BOARD_OUTLINE
62
2
100
AcDbPolyline
90
2
70
0
43
0.000000
39
0.000000
10
3.460972
20
-1.396770
10
3.471618
20
-1.394409
0
LWPOLYLINE
5
113
100
AcDbEntity
8
BOARD_OUTLINE
62
2
100
AcDbPolyline
90
2
70
0
43
0.000000
39
0.000000
10
3.471618
20
-1.394409
10
3.482019
20
-1.391130
0
LWPOLYLINE
5
114
100
AcDbEntity
8
BOARD_OUTLINE
62
2
100
AcDbPolyline
90
2
70
0
43
0.000000
39
0.000000
10
3.482019
20
-1.391130
10
3.492093
20
-1.386957
0
LWPOLYLINE
5
115
100
AcDbEntity
8
BOARD_OUTLINE
62
2
100
AcDbPolyline
90
2
70
0
43
0.000000
39
0.000000
10
3.492093
20
-1.386957
10
3.501766
20
-1.381922
0
LWPOLYLINE
5
116
100
AcDbEntity
8
BOARD_OUTLINE
62
2
100
AcDbPolyline
90
2
70
0
43
0.000000
39
0.000000
10
3.501766
20
-1.381922
10
3.510963
20
-1.376063
0
LWPOLYLINE
5
117
100
AcDbEntity
8
BOARD_OUTLINE
62
2
100
AcDbPolyline
90
2
70
0
43
0.000000
39
0.000000
10
3.510963
20
-1.376063
10
3.519614
20
-1.369424
0
LWPOLYLINE
5
118
100
AcDbEntity
8
BOARD_OUTLINE
62
2
100
AcDbPolyline
90
2
70
0
43
0.000000
39
0.000000
10
3.519614
20
-1.369424
10
3.527654
20
-1.362057
0
LWPOLYLINE
5
119
100
AcDbEntity
8
BOARD_OUTLINE
62
2
100
AcDbPolyline
90
2
70
0
43
0.000000
39
0.000000
10
3.527654
20
-1.362057
10
3.535022
20
-1.354017
0
LWPOLYLINE
5
11A
100
AcDbEntity
8
BOARD_OUTLINE
62
2
100
AcDbPolyline
90
2
70
0
43
0.000000
39
0.000000
10
3.535022
20
-1.354017
10
3.541660
20
-1.345366
0
LWPOLYLINE
5
11B
100
AcDbEntity
8
BOARD_OUTLINE
62
2
100
AcDbPolyline
90
2
70
0
43
0.000000
39
0.000000
10
3.541660
20
-1.345366
10
3.547519
20
-1.336169
0
LWPOLYLINE
5
11C
100
AcDbEntity
8
BOARD_OUTLINE
62
2
100
AcDbPolyline
90
2
70
0
43
0.000000
39
0.000000
10
3.547519
20
-1.336169
10
3.552555
20
-1.326496
0
LWPOLYLINE
5
11D
100
AcDbEntity
8
BOARD_OUTLINE
62
2
100
AcDbPolyline
90
2
70
0
43
0.000000
39
0.000000
10
3.552555
20
-1.326496
10
3.556728
20
-1.316421
0
LWPOLYLINE
5
11E
100
AcDbEntity
8
BOARD_OUTLINE
62
2
100
AcDbPolyline
90
2
70
0
43
0.000000
39
0.000000
10
3.556728
20
-1.316421
10
3.560007
20
-1.306021
0
LWPOLYLINE
5
11F
100
AcDbEntity
8
BOARD_OUTLINE
62
2
100
AcDbPolyline
90
2
70
0
43
0.000000
39
0.000000
10
3.560007
20
-1.306021
10
3.562367
20
-1.295375
0
LWPOLYLINE
5
120
100
AcDbEntity
8
BOARD_OUTLINE
62
2
100
AcDbPolyline
90
2
70
0
43
0.000000
39
0.000000
10
3.562367
20
-1.295375
10
3.563790
20
-1.284563
0
LWPOLYLINE
5
121
100
AcDbEntity
8
BOARD_OUTLINE
62
2
100
AcDbPolyline
90
2
70
0
43
0.000000
39
0.000000
10
3.563790
20
-1.284563
10
3.564000
20
-1.281820
0
HATCH
5
122
100
AcDbEntity
8
BOARD_OUTLINE
62
255
100
AcDbHatch
10
0.0
20
0.0
30
0.0
210
0.0
220
0.0
230
1.0
2
SOLID
70
1
71
0
91
1
92
1
93
4
72
1
10
0.334173
20
-1.667087
11
2.105827
21
-1.667087
72
1
10
2.105827
20
-1.667087
11
2.105827
21
-0.052913
72
1
10
2.105827
20
-0.052913
11
0.334173
21
-0.052913
72
1
10
0.334173
20
-0.052913
11
0.334173
21
-1.667087
97
0
75
0
76
0
98
1
10
0.0
20
0.0
0
LWPOLYLINE
5
123
100
AcDbEntity
8
BOARD_OUTLINE
62
255
100
AcDbPolyline
90
5
70
0
43
0.000000
39
0.000000
10
0.334173
20
-1.667087
10
2.105827
20
-1.667087
10
2.105827
20
-0.052913
10
0.334173
20
-0.052913
10
0.334173
20
-1.667087
0
HATCH
5
124
100
AcDbEntity
8
DRILL
62
255
100
AcDbHatch
10
0.0
20
0.0
30
0.0
210
0.0
220
0.0
230
1.0
2
SOLID
70
1
71
0
91
1
92
1
93
1
72
2
10
-3.350000
20
0.580000
40
0.011811
50
0.000000
51
360.000000
73
1
97
0
75
0
76
0
98
1
10
0.0
20
0.0
0
CIRCLE
5
125
100
AcDbEntity
8
DRILL
62
255
100
AcDbCircle
39
0.000000
10
-3.350000
20
0.580000
30
0
40
0.011811
0
HATCH
5
126
100
AcDbEntity
8
DRILL
62
255
100
AcDbHatch
10
0.0
20
0.0
30
0.0
210
0.0
220
0.0
230
1.0
2
SOLID
70
1
71
0
91
1
92
1
93
1
72
2
10
-2.640000
20
0.950000
40
0.011811
50
0.000000
51
360.000000
73
1
97
0
75
0
76
0
98
1
10
0.0
20
0.0
0
CIRCLE
5
127
100
AcDbEntity
8
DRILL
62
255
100
AcDbCircle
39
0.000000
10
-2.640000
20
0.950000
30
0
40
0.011811
0
HATCH
5
128
100
AcDbEntity
8
DRILL
62
255
100
AcDbHatch
10
0.0
20
0.0
30
0.0
210
0.0
220
0.0
230
1.0
2
SOLID
70
1
71
0
91
1
92
1
93
1
72
2
10
-2.740000
20
-0.840000
40
0.011811
50
0.000000
51
360.000000
73
1
97
0
75
0
76
0
98
1
10
0.0
20
0.0
0
CIRCLE
5
129
100
AcDbEntity
8
DRILL
62
255
100
AcDbCircle
39
0.000000
10
-2.740000
20
-0.840000
30
0
40
0.011811
0
HATCH
5
12A
100
AcDbEntity
8
DRILL
62
255
100
AcDbHatch
10
0.0
20
0.0
30
0.0
210
0.0
220
0.0
230
1.0
2
SOLID
70
1
71
0
91
1
92
1
93
8
72
1
10
0.334173
20
-0.057913
11
0.334173
21
-1.662087
72
2
10
0.339173
20
-1.662087
40
0.005000
50
180.000000
51
270.000000
73
1
72
1
10
0.339173
20
-1.667087
11
2.100827
21
-1.667087
72
2
10
2.100827
20
-1.662087
40
0.005000
50
270.000000
51
0.000000
73
1
72
1
10
2.105827
20
-1.662087
11
2.105827
21
-0.057913
72
2
10
2.100827
20
-0.057913
40
0.005000
50
0.000000
51
90.000000
73
1
72
1
10
2.100827
20
-0.052913
11
0.339173
21
-0.052913
72
2
10
0.339173
20
-0.057913
40
0.005000
50
90.000000
51
180.000000
73
1
97
0
75
0
76
0
98
1
10
0.0
20
0.0
0
LWPOLYLINE
5
12B
100
AcDbEntity
8
DRILL
62
255
100
AcDbPolyline
90
2
70
0
43
0.000000
39
0.000000
10
0.334173
20
-0.057913
10
0.334173
20
-1.662087
0
ARC
5
12C
100
AcDbEntity
8
DRILL
62
255
100
AcDbCircle
39
0.000000
10
0.339173
20
-1.662087
30
0.0
40
0.005000
100
AcDbArc
50
180.000000
51
270.000000
0
LWPOLYLINE
5
12D
100
AcDbEntity
8
DRILL
62
255
100
AcDbPolyline
90
2
70
0
43
0.000000
39
0.000000
10
0.339173
20
-1.667087
10
2.100827
20
-1.667087
0
ARC
5
12E
100
AcDbEntity
8
DRILL
62
255
100
AcDbCircle
39
0.000000
10
2.100827
20
-1.662087
30
0.0
40
0.005000
100
AcDbArc
50
270.000000
51
0.000000
0
LWPOLYLINE
5
12F
100
AcDbEntity
8
DRILL
62
255
100
AcDbPolyline
90
2
70
0
43
0.000000
39
0.000000
10
2.105827
20
-1.662087
10
2.105827
20
-0.057913
0
ARC
5
130
100
AcDbEntity
8
DRILL
62
255
100
AcDbCircle
39
0.000000
10
2.100827
20
-0.057913
30
0.0
40
0.005000
100
AcDbArc
50
0.000000
51
90.000000
0
LWPOLYLINE
5
131
100
AcDbEntity
8
DRILL
62
255
100
AcDbPolyline
90
2
70
0
43
0.000000
39
0.000000
10
2.100827
20
-0.052913
10
0.339173
20
-0.052913
0
ARC
5
132
100
AcDbEntity
8
DRILL
62
255
100
AcDbCircle
39
0.000000
10
0.339173
20
-0.057913
30
0.0
40
0.005000
100
AcDbArc
50
90.000000
51
180.000000
0
HATCH
5
133
100
AcDbEntity
8
DRILL
62
255
100
AcDbHatch
10
0.0
20
0.0
30
0.0
210
0.0
220
0.0
230
1.0
2
SOLID
70
1
71
0
91
1
92
1
93
1
72
2
10
-2.524000
20
1.714000
40
0.062500
50
0.000000
51
360.000000
73
1
97
0
75
0
76
0
98
1
10
0.0
20
0.0
0
CIRCLE
5
134
100
AcDbEntity
8
DRILL
62
255
100
AcDbCircle
39
0.000000
10
-2.524000
20
1.714000
30
0
40
0.062500
0
HATCH
5
135
100
AcDbEntity
8
DRILL
62
255
100
AcDbHatch
10
0.0
20
0.0
30
0.0
210
0.0
220
0.0
230
1.0
2
SOLID
70
1
71
0
91
1
92
1
93
1
72
2
10
2.524000
20
1.714000
40
0.062500
50
0.000000
51
360.000000
73
1
97
0
75
0
76
0
98
1
10
0.0
20
0.0
0
CIRCLE
5
136
100
AcDbEntity
8
DRILL
62
255
100
AcDbCircle
39
0.000000
10
2.524000
20
1.714000
30
0
40
0.062500
0
HATCH
5
137
100
AcDbEntity
8
DRILL
62
255
100
AcDbHatch
10
0.0
20
0.0
30
0.0
210
0.0
220
0.0
230
1.0
2
SOLID
70
1
71
0
91
1
92
1
93
1
72
2
10
3.211000
20
1.089000
40
0.062500
50
0.000000
51
360.000000
73
1
97
0
75
0
76
0
98
1
10
0.0
20
0.0
0
CIRCLE
5
138
100
AcDbEntity
8
DRILL
62
255
100
AcDbCircle
39
0.000000
10
3.211000
20
1.089000
30
0
40
0.062500
0
HATCH
5
139
100
AcDbEntity
8
DRILL
62
255
100
AcDbHatch
10
0.0
20
0.0
30
0.0
210
0.0
220
0.0
230
1.0
2
SOLID
70
1
71
0
91
1
92
1
93
1
72
2
10
3.211000
20
-1.089000
40
0.062500
50
0.000000
51
360.000000
73
1
97
0
75
0
76
0
98
1
10
0.0
20
0.0
0
CIRCLE
5
13A
100
AcDbEntity
8
DRILL
62
255
100
AcDbCircle
39
0.000000
10
3.211000
20
-1.089000
30
0
40
0.062500
0
HATCH
5
13B
100
AcDbEntity
8
DRILL
62
255
100
AcDbHatch
10
0.0
20
0.0
30
0.0
210
0.0
220
0.0
230
1.0
2
SOLID
70
1
71
0
91
1
92
1
93
1
72
2
10
-3.211000
20
1.089000
40
0.062500
50
0.000000
51
360.000000
73
1
97
0
75
0
76
0
98
1
10
0.0
20
0.0
0
CIRCLE
5
13C
100
AcDbEntity
8
DRILL
62
255
100
AcDbCircle
39
0.000000
10
-3.211000
20
1.089000
30
0
40
0.062500
0
HATCH
5
13D
100
AcDbEntity
8
DRILL
62
255
100
AcDbHatch
10
0.0
20
0.0
30
0.0
210
0.0
220
0.0
230
1.0
2
SOLID
70
1
71
0
91
1
92
1
93
1
72
2
10
-2.524000
20
-1.714000
40
0.062500
50
0.000000
51
360.000000
73
1
97
0
75
0
76
0
98
1
10
0.0
20
0.0
0
CIRCLE
5
13E
100
AcDbEntity
8
DRILL
62
255
100
AcDbCircle
39
0.000000
10
-2.524000
20
-1.714000
30
0
40
0.062500
0
HATCH
5
13F
100
AcDbEntity
8
DRILL
62
255
100
AcDbHatch
10
0.0
20
0.0
30
0.0
210
0.0
220
0.0
230
1.0
2
SOLID
70
1
71
0
91
1
92
1
93
1
72
2
10
2.524000
20
-1.714000
40
0.062500
50
0.000000
51
360.000000
73
1
97
0
75
0
76
0
98
1
10
0.0
20
0.0
0
CIRCLE
5
140
100
AcDbEntity
8
DRILL
62
255
100
AcDbCircle
39
0.000000
10
2.524000
20
-1.714000
30
0
40
0.062500
0
HATCH
5
141
100
AcDbEntity
8
DRILL
62
255
100
AcDbHatch
10
0.0
20
0.0
30
0.0
210
0.0
220
0.0
230
1.0
2
SOLID
70
1
71
0
91
1
92
1
93
1
72
2
10
-3.211000
20
-1.089000
40
0.062500
50
0.000000
51
360.000000
73
1
97
0
75
0
76
0
98
1
10
0.0
20
0.0
0
CIRCLE
5
142
100
AcDbEntity
8
DRILL
62
255
100
AcDbCircle
39
0.000000
10
-3.211000
20
-1.089000
30
0
40
0.062500
0
HATCH
5
143
100
AcDbEntity
8
DRILL
62
255
100
AcDbHatch
10
0.0
20
0.0
30
0.0
210
0.0
220
0.0
230
1.0
2
SOLID
70
1
71
0
91
1
92
1
93
1
72
2
10
-1.660000
20
-1.970000
40
0.011811
50
0.000000
51
360.000000
73
1
97
0
75
0
76
0
98
1
10
0.0
20
0.0
0
CIRCLE
5
144
100
AcDbEntity
8
DRILL
62
255
100
AcDbCircle
39
0.000000
10
-1.660000
20
-1.970000
30
0
40
0.011811
0
HATCH
5
145
100
AcDbEntity
8
DRILL
62
255
100
AcDbHatch
10
0.0
20
0.0
30
0.0
210
0.0
220
0.0
230
1.0
2
SOLID
70
1
71
0
91
1
92
1
93
1
72
2
10
2.720000
20
-0.790000
40
0.011811
50
0.000000
51
360.000000
73
1
97
0
75
0
76
0
98
1
10
0.0
20
0.0
0
CIRCLE
5
146
100
AcDbEntity
8
DRILL
62
255
100
AcDbCircle
39
0.000000
10
2.720000
20
-0.790000
30
0
40
0.011811
0
HATCH
5
147
100
AcDbEntity
8
DRILL
62
255
100
AcDbHatch
10
0.0
20
0.0
30
0.0
210
0.0
220
0.0
230
1.0
2
SOLID
70
1
71
0
91
1
92
1
93
1
72
2
10
-1.060000
20
0.360000
40
0.011811
50
0.000000
51
360.000000
73
1
97
0
75
0
76
0
98
1
10
0.0
20
0.0
0
CIRCLE
5
148
100
AcDbEntity
8
DRILL
62
255
100
AcDbCircle
39
0.000000
10
-1.060000
20
0.360000
30
0
40
0.011811
0
HATCH
5
149
100
AcDbEntity
8
DRILL
62
255
100
AcDbHatch
10
0.0
20
0.0
30
0.0
210
0.0
220
0.0
230
1.0
2
SOLID
70
1
71
0
91
1
92
1
93
1
72
2
10
-1.080000
20
0.830000
40
0.011811
50
0.000000
51
360.000000
73
1
97
0
75
0
76
0
98
1
10
0.0
20
0.0
0
CIRCLE
5
14A
100
AcDbEntity
8
DRILL
62
255
100
AcDbCircle
39
0.000000
10
-1.080000
20
0.830000
30
0
40
0.011811
0
HATCH
5
14B
100
AcDbEntity
8
DRILL
62
255
100
AcDbHatch
10
0.0
20
0.0
30
0.0
210
0.0
220
0.0
230
1.0
2
SOLID
70
1
71
0
91
1
92
1
93
1
72
2
10
-1.100000
20
-0.410000
40
0.011811
50
0.000000
51
360.000000
73
1
97
0
75
0
76
0
98
1
10
0.0
20
0.0
0
CIRCLE
5
14C
100
AcDbEntity
8
DRILL
62
255
100
AcDbCircle
39
0.000000
10
-1.100000
20
-0.410000
30
0
40
0.011811
0
HATCH
5
14D
100
AcDbEntity
8
DRILL
62
255
100
AcDbHatch
10
0.0
20
0.0
30
0.0
210
0.0
220
0.0
230
1.0
2
SOLID
70
1
71
0
91
1
92
1
93
1
72
2
10
-1.670000
20
-0.410000
40
0.011811
50
0.000000
51
360.000000
73
1
97
0
75
0
76
0
98
1
10
0.0
20
0.0
0
CIRCLE
5
14E
100
AcDbEntity
8
DRILL
62
255
100
AcDbCircle
39
0.000000
10
-1.670000
20
-0.410000
30
0
40
0.011811
0
HATCH
5
14F
100
AcDbEntity
8
DRILL
62
255
100
AcDbHatch
10
0.0
20
0.0
30
0.0
210
0.0
220
0.0
230
1.0
2
SOLID
70
1
71
0
91
1
92
1
93
1
72
2
10
-1.670000
20
-0.510000
40
0.011811
50
0.000000
51
360.000000
73
1
97
0
75
0
76
0
98
1
10
0.0
20
0.0
0
CIRCLE
5
150
100
AcDbEntity
8
DRILL
62
255
100
AcDbCircle
39
0.000000
10
-1.670000
20
-0.510000
30
0
40
0.011811
0
HATCH
5
151
100
AcDbEntity
8
DRILL
62
255
100
AcDbHatch
10
0.0
20
0.0
30
0.0
210
0.0
220
0.0
230
1.0
2
SOLID
70
1
71
0
91
1
92
1
93
1
72
2
10
-0.270000
20
-0.620000
40
0.031000
50
0.000000
51
360.000000
73
1
97
0
75
0
76
0
98
1
10
0.0
20
0.0
0
CIRCLE
5
152
100
AcDbEntity
8
DRILL
62
255
100
AcDbCircle
39
0.000000
10
-0.270000
20
-0.620000
30
0
40
0.031000
0
HATCH
5
153
100
AcDbEntity
8
DRILL
62
255
100
AcDbHatch
10
0.0
20
0.0
30
0.0
210
0.0
220
0.0
230
1.0
2
SOLID
70
1
71
0
91
1
92
1
93
1
72
2
10
2.610000
20
-0.620000
40
0.031000
50
0.000000
51
360.000000
73
1
97
0
75
0
76
0
98
1
10
0.0
20
0.0
0
CIRCLE
5
154
100
AcDbEntity
8
DRILL
62
255
100
AcDbCircle
39
0.000000
10
2.610000
20
-0.620000
30
0
40
0.031000
0
HATCH
5
155
100
AcDbEntity
8
DRILL
62
255
100
AcDbHatch
10
0.0
20
0.0
30
0.0
210
0.0
220
0.0
230
1.0
2
SOLID
70
1
71
0
91
1
92
1
93
1
72
2
10
-0.690000
20
0.510000
40
0.009843
50
0.000000
51
360.000000
73
1
97
0
75
0
76
0
98
1
10
0.0
20
0.0
0
CIRCLE
5
156
100
AcDbEntity
8
DRILL
62
255
100
AcDbCircle
39
0.000000
10
-0.690000
20
0.510000
30
0
40
0.009843
0
HATCH
5
157
100
AcDbEntity
8
DRILL
62
255
100
AcDbHatch
10
0.0
20
0.0
30
0.0
210
0.0
220
0.0
230
1.0
2
SOLID
70
1
71
0
91
1
92
1
93
1
72
2
10
-0.690000
20
0.610000
40
0.009843
50
0.000000
51
360.000000
73
1
97
0
75
0
76
0
98
1
10
0.0
20
0.0
0
CIRCLE
5
158
100
AcDbEntity
8
DRILL
62
255
100
AcDbCircle
39
0.000000
10
-0.690000
20
0.610000
30
0
40
0.009843
0
HATCH
5
159
100
AcDbEntity
8
DRILL
62
255
100
AcDbHatch
10
0.0
20
0.0
30
0.0
210
0.0
220
0.0
230
1.0
2
SOLID
70
1
71
0
91
1
92
1
93
1
72
2
10
-0.990000
20
0.510000
40
0.009843
50
0.000000
51
360.000000
73
1
97
0
75
0
76
0
98
1
10
0.0
20
0.0
0
CIRCLE
5
15A
100
AcDbEntity
8
DRILL
62
255
100
AcDbCircle
39
0.000000
10
-0.990000
20
0.510000
30
0
40
0.009843
0
HATCH
5
15B
100
AcDbEntity
8
DRILL
62
255
100
AcDbHatch
10
0.0
20
0.0
30
0.0
210
0.0
220
0.0
230
1.0
2
SOLID
70
1
71
0
91
1
92
1
93
1
72
2
10
-0.990000
20
0.610000
40
0.009843
50
0.000000
51
360.000000
73
1
97
0
75
0
76
0
98
1
10
0.0
20
0.0
0
CIRCLE
5
15C
100
AcDbEntity
8
DRILL
62
255
100
AcDbCircle
39
0.000000
10
-0.990000
20
0.610000
30
0
40
0.009843
0
HATCH
5
15D
100
AcDbEntity
8
DRILL
62
255
100
AcDbHatch
10
0.0
20
0.0
30
0.0
210
0.0
220
0.0
230
1.0
2
SOLID
70
1
71
0
91
1
92
1
93
1
72
2
10
-2.010000
20
-1.470000
40
0.031000
50
0.000000
51
360.000000
73
1
97
0
75
0
76
0
98
1
10
0.0
20
0.0
0
CIRCLE
5
15E
100
AcDbEntity
8
DRILL
62
255
100
AcDbCircle
39
0.000000
10
-2.010000
20
-1.470000
30
0
40
0.031000
0
HATCH
5
15F
100
AcDbEntity
8
DRILL
62
255
100
AcDbHatch
10
0.0
20
0.0
30
0.0
210
0.0
220
0.0
230
1.0
2
SOLID
70
1
71
0
91
1
92
1
93
1
72
2
10
-2.010000
20
1.410000
40
0.031000
50
0.000000
51
360.000000
73
1
97
0
75
0
76
0
98
1
10
0.0
20
0.0
0
CIRCLE
5
160
100
AcDbEntity
8
DRILL
62
255
100
AcDbCircle
39
0.000000
10
-2.010000
20
1.410000
30
0
40
0.031000
0
HATCH
5
161
100
AcDbEntity
8
DRILL
62
255
100
AcDbHatch
10
0.0
20
0.0
30
0.0
210
0.0
220
0.0
230
1.0
2
SOLID
70
1
71
0
91
1
92
1
93
1
72
2
10
-0.990000
20
-0.170000
40
0.009843
50
0.000000
51
360.000000
73
1
97
0
75
0
76
0
98
1
10
0.0
20
0.0
0
CIRCLE
5
162
100
AcDbEntity
8
DRILL
62
255
100
AcDbCircle
39
0.000000
10
-0.990000
20
-0.170000
30
0
40
0.009843
0
HATCH
5
163
100
AcDbEntity
8
DRILL
62
255
100
AcDbHatch
10
0.0
20
0.0
30
0.0
210
0.0
220
0.0
230
1.0
2
SOLID
70
1
71
0
91
1
92
1
93
1
72
2
10
-0.990000
20
-0.270000
40
0.009843
50
0.000000
51
360.000000
73
1
97
0
75
0
76
0
98
1
10
0.0
20
0.0
0
CIRCLE
5
164
100
AcDbEntity
8
DRILL
62
255
100
AcDbCircle
39
0.000000
10
-0.990000
20
-0.270000
30
0
40
0.009843
0
HATCH
5
165
100
AcDbEntity
8
DRILL
62
255
100
AcDbHatch
10
0.0
20
0.0
30
0.0
210
0.0
220
0.0
230
1.0
2
SOLID
70
1
71
0
91
1
92
1
93
1
72
2
10
-0.690000
20
-0.170000
40
0.009843
50
0.000000
51
360.000000
73
1
97
0
75
0
76
0
98
1
10
0.0
20
0.0
0
CIRCLE
5
166
100
AcDbEntity
8
DRILL
62
255
100
AcDbCircle
39
0.000000
10
-0.690000
20
-0.170000
30
0
40
0.009843
0
HATCH
5
167
100
AcDbEntity
8
DRILL
62
255
100
AcDbHatch
10
0.0
20
0.0
30
0.0
210
0.0
220
0.0
230
1.0
2
SOLID
70
1
71
0
91
1
92
1
93
1
72
2
10
-0.690000
20
-0.270000
40
0.009843
50
0.000000
51
360.000000
73
1
97
0
75
0
76
0
98
1
10
0.0
20
0.0
0
CIRCLE
5
168
100
AcDbEntity
8
DRILL
62
255
100
AcDbCircle
39
0.000000
10
-0.690000
20
-0.270000
30
0
40
0.009843
0
HATCH
5
169
100
AcDbEntity
8
DRILL
62
255
100
AcDbHatch
10
0.0
20
0.0
30
0.0
210
0.0
220
0.0
230
1.0
2
SOLID
70
1
71
0
91
1
92
1
93
1
72
2
10
-2.780000
20
-0.400000
40
0.017500
50
0.000000
51
360.000000
73
1
97
0
75
0
76
0
98
1
10
0.0
20
0.0
0
CIRCLE
5
16A
100
AcDbEntity
8
DRILL
62
255
100
AcDbCircle
39
0.000000
10
-2.780000
20
-0.400000
30
0
40
0.017500
0
HATCH
5
16B
100
AcDbEntity
8
DRILL
62
255
100
AcDbHatch
10
0.0
20
0.0
30
0.0
210
0.0
220
0.0
230
1.0
2
SOLID
70
1
71
0
91
1
92
1
93
1
72
2
10
-2.780000
20
-0.300000
40
0.017500
50
0.000000
51
360.000000
73
1
97
0
75
0
76
0
98
1
10
0.0
20
0.0
0
CIRCLE
5
16C
100
AcDbEntity
8
DRILL
62
255
100
AcDbCircle
39
0.000000
10
-2.780000
20
-0.300000
30
0
40
0.017500
0
HATCH
5
16D
100
AcDbEntity
8
DRILL
62
255
100
AcDbHatch
10
0.0
20
0.0
30
0.0
210
0.0
220
0.0
230
1.0
2
SOLID
70
1
71
0
91
1
92
1
93
1
72
2
10
-2.780000
20
-0.200000
40
0.019585
50
0.000000
51
360.000000
73
1
97
0
75
0
76
0
98
1
10
0.0
20
0.0
0
CIRCLE
5
16E
100
AcDbEntity
8
DRILL
62
255
100
AcDbCircle
39
0.000000
10
-2.780000
20
-0.200000
30
0
40
0.019585
0
HATCH
5
16F
100
AcDbEntity
8
DRILL
62
255
100
AcDbHatch
10
0.0
20
0.0
30
0.0
210
0.0
220
0.0
230
1.0
2
SOLID
70
1
71
0
91
1
92
1
93
1
72
2
10
-2.780000
20
-0.500000
40
0.017500
50
0.000000
51
360.000000
73
1
97
0
75
0
76
0
98
1
10
0.0
20
0.0
0
CIRCLE
5
170
100
AcDbEntity
8
DRILL
62
255
100
AcDbCircle
39
0.000000
10
-2.780000
20
-0.500000
30
0
40
0.017500
0
HATCH
5
171
100
AcDbEntity
8
DRILL
62
255
100
AcDbHatch
10
0.0
20
0.0
30
0.0
210
0.0
220
0.0
230
1.0
2
SOLID
70
1
71
0
91
1
92
1
93
1
72
2
10
-0.830000
20
1.330000
40
0.017500
50
0.000000
51
360.000000
73
1
97
0
75
0
76
0
98
1
10
0.0
20
0.0
0
CIRCLE
5
172
100
AcDbEntity
8
DRILL
62
255
100
AcDbCircle
39
0.000000
10
-0.830000
20
1.330000
30
0
40
0.017500
0
HATCH
5
173
100
AcDbEntity
8
DRILL
62
255
100
AcDbHatch
10
0.0
20
0.0
30
0.0
210
0.0
220
0.0
230
1.0
2
SOLID
70
1
71
0
91
1
92
1
93
1
72
2
10
-0.930000
20
1.330000
40
0.017500
50
0.000000
51
360.000000
73
1
97
0
75
0
76
0
98
1
10
0.0
20
0.0
0
CIRCLE
5
174
100
AcDbEntity
8
DRILL
62
255
100
AcDbCircle
39
0.000000
10
-0.930000
20
1.330000
30
0
40
0.017500
0
HATCH
5
175
100
AcDbEntity
8
DRILL
62
255
100
AcDbHatch
10
0.0
20
0.0
30
0.0
210
0.0
220
0.0
230
1.0
2
SOLID
70
1
71
0
91
1
92
1
93
1
72
2
10
-1.030000
20
1.330000
40
0.019585
50
0.000000
51
360.000000
73
1
97
0
75
0
76
0
98
1
10
0.0
20
0.0
0
CIRCLE
5
176
100
AcDbEntity
8
DRILL
62
255
100
AcDbCircle
39
0.000000
10
-1.030000
20
1.330000
30
0
40
0.019585
0
HATCH
5
177
100
AcDbEntity
8
DRILL
62
255
100
AcDbHatch
10
0.0
20
0.0
30
0.0
210
0.0
220
0.0
230
1.0
2
SOLID
70
1
71
0
91
1
92
1
93
1
72
2
10
-0.730000
20
1.330000
40
0.017500
50
0.000000
51
360.000000
73
1
97
0
75
0
76
0
98
1
10
0.0
20
0.0
0
CIRCLE
5
178
100
AcDbEntity
8
DRILL
62
255
100
AcDbCircle
39
0.000000
10
-0.730000
20
1.330000
30
0
40
0.017500
0
HATCH
5
179
100
AcDbEntity
8
DRILL
62
255
100
AcDbHatch
10
0.0
20
0.0
30
0.0
210
0.0
220
0.0
230
1.0
2
SOLID
70
1
71
0
91
1
92
1
93
1
72
2
10
-0.909635
20
-1.319635
40
0.017500
50
0.000000
51
360.000000
73
1
97
0
75
0
76
0
98
1
10
0.0
20
0.0
0
CIRCLE
5
17A
100
AcDbEntity
8
DRILL
62
255
100
AcDbCircle
39
0.000000
10
-0.909635
20
-1.319635
30
0
40
0.017500
0
HATCH
5
17B
100
AcDbEntity
8
DRILL
62
255
100
AcDbHatch
10
0.0
20
0.0
30
0.0
210
0.0
220
0.0
230
1.0
2
SOLID
70
1
71
0
91
1
92
1
93
1
72
2
10
-0.809635
20
-1.319635
40
0.017500
50
0.000000
51
360.000000
73
1
97
0
75
0
76
0
98
1
10
0.0
20
0.0
0
CIRCLE
5
17C
100
AcDbEntity
8
DRILL
62
255
100
AcDbCircle
39
0.000000
10
-0.809635
20
-1.319635
30
0
40
0.017500
0
HATCH
5
17D
100
AcDbEntity
8
DRILL
62
255
100
AcDbHatch
10
0.0
20
0.0
30
0.0
210
0.0
220
0.0
230
1.0
2
SOLID
70
1
71
0
91
1
92
1
93
1
72
2
10
-0.709635
20
-1.319635
40
0.019585
50
0.000000
51
360.000000
73
1
97
0
75
0
76
0
98
1
10
0.0
20
0.0
0
CIRCLE
5
17E
100
AcDbEntity
8
DRILL
62
255
100
AcDbCircle
39
0.000000
10
-0.709635
20
-1.319635
30
0
40
0.019585
0
HATCH
5
17F
100
AcDbEntity
8
DRILL
62
255
100
AcDbHatch
10
0.0
20
0.0
30
0.0
210
0.0
220
0.0
230
1.0
2
SOLID
70
1
71
0
91
1
92
1
93
1
72
2
10
-1.009635
20
-1.319635
40
0.017500
50
0.000000
51
360.000000
73
1
97
0
75
0
76
0
98
1
10
0.0
20
0.0
0
CIRCLE
5
180
100
AcDbEntity
8
DRILL
62
255
100
AcDbCircle
39
0.000000
10
-1.009635
20
-1.319635
30
0
40
0.017500
0
HATCH
5
181
100
AcDbEntity
8
DRILL
62
255
100
AcDbHatch
10
0.0
20
0.0
30
0.0
210
0.0
220
0.0
230
1.0
2
SOLID
70
1
71
0
91
1
92
1
93
1
72
2
10
2.800000
20
-0.350000
40
0.017500
50
0.000000
51
360.000000
73
1
97
0
75
0
76
0
98
1
10
0.0
20
0.0
0
CIRCLE
5
182
100
AcDbEntity
8
DRILL
62
255
100
AcDbCircle
39
0.000000
10
2.800000
20
-0.350000
30
0
40
0.017500
0
HATCH
5
183
100
AcDbEntity
8
DRILL
62
255
100
AcDbHatch
10
0.0
20
0.0
30
0.0
210
0.0
220
0.0
230
1.0
2
SOLID
70
1
71
0
91
1
92
1
93
1
72
2
10
2.800000
20
-0.450000
40
0.017500
50
0.000000
51
360.000000
73
1
97
0
75
0
76
0
98
1
10
0.0
20
0.0
0
CIRCLE
5
184
100
AcDbEntity
8
DRILL
62
255
100
AcDbCircle
39
0.000000
10
2.800000
20
-0.450000
30
0
40
0.017500
0
HATCH
5
185
100
AcDbEntity
8
DRILL
62
255
100
AcDbHatch
10
0.0
20
0.0
30
0.0
210
0.0
220
0.0
230
1.0
2
SOLID
70
1
71
0
91
1
92
1
93
1
72
2
10
2.800000
20
-0.550000
40
0.019585
50
0.000000
51
360.000000
73
1
97
0
75
0
76
0
98
1
10
0.0
20
0.0
0
CIRCLE
5
186
100
AcDbEntity
8
DRILL
62
255
100
AcDbCircle
39
0.000000
10
2.800000
20
-0.550000
30
0
40
0.019585
0
HATCH
5
187
100
AcDbEntity
8
DRILL
62
255
100
AcDbHatch
10
0.0
20
0.0
30
0.0
210
0.0
220
0.0
230
1.0
2
SOLID
70
1
71
0
91
1
92
1
93
1
72
2
10
2.800000
20
-0.250000
40
0.017500
50
0.000000
51
360.000000
73
1
97
0
75
0
76
0
98
1
10
0.0
20
0.0
0
CIRCLE
5
188
100
AcDbEntity
8
DRILL
62
255
100
AcDbCircle
39
0.000000
10
2.800000
20
-0.250000
30
0
40
0.017500
0
HATCH
5
189
100
AcDbEntity
8
DRILL
62
255
100
AcDbHatch
10
0.0
20
0.0
30
0.0
210
0.0
220
0.0
230
1.0
2
SOLID
70
1
71
0
91
1
92
1
93
1
72
2
10
-1.220000
20
-0.960000
40
0.019685
50
0.000000
51
360.000000
73
1
97
0
75
0
76
0
98
1
10
0.0
20
0.0
0
CIRCLE
5
18A
100
AcDbEntity
8
DRILL
62
255
100
AcDbCircle
39
0.000000
10
-1.220000
20
-0.960000
30
0
40
0.019685
0
HATCH
5
18B
100
AcDbEntity
8
DRILL
62
255
100
AcDbHatch
10
0.0
20
0.0
30
0.0
210
0.0
220
0.0
230
1.0
2
SOLID
70
1
71
0
91
1
92
1
93
1
72
2
10
-1.220000
20
-0.860000
40
0.019685
50
0.000000
51
360.000000
73
1
97
0
75
0
76
0
98
1
10
0.0
20
0.0
0
CIRCLE
5
18C
100
AcDbEntity
8
DRILL
62
255
100
AcDbCircle
39
0.000000
10
-1.220000
20
-0.860000
30
0
40
0.019685
0
HATCH
5
18D
100
AcDbEntity
8
DRILL
62
255
100
AcDbHatch
10
0.0
20
0.0
30
0.0
210
0.0
220
0.0
230
1.0
2
SOLID
70
1
71
0
91
1
92
1
93
1
72
2
10
-1.220000
20
-0.760000
40
0.019685
50
0.000000
51
360.000000
73
1
97
0
75
0
76
0
98
1
10
0.0
20
0.0
0
CIRCLE
5
18E
100
AcDbEntity
8
DRILL
62
255
100
AcDbCircle
39
0.000000
10
-1.220000
20
-0.760000
30
0
40
0.019685
0
HATCH
5
18F
100
AcDbEntity
8
DRILL
62
255
100
AcDbHatch
10
0.0
20
0.0
30
0.0
210
0.0
220
0.0
230
1.0
2
SOLID
70
1
71
0
91
1
92
1
93
1
72
2
10
-1.220000
20
-0.660000
40
0.019685
50
0.000000
51
360.000000
73
1
97
0
75
0
76
0
98
1
10
0.0
20
0.0
0
CIRCLE
5
190
100
AcDbEntity
8
DRILL
62
255
100
AcDbCircle
39
0.000000
10
-1.220000
20
-0.660000
30
0
40
0.019685
0
HATCH
5
191
100
AcDbEntity
8
DRILL
62
255
100
AcDbHatch
10
0.0
20
0.0
30
0.0
210
0.0
220
0.0
230
1.0
2
SOLID
70
1
71
0
91
1
92
1
93
1
72
2
10
-1.220000
20
-0.560000
40
0.019685
50
0.000000
51
360.000000
73
1
97
0
75
0
76
0
98
1
10
0.0
20
0.0
0
CIRCLE
5
192
100
AcDbEntity
8
DRILL
62
255
100
AcDbCircle
39
0.000000
10
-1.220000
20
-0.560000
30
0
40
0.019685
0
HATCH
5
193
100
AcDbEntity
8
DRILL
62
255
100
AcDbHatch
10
0.0
20
0.0
30
0.0
210
0.0
220
0.0
230
1.0
2
SOLID
70
1
71
0
91
1
92
1
93
1
72
2
10
-1.220000
20
-0.460000
40
0.019685
50
0.000000
51
360.000000
73
1
97
0
75
0
76
0
98
1
10
0.0
20
0.0
0
CIRCLE
5
194
100
AcDbEntity
8
DRILL
62
255
100
AcDbCircle
39
0.000000
10
-1.220000
20
-0.460000
30
0
40
0.019685
0
HATCH
5
195
100
AcDbEntity
8
DRILL
62
255
100
AcDbHatch
10
0.0
20
0.0
30
0.0
210
0.0
220
0.0
230
1.0
2
SOLID
70
1
71
0
91
1
92
1
93
1
72
2
10
-1.220000
20
-0.360000
40
0.019685
50
0.000000
51
360.000000
73
1
97
0
75
0
76
0
98
1
10
0.0
20
0.0
0
CIRCLE
5
196
100
AcDbEntity
8
DRILL
62
255
100
AcDbCircle
39
0.000000
10
-1.220000
20
-0.360000
30
0
40
0.019685
0
HATCH
5
197
100
AcDbEntity
8
DRILL
62
255
100
AcDbHatch
10
0.0
20
0.0
30
0.0
210
0.0
220
0.0
230
1.0
2
SOLID
70
1
71
0
91
1
92
1
93
1
72
2
10
-1.220000
20
-0.260000
40
0.019685
50
0.000000
51
360.000000
73
1
97
0
75
0
76
0
98
1
10
0.0
20
0.0
0
CIRCLE
5
198
100
AcDbEntity
8
DRILL
62
255
100
AcDbCircle
39
0.000000
10
-1.220000
20
-0.260000
30
0
40
0.019685
0
HATCH
5
199
100
AcDbEntity
8
DRILL
62
255
100
AcDbHatch
10
0.0
20
0.0
30
0.0
210
0.0
220
0.0
230
1.0
2
SOLID
70
1
71
0
91
1
92
1
93
1
72
2
10
-1.220000
20
-0.160000
40
0.019685
50
0.000000
51
360.000000
73
1
97
0
75
0
76
0
98
1
10
0.0
20
0.0
0
CIRCLE
5
19A
100
AcDbEntity
8
DRILL
62
255
100
AcDbCircle
39
0.000000
10
-1.220000
20
-0.160000
30
0
40
0.019685
0
HATCH
5
19B
100
AcDbEntity
8
DRILL
62
255
100
AcDbHatch
10
0.0
20
0.0
30
0.0
210
0.0
220
0.0
230
1.0
2
SOLID
70
1
71
0
91
1
92
1
93
1
72
2
10
-1.220000
20
-0.060000
40
0.019685
50
0.000000
51
360.000000
73
1
97
0
75
0
76
0
98
1
10
0.0
20
0.0
0
CIRCLE
5
19C
100
AcDbEntity
8
DRILL
62
255
100
AcDbCircle
39
0.000000
10
-1.220000
20
-0.060000
30
0
40
0.019685
0
HATCH
5
19D
100
AcDbEntity
8
DRILL
62
255
100
AcDbHatch
10
0.0
20
0.0
30
0.0
210
0.0
220
0.0
230
1.0
2
SOLID
70
1
71
0
91
1
92
1
93
1
72
2
10
-1.220000
20
0.040000
40
0.019685
50
0.000000
51
360.000000
73
1
97
0
75
0
76
0
98
1
10
0.0
20
0.0
0
CIRCLE
5
19E
100
AcDbEntity
8
DRILL
62
255
100
AcDbCircle
39
0.000000
10
-1.220000
20
0.040000
30
0
40
0.019685
0
HATCH
5
19F
100
AcDbEntity
8
DRILL
62
255
100
AcDbHatch
10
0.0
20
0.0
30
0.0
210
0.0
220
0.0
230
1.0
2
SOLID
70
1
71
0
91
1
92
1
93
1
72
2
10
-1.220000
20
0.140000
40
0.019685
50
0.000000
51
360.000000
73
1
97
0
75
0
76
0
98
1
10
0.0
20
0.0
0
CIRCLE
5
1A0
100
AcDbEntity
8
DRILL
62
255
100
AcDbCircle
39
0.000000
10
-1.220000
20
0.140000
30
0
40
0.019685
0
HATCH
5
1A1
100
AcDbEntity
8
DRILL
62
255
100
AcDbHatch
10
0.0
20
0.0
30
0.0
210
0.0
220
0.0
230
1.0
2
SOLID
70
1
71
0
91
1
92
1
93
1
72
2
10
-1.220000
20
0.240000
40
0.019685
50
0.000000
51
360.000000
73
1
97
0
75
0
76
0
98
1
10
0.0
20
0.0
0
CIRCLE
5
1A2
100
AcDbEntity
8
DRILL
62
255
100
AcDbCircle
39
0.000000
10
-1.220000
20
0.240000
30
0
40
0.019685
0
HATCH
5
1A3
100
AcDbEntity
8
DRILL
62
255
100
AcDbHatch
10
0.0
20
0.0
30
0.0
210
0.0
220
0.0
230
1.0
2
SOLID
70
1
71
0
91
1
92
1
93
1
72
2
10
-1.220000
20
0.340000
40
0.019685
50
0.000000
51
360.000000
73
1
97
0
75
0
76
0
98
1
10
0.0
20
0.0
0
CIRCLE
5
1A4
100
AcDbEntity
8
DRILL
62
255
100
AcDbCircle
39
0.000000
10
-1.220000
20
0.340000
30
0
40
0.019685
0
HATCH
5
1A5
100
AcDbEntity
8
DRILL
62
255
100
AcDbHatch
10
0.0
20
0.0
30
0.0
210
0.0
220
0.0
230
1.0
2
SOLID
70
1
71
0
91
1
92
1
93
1
72
2
10
-1.220000
20
0.440000
40
0.019685
50
0.000000
51
360.000000
73
1
97
0
75
0
76
0
98
1
10
0.0
20
0.0
0
CIRCLE
5
1A6
100
AcDbEntity
8
DRILL
62
255
100
AcDbCircle
39
0.000000
10
-1.220000
20
0.440000
30
0
40
0.019685
0
HATCH
5
1A7
100
AcDbEntity
8
DRILL
62
255
100
AcDbHatch
10
0.0
20
0.0
30
0.0
210
0.0
220
0.0
230
1.0
2
SOLID
70
1
71
0
91
1
92
1
93
1
72
2
10
-1.220000
20
0.540000
40
0.019685
50
0.000000
51
360.000000
73
1
97
0
75
0
76
0
98
1
10
0.0
20
0.0
0
CIRCLE
5
1A8
100
AcDbEntity
8
DRILL
62
255
100
AcDbCircle
39
0.000000
10
-1.220000
20
0.540000
30
0
40
0.019685
0
HATCH
5
1A9
100
AcDbEntity
8
DRILL
62
255
100
AcDbHatch
10
0.0
20
0.0
30
0.0
210
0.0
220
0.0
230
1.0
2
SOLID
70
1
71
0
91
1
92
1
93
1
72
2
10
-1.220000
20
0.640000
40
0.019685
50
0.000000
51
360.000000
73
1
97
0
75
0
76
0
98
1
10
0.0
20
0.0
0
CIRCLE
5
1AA
100
AcDbEntity
8
DRILL
62
255
100
AcDbCircle
39
0.000000
10
-1.220000
20
0.640000
30
0
40
0.019685
0
HATCH
5
1AB
100
AcDbEntity
8
DRILL
62
255
100
AcDbHatch
10
0.0
20
0.0
30
0.0
210
0.0
220
0.0
230
1.0
2
SOLID
70
1
71
0
91
1
92
1
93
1
72
2
10
-1.220000
20
0.740000
40
0.019685
50
0.000000
51
360.000000
73
1
97
0
75
0
76
0
98
1
10
0.0
20
0.0
0
CIRCLE
5
1AC
100
AcDbEntity
8
DRILL
62
255
100
AcDbCircle
39
0.000000
10
-1.220000
20
0.740000
30
0
40
0.019685
0
HATCH
5
1AD
100
AcDbEntity
8
DRILL
62
255
100
AcDbHatch
10
0.0
20
0.0
30
0.0
210
0.0
220
0.0
230
1.0
2
SOLID
70
1
71
0
91
1
92
1
93
1
72
2
10
-1.220000
20
0.840000
40
0.019685
50
0.000000
51
360.000000
73
1
97
0
75
0
76
0
98
1
10
0.0
20
0.0
0
CIRCLE
5
1AE
100
AcDbEntity
8
DRILL
62
255
100
AcDbCircle
39
0.000000
10
-1.220000
20
0.840000
30
0
40
0.019685
0
HATCH
5
1AF
100
AcDbEntity
8
DRILL
62
255
100
AcDbHatch
10
0.0
20
0.0
30
0.0
210
0.0
220
0.0
230
1.0
2
SOLID
70
1
71
0
91
1
92
1
93
1
72
2
10
-2.120000
20
-0.960000
40
0.019685
50
0.000000
51
360.000000
73
1
97
0
75
0
76
0
98
1
10
0.0
20
0.0
0
CIRCLE
5
1B0
100
AcDbEntity
8
DRILL
62
255
100
AcDbCircle
39
0.000000
10
-2.120000
20
-0.960000
30
0
40
0.019685
0
HATCH
5
1B1
100
AcDbEntity
8
DRILL
62
255
100
AcDbHatch
10
0.0
20
0.0
30
0.0
210
0.0
220
0.0
230
1.0
2
SOLID
70
1
71
0
91
1
92
1
93
1
72
2
10
-2.120000
20
-0.860000
40
0.019685
50
0.000000
51
360.000000
73
1
97
0
75
0
76
0
98
1
10
0.0
20
0.0
0
CIRCLE
5
1B2
100
AcDbEntity
8
DRILL
62
255
100
AcDbCircle
39
0.000000
10
-2.120000
20
-0.860000
30
0
40
0.019685
0
HATCH
5
1B3
100
AcDbEntity
8
DRILL
62
255
100
AcDbHatch
10
0.0
20
0.0
30
0.0
210
0.0
220
0.0
230
1.0
2
SOLID
70
1
71
0
91
1
92
1
93
1
72
2
10
-2.120000
20
-0.760000
40
0.019685
50
0.000000
51
360.000000
73
1
97
0
75
0
76
0
98
1
10
0.0
20
0.0
0
CIRCLE
5
1B4
100
AcDbEntity
8
DRILL
62
255
100
AcDbCircle
39
0.000000
10
-2.120000
20
-0.760000
30
0
40
0.019685
0
HATCH
5
1B5
100
AcDbEntity
8
DRILL
62
255
100
AcDbHatch
10
0.0
20
0.0
30
0.0
210
0.0
220
0.0
230
1.0
2
SOLID
70
1
71
0
91
1
92
1
93
1
72
2
10
-2.120000
20
-0.660000
40
0.019685
50
0.000000
51
360.000000
73
1
97
0
75
0
76
0
98
1
10
0.0
20
0.0
0
CIRCLE
5
1B6
100
AcDbEntity
8
DRILL
62
255
100
AcDbCircle
39
0.000000
10
-2.120000
20
-0.660000
30
0
40
0.019685
0
HATCH
5
1B7
100
AcDbEntity
8
DRILL
62
255
100
AcDbHatch
10
0.0
20
0.0
30
0.0
210
0.0
220
0.0
230
1.0
2
SOLID
70
1
71
0
91
1
92
1
93
1
72
2
10
-2.120000
20
-0.560000
40
0.019685
50
0.000000
51
360.000000
73
1
97
0
75
0
76
0
98
1
10
0.0
20
0.0
0
CIRCLE
5
1B8
100
AcDbEntity
8
DRILL
62
255
100
AcDbCircle
39
0.000000
10
-2.120000
20
-0.560000
30
0
40
0.019685
0
HATCH
5
1B9
100
AcDbEntity
8
DRILL
62
255
100
AcDbHatch
10
0.0
20
0.0
30
0.0
210
0.0
220
0.0
230
1.0
2
SOLID
70
1
71
0
91
1
92
1
93
1
72
2
10
-2.120000
20
-0.460000
40
0.019685
50
0.000000
51
360.000000
73
1
97
0
75
0
76
0
98
1
10
0.0
20
0.0
0
CIRCLE
5
1BA
100
AcDbEntity
8
DRILL
62
255
100
AcDbCircle
39
0.000000
10
-2.120000
20
-0.460000
30
0
40
0.019685
0
HATCH
5
1BB
100
AcDbEntity
8
DRILL
62
255
100
AcDbHatch
10
0.0
20
0.0
30
0.0
210
0.0
220
0.0
230
1.0
2
SOLID
70
1
71
0
91
1
92
1
93
1
72
2
10
-2.120000
20
-0.360000
40
0.019685
50
0.000000
51
360.000000
73
1
97
0
75
0
76
0
98
1
10
0.0
20
0.0
0
CIRCLE
5
1BC
100
AcDbEntity
8
DRILL
62
255
100
AcDbCircle
39
0.000000
10
-2.120000
20
-0.360000
30
0
40
0.019685
0
HATCH
5
1BD
100
AcDbEntity
8
DRILL
62
255
100
AcDbHatch
10
0.0
20
0.0
30
0.0
210
0.0
220
0.0
230
1.0
2
SOLID
70
1
71
0
91
1
92
1
93
1
72
2
10
-2.120000
20
-0.260000
40
0.019685
50
0.000000
51
360.000000
73
1
97
0
75
0
76
0
98
1
10
0.0
20
0.0
0
CIRCLE
5
1BE
100
AcDbEntity
8
DRILL
62
255
100
AcDbCircle
39
0.000000
10
-2.120000
20
-0.260000
30
0
40
0.019685
0
HATCH
5
1BF
100
AcDbEntity
8
DRILL
62
255
100
AcDbHatch
10
0.0
20
0.0
30
0.0
210
0.0
220
0.0
230
1.0
2
SOLID
70
1
71
0
91
1
92
1
93
1
72
2
10
-2.120000
20
-0.160000
40
0.019685
50
0.000000
51
360.000000
73
1
97
0
75
0
76
0
98
1
10
0.0
20
0.0
0
CIRCLE
5
1C0
100
AcDbEntity
8
DRILL
62
255
100
AcDbCircle
39
0.000000
10
-2.120000
20
-0.160000
30
0
40
0.019685
0
HATCH
5
1C1
100
AcDbEntity
8
DRILL
62
255
100
AcDbHatch
10
0.0
20
0.0
30
0.0
210
0.0
220
0.0
230
1.0
2
SOLID
70
1
71
0
91
1
92
1
93
1
72
2
10
-2.120000
20
-0.060000
40
0.019685
50
0.000000
51
360.000000
73
1
97
0
75
0
76
0
98
1
10
0.0
20
0.0
0
CIRCLE
5
1C2
100
AcDbEntity
8
DRILL
62
255
100
AcDbCircle
39
0.000000
10
-2.120000
20
-0.060000
30
0
40
0.019685
0
HATCH
5
1C3
100
AcDbEntity
8
DRILL
62
255
100
AcDbHatch
10
0.0
20
0.0
30
0.0
210
0.0
220
0.0
230
1.0
2
SOLID
70
1
71
0
91
1
92
1
93
1
72
2
10
-2.120000
20
0.040000
40
0.019685
50
0.000000
51
360.000000
73
1
97
0
75
0
76
0
98
1
10
0.0
20
0.0
0
CIRCLE
5
1C4
100
AcDbEntity
8
DRILL
62
255
100
AcDbCircle
39
0.000000
10
-2.120000
20
0.040000
30
0
40
0.019685
0
HATCH
5
1C5
100
AcDbEntity
8
DRILL
62
255
100
AcDbHatch
10
0.0
20
0.0
30
0.0
210
0.0
220
0.0
230
1.0
2
SOLID
70
1
71
0
91
1
92
1
93
1
72
2
10
-2.120000
20
0.140000
40
0.019685
50
0.000000
51
360.000000
73
1
97
0
75
0
76
0
98
1
10
0.0
20
0.0
0
CIRCLE
5
1C6
100
AcDbEntity
8
DRILL
62
255
100
AcDbCircle
39
0.000000
10
-2.120000
20
0.140000
30
0
40
0.019685
0
HATCH
5
1C7
100
AcDbEntity
8
DRILL
62
255
100
AcDbHatch
10
0.0
20
0.0
30
0.0
210
0.0
220
0.0
230
1.0
2
SOLID
70
1
71
0
91
1
92
1
93
1
72
2
10
-2.120000
20
0.240000
40
0.019685
50
0.000000
51
360.000000
73
1
97
0
75
0
76
0
98
1
10
0.0
20
0.0
0
CIRCLE
5
1C8
100
AcDbEntity
8
DRILL
62
255
100
AcDbCircle
39
0.000000
10
-2.120000
20
0.240000
30
0
40
0.019685
0
HATCH
5
1C9
100
AcDbEntity
8
DRILL
62
255
100
AcDbHatch
10
0.0
20
0.0
30
0.0
210
0.0
220
0.0
230
1.0
2
SOLID
70
1
71
0
91
1
92
1
93
1
72
2
10
-2.120000
20
0.340000
40
0.019685
50
0.000000
51
360.000000
73
1
97
0
75
0
76
0
98
1
10
0.0
20
0.0
0
CIRCLE
5
1CA
100
AcDbEntity
8
DRILL
62
255
100
AcDbCircle
39
0.000000
10
-2.120000
20
0.340000
30
0
40
0.019685
0
HATCH
5
1CB
100
AcDbEntity
8
DRILL
62
255
100
AcDbHatch
10
0.0
20
0.0
30
0.0
210
0.0
220
0.0
230
1.0
2
SOLID
70
1
71
0
91
1
92
1
93
1
72
2
10
-2.120000
20
0.440000
40
0.019685
50
0.000000
51
360.000000
73
1
97
0
75
0
76
0
98
1
10
0.0
20
0.0
0
CIRCLE
5
1CC
100
AcDbEntity
8
DRILL
62
255
100
AcDbCircle
39
0.000000
10
-2.120000
20
0.440000
30
0
40
0.019685
0
HATCH
5
1CD
100
AcDbEntity
8
DRILL
62
255
100
AcDbHatch
10
0.0
20
0.0
30
0.0
210
0.0
220
0.0
230
1.0
2
SOLID
70
1
71
0
91
1
92
1
93
1
72
2
10
-2.120000
20
0.540000
40
0.019685
50
0.000000
51
360.000000
73
1
97
0
75
0
76
0
98
1
10
0.0
20
0.0
0
CIRCLE
5
1CE
100
AcDbEntity
8
DRILL
62
255
100
AcDbCircle
39
0.000000
10
-2.120000
20
0.540000
30
0
40
0.019685
0
HATCH
5
1CF
100
AcDbEntity
8
DRILL
62
255
100
AcDbHatch
10
0.0
20
0.0
30
0.0
210
0.0
220
0.0
230
1.0
2
SOLID
70
1
71
0
91
1
92
1
93
1
72
2
10
-2.120000
20
0.640000
40
0.019685
50
0.000000
51
360.000000
73
1
97
0
75
0
76
0
98
1
10
0.0
20
0.0
0
CIRCLE
5
1D0
100
AcDbEntity
8
DRILL
62
255
100
AcDbCircle
39
0.000000
10
-2.120000
20
0.640000
30
0
40
0.019685
0
HATCH
5
1D1
100
AcDbEntity
8
DRILL
62
255
100
AcDbHatch
10
0.0
20
0.0
30
0.0
210
0.0
220
0.0
230
1.0
2
SOLID
70
1
71
0
91
1
92
1
93
1
72
2
10
-2.120000
20
0.740000
40
0.019685
50
0.000000
51
360.000000
73
1
97
0
75
0
76
0
98
1
10
0.0
20
0.0
0
CIRCLE
5
1D2
100
AcDbEntity
8
DRILL
62
255
100
AcDbCircle
39
0.000000
10
-2.120000
20
0.740000
30
0
40
0.019685
0
HATCH
5
1D3
100
AcDbEntity
8
DRILL
62
255
100
AcDbHatch
10
0.0
20
0.0
30
0.0
210
0.0
220
0.0
230
1.0
2
SOLID
70
1
71
0
91
1
92
1
93
1
72
2
10
-2.120000
20
0.840000
40
0.019685
50
0.000000
51
360.000000
73
1
97
0
75
0
76
0
98
1
10
0.0
20
0.0
0
CIRCLE
5
1D4
100
AcDbEntity
8
DRILL
62
255
100
AcDbCircle
39
0.000000
10
-2.120000
20
0.840000
30
0
40
0.019685
0
HATCH
5
1D5
100
AcDbEntity
8
DRILL
62
255
100
AcDbHatch
10
0.0
20
0.0
30
0.0
210
0.0
220
0.0
230
1.0
2
SOLID
70
1
71
0
91
1
92
1
93
1
72
2
10
-1.240000
20
-1.080000
40
0.049213
50
0.000000
51
360.000000
73
1
97
0
75
0
76
0
98
1
10
0.0
20
0.0
0
CIRCLE
5
1D6
100
AcDbEntity
8
DRILL
62
255
100
AcDbCircle
39
0.000000
10
-1.240000
20
-1.080000
30
0
40
0.049213
0
HATCH
5
1D7
100
AcDbEntity
8
DRILL
62
255
100
AcDbHatch
10
0.0
20
0.0
30
0.0
210
0.0
220
0.0
230
1.0
2
SOLID
70
1
71
0
91
1
92
1
93
1
72
2
10
-2.090000
20
-1.080000
40
0.049213
50
0.000000
51
360.000000
73
1
97
0
75
0
76
0
98
1
10
0.0
20
0.0
0
CIRCLE
5
1D8
100
AcDbEntity
8
DRILL
62
255
100
AcDbCircle
39
0.000000
10
-2.090000
20
-1.080000
30
0
40
0.049213
0
HATCH
5
1D9
100
AcDbEntity
8
DRILL
62
255
100
AcDbHatch
10
0.0
20
0.0
30
0.0
210
0.0
220
0.0
230
1.0
2
SOLID
70
1
71
0
91
1
92
1
93
1
72
2
10
-2.090000
20
0.960000
40
0.049213
50
0.000000
51
360.000000
73
1
97
0
75
0
76
0
98
1
10
0.0
20
0.0
0
CIRCLE
5
1DA
100
AcDbEntity
8
DRILL
62
255
100
AcDbCircle
39
0.000000
10
-2.090000
20
0.960000
30
0
40
0.049213
0
HATCH
5
1DB
100
AcDbEntity
8
DRILL
62
255
100
AcDbHatch
10
0.0
20
0.0
30
0.0
210
0.0
220
0.0
230
1.0
2
SOLID
70
1
71
0
91
1
92
1
93
1
72
2
10
-1.240000
20
0.960000
40
0.049213
50
0.000000
51
360.000000
73
1
97
0
75
0
76
0
98
1
10
0.0
20
0.0
0
CIRCLE
5
1DC
100
AcDbEntity
8
DRILL
62
255
100
AcDbCircle
39
0.000000
10
-1.240000
20
0.960000
30
0
40
0.049213
0
HATCH
5
1DD
100
AcDbEntity
8
DRILL
62
255
100
AcDbHatch
10
0.0
20
0.0
30
0.0
210
0.0
220
0.0
230
1.0
2
SOLID
70
1
71
0
91
1
92
1
93
1
72
2
10
2.210000
20
-0.795528
40
0.019685
50
0.000000
51
360.000000
73
1
97
0
75
0
76
0
98
1
10
0.0
20
0.0
0
CIRCLE
5
1DE
100
AcDbEntity
8
DRILL
62
255
100
AcDbCircle
39
0.000000
10
2.210000
20
-0.795528
30
0
40
0.019685
0
HATCH
5
1DF
100
AcDbEntity
8
DRILL
62
255
100
AcDbHatch
10
0.0
20
0.0
30
0.0
210
0.0
220
0.0
230
1.0
2
SOLID
70
1
71
0
91
1
92
1
93
1
72
2
10
2.210000
20
-0.895528
40
0.019685
50
0.000000
51
360.000000
73
1
97
0
75
0
76
0
98
1
10
0.0
20
0.0
0
CIRCLE
5
1E0
100
AcDbEntity
8
DRILL
62
255
100
AcDbCircle
39
0.000000
10
2.210000
20
-0.895528
30
0
40
0.019685
0
HATCH
5
1E1
100
AcDbEntity
8
DRILL
62
255
100
AcDbHatch
10
0.0
20
0.0
30
0.0
210
0.0
220
0.0
230
1.0
2
SOLID
70
1
71
0
91
1
92
1
93
1
72
2
10
2.210000
20
-0.995528
40
0.019685
50
0.000000
51
360.000000
73
1
97
0
75
0
76
0
98
1
10
0.0
20
0.0
0
CIRCLE
5
1E2
100
AcDbEntity
8
DRILL
62
255
100
AcDbCircle
39
0.000000
10
2.210000
20
-0.995528
30
0
40
0.019685
0
HATCH
5
1E3
100
AcDbEntity
8
DRILL
62
255
100
AcDbHatch
10
0.0
20
0.0
30
0.0
210
0.0
220
0.0
230
1.0
2
SOLID
70
1
71
0
91
1
92
1
93
1
72
2
10
2.210000
20
-1.095528
40
0.019685
50
0.000000
51
360.000000
73
1
97
0
75
0
76
0
98
1
10
0.0
20
0.0
0
CIRCLE
5
1E4
100
AcDbEntity
8
DRILL
62
255
100
AcDbCircle
39
0.000000
10
2.210000
20
-1.095528
30
0
40
0.019685
0
HATCH
5
1E5
100
AcDbEntity
8
DRILL
62
255
100
AcDbHatch
10
0.0
20
0.0
30
0.0
210
0.0
220
0.0
230
1.0
2
SOLID
70
1
71
0
91
1
92
1
93
1
72
2
10
2.210000
20
-1.195528
40
0.019685
50
0.000000
51
360.000000
73
1
97
0
75
0
76
0
98
1
10
0.0
20
0.0
0
CIRCLE
5
1E6
100
AcDbEntity
8
DRILL
62
255
100
AcDbCircle
39
0.000000
10
2.210000
20
-1.195528
30
0
40
0.019685
0
HATCH
5
1E7
100
AcDbEntity
8
DRILL
62
255
100
AcDbHatch
10
0.0
20
0.0
30
0.0
210
0.0
220
0.0
230
1.0
2
SOLID
70
1
71
0
91
1
92
1
93
1
72
2
10
2.210000
20
-1.295528
40
0.019685
50
0.000000
51
360.000000
73
1
97
0
75
0
76
0
98
1
10
0.0
20
0.0
0
CIRCLE
5
1E8
100
AcDbEntity
8
DRILL
62
255
100
AcDbCircle
39
0.000000
10
2.210000
20
-1.295528
30
0
40
0.019685
0
HATCH
5
1E9
100
AcDbEntity
8
DRILL
62
255
100
AcDbHatch
10
0.0
20
0.0
30
0.0
210
0.0
220
0.0
230
1.0
2
SOLID
70
1
71
0
91
1
92
1
93
1
72
2
10
2.210000
20
-1.395528
40
0.019685
50
0.000000
51
360.000000
73
1
97
0
75
0
76
0
98
1
10
0.0
20
0.0
0
CIRCLE
5
1EA
100
AcDbEntity
8
DRILL
62
255
100
AcDbCircle
39
0.000000
10
2.210000
20
-1.395528
30
0
40
0.019685
0
HATCH
5
1EB
100
AcDbEntity
8
DRILL
62
255
100
AcDbHatch
10
0.0
20
0.0
30
0.0
210
0.0
220
0.0
230
1.0
2
SOLID
70
1
71
0
91
1
92
1
93
1
72
2
10
2.210000
20
-1.495528
40
0.019685
50
0.000000
51
360.000000
73
1
97
0
75
0
76
0
98
1
10
0.0
20
0.0
0
CIRCLE
5
1EC
100
AcDbEntity
8
DRILL
62
255
100
AcDbCircle
39
0.000000
10
2.210000
20
-1.495528
30
0
40
0.019685
0
HATCH
5
1ED
100
AcDbEntity
8
DRILL
62
255
100
AcDbHatch
10
0.0
20
0.0
30
0.0
210
0.0
220
0.0
230
1.0
2
SOLID
70
1
71
0
91
1
92
1
93
1
72
2
10
2.209197
20
-0.631354
40
0.019685
50
0.000000
51
360.000000
73
1
97
0
75
0
76
0
98
1
10
0.0
20
0.0
0
CIRCLE
5
1EE
100
AcDbEntity
8
DRILL
62
255
100
AcDbCircle
39
0.000000
10
2.209197
20
-0.631354
30
0
40
0.019685
0
HATCH
5
1EF
100
AcDbEntity
8
DRILL
62
255
100
AcDbHatch
10
0.0
20
0.0
30
0.0
210
0.0
220
0.0
230
1.0
2
SOLID
70
1
71
0
91
1
92
1
93
1
72
2
10
2.209197
20
-0.531354
40
0.019685
50
0.000000
51
360.000000
73
1
97
0
75
0
76
0
98
1
10
0.0
20
0.0
0
CIRCLE
5
1F0
100
AcDbEntity
8
DRILL
62
255
100
AcDbCircle
39
0.000000
10
2.209197
20
-0.531354
30
0
40
0.019685
0
HATCH
5
1F1
100
AcDbEntity
8
DRILL
62
255
100
AcDbHatch
10
0.0
20
0.0
30
0.0
210
0.0
220
0.0
230
1.0
2
SOLID
70
1
71
0
91
1
92
1
93
1
72
2
10
2.209197
20
-0.431354
40
0.019685
50
0.000000
51
360.000000
73
1
97
0
75
0
76
0
98
1
10
0.0
20
0.0
0
CIRCLE
5
1F2
100
AcDbEntity
8
DRILL
62
255
100
AcDbCircle
39
0.000000
10
2.209197
20
-0.431354
30
0
40
0.019685
0
HATCH
5
1F3
100
AcDbEntity
8
DRILL
62
255
100
AcDbHatch
10
0.0
20
0.0
30
0.0
210
0.0
220
0.0
230
1.0
2
SOLID
70
1
71
0
91
1
92
1
93
1
72
2
10
2.209197
20
-0.331354
40
0.019685
50
0.000000
51
360.000000
73
1
97
0
75
0
76
0
98
1
10
0.0
20
0.0
0
CIRCLE
5
1F4
100
AcDbEntity
8
DRILL
62
255
100
AcDbCircle
39
0.000000
10
2.209197
20
-0.331354
30
0
40
0.019685
0
HATCH
5
1F5
100
AcDbEntity
8
DRILL
62
255
100
AcDbHatch
10
0.0
20
0.0
30
0.0
210
0.0
220
0.0
230
1.0
2
SOLID
70
1
71
0
91
1
92
1
93
1
72
2
10
2.209197
20
-0.231354
40
0.019685
50
0.000000
51
360.000000
73
1
97
0
75
0
76
0
98
1
10
0.0
20
0.0
0
CIRCLE
5
1F6
100
AcDbEntity
8
DRILL
62
255
100
AcDbCircle
39
0.000000
10
2.209197
20
-0.231354
30
0
40
0.019685
0
HATCH
5
1F7
100
AcDbEntity
8
DRILL
62
255
100
AcDbHatch
10
0.0
20
0.0
30
0.0
210
0.0
220
0.0
230
1.0
2
SOLID
70
1
71
0
91
1
92
1
93
1
72
2
10
2.209197
20
-0.131354
40
0.019685
50
0.000000
51
360.000000
73
1
97
0
75
0
76
0
98
1
10
0.0
20
0.0
0
CIRCLE
5
1F8
100
AcDbEntity
8
DRILL
62
255
100
AcDbCircle
39
0.000000
10
2.209197
20
-0.131354
30
0
40
0.019685
0
HATCH
5
1F9
100
AcDbEntity
8
DRILL
62
255
100
AcDbHatch
10
0.0
20
0.0
30
0.0
210
0.0
220
0.0
230
1.0
2
SOLID
70
1
71
0
91
1
92
1
93
1
72
2
10
0.559590
20
1.126520
40
0.068898
50
0.000000
51
360.000000
73
1
97
0
75
0
76
0
98
1
10
0.0
20
0.0
0
CIRCLE
5
1FA
100
AcDbEntity
8
DRILL
62
255
100
AcDbCircle
39
0.000000
10
0.559590
20
1.126520
30
0
40
0.068898
0
HATCH
5
1FB
100
AcDbEntity
8
DRILL
62
255
100
AcDbHatch
10
0.0
20
0.0
30
0.0
210
0.0
220
0.0
230
1.0
2
SOLID
70
1
71
0
91
1
92
1
93
1
72
2
10
2.209197
20
-1.619543
40
0.068898
50
0.000000
51
360.000000
73
1
97
0
75
0
76
0
98
1
10
0.0
20
0.0
0
CIRCLE
5
1FC
100
AcDbEntity
8
DRILL
62
255
100
AcDbCircle
39
0.000000
10
2.209197
20
-1.619543
30
0
40
0.068898
0
HATCH
5
1FD
100
AcDbEntity
8
DRILL
62
255
100
AcDbHatch
10
0.0
20
0.0
30
0.0
210
0.0
220
0.0
230
1.0
2
SOLID
70
1
71
0
91
1
92
1
93
1
72
2
10
0.262362
20
0.502677
40
0.011811
50
0.000000
51
360.000000
73
1
97
0
75
0
76
0
98
1
10
0.0
20
0.0
0
CIRCLE
5
1FE
100
AcDbEntity
8
DRILL
62
255
100
AcDbCircle
39
0.000000
10
0.262362
20
0.502677
30
0
40
0.011811
0
HATCH
5
1FF
100
AcDbEntity
8
DRILL
62
255
100
AcDbHatch
10
0.0
20
0.0
30
0.0
210
0.0
220
0.0
230
1.0
2
SOLID
70
1
71
0
91
1
92
1
93
1
72
2
10
-2.790000
20
1.270000
40
0.011811
50
0.000000
51
360.000000
73
1
97
0
75
0
76
0
98
1
10
0.0
20
0.0
0
CIRCLE
5
200
100
AcDbEntity
8
DRILL
62
255
100
AcDbCircle
39
0.000000
10
-2.790000
20
1.270000
30
0
40
0.011811
0
HATCH
5
201
100
AcDbEntity
8
DRILL
62
255
100
AcDbHatch
10
0.0
20
0.0
30
0.0
210
0.0
220
0.0
230
1.0
2
SOLID
70
1
71
0
91
1
92
1
93
1
72
2
10
1.560000
20
1.860000
40
0.017500
50
0.000000
51
360.000000
73
1
97
0
75
0
76
0
98
1
10
0.0
20
0.0
0
CIRCLE
5
202
100
AcDbEntity
8
DRILL
62
255
100
AcDbCircle
39
0.000000
10
1.560000
20
1.860000
30
0
40
0.017500
0
HATCH
5
203
100
AcDbEntity
8
DRILL
62
255
100
AcDbHatch
10
0.0
20
0.0
30
0.0
210
0.0
220
0.0
230
1.0
2
SOLID
70
1
71
0
91
1
92
1
93
1
72
2
10
1.560000
20
1.960000
40
0.019585
50
0.000000
51
360.000000
73
1
97
0
75
0
76
0
98
1
10
0.0
20
0.0
0
CIRCLE
5
204
100
AcDbEntity
8
DRILL
62
255
100
AcDbCircle
39
0.000000
10
1.560000
20
1.960000
30
0
40
0.019585
0
HATCH
5
205
100
AcDbEntity
8
DRILL
62
255
100
AcDbHatch
10
0.0
20
0.0
30
0.0
210
0.0
220
0.0
230
1.0
2
SOLID
70
1
71
0
91
1
92
1
93
1
72
2
10
1.560000
20
1.760000
40
0.017500
50
0.000000
51
360.000000
73
1
97
0
75
0
76
0
98
1
10
0.0
20
0.0
0
CIRCLE
5
206
100
AcDbEntity
8
DRILL
62
255
100
AcDbCircle
39
0.000000
10
1.560000
20
1.760000
30
0
40
0.017500
0
HATCH
5
207
100
AcDbEntity
8
DRILL
62
255
100
AcDbHatch
10
0.0
20
0.0
30
0.0
210
0.0
220
0.0
230
1.0
2
SOLID
70
1
71
0
91
1
92
1
93
1
72
2
10
1.560000
20
1.560000
40
0.017500
50
0.000000
51
360.000000
73
1
97
0
75
0
76
0
98
1
10
0.0
20
0.0
0
CIRCLE
5
208
100
AcDbEntity
8
DRILL
62
255
100
AcDbCircle
39
0.000000
10
1.560000
20
1.560000
30
0
40
0.017500
0
HATCH
5
209
100
AcDbEntity
8
DRILL
62
255
100
AcDbHatch
10
0.0
20
0.0
30
0.0
210
0.0
220
0.0
230
1.0
2
SOLID
70
1
71
0
91
1
92
1
93
1
72
2
10
1.560000
20
1.660000
40
0.017500
50
0.000000
51
360.000000
73
1
97
0
75
0
76
0
98
1
10
0.0
20
0.0
0
CIRCLE
5
20A
100
AcDbEntity
8
DRILL
62
255
100
AcDbCircle
39
0.000000
10
1.560000
20
1.660000
30
0
40
0.017500
0
HATCH
5
20B
100
AcDbEntity
8
DRILL
62
255
100
AcDbHatch
10
0.0
20
0.0
30
0.0
210
0.0
220
0.0
230
1.0
2
SOLID
70
1
71
0
91
1
92
1
93
1
72
2
10
1.560000
20
1.460000
40
0.017500
50
0.000000
51
360.000000
73
1
97
0
75
0
76
0
98
1
10
0.0
20
0.0
0
CIRCLE
5
20C
100
AcDbEntity
8
DRILL
62
255
100
AcDbCircle
39
0.000000
10
1.560000
20
1.460000
30
0
40
0.017500
0
HATCH
5
20D
100
AcDbEntity
8
DRILL
62
255
100
AcDbHatch
10
0.0
20
0.0
30
0.0
210
0.0
220
0.0
230
1.0
2
SOLID
70
1
71
0
91
1
92
1
93
1
72
2
10
2.610000
20
0.850000
40
0.031000
50
0.000000
51
360.000000
73
1
97
0
75
0
76
0
98
1
10
0.0
20
0.0
0
CIRCLE
5
20E
100
AcDbEntity
8
DRILL
62
255
100
AcDbCircle
39
0.000000
10
2.610000
20
0.850000
30
0
40
0.031000
0
HATCH
5
20F
100
AcDbEntity
8
DRILL
62
255
100
AcDbHatch
10
0.0
20
0.0
30
0.0
210
0.0
220
0.0
230
1.0
2
SOLID
70
1
71
0
91
1
92
1
93
1
72
2
10
-0.270000
20
0.850000
40
0.031000
50
0.000000
51
360.000000
73
1
97
0
75
0
76
0
98
1
10
0.0
20
0.0
0
CIRCLE
5
210
100
AcDbEntity
8
DRILL
62
255
100
AcDbCircle
39
0.000000
10
-0.270000
20
0.850000
30
0
40
0.031000
0
HATCH
5
211
100
AcDbEntity
8
DRILL
62
255
100
AcDbHatch
10
0.0
20
0.0
30
0.0
210
0.0
220
0.0
230
1.0
2
SOLID
70
1
71
0
91
1
92
1
93
1
72
2
10
0.077323
20
1.392913
40
0.041929
50
0.000000
51
360.000000
73
1
97
0
75
0
76
0
98
1
10
0.0
20
0.0
0
CIRCLE
5
212
100
AcDbEntity
8
DRILL
62
255
100
AcDbCircle
39
0.000000
10
0.077323
20
1.392913
30
0
40
0.041929
0
ENDSEC
0
SECTION
2
OBJECTS
0
DICTIONARY
5
213
100
AcDbDictionary
3
ACAD_GROUP
350
214
3
ACAD_LAYOUT
350
215
3
ACAD_MLINESTYLE
350
216
0
DICTIONARY
5
214
100
AcDbDictionary
0
DICTIONARY
5
215
100
AcDbDictionary
0
DICTIONARY
5
216
100
AcDbDictionary
3
STANDARD
350
217
0
MLINESTYLE
5
217
100
AcDbMlineStyle
2
Standard
70
0
3

62
256
51
90.0
52
90.0
71
2
49
0.5
62
256
6
BYLAYER
49
-0.5
62
256
6
BYLAYER
0
ENDSEC
0
EOF
