M48
INCH,TZ
VER,1
FMAT,2
DETECT,ON
ATC,ON
T1C0.0236
T2C0.0394
T3C0.0197
T4C0.0350
T5C0.0392
T6C0.1378
T7C0.1250
%
T1
X-21160Y-12400
X-24760Y7600
X-24200Y5600
Y-400
X-7200Y6100
X-13400Y0
X500Y10600
X-5800Y4300
X-9000Y-1500
X-23100Y5600
X300Y2900
Y3800
T2
X-10460Y-9000
Y-8000
Y-7000
Y-6000
Y-5000
Y-4000
Y-3000
Y-2000
Y-1000
Y0
Y1000
Y2000
Y3000
Y4000
Y5000
Y6000
Y7000
Y8000
Y9000
X-19460Y-9000
Y-8000
Y-7000
Y-6000
Y-5000
Y-4000
Y-3000
Y-2000
Y-1000
Y0
Y1000
Y2000
Y3000
Y4000
Y5000
Y6000
Y7000
Y8000
Y9000
X20100Y-1555
Y-2555
Y-3555
Y-4555
Y-5555
Y-6555
Y-7555
Y-8555
X20092Y86
Y1086
Y2086
Y3086
X20092Y4086
Y5086
T3
X-4060Y-4100
Y-5100
X-1060Y-4100
Y-5100
Y1100
Y2100
X-4060Y1100
Y2100
T4
X-16000Y12800
X-17000
X-15000
X-7400Y11800
X-6400
X-4400
X-5400
X-3400
X15800Y-12200
X16800
X14800
X26600Y4600
Y3600
Y5600
X-27500Y-4500
Y-3500
Y-5500
T5
X-18000Y12800
X-8400Y11800
X17800Y-12200
X26600Y2600
X-27500Y-2500
T6
X20092Y-9795
X3596Y17665
T7
X32100Y-10900
Y10900
X25200Y17200
X-32100Y10900
Y-10900
X-25200Y-17100
X25200
X-25200Y17200
M30
