G04 Generated by Ultiboard 14.2 *
%FSLAX24Y24*%
%MOIN*%

%ADD10C,0.0001*%
%ADD11C,0.0100*%
%ADD12C,0.0050*%
%ADD13C,0.0394*%
%ADD14C,0.0534*%
%ADD15C,0.0337*%
%ADD16C,0.0633*%
%ADD17R,0.0208X0.0208*%
%ADD18C,0.0392*%


G04 ColorRGB 0000FF for the following layer *
%LNCopper Bottom*%
%LPD*%
G54D10*
G36*
X20651Y-13987D02*
X20651Y-13987D01*
X20651Y-20517D01*
X20899Y-20517D01*
X20899Y-20517D01*
X27197Y-20517D01*
G75*
D01*
G02X27209Y-20516I12J-151*
G01*
G75*
D01*
G03X28308Y-19418I0J1098*
G01*
G74*
D01*
G02X28308Y-19406I151J0*
G01*
X28308Y-19406D01*
X28308Y-17824D01*
G75*
D01*
G02X28305Y-17794I151J30*
G01*
G75*
D01*
G02X32266Y-13833I3961J0*
G01*
G74*
D01*
G02X32296Y-13836I0J154*
G01*
X32296Y-13836D01*
X34381Y-13836D01*
G75*
D01*
G02X34393Y-13835I12J-151*
G01*
G75*
D01*
G03X35491Y-12737I0J1098*
G01*
G74*
D01*
G02X35492Y-12725I152J0*
G01*
X35492Y-12725D01*
X35492Y-151D01*
X28459Y-151D01*
G75*
D01*
G02X28308Y0I0J151*
G01*
X28308Y0D01*
X28308Y8000D01*
G75*
D01*
G02X28459Y8151I151J0*
G01*
X28459Y8151D01*
X35489Y8151D01*
X35492Y12725D01*
G75*
D01*
G02X35491Y12737I151J12*
G01*
G74*
D01*
G03X34393Y13835I1098J0*
G01*
G75*
D01*
G02X34381Y13836I0J152*
G01*
X34381Y13836D01*
X32296Y13836D01*
G74*
D01*
G02X32266Y13833I30J151*
G01*
G75*
D01*
G02X28305Y17794I0J3961*
G01*
G74*
D01*
G02X28308Y17824I154J0*
G01*
X28308Y17824D01*
X28308Y19406D01*
G75*
D01*
G02X28308Y19418I151J12*
G01*
G74*
D01*
G03X27209Y20516I1099J0*
G01*
G75*
D01*
G02X27197Y20517I0J152*
G01*
X27197Y20517D01*
X-12349Y20517D01*
X-12349Y13987D01*
G75*
D01*
G02X-12500Y13836I-151J0*
G01*
X-12500Y13836D01*
X-20500Y13836D01*
G75*
D01*
G02X-20651Y13987I0J151*
G01*
X-20651Y13987D01*
X-20651Y20517D01*
X-26345Y20517D01*
X-26345Y20517D01*
X-27197Y20517D01*
G74*
D01*
G02X-27209Y20516I12J151*
G01*
G75*
D01*
G03X-28308Y19418I0J-1098*
G01*
G75*
D01*
G02X-28308Y19406I-151J0*
G01*
X-28308Y19406D01*
X-28308Y17824D01*
G74*
D01*
G02X-28305Y17794I151J30*
G01*
G75*
D01*
G02X-32266Y13833I-3961J0*
G01*
G75*
D01*
G02X-32296Y13836I0J154*
G01*
X-32296Y13836D01*
X-34381Y13836D01*
G74*
D01*
G02X-34393Y13835I12J151*
G01*
G75*
D01*
G03X-35491Y12737I0J-1098*
G01*
G75*
D01*
G02X-35492Y12725I-152J0*
G01*
X-35492Y12725D01*
X-35492Y151D01*
X-28459Y151D01*
G74*
D01*
G02X-28308Y0I0J151*
G01*
X-28308Y0D01*
X-28308Y-8000D01*
G75*
D01*
G02X-28459Y-8151I-151J0*
G01*
X-28459Y-8151D01*
X-35489Y-8151D01*
X-35491Y-11370D01*
X-35491Y-11370D01*
X-35492Y-12725D01*
G74*
D01*
G02X-35491Y-12737I151J12*
G01*
G75*
D01*
G03X-34393Y-13835I1098J0*
G01*
G74*
D01*
G02X-34381Y-13836I0J152*
G01*
X-34381Y-13836D01*
X-32296Y-13836D01*
G75*
D01*
G02X-32266Y-13833I30J-151*
G01*
G74*
D01*
G02X-28305Y-17794I0J3961*
G01*
G75*
D01*
G02X-28308Y-17824I-154J0*
G01*
X-28308Y-17824D01*
X-28308Y-19406D01*
G74*
D01*
G02X-28308Y-19418I151J12*
G01*
G75*
D01*
G03X-27209Y-20516I1099J0*
G01*
G74*
D01*
G02X-27197Y-20517I0J152*
G01*
X-27197Y-20517D01*
X12349Y-20517D01*
X12349Y-13987D01*
G75*
D01*
G02X12500Y-13836I151J0*
G01*
X12500Y-13836D01*
X20500Y-13836D01*
G74*
D01*
G02X20651Y-13987I0J151*
G01*
D02*
G37*
%LPC*%
G36*
X31540Y-10364D02*
G75*
D01*
G02X32636Y-11460I573J-523*
G01*
G75*
D01*
G02X31540Y-10364I-536J560*
G01*
D02*
G37*
G36*
X-5601Y11379D02*
G75*
D01*
G02X-5199Y11379I201J421*
G01*
X-5199Y11379D01*
X-5199Y9600D01*
G75*
D01*
G02X-5258Y9458I-201J0*
G01*
X-5258Y9458D01*
X-5958Y8758D01*
G75*
D01*
G02X-6100Y8699I-142J142*
G01*
X-6100Y8699D01*
X-7717Y8699D01*
X-8599Y7817D01*
X-8599Y2660D01*
G75*
D01*
G02X-8658Y2518I-201J0*
G01*
X-8658Y2518D01*
X-10060Y1116D01*
G75*
D01*
G02X-10344Y1400I-400J-116*
G01*
X-10344Y1400D01*
X-9001Y2743D01*
X-9001Y7900D01*
G74*
D01*
G02X-8942Y8042I201J0*
G01*
X-8942Y8042D01*
X-7942Y9042D01*
G75*
D01*
G02X-7800Y9101I142J-142*
G01*
X-7800Y9101D01*
X-6183Y9101D01*
X-5601Y9683D01*
X-5601Y11379D01*
D02*
G37*
G36*
X-19060Y-1884D02*
G75*
D01*
G02X-19170Y-2299I-400J-116*
G01*
X-19170Y-2299D01*
X-18283Y-2299D01*
X-17905Y-1921D01*
X-17905Y-1921D01*
X-17342Y-1358D01*
G74*
D01*
G02X-17267Y-1311I142J142*
G01*
G75*
D01*
G02X-17200Y-1299I67J-189*
G01*
X-17200Y-1299D01*
X-10750Y-1299D01*
G75*
D01*
G02X-10877Y-986I290J299*
G01*
G74*
D01*
G02X-10942Y-942I77J186*
G01*
X-10942Y-942D01*
X-12642Y758D01*
G75*
D01*
G02X-12701Y900I142J142*
G01*
X-12701Y900D01*
X-12701Y9500D01*
G74*
D01*
G02X-12642Y9642I201J0*
G01*
X-12642Y9642D01*
X-12142Y10142D01*
G74*
D01*
G02X-12042Y10196I142J142*
G01*
G74*
D01*
G02X-12028Y10199I42J196*
G01*
X-12028Y10199D01*
X-12817Y10199D01*
X-13199Y9817D01*
X-13199Y283D01*
G75*
D01*
G02X-13601Y283I-201J-283*
G01*
X-13601Y283D01*
X-13601Y9900D01*
G74*
D01*
G02X-13542Y10042I201J0*
G01*
X-13542Y10042D01*
X-13042Y10542D01*
G74*
D01*
G02X-12942Y10596I142J142*
G01*
G75*
D01*
G02X-12900Y10601I42J-196*
G01*
X-12900Y10601D01*
X-8883Y10601D01*
X-7840Y11644D01*
G75*
D01*
G02X-7556Y11360I440J156*
G01*
X-7556Y11360D01*
X-8658Y10258D01*
G74*
D01*
G02X-8736Y10209I142J142*
G01*
G74*
D01*
G02X-8772Y10201I64J191*
G01*
X-8772Y10201D01*
X-8083Y10201D01*
X-7447Y10837D01*
X-7447Y10837D01*
X-6769Y11515D01*
G75*
D01*
G02X-6382Y11334I369J285*
G01*
X-6382Y11334D01*
X-7447Y10268D01*
X-7447Y10268D01*
X-7858Y9858D01*
G74*
D01*
G02X-7974Y9801I142J142*
G01*
G74*
D01*
G02X-8000Y9799I26J199*
G01*
X-8000Y9799D01*
X-11917Y9799D01*
X-12299Y9417D01*
X-12299Y983D01*
X-10717Y-599D01*
X-10660Y-599D01*
G75*
D01*
G02X-10601Y-608I0J-201*
G01*
G75*
D01*
G02X-10170Y-1299I141J-392*
G01*
X-10170Y-1299D01*
X-9283Y-1299D01*
G74*
D01*
G02X-9201Y-1217I283J201*
G01*
X-9201Y-1217D01*
X-9201Y600D01*
G74*
D01*
G02X-9142Y742I201J0*
G01*
X-9142Y742D01*
X-6001Y3883D01*
X-6001Y4017D01*
G75*
D01*
G02X-5599Y4017I201J283*
G01*
X-5599Y4017D01*
X-5599Y3800D01*
G75*
D01*
G02X-5658Y3658I-201J0*
G01*
X-5658Y3658D01*
X-8799Y517D01*
X-8799Y-1217D01*
G75*
D01*
G02X-9283Y-1701I-201J-283*
G01*
X-9283Y-1701D01*
X-10170Y-1701D01*
G75*
D01*
G02X-10750Y-1701I-290J-299*
G01*
X-10750Y-1701D01*
X-17117Y-1701D01*
X-17337Y-1921D01*
X-17337Y-1921D01*
X-18058Y-2642D01*
G74*
D01*
G02X-18173Y-2699I142J142*
G01*
G74*
D01*
G02X-18200Y-2701I27J199*
G01*
X-18200Y-2701D01*
X-19170Y-2701D01*
G75*
D01*
G02X-19750Y-2701I-290J-299*
G01*
X-19750Y-2701D01*
X-22000Y-2701D01*
G75*
D01*
G02X-22061Y-2692I0J201*
G01*
G74*
D01*
G02X-22142Y-2642I61J192*
G01*
X-22142Y-2642D01*
X-22863Y-1921D01*
X-22863Y-1921D01*
X-23242Y-1542D01*
G75*
D01*
G02X-23301Y-1400I142J142*
G01*
X-23301Y-1400D01*
X-23301Y5317D01*
G75*
D01*
G02X-22899Y5317I201J283*
G01*
X-22899Y5317D01*
X-22899Y-1317D01*
X-22295Y-1921D01*
X-22295Y-1921D01*
X-21917Y-2299D01*
X-19750Y-2299D01*
G75*
D01*
G02X-19344Y-1600I290J299*
G01*
X-19344Y-1600D01*
X-17001Y743D01*
X-17001Y1175D01*
X-19060Y-884D01*
G75*
D01*
G02X-19344Y-600I-400J-116*
G01*
X-19344Y-600D01*
X-17301Y1443D01*
X-17301Y10700D01*
G74*
D01*
G02X-17242Y10842I201J0*
G01*
X-17242Y10842D01*
X-16896Y11188D01*
X-16896Y11188D01*
X-16867Y11217D01*
X-15440Y12644D01*
G75*
D01*
G02X-14844Y13240I440J156*
G01*
X-14844Y13240D01*
X-14442Y13642D01*
G75*
D01*
G02X-14300Y13701I142J-142*
G01*
X-14300Y13701D01*
X12300Y13701D01*
G74*
D01*
G02X12442Y13642I0J201*
G01*
X12442Y13642D01*
X13142Y12942D01*
G74*
D01*
G02X13201Y12800I142J142*
G01*
X13201Y12800D01*
X13201Y5801D01*
X26179Y5801D01*
G75*
D01*
G02X26179Y5399I421J-201*
G01*
X26179Y5399D01*
X20368Y5399D01*
G75*
D01*
G02X19816Y5399I-276J-313*
G01*
X19816Y5399D01*
X13201Y5399D01*
X13201Y-10317D01*
X14644Y-11760D01*
G75*
D01*
G02X14360Y-12044I156J-440*
G01*
X14360Y-12044D01*
X13686Y-11370D01*
X13686Y-11370D01*
X12858Y-10542D01*
G75*
D01*
G02X12799Y-10400I142J142*
G01*
X12799Y-10400D01*
X12799Y12717D01*
X12217Y13299D01*
X-14217Y13299D01*
X-14560Y12956D01*
G75*
D01*
G02X-15156Y12360I-440J-156*
G01*
X-15156Y12360D01*
X-15515Y12001D01*
X-8838Y12001D01*
G75*
D01*
G02X-8504Y12252I334J-97*
G01*
X-8504Y12252D01*
X-8296Y12252D01*
G74*
D01*
G02X-7948Y11904I0J348*
G01*
X-7948Y11904D01*
X-7948Y11696D01*
G75*
D01*
G02X-8296Y11348I-348J0*
G01*
X-8296Y11348D01*
X-8504Y11348D01*
G75*
D01*
G02X-8838Y11599I0J348*
G01*
X-8838Y11599D01*
X-15617Y11599D01*
X-16599Y10617D01*
X-16599Y660D01*
G75*
D01*
G02X-16658Y518I-201J0*
G01*
X-16658Y518D01*
X-16896Y280D01*
X-16896Y280D01*
X-19060Y-1884D01*
D02*
G37*
G36*
X-7323Y5776D02*
G74*
D01*
G02X-7524Y5977I123J324*
G01*
X-7524Y5977D01*
X-7323Y5977D01*
X-7323Y5776D01*
D02*
G37*
G36*
X-7323Y6424D02*
X-7323Y6424D01*
X-7323Y6223D01*
X-7524Y6223D01*
G74*
D01*
G02X-7323Y6424I324J123*
G01*
D02*
G37*
G36*
X-1261Y2347D02*
X-1261Y2347D01*
X-1261Y7477D01*
X-1312Y7528D01*
X-1312Y7528D01*
X-2442Y8658D01*
G75*
D01*
G02X-2501Y8800I142J142*
G01*
X-2501Y8800D01*
X-2501Y11300D01*
G74*
D01*
G02X-2442Y11442I201J0*
G01*
X-2442Y11442D01*
X-1542Y12342D01*
G75*
D01*
G02X-1400Y12401I142J-142*
G01*
X-1400Y12401D01*
X500Y12401D01*
G74*
D01*
G02X701Y12200I0J201*
G01*
X701Y12200D01*
X701Y10883D01*
G75*
D01*
G02X299Y10883I-201J-283*
G01*
X299Y10883D01*
X299Y11999D01*
X-1317Y11999D01*
X-2099Y11217D01*
X-2099Y8883D01*
X-918Y7702D01*
G75*
D01*
G02X-859Y7560I-142J-142*
G01*
X-859Y7560D01*
X-859Y2347D01*
G75*
D01*
G02X-1261Y2347I-201J-247*
G01*
D02*
G37*
G36*
X20004Y-8961D02*
G75*
D01*
G02X20190Y-8962I96J406*
G01*
G75*
D01*
G02X20004Y-8961I-98J-833*
G01*
D02*
G37*
G36*
X19900Y-1921D02*
G75*
D01*
G02X19900Y-1921I200J366*
G01*
D02*
G37*
G36*
X25880Y17573D02*
G75*
D01*
G02X24551Y16776I-642J-435*
G01*
G75*
D01*
G02X25880Y17573I649J424*
G01*
D02*
G37*
G36*
X-20959Y-12117D02*
G75*
D01*
G02X-21361Y-12117I-201J-283*
G01*
X-21361Y-12117D01*
X-21361Y-7700D01*
G74*
D01*
G02X-21302Y-7558I201J0*
G01*
X-21302Y-7558D01*
X-19860Y-6116D01*
G75*
D01*
G02X-19576Y-6400I400J116*
G01*
X-19576Y-6400D01*
X-20959Y-7783D01*
X-20959Y-12117D01*
D02*
G37*
G36*
X-24551Y16776D02*
G75*
D01*
G02X-25880Y17573I-686J362*
G01*
G75*
D01*
G02X-24551Y16776I680J-373*
G01*
D02*
G37*
G36*
X3117Y16976D02*
G75*
D01*
G02X3117Y16976I479J689*
G01*
D02*
G37*
G36*
X-16896Y12345D02*
G75*
D01*
G02X-16896Y12345I-104J455*
G01*
D02*
G37*
G36*
X-31540Y-10364D02*
G75*
D01*
G02X-32636Y-11460I-560J-536*
G01*
G75*
D01*
G02X-31540Y-10364I524J573*
G01*
D02*
G37*
G36*
X-24853Y7528D02*
G75*
D01*
G02X-24853Y7528I93J72*
G01*
D02*
G37*
G36*
X-10877Y8000D02*
G75*
D01*
G02X-10877Y8000I417J0*
G01*
D02*
G37*
G36*
X-10877Y9000D02*
G75*
D01*
G02X-10877Y9000I417J0*
G01*
D02*
G37*
G36*
X32636Y11460D02*
G75*
D01*
G02X31540Y10364I-523J-572*
G01*
G75*
D01*
G02X32636Y11460I560J536*
G01*
D02*
G37*
G36*
X-10877Y7000D02*
G75*
D01*
G02X-10877Y7000I417J0*
G01*
D02*
G37*
G36*
X-10877Y0D02*
G75*
D01*
G02X-10877Y0I417J0*
G01*
D02*
G37*
G36*
X-10877Y2000D02*
G75*
D01*
G02X-10877Y2000I417J0*
G01*
D02*
G37*
G36*
X-10877Y3000D02*
G75*
D01*
G02X-10877Y3000I417J0*
G01*
D02*
G37*
G36*
X-10877Y4000D02*
G75*
D01*
G02X-10877Y4000I417J0*
G01*
D02*
G37*
G36*
X-10877Y5000D02*
G75*
D01*
G02X-10877Y5000I417J0*
G01*
D02*
G37*
G36*
X-10877Y6000D02*
G75*
D01*
G02X-10877Y6000I417J0*
G01*
D02*
G37*
G36*
X-4867Y11800D02*
G75*
D01*
G02X-4867Y11800I467J0*
G01*
D02*
G37*
G36*
X-2964Y11635D02*
G74*
D01*
G02X-3235Y11364I436J165*
G01*
X-3235Y11364D01*
X-3235Y11635D01*
X-2964Y11635D01*
D02*
G37*
G36*
X-3575Y11800D02*
G75*
D01*
G02X-3575Y11800I175J0*
G01*
D02*
G37*
G36*
X-3565Y11364D02*
G74*
D01*
G02X-3836Y11635I165J436*
G01*
X-3836Y11635D01*
X-3565Y11635D01*
X-3565Y11364D01*
D02*
G37*
G36*
X-3235Y12236D02*
G74*
D01*
G02X-2964Y11965I165J436*
G01*
X-2964Y11965D01*
X-3235Y11965D01*
X-3235Y12236D01*
D02*
G37*
G36*
X-3836Y11965D02*
G74*
D01*
G02X-3565Y12236I436J165*
G01*
X-3565Y12236D01*
X-3565Y11965D01*
X-3836Y11965D01*
D02*
G37*
G36*
X-16467Y12800D02*
G75*
D01*
G02X-16467Y12800I467J0*
G01*
D02*
G37*
G36*
X19675Y1086D02*
G75*
D01*
G02X19675Y1086I417J0*
G01*
D02*
G37*
G36*
X20240Y476D02*
G74*
D01*
G02X20482Y234I148J390*
G01*
X20482Y234D01*
X20240Y234D01*
X20240Y476D01*
D02*
G37*
G36*
X20482Y-61D02*
G74*
D01*
G02X20240Y-303I390J147*
G01*
X20240Y-303D01*
X20240Y-61D01*
X20482Y-61D01*
D02*
G37*
G36*
X19702Y234D02*
G74*
D01*
G02X19944Y476I390J148*
G01*
X19944Y476D01*
X19944Y234D01*
X19702Y234D01*
D02*
G37*
G36*
X19944Y-303D02*
G74*
D01*
G02X19702Y-61I148J389*
G01*
X19702Y-61D01*
X19944Y-61D01*
X19944Y-303D01*
D02*
G37*
G36*
X19895Y86D02*
G75*
D01*
G02X19895Y86I197J0*
G01*
D02*
G37*
G36*
X19675Y2086D02*
G75*
D01*
G02X19675Y2086I417J0*
G01*
D02*
G37*
G36*
X19675Y3086D02*
G75*
D01*
G02X19675Y3086I417J0*
G01*
D02*
G37*
G36*
X19675Y4086D02*
G75*
D01*
G02X19675Y4086I417J0*
G01*
D02*
G37*
G36*
X19683Y-7555D02*
G75*
D01*
G02X19683Y-7555I417J0*
G01*
D02*
G37*
G36*
X19683Y-6555D02*
G75*
D01*
G02X19683Y-6555I417J0*
G01*
D02*
G37*
G36*
X19683Y-5555D02*
G75*
D01*
G02X19683Y-5555I417J0*
G01*
D02*
G37*
G36*
X19683Y-4555D02*
G75*
D01*
G02X19683Y-4555I417J0*
G01*
D02*
G37*
G36*
X19683Y-3555D02*
G75*
D01*
G02X19683Y-3555I417J0*
G01*
D02*
G37*
G36*
X19683Y-2555D02*
G75*
D01*
G02X19683Y-2555I417J0*
G01*
D02*
G37*
G36*
X-27053Y-2340D02*
X-27053Y-2340D01*
X-27340Y-2340D01*
X-27340Y-2053D01*
G74*
D01*
G02X-27053Y-2340I56J343*
G01*
D02*
G37*
G36*
X-27967Y-5500D02*
G75*
D01*
G02X-27967Y-5500I467J0*
G01*
D02*
G37*
G36*
X-27967Y-4500D02*
G75*
D01*
G02X-27967Y-4500I467J0*
G01*
D02*
G37*
G36*
X-27967Y-3500D02*
G75*
D01*
G02X-27967Y-3500I467J0*
G01*
D02*
G37*
G36*
X-27696Y-2500D02*
G75*
D01*
G02X-27696Y-2500I196J0*
G01*
D02*
G37*
G36*
X-27947Y-2660D02*
X-27947Y-2660D01*
X-27660Y-2660D01*
X-27660Y-2947D01*
G74*
D01*
G02X-27947Y-2660I56J343*
G01*
D02*
G37*
G36*
X-27340Y-2947D02*
X-27340Y-2947D01*
X-27340Y-2660D01*
X-27053Y-2660D01*
G74*
D01*
G02X-27340Y-2947I343J56*
G01*
D02*
G37*
G36*
X-27660Y-2053D02*
X-27660Y-2053D01*
X-27660Y-2340D01*
X-27947Y-2340D01*
G74*
D01*
G02X-27660Y-2053I343J56*
G01*
D02*
G37*
G36*
X-24665Y-17660D02*
G75*
D01*
G02X-25760Y-16565I-572J523*
G01*
G75*
D01*
G02X-24665Y-17660I560J-535*
G01*
D02*
G37*
G36*
X-32636Y11460D02*
G75*
D01*
G02X-31540Y10364I536J-560*
G01*
G75*
D01*
G02X-32636Y11460I-572J524*
G01*
D02*
G37*
G36*
X25760Y-16565D02*
G75*
D01*
G02X24665Y-17660I-522J-572*
G01*
G75*
D01*
G02X25760Y-16565I535J560*
G01*
D02*
G37*
G36*
X17604Y-12200D02*
G75*
D01*
G02X17604Y-12200I196J0*
G01*
D02*
G37*
G36*
X15333Y-12200D02*
G75*
D01*
G02X15333Y-12200I467J0*
G01*
D02*
G37*
G36*
X16333Y-12200D02*
G75*
D01*
G02X16333Y-12200I467J0*
G01*
D02*
G37*
G36*
X17353Y-12360D02*
X17353Y-12360D01*
X17640Y-12360D01*
X17640Y-12647D01*
G74*
D01*
G02X17353Y-12360I56J343*
G01*
D02*
G37*
G36*
X17960Y-12647D02*
X17960Y-12647D01*
X17960Y-12360D01*
X18247Y-12360D01*
G74*
D01*
G02X17960Y-12647I343J56*
G01*
D02*
G37*
G36*
X18247Y-12040D02*
X18247Y-12040D01*
X17960Y-12040D01*
X17960Y-11753D01*
G74*
D01*
G02X18247Y-12040I56J343*
G01*
D02*
G37*
G36*
X17640Y-11753D02*
X17640Y-11753D01*
X17640Y-12040D01*
X17353Y-12040D01*
G74*
D01*
G02X17640Y-11753I343J56*
G01*
D02*
G37*
G36*
X-19877Y1000D02*
G75*
D01*
G02X-19877Y1000I417J0*
G01*
D02*
G37*
G36*
X-19877Y0D02*
G75*
D01*
G02X-19877Y0I417J0*
G01*
D02*
G37*
G36*
X-24401Y5317D02*
G75*
D01*
G02X-23999Y5317I201J283*
G01*
X-23999Y5317D01*
X-23999Y-117D01*
G75*
D01*
G02X-24401Y-117I-201J-283*
G01*
X-24401Y-117D01*
X-24401Y5317D01*
D02*
G37*
G36*
X-19877Y2000D02*
G75*
D01*
G02X-19877Y2000I417J0*
G01*
D02*
G37*
G36*
X-19877Y3000D02*
G75*
D01*
G02X-19877Y3000I417J0*
G01*
D02*
G37*
G36*
X-19877Y4000D02*
G75*
D01*
G02X-19877Y4000I417J0*
G01*
D02*
G37*
G36*
X-19877Y5000D02*
G75*
D01*
G02X-19877Y5000I417J0*
G01*
D02*
G37*
G36*
X-19877Y6000D02*
G75*
D01*
G02X-19877Y6000I417J0*
G01*
D02*
G37*
G36*
X-19877Y7000D02*
G75*
D01*
G02X-19877Y7000I417J0*
G01*
D02*
G37*
G36*
X-24436Y7477D02*
G74*
D01*
G02X-24637Y7276I324J123*
G01*
X-24637Y7276D01*
X-24637Y7477D01*
X-24436Y7477D01*
D02*
G37*
G36*
X-24883Y7276D02*
G74*
D01*
G02X-25084Y7477I123J324*
G01*
X-25084Y7477D01*
X-24883Y7477D01*
X-24883Y7276D01*
D02*
G37*
G36*
X-1378Y-4100D02*
G75*
D01*
G02X-1378Y-4100I318J0*
G01*
D02*
G37*
G36*
X-4378Y-5100D02*
G75*
D01*
G02X-4378Y-5100I318J0*
G01*
D02*
G37*
G36*
X-947Y-4802D02*
G74*
D01*
G02X-762Y-4987I113J298*
G01*
X-762Y-4987D01*
X-947Y-4987D01*
X-947Y-4802D01*
D02*
G37*
G36*
X-762Y-5213D02*
G74*
D01*
G02X-947Y-5398I298J113*
G01*
X-947Y-5398D01*
X-947Y-5213D01*
X-762Y-5213D01*
D02*
G37*
G36*
X-1358Y-4987D02*
G74*
D01*
G02X-1173Y-4802I298J113*
G01*
X-1173Y-4802D01*
X-1173Y-4987D01*
X-1358Y-4987D01*
D02*
G37*
G36*
X-1173Y-5398D02*
G74*
D01*
G02X-1358Y-5213I113J298*
G01*
X-1358Y-5213D01*
X-1173Y-5213D01*
X-1173Y-5398D01*
D02*
G37*
G36*
X-1158Y-5100D02*
G75*
D01*
G02X-1158Y-5100I98J0*
G01*
D02*
G37*
G36*
X-4378Y-4100D02*
G75*
D01*
G02X-4378Y-4100I318J0*
G01*
D02*
G37*
G36*
X-4378Y1100D02*
G75*
D01*
G02X-4378Y1100I318J0*
G01*
D02*
G37*
G36*
X-1378Y1100D02*
G75*
D01*
G02X-1378Y1100I318J0*
G01*
D02*
G37*
G36*
X-4358Y2213D02*
G74*
D01*
G02X-4173Y2398I298J113*
G01*
X-4173Y2398D01*
X-4173Y2213D01*
X-4358Y2213D01*
D02*
G37*
G36*
X-3947Y2398D02*
G74*
D01*
G02X-3762Y2213I113J298*
G01*
X-3762Y2213D01*
X-3947Y2213D01*
X-3947Y2398D01*
D02*
G37*
G36*
X-3762Y1987D02*
G74*
D01*
G02X-3947Y1802I298J113*
G01*
X-3947Y1802D01*
X-3947Y1987D01*
X-3762Y1987D01*
D02*
G37*
G36*
X-4173Y1802D02*
G74*
D01*
G02X-4358Y1987I113J298*
G01*
X-4358Y1987D01*
X-4173Y1987D01*
X-4173Y1802D01*
D02*
G37*
G36*
X-4158Y2100D02*
G75*
D01*
G02X-4158Y2100I98J0*
G01*
D02*
G37*
G36*
X99Y3517D02*
G75*
D01*
G02X501Y3517I201J283*
G01*
X501Y3517D01*
X501Y3183D01*
G75*
D01*
G02X99Y3183I-201J-283*
G01*
X99Y3183D01*
X99Y3517D01*
D02*
G37*
G36*
X-7318Y6100D02*
G75*
D01*
G02X-7318Y6100I118J0*
G01*
D02*
G37*
G36*
X-7077Y6424D02*
G74*
D01*
G02X-6876Y6223I123J324*
G01*
X-6876Y6223D01*
X-7077Y6223D01*
X-7077Y6424D01*
D02*
G37*
G36*
X-6876Y5977D02*
G74*
D01*
G02X-7077Y5776I324J123*
G01*
X-7077Y5776D01*
X-7077Y5977D01*
X-6876Y5977D01*
D02*
G37*
G36*
X26760Y2153D02*
X26760Y2153D01*
X26760Y2440D01*
X27047Y2440D01*
G74*
D01*
G02X26760Y2153I343J56*
G01*
D02*
G37*
G36*
X26153Y2440D02*
X26153Y2440D01*
X26440Y2440D01*
X26440Y2153D01*
G74*
D01*
G02X26153Y2440I56J343*
G01*
D02*
G37*
G36*
X27047Y2760D02*
X27047Y2760D01*
X26760Y2760D01*
X26760Y3047D01*
G74*
D01*
G02X27047Y2760I56J343*
G01*
D02*
G37*
G36*
X26404Y2600D02*
G75*
D01*
G02X26404Y2600I196J0*
G01*
D02*
G37*
G36*
X26133Y3600D02*
G75*
D01*
G02X26133Y3600I467J0*
G01*
D02*
G37*
G36*
X26440Y3047D02*
X26440Y3047D01*
X26440Y2760D01*
X26153Y2760D01*
G74*
D01*
G02X26440Y3047I343J56*
G01*
D02*
G37*
G36*
X26133Y4600D02*
G75*
D01*
G02X26133Y4600I467J0*
G01*
D02*
G37*
G36*
X-10850Y-8852D02*
G74*
D01*
G02X-10608Y-8610I390J148*
G01*
X-10608Y-8610D01*
X-10608Y-8852D01*
X-10850Y-8852D01*
D02*
G37*
G36*
X-10312Y-8610D02*
G74*
D01*
G02X-10070Y-8852I148J390*
G01*
X-10070Y-8852D01*
X-10312Y-8852D01*
X-10312Y-8610D01*
D02*
G37*
G36*
X-10070Y-9148D02*
G74*
D01*
G02X-10312Y-9390I390J148*
G01*
X-10312Y-9390D01*
X-10312Y-9148D01*
X-10070Y-9148D01*
D02*
G37*
G36*
X-10608Y-9390D02*
G74*
D01*
G02X-10850Y-9148I148J390*
G01*
X-10850Y-9148D01*
X-10608Y-9148D01*
X-10608Y-9390D01*
D02*
G37*
G36*
X-10657Y-9000D02*
G75*
D01*
G02X-10657Y-9000I197J0*
G01*
D02*
G37*
G36*
X-10877Y-8000D02*
G75*
D01*
G02X-10877Y-8000I417J0*
G01*
D02*
G37*
G36*
X-10877Y-7000D02*
G75*
D01*
G02X-10877Y-7000I417J0*
G01*
D02*
G37*
G36*
X-10877Y-6000D02*
G75*
D01*
G02X-10877Y-6000I417J0*
G01*
D02*
G37*
G36*
X-10877Y-5000D02*
G75*
D01*
G02X-10877Y-5000I417J0*
G01*
D02*
G37*
G36*
X-10877Y-4000D02*
G75*
D01*
G02X-10877Y-4000I417J0*
G01*
D02*
G37*
G36*
X-10877Y-3000D02*
G75*
D01*
G02X-10877Y-3000I417J0*
G01*
D02*
G37*
G36*
X-19877Y-9000D02*
G75*
D01*
G02X-19877Y-9000I417J0*
G01*
D02*
G37*
G36*
X-19877Y-8000D02*
G75*
D01*
G02X-19877Y-8000I417J0*
G01*
D02*
G37*
G36*
X-19877Y-7000D02*
G75*
D01*
G02X-19877Y-7000I417J0*
G01*
D02*
G37*
G36*
X-19877Y-5000D02*
G75*
D01*
G02X-19877Y-5000I417J0*
G01*
D02*
G37*
G36*
X-19877Y-4000D02*
G75*
D01*
G02X-19877Y-4000I417J0*
G01*
D02*
G37*
G36*
X-25084Y7723D02*
G74*
D01*
G02X-24883Y7924I324J123*
G01*
X-24883Y7924D01*
X-24883Y7723D01*
X-25084Y7723D01*
D02*
G37*
G36*
X-24637Y7924D02*
G74*
D01*
G02X-24436Y7723I123J324*
G01*
X-24436Y7723D01*
X-24637Y7723D01*
X-24637Y7924D01*
D02*
G37*
G36*
X-19877Y8000D02*
G75*
D01*
G02X-19877Y8000I417J0*
G01*
D02*
G37*
G36*
X-19877Y9000D02*
G75*
D01*
G02X-19877Y9000I417J0*
G01*
D02*
G37*
G36*
X-18447Y12640D02*
X-18447Y12640D01*
X-18160Y12640D01*
X-18160Y12353D01*
G74*
D01*
G02X-18447Y12640I56J343*
G01*
D02*
G37*
G36*
X-17840Y12353D02*
X-17840Y12353D01*
X-17840Y12640D01*
X-17553Y12640D01*
G74*
D01*
G02X-17840Y12353I343J56*
G01*
D02*
G37*
G36*
X-18196Y12800D02*
G75*
D01*
G02X-18196Y12800I196J0*
G01*
D02*
G37*
G36*
X-18160Y13247D02*
X-18160Y13247D01*
X-18160Y12960D01*
X-18447Y12960D01*
G74*
D01*
G02X-18160Y13247I343J56*
G01*
D02*
G37*
G36*
X-17553Y12960D02*
X-17553Y12960D01*
X-17840Y12960D01*
X-17840Y13247D01*
G74*
D01*
G02X-17553Y12960I56J343*
G01*
D02*
G37*
%LPD*%
G54D11*
X31540Y-10364D02*
G75*
D01*
G02X32636Y-11460I573J-523*
G01*
G75*
D01*
G02X31540Y-10364I-536J560*
G01*
X-5601Y11379D02*
G75*
D01*
G02X-5199Y11379I201J421*
G01*
X-5199Y9600D01*
G75*
D01*
G02X-5258Y9458I-201J0*
G01*
X-5958Y8758D01*
G75*
D01*
G02X-6100Y8699I-142J142*
G01*
X-7717Y8699D01*
X-8599Y7817D01*
X-8599Y2660D01*
G75*
D01*
G02X-8658Y2518I-201J0*
G01*
X-10060Y1116D01*
G75*
D01*
G02X-10344Y1400I-400J-116*
G01*
X-9001Y2743D01*
X-9001Y7900D01*
G74*
D01*
G02X-8942Y8042I201J0*
G01*
X-7942Y9042D01*
G75*
D01*
G02X-7800Y9101I142J-142*
G01*
X-6183Y9101D01*
X-5601Y9683D01*
X-5601Y11379D01*
X-19060Y-1884D02*
G75*
D01*
G02X-19170Y-2299I-400J-116*
G01*
X-18283Y-2299D01*
X-17905Y-1921D01*
X-17905Y-1921D01*
X-17342Y-1358D01*
G74*
D01*
G02X-17267Y-1311I142J142*
G01*
G75*
D01*
G02X-17200Y-1299I67J-189*
G01*
X-10750Y-1299D01*
G75*
D01*
G02X-10877Y-986I290J299*
G01*
G74*
D01*
G02X-10942Y-942I77J186*
G01*
X-12642Y758D01*
G75*
D01*
G02X-12701Y900I142J142*
G01*
X-12701Y9500D01*
G74*
D01*
G02X-12642Y9642I201J0*
G01*
X-12142Y10142D01*
G74*
D01*
G02X-12042Y10196I142J142*
G01*
G74*
D01*
G02X-12028Y10199I42J196*
G01*
X-12817Y10199D01*
X-13199Y9817D01*
X-13199Y283D01*
G75*
D01*
G02X-13601Y283I-201J-283*
G01*
X-13601Y9900D01*
G74*
D01*
G02X-13542Y10042I201J0*
G01*
X-13042Y10542D01*
G74*
D01*
G02X-12942Y10596I142J142*
G01*
G75*
D01*
G02X-12900Y10601I42J-196*
G01*
X-8883Y10601D01*
X-7840Y11644D01*
G75*
D01*
G02X-7556Y11360I440J156*
G01*
X-8658Y10258D01*
G74*
D01*
G02X-8736Y10209I142J142*
G01*
G74*
D01*
G02X-8772Y10201I64J191*
G01*
X-8083Y10201D01*
X-7447Y10837D01*
X-7447Y10837D01*
X-6769Y11515D01*
G75*
D01*
G02X-6382Y11334I369J285*
G01*
X-7447Y10268D01*
X-7447Y10268D01*
X-7858Y9858D01*
G74*
D01*
G02X-7974Y9801I142J142*
G01*
G74*
D01*
G02X-8000Y9799I26J199*
G01*
X-11917Y9799D01*
X-12299Y9417D01*
X-12299Y983D01*
X-10717Y-599D01*
X-10660Y-599D01*
G75*
D01*
G02X-10601Y-608I0J-201*
G01*
G75*
D01*
G02X-10170Y-1299I141J-392*
G01*
X-9283Y-1299D01*
G74*
D01*
G02X-9201Y-1217I283J201*
G01*
X-9201Y600D01*
G74*
D01*
G02X-9142Y742I201J0*
G01*
X-6001Y3883D01*
X-6001Y4017D01*
G75*
D01*
G02X-5599Y4017I201J283*
G01*
X-5599Y3800D01*
G75*
D01*
G02X-5658Y3658I-201J0*
G01*
X-8799Y517D01*
X-8799Y-1217D01*
G75*
D01*
G02X-9283Y-1701I-201J-283*
G01*
X-10170Y-1701D01*
G75*
D01*
G02X-10750Y-1701I-290J-299*
G01*
X-17117Y-1701D01*
X-17337Y-1921D01*
X-17337Y-1921D01*
X-18058Y-2642D01*
G74*
D01*
G02X-18173Y-2699I142J142*
G01*
G74*
D01*
G02X-18200Y-2701I27J199*
G01*
X-19170Y-2701D01*
G75*
D01*
G02X-19750Y-2701I-290J-299*
G01*
X-22000Y-2701D01*
G75*
D01*
G02X-22061Y-2692I0J201*
G01*
G74*
D01*
G02X-22142Y-2642I61J192*
G01*
X-22863Y-1921D01*
X-22863Y-1921D01*
X-23242Y-1542D01*
G75*
D01*
G02X-23301Y-1400I142J142*
G01*
X-23301Y5317D01*
G75*
D01*
G02X-22899Y5317I201J283*
G01*
X-22899Y-1317D01*
X-22295Y-1921D01*
X-22295Y-1921D01*
X-21917Y-2299D01*
X-19750Y-2299D01*
G75*
D01*
G02X-19344Y-1600I290J299*
G01*
X-17001Y743D01*
X-17001Y1175D01*
X-19060Y-884D01*
G75*
D01*
G02X-19344Y-600I-400J-116*
G01*
X-17301Y1443D01*
X-17301Y10700D01*
G74*
D01*
G02X-17242Y10842I201J0*
G01*
X-16896Y11188D01*
X-16896Y11188D01*
X-16867Y11217D01*
X-15440Y12644D01*
G75*
D01*
G02X-14844Y13240I440J156*
G01*
X-14442Y13642D01*
G75*
D01*
G02X-14300Y13701I142J-142*
G01*
X12300Y13701D01*
G74*
D01*
G02X12442Y13642I0J201*
G01*
X13142Y12942D01*
G74*
D01*
G02X13201Y12800I142J142*
G01*
X13201Y5801D01*
X26179Y5801D01*
G75*
D01*
G02X26179Y5399I421J-201*
G01*
X20368Y5399D01*
G75*
D01*
G02X19816Y5399I-276J-313*
G01*
X13201Y5399D01*
X13201Y-10317D01*
X14644Y-11760D01*
G75*
D01*
G02X14360Y-12044I156J-440*
G01*
X13686Y-11370D01*
X13686Y-11370D01*
X12858Y-10542D01*
G75*
D01*
G02X12799Y-10400I142J142*
G01*
X12799Y12717D01*
X12217Y13299D01*
X-14217Y13299D01*
X-14560Y12956D01*
G75*
D01*
G02X-15156Y12360I-440J-156*
G01*
X-15515Y12001D01*
X-8838Y12001D01*
G75*
D01*
G02X-8504Y12252I334J-97*
G01*
X-8296Y12252D01*
G74*
D01*
G02X-7948Y11904I0J348*
G01*
X-7948Y11696D01*
G75*
D01*
G02X-8296Y11348I-348J0*
G01*
X-8504Y11348D01*
G75*
D01*
G02X-8838Y11599I0J348*
G01*
X-15617Y11599D01*
X-16599Y10617D01*
X-16599Y660D01*
G75*
D01*
G02X-16658Y518I-201J0*
G01*
X-16896Y280D01*
X-16896Y280D01*
X-19060Y-1884D01*
X-7323Y5776D02*
G74*
D01*
G02X-7524Y5977I123J324*
G01*
X-7323Y5977D01*
X-7323Y5776D01*
X-7323Y6424D02*
X-7323Y6223D01*
X-7524Y6223D01*
G74*
D01*
G02X-7323Y6424I324J123*
G01*
X-1261Y2347D02*
X-1261Y7477D01*
X-1312Y7528D01*
X-1312Y7528D01*
X-2442Y8658D01*
G75*
D01*
G02X-2501Y8800I142J142*
G01*
X-2501Y11300D01*
G74*
D01*
G02X-2442Y11442I201J0*
G01*
X-1542Y12342D01*
G75*
D01*
G02X-1400Y12401I142J-142*
G01*
X500Y12401D01*
G74*
D01*
G02X701Y12200I0J201*
G01*
X701Y10883D01*
G75*
D01*
G02X299Y10883I-201J-283*
G01*
X299Y11999D01*
X-1317Y11999D01*
X-2099Y11217D01*
X-2099Y8883D01*
X-918Y7702D01*
G75*
D01*
G02X-859Y7560I-142J-142*
G01*
X-859Y2347D01*
G75*
D01*
G02X-1261Y2347I-201J-247*
G01*
X20004Y-8961D02*
G75*
D01*
G02X20190Y-8962I96J406*
G01*
G75*
D01*
G02X20004Y-8961I-98J-833*
G01*
X19900Y-1921D02*
G75*
D01*
G02X19900Y-1921I200J366*
G01*
X25880Y17573D02*
G75*
D01*
G02X24551Y16776I-642J-435*
G01*
G75*
D01*
G02X25880Y17573I649J424*
G01*
X-20959Y-12117D02*
G75*
D01*
G02X-21361Y-12117I-201J-283*
G01*
X-21361Y-7700D01*
G74*
D01*
G02X-21302Y-7558I201J0*
G01*
X-19860Y-6116D01*
G75*
D01*
G02X-19576Y-6400I400J116*
G01*
X-20959Y-7783D01*
X-20959Y-12117D01*
X-24551Y16776D02*
G75*
D01*
G02X-25880Y17573I-686J362*
G01*
G75*
D01*
G02X-24551Y16776I680J-373*
G01*
X3117Y16976D02*
G75*
D01*
G02X3117Y16976I479J689*
G01*
X-16896Y12345D02*
G75*
D01*
G02X-16896Y12345I-104J455*
G01*
X-31540Y-10364D02*
G75*
D01*
G02X-32636Y-11460I-560J-536*
G01*
G75*
D01*
G02X-31540Y-10364I524J573*
G01*
X-24853Y7528D02*
G75*
D01*
G02X-24853Y7528I93J72*
G01*
X-10877Y8000D02*
G75*
D01*
G02X-10877Y8000I417J0*
G01*
X-10877Y9000D02*
G75*
D01*
G02X-10877Y9000I417J0*
G01*
X32636Y11460D02*
G75*
D01*
G02X31540Y10364I-523J-572*
G01*
G75*
D01*
G02X32636Y11460I560J536*
G01*
X-10877Y7000D02*
G75*
D01*
G02X-10877Y7000I417J0*
G01*
X-10877Y0D02*
G75*
D01*
G02X-10877Y0I417J0*
G01*
X-10877Y2000D02*
G75*
D01*
G02X-10877Y2000I417J0*
G01*
X-10877Y3000D02*
G75*
D01*
G02X-10877Y3000I417J0*
G01*
X-10877Y4000D02*
G75*
D01*
G02X-10877Y4000I417J0*
G01*
X-10877Y5000D02*
G75*
D01*
G02X-10877Y5000I417J0*
G01*
X-10877Y6000D02*
G75*
D01*
G02X-10877Y6000I417J0*
G01*
X-4867Y11800D02*
G75*
D01*
G02X-4867Y11800I467J0*
G01*
X-2964Y11635D02*
G74*
D01*
G02X-3235Y11364I436J165*
G01*
X-3235Y11635D01*
X-2964Y11635D01*
X-3575Y11800D02*
G75*
D01*
G02X-3575Y11800I175J0*
G01*
X-3565Y11364D02*
G74*
D01*
G02X-3836Y11635I165J436*
G01*
X-3565Y11635D01*
X-3565Y11364D01*
X-3235Y12236D02*
G74*
D01*
G02X-2964Y11965I165J436*
G01*
X-3235Y11965D01*
X-3235Y12236D01*
X-3836Y11965D02*
G74*
D01*
G02X-3565Y12236I436J165*
G01*
X-3565Y11965D01*
X-3836Y11965D01*
X-16467Y12800D02*
G75*
D01*
G02X-16467Y12800I467J0*
G01*
X19675Y1086D02*
G75*
D01*
G02X19675Y1086I417J0*
G01*
X20240Y476D02*
G74*
D01*
G02X20482Y234I148J390*
G01*
X20240Y234D01*
X20240Y476D01*
X20482Y-61D02*
G74*
D01*
G02X20240Y-303I390J147*
G01*
X20240Y-61D01*
X20482Y-61D01*
X19702Y234D02*
G74*
D01*
G02X19944Y476I390J148*
G01*
X19944Y234D01*
X19702Y234D01*
X19944Y-303D02*
G74*
D01*
G02X19702Y-61I148J389*
G01*
X19944Y-61D01*
X19944Y-303D01*
X19895Y86D02*
G75*
D01*
G02X19895Y86I197J0*
G01*
X19675Y2086D02*
G75*
D01*
G02X19675Y2086I417J0*
G01*
X19675Y3086D02*
G75*
D01*
G02X19675Y3086I417J0*
G01*
X19675Y4086D02*
G75*
D01*
G02X19675Y4086I417J0*
G01*
X19683Y-7555D02*
G75*
D01*
G02X19683Y-7555I417J0*
G01*
X19683Y-6555D02*
G75*
D01*
G02X19683Y-6555I417J0*
G01*
X19683Y-5555D02*
G75*
D01*
G02X19683Y-5555I417J0*
G01*
X19683Y-4555D02*
G75*
D01*
G02X19683Y-4555I417J0*
G01*
X19683Y-3555D02*
G75*
D01*
G02X19683Y-3555I417J0*
G01*
X19683Y-2555D02*
G75*
D01*
G02X19683Y-2555I417J0*
G01*
X-27053Y-2340D02*
X-27340Y-2340D01*
X-27340Y-2053D01*
G74*
D01*
G02X-27053Y-2340I56J343*
G01*
X-27967Y-5500D02*
G75*
D01*
G02X-27967Y-5500I467J0*
G01*
X-27967Y-4500D02*
G75*
D01*
G02X-27967Y-4500I467J0*
G01*
X-27967Y-3500D02*
G75*
D01*
G02X-27967Y-3500I467J0*
G01*
X-27696Y-2500D02*
G75*
D01*
G02X-27696Y-2500I196J0*
G01*
X-27947Y-2660D02*
X-27660Y-2660D01*
X-27660Y-2947D01*
G74*
D01*
G02X-27947Y-2660I56J343*
G01*
X-27340Y-2947D02*
X-27340Y-2660D01*
X-27053Y-2660D01*
G74*
D01*
G02X-27340Y-2947I343J56*
G01*
X-27660Y-2053D02*
X-27660Y-2340D01*
X-27947Y-2340D01*
G74*
D01*
G02X-27660Y-2053I343J56*
G01*
X-24665Y-17660D02*
G75*
D01*
G02X-25760Y-16565I-572J523*
G01*
G75*
D01*
G02X-24665Y-17660I560J-535*
G01*
X-32636Y11460D02*
G75*
D01*
G02X-31540Y10364I536J-560*
G01*
G75*
D01*
G02X-32636Y11460I-572J524*
G01*
X25760Y-16565D02*
G75*
D01*
G02X24665Y-17660I-522J-572*
G01*
G75*
D01*
G02X25760Y-16565I535J560*
G01*
X17604Y-12200D02*
G75*
D01*
G02X17604Y-12200I196J0*
G01*
X15333Y-12200D02*
G75*
D01*
G02X15333Y-12200I467J0*
G01*
X16333Y-12200D02*
G75*
D01*
G02X16333Y-12200I467J0*
G01*
X17353Y-12360D02*
X17640Y-12360D01*
X17640Y-12647D01*
G74*
D01*
G02X17353Y-12360I56J343*
G01*
X17960Y-12647D02*
X17960Y-12360D01*
X18247Y-12360D01*
G74*
D01*
G02X17960Y-12647I343J56*
G01*
X18247Y-12040D02*
X17960Y-12040D01*
X17960Y-11753D01*
G74*
D01*
G02X18247Y-12040I56J343*
G01*
X17640Y-11753D02*
X17640Y-12040D01*
X17353Y-12040D01*
G74*
D01*
G02X17640Y-11753I343J56*
G01*
X-19877Y1000D02*
G75*
D01*
G02X-19877Y1000I417J0*
G01*
X-19877Y0D02*
G75*
D01*
G02X-19877Y0I417J0*
G01*
X-24401Y5317D02*
G75*
D01*
G02X-23999Y5317I201J283*
G01*
X-23999Y-117D01*
G75*
D01*
G02X-24401Y-117I-201J-283*
G01*
X-24401Y5317D01*
X-19877Y2000D02*
G75*
D01*
G02X-19877Y2000I417J0*
G01*
X-19877Y3000D02*
G75*
D01*
G02X-19877Y3000I417J0*
G01*
X-19877Y4000D02*
G75*
D01*
G02X-19877Y4000I417J0*
G01*
X-19877Y5000D02*
G75*
D01*
G02X-19877Y5000I417J0*
G01*
X-19877Y6000D02*
G75*
D01*
G02X-19877Y6000I417J0*
G01*
X-19877Y7000D02*
G75*
D01*
G02X-19877Y7000I417J0*
G01*
X-24436Y7477D02*
G74*
D01*
G02X-24637Y7276I324J123*
G01*
X-24637Y7477D01*
X-24436Y7477D01*
X-24883Y7276D02*
G74*
D01*
G02X-25084Y7477I123J324*
G01*
X-24883Y7477D01*
X-24883Y7276D01*
X-1378Y-4100D02*
G75*
D01*
G02X-1378Y-4100I318J0*
G01*
X-4378Y-5100D02*
G75*
D01*
G02X-4378Y-5100I318J0*
G01*
X-947Y-4802D02*
G74*
D01*
G02X-762Y-4987I113J298*
G01*
X-947Y-4987D01*
X-947Y-4802D01*
X-762Y-5213D02*
G74*
D01*
G02X-947Y-5398I298J113*
G01*
X-947Y-5213D01*
X-762Y-5213D01*
X-1358Y-4987D02*
G74*
D01*
G02X-1173Y-4802I298J113*
G01*
X-1173Y-4987D01*
X-1358Y-4987D01*
X-1173Y-5398D02*
G74*
D01*
G02X-1358Y-5213I113J298*
G01*
X-1173Y-5213D01*
X-1173Y-5398D01*
X-1158Y-5100D02*
G75*
D01*
G02X-1158Y-5100I98J0*
G01*
X-4378Y-4100D02*
G75*
D01*
G02X-4378Y-4100I318J0*
G01*
X-4378Y1100D02*
G75*
D01*
G02X-4378Y1100I318J0*
G01*
X-1378Y1100D02*
G75*
D01*
G02X-1378Y1100I318J0*
G01*
X-4358Y2213D02*
G74*
D01*
G02X-4173Y2398I298J113*
G01*
X-4173Y2213D01*
X-4358Y2213D01*
X-3947Y2398D02*
G74*
D01*
G02X-3762Y2213I113J298*
G01*
X-3947Y2213D01*
X-3947Y2398D01*
X-3762Y1987D02*
G74*
D01*
G02X-3947Y1802I298J113*
G01*
X-3947Y1987D01*
X-3762Y1987D01*
X-4173Y1802D02*
G74*
D01*
G02X-4358Y1987I113J298*
G01*
X-4173Y1987D01*
X-4173Y1802D01*
X-4158Y2100D02*
G75*
D01*
G02X-4158Y2100I98J0*
G01*
X99Y3517D02*
G75*
D01*
G02X501Y3517I201J283*
G01*
X501Y3183D01*
G75*
D01*
G02X99Y3183I-201J-283*
G01*
X99Y3517D01*
X-7318Y6100D02*
G75*
D01*
G02X-7318Y6100I118J0*
G01*
X-7077Y6424D02*
G74*
D01*
G02X-6876Y6223I123J324*
G01*
X-7077Y6223D01*
X-7077Y6424D01*
X-6876Y5977D02*
G74*
D01*
G02X-7077Y5776I324J123*
G01*
X-7077Y5977D01*
X-6876Y5977D01*
X26760Y2153D02*
X26760Y2440D01*
X27047Y2440D01*
G74*
D01*
G02X26760Y2153I343J56*
G01*
X26153Y2440D02*
X26440Y2440D01*
X26440Y2153D01*
G74*
D01*
G02X26153Y2440I56J343*
G01*
X27047Y2760D02*
X26760Y2760D01*
X26760Y3047D01*
G74*
D01*
G02X27047Y2760I56J343*
G01*
X26404Y2600D02*
G75*
D01*
G02X26404Y2600I196J0*
G01*
X26133Y3600D02*
G75*
D01*
G02X26133Y3600I467J0*
G01*
X26440Y3047D02*
X26440Y2760D01*
X26153Y2760D01*
G74*
D01*
G02X26440Y3047I343J56*
G01*
X26133Y4600D02*
G75*
D01*
G02X26133Y4600I467J0*
G01*
X-10850Y-8852D02*
G74*
D01*
G02X-10608Y-8610I390J148*
G01*
X-10608Y-8852D01*
X-10850Y-8852D01*
X-10312Y-8610D02*
G74*
D01*
G02X-10070Y-8852I148J390*
G01*
X-10312Y-8852D01*
X-10312Y-8610D01*
X-10070Y-9148D02*
G74*
D01*
G02X-10312Y-9390I390J148*
G01*
X-10312Y-9148D01*
X-10070Y-9148D01*
X-10608Y-9390D02*
G74*
D01*
G02X-10850Y-9148I148J390*
G01*
X-10608Y-9148D01*
X-10608Y-9390D01*
X-10657Y-9000D02*
G75*
D01*
G02X-10657Y-9000I197J0*
G01*
X-10877Y-8000D02*
G75*
D01*
G02X-10877Y-8000I417J0*
G01*
X-10877Y-7000D02*
G75*
D01*
G02X-10877Y-7000I417J0*
G01*
X-10877Y-6000D02*
G75*
D01*
G02X-10877Y-6000I417J0*
G01*
X-10877Y-5000D02*
G75*
D01*
G02X-10877Y-5000I417J0*
G01*
X-10877Y-4000D02*
G75*
D01*
G02X-10877Y-4000I417J0*
G01*
X-10877Y-3000D02*
G75*
D01*
G02X-10877Y-3000I417J0*
G01*
X-19877Y-9000D02*
G75*
D01*
G02X-19877Y-9000I417J0*
G01*
X-19877Y-8000D02*
G75*
D01*
G02X-19877Y-8000I417J0*
G01*
X-19877Y-7000D02*
G75*
D01*
G02X-19877Y-7000I417J0*
G01*
X-19877Y-5000D02*
G75*
D01*
G02X-19877Y-5000I417J0*
G01*
X-19877Y-4000D02*
G75*
D01*
G02X-19877Y-4000I417J0*
G01*
X-25084Y7723D02*
G74*
D01*
G02X-24883Y7924I324J123*
G01*
X-24883Y7723D01*
X-25084Y7723D01*
X-24637Y7924D02*
G74*
D01*
G02X-24436Y7723I123J324*
G01*
X-24637Y7723D01*
X-24637Y7924D01*
X-19877Y8000D02*
G75*
D01*
G02X-19877Y8000I417J0*
G01*
X-19877Y9000D02*
G75*
D01*
G02X-19877Y9000I417J0*
G01*
X-18447Y12640D02*
X-18160Y12640D01*
X-18160Y12353D01*
G74*
D01*
G02X-18447Y12640I56J343*
G01*
X-17840Y12353D02*
X-17840Y12640D01*
X-17553Y12640D01*
G74*
D01*
G02X-17840Y12353I343J56*
G01*
X-18196Y12800D02*
G75*
D01*
G02X-18196Y12800I196J0*
G01*
X-18160Y13247D02*
X-18160Y12960D01*
X-18447Y12960D01*
G74*
D01*
G02X-18160Y13247I343J56*
G01*
X-17553Y12960D02*
X-17840Y12960D01*
X-17840Y13247D01*
G74*
D01*
G02X-17553Y12960I56J343*
G01*
X20651Y-13987D02*
X20651Y-20517D01*
X20899Y-20517D01*
X20899Y-20517D01*
X27197Y-20517D01*
G75*
D01*
G02X27209Y-20516I12J-151*
G01*
G75*
D01*
G03X28308Y-19418I0J1098*
G01*
G74*
D01*
G02X28308Y-19406I151J0*
G01*
X28308Y-17824D01*
G75*
D01*
G02X28305Y-17794I151J30*
G01*
G75*
D01*
G02X32266Y-13833I3961J0*
G01*
G74*
D01*
G02X32296Y-13836I0J154*
G01*
X34381Y-13836D01*
G75*
D01*
G02X34393Y-13835I12J-151*
G01*
G75*
D01*
G03X35491Y-12737I0J1098*
G01*
G74*
D01*
G02X35492Y-12725I152J0*
G01*
X35492Y-151D01*
X28459Y-151D01*
G75*
D01*
G02X28308Y0I0J151*
G01*
X28308Y8000D01*
G75*
D01*
G02X28459Y8151I151J0*
G01*
X35489Y8151D01*
X35492Y12725D01*
G75*
D01*
G02X35491Y12737I151J12*
G01*
G74*
D01*
G03X34393Y13835I1098J0*
G01*
G75*
D01*
G02X34381Y13836I0J152*
G01*
X32296Y13836D01*
G74*
D01*
G02X32266Y13833I30J151*
G01*
G75*
D01*
G02X28305Y17794I0J3961*
G01*
G74*
D01*
G02X28308Y17824I154J0*
G01*
X28308Y19406D01*
G75*
D01*
G02X28308Y19418I151J12*
G01*
G74*
D01*
G03X27209Y20516I1099J0*
G01*
G75*
D01*
G02X27197Y20517I0J152*
G01*
X-12349Y20517D01*
X-12349Y13987D01*
G75*
D01*
G02X-12500Y13836I-151J0*
G01*
X-20500Y13836D01*
G75*
D01*
G02X-20651Y13987I0J151*
G01*
X-20651Y20517D01*
X-26345Y20517D01*
X-26345Y20517D01*
X-27197Y20517D01*
G74*
D01*
G02X-27209Y20516I12J151*
G01*
G75*
D01*
G03X-28308Y19418I0J-1098*
G01*
G75*
D01*
G02X-28308Y19406I-151J0*
G01*
X-28308Y17824D01*
G74*
D01*
G02X-28305Y17794I151J30*
G01*
G75*
D01*
G02X-32266Y13833I-3961J0*
G01*
G75*
D01*
G02X-32296Y13836I0J154*
G01*
X-34381Y13836D01*
G74*
D01*
G02X-34393Y13835I12J151*
G01*
G75*
D01*
G03X-35491Y12737I0J-1098*
G01*
G75*
D01*
G02X-35492Y12725I-152J0*
G01*
X-35492Y151D01*
X-28459Y151D01*
G74*
D01*
G02X-28308Y0I0J151*
G01*
X-28308Y-8000D01*
G75*
D01*
G02X-28459Y-8151I-151J0*
G01*
X-35489Y-8151D01*
X-35491Y-11370D01*
X-35491Y-11370D01*
X-35492Y-12725D01*
G74*
D01*
G02X-35491Y-12737I151J12*
G01*
G75*
D01*
G03X-34393Y-13835I1098J0*
G01*
G74*
D01*
G02X-34381Y-13836I0J152*
G01*
X-32296Y-13836D01*
G75*
D01*
G02X-32266Y-13833I30J-151*
G01*
G74*
D01*
G02X-28305Y-17794I0J3961*
G01*
G75*
D01*
G02X-28308Y-17824I-154J0*
G01*
X-28308Y-19406D01*
G74*
D01*
G02X-28308Y-19418I151J12*
G01*
G75*
D01*
G03X-27209Y-20516I1099J0*
G01*
G74*
D01*
G02X-27197Y-20517I0J152*
G01*
X12349Y-20517D01*
X12349Y-13987D01*
G75*
D01*
G02X12500Y-13836I151J0*
G01*
X20500Y-13836D01*
G74*
D01*
G02X20651Y-13987I0J151*
G01*
X-10460Y-9000D02*
X-10460Y-18700D01*
X-21160Y-12400D02*
X-21160Y-7700D01*
X-19460Y-6000D01*
X-1060Y-5100D02*
X-2460Y-5100D01*
X-2460Y1100D01*
X-3460Y2100D01*
X-4060Y2100D01*
X-24200Y5600D02*
X-24200Y-400D01*
X-28171Y7600D02*
X-28200Y7629D01*
X-6400Y11800D02*
X-6400Y11600D01*
X-10800Y-800D02*
X-10660Y-800D01*
X-10460Y-1000D01*
X-12500Y9500D02*
X-12500Y900D01*
X-10800Y-800D01*
X-5360Y3400D02*
X-4060Y2100D01*
X-5360Y3400D02*
X-5360Y7940D01*
X-7200Y6100D02*
X-3400Y9900D01*
X-3400Y11800D01*
X-10460Y1000D02*
X-8800Y2660D01*
X-8800Y7900D01*
X-7800Y8900D01*
X-6100Y8900D01*
X-5400Y9600D01*
X-5400Y11800D01*
X-17100Y10700D02*
X-17100Y1360D01*
X-19460Y-1000D01*
X-8400Y11800D02*
X-15700Y11800D01*
X-16800Y10700D01*
X-16800Y660D01*
X-19460Y-2000D01*
X-8000Y10000D02*
X-12000Y10000D01*
X-6400Y11600D02*
X-8000Y10000D01*
X-12000Y10000D02*
X-12500Y9500D01*
X-7400Y11800D02*
X-8800Y10400D01*
X-12900Y10400D01*
X-13400Y9900D01*
X-13400Y0D02*
X-13400Y9900D01*
X3800Y-18700D02*
X8900Y-13600D01*
X17500Y-13600D01*
X-5800Y4300D02*
X-5800Y3800D01*
X-9000Y600D01*
X-9000Y-1500D01*
X-17200Y-1500D02*
X-9000Y-1500D01*
X-17200Y-1500D02*
X-18200Y-2500D01*
X-22000Y-2500D01*
X-23100Y-1400D01*
X-23100Y5600D01*
X-1060Y2100D02*
X-1060Y7560D01*
X-2300Y8800D01*
X-2300Y11300D01*
X-1400Y12200D01*
X500Y12200D01*
X500Y10600D01*
X13000Y12800D02*
X13000Y-10400D01*
X14800Y-12200D01*
X17500Y-13600D02*
X17800Y-13300D01*
X19986Y86D02*
X17800Y-2100D01*
X17800Y-13300D02*
X17800Y-2100D01*
X300Y3800D02*
X300Y2900D01*
X-14300Y13500D02*
X12300Y13500D01*
X-17100Y10700D02*
X-14300Y13500D01*
X12300Y13500D02*
X13000Y12800D01*
X13000Y5600D02*
X26600Y5600D01*
X20092Y86D02*
X20286Y86D01*
X20400Y200D01*
X26000Y200D01*
X26200Y400D01*
X26200Y2400D01*
X26400Y2600D01*
X26600Y2600D01*
X-10460Y-18700D02*
X3800Y-18700D01*
X-23000Y12800D02*
X-18000Y12800D01*
X-28185Y7615D02*
X-23000Y12800D01*
X-27600Y7600D02*
X-27600Y7600D01*
X-27600Y-2200D02*
X-27500Y-2300D01*
X-27500Y-2500D01*
X-27600Y7600D02*
X-27600Y-2200D01*
X-28156Y7600D02*
X-24760Y7600D01*
G54D12*
X-35743Y-20768D02*
X-35743Y-16614D01*
X-35743Y-20768D02*
X-28594Y-20768D01*
X35743Y-20768D02*
X28594Y-20768D01*
X35743Y-20768D02*
X35743Y-16614D01*
X35743Y20768D02*
X35743Y16614D01*
X35743Y20768D02*
X28594Y20768D01*
X-35743Y20768D02*
X-28594Y20768D01*
X-35743Y20768D02*
X-35743Y16614D01*
X-37711Y-20768D02*
X-41648Y-20768D01*
X-39680Y-22736D02*
X-39680Y-18799D01*
X-41156Y-20768D02*
G75*
D01*
G02X-41156Y-20768I1476J0*
G01*
X37711Y-20768D02*
X41648Y-20768D01*
X39680Y-22736D02*
X39680Y-18799D01*
X38203Y-20768D02*
G75*
D01*
G02X38203Y-20768I1477J0*
G01*
X39188Y-20768D02*
G75*
D01*
G02X39188Y-20768I492J0*
G01*
X-37711Y20768D02*
X-41648Y20768D01*
X-39680Y18799D02*
X-39680Y22736D01*
X-41156Y20768D02*
G75*
D01*
G02X-41156Y20768I1476J0*
G01*
X-40664Y20768D02*
G75*
D01*
G02X-40664Y20768I984J0*
G01*
X-40172Y20768D02*
G75*
D01*
G02X-40172Y20768I492J0*
G01*
G54D13*
X-21160Y-12400D03*
X-24760Y7600D03*
X-24200Y5600D03*
X-24200Y-400D03*
X-7200Y6100D03*
X-13400Y0D03*
X500Y10600D03*
X-5800Y4300D03*
X-9000Y-1500D03*
X-23100Y5600D03*
X300Y2900D03*
X300Y3800D03*
G54D14*
X-10460Y-9000D03*
X-10460Y-8000D03*
X-10460Y-7000D03*
X-10460Y-6000D03*
X-10460Y-5000D03*
X-10460Y-4000D03*
X-10460Y-3000D03*
X-10460Y-2000D03*
X-10460Y-1000D03*
X-10460Y0D03*
X-10460Y1000D03*
X-10460Y2000D03*
X-10460Y3000D03*
X-10460Y4000D03*
X-10460Y5000D03*
X-10460Y6000D03*
X-10460Y7000D03*
X-10460Y8000D03*
X-10460Y9000D03*
X-19460Y-9000D03*
X-19460Y-8000D03*
X-19460Y-7000D03*
X-19460Y-6000D03*
X-19460Y-5000D03*
X-19460Y-4000D03*
X-19460Y-3000D03*
X-19460Y-2000D03*
X-19460Y-1000D03*
X-19460Y0D03*
X-19460Y1000D03*
X-19460Y2000D03*
X-19460Y3000D03*
X-19460Y4000D03*
X-19460Y5000D03*
X-19460Y6000D03*
X-19460Y7000D03*
X-19460Y8000D03*
X-19460Y9000D03*
X20100Y-1555D03*
X20100Y-2555D03*
X20100Y-3555D03*
X20100Y-4555D03*
X20100Y-5555D03*
X20100Y-6555D03*
X20100Y-7555D03*
X20100Y-8555D03*
X20092Y86D03*
X20092Y1086D03*
X20092Y2086D03*
X20092Y3086D03*
X20092Y4086D03*
X20092Y5086D03*
G54D15*
X-4060Y-4100D03*
X-4060Y-5100D03*
X-1060Y-4100D03*
X-1060Y-5100D03*
X-1060Y1100D03*
X-1060Y2100D03*
X-4060Y1100D03*
X-4060Y2100D03*
G54D16*
X-16000Y12800D03*
X-17000Y12800D03*
X-15000Y12800D03*
X-7400Y11800D03*
X-6400Y11800D03*
X-4400Y11800D03*
X-5400Y11800D03*
X-3400Y11800D03*
X15800Y-12200D03*
X16800Y-12200D03*
X14800Y-12200D03*
X26600Y4600D03*
X26600Y3600D03*
X26600Y5600D03*
X-27500Y-4500D03*
X-27500Y-3500D03*
X-27500Y-5500D03*
G54D17*
X-18000Y12800D03*
X-8400Y11800D03*
X17800Y-12200D03*
X26600Y2600D03*
X-27500Y-2500D03*
G54D18*
X-18104Y12696D02*
X-17896Y12696D01*
X-17896Y12904D01*
X-18104Y12904D01*
X-18104Y12696D01*D02*
X-8504Y11696D02*
X-8296Y11696D01*
X-8296Y11904D01*
X-8504Y11904D01*
X-8504Y11696D01*D02*
X17696Y-12304D02*
X17904Y-12304D01*
X17904Y-12096D01*
X17696Y-12096D01*
X17696Y-12304D01*D02*
X26496Y2496D02*
X26704Y2496D01*
X26704Y2704D01*
X26496Y2704D01*
X26496Y2496D01*D02*
X-27604Y-2604D02*
X-27396Y-2604D01*
X-27396Y-2396D01*
X-27604Y-2396D01*
X-27604Y-2604D01*D02*

M02*
