G04 Generated by Ultiboard 14.2 *
%FSLAX24Y24*%
%MOIN*%

%ADD10C,0.0001*%
%ADD11C,0.0100*%
%ADD12C,0.0050*%
%ADD13C,0.0394*%
%ADD14R,0.0551X0.0413*%
%ADD15C,0.0534*%
%ADD16C,0.0337*%
%ADD17R,0.0433X0.0236*%
%ADD18R,0.0413X0.0551*%
%ADD19C,0.0633*%
%ADD20R,0.0208X0.0208*%
%ADD21C,0.0392*%
%ADD22R,0.0236X0.0657*%
%ADD23R,0.0236X0.0157*%


G04 ColorRGB 00FF00 for the following layer *
%LNCopper Top*%
%LPD*%
G54D10*
G36*
X-12349Y13987D02*
X-12349Y13987D01*
X-12349Y20517D01*
X27197Y20517D01*
G75*
D01*
G03X27209Y20516I12J151*
G01*
G74*
D01*
G02X28308Y19418I0J1098*
G01*
G75*
D01*
G03X28308Y19406I151J0*
G01*
X28308Y19406D01*
X28308Y17824D01*
G74*
D01*
G03X28305Y17794I151J30*
G01*
G75*
D01*
G03X32266Y13833I3961J0*
G01*
G74*
D01*
G03X32296Y13836I0J154*
G01*
X32296Y13836D01*
X34381Y13836D01*
G75*
D01*
G03X34393Y13835I12J151*
G01*
G74*
D01*
G02X35491Y12737I0J1098*
G01*
G75*
D01*
G03X35492Y12725I152J0*
G01*
X35492Y12725D01*
X35489Y8151D01*
X28459Y8151D01*
G75*
D01*
G03X28308Y8000I0J-151*
G01*
X28308Y8000D01*
X28308Y0D01*
G75*
D01*
G03X28459Y-151I151J0*
G01*
X28459Y-151D01*
X35492Y-151D01*
X35492Y-12725D01*
G74*
D01*
G03X35491Y-12737I151J12*
G01*
G75*
D01*
G02X34393Y-13835I-1098J0*
G01*
G75*
D01*
G03X34381Y-13836I0J-152*
G01*
X34381Y-13836D01*
X32296Y-13836D01*
G74*
D01*
G03X32266Y-13833I30J151*
G01*
G75*
D01*
G03X28305Y-17794I0J-3961*
G01*
G75*
D01*
G03X28308Y-17824I154J0*
G01*
X28308Y-17824D01*
X28308Y-19406D01*
G74*
D01*
G03X28308Y-19418I151J12*
G01*
G75*
D01*
G02X27209Y-20516I-1099J0*
G01*
G75*
D01*
G03X27197Y-20517I0J-152*
G01*
X27197Y-20517D01*
X20899Y-20517D01*
X20899Y-20517D01*
X20651Y-20517D01*
X20651Y-13987D01*
G74*
D01*
G03X20500Y-13836I151J0*
G01*
X20500Y-13836D01*
X12500Y-13836D01*
G75*
D01*
G03X12349Y-13987I0J-151*
G01*
X12349Y-13987D01*
X12349Y-20517D01*
X-27197Y-20517D01*
G74*
D01*
G03X-27209Y-20516I12J151*
G01*
G75*
D01*
G02X-28308Y-19418I0J1098*
G01*
G74*
D01*
G03X-28308Y-19406I151J0*
G01*
X-28308Y-19406D01*
X-28308Y-17824D01*
G75*
D01*
G03X-28305Y-17794I-151J30*
G01*
G74*
D01*
G03X-32266Y-13833I3961J0*
G01*
G75*
D01*
G03X-32296Y-13836I0J-154*
G01*
X-32296Y-13836D01*
X-34381Y-13836D01*
G74*
D01*
G03X-34393Y-13835I12J151*
G01*
G75*
D01*
G02X-35491Y-12737I0J1098*
G01*
G74*
D01*
G03X-35492Y-12725I152J0*
G01*
X-35492Y-12725D01*
X-35491Y-11370D01*
X-35491Y-11370D01*
X-35489Y-8151D01*
X-28459Y-8151D01*
G75*
D01*
G03X-28308Y-8000I0J151*
G01*
X-28308Y-8000D01*
X-28308Y0D01*
G74*
D01*
G03X-28459Y151I151J0*
G01*
X-28459Y151D01*
X-35492Y151D01*
X-35492Y12725D01*
G75*
D01*
G03X-35491Y12737I-151J12*
G01*
G75*
D01*
G02X-34393Y13835I1098J0*
G01*
G74*
D01*
G03X-34381Y13836I0J152*
G01*
X-34381Y13836D01*
X-32296Y13836D01*
G75*
D01*
G03X-32266Y13833I30J151*
G01*
G75*
D01*
G03X-28305Y17794I0J3961*
G01*
G74*
D01*
G03X-28308Y17824I154J0*
G01*
X-28308Y17824D01*
X-28308Y19406D01*
G75*
D01*
G03X-28308Y19418I-151J12*
G01*
G75*
D01*
G02X-27209Y20516I1099J0*
G01*
G74*
D01*
G03X-27197Y20517I0J152*
G01*
X-27197Y20517D01*
X-26345Y20517D01*
X-26345Y20517D01*
X-20651Y20517D01*
X-20651Y13987D01*
G75*
D01*
G03X-20500Y13836I151J0*
G01*
X-20500Y13836D01*
X-12500Y13836D01*
G75*
D01*
G03X-12349Y13987I0J151*
G01*
D02*
G37*
%LPC*%
G36*
X16800Y18901D02*
X16800Y18901D01*
X-5400Y18901D01*
G75*
D01*
G03X-5415Y18900I0J-201*
G01*
X-5415Y18900D01*
X-5217Y19099D01*
X17117Y19099D01*
X24732Y11484D01*
G75*
D01*
G03X24874Y11425I142J142*
G01*
X24874Y11425D01*
X25799Y11425D01*
X25799Y5200D01*
G75*
D01*
G03X25858Y5058I201J0*
G01*
X25858Y5058D01*
X26058Y4858D01*
G74*
D01*
G03X26178Y4800I142J142*
G01*
G75*
D01*
G03X26618Y5066I422J-200*
G01*
X26618Y5066D01*
X26548Y5136D01*
G75*
D01*
G03X26201Y5842I52J464*
G01*
X26201Y5842D01*
X26201Y11333D01*
G75*
D01*
G03X26324Y11269I123J86*
G01*
X26324Y11269D01*
X26876Y11269D01*
G75*
D01*
G03X27026Y11419I0J150*
G01*
X27026Y11419D01*
X27026Y11833D01*
G74*
D01*
G03X26876Y11983I150J0*
G01*
X26876Y11983D01*
X26324Y11983D01*
G75*
D01*
G03X26174Y11833I0J-150*
G01*
X26174Y11833D01*
X26174Y11827D01*
X24957Y11827D01*
X17342Y19442D01*
G74*
D01*
G03X17200Y19501I142J142*
G01*
X17200Y19501D01*
X-5300Y19501D01*
G75*
D01*
G03X-5442Y19442I0J-201*
G01*
X-5442Y19442D01*
X-11383Y13501D01*
X-11866Y13501D01*
G75*
D01*
G03X-12008Y13442I0J-201*
G01*
X-12008Y13442D01*
X-13449Y12001D01*
X-16572Y12001D01*
G74*
D01*
G03X-16458Y12058I28J199*
G01*
X-16458Y12058D01*
X-16156Y12360D01*
G75*
D01*
G03X-16440Y12644I156J440*
G01*
X-16440Y12644D01*
X-16683Y12401D01*
X-16758Y12401D01*
G74*
D01*
G03X-16564Y12635I242J399*
G01*
X-16564Y12635D01*
X-16835Y12635D01*
X-16835Y12401D01*
X-17165Y12401D01*
X-17165Y12635D01*
X-17436Y12635D01*
G74*
D01*
G03X-17242Y12401I436J165*
G01*
X-17242Y12401D01*
X-17712Y12401D01*
G75*
D01*
G03X-17548Y12696I-184J295*
G01*
X-17548Y12696D01*
X-17548Y12904D01*
G74*
D01*
G03X-17896Y13252I348J0*
G01*
X-17896Y13252D01*
X-18104Y13252D01*
G75*
D01*
G03X-18452Y12904I0J-348*
G01*
X-18452Y12904D01*
X-18452Y12696D01*
G75*
D01*
G03X-18288Y12401I348J0*
G01*
X-18288Y12401D01*
X-20917Y12401D01*
X-22869Y14353D01*
X-22869Y14876D01*
G74*
D01*
G03X-23019Y15026I150J0*
G01*
X-23019Y15026D01*
X-23433Y15026D01*
G75*
D01*
G03X-23583Y14876I0J-150*
G01*
X-23583Y14876D01*
X-23583Y14527D01*
X-23637Y14473D01*
X-23847Y14473D01*
X-23847Y14263D01*
X-24709Y13401D01*
X-25531Y13401D01*
G75*
D01*
G03X-25673Y13342I0J-201*
G01*
X-25673Y13342D01*
X-26302Y12713D01*
G74*
D01*
G03X-26361Y12571I142J142*
G01*
X-26361Y12571D01*
X-26361Y2100D01*
G75*
D01*
G03X-26302Y1958I201J0*
G01*
X-26302Y1958D01*
X-24202Y-142D01*
G74*
D01*
G03X-24106Y-196I142J142*
G01*
G74*
D01*
G03X-24077Y-200I46J196*
G01*
X-24077Y-200D01*
X-24077Y-277D01*
X-23876Y-277D01*
G74*
D01*
G03X-23916Y-201I324J123*
G01*
X-23916Y-201D01*
X-20460Y-201D01*
G74*
D01*
G03X-20433Y-199I0J201*
G01*
G74*
D01*
G03X-20318Y-142I27J199*
G01*
X-20318Y-142D01*
X-19576Y600D01*
G75*
D01*
G03X-19860Y884I116J400*
G01*
X-19860Y884D01*
X-20543Y201D01*
X-23977Y201D01*
X-24275Y499D01*
X-20700Y499D01*
G74*
D01*
G03X-20648Y506I0J201*
G01*
G74*
D01*
G03X-20558Y558I52J194*
G01*
X-20558Y558D01*
X-19527Y1589D01*
G75*
D01*
G03X-19845Y1839I67J411*
G01*
X-19845Y1839D01*
X-20783Y901D01*
X-24217Y901D01*
X-24726Y1410D01*
G74*
D01*
G03X-24691Y1401I66J190*
G01*
G75*
D01*
G03X-24660Y1399I31J199*
G01*
X-24660Y1399D01*
X-20860Y1399D01*
G74*
D01*
G03X-20796Y1409I0J201*
G01*
G74*
D01*
G03X-20718Y1458I64J191*
G01*
X-20718Y1458D01*
X-19576Y2600D01*
G75*
D01*
G03X-19339Y3399I116J400*
G01*
X-19339Y3399D01*
X-14083Y3399D01*
X-14001Y3317D01*
X-14001Y-9400D01*
G75*
D01*
G03X-13942Y-9542I201J0*
G01*
X-13942Y-9542D01*
X-13742Y-9742D01*
G74*
D01*
G03X-13666Y-9790I142J142*
G01*
G75*
D01*
G03X-13600Y-9801I66J190*
G01*
X-13600Y-9801D01*
X-9400Y-9801D01*
G74*
D01*
G03X-9335Y-9790I0J201*
G01*
G74*
D01*
G03X-9258Y-9742I65J190*
G01*
X-9258Y-9742D01*
X-8809Y-9293D01*
G75*
D01*
G03X-8750Y-9151I-142J142*
G01*
X-8750Y-9151D01*
X-8750Y-3049D01*
X-8735Y-3049D01*
G75*
D01*
G03X-8584Y-2898I0J151*
G01*
X-8584Y-2898D01*
X-8584Y-2662D01*
G74*
D01*
G03X-8597Y-2601I151J0*
G01*
X-8597Y-2601D01*
X-8306Y-2601D01*
X-8216Y-2691D01*
X-8216Y-2892D01*
G75*
D01*
G03X-8156Y-3012I151J0*
G01*
X-8156Y-3012D01*
X-8602Y-3458D01*
G74*
D01*
G03X-8661Y-3600I142J142*
G01*
X-8661Y-3600D01*
X-8661Y-12617D01*
X-11743Y-15699D01*
X-18377Y-15699D01*
X-20059Y-14017D01*
X-20059Y-11400D01*
G75*
D01*
G03X-20118Y-11258I-201J0*
G01*
X-20118Y-11258D01*
X-20492Y-10884D01*
G75*
D01*
G03X-20634Y-10825I-142J-142*
G01*
X-20634Y-10825D01*
X-20734Y-10825D01*
X-20734Y-10819D01*
G74*
D01*
G03X-20884Y-10669I150J0*
G01*
X-20884Y-10669D01*
X-21436Y-10669D01*
G75*
D01*
G03X-21560Y-10734I0J-150*
G01*
G74*
D01*
G03X-21684Y-10669I124J85*
G01*
X-21684Y-10669D01*
X-21759Y-10669D01*
X-21759Y-5983D01*
X-20977Y-5201D01*
X-19825Y-5201D01*
G75*
D01*
G03X-19825Y-4799I365J201*
G01*
X-19825Y-4799D01*
X-21060Y-4799D01*
G75*
D01*
G03X-21133Y-4813I0J-201*
G01*
G74*
D01*
G03X-21202Y-4858I73J187*
G01*
X-21202Y-4858D01*
X-21410Y-5066D01*
G75*
D01*
G03X-21399Y-5000I-190J66*
G01*
X-21399Y-5000D01*
X-21399Y-1483D01*
X-21317Y-1401D01*
X-19660Y-1401D01*
G74*
D01*
G03X-19631Y-1399I0J201*
G01*
G74*
D01*
G03X-19601Y-1392I29J199*
G01*
G75*
D01*
G03X-19877Y-999I141J392*
G01*
X-19877Y-999D01*
X-20175Y-999D01*
X-19576Y-400D01*
G75*
D01*
G03X-19860Y-116I116J400*
G01*
X-19860Y-116D01*
X-20517Y-773D01*
X-24534Y-773D01*
X-24534Y-767D01*
G74*
D01*
G03X-24684Y-617I150J0*
G01*
X-24684Y-617D01*
X-25236Y-617D01*
G75*
D01*
G03X-25386Y-767I0J-150*
G01*
X-25386Y-767D01*
X-25386Y-1125D01*
G74*
D01*
G03X-25401Y-1200I186J75*
G01*
X-25401Y-1200D01*
X-25401Y-3917D01*
X-25483Y-3999D01*
X-27200Y-3999D01*
G75*
D01*
G03X-27259Y-4008I0J-201*
G01*
G74*
D01*
G03X-27342Y-4058I59J192*
G01*
X-27342Y-4058D01*
X-27344Y-4060D01*
G75*
D01*
G03X-27044Y-4401I-156J-440*
G01*
X-27044Y-4401D01*
X-25400Y-4401D01*
G74*
D01*
G03X-25371Y-4399I0J201*
G01*
G74*
D01*
G03X-25258Y-4342I29J199*
G01*
X-25258Y-4342D01*
X-25058Y-4142D01*
G75*
D01*
G03X-24999Y-4000I-142J142*
G01*
X-24999Y-4000D01*
X-24999Y-1331D01*
X-24684Y-1331D01*
G75*
D01*
G03X-24534Y-1181I0J150*
G01*
X-24534Y-1181D01*
X-24534Y-1175D01*
X-21659Y-1175D01*
X-21742Y-1258D01*
G74*
D01*
G03X-21801Y-1400I142J142*
G01*
X-21801Y-1400D01*
X-21801Y-4917D01*
X-21883Y-4999D01*
X-27200Y-4999D01*
G75*
D01*
G03X-27259Y-5008I0J-201*
G01*
G74*
D01*
G03X-27342Y-5058I59J192*
G01*
X-27342Y-5058D01*
X-27344Y-5060D01*
G75*
D01*
G03X-27044Y-5401I-156J-440*
G01*
X-27044Y-5401D01*
X-21800Y-5401D01*
G74*
D01*
G03X-21771Y-5399I0J201*
G01*
G74*
D01*
G03X-21734Y-5390I29J199*
G01*
X-21734Y-5390D01*
X-22102Y-5758D01*
G74*
D01*
G03X-22161Y-5900I142J142*
G01*
X-22161Y-5900D01*
X-22161Y-10669D01*
X-22236Y-10669D01*
G75*
D01*
G03X-22386Y-10819I0J-150*
G01*
X-22386Y-10819D01*
X-22386Y-11233D01*
G75*
D01*
G03X-22236Y-11383I150J0*
G01*
X-22236Y-11383D01*
X-21684Y-11383D01*
G74*
D01*
G03X-21560Y-11318I0J150*
G01*
G75*
D01*
G03X-21436Y-11383I124J85*
G01*
X-21436Y-11383D01*
X-20884Y-11383D01*
G75*
D01*
G03X-20734Y-11233I0J150*
G01*
X-20734Y-11233D01*
X-20734Y-11227D01*
X-20717Y-11227D01*
X-20574Y-11370D01*
X-20574Y-11370D01*
X-20461Y-11483D01*
X-20461Y-14100D01*
G75*
D01*
G03X-20402Y-14242I201J0*
G01*
X-20402Y-14242D01*
X-18602Y-16042D01*
G74*
D01*
G03X-18528Y-16089I142J142*
G01*
G75*
D01*
G03X-18460Y-16101I68J189*
G01*
X-18460Y-16101D01*
X-11660Y-16101D01*
G75*
D01*
G03X-11518Y-16042I0J201*
G01*
X-11518Y-16042D01*
X-8318Y-12842D01*
G75*
D01*
G03X-8259Y-12700I-142J142*
G01*
X-8259Y-12700D01*
X-8259Y-3683D01*
X-7877Y-3301D01*
X-5960Y-3301D01*
G75*
D01*
G03X-5818Y-3242I0J201*
G01*
X-5818Y-3242D01*
X-5618Y-3042D01*
G75*
D01*
G03X-5559Y-2900I-142J142*
G01*
X-5559Y-2900D01*
X-5559Y-683D01*
X-5277Y-401D01*
X-4586Y-401D01*
X-4586Y-433D01*
G75*
D01*
G03X-4436Y-583I150J0*
G01*
X-4436Y-583D01*
X-3884Y-583D01*
G75*
D01*
G03X-3734Y-433I0J150*
G01*
X-3734Y-433D01*
X-3734Y-19D01*
G74*
D01*
G03X-3884Y131I150J0*
G01*
X-3884Y131D01*
X-3959Y131D01*
X-3959Y798D01*
G75*
D01*
G03X-3951Y1399I-101J302*
G01*
X-3951Y1399D01*
X-1683Y1399D01*
X-1601Y1317D01*
X-1601Y-600D01*
G75*
D01*
G03X-1542Y-742I201J0*
G01*
X-1542Y-742D01*
X-1342Y-942D01*
G74*
D01*
G03X-1266Y-990I142J142*
G01*
G75*
D01*
G03X-1200Y-1001I66J190*
G01*
X-1200Y-1001D01*
X-1186Y-1001D01*
X-1186Y-1181D01*
G75*
D01*
G03X-1129Y-1299I150J0*
G01*
X-1129Y-1299D01*
X-3791Y-1299D01*
G75*
D01*
G03X-3734Y-1181I-93J118*
G01*
X-3734Y-1181D01*
X-3734Y-767D01*
G74*
D01*
G03X-3884Y-617I150J0*
G01*
X-3884Y-617D01*
X-4436Y-617D01*
G75*
D01*
G03X-4586Y-767I0J-150*
G01*
X-4586Y-767D01*
X-4586Y-1181D01*
G75*
D01*
G03X-4436Y-1331I150J0*
G01*
X-4436Y-1331D01*
X-4361Y-1331D01*
X-4361Y-1669D01*
X-4436Y-1669D01*
G75*
D01*
G03X-4586Y-1819I0J-150*
G01*
X-4586Y-1819D01*
X-4586Y-2233D01*
G75*
D01*
G03X-4436Y-2383I150J0*
G01*
X-4436Y-2383D01*
X-3884Y-2383D01*
G75*
D01*
G03X-3734Y-2233I0J150*
G01*
X-3734Y-2233D01*
X-3734Y-1819D01*
G74*
D01*
G03X-3791Y-1701I150J0*
G01*
X-3791Y-1701D01*
X-1129Y-1701D01*
G74*
D01*
G03X-1186Y-1819I93J118*
G01*
X-1186Y-1819D01*
X-1186Y-2233D01*
G75*
D01*
G03X-1036Y-2383I150J0*
G01*
X-1036Y-2383D01*
X-484Y-2383D01*
G75*
D01*
G03X-334Y-2233I0J150*
G01*
X-334Y-2233D01*
X-334Y-1819D01*
G74*
D01*
G03X-484Y-1669I150J0*
G01*
X-484Y-1669D01*
X-559Y-1669D01*
X-559Y-1331D01*
X-484Y-1331D01*
G75*
D01*
G03X-334Y-1181I0J150*
G01*
X-334Y-1181D01*
X-334Y-767D01*
G74*
D01*
G03X-484Y-617I150J0*
G01*
X-484Y-617D01*
X-852Y-617D01*
G74*
D01*
G03X-910Y-601I82J183*
G01*
G74*
D01*
G03X-934Y-599I24J199*
G01*
X-934Y-599D01*
X-1117Y-599D01*
X-1199Y-517D01*
X-1199Y814D01*
G75*
D01*
G03X-1027Y783I139J286*
G01*
X-1027Y783D01*
X-961Y717D01*
X-961Y131D01*
X-1036Y131D01*
G75*
D01*
G03X-1186Y-19I0J-150*
G01*
X-1186Y-19D01*
X-1186Y-433D01*
G75*
D01*
G03X-1036Y-583I150J0*
G01*
X-1036Y-583D01*
X-484Y-583D01*
G75*
D01*
G03X-334Y-433I0J150*
G01*
X-334Y-433D01*
X-334Y-19D01*
G74*
D01*
G03X-484Y131I150J0*
G01*
X-484Y131D01*
X-559Y131D01*
X-559Y800D01*
G75*
D01*
G03X-618Y942I-201J0*
G01*
X-618Y942D01*
X-743Y1067D01*
G75*
D01*
G03X-1199Y1386I-317J33*
G01*
X-1199Y1386D01*
X-1199Y1400D01*
G75*
D01*
G03X-1258Y1542I-201J0*
G01*
X-1258Y1542D01*
X-1458Y1742D01*
G74*
D01*
G03X-1571Y1799I142J142*
G01*
G74*
D01*
G03X-1600Y1801I29J199*
G01*
X-1600Y1801D01*
X-3951Y1801D01*
G75*
D01*
G03X-4169Y1801I-109J299*
G01*
X-4169Y1801D01*
X-7400Y1801D01*
G75*
D01*
G03X-7466Y1790I0J-201*
G01*
G74*
D01*
G03X-7542Y1742I66J190*
G01*
X-7542Y1742D01*
X-7742Y1542D01*
G74*
D01*
G03X-7801Y1400I142J142*
G01*
X-7801Y1400D01*
X-7801Y-1694D01*
X-7864Y-1757D01*
X-8065Y-1757D01*
G75*
D01*
G03X-8216Y-1908I0J-151*
G01*
X-8216Y-1908D01*
X-8216Y-2144D01*
G75*
D01*
G03X-8205Y-2200I151J0*
G01*
G75*
D01*
G03X-8223Y-2199I-18J-200*
G01*
X-8223Y-2199D01*
X-8597Y-2199D01*
G75*
D01*
G03X-8584Y-2138I-138J61*
G01*
X-8584Y-2138D01*
X-8584Y-1902D01*
G74*
D01*
G03X-8735Y-1751I151J0*
G01*
X-8735Y-1751D01*
X-8761Y-1751D01*
G75*
D01*
G03X-9226Y-1763I-239J251*
G01*
G74*
D01*
G03X-9318Y-1902I58J139*
G01*
X-9318Y-1902D01*
X-9318Y-2138D01*
G75*
D01*
G03X-9306Y-2199I150J0*
G01*
X-9306Y-2199D01*
X-9600Y-2199D01*
G75*
D01*
G03X-9801Y-2400I0J-201*
G01*
X-9801Y-2400D01*
X-9801Y-8057D01*
X-10344Y-8600D01*
G75*
D01*
G03X-10581Y-9399I-116J-400*
G01*
X-10581Y-9399D01*
X-13517Y-9399D01*
X-13599Y-9317D01*
X-13599Y-284D01*
G75*
D01*
G03X-13117Y-201I199J284*
G01*
X-13117Y-201D01*
X-10825Y-201D01*
G75*
D01*
G03X-10825Y201I365J201*
G01*
X-10825Y201D01*
X-13117Y201D01*
G75*
D01*
G03X-13599Y284I-283J-201*
G01*
X-13599Y284D01*
X-13599Y3400D01*
G75*
D01*
G03X-13658Y3542I-201J0*
G01*
X-13658Y3542D01*
X-13858Y3742D01*
G74*
D01*
G03X-13971Y3799I142J142*
G01*
G74*
D01*
G03X-14000Y3801I29J199*
G01*
X-14000Y3801D01*
X-19094Y3801D01*
G75*
D01*
G03X-19659Y3634I-366J199*
G01*
G74*
D01*
G03X-19602Y3518I199J26*
G01*
X-19602Y3518D01*
X-19542Y3458D01*
G74*
D01*
G03X-19481Y3416I142J142*
G01*
G75*
D01*
G03X-19860Y2884I21J-416*
G01*
X-19860Y2884D01*
X-20943Y1801D01*
X-24577Y1801D01*
X-25059Y2283D01*
X-25059Y7424D01*
G75*
D01*
G03X-24625Y7281I299J176*
G01*
X-24625Y7281D01*
X-24544Y7199D01*
G74*
D01*
G03X-24588Y7092I106J107*
G01*
X-24588Y7092D01*
X-24588Y6856D01*
G75*
D01*
G03X-24438Y6705I150J0*
G01*
X-24438Y6705D01*
X-24237Y6705D01*
X-24026Y6495D01*
X-24126Y6495D01*
X-24126Y6321D01*
X-23854Y6321D01*
X-23854Y6344D01*
G74*
D01*
G03X-23865Y6400I151J0*
G01*
G75*
D01*
G03X-23847Y6399I18J200*
G01*
X-23847Y6399D01*
X-23473Y6399D01*
G74*
D01*
G03X-23486Y6338I138J61*
G01*
X-23486Y6338D01*
X-23486Y6102D01*
G75*
D01*
G03X-23335Y5951I151J0*
G01*
X-23335Y5951D01*
X-23301Y5951D01*
X-23301Y5883D01*
G75*
D01*
G03X-22899Y5883I201J-283*
G01*
X-22899Y5883D01*
X-22899Y5951D01*
G75*
D01*
G03X-22752Y6102I-3J151*
G01*
X-22752Y6102D01*
X-22752Y6338D01*
G74*
D01*
G03X-22770Y6410I150J0*
G01*
G75*
D01*
G03X-22752Y6482I-132J72*
G01*
X-22752Y6482D01*
X-22752Y6718D01*
G74*
D01*
G03X-22764Y6779I150J0*
G01*
X-22764Y6779D01*
X-19813Y6779D01*
G75*
D01*
G03X-19836Y7181I353J221*
G01*
X-19836Y7181D01*
X-22776Y7181D01*
G74*
D01*
G03X-22902Y7249I126J83*
G01*
X-22902Y7249D01*
X-23335Y7249D01*
G75*
D01*
G03X-23486Y7098I0J-151*
G01*
X-23486Y7098D01*
X-23486Y6862D01*
G75*
D01*
G03X-23473Y6801I151J0*
G01*
X-23473Y6801D01*
X-23764Y6801D01*
X-23854Y6891D01*
X-23854Y7057D01*
G75*
D01*
G03X-23799Y7196I-146J138*
G01*
X-23799Y7196D01*
X-23799Y10117D01*
X-23717Y10199D01*
X-9200Y10199D01*
G74*
D01*
G03X-9171Y10201I0J201*
G01*
G74*
D01*
G03X-9058Y10258I29J199*
G01*
X-9058Y10258D01*
X-8858Y10458D01*
G75*
D01*
G03X-8799Y10600I-142J142*
G01*
X-8799Y10600D01*
X-8799Y11512D01*
G75*
D01*
G03X-8504Y11348I295J184*
G01*
X-8504Y11348D01*
X-8296Y11348D01*
G75*
D01*
G03X-7948Y11696I0J348*
G01*
X-7948Y11696D01*
X-7948Y11904D01*
G74*
D01*
G03X-8112Y12199I348J0*
G01*
X-8112Y12199D01*
X-7642Y12199D01*
G75*
D01*
G03X-7158Y12199I242J-399*
G01*
X-7158Y12199D01*
X-6642Y12199D01*
G75*
D01*
G03X-6158Y12199I242J-399*
G01*
X-6158Y12199D01*
X-5642Y12199D01*
G75*
D01*
G03X-5158Y12199I242J-399*
G01*
X-5158Y12199D01*
X-4642Y12199D01*
G75*
D01*
G03X-4601Y11379I242J-399*
G01*
X-4601Y11379D01*
X-4601Y10683D01*
X-7383Y7901D01*
X-7876Y7901D01*
X-7876Y8029D01*
G74*
D01*
G03X-8027Y8179I151J0*
G01*
X-8027Y8179D01*
X-8263Y8179D01*
G75*
D01*
G03X-8351Y8151I0J-150*
G01*
X-8351Y8151D01*
X-9349Y8151D01*
X-9349Y9050D01*
G75*
D01*
G03X-9408Y9192I-201J0*
G01*
X-9408Y9192D01*
X-10058Y9842D01*
G74*
D01*
G03X-10166Y9898I142J142*
G01*
G74*
D01*
G03X-10200Y9901I34J198*
G01*
X-10200Y9901D01*
X-11400Y9901D01*
G75*
D01*
G03X-11449Y9895I0J-201*
G01*
G74*
D01*
G03X-11542Y9842I49J195*
G01*
X-11542Y9842D01*
X-13857Y7528D01*
X-13857Y7528D01*
X-15183Y6201D01*
X-19095Y6201D01*
G75*
D01*
G03X-19095Y5799I-365J-201*
G01*
X-19095Y5799D01*
X-15100Y5799D01*
G74*
D01*
G03X-15047Y5806I0J201*
G01*
G74*
D01*
G03X-14958Y5858I53J194*
G01*
X-14958Y5858D01*
X-13288Y7528D01*
X-11317Y9499D01*
X-10985Y9499D01*
X-15283Y5201D01*
X-19095Y5201D01*
G75*
D01*
G03X-19095Y4799I-365J-201*
G01*
X-19095Y4799D01*
X-15200Y4799D01*
G74*
D01*
G03X-15149Y4806I0J201*
G01*
G74*
D01*
G03X-15058Y4858I51J194*
G01*
X-15058Y4858D01*
X-11884Y8032D01*
X-10875Y9041D01*
G75*
D01*
G03X-10045Y8961I415J-41*
G01*
X-10045Y8961D01*
X-10001Y8917D01*
X-10001Y6200D01*
G75*
D01*
G03X-9942Y6058I201J0*
G01*
X-9942Y6058D01*
X-9492Y5608D01*
G74*
D01*
G03X-9425Y5564I142J142*
G01*
G75*
D01*
G03X-9350Y5549I75J186*
G01*
X-9350Y5549D01*
X-8351Y5549D01*
G75*
D01*
G03X-8263Y5521I88J122*
G01*
X-8263Y5521D01*
X-8027Y5521D01*
G75*
D01*
G03X-7876Y5671I0J150*
G01*
X-7876Y5671D01*
X-7876Y5829D01*
G74*
D01*
G03X-8027Y5979I151J0*
G01*
X-8027Y5979D01*
X-8263Y5979D01*
G75*
D01*
G03X-8351Y5951I0J-150*
G01*
X-8351Y5951D01*
X-9267Y5951D01*
X-9599Y6283D01*
X-9599Y7755D01*
G75*
D01*
G03X-9550Y7749I49J195*
G01*
X-9550Y7749D01*
X-8635Y7749D01*
X-8742Y7642D01*
G74*
D01*
G03X-8801Y7500I142J142*
G01*
X-8801Y7500D01*
X-8801Y6479D01*
G75*
D01*
G03X-8742Y6337I201J0*
G01*
X-8742Y6337D01*
X-8713Y6308D01*
G74*
D01*
G03X-8621Y6256I142J142*
G01*
G75*
D01*
G03X-8570Y6249I50J194*
G01*
X-8570Y6249D01*
X-8351Y6249D01*
G75*
D01*
G03X-8263Y6221I88J122*
G01*
X-8263Y6221D01*
X-8027Y6221D01*
G75*
D01*
G03X-7876Y6371I0J150*
G01*
X-7876Y6371D01*
X-7876Y6529D01*
G74*
D01*
G03X-8027Y6679I151J0*
G01*
X-8027Y6679D01*
X-8263Y6679D01*
G75*
D01*
G03X-8351Y6651I0J-150*
G01*
X-8351Y6651D01*
X-8399Y6651D01*
X-8399Y6806D01*
G75*
D01*
G03X-8263Y6721I136J65*
G01*
X-8263Y6721D01*
X-8027Y6721D01*
G75*
D01*
G03X-7876Y6871I0J150*
G01*
X-7876Y6871D01*
X-7876Y6999D01*
X-7401Y6999D01*
X-7401Y6383D01*
G75*
D01*
G03X-7401Y5817I201J-283*
G01*
X-7401Y5817D01*
X-7401Y5201D01*
X-7876Y5201D01*
X-7876Y5329D01*
G74*
D01*
G03X-8027Y5479I151J0*
G01*
X-8027Y5479D01*
X-8263Y5479D01*
G75*
D01*
G03X-8414Y5329I0J-150*
G01*
X-8414Y5329D01*
X-8414Y4671D01*
G75*
D01*
G03X-8263Y4521I151J0*
G01*
X-8263Y4521D01*
X-8027Y4521D01*
G75*
D01*
G03X-7876Y4671I0J150*
G01*
X-7876Y4671D01*
X-7876Y4799D01*
X-6524Y4799D01*
X-6524Y4671D01*
G75*
D01*
G03X-6373Y4521I151J0*
G01*
X-6373Y4521D01*
X-6137Y4521D01*
G74*
D01*
G03X-6001Y4606I0J150*
G01*
X-6001Y4606D01*
X-6001Y4583D01*
G74*
D01*
G03X-6100Y4475I201J283*
G01*
G74*
D01*
G03X-6137Y4479I37J146*
G01*
X-6137Y4479D01*
X-6373Y4479D01*
G75*
D01*
G03X-6524Y4329I0J-150*
G01*
X-6524Y4329D01*
X-6524Y4171D01*
G75*
D01*
G03X-6373Y4021I151J0*
G01*
X-6373Y4021D01*
X-6137Y4021D01*
G74*
D01*
G03X-6049Y4049I0J150*
G01*
X-6049Y4049D01*
X-6039Y4049D01*
G75*
D01*
G03X-5599Y4583I239J251*
G01*
X-5599Y4583D01*
X-5599Y5900D01*
G75*
D01*
G03X-5658Y6042I-201J0*
G01*
X-5658Y6042D01*
X-5986Y6370D01*
X-5986Y6371D01*
X-5986Y6371D01*
X-5986Y6529D01*
G74*
D01*
G03X-6137Y6679I151J0*
G01*
X-6137Y6679D01*
X-6373Y6679D01*
G75*
D01*
G03X-6524Y6529I0J-150*
G01*
X-6524Y6529D01*
X-6524Y6371D01*
G75*
D01*
G03X-6408Y6225I151J0*
G01*
G74*
D01*
G03X-6397Y6213I153J130*
G01*
X-6397Y6213D01*
X-6164Y5979D01*
X-6373Y5979D01*
G75*
D01*
G03X-6524Y5829I0J-150*
G01*
X-6524Y5829D01*
X-6524Y5671D01*
G75*
D01*
G03X-6456Y5545I151J0*
G01*
X-6456Y5545D01*
X-6456Y5455D01*
G74*
D01*
G03X-6524Y5329I83J126*
G01*
X-6524Y5329D01*
X-6524Y5201D01*
X-6999Y5201D01*
X-6999Y5817D01*
G75*
D01*
G03X-6999Y6383I-201J283*
G01*
X-6999Y6383D01*
X-6999Y6999D01*
X-6524Y6999D01*
X-6524Y6871D01*
G75*
D01*
G03X-6373Y6721I151J0*
G01*
X-6373Y6721D01*
X-6137Y6721D01*
G75*
D01*
G03X-5986Y6871I0J150*
G01*
X-5986Y6871D01*
X-5986Y7529D01*
G74*
D01*
G03X-6054Y7655I151J0*
G01*
X-6054Y7655D01*
X-6054Y7745D01*
G75*
D01*
G03X-5986Y7871I-83J126*
G01*
X-5986Y7871D01*
X-5986Y8029D01*
G74*
D01*
G03X-6137Y8179I151J0*
G01*
X-6137Y8179D01*
X-6373Y8179D01*
G75*
D01*
G03X-6524Y8029I0J-150*
G01*
X-6524Y8029D01*
X-6524Y7871D01*
G75*
D01*
G03X-6456Y7745I151J0*
G01*
X-6456Y7745D01*
X-6456Y7655D01*
G74*
D01*
G03X-6524Y7529I83J126*
G01*
X-6524Y7529D01*
X-6524Y7401D01*
X-7876Y7401D01*
X-7876Y7499D01*
X-7300Y7499D01*
G75*
D01*
G03X-7158Y7558I0J201*
G01*
X-7158Y7558D01*
X-4258Y10458D01*
G75*
D01*
G03X-4199Y10600I-142J142*
G01*
X-4199Y10600D01*
X-4199Y11379D01*
G75*
D01*
G03X-4158Y12199I-201J421*
G01*
X-4158Y12199D01*
X-3883Y12199D01*
X-3769Y12085D01*
G75*
D01*
G03X-3382Y12266I369J-285*
G01*
X-3382Y12266D01*
X-3658Y12542D01*
G74*
D01*
G03X-3750Y12595I142J142*
G01*
G74*
D01*
G03X-3800Y12601I50J195*
G01*
X-3800Y12601D01*
X-8800Y12601D01*
G75*
D01*
G03X-8866Y12590I0J-201*
G01*
G74*
D01*
G03X-8942Y12542I66J190*
G01*
X-8942Y12542D01*
X-9142Y12342D01*
G74*
D01*
G03X-9201Y12200I142J142*
G01*
X-9201Y12200D01*
X-9201Y10683D01*
X-9283Y10601D01*
X-23800Y10601D01*
G75*
D01*
G03X-23866Y10590I0J-201*
G01*
G74*
D01*
G03X-23942Y10542I66J190*
G01*
X-23942Y10542D01*
X-24142Y10342D01*
G74*
D01*
G03X-24201Y10200I142J142*
G01*
X-24201Y10200D01*
X-24201Y7425D01*
X-24303Y7528D01*
X-24415Y7640D01*
G75*
D01*
G03X-25059Y7776I-345J-40*
G01*
X-25059Y7776D01*
X-25059Y9487D01*
X-23347Y11199D01*
X-13483Y11199D01*
G75*
D01*
G03X-13341Y11258I0J201*
G01*
X-13341Y11258D01*
X-11800Y12799D01*
X-11100Y12799D01*
G75*
D01*
G03X-10958Y12858I0J201*
G01*
X-10958Y12858D01*
X-5317Y18499D01*
X3503Y18499D01*
G75*
D01*
G03X3689Y18499I93J-834*
G01*
X3689Y18499D01*
X16717Y18499D01*
X24899Y10317D01*
X24899Y-10117D01*
X24217Y-10799D01*
X20000Y-10799D01*
X20000Y-10799D01*
X20000Y-10799D01*
X17000Y-10799D01*
G75*
D01*
G03X16951Y-10805I0J-201*
G01*
G74*
D01*
G03X16858Y-10858I49J195*
G01*
X16858Y-10858D01*
X16346Y-11370D01*
X15956Y-11760D01*
G75*
D01*
G03X16240Y-12044I-156J-440*
G01*
X16240Y-12044D01*
X16914Y-11370D01*
X16914Y-11370D01*
X17083Y-11201D01*
X19733Y-11201D01*
G74*
D01*
G03X19669Y-11324I86J123*
G01*
X19669Y-11324D01*
X19669Y-11876D01*
G75*
D01*
G03X19819Y-12026I150J0*
G01*
X19819Y-12026D01*
X20233Y-12026D01*
G75*
D01*
G03X20383Y-11876I0J150*
G01*
X20383Y-11876D01*
X20383Y-11324D01*
G74*
D01*
G03X20319Y-11201I150J0*
G01*
X20319Y-11201D01*
X20481Y-11201D01*
G74*
D01*
G03X20417Y-11324I86J123*
G01*
X20417Y-11324D01*
X20417Y-11473D01*
X20647Y-11473D01*
X20647Y-11201D01*
X20901Y-11201D01*
X20901Y-11473D01*
X21131Y-11473D01*
X21131Y-11324D01*
G74*
D01*
G03X21067Y-11201I150J0*
G01*
X21067Y-11201D01*
X24300Y-11201D01*
X24303Y-11201D01*
G74*
D01*
G03X24442Y-11142I3J201*
G01*
X24442Y-11142D01*
X25242Y-10342D01*
G75*
D01*
G03X25301Y-10200I-142J142*
G01*
X25301Y-10200D01*
X25301Y10400D01*
G74*
D01*
G03X25242Y10542I201J0*
G01*
X25242Y10542D01*
X18808Y16976D01*
X16942Y18842D01*
G74*
D01*
G03X16800Y18901I142J142*
G01*
D02*
G37*
G36*
X-16896Y12941D02*
G75*
D01*
G03X-16896Y12941I-104J-141*
G01*
D02*
G37*
G36*
X-24551Y16776D02*
G75*
D01*
G03X-25880Y17573I-649J424*
G01*
G75*
D01*
G03X-24551Y16776I643J-435*
G01*
D02*
G37*
G36*
X-19869Y-1921D02*
G75*
D01*
G03X-19869Y-1921I409J-79*
G01*
D02*
G37*
G36*
X24551Y16776D02*
G75*
D01*
G03X25880Y17573I687J362*
G01*
G75*
D01*
G03X24551Y16776I-680J-373*
G01*
D02*
G37*
G36*
X-32636Y-11460D02*
G75*
D01*
G03X-31540Y-10364I536J560*
G01*
G75*
D01*
G03X-32636Y-11460I-572J-523*
G01*
D02*
G37*
G36*
X-4261Y-5347D02*
X-4261Y-5347D01*
X-4261Y-9017D01*
X-6614Y-11370D01*
X-7447Y-12203D01*
X-7447Y-12203D01*
X-11743Y-16499D01*
X-18747Y-16499D01*
X-21303Y-13943D01*
X-21303Y-13943D01*
X-21303Y-13943D01*
X-21303Y-13943D01*
X-21759Y-13487D01*
X-21759Y-12131D01*
X-21684Y-12131D01*
G74*
D01*
G03X-21560Y-12066I0J150*
G01*
G75*
D01*
G03X-21436Y-12131I124J85*
G01*
X-21436Y-12131D01*
X-21379Y-12131D01*
G75*
D01*
G03X-20941Y-12131I219J-269*
G01*
X-20941Y-12131D01*
X-20884Y-12131D01*
G75*
D01*
G03X-20734Y-11981I0J150*
G01*
X-20734Y-11981D01*
X-20734Y-11567D01*
G74*
D01*
G03X-20884Y-11417I150J0*
G01*
X-20884Y-11417D01*
X-21436Y-11417D01*
G75*
D01*
G03X-21560Y-11482I0J-150*
G01*
G74*
D01*
G03X-21684Y-11417I124J85*
G01*
X-21684Y-11417D01*
X-22236Y-11417D01*
G75*
D01*
G03X-22386Y-11567I0J-150*
G01*
X-22386Y-11567D01*
X-22386Y-11981D01*
G75*
D01*
G03X-22236Y-12131I150J0*
G01*
X-22236Y-12131D01*
X-22161Y-12131D01*
X-22161Y-13571D01*
G75*
D01*
G03X-22102Y-13713I201J0*
G01*
X-22102Y-13713D01*
X-21587Y-14227D01*
X-21587Y-14227D01*
X-21587Y-14227D01*
X-21587Y-14227D01*
X-18973Y-16842D01*
G74*
D01*
G03X-18848Y-16900I142J142*
G01*
G75*
D01*
G03X-18831Y-16901I17J200*
G01*
X-18831Y-16901D01*
X-11660Y-16901D01*
G74*
D01*
G03X-11625Y-16898I0J201*
G01*
G74*
D01*
G03X-11518Y-16842I35J198*
G01*
X-11518Y-16842D01*
X-7447Y-12772D01*
X-3918Y-9242D01*
G75*
D01*
G03X-3859Y-9100I-142J142*
G01*
X-3859Y-9100D01*
X-3859Y-5347D01*
G75*
D01*
G03X-4261Y-5347I-201J247*
G01*
D02*
G37*
G36*
X32636Y-11460D02*
G75*
D01*
G03X31540Y-10364I-523J573*
G01*
G75*
D01*
G03X32636Y-11460I560J-536*
G01*
D02*
G37*
G36*
X-813Y-4899D02*
G75*
D01*
G03X-813Y-5301I-247J-201*
G01*
X-813Y-5301D01*
X13200Y-5301D01*
G74*
D01*
G03X13342Y-5242I0J201*
G01*
X13342Y-5242D01*
X16663Y-1921D01*
X16663Y-1921D01*
X18470Y-115D01*
X19727Y-115D01*
G75*
D01*
G03X20499Y-3I365J201*
G01*
X20499Y-3D01*
X20499Y-1435D01*
G75*
D01*
G03X20499Y-1676I-399J-120*
G01*
X20499Y-1676D01*
X20499Y-1872D01*
X20450Y-1921D01*
X20450Y-1921D01*
X20216Y-2155D01*
G75*
D01*
G03X20500Y-2439I-116J-400*
G01*
X20500Y-2439D01*
X20842Y-2098D01*
G75*
D01*
G03X20901Y-1955I-142J143*
G01*
X20901Y-1955D01*
X20901Y1478D01*
G74*
D01*
G03X20842Y1621I201J0*
G01*
X20842Y1621D01*
X20492Y1970D01*
G75*
D01*
G03X19976Y2487I-400J116*
G01*
X19976Y2487D01*
X18921Y3542D01*
G74*
D01*
G03X18778Y3601I143J142*
G01*
X18778Y3601D01*
X584Y3601D01*
G75*
D01*
G03X501Y4083I-284J199*
G01*
X501Y4083D01*
X501Y8526D01*
G74*
D01*
G03X442Y8668I201J0*
G01*
X442Y8668D01*
X442Y8668D01*
X-263Y9374D01*
X-84Y9374D01*
X2001Y7288D01*
X2001Y7288D01*
X2899Y6391D01*
X2899Y4230D01*
G75*
D01*
G03X2958Y4087I201J-1*
G01*
X2958Y4087D01*
X2987Y4058D01*
G75*
D01*
G03X3130Y3999I142J142*
G01*
X3130Y3999D01*
X19684Y3999D01*
G75*
D01*
G03X19818Y4400I408J87*
G01*
G75*
D01*
G03X19800Y4401I-18J-200*
G01*
X19800Y4401D01*
X3301Y4401D01*
X3301Y6474D01*
G74*
D01*
G03X3242Y6616I201J0*
G01*
X3242Y6616D01*
X3242Y6616D01*
X2001Y7857D01*
X2001Y7857D01*
X131Y9727D01*
X131Y10076D01*
G74*
D01*
G03X66Y10200I150J0*
G01*
G75*
D01*
G03X131Y10324I-85J124*
G01*
X131Y10324D01*
X131Y10399D01*
X217Y10399D01*
G75*
D01*
G03X217Y10801I283J201*
G01*
X217Y10801D01*
X131Y10801D01*
X131Y10876D01*
G74*
D01*
G03X67Y10999I150J0*
G01*
X67Y10999D01*
X16117Y10999D01*
X18894Y8222D01*
X19588Y7528D01*
X19588Y7528D01*
X20899Y6217D01*
X20899Y4178D01*
X20208Y3487D01*
G75*
D01*
G03X20492Y3203I-116J-401*
G01*
X20492Y3203D01*
X20899Y3609D01*
X21242Y3952D01*
G75*
D01*
G03X21301Y4094I-142J142*
G01*
X21301Y4094D01*
X21301Y6300D01*
G74*
D01*
G03X21242Y6442I201J0*
G01*
X21242Y6442D01*
X20528Y7156D01*
X20157Y7528D01*
X16342Y11342D01*
G74*
D01*
G03X16200Y11401I142J142*
G01*
X16200Y11401D01*
X-1400Y11401D01*
G75*
D01*
G03X-1542Y11342I0J-201*
G01*
X-1542Y11342D01*
X-1642Y11242D01*
G74*
D01*
G03X-1701Y11100I142J142*
G01*
X-1701Y11100D01*
X-1701Y10600D01*
G75*
D01*
G03X-1500Y10399I201J0*
G01*
X-1500Y10399D01*
X-1331Y10399D01*
X-1331Y10324D01*
G75*
D01*
G03X-1266Y10200I150J0*
G01*
G74*
D01*
G03X-1331Y10076I85J124*
G01*
X-1331Y10076D01*
X-1331Y9524D01*
G75*
D01*
G03X-1181Y9374I150J0*
G01*
X-1181Y9374D01*
X-832Y9374D01*
X99Y8443D01*
X99Y4083D01*
G75*
D01*
G03X16Y3601I201J-283*
G01*
X16Y3601D01*
X-7717Y3601D01*
X-7944Y3828D01*
X-7944Y4045D01*
G75*
D01*
G03X-7876Y4171I-83J126*
G01*
X-7876Y4171D01*
X-7876Y4329D01*
G74*
D01*
G03X-8027Y4479I151J0*
G01*
X-8027Y4479D01*
X-8263Y4479D01*
G75*
D01*
G03X-8414Y4329I0J-150*
G01*
X-8414Y4329D01*
X-8414Y4171D01*
G75*
D01*
G03X-8346Y4045I151J0*
G01*
X-8346Y4045D01*
X-8346Y3745D01*
G75*
D01*
G03X-8287Y3603I201J0*
G01*
X-8287Y3603D01*
X-7942Y3258D01*
G75*
D01*
G03X-7800Y3199I142J142*
G01*
X-7800Y3199D01*
X124Y3199D01*
G75*
D01*
G03X99Y2617I176J-299*
G01*
X99Y2617D01*
X99Y-2017D01*
X-363Y-2478D01*
G74*
D01*
G03X-484Y-2417I121J89*
G01*
X-484Y-2417D01*
X-1036Y-2417D01*
G75*
D01*
G03X-1186Y-2567I0J-150*
G01*
X-1186Y-2567D01*
X-1186Y-2981D01*
G75*
D01*
G03X-1036Y-3131I150J0*
G01*
X-1036Y-3131D01*
X-961Y-3131D01*
X-961Y-3717D01*
X-1027Y-3783D01*
G75*
D01*
G03X-743Y-4067I-33J-317*
G01*
X-743Y-4067D01*
X-618Y-3942D01*
G75*
D01*
G03X-559Y-3800I-142J142*
G01*
X-559Y-3800D01*
X-559Y-3131D01*
X-484Y-3131D01*
G75*
D01*
G03X-334Y-2981I0J150*
G01*
X-334Y-2981D01*
X-334Y-2971D01*
G74*
D01*
G03X-232Y-2916I40J197*
G01*
X-232Y-2916D01*
X-232Y-2916D01*
X442Y-2242D01*
X442Y-2242D01*
G75*
D01*
G03X501Y-2100I-142J142*
G01*
X501Y-2100D01*
X501Y2617D01*
G75*
D01*
G03X476Y3199I-201J283*
G01*
X476Y3199D01*
X18695Y3199D01*
X19692Y2203D01*
G75*
D01*
G03X20208Y1686I400J-117*
G01*
X20208Y1686D01*
X20499Y1395D01*
X20499Y1176D01*
G75*
D01*
G03X20499Y997I-407J-90*
G01*
X20499Y997D01*
X20499Y176D01*
G75*
D01*
G03X19727Y287I-407J-90*
G01*
X19727Y287D01*
X18387Y287D01*
G75*
D01*
G03X18244Y229I-1J-201*
G01*
X18244Y229D01*
X13117Y-4899D01*
X-813Y-4899D01*
D02*
G37*
G36*
X-10869Y-1921D02*
G75*
D01*
G03X-10869Y-1921I409J-79*
G01*
D02*
G37*
G36*
X20004Y-8961D02*
G75*
D01*
G03X20190Y-8962I88J-834*
G01*
G75*
D01*
G03X20004Y-8961I-90J407*
G01*
D02*
G37*
G36*
X-10877Y8000D02*
G75*
D01*
G03X-10877Y8000I417J0*
G01*
D02*
G37*
G36*
X-19877Y8000D02*
G75*
D01*
G03X-19877Y8000I417J0*
G01*
D02*
G37*
G36*
X-19877Y9000D02*
G75*
D01*
G03X-19877Y9000I417J0*
G01*
D02*
G37*
G36*
X32636Y11460D02*
G75*
D01*
G03X31540Y10364I-536J-560*
G01*
G75*
D01*
G03X32636Y11460I573J524*
G01*
D02*
G37*
G36*
X-10877Y-8000D02*
G75*
D01*
G03X-10877Y-8000I417J0*
G01*
D02*
G37*
G36*
X-10877Y-7000D02*
G75*
D01*
G03X-10877Y-7000I417J0*
G01*
D02*
G37*
G36*
X-10877Y-6000D02*
G75*
D01*
G03X-10877Y-6000I417J0*
G01*
D02*
G37*
G36*
X-10877Y-5000D02*
G75*
D01*
G03X-10877Y-5000I417J0*
G01*
D02*
G37*
G36*
X-10877Y-4000D02*
G75*
D01*
G03X-10877Y-4000I417J0*
G01*
D02*
G37*
G36*
X-10877Y-3000D02*
G75*
D01*
G03X-10877Y-3000I417J0*
G01*
D02*
G37*
G36*
X-1378Y2100D02*
G75*
D01*
G03X-1378Y2100I318J0*
G01*
D02*
G37*
G36*
X-17436Y12965D02*
X-17436Y12965D01*
X-17165Y12965D01*
X-17165Y13236D01*
G74*
D01*
G03X-17436Y12965I165J436*
G01*
D02*
G37*
G36*
X-24181Y15026D02*
G75*
D01*
G03X-24331Y14876I0J-150*
G01*
X-24331Y14876D01*
X-24331Y14727D01*
X-24101Y14727D01*
X-24101Y15026D01*
X-24181Y15026D01*
D02*
G37*
G36*
X-23767Y15026D02*
X-23767Y15026D01*
X-23847Y15026D01*
X-23847Y14727D01*
X-23617Y14727D01*
X-23617Y14876D01*
G74*
D01*
G03X-23767Y15026I150J0*
G01*
D02*
G37*
G36*
X-24331Y14324D02*
G75*
D01*
G03X-24181Y14174I150J0*
G01*
X-24181Y14174D01*
X-24101Y14174D01*
X-24101Y14473D01*
X-24331Y14473D01*
X-24331Y14324D01*
D02*
G37*
G36*
X-15467Y12800D02*
G75*
D01*
G03X-15467Y12800I467J0*
G01*
D02*
G37*
G36*
X-16835Y13236D02*
X-16835Y13236D01*
X-16835Y12965D01*
X-16564Y12965D01*
G74*
D01*
G03X-16835Y13236I436J165*
G01*
D02*
G37*
G36*
X-19877Y-9000D02*
G75*
D01*
G03X-19877Y-9000I417J0*
G01*
D02*
G37*
G36*
X-19877Y-8000D02*
G75*
D01*
G03X-19877Y-8000I417J0*
G01*
D02*
G37*
G36*
X-19877Y-7000D02*
G75*
D01*
G03X-19877Y-7000I417J0*
G01*
D02*
G37*
G36*
X-19877Y-6000D02*
G75*
D01*
G03X-19877Y-6000I417J0*
G01*
D02*
G37*
G36*
X-19877Y-4000D02*
G75*
D01*
G03X-19877Y-4000I417J0*
G01*
D02*
G37*
G36*
X-19877Y-3000D02*
G75*
D01*
G03X-19877Y-3000I417J0*
G01*
D02*
G37*
G36*
X-24588Y6344D02*
X-24588Y6344D01*
X-24588Y6321D01*
X-24317Y6321D01*
X-24317Y6495D01*
X-24438Y6495D01*
G75*
D01*
G03X-24588Y6344I0J-151*
G01*
D02*
G37*
G36*
X-24005Y5957D02*
G75*
D01*
G03X-23854Y6108I0J151*
G01*
X-23854Y6108D01*
X-23854Y6131D01*
X-24126Y6131D01*
X-24126Y5957D01*
X-24005Y5957D01*
D02*
G37*
G36*
X-24077Y5924D02*
X-24077Y5924D01*
X-24077Y5723D01*
X-23876Y5723D01*
G74*
D01*
G03X-24077Y5924I324J123*
G01*
D02*
G37*
G36*
X-24588Y6108D02*
G75*
D01*
G03X-24438Y5957I150J0*
G01*
X-24438Y5957D01*
X-24317Y5957D01*
X-24317Y6131D01*
X-24588Y6131D01*
X-24588Y6108D01*
D02*
G37*
G36*
X-24524Y5723D02*
X-24524Y5723D01*
X-24323Y5723D01*
X-24323Y5924D01*
G74*
D01*
G03X-24524Y5723I123J324*
G01*
D02*
G37*
G36*
X-23876Y5477D02*
X-23876Y5477D01*
X-24077Y5477D01*
X-24077Y5276D01*
G74*
D01*
G03X-23876Y5477I123J324*
G01*
D02*
G37*
G36*
X-24318Y5600D02*
G75*
D01*
G03X-24318Y5600I118J0*
G01*
D02*
G37*
G36*
X-24323Y5276D02*
X-24323Y5276D01*
X-24323Y5477D01*
X-24524Y5477D01*
G74*
D01*
G03X-24323Y5276I324J123*
G01*
D02*
G37*
G36*
X26496Y2148D02*
X26496Y2148D01*
X26704Y2148D01*
G75*
D01*
G03X27052Y2496I0J348*
G01*
X27052Y2496D01*
X27052Y2704D01*
G74*
D01*
G03X26704Y3052I348J0*
G01*
X26704Y3052D01*
X26496Y3052D01*
G75*
D01*
G03X26148Y2704I0J-348*
G01*
X26148Y2704D01*
X26148Y2496D01*
G75*
D01*
G03X26496Y2148I348J0*
G01*
D02*
G37*
G36*
X26164Y3765D02*
X26164Y3765D01*
X26435Y3765D01*
X26435Y4036D01*
G74*
D01*
G03X26164Y3765I165J436*
G01*
D02*
G37*
G36*
X26765Y4036D02*
X26765Y4036D01*
X26765Y3765D01*
X27036Y3765D01*
G74*
D01*
G03X26765Y4036I436J165*
G01*
D02*
G37*
G36*
X27036Y3435D02*
X27036Y3435D01*
X26765Y3435D01*
X26765Y3164D01*
G74*
D01*
G03X27036Y3435I165J436*
G01*
D02*
G37*
G36*
X26425Y3600D02*
G75*
D01*
G03X26425Y3600I175J0*
G01*
D02*
G37*
G36*
X26435Y3164D02*
X26435Y3164D01*
X26435Y3435D01*
X26164Y3435D01*
G74*
D01*
G03X26435Y3164I436J165*
G01*
D02*
G37*
G36*
X-25236Y131D02*
G75*
D01*
G03X-25386Y-19I0J-150*
G01*
X-25386Y-19D01*
X-25386Y-99D01*
X-25087Y-99D01*
X-25087Y131D01*
X-25236Y131D01*
D02*
G37*
G36*
X-24524Y-277D02*
X-24524Y-277D01*
X-24323Y-277D01*
X-24323Y-76D01*
G74*
D01*
G03X-24524Y-277I123J324*
G01*
D02*
G37*
G36*
X-24534Y-19D02*
G74*
D01*
G03X-24684Y131I150J0*
G01*
X-24684Y131D01*
X-24833Y131D01*
X-24833Y-99D01*
X-24534Y-99D01*
X-24534Y-19D01*
D02*
G37*
G36*
X-24318Y-400D02*
G75*
D01*
G03X-24318Y-400I118J0*
G01*
D02*
G37*
G36*
X-23876Y-523D02*
X-23876Y-523D01*
X-24077Y-523D01*
X-24077Y-724D01*
G74*
D01*
G03X-23876Y-523I123J324*
G01*
D02*
G37*
G36*
X-24534Y-433D02*
X-24534Y-433D01*
X-24534Y-353D01*
X-24833Y-353D01*
X-24833Y-583D01*
X-24684Y-583D01*
G75*
D01*
G03X-24534Y-433I0J150*
G01*
D02*
G37*
G36*
X-24323Y-724D02*
X-24323Y-724D01*
X-24323Y-523D01*
X-24524Y-523D01*
G74*
D01*
G03X-24323Y-724I324J123*
G01*
D02*
G37*
G36*
X-25386Y-433D02*
G75*
D01*
G03X-25236Y-583I150J0*
G01*
X-25236Y-583D01*
X-25087Y-583D01*
X-25087Y-353D01*
X-25386Y-353D01*
X-25386Y-433D01*
D02*
G37*
G36*
X19675Y5086D02*
G75*
D01*
G03X19675Y5086I417J0*
G01*
D02*
G37*
G36*
X-27396Y-2048D02*
X-27396Y-2048D01*
X-27604Y-2048D01*
G75*
D01*
G03X-27952Y-2396I0J-348*
G01*
X-27952Y-2396D01*
X-27952Y-2604D01*
G75*
D01*
G03X-27604Y-2952I348J0*
G01*
X-27604Y-2952D01*
X-27396Y-2952D01*
G75*
D01*
G03X-27048Y-2604I0J348*
G01*
X-27048Y-2604D01*
X-27048Y-2396D01*
G74*
D01*
G03X-27396Y-2048I348J0*
G01*
D02*
G37*
G36*
X-27936Y-3335D02*
X-27936Y-3335D01*
X-27665Y-3335D01*
X-27665Y-3064D01*
G74*
D01*
G03X-27936Y-3335I165J436*
G01*
D02*
G37*
G36*
X-27675Y-3500D02*
G75*
D01*
G03X-27675Y-3500I175J0*
G01*
D02*
G37*
G36*
X-27665Y-3936D02*
X-27665Y-3936D01*
X-27665Y-3665D01*
X-27936Y-3665D01*
G74*
D01*
G03X-27665Y-3936I436J165*
G01*
D02*
G37*
G36*
X-27335Y-3064D02*
X-27335Y-3064D01*
X-27335Y-3335D01*
X-27064Y-3335D01*
G74*
D01*
G03X-27335Y-3064I436J165*
G01*
D02*
G37*
G36*
X-27064Y-3665D02*
X-27064Y-3665D01*
X-27335Y-3665D01*
X-27335Y-3936D01*
G74*
D01*
G03X-27064Y-3665I165J436*
G01*
D02*
G37*
G36*
X-5218Y-15329D02*
G75*
D01*
G03X-5502Y-15329I-142J-142*
G01*
X-5502Y-15329D01*
X-5531Y-15358D01*
G75*
D01*
G03X-5531Y-15642I142J-142*
G01*
G75*
D01*
G03X-5247Y-15642I142J142*
G01*
X-5247Y-15642D01*
X-5218Y-15613D01*
G75*
D01*
G03X-5218Y-15329I-142J142*
G01*
D02*
G37*
G36*
X-24665Y-17660D02*
G75*
D01*
G03X-25760Y-16565I-535J560*
G01*
G75*
D01*
G03X-24665Y-17660I523J-572*
G01*
D02*
G37*
G36*
X-32636Y11460D02*
G75*
D01*
G03X-31540Y10364I524J-572*
G01*
G75*
D01*
G03X-32636Y11460I-560J536*
G01*
D02*
G37*
G36*
X25760Y-16565D02*
G75*
D01*
G03X24665Y-17660I-560J-535*
G01*
G75*
D01*
G03X25760Y-16565I573J523*
G01*
D02*
G37*
G36*
X20981Y-12026D02*
G75*
D01*
G03X21131Y-11876I0J150*
G01*
X21131Y-11876D01*
X21131Y-11727D01*
X20901Y-11727D01*
X20901Y-12026D01*
X20981Y-12026D01*
D02*
G37*
G36*
X14333Y-12200D02*
G75*
D01*
G03X14333Y-12200I467J0*
G01*
D02*
G37*
G36*
X16635Y-12636D02*
X16635Y-12636D01*
X16635Y-12365D01*
X16364Y-12365D01*
G74*
D01*
G03X16635Y-12636I436J165*
G01*
D02*
G37*
G36*
X17236Y-12365D02*
X17236Y-12365D01*
X16965Y-12365D01*
X16965Y-12636D01*
G74*
D01*
G03X17236Y-12365I165J436*
G01*
D02*
G37*
G36*
X18252Y-12304D02*
X18252Y-12304D01*
X18252Y-12096D01*
G74*
D01*
G03X17904Y-11748I348J0*
G01*
X17904Y-11748D01*
X17696Y-11748D01*
G75*
D01*
G03X17348Y-12096I0J-348*
G01*
X17348Y-12096D01*
X17348Y-12304D01*
G75*
D01*
G03X17696Y-12652I348J0*
G01*
X17696Y-12652D01*
X17904Y-12652D01*
G75*
D01*
G03X18252Y-12304I0J348*
G01*
D02*
G37*
G36*
X16364Y-12035D02*
X16364Y-12035D01*
X16635Y-12035D01*
X16635Y-11764D01*
G74*
D01*
G03X16364Y-12035I165J436*
G01*
D02*
G37*
G36*
X16965Y-11764D02*
X16965Y-11764D01*
X16965Y-12035D01*
X17236Y-12035D01*
G74*
D01*
G03X16965Y-11764I436J165*
G01*
D02*
G37*
G36*
X16625Y-12200D02*
G75*
D01*
G03X16625Y-12200I175J0*
G01*
D02*
G37*
G36*
X20567Y-12026D02*
X20567Y-12026D01*
X20647Y-12026D01*
X20647Y-11727D01*
X20417Y-11727D01*
X20417Y-11876D01*
G75*
D01*
G03X20567Y-12026I150J0*
G01*
D02*
G37*
G36*
X-4361Y-3996D02*
G75*
D01*
G03X-3959Y-3798I301J-104*
G01*
X-3959Y-3798D01*
X-3959Y-3131D01*
X-3884Y-3131D01*
G75*
D01*
G03X-3734Y-2981I0J150*
G01*
X-3734Y-2981D01*
X-3734Y-2567D01*
G74*
D01*
G03X-3884Y-2417I150J0*
G01*
X-3884Y-2417D01*
X-4436Y-2417D01*
G75*
D01*
G03X-4586Y-2567I0J-150*
G01*
X-4586Y-2567D01*
X-4586Y-2981D01*
G75*
D01*
G03X-4436Y-3131I150J0*
G01*
X-4436Y-3131D01*
X-4361Y-3131D01*
X-4361Y-3996D01*
D02*
G37*
G36*
X19683Y-7555D02*
G75*
D01*
G03X19683Y-7555I417J0*
G01*
D02*
G37*
G36*
X19683Y-6555D02*
G75*
D01*
G03X19683Y-6555I417J0*
G01*
D02*
G37*
G36*
X19683Y-5555D02*
G75*
D01*
G03X19683Y-5555I417J0*
G01*
D02*
G37*
G36*
X19683Y-4555D02*
G75*
D01*
G03X19683Y-4555I417J0*
G01*
D02*
G37*
G36*
X19683Y-3555D02*
G75*
D01*
G03X19683Y-3555I417J0*
G01*
D02*
G37*
G36*
X26324Y12731D02*
G75*
D01*
G03X26174Y12581I0J-150*
G01*
X26174Y12581D01*
X26174Y12501D01*
X26473Y12501D01*
X26473Y12731D01*
X26324Y12731D01*
D02*
G37*
G36*
X27026Y12581D02*
G74*
D01*
G03X26876Y12731I150J0*
G01*
X26876Y12731D01*
X26727Y12731D01*
X26727Y12501D01*
X27026Y12501D01*
X27026Y12581D01*
D02*
G37*
G36*
X27026Y12167D02*
X27026Y12167D01*
X27026Y12247D01*
X26727Y12247D01*
X26727Y12017D01*
X26876Y12017D01*
G75*
D01*
G03X27026Y12167I0J150*
G01*
D02*
G37*
G36*
X26174Y12167D02*
G75*
D01*
G03X26324Y12017I150J0*
G01*
X26324Y12017D01*
X26473Y12017D01*
X26473Y12247D01*
X26174Y12247D01*
X26174Y12167D01*
D02*
G37*
G36*
X-10877Y-1000D02*
G75*
D01*
G03X-10877Y-1000I417J0*
G01*
D02*
G37*
G36*
X-10877Y1000D02*
G75*
D01*
G03X-10877Y1000I417J0*
G01*
D02*
G37*
G36*
X-10877Y2000D02*
G75*
D01*
G03X-10877Y2000I417J0*
G01*
D02*
G37*
G36*
X-10877Y3000D02*
G75*
D01*
G03X-10877Y3000I417J0*
G01*
D02*
G37*
G36*
X-10877Y4000D02*
G75*
D01*
G03X-10877Y4000I417J0*
G01*
D02*
G37*
G36*
X-10877Y5000D02*
G75*
D01*
G03X-10877Y5000I417J0*
G01*
D02*
G37*
G36*
X-10877Y6000D02*
G75*
D01*
G03X-10877Y6000I417J0*
G01*
D02*
G37*
G36*
X-10877Y7000D02*
G75*
D01*
G03X-10877Y7000I417J0*
G01*
D02*
G37*
%LPD*%
G36*
X-21142Y12058D02*
X-21142Y12058D01*
X-23258Y14174D01*
X-23368Y14174D01*
X-24484Y13058D01*
G75*
D01*
G02X-24626Y12999I-142J142*
G01*
X-24626Y12999D01*
X-25447Y12999D01*
X-25959Y12487D01*
X-25959Y10023D01*
G74*
D01*
G02X-25942Y10042I159J123*
G01*
X-25942Y10042D01*
X-24042Y11942D01*
G75*
D01*
G02X-23900Y12001I142J-142*
G01*
X-23900Y12001D01*
X-21028Y12001D01*
G74*
D01*
G02X-21142Y12058I28J199*
G01*
D02*
G37*
G36*
X-25450Y2134D02*
X-25450Y2134D01*
X-25599Y2283D01*
X-25599Y9817D01*
X-23817Y11599D01*
X-23459Y11599D01*
G74*
D01*
G03X-23573Y11542I28J199*
G01*
X-23573Y11542D01*
X-25402Y9713D01*
G74*
D01*
G03X-25461Y9571I142J142*
G01*
X-25461Y9571D01*
X-25461Y2200D01*
G75*
D01*
G03X-25450Y2134I201J0*
G01*
D02*
G37*
G36*
X-7482Y-1962D02*
G75*
D01*
G03X-7399Y-1800I-118J162*
G01*
X-7399Y-1800D01*
X-7399Y1317D01*
X-7317Y1399D01*
X-4169Y1399D01*
G75*
D01*
G03X-4349Y967I109J-299*
G01*
G74*
D01*
G03X-4361Y900I189J67*
G01*
X-4361Y900D01*
X-4361Y131D01*
X-4436Y131D01*
G75*
D01*
G03X-4585Y1I0J-150*
G01*
X-4585Y1D01*
X-5360Y1D01*
G75*
D01*
G03X-5502Y-58I0J-201*
G01*
X-5502Y-58D01*
X-5902Y-458D01*
G74*
D01*
G03X-5961Y-600I142J142*
G01*
X-5961Y-600D01*
X-5961Y-2817D01*
X-6043Y-2899D01*
X-7482Y-2899D01*
X-7482Y-2892D01*
X-7482Y-2892D01*
X-7482Y-2656D01*
G74*
D01*
G03X-7632Y-2505I150J0*
G01*
X-7632Y-2505D01*
X-7833Y-2505D01*
X-8044Y-2295D01*
X-7632Y-2295D01*
G75*
D01*
G03X-7482Y-2144I0J151*
G01*
X-7482Y-2144D01*
X-7482Y-1962D01*
D02*
G37*
G36*
X-10339Y-9399D02*
G75*
D01*
G03X-10060Y-8884I-121J399*
G01*
X-10060Y-8884D01*
X-9458Y-8282D01*
G75*
D01*
G03X-9399Y-8140I-142J142*
G01*
X-9399Y-8140D01*
X-9399Y-2601D01*
X-9306Y-2601D01*
G74*
D01*
G03X-9318Y-2662I138J61*
G01*
X-9318Y-2662D01*
X-9318Y-2898D01*
G75*
D01*
G03X-9168Y-3049I150J0*
G01*
X-9168Y-3049D01*
X-9152Y-3049D01*
X-9152Y-9068D01*
X-9483Y-9399D01*
X-10339Y-9399D01*
D02*
G37*
G36*
X-681Y10999D02*
G74*
D01*
G02X-617Y10876I86J123*
G01*
X-617Y10876D01*
X-617Y10324D01*
G75*
D01*
G02X-682Y10200I-150J0*
G01*
G74*
D01*
G02X-617Y10076I85J124*
G01*
X-617Y10076D01*
X-617Y9727D01*
X-583Y9694D01*
X-583Y10076D01*
G74*
D01*
G02X-518Y10200I150J0*
G01*
G75*
D01*
G02X-583Y10324I85J124*
G01*
X-583Y10324D01*
X-583Y10876D01*
G74*
D01*
G02X-519Y10999I150J0*
G01*
X-519Y10999D01*
X-681Y10999D01*
D02*
G37*
G36*
X26358Y5201D02*
G74*
D01*
G02X26201Y5358I242J399*
G01*
X26201Y5358D01*
X26201Y5283D01*
X26283Y5201D01*
X26358Y5201D01*
D02*
G37*
G36*
X-8799Y12088D02*
X-8799Y12088D01*
X-8799Y12117D01*
X-8717Y12199D01*
X-8688Y12199D01*
G74*
D01*
G03X-8799Y12088I184J295*
G01*
D02*
G37*
G36*
X-6001Y5606D02*
G74*
D01*
G02X-6054Y5545I136J65*
G01*
X-6054Y5545D01*
X-6054Y5455D01*
G74*
D01*
G02X-6001Y5394I83J126*
G01*
X-6001Y5394D01*
X-6001Y5606D01*
D02*
G37*
G36*
X-1299Y10969D02*
X-1299Y10969D01*
X-1299Y10999D01*
X-1267Y10999D01*
G74*
D01*
G03X-1299Y10969I86J123*
G01*
D02*
G37*
G54D11*
X16800Y18901D02*
X-5400Y18901D01*
G75*
D01*
G03X-5415Y18900I0J-201*
G01*
X-5217Y19099D01*
X17117Y19099D01*
X24732Y11484D01*
G75*
D01*
G03X24874Y11425I142J142*
G01*
X25799Y11425D01*
X25799Y5200D01*
G75*
D01*
G03X25858Y5058I201J0*
G01*
X26058Y4858D01*
G74*
D01*
G03X26178Y4800I142J142*
G01*
G75*
D01*
G03X26618Y5066I422J-200*
G01*
X26548Y5136D01*
G75*
D01*
G03X26201Y5842I52J464*
G01*
X26201Y11333D01*
G75*
D01*
G03X26324Y11269I123J86*
G01*
X26876Y11269D01*
G75*
D01*
G03X27026Y11419I0J150*
G01*
X27026Y11833D01*
G74*
D01*
G03X26876Y11983I150J0*
G01*
X26324Y11983D01*
G75*
D01*
G03X26174Y11833I0J-150*
G01*
X26174Y11827D01*
X24957Y11827D01*
X17342Y19442D01*
G74*
D01*
G03X17200Y19501I142J142*
G01*
X-5300Y19501D01*
G75*
D01*
G03X-5442Y19442I0J-201*
G01*
X-11383Y13501D01*
X-11866Y13501D01*
G75*
D01*
G03X-12008Y13442I0J-201*
G01*
X-13449Y12001D01*
X-16572Y12001D01*
G74*
D01*
G03X-16458Y12058I28J199*
G01*
X-16156Y12360D01*
G75*
D01*
G03X-16440Y12644I156J440*
G01*
X-16683Y12401D01*
X-16758Y12401D01*
G74*
D01*
G03X-16564Y12635I242J399*
G01*
X-16835Y12635D01*
X-16835Y12401D01*
X-17165Y12401D01*
X-17165Y12635D01*
X-17436Y12635D01*
G74*
D01*
G03X-17242Y12401I436J165*
G01*
X-17712Y12401D01*
G75*
D01*
G03X-17548Y12696I-184J295*
G01*
X-17548Y12904D01*
G74*
D01*
G03X-17896Y13252I348J0*
G01*
X-18104Y13252D01*
G75*
D01*
G03X-18452Y12904I0J-348*
G01*
X-18452Y12696D01*
G75*
D01*
G03X-18288Y12401I348J0*
G01*
X-20917Y12401D01*
X-22869Y14353D01*
X-22869Y14876D01*
G74*
D01*
G03X-23019Y15026I150J0*
G01*
X-23433Y15026D01*
G75*
D01*
G03X-23583Y14876I0J-150*
G01*
X-23583Y14527D01*
X-23637Y14473D01*
X-23847Y14473D01*
X-23847Y14263D01*
X-24709Y13401D01*
X-25531Y13401D01*
G75*
D01*
G03X-25673Y13342I0J-201*
G01*
X-26302Y12713D01*
G74*
D01*
G03X-26361Y12571I142J142*
G01*
X-26361Y2100D01*
G75*
D01*
G03X-26302Y1958I201J0*
G01*
X-24202Y-142D01*
G74*
D01*
G03X-24106Y-196I142J142*
G01*
G74*
D01*
G03X-24077Y-200I46J196*
G01*
X-24077Y-277D01*
X-23876Y-277D01*
G74*
D01*
G03X-23916Y-201I324J123*
G01*
X-20460Y-201D01*
G74*
D01*
G03X-20433Y-199I0J201*
G01*
G74*
D01*
G03X-20318Y-142I27J199*
G01*
X-19576Y600D01*
G75*
D01*
G03X-19860Y884I116J400*
G01*
X-20543Y201D01*
X-23977Y201D01*
X-24275Y499D01*
X-20700Y499D01*
G74*
D01*
G03X-20648Y506I0J201*
G01*
G74*
D01*
G03X-20558Y558I52J194*
G01*
X-19527Y1589D01*
G75*
D01*
G03X-19845Y1839I67J411*
G01*
X-20783Y901D01*
X-24217Y901D01*
X-24726Y1410D01*
G74*
D01*
G03X-24691Y1401I66J190*
G01*
G75*
D01*
G03X-24660Y1399I31J199*
G01*
X-20860Y1399D01*
G74*
D01*
G03X-20796Y1409I0J201*
G01*
G74*
D01*
G03X-20718Y1458I64J191*
G01*
X-19576Y2600D01*
G75*
D01*
G03X-19339Y3399I116J400*
G01*
X-14083Y3399D01*
X-14001Y3317D01*
X-14001Y-9400D01*
G75*
D01*
G03X-13942Y-9542I201J0*
G01*
X-13742Y-9742D01*
G74*
D01*
G03X-13666Y-9790I142J142*
G01*
G75*
D01*
G03X-13600Y-9801I66J190*
G01*
X-9400Y-9801D01*
G74*
D01*
G03X-9335Y-9790I0J201*
G01*
G74*
D01*
G03X-9258Y-9742I65J190*
G01*
X-8809Y-9293D01*
G75*
D01*
G03X-8750Y-9151I-142J142*
G01*
X-8750Y-3049D01*
X-8735Y-3049D01*
G75*
D01*
G03X-8584Y-2898I0J151*
G01*
X-8584Y-2662D01*
G74*
D01*
G03X-8597Y-2601I151J0*
G01*
X-8306Y-2601D01*
X-8216Y-2691D01*
X-8216Y-2892D01*
G75*
D01*
G03X-8156Y-3012I151J0*
G01*
X-8602Y-3458D01*
G74*
D01*
G03X-8661Y-3600I142J142*
G01*
X-8661Y-12617D01*
X-11743Y-15699D01*
X-18377Y-15699D01*
X-20059Y-14017D01*
X-20059Y-11400D01*
G75*
D01*
G03X-20118Y-11258I-201J0*
G01*
X-20492Y-10884D01*
G75*
D01*
G03X-20634Y-10825I-142J-142*
G01*
X-20734Y-10825D01*
X-20734Y-10819D01*
G74*
D01*
G03X-20884Y-10669I150J0*
G01*
X-21436Y-10669D01*
G75*
D01*
G03X-21560Y-10734I0J-150*
G01*
G74*
D01*
G03X-21684Y-10669I124J85*
G01*
X-21759Y-10669D01*
X-21759Y-5983D01*
X-20977Y-5201D01*
X-19825Y-5201D01*
G75*
D01*
G03X-19825Y-4799I365J201*
G01*
X-21060Y-4799D01*
G75*
D01*
G03X-21133Y-4813I0J-201*
G01*
G74*
D01*
G03X-21202Y-4858I73J187*
G01*
X-21410Y-5066D01*
G75*
D01*
G03X-21399Y-5000I-190J66*
G01*
X-21399Y-1483D01*
X-21317Y-1401D01*
X-19660Y-1401D01*
G74*
D01*
G03X-19631Y-1399I0J201*
G01*
G74*
D01*
G03X-19601Y-1392I29J199*
G01*
G75*
D01*
G03X-19877Y-999I141J392*
G01*
X-20175Y-999D01*
X-19576Y-400D01*
G75*
D01*
G03X-19860Y-116I116J400*
G01*
X-20517Y-773D01*
X-24534Y-773D01*
X-24534Y-767D01*
G74*
D01*
G03X-24684Y-617I150J0*
G01*
X-25236Y-617D01*
G75*
D01*
G03X-25386Y-767I0J-150*
G01*
X-25386Y-1125D01*
G74*
D01*
G03X-25401Y-1200I186J75*
G01*
X-25401Y-3917D01*
X-25483Y-3999D01*
X-27200Y-3999D01*
G75*
D01*
G03X-27259Y-4008I0J-201*
G01*
G74*
D01*
G03X-27342Y-4058I59J192*
G01*
X-27344Y-4060D01*
G75*
D01*
G03X-27044Y-4401I-156J-440*
G01*
X-25400Y-4401D01*
G74*
D01*
G03X-25371Y-4399I0J201*
G01*
G74*
D01*
G03X-25258Y-4342I29J199*
G01*
X-25058Y-4142D01*
G75*
D01*
G03X-24999Y-4000I-142J142*
G01*
X-24999Y-1331D01*
X-24684Y-1331D01*
G75*
D01*
G03X-24534Y-1181I0J150*
G01*
X-24534Y-1175D01*
X-21659Y-1175D01*
X-21742Y-1258D01*
G74*
D01*
G03X-21801Y-1400I142J142*
G01*
X-21801Y-4917D01*
X-21883Y-4999D01*
X-27200Y-4999D01*
G75*
D01*
G03X-27259Y-5008I0J-201*
G01*
G74*
D01*
G03X-27342Y-5058I59J192*
G01*
X-27344Y-5060D01*
G75*
D01*
G03X-27044Y-5401I-156J-440*
G01*
X-21800Y-5401D01*
G74*
D01*
G03X-21771Y-5399I0J201*
G01*
G74*
D01*
G03X-21734Y-5390I29J199*
G01*
X-22102Y-5758D01*
G74*
D01*
G03X-22161Y-5900I142J142*
G01*
X-22161Y-10669D01*
X-22236Y-10669D01*
G75*
D01*
G03X-22386Y-10819I0J-150*
G01*
X-22386Y-11233D01*
G75*
D01*
G03X-22236Y-11383I150J0*
G01*
X-21684Y-11383D01*
G74*
D01*
G03X-21560Y-11318I0J150*
G01*
G75*
D01*
G03X-21436Y-11383I124J85*
G01*
X-20884Y-11383D01*
G75*
D01*
G03X-20734Y-11233I0J150*
G01*
X-20734Y-11227D01*
X-20717Y-11227D01*
X-20574Y-11370D01*
X-20574Y-11370D01*
X-20461Y-11483D01*
X-20461Y-14100D01*
G75*
D01*
G03X-20402Y-14242I201J0*
G01*
X-18602Y-16042D01*
G74*
D01*
G03X-18528Y-16089I142J142*
G01*
G75*
D01*
G03X-18460Y-16101I68J189*
G01*
X-11660Y-16101D01*
G75*
D01*
G03X-11518Y-16042I0J201*
G01*
X-8318Y-12842D01*
G75*
D01*
G03X-8259Y-12700I-142J142*
G01*
X-8259Y-3683D01*
X-7877Y-3301D01*
X-5960Y-3301D01*
G75*
D01*
G03X-5818Y-3242I0J201*
G01*
X-5618Y-3042D01*
G75*
D01*
G03X-5559Y-2900I-142J142*
G01*
X-5559Y-683D01*
X-5277Y-401D01*
X-4586Y-401D01*
X-4586Y-433D01*
G75*
D01*
G03X-4436Y-583I150J0*
G01*
X-3884Y-583D01*
G75*
D01*
G03X-3734Y-433I0J150*
G01*
X-3734Y-19D01*
G74*
D01*
G03X-3884Y131I150J0*
G01*
X-3959Y131D01*
X-3959Y798D01*
G75*
D01*
G03X-3951Y1399I-101J302*
G01*
X-1683Y1399D01*
X-1601Y1317D01*
X-1601Y-600D01*
G75*
D01*
G03X-1542Y-742I201J0*
G01*
X-1342Y-942D01*
G74*
D01*
G03X-1266Y-990I142J142*
G01*
G75*
D01*
G03X-1200Y-1001I66J190*
G01*
X-1186Y-1001D01*
X-1186Y-1181D01*
G75*
D01*
G03X-1129Y-1299I150J0*
G01*
X-3791Y-1299D01*
G75*
D01*
G03X-3734Y-1181I-93J118*
G01*
X-3734Y-767D01*
G74*
D01*
G03X-3884Y-617I150J0*
G01*
X-4436Y-617D01*
G75*
D01*
G03X-4586Y-767I0J-150*
G01*
X-4586Y-1181D01*
G75*
D01*
G03X-4436Y-1331I150J0*
G01*
X-4361Y-1331D01*
X-4361Y-1669D01*
X-4436Y-1669D01*
G75*
D01*
G03X-4586Y-1819I0J-150*
G01*
X-4586Y-2233D01*
G75*
D01*
G03X-4436Y-2383I150J0*
G01*
X-3884Y-2383D01*
G75*
D01*
G03X-3734Y-2233I0J150*
G01*
X-3734Y-1819D01*
G74*
D01*
G03X-3791Y-1701I150J0*
G01*
X-1129Y-1701D01*
G74*
D01*
G03X-1186Y-1819I93J118*
G01*
X-1186Y-2233D01*
G75*
D01*
G03X-1036Y-2383I150J0*
G01*
X-484Y-2383D01*
G75*
D01*
G03X-334Y-2233I0J150*
G01*
X-334Y-1819D01*
G74*
D01*
G03X-484Y-1669I150J0*
G01*
X-559Y-1669D01*
X-559Y-1331D01*
X-484Y-1331D01*
G75*
D01*
G03X-334Y-1181I0J150*
G01*
X-334Y-767D01*
G74*
D01*
G03X-484Y-617I150J0*
G01*
X-852Y-617D01*
G74*
D01*
G03X-910Y-601I82J183*
G01*
G74*
D01*
G03X-934Y-599I24J199*
G01*
X-1117Y-599D01*
X-1199Y-517D01*
X-1199Y814D01*
G75*
D01*
G03X-1027Y783I139J286*
G01*
X-961Y717D01*
X-961Y131D01*
X-1036Y131D01*
G75*
D01*
G03X-1186Y-19I0J-150*
G01*
X-1186Y-433D01*
G75*
D01*
G03X-1036Y-583I150J0*
G01*
X-484Y-583D01*
G75*
D01*
G03X-334Y-433I0J150*
G01*
X-334Y-19D01*
G74*
D01*
G03X-484Y131I150J0*
G01*
X-559Y131D01*
X-559Y800D01*
G75*
D01*
G03X-618Y942I-201J0*
G01*
X-743Y1067D01*
G75*
D01*
G03X-1199Y1386I-317J33*
G01*
X-1199Y1400D01*
G75*
D01*
G03X-1258Y1542I-201J0*
G01*
X-1458Y1742D01*
G74*
D01*
G03X-1571Y1799I142J142*
G01*
G74*
D01*
G03X-1600Y1801I29J199*
G01*
X-3951Y1801D01*
G75*
D01*
G03X-4169Y1801I-109J299*
G01*
X-7400Y1801D01*
G75*
D01*
G03X-7466Y1790I0J-201*
G01*
G74*
D01*
G03X-7542Y1742I66J190*
G01*
X-7742Y1542D01*
G74*
D01*
G03X-7801Y1400I142J142*
G01*
X-7801Y-1694D01*
X-7864Y-1757D01*
X-8065Y-1757D01*
G75*
D01*
G03X-8216Y-1908I0J-151*
G01*
X-8216Y-2144D01*
G75*
D01*
G03X-8205Y-2200I151J0*
G01*
G75*
D01*
G03X-8223Y-2199I-18J-200*
G01*
X-8597Y-2199D01*
G75*
D01*
G03X-8584Y-2138I-138J61*
G01*
X-8584Y-1902D01*
G74*
D01*
G03X-8735Y-1751I151J0*
G01*
X-8761Y-1751D01*
G75*
D01*
G03X-9226Y-1763I-239J251*
G01*
G74*
D01*
G03X-9318Y-1902I58J139*
G01*
X-9318Y-2138D01*
G75*
D01*
G03X-9306Y-2199I150J0*
G01*
X-9600Y-2199D01*
G75*
D01*
G03X-9801Y-2400I0J-201*
G01*
X-9801Y-8057D01*
X-10344Y-8600D01*
G75*
D01*
G03X-10581Y-9399I-116J-400*
G01*
X-13517Y-9399D01*
X-13599Y-9317D01*
X-13599Y-284D01*
G75*
D01*
G03X-13117Y-201I199J284*
G01*
X-10825Y-201D01*
G75*
D01*
G03X-10825Y201I365J201*
G01*
X-13117Y201D01*
G75*
D01*
G03X-13599Y284I-283J-201*
G01*
X-13599Y3400D01*
G75*
D01*
G03X-13658Y3542I-201J0*
G01*
X-13858Y3742D01*
G74*
D01*
G03X-13971Y3799I142J142*
G01*
G74*
D01*
G03X-14000Y3801I29J199*
G01*
X-19094Y3801D01*
G75*
D01*
G03X-19659Y3634I-366J199*
G01*
G74*
D01*
G03X-19602Y3518I199J26*
G01*
X-19542Y3458D01*
G74*
D01*
G03X-19481Y3416I142J142*
G01*
G75*
D01*
G03X-19860Y2884I21J-416*
G01*
X-20943Y1801D01*
X-24577Y1801D01*
X-25059Y2283D01*
X-25059Y7424D01*
G75*
D01*
G03X-24625Y7281I299J176*
G01*
X-24544Y7199D01*
G74*
D01*
G03X-24588Y7092I106J107*
G01*
X-24588Y6856D01*
G75*
D01*
G03X-24438Y6705I150J0*
G01*
X-24237Y6705D01*
X-24026Y6495D01*
X-24126Y6495D01*
X-24126Y6321D01*
X-23854Y6321D01*
X-23854Y6344D01*
G74*
D01*
G03X-23865Y6400I151J0*
G01*
G75*
D01*
G03X-23847Y6399I18J200*
G01*
X-23473Y6399D01*
G74*
D01*
G03X-23486Y6338I138J61*
G01*
X-23486Y6102D01*
G75*
D01*
G03X-23335Y5951I151J0*
G01*
X-23301Y5951D01*
X-23301Y5883D01*
G75*
D01*
G03X-22899Y5883I201J-283*
G01*
X-22899Y5951D01*
G75*
D01*
G03X-22752Y6102I-3J151*
G01*
X-22752Y6338D01*
G74*
D01*
G03X-22770Y6410I150J0*
G01*
G75*
D01*
G03X-22752Y6482I-132J72*
G01*
X-22752Y6718D01*
G74*
D01*
G03X-22764Y6779I150J0*
G01*
X-19813Y6779D01*
G75*
D01*
G03X-19836Y7181I353J221*
G01*
X-22776Y7181D01*
G74*
D01*
G03X-22902Y7249I126J83*
G01*
X-23335Y7249D01*
G75*
D01*
G03X-23486Y7098I0J-151*
G01*
X-23486Y6862D01*
G75*
D01*
G03X-23473Y6801I151J0*
G01*
X-23764Y6801D01*
X-23854Y6891D01*
X-23854Y7057D01*
G75*
D01*
G03X-23799Y7196I-146J138*
G01*
X-23799Y10117D01*
X-23717Y10199D01*
X-9200Y10199D01*
G74*
D01*
G03X-9171Y10201I0J201*
G01*
G74*
D01*
G03X-9058Y10258I29J199*
G01*
X-8858Y10458D01*
G75*
D01*
G03X-8799Y10600I-142J142*
G01*
X-8799Y11512D01*
G75*
D01*
G03X-8504Y11348I295J184*
G01*
X-8296Y11348D01*
G75*
D01*
G03X-7948Y11696I0J348*
G01*
X-7948Y11904D01*
G74*
D01*
G03X-8112Y12199I348J0*
G01*
X-7642Y12199D01*
G75*
D01*
G03X-7158Y12199I242J-399*
G01*
X-6642Y12199D01*
G75*
D01*
G03X-6158Y12199I242J-399*
G01*
X-5642Y12199D01*
G75*
D01*
G03X-5158Y12199I242J-399*
G01*
X-4642Y12199D01*
G75*
D01*
G03X-4601Y11379I242J-399*
G01*
X-4601Y10683D01*
X-7383Y7901D01*
X-7876Y7901D01*
X-7876Y8029D01*
G74*
D01*
G03X-8027Y8179I151J0*
G01*
X-8263Y8179D01*
G75*
D01*
G03X-8351Y8151I0J-150*
G01*
X-9349Y8151D01*
X-9349Y9050D01*
G75*
D01*
G03X-9408Y9192I-201J0*
G01*
X-10058Y9842D01*
G74*
D01*
G03X-10166Y9898I142J142*
G01*
G74*
D01*
G03X-10200Y9901I34J198*
G01*
X-11400Y9901D01*
G75*
D01*
G03X-11449Y9895I0J-201*
G01*
G74*
D01*
G03X-11542Y9842I49J195*
G01*
X-13857Y7528D01*
X-13857Y7528D01*
X-15183Y6201D01*
X-19095Y6201D01*
G75*
D01*
G03X-19095Y5799I-365J-201*
G01*
X-15100Y5799D01*
G74*
D01*
G03X-15047Y5806I0J201*
G01*
G74*
D01*
G03X-14958Y5858I53J194*
G01*
X-13288Y7528D01*
X-11317Y9499D01*
X-10985Y9499D01*
X-15283Y5201D01*
X-19095Y5201D01*
G75*
D01*
G03X-19095Y4799I-365J-201*
G01*
X-15200Y4799D01*
G74*
D01*
G03X-15149Y4806I0J201*
G01*
G74*
D01*
G03X-15058Y4858I51J194*
G01*
X-11884Y8032D01*
X-10875Y9041D01*
G75*
D01*
G03X-10045Y8961I415J-41*
G01*
X-10001Y8917D01*
X-10001Y6200D01*
G75*
D01*
G03X-9942Y6058I201J0*
G01*
X-9492Y5608D01*
G74*
D01*
G03X-9425Y5564I142J142*
G01*
G75*
D01*
G03X-9350Y5549I75J186*
G01*
X-8351Y5549D01*
G75*
D01*
G03X-8263Y5521I88J122*
G01*
X-8027Y5521D01*
G75*
D01*
G03X-7876Y5671I0J150*
G01*
X-7876Y5829D01*
G74*
D01*
G03X-8027Y5979I151J0*
G01*
X-8263Y5979D01*
G75*
D01*
G03X-8351Y5951I0J-150*
G01*
X-9267Y5951D01*
X-9599Y6283D01*
X-9599Y7755D01*
G75*
D01*
G03X-9550Y7749I49J195*
G01*
X-8635Y7749D01*
X-8742Y7642D01*
G74*
D01*
G03X-8801Y7500I142J142*
G01*
X-8801Y6479D01*
G75*
D01*
G03X-8742Y6337I201J0*
G01*
X-8713Y6308D01*
G74*
D01*
G03X-8621Y6256I142J142*
G01*
G75*
D01*
G03X-8570Y6249I50J194*
G01*
X-8351Y6249D01*
G75*
D01*
G03X-8263Y6221I88J122*
G01*
X-8027Y6221D01*
G75*
D01*
G03X-7876Y6371I0J150*
G01*
X-7876Y6529D01*
G74*
D01*
G03X-8027Y6679I151J0*
G01*
X-8263Y6679D01*
G75*
D01*
G03X-8351Y6651I0J-150*
G01*
X-8399Y6651D01*
X-8399Y6806D01*
G75*
D01*
G03X-8263Y6721I136J65*
G01*
X-8027Y6721D01*
G75*
D01*
G03X-7876Y6871I0J150*
G01*
X-7876Y6999D01*
X-7401Y6999D01*
X-7401Y6383D01*
G75*
D01*
G03X-7401Y5817I201J-283*
G01*
X-7401Y5201D01*
X-7876Y5201D01*
X-7876Y5329D01*
G74*
D01*
G03X-8027Y5479I151J0*
G01*
X-8263Y5479D01*
G75*
D01*
G03X-8414Y5329I0J-150*
G01*
X-8414Y4671D01*
G75*
D01*
G03X-8263Y4521I151J0*
G01*
X-8027Y4521D01*
G75*
D01*
G03X-7876Y4671I0J150*
G01*
X-7876Y4799D01*
X-6524Y4799D01*
X-6524Y4671D01*
G75*
D01*
G03X-6373Y4521I151J0*
G01*
X-6137Y4521D01*
G74*
D01*
G03X-6001Y4606I0J150*
G01*
X-6001Y4583D01*
G74*
D01*
G03X-6100Y4475I201J283*
G01*
G74*
D01*
G03X-6137Y4479I37J146*
G01*
X-6373Y4479D01*
G75*
D01*
G03X-6524Y4329I0J-150*
G01*
X-6524Y4171D01*
G75*
D01*
G03X-6373Y4021I151J0*
G01*
X-6137Y4021D01*
G74*
D01*
G03X-6049Y4049I0J150*
G01*
X-6039Y4049D01*
G75*
D01*
G03X-5599Y4583I239J251*
G01*
X-5599Y5900D01*
G75*
D01*
G03X-5658Y6042I-201J0*
G01*
X-5986Y6370D01*
X-5986Y6371D01*
X-5986Y6529D01*
G74*
D01*
G03X-6137Y6679I151J0*
G01*
X-6373Y6679D01*
G75*
D01*
G03X-6524Y6529I0J-150*
G01*
X-6524Y6371D01*
G75*
D01*
G03X-6408Y6225I151J0*
G01*
G74*
D01*
G03X-6397Y6213I153J130*
G01*
X-6164Y5979D01*
X-6373Y5979D01*
G75*
D01*
G03X-6524Y5829I0J-150*
G01*
X-6524Y5671D01*
G75*
D01*
G03X-6456Y5545I151J0*
G01*
X-6456Y5455D01*
G74*
D01*
G03X-6524Y5329I83J126*
G01*
X-6524Y5201D01*
X-6999Y5201D01*
X-6999Y5817D01*
G75*
D01*
G03X-6999Y6383I-201J283*
G01*
X-6999Y6999D01*
X-6524Y6999D01*
X-6524Y6871D01*
G75*
D01*
G03X-6373Y6721I151J0*
G01*
X-6137Y6721D01*
G75*
D01*
G03X-5986Y6871I0J150*
G01*
X-5986Y7529D01*
G74*
D01*
G03X-6054Y7655I151J0*
G01*
X-6054Y7745D01*
G75*
D01*
G03X-5986Y7871I-83J126*
G01*
X-5986Y8029D01*
G74*
D01*
G03X-6137Y8179I151J0*
G01*
X-6373Y8179D01*
G75*
D01*
G03X-6524Y8029I0J-150*
G01*
X-6524Y7871D01*
G75*
D01*
G03X-6456Y7745I151J0*
G01*
X-6456Y7655D01*
G74*
D01*
G03X-6524Y7529I83J126*
G01*
X-6524Y7401D01*
X-7876Y7401D01*
X-7876Y7499D01*
X-7300Y7499D01*
G75*
D01*
G03X-7158Y7558I0J201*
G01*
X-4258Y10458D01*
G75*
D01*
G03X-4199Y10600I-142J142*
G01*
X-4199Y11379D01*
G75*
D01*
G03X-4158Y12199I-201J421*
G01*
X-3883Y12199D01*
X-3769Y12085D01*
G75*
D01*
G03X-3382Y12266I369J-285*
G01*
X-3658Y12542D01*
G74*
D01*
G03X-3750Y12595I142J142*
G01*
G74*
D01*
G03X-3800Y12601I50J195*
G01*
X-8800Y12601D01*
G75*
D01*
G03X-8866Y12590I0J-201*
G01*
G74*
D01*
G03X-8942Y12542I66J190*
G01*
X-9142Y12342D01*
G74*
D01*
G03X-9201Y12200I142J142*
G01*
X-9201Y10683D01*
X-9283Y10601D01*
X-23800Y10601D01*
G75*
D01*
G03X-23866Y10590I0J-201*
G01*
G74*
D01*
G03X-23942Y10542I66J190*
G01*
X-24142Y10342D01*
G74*
D01*
G03X-24201Y10200I142J142*
G01*
X-24201Y7425D01*
X-24303Y7528D01*
X-24415Y7640D01*
G75*
D01*
G03X-25059Y7776I-345J-40*
G01*
X-25059Y9487D01*
X-23347Y11199D01*
X-13483Y11199D01*
G75*
D01*
G03X-13341Y11258I0J201*
G01*
X-11800Y12799D01*
X-11100Y12799D01*
G75*
D01*
G03X-10958Y12858I0J201*
G01*
X-5317Y18499D01*
X3503Y18499D01*
G75*
D01*
G03X3689Y18499I93J-834*
G01*
X16717Y18499D01*
X24899Y10317D01*
X24899Y-10117D01*
X24217Y-10799D01*
X20000Y-10799D01*
X20000Y-10799D01*
X17000Y-10799D01*
G75*
D01*
G03X16951Y-10805I0J-201*
G01*
G74*
D01*
G03X16858Y-10858I49J195*
G01*
X16346Y-11370D01*
X15956Y-11760D01*
G75*
D01*
G03X16240Y-12044I-156J-440*
G01*
X16914Y-11370D01*
X16914Y-11370D01*
X17083Y-11201D01*
X19733Y-11201D01*
G74*
D01*
G03X19669Y-11324I86J123*
G01*
X19669Y-11876D01*
G75*
D01*
G03X19819Y-12026I150J0*
G01*
X20233Y-12026D01*
G75*
D01*
G03X20383Y-11876I0J150*
G01*
X20383Y-11324D01*
G74*
D01*
G03X20319Y-11201I150J0*
G01*
X20481Y-11201D01*
G74*
D01*
G03X20417Y-11324I86J123*
G01*
X20417Y-11473D01*
X20647Y-11473D01*
X20647Y-11201D01*
X20901Y-11201D01*
X20901Y-11473D01*
X21131Y-11473D01*
X21131Y-11324D01*
G74*
D01*
G03X21067Y-11201I150J0*
G01*
X24300Y-11201D01*
X24303Y-11201D01*
G74*
D01*
G03X24442Y-11142I3J201*
G01*
X25242Y-10342D01*
G75*
D01*
G03X25301Y-10200I-142J142*
G01*
X25301Y10400D01*
G74*
D01*
G03X25242Y10542I201J0*
G01*
X18808Y16976D01*
X16942Y18842D01*
G74*
D01*
G03X16800Y18901I142J142*
G01*
X-16896Y12941D02*
G75*
D01*
G03X-16896Y12941I-104J-141*
G01*
X-24551Y16776D02*
G75*
D01*
G03X-25880Y17573I-649J424*
G01*
G75*
D01*
G03X-24551Y16776I643J-435*
G01*
X-19869Y-1921D02*
G75*
D01*
G03X-19869Y-1921I409J-79*
G01*
X24551Y16776D02*
G75*
D01*
G03X25880Y17573I687J362*
G01*
G75*
D01*
G03X24551Y16776I-680J-373*
G01*
X-32636Y-11460D02*
G75*
D01*
G03X-31540Y-10364I536J560*
G01*
G75*
D01*
G03X-32636Y-11460I-572J-523*
G01*
X-4261Y-5347D02*
X-4261Y-9017D01*
X-6614Y-11370D01*
X-7447Y-12203D01*
X-7447Y-12203D01*
X-11743Y-16499D01*
X-18747Y-16499D01*
X-21303Y-13943D01*
X-21303Y-13943D01*
X-21759Y-13487D01*
X-21759Y-12131D01*
X-21684Y-12131D01*
G74*
D01*
G03X-21560Y-12066I0J150*
G01*
G75*
D01*
G03X-21436Y-12131I124J85*
G01*
X-21379Y-12131D01*
G75*
D01*
G03X-20941Y-12131I219J-269*
G01*
X-20884Y-12131D01*
G75*
D01*
G03X-20734Y-11981I0J150*
G01*
X-20734Y-11567D01*
G74*
D01*
G03X-20884Y-11417I150J0*
G01*
X-21436Y-11417D01*
G75*
D01*
G03X-21560Y-11482I0J-150*
G01*
G74*
D01*
G03X-21684Y-11417I124J85*
G01*
X-22236Y-11417D01*
G75*
D01*
G03X-22386Y-11567I0J-150*
G01*
X-22386Y-11981D01*
G75*
D01*
G03X-22236Y-12131I150J0*
G01*
X-22161Y-12131D01*
X-22161Y-13571D01*
G75*
D01*
G03X-22102Y-13713I201J0*
G01*
X-21587Y-14227D01*
X-21587Y-14227D01*
X-18973Y-16842D01*
G74*
D01*
G03X-18848Y-16900I142J142*
G01*
G75*
D01*
G03X-18831Y-16901I17J200*
G01*
X-11660Y-16901D01*
G74*
D01*
G03X-11625Y-16898I0J201*
G01*
G74*
D01*
G03X-11518Y-16842I35J198*
G01*
X-7447Y-12772D01*
X-3918Y-9242D01*
G75*
D01*
G03X-3859Y-9100I-142J142*
G01*
X-3859Y-5347D01*
G75*
D01*
G03X-4261Y-5347I-201J247*
G01*
X32636Y-11460D02*
G75*
D01*
G03X31540Y-10364I-523J573*
G01*
G75*
D01*
G03X32636Y-11460I560J-536*
G01*
X-813Y-4899D02*
G75*
D01*
G03X-813Y-5301I-247J-201*
G01*
X13200Y-5301D01*
G74*
D01*
G03X13342Y-5242I0J201*
G01*
X16663Y-1921D01*
X16663Y-1921D01*
X18470Y-115D01*
X19727Y-115D01*
G75*
D01*
G03X20499Y-3I365J201*
G01*
X20499Y-1435D01*
G75*
D01*
G03X20499Y-1676I-399J-120*
G01*
X20499Y-1872D01*
X20450Y-1921D01*
X20450Y-1921D01*
X20216Y-2155D01*
G75*
D01*
G03X20500Y-2439I-116J-400*
G01*
X20842Y-2098D01*
G75*
D01*
G03X20901Y-1955I-142J143*
G01*
X20901Y1478D01*
G74*
D01*
G03X20842Y1621I201J0*
G01*
X20492Y1970D01*
G75*
D01*
G03X19976Y2487I-400J116*
G01*
X18921Y3542D01*
G74*
D01*
G03X18778Y3601I143J142*
G01*
X584Y3601D01*
G75*
D01*
G03X501Y4083I-284J199*
G01*
X501Y8526D01*
G74*
D01*
G03X442Y8668I201J0*
G01*
X-263Y9374D01*
X-84Y9374D01*
X2001Y7288D01*
X2001Y7288D01*
X2899Y6391D01*
X2899Y4230D01*
G75*
D01*
G03X2958Y4087I201J-1*
G01*
X2987Y4058D01*
G75*
D01*
G03X3130Y3999I142J142*
G01*
X19684Y3999D01*
G75*
D01*
G03X19818Y4400I408J87*
G01*
G75*
D01*
G03X19800Y4401I-18J-200*
G01*
X3301Y4401D01*
X3301Y6474D01*
G74*
D01*
G03X3242Y6616I201J0*
G01*
X2001Y7857D01*
X2001Y7857D01*
X131Y9727D01*
X131Y10076D01*
G74*
D01*
G03X66Y10200I150J0*
G01*
G75*
D01*
G03X131Y10324I-85J124*
G01*
X131Y10399D01*
X217Y10399D01*
G75*
D01*
G03X217Y10801I283J201*
G01*
X131Y10801D01*
X131Y10876D01*
G74*
D01*
G03X67Y10999I150J0*
G01*
X16117Y10999D01*
X18894Y8222D01*
X19588Y7528D01*
X19588Y7528D01*
X20899Y6217D01*
X20899Y4178D01*
X20208Y3487D01*
G75*
D01*
G03X20492Y3203I-116J-401*
G01*
X20899Y3609D01*
X21242Y3952D01*
G75*
D01*
G03X21301Y4094I-142J142*
G01*
X21301Y6300D01*
G74*
D01*
G03X21242Y6442I201J0*
G01*
X20528Y7156D01*
X20157Y7528D01*
X16342Y11342D01*
G74*
D01*
G03X16200Y11401I142J142*
G01*
X-1400Y11401D01*
G75*
D01*
G03X-1542Y11342I0J-201*
G01*
X-1642Y11242D01*
G74*
D01*
G03X-1701Y11100I142J142*
G01*
X-1701Y10600D01*
G75*
D01*
G03X-1500Y10399I201J0*
G01*
X-1331Y10399D01*
X-1331Y10324D01*
G75*
D01*
G03X-1266Y10200I150J0*
G01*
G74*
D01*
G03X-1331Y10076I85J124*
G01*
X-1331Y9524D01*
G75*
D01*
G03X-1181Y9374I150J0*
G01*
X-832Y9374D01*
X99Y8443D01*
X99Y4083D01*
G75*
D01*
G03X16Y3601I201J-283*
G01*
X-7717Y3601D01*
X-7944Y3828D01*
X-7944Y4045D01*
G75*
D01*
G03X-7876Y4171I-83J126*
G01*
X-7876Y4329D01*
G74*
D01*
G03X-8027Y4479I151J0*
G01*
X-8263Y4479D01*
G75*
D01*
G03X-8414Y4329I0J-150*
G01*
X-8414Y4171D01*
G75*
D01*
G03X-8346Y4045I151J0*
G01*
X-8346Y3745D01*
G75*
D01*
G03X-8287Y3603I201J0*
G01*
X-7942Y3258D01*
G75*
D01*
G03X-7800Y3199I142J142*
G01*
X124Y3199D01*
G75*
D01*
G03X99Y2617I176J-299*
G01*
X99Y-2017D01*
X-363Y-2478D01*
G74*
D01*
G03X-484Y-2417I121J89*
G01*
X-1036Y-2417D01*
G75*
D01*
G03X-1186Y-2567I0J-150*
G01*
X-1186Y-2981D01*
G75*
D01*
G03X-1036Y-3131I150J0*
G01*
X-961Y-3131D01*
X-961Y-3717D01*
X-1027Y-3783D01*
G75*
D01*
G03X-743Y-4067I-33J-317*
G01*
X-618Y-3942D01*
G75*
D01*
G03X-559Y-3800I-142J142*
G01*
X-559Y-3131D01*
X-484Y-3131D01*
G75*
D01*
G03X-334Y-2981I0J150*
G01*
X-334Y-2971D01*
G74*
D01*
G03X-232Y-2916I40J197*
G01*
X-232Y-2916D01*
X442Y-2242D01*
X442Y-2242D01*
G75*
D01*
G03X501Y-2100I-142J142*
G01*
X501Y2617D01*
G75*
D01*
G03X476Y3199I-201J283*
G01*
X18695Y3199D01*
X19692Y2203D01*
G75*
D01*
G03X20208Y1686I400J-117*
G01*
X20499Y1395D01*
X20499Y1176D01*
G75*
D01*
G03X20499Y997I-407J-90*
G01*
X20499Y176D01*
G75*
D01*
G03X19727Y287I-407J-90*
G01*
X18387Y287D01*
G75*
D01*
G03X18244Y229I-1J-201*
G01*
X13117Y-4899D01*
X-813Y-4899D01*
X-10869Y-1921D02*
G75*
D01*
G03X-10869Y-1921I409J-79*
G01*
X20004Y-8961D02*
G75*
D01*
G03X20190Y-8962I88J-834*
G01*
G75*
D01*
G03X20004Y-8961I-90J407*
G01*
X-10877Y8000D02*
G75*
D01*
G03X-10877Y8000I417J0*
G01*
X-19877Y8000D02*
G75*
D01*
G03X-19877Y8000I417J0*
G01*
X-19877Y9000D02*
G75*
D01*
G03X-19877Y9000I417J0*
G01*
X32636Y11460D02*
G75*
D01*
G03X31540Y10364I-536J-560*
G01*
G75*
D01*
G03X32636Y11460I573J524*
G01*
X-10877Y-8000D02*
G75*
D01*
G03X-10877Y-8000I417J0*
G01*
X-10877Y-7000D02*
G75*
D01*
G03X-10877Y-7000I417J0*
G01*
X-10877Y-6000D02*
G75*
D01*
G03X-10877Y-6000I417J0*
G01*
X-10877Y-5000D02*
G75*
D01*
G03X-10877Y-5000I417J0*
G01*
X-10877Y-4000D02*
G75*
D01*
G03X-10877Y-4000I417J0*
G01*
X-10877Y-3000D02*
G75*
D01*
G03X-10877Y-3000I417J0*
G01*
X-1378Y2100D02*
G75*
D01*
G03X-1378Y2100I318J0*
G01*
X-17436Y12965D02*
X-17165Y12965D01*
X-17165Y13236D01*
G74*
D01*
G03X-17436Y12965I165J436*
G01*
X-24181Y15026D02*
G75*
D01*
G03X-24331Y14876I0J-150*
G01*
X-24331Y14727D01*
X-24101Y14727D01*
X-24101Y15026D01*
X-24181Y15026D01*
X-23767Y15026D02*
X-23847Y15026D01*
X-23847Y14727D01*
X-23617Y14727D01*
X-23617Y14876D01*
G74*
D01*
G03X-23767Y15026I150J0*
G01*
X-24331Y14324D02*
G75*
D01*
G03X-24181Y14174I150J0*
G01*
X-24101Y14174D01*
X-24101Y14473D01*
X-24331Y14473D01*
X-24331Y14324D01*
X-15467Y12800D02*
G75*
D01*
G03X-15467Y12800I467J0*
G01*
X-16835Y13236D02*
X-16835Y12965D01*
X-16564Y12965D01*
G74*
D01*
G03X-16835Y13236I436J165*
G01*
X-19877Y-9000D02*
G75*
D01*
G03X-19877Y-9000I417J0*
G01*
X-19877Y-8000D02*
G75*
D01*
G03X-19877Y-8000I417J0*
G01*
X-19877Y-7000D02*
G75*
D01*
G03X-19877Y-7000I417J0*
G01*
X-19877Y-6000D02*
G75*
D01*
G03X-19877Y-6000I417J0*
G01*
X-19877Y-4000D02*
G75*
D01*
G03X-19877Y-4000I417J0*
G01*
X-19877Y-3000D02*
G75*
D01*
G03X-19877Y-3000I417J0*
G01*
X-24588Y6344D02*
X-24588Y6321D01*
X-24317Y6321D01*
X-24317Y6495D01*
X-24438Y6495D01*
G75*
D01*
G03X-24588Y6344I0J-151*
G01*
X-24005Y5957D02*
G75*
D01*
G03X-23854Y6108I0J151*
G01*
X-23854Y6131D01*
X-24126Y6131D01*
X-24126Y5957D01*
X-24005Y5957D01*
X-24077Y5924D02*
X-24077Y5723D01*
X-23876Y5723D01*
G74*
D01*
G03X-24077Y5924I324J123*
G01*
X-24588Y6108D02*
G75*
D01*
G03X-24438Y5957I150J0*
G01*
X-24317Y5957D01*
X-24317Y6131D01*
X-24588Y6131D01*
X-24588Y6108D01*
X-24524Y5723D02*
X-24323Y5723D01*
X-24323Y5924D01*
G74*
D01*
G03X-24524Y5723I123J324*
G01*
X-23876Y5477D02*
X-24077Y5477D01*
X-24077Y5276D01*
G74*
D01*
G03X-23876Y5477I123J324*
G01*
X-24318Y5600D02*
G75*
D01*
G03X-24318Y5600I118J0*
G01*
X-24323Y5276D02*
X-24323Y5477D01*
X-24524Y5477D01*
G74*
D01*
G03X-24323Y5276I324J123*
G01*
X26496Y2148D02*
X26704Y2148D01*
G75*
D01*
G03X27052Y2496I0J348*
G01*
X27052Y2704D01*
G74*
D01*
G03X26704Y3052I348J0*
G01*
X26496Y3052D01*
G75*
D01*
G03X26148Y2704I0J-348*
G01*
X26148Y2496D01*
G75*
D01*
G03X26496Y2148I348J0*
G01*
X26164Y3765D02*
X26435Y3765D01*
X26435Y4036D01*
G74*
D01*
G03X26164Y3765I165J436*
G01*
X26765Y4036D02*
X26765Y3765D01*
X27036Y3765D01*
G74*
D01*
G03X26765Y4036I436J165*
G01*
X27036Y3435D02*
X26765Y3435D01*
X26765Y3164D01*
G74*
D01*
G03X27036Y3435I165J436*
G01*
X26425Y3600D02*
G75*
D01*
G03X26425Y3600I175J0*
G01*
X26435Y3164D02*
X26435Y3435D01*
X26164Y3435D01*
G74*
D01*
G03X26435Y3164I436J165*
G01*
X-25236Y131D02*
G75*
D01*
G03X-25386Y-19I0J-150*
G01*
X-25386Y-99D01*
X-25087Y-99D01*
X-25087Y131D01*
X-25236Y131D01*
X-24524Y-277D02*
X-24323Y-277D01*
X-24323Y-76D01*
G74*
D01*
G03X-24524Y-277I123J324*
G01*
X-24534Y-19D02*
G74*
D01*
G03X-24684Y131I150J0*
G01*
X-24833Y131D01*
X-24833Y-99D01*
X-24534Y-99D01*
X-24534Y-19D01*
X-24318Y-400D02*
G75*
D01*
G03X-24318Y-400I118J0*
G01*
X-23876Y-523D02*
X-24077Y-523D01*
X-24077Y-724D01*
G74*
D01*
G03X-23876Y-523I123J324*
G01*
X-24534Y-433D02*
X-24534Y-353D01*
X-24833Y-353D01*
X-24833Y-583D01*
X-24684Y-583D01*
G75*
D01*
G03X-24534Y-433I0J150*
G01*
X-24323Y-724D02*
X-24323Y-523D01*
X-24524Y-523D01*
G74*
D01*
G03X-24323Y-724I324J123*
G01*
X-25386Y-433D02*
G75*
D01*
G03X-25236Y-583I150J0*
G01*
X-25087Y-583D01*
X-25087Y-353D01*
X-25386Y-353D01*
X-25386Y-433D01*
X19675Y5086D02*
G75*
D01*
G03X19675Y5086I417J0*
G01*
X-27396Y-2048D02*
X-27604Y-2048D01*
G75*
D01*
G03X-27952Y-2396I0J-348*
G01*
X-27952Y-2604D01*
G75*
D01*
G03X-27604Y-2952I348J0*
G01*
X-27396Y-2952D01*
G75*
D01*
G03X-27048Y-2604I0J348*
G01*
X-27048Y-2396D01*
G74*
D01*
G03X-27396Y-2048I348J0*
G01*
X-27936Y-3335D02*
X-27665Y-3335D01*
X-27665Y-3064D01*
G74*
D01*
G03X-27936Y-3335I165J436*
G01*
X-27675Y-3500D02*
G75*
D01*
G03X-27675Y-3500I175J0*
G01*
X-27665Y-3936D02*
X-27665Y-3665D01*
X-27936Y-3665D01*
G74*
D01*
G03X-27665Y-3936I436J165*
G01*
X-27335Y-3064D02*
X-27335Y-3335D01*
X-27064Y-3335D01*
G74*
D01*
G03X-27335Y-3064I436J165*
G01*
X-27064Y-3665D02*
X-27335Y-3665D01*
X-27335Y-3936D01*
G74*
D01*
G03X-27064Y-3665I165J436*
G01*
X-5218Y-15329D02*
G75*
D01*
G03X-5502Y-15329I-142J-142*
G01*
X-5531Y-15358D01*
G75*
D01*
G03X-5531Y-15642I142J-142*
G01*
G75*
D01*
G03X-5247Y-15642I142J142*
G01*
X-5218Y-15613D01*
G75*
D01*
G03X-5218Y-15329I-142J142*
G01*
X-24665Y-17660D02*
G75*
D01*
G03X-25760Y-16565I-535J560*
G01*
G75*
D01*
G03X-24665Y-17660I523J-572*
G01*
X-32636Y11460D02*
G75*
D01*
G03X-31540Y10364I524J-572*
G01*
G75*
D01*
G03X-32636Y11460I-560J536*
G01*
X25760Y-16565D02*
G75*
D01*
G03X24665Y-17660I-560J-535*
G01*
G75*
D01*
G03X25760Y-16565I573J523*
G01*
X20981Y-12026D02*
G75*
D01*
G03X21131Y-11876I0J150*
G01*
X21131Y-11727D01*
X20901Y-11727D01*
X20901Y-12026D01*
X20981Y-12026D01*
X14333Y-12200D02*
G75*
D01*
G03X14333Y-12200I467J0*
G01*
X16635Y-12636D02*
X16635Y-12365D01*
X16364Y-12365D01*
G74*
D01*
G03X16635Y-12636I436J165*
G01*
X17236Y-12365D02*
X16965Y-12365D01*
X16965Y-12636D01*
G74*
D01*
G03X17236Y-12365I165J436*
G01*
X18252Y-12304D02*
X18252Y-12096D01*
G74*
D01*
G03X17904Y-11748I348J0*
G01*
X17696Y-11748D01*
G75*
D01*
G03X17348Y-12096I0J-348*
G01*
X17348Y-12304D01*
G75*
D01*
G03X17696Y-12652I348J0*
G01*
X17904Y-12652D01*
G75*
D01*
G03X18252Y-12304I0J348*
G01*
X16364Y-12035D02*
X16635Y-12035D01*
X16635Y-11764D01*
G74*
D01*
G03X16364Y-12035I165J436*
G01*
X16965Y-11764D02*
X16965Y-12035D01*
X17236Y-12035D01*
G74*
D01*
G03X16965Y-11764I436J165*
G01*
X16625Y-12200D02*
G75*
D01*
G03X16625Y-12200I175J0*
G01*
X20567Y-12026D02*
X20647Y-12026D01*
X20647Y-11727D01*
X20417Y-11727D01*
X20417Y-11876D01*
G75*
D01*
G03X20567Y-12026I150J0*
G01*
X-4361Y-3996D02*
G75*
D01*
G03X-3959Y-3798I301J-104*
G01*
X-3959Y-3131D01*
X-3884Y-3131D01*
G75*
D01*
G03X-3734Y-2981I0J150*
G01*
X-3734Y-2567D01*
G74*
D01*
G03X-3884Y-2417I150J0*
G01*
X-4436Y-2417D01*
G75*
D01*
G03X-4586Y-2567I0J-150*
G01*
X-4586Y-2981D01*
G75*
D01*
G03X-4436Y-3131I150J0*
G01*
X-4361Y-3131D01*
X-4361Y-3996D01*
X19683Y-7555D02*
G75*
D01*
G03X19683Y-7555I417J0*
G01*
X19683Y-6555D02*
G75*
D01*
G03X19683Y-6555I417J0*
G01*
X19683Y-5555D02*
G75*
D01*
G03X19683Y-5555I417J0*
G01*
X19683Y-4555D02*
G75*
D01*
G03X19683Y-4555I417J0*
G01*
X19683Y-3555D02*
G75*
D01*
G03X19683Y-3555I417J0*
G01*
X26324Y12731D02*
G75*
D01*
G03X26174Y12581I0J-150*
G01*
X26174Y12501D01*
X26473Y12501D01*
X26473Y12731D01*
X26324Y12731D01*
X27026Y12581D02*
G74*
D01*
G03X26876Y12731I150J0*
G01*
X26727Y12731D01*
X26727Y12501D01*
X27026Y12501D01*
X27026Y12581D01*
X27026Y12167D02*
X27026Y12247D01*
X26727Y12247D01*
X26727Y12017D01*
X26876Y12017D01*
G75*
D01*
G03X27026Y12167I0J150*
G01*
X26174Y12167D02*
G75*
D01*
G03X26324Y12017I150J0*
G01*
X26473Y12017D01*
X26473Y12247D01*
X26174Y12247D01*
X26174Y12167D01*
X-10877Y-1000D02*
G75*
D01*
G03X-10877Y-1000I417J0*
G01*
X-10877Y1000D02*
G75*
D01*
G03X-10877Y1000I417J0*
G01*
X-10877Y2000D02*
G75*
D01*
G03X-10877Y2000I417J0*
G01*
X-10877Y3000D02*
G75*
D01*
G03X-10877Y3000I417J0*
G01*
X-10877Y4000D02*
G75*
D01*
G03X-10877Y4000I417J0*
G01*
X-10877Y5000D02*
G75*
D01*
G03X-10877Y5000I417J0*
G01*
X-10877Y6000D02*
G75*
D01*
G03X-10877Y6000I417J0*
G01*
X-10877Y7000D02*
G75*
D01*
G03X-10877Y7000I417J0*
G01*
X-12349Y13987D02*
X-12349Y20517D01*
X27197Y20517D01*
G75*
D01*
G03X27209Y20516I12J151*
G01*
G74*
D01*
G02X28308Y19418I0J1098*
G01*
G75*
D01*
G03X28308Y19406I151J0*
G01*
X28308Y17824D01*
G74*
D01*
G03X28305Y17794I151J30*
G01*
G75*
D01*
G03X32266Y13833I3961J0*
G01*
G74*
D01*
G03X32296Y13836I0J154*
G01*
X34381Y13836D01*
G75*
D01*
G03X34393Y13835I12J151*
G01*
G74*
D01*
G02X35491Y12737I0J1098*
G01*
G75*
D01*
G03X35492Y12725I152J0*
G01*
X35489Y8151D01*
X28459Y8151D01*
G75*
D01*
G03X28308Y8000I0J-151*
G01*
X28308Y0D01*
G75*
D01*
G03X28459Y-151I151J0*
G01*
X35492Y-151D01*
X35492Y-12725D01*
G74*
D01*
G03X35491Y-12737I151J12*
G01*
G75*
D01*
G02X34393Y-13835I-1098J0*
G01*
G75*
D01*
G03X34381Y-13836I0J-152*
G01*
X32296Y-13836D01*
G74*
D01*
G03X32266Y-13833I30J151*
G01*
G75*
D01*
G03X28305Y-17794I0J-3961*
G01*
G75*
D01*
G03X28308Y-17824I154J0*
G01*
X28308Y-19406D01*
G74*
D01*
G03X28308Y-19418I151J12*
G01*
G75*
D01*
G02X27209Y-20516I-1099J0*
G01*
G75*
D01*
G03X27197Y-20517I0J-152*
G01*
X20899Y-20517D01*
X20899Y-20517D01*
X20651Y-20517D01*
X20651Y-13987D01*
G74*
D01*
G03X20500Y-13836I151J0*
G01*
X12500Y-13836D01*
G75*
D01*
G03X12349Y-13987I0J-151*
G01*
X12349Y-20517D01*
X-27197Y-20517D01*
G74*
D01*
G03X-27209Y-20516I12J151*
G01*
G75*
D01*
G02X-28308Y-19418I0J1098*
G01*
G74*
D01*
G03X-28308Y-19406I151J0*
G01*
X-28308Y-17824D01*
G75*
D01*
G03X-28305Y-17794I-151J30*
G01*
G74*
D01*
G03X-32266Y-13833I3961J0*
G01*
G75*
D01*
G03X-32296Y-13836I0J-154*
G01*
X-34381Y-13836D01*
G74*
D01*
G03X-34393Y-13835I12J151*
G01*
G75*
D01*
G02X-35491Y-12737I0J1098*
G01*
G74*
D01*
G03X-35492Y-12725I152J0*
G01*
X-35491Y-11370D01*
X-35491Y-11370D01*
X-35489Y-8151D01*
X-28459Y-8151D01*
G75*
D01*
G03X-28308Y-8000I0J151*
G01*
X-28308Y0D01*
G74*
D01*
G03X-28459Y151I151J0*
G01*
X-35492Y151D01*
X-35492Y12725D01*
G75*
D01*
G03X-35491Y12737I-151J12*
G01*
G75*
D01*
G02X-34393Y13835I1098J0*
G01*
G74*
D01*
G03X-34381Y13836I0J152*
G01*
X-32296Y13836D01*
G75*
D01*
G03X-32266Y13833I30J151*
G01*
G75*
D01*
G03X-28305Y17794I0J3961*
G01*
G74*
D01*
G03X-28308Y17824I154J0*
G01*
X-28308Y19406D01*
G75*
D01*
G03X-28308Y19418I-151J12*
G01*
G75*
D01*
G02X-27209Y20516I1099J0*
G01*
G74*
D01*
G03X-27197Y20517I0J152*
G01*
X-26345Y20517D01*
X-26345Y20517D01*
X-20651Y20517D01*
X-20651Y13987D01*
G75*
D01*
G03X-20500Y13836I151J0*
G01*
X-12500Y13836D01*
G75*
D01*
G03X-12349Y13987I0J151*
G01*
X-1299Y10969D02*
X-1299Y10999D01*
X-1267Y10999D01*
G74*
D01*
G03X-1299Y10969I86J123*
G01*
X-21142Y12058D02*
X-23258Y14174D01*
X-23368Y14174D01*
X-24484Y13058D01*
G75*
D01*
G02X-24626Y12999I-142J142*
G01*
X-25447Y12999D01*
X-25959Y12487D01*
X-25959Y10023D01*
G74*
D01*
G02X-25942Y10042I159J123*
G01*
X-24042Y11942D01*
G75*
D01*
G02X-23900Y12001I142J-142*
G01*
X-21028Y12001D01*
G74*
D01*
G02X-21142Y12058I28J199*
G01*
X-25450Y2134D02*
X-25599Y2283D01*
X-25599Y9817D01*
X-23817Y11599D01*
X-23459Y11599D01*
G74*
D01*
G03X-23573Y11542I28J199*
G01*
X-25402Y9713D01*
G74*
D01*
G03X-25461Y9571I142J142*
G01*
X-25461Y2200D01*
G75*
D01*
G03X-25450Y2134I201J0*
G01*
X-7482Y-1962D02*
G75*
D01*
G03X-7399Y-1800I-118J162*
G01*
X-7399Y1317D01*
X-7317Y1399D01*
X-4169Y1399D01*
G75*
D01*
G03X-4349Y967I109J-299*
G01*
G74*
D01*
G03X-4361Y900I189J67*
G01*
X-4361Y131D01*
X-4436Y131D01*
G75*
D01*
G03X-4585Y1I0J-150*
G01*
X-5360Y1D01*
G75*
D01*
G03X-5502Y-58I0J-201*
G01*
X-5902Y-458D01*
G74*
D01*
G03X-5961Y-600I142J142*
G01*
X-5961Y-2817D01*
X-6043Y-2899D01*
X-7482Y-2899D01*
X-7482Y-2892D01*
X-7482Y-2656D01*
G74*
D01*
G03X-7632Y-2505I150J0*
G01*
X-7833Y-2505D01*
X-8044Y-2295D01*
X-7632Y-2295D01*
G75*
D01*
G03X-7482Y-2144I0J151*
G01*
X-7482Y-1962D01*
X-6001Y5606D02*
G74*
D01*
G02X-6054Y5545I136J65*
G01*
X-6054Y5455D01*
G74*
D01*
G02X-6001Y5394I83J126*
G01*
X-6001Y5606D01*
X-681Y10999D02*
G74*
D01*
G02X-617Y10876I86J123*
G01*
X-617Y10324D01*
G75*
D01*
G02X-682Y10200I-150J0*
G01*
G74*
D01*
G02X-617Y10076I85J124*
G01*
X-617Y9727D01*
X-583Y9694D01*
X-583Y10076D01*
G74*
D01*
G02X-518Y10200I150J0*
G01*
G75*
D01*
G02X-583Y10324I85J124*
G01*
X-583Y10876D01*
G74*
D01*
G02X-519Y10999I150J0*
G01*
X-681Y10999D01*
X26358Y5201D02*
G74*
D01*
G02X26201Y5358I242J399*
G01*
X26201Y5283D01*
X26283Y5201D01*
X26358Y5201D01*
X-10339Y-9399D02*
G75*
D01*
G03X-10060Y-8884I-121J399*
G01*
X-9458Y-8282D01*
G75*
D01*
G03X-9399Y-8140I-142J142*
G01*
X-9399Y-2601D01*
X-9306Y-2601D01*
G74*
D01*
G03X-9318Y-2662I138J61*
G01*
X-9318Y-2898D01*
G75*
D01*
G03X-9168Y-3049I150J0*
G01*
X-9152Y-3049D01*
X-9152Y-9068D01*
X-9483Y-9399D01*
X-10339Y-9399D01*
X-8799Y12088D02*
X-8799Y12117D01*
X-8717Y12199D01*
X-8688Y12199D01*
G74*
D01*
G03X-8799Y12088I184J295*
G01*
X-18831Y-16700D02*
X-21445Y-14085D01*
X-11660Y-16700D02*
X-18831Y-16700D01*
X-4060Y-9100D02*
X-11660Y-16700D01*
X-18460Y-15900D02*
X-20260Y-14100D01*
X-11660Y-15900D02*
X-18460Y-15900D01*
X-11660Y-15900D02*
X-8460Y-12700D01*
X-5360Y-15471D02*
X-5389Y-15500D01*
X-21960Y-13571D02*
X-21445Y-14085D01*
X-20260Y-14100D02*
X-20260Y-11400D01*
X-21960Y-11774D02*
X-21960Y-13571D01*
X-8460Y-12700D02*
X-8460Y-3600D01*
X-21160Y-11774D02*
X-21160Y-12400D01*
X-21960Y-5900D02*
X-21960Y-11026D01*
X-21160Y-11026D02*
X-20634Y-11026D01*
X-20260Y-11400D01*
X-4060Y-9100D02*
X-4060Y-5100D01*
X-21060Y-5000D02*
X-21960Y-5900D01*
X-21060Y-5000D02*
X-19460Y-5000D01*
X-4160Y-2774D02*
X-4160Y-4000D01*
X-4060Y-4100D01*
X-1060Y-4100D02*
X-760Y-3800D01*
X-760Y-2774D01*
X-8460Y-3600D02*
X-7960Y-3100D01*
X-5960Y-3100D01*
X-5760Y-2900D01*
X-5760Y-600D01*
X-4160Y-2026D02*
X-4160Y-974D01*
X-4205Y-1981D02*
X-4160Y-2026D01*
X-760Y-2026D02*
X-760Y-974D01*
X-20434Y-974D02*
X-19460Y0D01*
X-26660Y1474D02*
X-24960Y-226D01*
X-24060Y0D02*
X-26160Y2100D01*
X-20460Y0D02*
X-24060Y0D01*
X-19460Y1000D02*
X-20460Y0D01*
X-5760Y-600D02*
X-5360Y-200D01*
X-4186Y-200D01*
X-4160Y-226D02*
X-4160Y900D01*
X-4060Y1000D02*
X-4160Y900D01*
X-4186Y-200D02*
X-4160Y-226D01*
X-760Y-226D02*
X-760Y800D01*
X-1060Y1100D01*
X-24660Y1600D02*
X-25260Y2200D01*
X-20860Y1600D02*
X-24660Y1600D01*
X-19460Y3000D02*
X-20860Y1600D01*
X-4060Y1100D02*
X-4060Y1000D01*
X-23847Y6600D02*
X-24221Y6974D01*
X-24260Y7200D02*
X-24260Y7000D01*
X-23119Y6600D02*
X-23847Y6600D01*
X-23119Y6980D02*
X-19480Y6980D01*
X-19460Y7000D01*
X-24960Y-974D02*
X-20434Y-974D01*
X-24221Y6226D02*
X-24200Y6226D01*
X-24200Y5600D01*
X-24200Y-400D02*
X-24500Y-400D01*
X-24700Y-400D01*
X-24774Y-226D01*
X-24960Y-226D01*
X-24760Y7600D02*
X-24660Y7600D01*
X-24630Y7570D02*
X-24260Y7200D01*
X-26160Y2100D02*
X-26160Y12571D01*
X-26660Y13071D02*
X-26660Y1474D01*
X-25260Y2200D02*
X-25260Y9571D01*
X-26131Y13600D02*
X-26660Y13071D01*
X-26131Y13600D02*
X-24974Y13600D01*
X-23974Y14600D01*
X-26160Y12571D02*
X-25531Y13200D01*
X-24626Y13200D01*
X-23226Y14600D01*
X-23226Y14426D02*
X-23226Y14600D01*
X-23974Y14600D02*
X-23974Y14726D01*
X-17100Y12900D02*
X-17000Y12800D01*
X-21829Y15100D02*
X-21800Y15071D01*
X-21800Y13829D01*
X-23974Y14726D02*
X-23600Y15100D01*
X-21829Y15100D01*
X-17129Y13500D02*
X-17100Y13471D01*
X-21800Y13829D02*
X-21471Y13500D01*
X-17100Y13471D02*
X-17100Y12900D01*
X-21471Y13500D02*
X-17129Y13500D01*
X-8145Y5000D02*
X-6255Y5000D01*
X-8145Y7200D02*
X-6255Y7200D01*
X-7200Y5000D02*
X-7200Y7200D01*
X-8145Y5750D02*
X-9350Y5750D01*
X-9800Y6200D01*
X-9800Y9000D01*
X-10300Y9500D01*
X-10700Y9500D01*
X-15200Y5000D01*
X-19460Y5000D01*
X-8145Y7950D02*
X-9550Y7950D01*
X-9550Y9050D01*
X-10200Y9700D01*
X-11400Y9700D01*
X-15100Y6000D01*
X-19460Y6000D01*
X-8145Y4250D02*
X-8145Y3745D01*
X-8600Y7500D02*
X-8400Y7700D01*
X-7300Y7700D01*
X-4400Y10600D01*
X-4400Y11800D01*
X-6255Y7950D02*
X-6255Y7200D01*
X-6255Y5750D02*
X-6255Y5000D01*
X-8571Y6450D02*
X-8600Y6479D01*
X-8145Y6450D02*
X-8571Y6450D01*
X-8600Y6479D02*
X-8600Y7500D01*
X-13400Y0D02*
X-10460Y0D01*
X-8800Y-2020D02*
X-8951Y-2020D01*
X-760Y-974D02*
X-934Y-800D01*
X-1200Y-800D01*
X-1400Y-600D01*
X-1400Y1400D01*
X-1600Y1600D01*
X-7400Y1600D01*
X-7600Y1400D01*
X-7600Y-1800D01*
X-7623Y-1800D01*
X-7849Y-2026D01*
X-9400Y-9600D02*
X-13600Y-9600D01*
X-13800Y-9400D01*
X-13800Y3400D01*
X-14000Y3600D01*
X-19400Y3600D01*
X-19460Y3660D01*
X-19460Y4000D01*
X-17000Y12800D02*
X-16200Y13600D01*
X25426Y12374D02*
X27026Y12374D01*
X27026Y8774D02*
X27026Y12374D01*
X27026Y8774D02*
X27900Y7900D01*
X-4160Y-1500D02*
X-760Y-1500D01*
X500Y10600D02*
X-226Y10600D01*
X-974Y10600D02*
X-1500Y10600D01*
X-1500Y11100D01*
X-1400Y11200D01*
X16200Y11200D01*
X21100Y6300D01*
X21100Y4094D01*
X20092Y3086D01*
X20700Y1478D02*
X20700Y-1955D01*
X20100Y-2555D01*
X-25260Y9571D02*
X-23431Y11400D01*
X25100Y-10200D02*
X24300Y-11000D01*
X17000Y-11000D01*
X15800Y-12200D01*
X27900Y-10200D02*
X27900Y7900D01*
X17000Y-12400D02*
X16800Y-12200D01*
X27800Y5200D02*
X27900Y5100D01*
X20026Y-11600D02*
X20026Y-11026D01*
X20000Y-11000D01*
X20800Y-11626D02*
X20774Y-11600D01*
X17029Y-12900D02*
X17000Y-12871D01*
X17000Y-12400D01*
X25200Y-12900D02*
X20800Y-12900D01*
X27900Y-10200D02*
X25200Y-12900D01*
X20771Y-12900D02*
X20800Y-12871D01*
X20800Y-11626D01*
X20771Y-12900D02*
X17029Y-12900D01*
X-19460Y2000D02*
X-19460Y1940D01*
X-20700Y700D01*
X-24300Y700D01*
X-25800Y2200D01*
X-25800Y9900D01*
X-23900Y11800D01*
X-21000Y12200D02*
X-16600Y12200D01*
X-16000Y12800D01*
X-23226Y14426D02*
X-21000Y12200D01*
X18100Y19700D02*
X25426Y12374D01*
X16800Y18700D02*
X25100Y10400D01*
X25100Y-10200D01*
X17200Y19300D02*
X24874Y11626D01*
X26600Y11626D01*
X-8951Y-2780D02*
X-8951Y-9151D01*
X-9400Y-9600D01*
X-10460Y-9000D02*
X-9600Y-8140D01*
X-9600Y-2400D01*
X-1060Y-5100D02*
X13200Y-5100D01*
X18386Y86D01*
X20092Y86D01*
X-6255Y4250D02*
X-5850Y4250D01*
X-5800Y4300D01*
X-5800Y5900D01*
X-6255Y6450D02*
X-6255Y6355D01*
X-5800Y5900D01*
X-9000Y-1500D02*
X-9000Y-2000D01*
X-9600Y-2400D02*
X-8223Y-2400D01*
X-7849Y-2774D01*
X-23100Y5600D02*
X-23100Y6201D01*
X-23119Y6220D01*
X20092Y4086D02*
X19914Y4086D01*
X19800Y4200D01*
X3100Y4229D02*
X3129Y4200D01*
X19800Y4200D02*
X3129Y4200D01*
X-8145Y3745D02*
X-7800Y3400D01*
X18778Y3400D01*
X20700Y1478D01*
X-760Y-2774D02*
X-374Y-2774D01*
X300Y-2100D01*
X300Y2900D01*
X300Y3800D02*
X300Y8526D01*
X-974Y9800D01*
X3100Y4229D02*
X3100Y6474D01*
X-226Y9800D01*
X-11700Y13600D02*
X-5600Y19700D01*
X18100Y19700D01*
X-16200Y13600D02*
X-11700Y13600D01*
X-11300Y13300D02*
X-5300Y19300D01*
X-13366Y11800D02*
X-11866Y13300D01*
X-23900Y11800D02*
X-13366Y11800D01*
X-13483Y11400D02*
X-11883Y13000D01*
X-23431Y11400D02*
X-13483Y11400D01*
X-11866Y13300D02*
X-11300Y13300D01*
X-5300Y19300D02*
X17200Y19300D01*
X-11100Y13000D02*
X-5400Y18700D01*
X-11883Y13000D02*
X-11100Y13000D01*
X-5400Y18700D02*
X16800Y18700D01*
X27900Y3600D02*
X26600Y3600D01*
X26000Y11626D02*
X26000Y5200D01*
X26200Y5000D01*
X26400Y5000D01*
X26600Y4800D01*
X26600Y4600D01*
X-19460Y-1000D02*
X-19660Y-1200D01*
X-21400Y-1200D01*
X-21600Y-1400D01*
X-21600Y-5000D01*
X-21800Y-5200D01*
X-27200Y-5200D01*
X-27500Y-5500D01*
X-24960Y-226D02*
X-25134Y-400D01*
X-25200Y-400D01*
X-25400Y-600D01*
X-25400Y-3000D01*
X-25600Y-3200D01*
X-27200Y-3200D01*
X-27500Y-3500D01*
X-24960Y-974D02*
X-25186Y-1200D01*
X-25200Y-1200D01*
X-25200Y-4000D01*
X-25400Y-4200D01*
X-27200Y-4200D01*
X-27500Y-4500D01*
X-3400Y11800D02*
X-3400Y12000D01*
X-3800Y12400D01*
X-8800Y12400D01*
X-9000Y12200D01*
X-9000Y10600D01*
X-9200Y10400D01*
X-23800Y10400D01*
X-24000Y10200D01*
X-24000Y7195D01*
X-24221Y6974D01*
G54D12*
X-35743Y-20768D02*
X-35743Y-16614D01*
X-35743Y-20768D02*
X-28594Y-20768D01*
X35743Y-20768D02*
X28594Y-20768D01*
X35743Y-20768D02*
X35743Y-16614D01*
X35743Y20768D02*
X35743Y16614D01*
X35743Y20768D02*
X28594Y20768D01*
X-35743Y20768D02*
X-28594Y20768D01*
X-35743Y20768D02*
X-35743Y16614D01*
X-37711Y-20768D02*
X-41648Y-20768D01*
X-39680Y-22736D02*
X-39680Y-18799D01*
X-41156Y-20768D02*
G75*
D01*
G02X-41156Y-20768I1476J0*
G01*
X37711Y-20768D02*
X41648Y-20768D01*
X39680Y-22736D02*
X39680Y-18799D01*
X38203Y-20768D02*
G75*
D01*
G02X38203Y-20768I1477J0*
G01*
X39188Y-20768D02*
G75*
D01*
G02X39188Y-20768I492J0*
G01*
X-37711Y20768D02*
X-41648Y20768D01*
X-39680Y18799D02*
X-39680Y22736D01*
X-41156Y20768D02*
G75*
D01*
G02X-41156Y20768I1476J0*
G01*
X-40664Y20768D02*
G75*
D01*
G02X-40664Y20768I984J0*
G01*
X-40172Y20768D02*
G75*
D01*
G02X-40172Y20768I492J0*
G01*
G54D13*
X-21160Y-12400D03*
X-24760Y7600D03*
X-24200Y5600D03*
X-24200Y-400D03*
X-7200Y6100D03*
X-13400Y0D03*
X500Y10600D03*
X-5800Y4300D03*
X-9000Y-1500D03*
X-23100Y5600D03*
X300Y2900D03*
X300Y3800D03*
G54D14*
X-21960Y-11774D03*
X-21960Y-11026D03*
X-21160Y-11774D03*
X-21160Y-11026D03*
X-4160Y-2774D03*
X-4160Y-2026D03*
X-24960Y-974D03*
X-24960Y-226D03*
X-4160Y-974D03*
X-4160Y-226D03*
X26600Y12374D03*
X26600Y11626D03*
X-760Y-974D03*
X-760Y-226D03*
X-760Y-2774D03*
X-760Y-2026D03*
G54D15*
X-10460Y-9000D03*
X-10460Y-8000D03*
X-10460Y-7000D03*
X-10460Y-6000D03*
X-10460Y-5000D03*
X-10460Y-4000D03*
X-10460Y-3000D03*
X-10460Y-2000D03*
X-10460Y-1000D03*
X-10460Y0D03*
X-10460Y1000D03*
X-10460Y2000D03*
X-10460Y3000D03*
X-10460Y4000D03*
X-10460Y5000D03*
X-10460Y6000D03*
X-10460Y7000D03*
X-10460Y8000D03*
X-10460Y9000D03*
X-19460Y-9000D03*
X-19460Y-8000D03*
X-19460Y-7000D03*
X-19460Y-6000D03*
X-19460Y-5000D03*
X-19460Y-4000D03*
X-19460Y-3000D03*
X-19460Y-2000D03*
X-19460Y-1000D03*
X-19460Y0D03*
X-19460Y1000D03*
X-19460Y2000D03*
X-19460Y3000D03*
X-19460Y4000D03*
X-19460Y5000D03*
X-19460Y6000D03*
X-19460Y7000D03*
X-19460Y8000D03*
X-19460Y9000D03*
X20100Y-1555D03*
X20100Y-2555D03*
X20100Y-3555D03*
X20100Y-4555D03*
X20100Y-5555D03*
X20100Y-6555D03*
X20100Y-7555D03*
X20100Y-8555D03*
X20092Y86D03*
X20092Y1086D03*
X20092Y2086D03*
X20092Y3086D03*
X20092Y4086D03*
X20092Y5086D03*
G54D16*
X-4060Y-4100D03*
X-4060Y-5100D03*
X-1060Y-4100D03*
X-1060Y-5100D03*
X-1060Y1100D03*
X-1060Y2100D03*
X-4060Y1100D03*
X-4060Y2100D03*
G54D17*
X-24221Y6226D03*
X-23119Y6220D03*
X-24221Y6974D03*
X-23119Y6980D03*
X-23119Y6600D03*
X-8951Y-2400D03*
X-8951Y-2780D03*
X-7849Y-2774D03*
X-8951Y-2020D03*
X-7849Y-2026D03*
G54D18*
X-23974Y14600D03*
X-23226Y14600D03*
X-974Y10600D03*
X-226Y10600D03*
X20026Y-11600D03*
X20774Y-11600D03*
X-226Y9800D03*
X-974Y9800D03*
G54D19*
X-16000Y12800D03*
X-17000Y12800D03*
X-15000Y12800D03*
X-7400Y11800D03*
X-6400Y11800D03*
X-4400Y11800D03*
X-5400Y11800D03*
X-3400Y11800D03*
X15800Y-12200D03*
X16800Y-12200D03*
X14800Y-12200D03*
X26600Y4600D03*
X26600Y3600D03*
X26600Y5600D03*
X-27500Y-4500D03*
X-27500Y-3500D03*
X-27500Y-5500D03*
G54D20*
X-18000Y12800D03*
X-8400Y11800D03*
X17800Y-12200D03*
X26600Y2600D03*
X-27500Y-2500D03*
G54D21*
X-18104Y12696D02*
X-17896Y12696D01*
X-17896Y12904D01*
X-18104Y12904D01*
X-18104Y12696D01*D02*
X-8504Y11696D02*
X-8296Y11696D01*
X-8296Y11904D01*
X-8504Y11904D01*
X-8504Y11696D01*D02*
X17696Y-12304D02*
X17904Y-12304D01*
X17904Y-12096D01*
X17696Y-12096D01*
X17696Y-12304D01*D02*
X26496Y2496D02*
X26704Y2496D01*
X26704Y2704D01*
X26496Y2704D01*
X26496Y2496D01*D02*
X-27604Y-2604D02*
X-27396Y-2604D01*
X-27396Y-2396D01*
X-27604Y-2396D01*
X-27604Y-2604D01*D02*
G54D22*
X-6255Y7200D03*
X-8145Y7200D03*
X-6255Y5000D03*
X-8145Y5000D03*
G54D23*
X-6255Y7950D03*
X-8145Y7950D03*
X-6255Y6450D03*
X-8145Y6450D03*
X-6255Y5750D03*
X-8145Y5750D03*
X-6255Y4250D03*
X-8145Y4250D03*

M02*
