G04 Generated by Ultiboard 14.2 *
%FSLAX24Y24*%
%MOIN*%

%ADD10C,0.0001*%
%ADD11C,0.0050*%
%ADD12C,0.0394*%
%ADD13R,0.0551X0.0413*%
%ADD14C,0.0534*%
%ADD15C,0.0337*%
%ADD16R,0.0433X0.0236*%
%ADD17R,0.0413X0.0551*%
%ADD18C,0.0633*%
%ADD19R,0.0208X0.0208*%
%ADD20C,0.0392*%
%ADD21R,0.0236X0.0657*%
%ADD22R,0.0236X0.0157*%
%ADD23C,0.1378*%
%ADD24C,0.1250*%


G04 ColorRGB FF00CC for the following layer *
%LNSolder Mask Top*%
%LPD*%
G54D10*
G54D11*
X-35743Y-20768D02*
X-35743Y-16614D01*
X-35743Y-20768D02*
X-28594Y-20768D01*
X35743Y-20768D02*
X28594Y-20768D01*
X35743Y-20768D02*
X35743Y-16614D01*
X35743Y20768D02*
X35743Y16614D01*
X35743Y20768D02*
X28594Y20768D01*
X-35743Y20768D02*
X-28594Y20768D01*
X-35743Y20768D02*
X-35743Y16614D01*
X-37711Y-20768D02*
X-41648Y-20768D01*
X-39680Y-22736D02*
X-39680Y-18799D01*
X-41156Y-20768D02*
G75*
D01*
G02X-41156Y-20768I1476J0*
G01*
X37711Y-20768D02*
X41648Y-20768D01*
X39680Y-22736D02*
X39680Y-18799D01*
X38203Y-20768D02*
G75*
D01*
G02X38203Y-20768I1477J0*
G01*
X39188Y-20768D02*
G75*
D01*
G02X39188Y-20768I492J0*
G01*
X-37711Y20768D02*
X-41648Y20768D01*
X-39680Y18799D02*
X-39680Y22736D01*
X-41156Y20768D02*
G75*
D01*
G02X-41156Y20768I1476J0*
G01*
X-40664Y20768D02*
G75*
D01*
G02X-40664Y20768I984J0*
G01*
X-40172Y20768D02*
G75*
D01*
G02X-40172Y20768I492J0*
G01*
G54D12*
X-21160Y-12400D03*
X-24760Y7600D03*
X-24200Y5600D03*
X-24200Y-400D03*
X-7200Y6100D03*
X-13400Y0D03*
X500Y10600D03*
X-5800Y4300D03*
X-9000Y-1500D03*
X-23100Y5600D03*
X300Y2900D03*
X300Y3800D03*
G54D13*
X-21960Y-11774D03*
X-21960Y-11026D03*
X-21160Y-11774D03*
X-21160Y-11026D03*
X-4160Y-2774D03*
X-4160Y-2026D03*
X-24960Y-974D03*
X-24960Y-226D03*
X-4160Y-974D03*
X-4160Y-226D03*
X26600Y12374D03*
X26600Y11626D03*
X-760Y-974D03*
X-760Y-226D03*
X-760Y-2774D03*
X-760Y-2026D03*
G54D14*
X-10460Y-9000D03*
X-10460Y-8000D03*
X-10460Y-7000D03*
X-10460Y-6000D03*
X-10460Y-5000D03*
X-10460Y-4000D03*
X-10460Y-3000D03*
X-10460Y-2000D03*
X-10460Y-1000D03*
X-10460Y0D03*
X-10460Y1000D03*
X-10460Y2000D03*
X-10460Y3000D03*
X-10460Y4000D03*
X-10460Y5000D03*
X-10460Y6000D03*
X-10460Y7000D03*
X-10460Y8000D03*
X-10460Y9000D03*
X-19460Y-9000D03*
X-19460Y-8000D03*
X-19460Y-7000D03*
X-19460Y-6000D03*
X-19460Y-5000D03*
X-19460Y-4000D03*
X-19460Y-3000D03*
X-19460Y-2000D03*
X-19460Y-1000D03*
X-19460Y0D03*
X-19460Y1000D03*
X-19460Y2000D03*
X-19460Y3000D03*
X-19460Y4000D03*
X-19460Y5000D03*
X-19460Y6000D03*
X-19460Y7000D03*
X-19460Y8000D03*
X-19460Y9000D03*
X20100Y-1555D03*
X20100Y-2555D03*
X20100Y-3555D03*
X20100Y-4555D03*
X20100Y-5555D03*
X20100Y-6555D03*
X20100Y-7555D03*
X20100Y-8555D03*
X20092Y86D03*
X20092Y1086D03*
X20092Y2086D03*
X20092Y3086D03*
X20092Y4086D03*
X20092Y5086D03*
G54D15*
X-4060Y-4100D03*
X-4060Y-5100D03*
X-1060Y-4100D03*
X-1060Y-5100D03*
X-1060Y1100D03*
X-1060Y2100D03*
X-4060Y1100D03*
X-4060Y2100D03*
G54D16*
X-24221Y6226D03*
X-23119Y6220D03*
X-24221Y6974D03*
X-23119Y6980D03*
X-23119Y6600D03*
X-8951Y-2400D03*
X-8951Y-2780D03*
X-7849Y-2774D03*
X-8951Y-2020D03*
X-7849Y-2026D03*
G54D17*
X-23974Y14600D03*
X-23226Y14600D03*
X-974Y10600D03*
X-226Y10600D03*
X20026Y-11600D03*
X20774Y-11600D03*
X-226Y9800D03*
X-974Y9800D03*
G54D18*
X-16000Y12800D03*
X-17000Y12800D03*
X-15000Y12800D03*
X-7400Y11800D03*
X-6400Y11800D03*
X-4400Y11800D03*
X-5400Y11800D03*
X-3400Y11800D03*
X15800Y-12200D03*
X16800Y-12200D03*
X14800Y-12200D03*
X26600Y4600D03*
X26600Y3600D03*
X26600Y5600D03*
X-27500Y-4500D03*
X-27500Y-3500D03*
X-27500Y-5500D03*
G54D19*
X-18000Y12800D03*
X-8400Y11800D03*
X17800Y-12200D03*
X26600Y2600D03*
X-27500Y-2500D03*
G54D20*
X-18104Y12696D02*
X-17896Y12696D01*
X-17896Y12904D01*
X-18104Y12904D01*
X-18104Y12696D01*D02*
X-8504Y11696D02*
X-8296Y11696D01*
X-8296Y11904D01*
X-8504Y11904D01*
X-8504Y11696D01*D02*
X17696Y-12304D02*
X17904Y-12304D01*
X17904Y-12096D01*
X17696Y-12096D01*
X17696Y-12304D01*D02*
X26496Y2496D02*
X26704Y2496D01*
X26704Y2704D01*
X26496Y2704D01*
X26496Y2496D01*D02*
X-27604Y-2604D02*
X-27396Y-2604D01*
X-27396Y-2396D01*
X-27604Y-2396D01*
X-27604Y-2604D01*D02*
G54D21*
X-6255Y7200D03*
X-8145Y7200D03*
X-6255Y5000D03*
X-8145Y5000D03*
G54D22*
X-6255Y7950D03*
X-8145Y7950D03*
X-6255Y6450D03*
X-8145Y6450D03*
X-6255Y5750D03*
X-8145Y5750D03*
X-6255Y4250D03*
X-8145Y4250D03*
G54D23*
X20092Y-9795D03*
X3596Y17665D03*
G54D24*
X32100Y-10900D03*
X32100Y10900D03*
X25200Y17200D03*
X-32100Y10900D03*
X-32100Y-10900D03*
X-25200Y-17100D03*
X25200Y-17100D03*
X-25200Y17200D03*

M02*
