G04 Generated by Ultiboard 14.2 *
%FSLAX24Y24*%
%MOIN*%

%ADD10C,0.0001*%
%ADD11C,0.0100*%
%ADD12C,0.0050*%
%ADD13C,0.0394*%
%ADD14C,0.1750*%
%ADD15C,0.0337*%
%ADD16C,0.0633*%
%ADD17R,0.0208X0.0208*%
%ADD18C,0.0392*%
%ADD19C,0.0534*%
%ADD20C,0.1518*%
%ADD21R,0.1430X0.1430*%
%ADD22C,0.1124*%
%ADD23C,0.0740*%


G04 ColorRGB 0000FF for the following layer *
%LNCopper Bottom*%
%LPD*%
G54D10*
G36*
X28809Y-8000D02*
X28809Y-8000D01*
X28809Y0D01*
G75*
D01*
G02X28960Y151I151J0*
G01*
X28960Y151D01*
X35489Y151D01*
X35489Y8000D01*
X35489Y8000D01*
X35489Y8000D01*
X35492Y12725D01*
G75*
D01*
G02X35491Y12737I151J12*
G01*
G74*
D01*
G03X34393Y13835I1098J0*
G01*
G75*
D01*
G02X34381Y13836I0J152*
G01*
X34381Y13836D01*
X32296Y13836D01*
G74*
D01*
G02X32266Y13833I30J151*
G01*
G75*
D01*
G02X28305Y17794I0J3961*
G01*
G74*
D01*
G02X28308Y17824I154J0*
G01*
X28308Y17824D01*
X28308Y19406D01*
G75*
D01*
G02X28308Y19418I151J12*
G01*
G74*
D01*
G03X27209Y20516I1099J0*
G01*
G75*
D01*
G02X27197Y20517I0J152*
G01*
X27197Y20517D01*
X-4349Y20517D01*
X-4349Y13987D01*
G75*
D01*
G02X-4500Y13836I-151J0*
G01*
X-4500Y13836D01*
X-12500Y13836D01*
G75*
D01*
G02X-12651Y13987I0J151*
G01*
X-12651Y13987D01*
X-12651Y20517D01*
X-16896Y20517D01*
X-16896Y20517D01*
X-20500Y20517D01*
X-20500Y20517D01*
X-20500Y20517D01*
X-26345Y20517D01*
X-26345Y20517D01*
X-27197Y20517D01*
G74*
D01*
G02X-27209Y20516I12J151*
G01*
G75*
D01*
G03X-28308Y19418I0J-1098*
G01*
G75*
D01*
G02X-28308Y19406I-151J0*
G01*
X-28308Y19406D01*
X-28308Y17824D01*
G74*
D01*
G02X-28305Y17794I151J30*
G01*
G75*
D01*
G02X-32266Y13833I-3961J0*
G01*
G75*
D01*
G02X-32296Y13836I0J154*
G01*
X-32296Y13836D01*
X-34381Y13836D01*
G74*
D01*
G02X-34393Y13835I12J151*
G01*
G75*
D01*
G03X-35491Y12737I0J-1098*
G01*
G75*
D01*
G02X-35492Y12725I-152J0*
G01*
X-35492Y12725D01*
X-35492Y151D01*
X-28459Y151D01*
G74*
D01*
G02X-28308Y0I0J151*
G01*
X-28308Y0D01*
X-28308Y-8000D01*
G75*
D01*
G02X-28459Y-8151I-151J0*
G01*
X-28459Y-8151D01*
X-35489Y-8151D01*
X-35491Y-11370D01*
X-35491Y-11370D01*
X-35492Y-12725D01*
G74*
D01*
G02X-35491Y-12737I151J12*
G01*
G75*
D01*
G03X-34393Y-13835I1098J0*
G01*
G74*
D01*
G02X-34381Y-13836I0J152*
G01*
X-34381Y-13836D01*
X-32296Y-13836D01*
G75*
D01*
G02X-32266Y-13833I30J-151*
G01*
G74*
D01*
G02X-28305Y-17794I0J3961*
G01*
G75*
D01*
G02X-28308Y-17824I-154J0*
G01*
X-28308Y-17824D01*
X-28308Y-19406D01*
G74*
D01*
G02X-28308Y-19418I151J12*
G01*
G75*
D01*
G03X-27209Y-20516I1099J0*
G01*
G74*
D01*
G02X-27197Y-20517I0J152*
G01*
X-27197Y-20517D01*
X-12651Y-20517D01*
X-12651Y-13988D01*
G75*
D01*
G02X-12500Y-13837I151J0*
G01*
X-12500Y-13837D01*
X-4500Y-13837D01*
G74*
D01*
G02X-4349Y-13988I0J151*
G01*
X-4349Y-13988D01*
X-4349Y-20517D01*
X0Y-20517D01*
X0Y-20517D01*
X0Y-20517D01*
X2001Y-20517D01*
X2001Y-20517D01*
X4296Y-20517D01*
X4296Y-20517D01*
X4296Y-20517D01*
X11450Y-20517D01*
X11450Y-20517D01*
X12500Y-20517D01*
X12500Y-20517D01*
X12500Y-20517D01*
X20500Y-20517D01*
X20899Y-20517D01*
X20899Y-20517D01*
X27197Y-20517D01*
G75*
D01*
G02X27209Y-20516I12J-151*
G01*
G75*
D01*
G03X28308Y-19418I0J1098*
G01*
G74*
D01*
G02X28308Y-19406I151J0*
G01*
X28308Y-19406D01*
X28308Y-17824D01*
G75*
D01*
G02X28305Y-17794I151J30*
G01*
G75*
D01*
G02X32266Y-13833I3961J0*
G01*
G74*
D01*
G02X32296Y-13836I0J154*
G01*
X32296Y-13836D01*
X34381Y-13836D01*
G75*
D01*
G02X34393Y-13835I12J-151*
G01*
G74*
D01*
G03X35489Y-12808I0J1098*
G01*
X35489Y-12806D01*
X35489Y-12806D01*
X35489Y-8151D01*
X28960Y-8151D01*
G75*
D01*
G02X28809Y-8000I0J151*
G01*
D02*
G37*
%LPC*%
G36*
X22058Y-11370D02*
G75*
D01*
G02X22058Y-11370I42J415*
G01*
D02*
G37*
G36*
X-7129Y-1921D02*
G75*
D01*
G02X-7129Y-1921I229J221*
G01*
D02*
G37*
G36*
X-10129Y-1921D02*
G75*
D01*
G02X-10129Y-1921I229J221*
G01*
D02*
G37*
G36*
X-7999Y-11317D02*
G75*
D01*
G02X-8024Y-11899I-201J-283*
G01*
X-8024Y-11899D01*
X-6200Y-11899D01*
G75*
D01*
G02X-6058Y-11958I0J-201*
G01*
X-6058Y-11958D01*
X-5017Y-12999D01*
X-4100Y-12999D01*
G75*
D01*
G02X-3958Y-13058I0J-201*
G01*
X-3958Y-13058D01*
X-2643Y-14373D01*
G75*
D01*
G02X-2584Y-14515I-142J-142*
G01*
X-2584Y-14515D01*
X-2584Y-18199D01*
X26199Y-18199D01*
X26199Y-17502D01*
G74*
D01*
G02X25540Y-18120I959J362*
G01*
X25540Y-18120D01*
X25540Y-17688D01*
G75*
D01*
G02X24940Y-17688I-300J548*
G01*
X24940Y-17688D01*
X24940Y-18120D01*
G74*
D01*
G02X24260Y-17440I300J980*
G01*
X24260Y-17440D01*
X24692Y-17440D01*
G75*
D01*
G02X24692Y-16840I548J300*
G01*
X24692Y-16840D01*
X24260Y-16840D01*
G74*
D01*
G02X24940Y-16160I980J300*
G01*
X24940Y-16160D01*
X24940Y-16592D01*
G75*
D01*
G02X25540Y-16592I300J-548*
G01*
X25540Y-16592D01*
X25540Y-16160D01*
G74*
D01*
G02X26199Y-16778I300J980*
G01*
X26199Y-16778D01*
X26199Y-15300D01*
G75*
D01*
G02X26258Y-15158I201J0*
G01*
X26258Y-15158D01*
X29358Y-12058D01*
G75*
D01*
G02X29500Y-11999I142J-142*
G01*
X29500Y-11999D01*
X32999Y-11999D01*
X32999Y-11400D01*
G74*
D01*
G02X32410Y-11870I889J510*
G01*
X32410Y-11870D01*
X32410Y-11438D01*
G75*
D01*
G02X31810Y-11438I-300J548*
G01*
X31810Y-11438D01*
X31810Y-11870D01*
G74*
D01*
G02X31130Y-11190I300J980*
G01*
X31130Y-11190D01*
X31562Y-11190D01*
G75*
D01*
G02X31562Y-10590I548J300*
G01*
X31562Y-10590D01*
X31130Y-10590D01*
G74*
D01*
G02X31810Y-9910I980J300*
G01*
X31810Y-9910D01*
X31810Y-10342D01*
G75*
D01*
G02X32410Y-10342I300J-548*
G01*
X32410Y-10342D01*
X32410Y-9910D01*
G74*
D01*
G02X32999Y-10380I300J980*
G01*
X32999Y-10380D01*
X32999Y-9201D01*
X29271Y-9201D01*
G75*
D01*
G02X29209Y-9191I0J201*
G01*
G74*
D01*
G02X29129Y-9142I62J191*
G01*
X29129Y-9142D01*
X28117Y-8130D01*
X27459Y-8130D01*
G75*
D01*
G02X27501Y-7728I-259J230*
G01*
X27501Y-7728D01*
X28200Y-7728D01*
G75*
D01*
G02X28342Y-7787I0J-201*
G01*
X28342Y-7787D01*
X29354Y-8799D01*
X33171Y-8799D01*
G74*
D01*
G02X33313Y-8858I0J201*
G01*
X33313Y-8858D01*
X33342Y-8887D01*
G74*
D01*
G02X33401Y-9029I142J142*
G01*
X33401Y-9029D01*
X33401Y-12171D01*
G75*
D01*
G02X33342Y-12313I-201J0*
G01*
X33342Y-12313D01*
X33313Y-12342D01*
G74*
D01*
G02X33221Y-12394I142J142*
G01*
G75*
D01*
G02X33170Y-12401I-50J194*
G01*
X33170Y-12401D01*
X29583Y-12401D01*
X26601Y-15383D01*
X26601Y-18371D01*
G75*
D01*
G02X26542Y-18513I-201J0*
G01*
X26542Y-18513D01*
X26513Y-18542D01*
G74*
D01*
G02X26371Y-18601I142J142*
G01*
X26371Y-18601D01*
X-2756Y-18601D01*
G75*
D01*
G02X-2807Y-18594I0J201*
G01*
G74*
D01*
G02X-2898Y-18542I51J194*
G01*
X-2898Y-18542D01*
X-2927Y-18513D01*
G75*
D01*
G02X-2986Y-18371I142J142*
G01*
X-2986Y-18371D01*
X-2986Y-14598D01*
X-4183Y-13401D01*
X-5100Y-13401D01*
G75*
D01*
G02X-5242Y-13342I0J201*
G01*
X-5242Y-13342D01*
X-6283Y-12301D01*
X-12246Y-12301D01*
X-13099Y-13154D01*
X-13099Y-13243D01*
G74*
D01*
G02X-13042Y-13128I199J28*
G01*
X-13042Y-13128D01*
X-12968Y-13054D01*
G74*
D01*
G02X-12891Y-13006I142J142*
G01*
G75*
D01*
G02X-12825Y-12995I65J-190*
G01*
X-12825Y-12995D01*
X-10518Y-12995D01*
G75*
D01*
G02X-10518Y-13397I422J-201*
G01*
X-10518Y-13397D01*
X-12699Y-13397D01*
X-12699Y-18570D01*
G75*
D01*
G02X-12758Y-18713I-201J-1*
G01*
X-12758Y-18713D01*
X-14487Y-20442D01*
G74*
D01*
G02X-14563Y-20490I142J142*
G01*
G74*
D01*
G02X-14629Y-20501I66J190*
G01*
X-14629Y-20501D01*
X-16900Y-20501D01*
G75*
D01*
G02X-17042Y-20442I0J201*
G01*
X-17042Y-20442D01*
X-17383Y-20101D01*
X-25700Y-20101D01*
G75*
D01*
G02X-25842Y-20042I0J201*
G01*
X-25842Y-20042D01*
X-26345Y-19539D01*
X-26345Y-19539D01*
X-27642Y-18242D01*
G75*
D01*
G02X-27701Y-18100I142J142*
G01*
X-27701Y-18100D01*
X-27701Y-16083D01*
X-30383Y-13401D01*
X-34000Y-13401D01*
G75*
D01*
G02X-34018Y-13400I0J201*
G01*
G74*
D01*
G02X-34142Y-13342I18J200*
G01*
X-34142Y-13342D01*
X-34842Y-12642D01*
G75*
D01*
G02X-34901Y-12500I142J142*
G01*
X-34901Y-12500D01*
X-34901Y-8700D01*
G74*
D01*
G02X-34842Y-8558I201J0*
G01*
X-34842Y-8558D01*
X-34792Y-8508D01*
G75*
D01*
G02X-34650Y-8449I142J-142*
G01*
X-34650Y-8449D01*
X-28233Y-8449D01*
X-28001Y-8217D01*
X-28001Y-5421D01*
G75*
D01*
G02X-27599Y-5421I201J421*
G01*
X-27599Y-5421D01*
X-27599Y-8116D01*
G74*
D01*
G02X-27523Y-8076I199J284*
G01*
X-27523Y-8076D01*
X-27523Y-8277D01*
X-27599Y-8277D01*
X-27599Y-8300D01*
G75*
D01*
G02X-27658Y-8442I-201J0*
G01*
X-27658Y-8442D01*
X-28008Y-8792D01*
G75*
D01*
G02X-28150Y-8851I-142J142*
G01*
X-28150Y-8851D01*
X-34499Y-8851D01*
X-34499Y-9272D01*
G74*
D01*
G02X-34442Y-9158I199J28*
G01*
X-34442Y-9158D01*
X-34242Y-8958D01*
G74*
D01*
G02X-34166Y-8910I142J142*
G01*
G75*
D01*
G02X-34100Y-8899I66J-190*
G01*
X-34100Y-8899D01*
X-27283Y-8899D01*
X-26501Y-8117D01*
X-26501Y9168D01*
G75*
D01*
G02X-26201Y9784I101J332*
G01*
X-26201Y9784D01*
X-26201Y11917D01*
X-26283Y11999D01*
X-27717Y11999D01*
G75*
D01*
G02X-27717Y12401I-283J201*
G01*
X-27717Y12401D01*
X-26200Y12401D01*
G75*
D01*
G02X-26058Y12342I0J-201*
G01*
X-26058Y12342D01*
X-25858Y12142D01*
G75*
D01*
G02X-25799Y12000I-142J-142*
G01*
X-25799Y12000D01*
X-25799Y-11317D01*
X-25746Y-11370D01*
X-25717Y-11399D01*
X-21285Y-11399D01*
G74*
D01*
G02X-21566Y-11053I385J599*
G01*
X-21566Y-11053D01*
X-21322Y-11053D01*
G75*
D01*
G02X-21322Y-10547I422J253*
G01*
X-21322Y-10547D01*
X-21566Y-10547D01*
G74*
D01*
G02X-21153Y-10134I666J253*
G01*
X-21153Y-10134D01*
X-21153Y-10378D01*
G75*
D01*
G02X-20647Y-10378I253J-422*
G01*
X-20647Y-10378D01*
X-20647Y-10134D01*
G74*
D01*
G02X-20234Y-10547I253J666*
G01*
X-20234Y-10547D01*
X-20478Y-10547D01*
G75*
D01*
G02X-20478Y-11053I-422J-253*
G01*
X-20478Y-11053D01*
X-20234Y-11053D01*
G74*
D01*
G02X-20515Y-11399I666J253*
G01*
X-20515Y-11399D01*
X-18083Y-11399D01*
G75*
D01*
G02X-18083Y-11801I283J-201*
G01*
X-18083Y-11801D01*
X-25800Y-11801D01*
G75*
D01*
G02X-25942Y-11742I0J201*
G01*
X-25942Y-11742D01*
X-26142Y-11542D01*
G75*
D01*
G02X-26201Y-11400I142J142*
G01*
X-26201Y-11400D01*
X-26201Y-8385D01*
X-26404Y-8589D01*
X-27058Y-9242D01*
G74*
D01*
G02X-27187Y-9301I142J142*
G01*
G74*
D01*
G02X-27200Y-9301I13J201*
G01*
X-27200Y-9301D01*
X-34017Y-9301D01*
X-34099Y-9383D01*
X-34099Y-12117D01*
X-33617Y-12599D01*
X-30000Y-12599D01*
G75*
D01*
G02X-29858Y-12658I0J-201*
G01*
X-29858Y-12658D01*
X-26958Y-15558D01*
G75*
D01*
G02X-26899Y-15700I-142J-142*
G01*
X-26899Y-15700D01*
X-26899Y-17808D01*
X-25587Y-19120D01*
X-14804Y-19120D01*
X-13701Y-18017D01*
X-13701Y-12971D01*
G74*
D01*
G02X-13642Y-12828I201J0*
G01*
X-13642Y-12828D01*
X-12572Y-11758D01*
G75*
D01*
G02X-12429Y-11699I143J-142*
G01*
X-12429Y-11699D01*
X-11783Y-11699D01*
X-11701Y-11617D01*
X-11701Y1800D01*
G74*
D01*
G02X-11642Y1942I201J0*
G01*
X-11642Y1942D01*
X-11501Y2083D01*
X-11501Y10700D01*
G74*
D01*
G02X-11442Y10842I201J0*
G01*
X-11442Y10842D01*
X-10785Y11499D01*
X-12887Y11499D01*
X-14199Y10187D01*
X-14199Y1083D01*
X-13717Y601D01*
X-12565Y601D01*
G75*
D01*
G02X-12565Y199I365J-201*
G01*
X-12565Y199D01*
X-13800Y199D01*
G75*
D01*
G02X-13831Y201I0J201*
G01*
G74*
D01*
G02X-13942Y258I31J199*
G01*
X-13942Y258D01*
X-14499Y815D01*
X-14499Y-917D01*
X-14017Y-1399D01*
X-12565Y-1399D01*
G75*
D01*
G02X-12565Y-1801I365J-201*
G01*
X-12565Y-1801D01*
X-14100Y-1801D01*
G75*
D01*
G02X-14242Y-1742I0J201*
G01*
X-14242Y-1742D01*
X-14842Y-1142D01*
G75*
D01*
G02X-14901Y-1000I142J142*
G01*
X-14901Y-1000D01*
X-14901Y972D01*
G74*
D01*
G02X-14958Y858I199J28*
G01*
X-14958Y858D01*
X-16896Y-1080D01*
X-17737Y-1921D01*
X-17737Y-1921D01*
X-18558Y-2742D01*
G75*
D01*
G02X-18700Y-2801I-142J142*
G01*
X-18700Y-2801D01*
X-20835Y-2801D01*
G75*
D01*
G02X-20835Y-2399I-365J201*
G01*
X-20835Y-2399D01*
X-18783Y-2399D01*
X-18305Y-1921D01*
X-18305Y-1921D01*
X-15301Y1083D01*
X-15301Y1215D01*
X-16896Y-380D01*
X-16896Y-380D01*
X-18258Y-1742D01*
G75*
D01*
G02X-18400Y-1801I-142J142*
G01*
X-18400Y-1801D01*
X-20835Y-1801D01*
G75*
D01*
G02X-20835Y-1399I-365J201*
G01*
X-20835Y-1399D01*
X-18483Y-1399D01*
X-16896Y188D01*
X-16885Y199D01*
X-20835Y199D01*
G75*
D01*
G02X-20835Y601I-365J201*
G01*
X-20835Y601D01*
X-16783Y601D01*
X-15801Y1583D01*
X-15801Y10600D01*
G74*
D01*
G02X-15742Y10742I201J0*
G01*
X-15742Y10742D01*
X-13642Y12842D01*
G75*
D01*
G02X-13500Y12901I142J-142*
G01*
X-13500Y12901D01*
X-10588Y12901D01*
G74*
D01*
G02X-10747Y13140I184J295*
G01*
X-10747Y13140D01*
X-10460Y13140D01*
X-10460Y12901D01*
X-10140Y12901D01*
X-10140Y13140D01*
X-9853Y13140D01*
G74*
D01*
G02X-10012Y12901I343J56*
G01*
X-10012Y12901D01*
X-9542Y12901D01*
G75*
D01*
G02X-9058Y12901I242J399*
G01*
X-9058Y12901D01*
X-8542Y12901D01*
G75*
D01*
G02X-8099Y12879I242J399*
G01*
X-8099Y12879D01*
X-8099Y12730D01*
G75*
D01*
G02X-8101Y12701I-201J-1*
G01*
X-8101Y12701D01*
X-4683Y12701D01*
X-4585Y12799D01*
X-7000Y12799D01*
G75*
D01*
G02X-7059Y12808I0J201*
G01*
G74*
D01*
G02X-7142Y12858I59J192*
G01*
X-7142Y12858D01*
X-7144Y12860D01*
G75*
D01*
G02X-6844Y13201I-156J440*
G01*
X-6844Y13201D01*
X-4183Y13201D01*
X-3201Y14183D01*
X-3201Y17871D01*
G74*
D01*
G02X-3142Y18013I201J0*
G01*
X-3142Y18013D01*
X-3113Y18042D01*
G74*
D01*
G02X-3021Y18094I142J142*
G01*
G75*
D01*
G02X-2970Y18101I50J-194*
G01*
X-2970Y18101D01*
X12817Y18101D01*
X15158Y20442D01*
G75*
D01*
G02X15300Y20501I142J-142*
G01*
X15300Y20501D01*
X24300Y20501D01*
G74*
D01*
G02X24442Y20442I0J201*
G01*
X24442Y20442D01*
X27908Y16976D01*
X28042Y16842D01*
G74*
D01*
G02X28101Y16700I142J142*
G01*
X28101Y16700D01*
X28101Y13583D01*
X29183Y12501D01*
X34771Y12501D01*
G74*
D01*
G02X34913Y12442I0J201*
G01*
X34913Y12442D01*
X34942Y12413D01*
G74*
D01*
G02X35001Y12271I142J142*
G01*
X35001Y12271D01*
X35001Y929D01*
G75*
D01*
G02X34942Y787I-201J0*
G01*
X34942Y787D01*
X34913Y758D01*
G74*
D01*
G02X34821Y706I142J142*
G01*
G75*
D01*
G02X34770Y699I-50J194*
G01*
X34770Y699D01*
X29013Y699D01*
X28801Y487D01*
X28801Y-1900D01*
G75*
D01*
G02X28742Y-2042I-201J0*
G01*
X28742Y-2042D01*
X28440Y-2344D01*
G75*
D01*
G02X28156Y-2060I-440J-156*
G01*
X28156Y-2060D01*
X28295Y-1921D01*
X28295Y-1921D01*
X28399Y-1817D01*
X28399Y570D01*
G75*
D01*
G02X28458Y713I201J1*
G01*
X28458Y713D01*
X28787Y1042D01*
G74*
D01*
G02X28882Y1095I142J142*
G01*
G75*
D01*
G02X28929Y1101I47J-195*
G01*
X28929Y1101D01*
X34599Y1101D01*
X34599Y12099D01*
X29100Y12099D01*
G75*
D01*
G02X28958Y12158I0J201*
G01*
X28958Y12158D01*
X27758Y13358D01*
G75*
D01*
G02X27699Y13500I142J142*
G01*
X27699Y13500D01*
X27699Y16617D01*
X27339Y16976D01*
X24217Y20099D01*
X15383Y20099D01*
X13185Y17901D01*
X14737Y17901D01*
X16260Y19424D01*
G75*
D01*
G02X16544Y19140I400J116*
G01*
X16544Y19140D01*
X15105Y17701D01*
X16275Y17701D01*
G75*
D01*
G02X16320Y17299I385J-161*
G01*
X16320Y17299D01*
X14885Y17299D01*
X15383Y16801D01*
X16335Y16801D01*
G75*
D01*
G02X16268Y16399I325J-261*
G01*
X16268Y16399D01*
X15300Y16399D01*
G75*
D01*
G02X15158Y16458I0J201*
G01*
X15158Y16458D01*
X14617Y16999D01*
X-2199Y16999D01*
X-2199Y15428D01*
G75*
D01*
G02X-2000Y15601I199J-28*
G01*
X-2000Y15601D01*
X13700Y15601D01*
G74*
D01*
G02X13842Y15542I0J201*
G01*
X13842Y15542D01*
X15183Y14201D01*
X16417Y14201D01*
G74*
D01*
G02X16270Y14392I243J339*
G01*
X16270Y14392D01*
X16512Y14392D01*
X16512Y14201D01*
X16808Y14201D01*
X16808Y14392D01*
X17050Y14392D01*
G74*
D01*
G02X16903Y14201I390J148*
G01*
X16903Y14201D01*
X22921Y14201D01*
G74*
D01*
G02X23063Y14142I0J201*
G01*
X23063Y14142D01*
X23252Y13952D01*
X23252Y13952D01*
X23252Y13952D01*
X23252Y13952D01*
X24642Y12563D01*
G74*
D01*
G02X24701Y12421I142J142*
G01*
X24701Y12421D01*
X24701Y-4900D01*
G75*
D01*
G02X24642Y-5042I-201J0*
G01*
X24642Y-5042D01*
X23801Y-5883D01*
X23801Y-7500D01*
G75*
D01*
G02X23742Y-7642I-201J0*
G01*
X23742Y-7642D01*
X22509Y-8875D01*
G75*
D01*
G02X22250Y-8566I-409J-80*
G01*
X22250Y-8566D01*
X23399Y-7417D01*
X23399Y-5883D01*
X22225Y-4709D01*
G75*
D01*
G02X22497Y-4413I-133J395*
G01*
X22497Y-4413D01*
X23600Y-5516D01*
X24299Y-4817D01*
X24299Y-391D01*
X22769Y-1921D01*
X22769Y-1921D01*
X22492Y-2197D01*
G75*
D01*
G02X22208Y-1913I-400J-117*
G01*
X22208Y-1913D01*
X24099Y-22D01*
X24099Y12087D01*
X22679Y13508D01*
X22679Y13508D01*
X22679Y13508D01*
X22587Y13599D01*
X18431Y13599D01*
G74*
D01*
G02X18659Y13332I258J451*
G01*
X18659Y13332D01*
X18410Y13332D01*
G75*
D01*
G02X18410Y12963I-237J-184*
G01*
X18410Y12963D01*
X18659Y12963D01*
G74*
D01*
G02X18357Y12661I486J185*
G01*
X18357Y12661D01*
X18357Y12911D01*
G75*
D01*
G02X17989Y12911I-184J237*
G01*
X17989Y12911D01*
X17989Y12661D01*
G74*
D01*
G02X17687Y12963I184J487*
G01*
X17687Y12963D01*
X17936Y12963D01*
G75*
D01*
G02X17936Y13332I237J185*
G01*
X17936Y13332D01*
X17687Y13332D01*
G74*
D01*
G02X17915Y13599I486J184*
G01*
X17915Y13599D01*
X15000Y13599D01*
G75*
D01*
G02X14858Y13658I0J201*
G01*
X14858Y13658D01*
X13517Y14999D01*
X-1599Y14999D01*
X-1599Y13800D01*
G75*
D01*
G02X-1658Y13658I-201J0*
G01*
X-1658Y13658D01*
X-4158Y11158D01*
G75*
D01*
G02X-4300Y11099I-142J142*
G01*
X-4300Y11099D01*
X-10117Y11099D01*
X-10199Y11017D01*
X-10199Y5683D01*
X-9933Y5417D01*
G75*
D01*
G02X-10217Y5133I33J-317*
G01*
X-10217Y5133D01*
X-10542Y5458D01*
G74*
D01*
G02X-10599Y5572I142J142*
G01*
X-10599Y5572D01*
X-10599Y3947D01*
G75*
D01*
G02X-10942Y3658I-1J-347*
G01*
G75*
D01*
G02X-11001Y3800I142J142*
G01*
X-11001Y3800D01*
X-11001Y8017D01*
G74*
D01*
G02X-11099Y8124I201J283*
G01*
X-11099Y8124D01*
X-11099Y2000D01*
G75*
D01*
G02X-11158Y1858I-201J0*
G01*
X-11158Y1858D01*
X-11299Y1717D01*
X-11299Y-3924D01*
G75*
D01*
G02X-10717Y-3899I299J-176*
G01*
X-10717Y-3899D01*
X-9183Y-3899D01*
X-8901Y-3617D01*
X-8901Y4300D01*
G74*
D01*
G02X-8842Y4442I201J0*
G01*
X-8842Y4442D01*
X-7447Y5837D01*
X-7217Y6067D01*
G75*
D01*
G02X-6933Y5783I317J33*
G01*
X-6933Y5783D01*
X-7447Y5268D01*
X-8499Y4217D01*
X-8499Y2376D01*
G75*
D01*
G02X-7999Y1917I299J-176*
G01*
X-7999Y1917D01*
X-7999Y-11317D01*
D02*
G37*
G36*
X2497Y-17458D02*
X2497Y-17458D01*
X2497Y258D01*
G75*
D01*
G02X2648Y409I151J0*
G01*
X2648Y409D01*
X21152Y409D01*
G74*
D01*
G02X21303Y258I0J151*
G01*
X21303Y258D01*
X21303Y-15745D01*
G74*
D01*
G02X21792Y-15337I789J450*
G01*
X21792Y-15337D01*
X21792Y-15575D01*
G75*
D01*
G02X22392Y-15575I300J-620*
G01*
X22392Y-15575D01*
X22392Y-15337D01*
G74*
D01*
G02X22950Y-15895I300J858*
G01*
X22950Y-15895D01*
X22712Y-15895D01*
G75*
D01*
G02X22712Y-16495I-620J-300*
G01*
X22712Y-16495D01*
X22950Y-16495D01*
G74*
D01*
G02X22392Y-17053I858J300*
G01*
X22392Y-17053D01*
X22392Y-16816D01*
G75*
D01*
G02X21792Y-16816I-300J621*
G01*
X21792Y-16816D01*
X21792Y-17053D01*
G74*
D01*
G02X21303Y-16646I300J858*
G01*
X21303Y-16646D01*
X21303Y-17458D01*
G75*
D01*
G02X21152Y-17609I-151J0*
G01*
X21152Y-17609D01*
X2648Y-17609D01*
G75*
D01*
G02X2497Y-17458I0J151*
G01*
D02*
G37*
G36*
X24692Y16840D02*
G75*
D01*
G02X24692Y17440I548J300*
G01*
X24692Y17440D01*
X24260Y17440D01*
G74*
D01*
G02X24940Y18120I980J300*
G01*
X24940Y18120D01*
X24940Y17688D01*
G75*
D01*
G02X25540Y17688I300J-548*
G01*
X25540Y17688D01*
X25540Y18120D01*
G74*
D01*
G02X26220Y17440I300J980*
G01*
X26220Y17440D01*
X25788Y17440D01*
G75*
D01*
G02X25788Y16840I-548J-300*
G01*
X25788Y16840D01*
X26220Y16840D01*
G74*
D01*
G02X25540Y16160I980J300*
G01*
X25540Y16160D01*
X25540Y16592D01*
G75*
D01*
G02X24940Y16592I-300J548*
G01*
X24940Y16592D01*
X24940Y16160D01*
G74*
D01*
G02X24260Y16840I300J980*
G01*
X24260Y16840D01*
X24692Y16840D01*
D02*
G37*
G36*
X-12597Y7528D02*
G75*
D01*
G02X-12597Y7528I397J-128*
G01*
D02*
G37*
G36*
X-31130Y-11190D02*
G74*
D01*
G02X-31810Y-11870I980J300*
G01*
X-31810Y-11870D01*
X-31810Y-11438D01*
G75*
D01*
G02X-32410Y-11438I-300J548*
G01*
X-32410Y-11438D01*
X-32410Y-11870D01*
G74*
D01*
G02X-33090Y-11190I300J980*
G01*
X-33090Y-11190D01*
X-32658Y-11190D01*
G75*
D01*
G02X-32658Y-10590I548J300*
G01*
X-32658Y-10590D01*
X-33090Y-10590D01*
G74*
D01*
G02X-32410Y-9910I980J300*
G01*
X-32410Y-9910D01*
X-32410Y-10342D01*
G75*
D01*
G02X-31810Y-10342I300J-548*
G01*
X-31810Y-10342D01*
X-31810Y-9910D01*
G74*
D01*
G02X-31130Y-10590I300J980*
G01*
X-31130Y-10590D01*
X-31562Y-10590D01*
G75*
D01*
G02X-31562Y-11190I-548J-300*
G01*
X-31562Y-11190D01*
X-31130Y-11190D01*
D02*
G37*
G36*
X-7543Y-13036D02*
G74*
D01*
G02X-7257Y-12749I343J56*
G01*
X-7257Y-12749D01*
X-7257Y-13036D01*
X-7543Y-13036D01*
D02*
G37*
G36*
X-7543Y-13357D02*
X-7543Y-13357D01*
X-7257Y-13357D01*
X-7257Y-13643D01*
G74*
D01*
G02X-7543Y-13357I57J342*
G01*
D02*
G37*
G36*
X-12653Y-11466D02*
G74*
D01*
G02X-13066Y-11053I253J666*
G01*
X-13066Y-11053D01*
X-12822Y-11053D01*
G75*
D01*
G02X-12822Y-10547I422J253*
G01*
X-12822Y-10547D01*
X-13066Y-10547D01*
G74*
D01*
G02X-12653Y-10134I666J253*
G01*
X-12653Y-10134D01*
X-12653Y-10378D01*
G75*
D01*
G02X-12147Y-10378I253J-422*
G01*
X-12147Y-10378D01*
X-12147Y-10134D01*
G74*
D01*
G02X-11734Y-10547I253J666*
G01*
X-11734Y-10547D01*
X-11978Y-10547D01*
G75*
D01*
G02X-11978Y-11053I-422J-253*
G01*
X-11978Y-11053D01*
X-11734Y-11053D01*
G74*
D01*
G02X-12147Y-11466I666J253*
G01*
X-12147Y-11466D01*
X-12147Y-11222D01*
G75*
D01*
G02X-12653Y-11222I-253J422*
G01*
X-12653Y-11222D01*
X-12653Y-11466D01*
D02*
G37*
G36*
X-16983Y-3899D02*
G75*
D01*
G02X-16983Y-4301I283J-201*
G01*
X-16983Y-4301D01*
X-17117Y-4301D01*
X-18558Y-5742D01*
G74*
D01*
G02X-18630Y-5788I142J142*
G01*
G74*
D01*
G02X-18700Y-5801I70J188*
G01*
X-18700Y-5801D01*
X-20835Y-5801D01*
G75*
D01*
G02X-20835Y-5399I-365J201*
G01*
X-20835Y-5399D01*
X-18783Y-5399D01*
X-17342Y-3958D01*
G74*
D01*
G02X-17221Y-3900I142J142*
G01*
G75*
D01*
G02X-17200Y-3899I21J-200*
G01*
X-17200Y-3899D01*
X-16983Y-3899D01*
D02*
G37*
G36*
X-17042Y-5158D02*
G75*
D01*
G02X-16758Y-5442I342J58*
G01*
X-16758Y-5442D01*
X-16896Y-5580D01*
X-16896Y-5580D01*
X-18058Y-6742D01*
G74*
D01*
G02X-18130Y-6788I142J142*
G01*
G74*
D01*
G02X-18200Y-6801I70J188*
G01*
X-18200Y-6801D01*
X-20835Y-6801D01*
G75*
D01*
G02X-20835Y-6399I-365J201*
G01*
X-20835Y-6399D01*
X-18283Y-6399D01*
X-17042Y-5158D01*
D02*
G37*
G36*
X-25788Y16840D02*
G75*
D01*
G02X-25788Y17440I548J300*
G01*
X-25788Y17440D01*
X-26220Y17440D01*
G74*
D01*
G02X-25540Y18120I980J300*
G01*
X-25540Y18120D01*
X-25540Y17688D01*
G75*
D01*
G02X-24940Y17688I300J-548*
G01*
X-24940Y17688D01*
X-24940Y18120D01*
G74*
D01*
G02X-24260Y17440I300J980*
G01*
X-24260Y17440D01*
X-24692Y17440D01*
G75*
D01*
G02X-24692Y16840I-548J-300*
G01*
X-24692Y16840D01*
X-24260Y16840D01*
G74*
D01*
G02X-24940Y16160I980J300*
G01*
X-24940Y16160D01*
X-24940Y16592D01*
G75*
D01*
G02X-25540Y16592I-300J548*
G01*
X-25540Y16592D01*
X-25540Y16160D01*
G74*
D01*
G02X-26220Y16840I300J980*
G01*
X-26220Y16840D01*
X-25788Y16840D01*
D02*
G37*
G36*
X-20803Y7528D02*
G75*
D01*
G02X-20803Y7528I-397J-128*
G01*
D02*
G37*
G36*
X-27621Y-1921D02*
G75*
D01*
G02X-27621Y-1921I-179J-79*
G01*
D02*
G37*
G36*
X-10218Y-2700D02*
G75*
D01*
G02X-10218Y-2700I318J0*
G01*
D02*
G37*
G36*
X-11978Y9853D02*
G75*
D01*
G02X-11978Y9347I-422J-253*
G01*
X-11978Y9347D01*
X-11734Y9347D01*
G74*
D01*
G02X-12147Y8934I666J253*
G01*
X-12147Y8934D01*
X-12147Y9178D01*
G75*
D01*
G02X-12653Y9178I-253J422*
G01*
X-12653Y9178D01*
X-12653Y8934D01*
G74*
D01*
G02X-13066Y9347I253J666*
G01*
X-13066Y9347D01*
X-12822Y9347D01*
G75*
D01*
G02X-12822Y9853I422J253*
G01*
X-12822Y9853D01*
X-13066Y9853D01*
G74*
D01*
G02X-12653Y10266I666J253*
G01*
X-12653Y10266D01*
X-12653Y10022D01*
G75*
D01*
G02X-12147Y10022I253J-422*
G01*
X-12147Y10022D01*
X-12147Y10266D01*
G74*
D01*
G02X-11734Y9853I253J666*
G01*
X-11734Y9853D01*
X-11978Y9853D01*
D02*
G37*
G36*
X-12617Y8400D02*
G75*
D01*
G02X-12617Y8400I417J0*
G01*
D02*
G37*
G36*
X32658Y11190D02*
G75*
D01*
G02X32658Y10590I-548J-300*
G01*
X32658Y10590D01*
X33090Y10590D01*
G74*
D01*
G02X32410Y9910I980J300*
G01*
X32410Y9910D01*
X32410Y10342D01*
G75*
D01*
G02X31810Y10342I-300J548*
G01*
X31810Y10342D01*
X31810Y9910D01*
G74*
D01*
G02X31130Y10590I300J980*
G01*
X31130Y10590D01*
X31562Y10590D01*
G75*
D01*
G02X31562Y11190I548J300*
G01*
X31562Y11190D01*
X31130Y11190D01*
G74*
D01*
G02X31810Y11870I980J300*
G01*
X31810Y11870D01*
X31810Y11438D01*
G75*
D01*
G02X32410Y11438I300J-548*
G01*
X32410Y11438D01*
X32410Y11870D01*
G74*
D01*
G02X33090Y11190I300J980*
G01*
X33090Y11190D01*
X32658Y11190D01*
D02*
G37*
G36*
X16243Y18540D02*
G75*
D01*
G02X16243Y18540I417J0*
G01*
D02*
G37*
G36*
X16463Y14540D02*
G75*
D01*
G02X16463Y14540I197J0*
G01*
D02*
G37*
G36*
X16270Y14688D02*
G74*
D01*
G02X16512Y14930I390J148*
G01*
X16512Y14930D01*
X16512Y14688D01*
X16270Y14688D01*
D02*
G37*
G36*
X16808Y14930D02*
G74*
D01*
G02X17050Y14688I148J390*
G01*
X17050Y14688D01*
X16808Y14688D01*
X16808Y14930D01*
D02*
G37*
G36*
X16243Y15540D02*
G75*
D01*
G02X16243Y15540I417J0*
G01*
D02*
G37*
G36*
X-12617Y-600D02*
G75*
D01*
G02X-12617Y-600I417J0*
G01*
D02*
G37*
G36*
X-12617Y1400D02*
G75*
D01*
G02X-12617Y1400I417J0*
G01*
D02*
G37*
G36*
X-12617Y2400D02*
G75*
D01*
G02X-12617Y2400I417J0*
G01*
D02*
G37*
G36*
X-12617Y3400D02*
G75*
D01*
G02X-12617Y3400I417J0*
G01*
D02*
G37*
G36*
X-12617Y4400D02*
G75*
D01*
G02X-12617Y4400I417J0*
G01*
D02*
G37*
G36*
X-12617Y5400D02*
G75*
D01*
G02X-12617Y5400I417J0*
G01*
D02*
G37*
G36*
X-12617Y6400D02*
G75*
D01*
G02X-12617Y6400I417J0*
G01*
D02*
G37*
G36*
X21675Y-1314D02*
G75*
D01*
G02X21675Y-1314I417J0*
G01*
D02*
G37*
G36*
X-10198Y6213D02*
G74*
D01*
G02X-10013Y6398I298J113*
G01*
X-10013Y6398D01*
X-10013Y6213D01*
X-10198Y6213D01*
D02*
G37*
G36*
X-9787Y6398D02*
G74*
D01*
G02X-9602Y6213I113J298*
G01*
X-9602Y6213D01*
X-9787Y6213D01*
X-9787Y6398D01*
D02*
G37*
G36*
X-9602Y5987D02*
G74*
D01*
G02X-9787Y5802I298J113*
G01*
X-9787Y5802D01*
X-9787Y5987D01*
X-9602Y5987D01*
D02*
G37*
G36*
X-10013Y5802D02*
G74*
D01*
G02X-10198Y5987I113J298*
G01*
X-10198Y5987D01*
X-10013Y5987D01*
X-10013Y5802D01*
D02*
G37*
G36*
X-9998Y6100D02*
G75*
D01*
G02X-9998Y6100I98J0*
G01*
D02*
G37*
G36*
X-12590Y-9452D02*
G74*
D01*
G02X-12348Y-9210I390J148*
G01*
X-12348Y-9210D01*
X-12348Y-9452D01*
X-12590Y-9452D01*
D02*
G37*
G36*
X-12052Y-9210D02*
G74*
D01*
G02X-11810Y-9452I148J390*
G01*
X-11810Y-9452D01*
X-12052Y-9452D01*
X-12052Y-9210D01*
D02*
G37*
G36*
X-11810Y-9748D02*
G74*
D01*
G02X-12052Y-9990I390J148*
G01*
X-12052Y-9990D01*
X-12052Y-9748D01*
X-11810Y-9748D01*
D02*
G37*
G36*
X-12397Y-9600D02*
G75*
D01*
G02X-12397Y-9600I197J0*
G01*
D02*
G37*
G36*
X-12348Y-9990D02*
G74*
D01*
G02X-12590Y-9748I148J390*
G01*
X-12590Y-9748D01*
X-12348Y-9748D01*
X-12348Y-9990D01*
D02*
G37*
G36*
X-12617Y-8600D02*
G75*
D01*
G02X-12617Y-8600I417J0*
G01*
D02*
G37*
G36*
X-12617Y-7600D02*
G75*
D01*
G02X-12617Y-7600I417J0*
G01*
D02*
G37*
G36*
X-12617Y-6600D02*
G75*
D01*
G02X-12617Y-6600I417J0*
G01*
D02*
G37*
G36*
X-12617Y-5600D02*
G75*
D01*
G02X-12617Y-5600I417J0*
G01*
D02*
G37*
G36*
X-12617Y-4600D02*
G75*
D01*
G02X-12617Y-4600I417J0*
G01*
D02*
G37*
G36*
X-12617Y-3600D02*
G75*
D01*
G02X-12617Y-3600I417J0*
G01*
D02*
G37*
G36*
X-12617Y-2600D02*
G75*
D01*
G02X-12617Y-2600I417J0*
G01*
D02*
G37*
G36*
X21683Y-14955D02*
G75*
D01*
G02X21683Y-14955I417J0*
G01*
D02*
G37*
G36*
X21683Y-13955D02*
G75*
D01*
G02X21683Y-13955I417J0*
G01*
D02*
G37*
G36*
X21683Y-12955D02*
G75*
D01*
G02X21683Y-12955I417J0*
G01*
D02*
G37*
G36*
X21683Y-11955D02*
G75*
D01*
G02X21683Y-11955I417J0*
G01*
D02*
G37*
G36*
X-3415Y7634D02*
G75*
D01*
G02X-3566Y7785I0J151*
G01*
X-3566Y7785D01*
X-3566Y9215D01*
G75*
D01*
G02X-3415Y9366I151J0*
G01*
X-3415Y9366D01*
X-1985Y9366D01*
G74*
D01*
G02X-1834Y9215I0J151*
G01*
X-1834Y9215D01*
X-1834Y7785D01*
G75*
D01*
G02X-1985Y7634I-151J0*
G01*
X-1985Y7634D01*
X-3415Y7634D01*
D02*
G37*
G36*
X3264Y13332D02*
G75*
D01*
G02X3264Y12963I-237J-184*
G01*
X3264Y12963D01*
X3513Y12963D01*
G74*
D01*
G02X3211Y12661I486J185*
G01*
X3211Y12661D01*
X3211Y12911D01*
G75*
D01*
G02X2843Y12911I-184J237*
G01*
X2843Y12911D01*
X2843Y12661D01*
G74*
D01*
G02X2541Y12963I184J487*
G01*
X2541Y12963D01*
X2790Y12963D01*
G75*
D01*
G02X2790Y13332I237J185*
G01*
X2790Y13332D01*
X2541Y13332D01*
G74*
D01*
G02X2843Y13634I486J184*
G01*
X2843Y13634D01*
X2843Y13384D01*
G75*
D01*
G02X3211Y13384I184J-236*
G01*
X3211Y13384D01*
X3211Y13634D01*
G74*
D01*
G02X3513Y13332I184J486*
G01*
X3513Y13332D01*
X3264Y13332D01*
D02*
G37*
G36*
X-24692Y-16840D02*
G75*
D01*
G02X-24692Y-17440I-548J-300*
G01*
X-24692Y-17440D01*
X-24260Y-17440D01*
G74*
D01*
G02X-24940Y-18120I980J300*
G01*
X-24940Y-18120D01*
X-24940Y-17688D01*
G75*
D01*
G02X-25540Y-17688I-300J548*
G01*
X-25540Y-17688D01*
X-25540Y-18120D01*
G74*
D01*
G02X-26220Y-17440I300J980*
G01*
X-26220Y-17440D01*
X-25788Y-17440D01*
G75*
D01*
G02X-25788Y-16840I548J300*
G01*
X-25788Y-16840D01*
X-26220Y-16840D01*
G74*
D01*
G02X-25540Y-16160I980J300*
G01*
X-25540Y-16160D01*
X-25540Y-16592D01*
G75*
D01*
G02X-24940Y-16592I300J-548*
G01*
X-24940Y-16592D01*
X-24940Y-16160D01*
G74*
D01*
G02X-24260Y-16840I300J980*
G01*
X-24260Y-16840D01*
X-24692Y-16840D01*
D02*
G37*
G36*
X-20966Y-15415D02*
X-20966Y-15415D01*
X-20966Y-15000D01*
X-20400Y-15000D01*
X-20400Y-15566D01*
X-20815Y-15566D01*
G75*
D01*
G02X-20966Y-15415I0J151*
G01*
D02*
G37*
G36*
X-19454Y-14700D02*
G75*
D01*
G02X-19730Y-14976I-276J0*
G01*
X-19730Y-14976D01*
X-20470Y-14976D01*
G75*
D01*
G02X-20746Y-14700I0J276*
G01*
G75*
D01*
G02X-20470Y-14424I276J0*
G01*
X-20470Y-14424D01*
X-19730Y-14424D01*
G74*
D01*
G02X-19454Y-14700I0J276*
G01*
D02*
G37*
G36*
X-19234Y-15415D02*
G75*
D01*
G02X-19385Y-15566I-151J0*
G01*
X-19385Y-15566D01*
X-19800Y-15566D01*
X-19800Y-15000D01*
X-19234Y-15000D01*
X-19234Y-15415D01*
D02*
G37*
G36*
X-20815Y-13834D02*
X-20815Y-13834D01*
X-20400Y-13834D01*
X-20400Y-14400D01*
X-20966Y-14400D01*
X-20966Y-13985D01*
G75*
D01*
G02X-20815Y-13834I151J0*
G01*
D02*
G37*
G36*
X-19234Y-13985D02*
X-19234Y-13985D01*
X-19234Y-14400D01*
X-19800Y-14400D01*
X-19800Y-13834D01*
X-19385Y-13834D01*
G74*
D01*
G02X-19234Y-13985I0J151*
G01*
D02*
G37*
G36*
X-9563Y-13196D02*
G75*
D01*
G02X-9563Y-13196I467J0*
G01*
D02*
G37*
G36*
X-8563Y-13196D02*
G75*
D01*
G02X-8563Y-13196I467J0*
G01*
D02*
G37*
G36*
X-7292Y-13196D02*
G75*
D01*
G02X-7292Y-13196I196J0*
G01*
D02*
G37*
G36*
X-6936Y-13643D02*
X-6936Y-13643D01*
X-6936Y-13357D01*
X-6649Y-13357D01*
G74*
D01*
G02X-6936Y-13643I343J56*
G01*
D02*
G37*
G36*
X-6649Y-13036D02*
X-6649Y-13036D01*
X-6936Y-13036D01*
X-6936Y-12749D01*
G74*
D01*
G02X-6649Y-13036I56J343*
G01*
D02*
G37*
G36*
X-21617Y-600D02*
G75*
D01*
G02X-21617Y-600I417J0*
G01*
D02*
G37*
G36*
X-21617Y1400D02*
G75*
D01*
G02X-21617Y1400I417J0*
G01*
D02*
G37*
G36*
X-21617Y2400D02*
G75*
D01*
G02X-21617Y2400I417J0*
G01*
D02*
G37*
G36*
X-21617Y3400D02*
G75*
D01*
G02X-21617Y3400I417J0*
G01*
D02*
G37*
G36*
X-21617Y4400D02*
G75*
D01*
G02X-21617Y4400I417J0*
G01*
D02*
G37*
G36*
X-21617Y5400D02*
G75*
D01*
G02X-21617Y5400I417J0*
G01*
D02*
G37*
G36*
X-21617Y6400D02*
G75*
D01*
G02X-21617Y6400I417J0*
G01*
D02*
G37*
G36*
X-21617Y-9600D02*
G75*
D01*
G02X-21617Y-9600I417J0*
G01*
D02*
G37*
G36*
X-21617Y-8600D02*
G75*
D01*
G02X-21617Y-8600I417J0*
G01*
D02*
G37*
G36*
X-21617Y-7600D02*
G75*
D01*
G02X-21617Y-7600I417J0*
G01*
D02*
G37*
G36*
X-21617Y-4600D02*
G75*
D01*
G02X-21617Y-4600I417J0*
G01*
D02*
G37*
G36*
X-21617Y-3600D02*
G75*
D01*
G02X-21617Y-3600I417J0*
G01*
D02*
G37*
G36*
X-27518Y-8400D02*
G75*
D01*
G02X-27518Y-8400I118J0*
G01*
D02*
G37*
G36*
X-27277Y-8076D02*
G74*
D01*
G02X-27076Y-8277I123J324*
G01*
X-27076Y-8277D01*
X-27277Y-8277D01*
X-27277Y-8076D01*
D02*
G37*
G36*
X-27076Y-8523D02*
G74*
D01*
G02X-27277Y-8724I324J123*
G01*
X-27277Y-8724D01*
X-27277Y-8523D01*
X-27076Y-8523D01*
D02*
G37*
G36*
X-27523Y-8724D02*
G74*
D01*
G02X-27724Y-8523I123J324*
G01*
X-27724Y-8523D01*
X-27523Y-8523D01*
X-27523Y-8724D01*
D02*
G37*
G36*
X-28267Y-4000D02*
G75*
D01*
G02X-28267Y-4000I467J0*
G01*
D02*
G37*
G36*
X-28267Y-3000D02*
G75*
D01*
G02X-28267Y-3000I467J0*
G01*
D02*
G37*
G36*
X-28247Y-2160D02*
X-28247Y-2160D01*
X-27960Y-2160D01*
X-27960Y-2447D01*
G74*
D01*
G02X-28247Y-2160I56J343*
G01*
D02*
G37*
G36*
X-27640Y-2447D02*
X-27640Y-2447D01*
X-27640Y-2160D01*
X-27353Y-2160D01*
G74*
D01*
G02X-27640Y-2447I343J56*
G01*
D02*
G37*
G36*
X-33618Y5800D02*
G75*
D01*
G02X-33618Y5800I118J0*
G01*
D02*
G37*
G36*
X-27960Y-1553D02*
X-27960Y-1553D01*
X-27960Y-1840D01*
X-28247Y-1840D01*
G74*
D01*
G02X-27960Y-1553I343J56*
G01*
D02*
G37*
G36*
X-27353Y-1840D02*
X-27353Y-1840D01*
X-27640Y-1840D01*
X-27640Y-1553D01*
G74*
D01*
G02X-27353Y-1840I56J343*
G01*
D02*
G37*
G36*
X-33176Y5677D02*
G74*
D01*
G02X-33377Y5476I324J123*
G01*
X-33377Y5476D01*
X-33377Y5677D01*
X-33176Y5677D01*
D02*
G37*
G36*
X-33623Y5476D02*
G74*
D01*
G02X-33824Y5677I123J324*
G01*
X-33824Y5677D01*
X-33623Y5677D01*
X-33623Y5476D01*
D02*
G37*
G36*
X-33824Y5923D02*
G74*
D01*
G02X-33623Y6124I324J123*
G01*
X-33623Y6124D01*
X-33623Y5923D01*
X-33824Y5923D01*
D02*
G37*
G36*
X-33377Y6124D02*
G74*
D01*
G02X-33176Y5923I123J324*
G01*
X-33176Y5923D01*
X-33377Y5923D01*
X-33377Y6124D01*
D02*
G37*
G36*
X21683Y-9955D02*
G75*
D01*
G02X21683Y-9955I417J0*
G01*
D02*
G37*
G36*
X21675Y-5314D02*
G75*
D01*
G02X21675Y-5314I417J0*
G01*
D02*
G37*
G36*
X21683Y-7955D02*
G75*
D01*
G02X21683Y-7955I417J0*
G01*
D02*
G37*
G36*
X21895Y-6314D02*
G75*
D01*
G02X21895Y-6314I197J0*
G01*
D02*
G37*
G36*
X21944Y-6703D02*
G74*
D01*
G02X21702Y-6461I148J389*
G01*
X21702Y-6461D01*
X21944Y-6461D01*
X21944Y-6703D01*
D02*
G37*
G36*
X22482Y-6461D02*
G74*
D01*
G02X22240Y-6703I390J147*
G01*
X22240Y-6703D01*
X22240Y-6461D01*
X22482Y-6461D01*
D02*
G37*
G36*
X26815Y-5334D02*
G74*
D01*
G02X26966Y-5485I0J151*
G01*
X26966Y-5485D01*
X26966Y-6915D01*
G75*
D01*
G02X26815Y-7066I-151J0*
G01*
X26815Y-7066D01*
X25385Y-7066D01*
G75*
D01*
G02X25234Y-6915I0J151*
G01*
X25234Y-6915D01*
X25234Y-5485D01*
G75*
D01*
G02X25385Y-5334I151J0*
G01*
X25385Y-5334D01*
X26815Y-5334D01*
D02*
G37*
G36*
X21702Y-6166D02*
G74*
D01*
G02X21944Y-5924I390J148*
G01*
X21944Y-5924D01*
X21944Y-6166D01*
X21702Y-6166D01*
D02*
G37*
G36*
X22240Y-5924D02*
G74*
D01*
G02X22482Y-6166I148J390*
G01*
X22482Y-6166D01*
X22240Y-6166D01*
X22240Y-5924D01*
D02*
G37*
G36*
X27553Y-5660D02*
X27553Y-5660D01*
X27840Y-5660D01*
X27840Y-5947D01*
G74*
D01*
G02X27553Y-5660I56J343*
G01*
D02*
G37*
G36*
X28160Y-5947D02*
X28160Y-5947D01*
X28160Y-5660D01*
X28447Y-5660D01*
G74*
D01*
G02X28160Y-5947I343J56*
G01*
D02*
G37*
G36*
X27804Y-5500D02*
G75*
D01*
G02X27804Y-5500I196J0*
G01*
D02*
G37*
G36*
X27840Y-5053D02*
X27840Y-5053D01*
X27840Y-5340D01*
X27553Y-5340D01*
G74*
D01*
G02X27840Y-5053I343J56*
G01*
D02*
G37*
G36*
X27533Y-4500D02*
G75*
D01*
G02X27533Y-4500I467J0*
G01*
D02*
G37*
G36*
X28447Y-5340D02*
X28447Y-5340D01*
X28160Y-5340D01*
X28160Y-5053D01*
G74*
D01*
G02X28447Y-5340I56J343*
G01*
D02*
G37*
G36*
X27533Y-3500D02*
G75*
D01*
G02X27533Y-3500I467J0*
G01*
D02*
G37*
G36*
X21675Y-3314D02*
G75*
D01*
G02X21675Y-3314I417J0*
G01*
D02*
G37*
G36*
X-31562Y11190D02*
G75*
D01*
G02X-31562Y10590I-548J-300*
G01*
X-31562Y10590D01*
X-31130Y10590D01*
G74*
D01*
G02X-31810Y9910I980J300*
G01*
X-31810Y9910D01*
X-31810Y10342D01*
G75*
D01*
G02X-32410Y10342I-300J548*
G01*
X-32410Y10342D01*
X-32410Y9910D01*
G74*
D01*
G02X-33090Y10590I300J980*
G01*
X-33090Y10590D01*
X-32658Y10590D01*
G75*
D01*
G02X-32658Y11190I548J300*
G01*
X-32658Y11190D01*
X-33090Y11190D01*
G74*
D01*
G02X-32410Y11870I980J300*
G01*
X-32410Y11870D01*
X-32410Y11438D01*
G75*
D01*
G02X-31810Y11438I300J-548*
G01*
X-31810Y11438D01*
X-31810Y11870D01*
G74*
D01*
G02X-31130Y11190I300J980*
G01*
X-31130Y11190D01*
X-31562Y11190D01*
D02*
G37*
G36*
X-7218Y5100D02*
G75*
D01*
G02X-7218Y5100I318J0*
G01*
D02*
G37*
G36*
X-3415Y-7066D02*
G75*
D01*
G02X-3566Y-6915I0J151*
G01*
X-3566Y-6915D01*
X-3566Y-6500D01*
X-3000Y-6500D01*
X-3000Y-7066D01*
X-3415Y-7066D01*
D02*
G37*
G36*
X-1985Y-7066D02*
X-1985Y-7066D01*
X-2400Y-7066D01*
X-2400Y-6500D01*
X-1834Y-6500D01*
X-1834Y-6915D01*
G75*
D01*
G02X-1985Y-7066I-151J0*
G01*
D02*
G37*
G36*
X-2700Y-6846D02*
G75*
D01*
G02X-2976Y-6570I0J276*
G01*
X-2976Y-6570D01*
X-2976Y-5830D01*
G75*
D01*
G02X-2700Y-5554I276J0*
G01*
G74*
D01*
G02X-2424Y-5830I0J276*
G01*
X-2424Y-5830D01*
X-2424Y-6570D01*
G75*
D01*
G02X-2700Y-6846I-276J0*
G01*
D02*
G37*
G36*
X-3415Y-5334D02*
X-3415Y-5334D01*
X-3000Y-5334D01*
X-3000Y-5900D01*
X-3566Y-5900D01*
X-3566Y-5485D01*
G75*
D01*
G02X-3415Y-5334I151J0*
G01*
D02*
G37*
G36*
X-1834Y-5485D02*
X-1834Y-5485D01*
X-1834Y-5900D01*
X-2400Y-5900D01*
X-2400Y-5334D01*
X-1985Y-5334D01*
G74*
D01*
G02X-1834Y-5485I0J151*
G01*
D02*
G37*
G36*
X-7198Y-2587D02*
G74*
D01*
G02X-7013Y-2402I298J113*
G01*
X-7013Y-2402D01*
X-7013Y-2587D01*
X-7198Y-2587D01*
D02*
G37*
G36*
X-7013Y-2998D02*
G74*
D01*
G02X-7198Y-2813I113J298*
G01*
X-7198Y-2813D01*
X-7013Y-2813D01*
X-7013Y-2998D01*
D02*
G37*
G36*
X-6787Y-2402D02*
G74*
D01*
G02X-6602Y-2587I113J298*
G01*
X-6602Y-2587D01*
X-6787Y-2587D01*
X-6787Y-2402D01*
D02*
G37*
G36*
X-6602Y-2813D02*
G74*
D01*
G02X-6787Y-2998I298J113*
G01*
X-6787Y-2998D01*
X-6787Y-2813D01*
X-6602Y-2813D01*
D02*
G37*
G36*
X-6998Y-2700D02*
G75*
D01*
G02X-6998Y-2700I98J0*
G01*
D02*
G37*
G36*
X26815Y9366D02*
G74*
D01*
G02X26966Y9215I0J151*
G01*
X26966Y9215D01*
X26966Y7785D01*
G75*
D01*
G02X26815Y7634I-151J0*
G01*
X26815Y7634D01*
X25385Y7634D01*
G75*
D01*
G02X25234Y7785I0J151*
G01*
X25234Y7785D01*
X25234Y9215D01*
G75*
D01*
G02X25385Y9366I151J0*
G01*
X25385Y9366D01*
X26815Y9366D01*
D02*
G37*
G36*
X-21617Y8400D02*
G75*
D01*
G02X-21617Y8400I417J0*
G01*
D02*
G37*
G36*
X-20478Y9853D02*
G75*
D01*
G02X-20478Y9347I-422J-253*
G01*
X-20478Y9347D01*
X-20234Y9347D01*
G74*
D01*
G02X-20647Y8934I666J253*
G01*
X-20647Y8934D01*
X-20647Y9178D01*
G75*
D01*
G02X-21153Y9178I-253J422*
G01*
X-21153Y9178D01*
X-21153Y8934D01*
G74*
D01*
G02X-21566Y9347I253J666*
G01*
X-21566Y9347D01*
X-21322Y9347D01*
G75*
D01*
G02X-21322Y9853I422J253*
G01*
X-21322Y9853D01*
X-21566Y9853D01*
G74*
D01*
G02X-21153Y10266I666J253*
G01*
X-21153Y10266D01*
X-21153Y10022D01*
G75*
D01*
G02X-20647Y10022I253J-422*
G01*
X-20647Y10022D01*
X-20647Y10266D01*
G74*
D01*
G02X-20234Y9853I253J666*
G01*
X-20234Y9853D01*
X-20478Y9853D01*
D02*
G37*
G36*
X-20966Y14815D02*
G75*
D01*
G02X-20815Y14966I151J0*
G01*
X-20815Y14966D01*
X-19385Y14966D01*
G74*
D01*
G02X-19234Y14815I0J151*
G01*
X-19234Y14815D01*
X-19234Y13385D01*
G75*
D01*
G02X-19385Y13234I-151J0*
G01*
X-19385Y13234D01*
X-20815Y13234D01*
G75*
D01*
G02X-20966Y13385I0J151*
G01*
X-20966Y13385D01*
X-20966Y14815D01*
D02*
G37*
G36*
X-9853Y13460D02*
X-9853Y13460D01*
X-10140Y13460D01*
X-10140Y13747D01*
G74*
D01*
G02X-9853Y13460I56J343*
G01*
D02*
G37*
G36*
X-10496Y13300D02*
G75*
D01*
G02X-10496Y13300I196J0*
G01*
D02*
G37*
G36*
X-10460Y13747D02*
X-10460Y13747D01*
X-10460Y13460D01*
X-10747Y13460D01*
G74*
D01*
G02X-10460Y13747I343J56*
G01*
D02*
G37*
%LPD*%
G36*
X-8401Y-11317D02*
G75*
D01*
G03X-8376Y-11899I201J-283*
G01*
X-8376Y-11899D01*
X-11415Y-11899D01*
X-11358Y-11842D01*
G75*
D01*
G03X-11299Y-11700I-142J142*
G01*
X-11299Y-11700D01*
X-11299Y-4276D01*
G75*
D01*
G03X-10717Y-4301I299J176*
G01*
X-10717Y-4301D01*
X-9100Y-4301D01*
G74*
D01*
G03X-9050Y-4295I0J201*
G01*
G74*
D01*
G03X-8958Y-4242I50J195*
G01*
X-8958Y-4242D01*
X-8558Y-3842D01*
G75*
D01*
G03X-8499Y-3700I-142J142*
G01*
X-8499Y-3700D01*
X-8499Y2024D01*
G74*
D01*
G03X-8401Y1917I299J176*
G01*
X-8401Y1917D01*
X-8401Y-11317D01*
D02*
G37*
G36*
X-17158Y-19758D02*
X-17158Y-19758D01*
X-16817Y-20099D01*
X-14713Y-20099D01*
X-13101Y-18487D01*
X-13101Y-18228D01*
G74*
D01*
G02X-13158Y-18342I199J28*
G01*
X-13158Y-18342D01*
X-14658Y-19842D01*
G75*
D01*
G02X-14800Y-19901I-142J142*
G01*
X-14800Y-19901D01*
X-16317Y-19901D01*
G75*
D01*
G02X-16898Y-19522I-283J201*
G01*
X-16898Y-19522D01*
X-25671Y-19522D01*
G75*
D01*
G02X-25813Y-19463I0J201*
G01*
X-25813Y-19463D01*
X-26345Y-18931D01*
X-27242Y-18034D01*
G74*
D01*
G02X-27299Y-17919I142J143*
G01*
X-27299Y-17919D01*
X-27299Y-18017D01*
X-25617Y-19699D01*
X-17300Y-19699D01*
G75*
D01*
G02X-17158Y-19758I0J-201*
G01*
D02*
G37*
G36*
X-27301Y-15972D02*
G74*
D01*
G03X-27358Y-15858I199J28*
G01*
X-27358Y-15858D01*
X-30158Y-13058D01*
G74*
D01*
G03X-30255Y-13004I142J142*
G01*
G74*
D01*
G03X-30272Y-13001I45J196*
G01*
X-30272Y-13001D01*
X-30083Y-13001D01*
X-27301Y-15783D01*
X-27301Y-15972D01*
D02*
G37*
G36*
X-11099Y8476D02*
X-11099Y8476D01*
X-11099Y10617D01*
X-10600Y11115D01*
G74*
D01*
G03X-10601Y11100I200J15*
G01*
X-10601Y11100D01*
X-10601Y8584D01*
G75*
D01*
G03X-11099Y8476I-199J-284*
G01*
D02*
G37*
G36*
X-34499Y-12228D02*
G74*
D01*
G03X-34442Y-12342I199J28*
G01*
X-34442Y-12342D01*
X-33842Y-12942D01*
G74*
D01*
G03X-33728Y-12999I142J142*
G01*
X-33728Y-12999D01*
X-33917Y-12999D01*
X-34499Y-12417D01*
X-34499Y-12228D01*
D02*
G37*
G36*
X25788Y-16840D02*
G75*
D01*
G02X25788Y-17440I-548J-300*
G01*
X25788Y-17440D01*
X26199Y-17440D01*
X26199Y-16840D01*
X25788Y-16840D01*
D02*
G37*
G36*
X32658Y-10590D02*
G75*
D01*
G02X32658Y-11190I-548J-300*
G01*
X32658Y-11190D01*
X32999Y-11190D01*
X32999Y-10590D01*
X32658Y-10590D01*
D02*
G37*
G36*
X21472Y-16495D02*
G75*
D01*
G02X21472Y-15895I620J300*
G01*
X21472Y-15895D01*
X21303Y-15895D01*
X21303Y-16495D01*
X21472Y-16495D01*
D02*
G37*
G36*
X-20647Y-11222D02*
X-20647Y-11222D01*
X-20647Y-11399D01*
X-21153Y-11399D01*
X-21153Y-11222D01*
G75*
D01*
G03X-20647Y-11222I253J422*
G01*
D02*
G37*
G36*
X18357Y13384D02*
X18357Y13384D01*
X18357Y13599D01*
X17989Y13599D01*
X17989Y13384D01*
G75*
D01*
G02X18357Y13384I184J-236*
G01*
D02*
G37*
G54D11*
X22058Y-11370D02*
G75*
D01*
G02X22058Y-11370I42J415*
G01*
X-7129Y-1921D02*
G75*
D01*
G02X-7129Y-1921I229J221*
G01*
X-10129Y-1921D02*
G75*
D01*
G02X-10129Y-1921I229J221*
G01*
X-7999Y-11317D02*
G75*
D01*
G02X-8024Y-11899I-201J-283*
G01*
X-6200Y-11899D01*
G75*
D01*
G02X-6058Y-11958I0J-201*
G01*
X-5017Y-12999D01*
X-4100Y-12999D01*
G75*
D01*
G02X-3958Y-13058I0J-201*
G01*
X-2643Y-14373D01*
G75*
D01*
G02X-2584Y-14515I-142J-142*
G01*
X-2584Y-18199D01*
X26199Y-18199D01*
X26199Y-17502D01*
G74*
D01*
G02X25540Y-18120I959J362*
G01*
X25540Y-17688D01*
G75*
D01*
G02X24940Y-17688I-300J548*
G01*
X24940Y-18120D01*
G74*
D01*
G02X24260Y-17440I300J980*
G01*
X24692Y-17440D01*
G75*
D01*
G02X24692Y-16840I548J300*
G01*
X24260Y-16840D01*
G74*
D01*
G02X24940Y-16160I980J300*
G01*
X24940Y-16592D01*
G75*
D01*
G02X25540Y-16592I300J-548*
G01*
X25540Y-16160D01*
G74*
D01*
G02X26199Y-16778I300J980*
G01*
X26199Y-15300D01*
G75*
D01*
G02X26258Y-15158I201J0*
G01*
X29358Y-12058D01*
G75*
D01*
G02X29500Y-11999I142J-142*
G01*
X32999Y-11999D01*
X32999Y-11400D01*
G74*
D01*
G02X32410Y-11870I889J510*
G01*
X32410Y-11438D01*
G75*
D01*
G02X31810Y-11438I-300J548*
G01*
X31810Y-11870D01*
G74*
D01*
G02X31130Y-11190I300J980*
G01*
X31562Y-11190D01*
G75*
D01*
G02X31562Y-10590I548J300*
G01*
X31130Y-10590D01*
G74*
D01*
G02X31810Y-9910I980J300*
G01*
X31810Y-10342D01*
G75*
D01*
G02X32410Y-10342I300J-548*
G01*
X32410Y-9910D01*
G74*
D01*
G02X32999Y-10380I300J980*
G01*
X32999Y-9201D01*
X29271Y-9201D01*
G75*
D01*
G02X29209Y-9191I0J201*
G01*
G74*
D01*
G02X29129Y-9142I62J191*
G01*
X28117Y-8130D01*
X27459Y-8130D01*
G75*
D01*
G02X27501Y-7728I-259J230*
G01*
X28200Y-7728D01*
G75*
D01*
G02X28342Y-7787I0J-201*
G01*
X29354Y-8799D01*
X33171Y-8799D01*
G74*
D01*
G02X33313Y-8858I0J201*
G01*
X33342Y-8887D01*
G74*
D01*
G02X33401Y-9029I142J142*
G01*
X33401Y-12171D01*
G75*
D01*
G02X33342Y-12313I-201J0*
G01*
X33313Y-12342D01*
G74*
D01*
G02X33221Y-12394I142J142*
G01*
G75*
D01*
G02X33170Y-12401I-50J194*
G01*
X29583Y-12401D01*
X26601Y-15383D01*
X26601Y-18371D01*
G75*
D01*
G02X26542Y-18513I-201J0*
G01*
X26513Y-18542D01*
G74*
D01*
G02X26371Y-18601I142J142*
G01*
X-2756Y-18601D01*
G75*
D01*
G02X-2807Y-18594I0J201*
G01*
G74*
D01*
G02X-2898Y-18542I51J194*
G01*
X-2927Y-18513D01*
G75*
D01*
G02X-2986Y-18371I142J142*
G01*
X-2986Y-14598D01*
X-4183Y-13401D01*
X-5100Y-13401D01*
G75*
D01*
G02X-5242Y-13342I0J201*
G01*
X-6283Y-12301D01*
X-12246Y-12301D01*
X-13099Y-13154D01*
X-13099Y-13243D01*
G74*
D01*
G02X-13042Y-13128I199J28*
G01*
X-12968Y-13054D01*
G74*
D01*
G02X-12891Y-13006I142J142*
G01*
G75*
D01*
G02X-12825Y-12995I65J-190*
G01*
X-10518Y-12995D01*
G75*
D01*
G02X-10518Y-13397I422J-201*
G01*
X-12699Y-13397D01*
X-12699Y-18570D01*
G75*
D01*
G02X-12758Y-18713I-201J-1*
G01*
X-14487Y-20442D01*
G74*
D01*
G02X-14563Y-20490I142J142*
G01*
G74*
D01*
G02X-14629Y-20501I66J190*
G01*
X-16900Y-20501D01*
G75*
D01*
G02X-17042Y-20442I0J201*
G01*
X-17383Y-20101D01*
X-25700Y-20101D01*
G75*
D01*
G02X-25842Y-20042I0J201*
G01*
X-26345Y-19539D01*
X-26345Y-19539D01*
X-27642Y-18242D01*
G75*
D01*
G02X-27701Y-18100I142J142*
G01*
X-27701Y-16083D01*
X-30383Y-13401D01*
X-34000Y-13401D01*
G75*
D01*
G02X-34018Y-13400I0J201*
G01*
G74*
D01*
G02X-34142Y-13342I18J200*
G01*
X-34842Y-12642D01*
G75*
D01*
G02X-34901Y-12500I142J142*
G01*
X-34901Y-8700D01*
G74*
D01*
G02X-34842Y-8558I201J0*
G01*
X-34792Y-8508D01*
G75*
D01*
G02X-34650Y-8449I142J-142*
G01*
X-28233Y-8449D01*
X-28001Y-8217D01*
X-28001Y-5421D01*
G75*
D01*
G02X-27599Y-5421I201J421*
G01*
X-27599Y-8116D01*
G74*
D01*
G02X-27523Y-8076I199J284*
G01*
X-27523Y-8277D01*
X-27599Y-8277D01*
X-27599Y-8300D01*
G75*
D01*
G02X-27658Y-8442I-201J0*
G01*
X-28008Y-8792D01*
G75*
D01*
G02X-28150Y-8851I-142J142*
G01*
X-34499Y-8851D01*
X-34499Y-9272D01*
G74*
D01*
G02X-34442Y-9158I199J28*
G01*
X-34242Y-8958D01*
G74*
D01*
G02X-34166Y-8910I142J142*
G01*
G75*
D01*
G02X-34100Y-8899I66J-190*
G01*
X-27283Y-8899D01*
X-26501Y-8117D01*
X-26501Y9168D01*
G75*
D01*
G02X-26201Y9784I101J332*
G01*
X-26201Y11917D01*
X-26283Y11999D01*
X-27717Y11999D01*
G75*
D01*
G02X-27717Y12401I-283J201*
G01*
X-26200Y12401D01*
G75*
D01*
G02X-26058Y12342I0J-201*
G01*
X-25858Y12142D01*
G75*
D01*
G02X-25799Y12000I-142J-142*
G01*
X-25799Y-11317D01*
X-25746Y-11370D01*
X-25717Y-11399D01*
X-21285Y-11399D01*
G74*
D01*
G02X-21566Y-11053I385J599*
G01*
X-21322Y-11053D01*
G75*
D01*
G02X-21322Y-10547I422J253*
G01*
X-21566Y-10547D01*
G74*
D01*
G02X-21153Y-10134I666J253*
G01*
X-21153Y-10378D01*
G75*
D01*
G02X-20647Y-10378I253J-422*
G01*
X-20647Y-10134D01*
G74*
D01*
G02X-20234Y-10547I253J666*
G01*
X-20478Y-10547D01*
G75*
D01*
G02X-20478Y-11053I-422J-253*
G01*
X-20234Y-11053D01*
G74*
D01*
G02X-20515Y-11399I666J253*
G01*
X-18083Y-11399D01*
G75*
D01*
G02X-18083Y-11801I283J-201*
G01*
X-25800Y-11801D01*
G75*
D01*
G02X-25942Y-11742I0J201*
G01*
X-26142Y-11542D01*
G75*
D01*
G02X-26201Y-11400I142J142*
G01*
X-26201Y-8385D01*
X-26404Y-8589D01*
X-27058Y-9242D01*
G74*
D01*
G02X-27187Y-9301I142J142*
G01*
G74*
D01*
G02X-27200Y-9301I13J201*
G01*
X-34017Y-9301D01*
X-34099Y-9383D01*
X-34099Y-12117D01*
X-33617Y-12599D01*
X-30000Y-12599D01*
G75*
D01*
G02X-29858Y-12658I0J-201*
G01*
X-26958Y-15558D01*
G75*
D01*
G02X-26899Y-15700I-142J-142*
G01*
X-26899Y-17808D01*
X-25587Y-19120D01*
X-14804Y-19120D01*
X-13701Y-18017D01*
X-13701Y-12971D01*
G74*
D01*
G02X-13642Y-12828I201J0*
G01*
X-12572Y-11758D01*
G75*
D01*
G02X-12429Y-11699I143J-142*
G01*
X-11783Y-11699D01*
X-11701Y-11617D01*
X-11701Y1800D01*
G74*
D01*
G02X-11642Y1942I201J0*
G01*
X-11501Y2083D01*
X-11501Y10700D01*
G74*
D01*
G02X-11442Y10842I201J0*
G01*
X-10785Y11499D01*
X-12887Y11499D01*
X-14199Y10187D01*
X-14199Y1083D01*
X-13717Y601D01*
X-12565Y601D01*
G75*
D01*
G02X-12565Y199I365J-201*
G01*
X-13800Y199D01*
G75*
D01*
G02X-13831Y201I0J201*
G01*
G74*
D01*
G02X-13942Y258I31J199*
G01*
X-14499Y815D01*
X-14499Y-917D01*
X-14017Y-1399D01*
X-12565Y-1399D01*
G75*
D01*
G02X-12565Y-1801I365J-201*
G01*
X-14100Y-1801D01*
G75*
D01*
G02X-14242Y-1742I0J201*
G01*
X-14842Y-1142D01*
G75*
D01*
G02X-14901Y-1000I142J142*
G01*
X-14901Y972D01*
G74*
D01*
G02X-14958Y858I199J28*
G01*
X-16896Y-1080D01*
X-17737Y-1921D01*
X-17737Y-1921D01*
X-18558Y-2742D01*
G75*
D01*
G02X-18700Y-2801I-142J142*
G01*
X-20835Y-2801D01*
G75*
D01*
G02X-20835Y-2399I-365J201*
G01*
X-18783Y-2399D01*
X-18305Y-1921D01*
X-18305Y-1921D01*
X-15301Y1083D01*
X-15301Y1215D01*
X-16896Y-380D01*
X-16896Y-380D01*
X-18258Y-1742D01*
G75*
D01*
G02X-18400Y-1801I-142J142*
G01*
X-20835Y-1801D01*
G75*
D01*
G02X-20835Y-1399I-365J201*
G01*
X-18483Y-1399D01*
X-16896Y188D01*
X-16885Y199D01*
X-20835Y199D01*
G75*
D01*
G02X-20835Y601I-365J201*
G01*
X-16783Y601D01*
X-15801Y1583D01*
X-15801Y10600D01*
G74*
D01*
G02X-15742Y10742I201J0*
G01*
X-13642Y12842D01*
G75*
D01*
G02X-13500Y12901I142J-142*
G01*
X-10588Y12901D01*
G74*
D01*
G02X-10747Y13140I184J295*
G01*
X-10460Y13140D01*
X-10460Y12901D01*
X-10140Y12901D01*
X-10140Y13140D01*
X-9853Y13140D01*
G74*
D01*
G02X-10012Y12901I343J56*
G01*
X-9542Y12901D01*
G75*
D01*
G02X-9058Y12901I242J399*
G01*
X-8542Y12901D01*
G75*
D01*
G02X-8099Y12879I242J399*
G01*
X-8099Y12730D01*
G75*
D01*
G02X-8101Y12701I-201J-1*
G01*
X-4683Y12701D01*
X-4585Y12799D01*
X-7000Y12799D01*
G75*
D01*
G02X-7059Y12808I0J201*
G01*
G74*
D01*
G02X-7142Y12858I59J192*
G01*
X-7144Y12860D01*
G75*
D01*
G02X-6844Y13201I-156J440*
G01*
X-4183Y13201D01*
X-3201Y14183D01*
X-3201Y17871D01*
G74*
D01*
G02X-3142Y18013I201J0*
G01*
X-3113Y18042D01*
G74*
D01*
G02X-3021Y18094I142J142*
G01*
G75*
D01*
G02X-2970Y18101I50J-194*
G01*
X12817Y18101D01*
X15158Y20442D01*
G75*
D01*
G02X15300Y20501I142J-142*
G01*
X24300Y20501D01*
G74*
D01*
G02X24442Y20442I0J201*
G01*
X27908Y16976D01*
X28042Y16842D01*
G74*
D01*
G02X28101Y16700I142J142*
G01*
X28101Y13583D01*
X29183Y12501D01*
X34771Y12501D01*
G74*
D01*
G02X34913Y12442I0J201*
G01*
X34942Y12413D01*
G74*
D01*
G02X35001Y12271I142J142*
G01*
X35001Y929D01*
G75*
D01*
G02X34942Y787I-201J0*
G01*
X34913Y758D01*
G74*
D01*
G02X34821Y706I142J142*
G01*
G75*
D01*
G02X34770Y699I-50J194*
G01*
X29013Y699D01*
X28801Y487D01*
X28801Y-1900D01*
G75*
D01*
G02X28742Y-2042I-201J0*
G01*
X28440Y-2344D01*
G75*
D01*
G02X28156Y-2060I-440J-156*
G01*
X28295Y-1921D01*
X28295Y-1921D01*
X28399Y-1817D01*
X28399Y570D01*
G75*
D01*
G02X28458Y713I201J1*
G01*
X28787Y1042D01*
G74*
D01*
G02X28882Y1095I142J142*
G01*
G75*
D01*
G02X28929Y1101I47J-195*
G01*
X34599Y1101D01*
X34599Y12099D01*
X29100Y12099D01*
G75*
D01*
G02X28958Y12158I0J201*
G01*
X27758Y13358D01*
G75*
D01*
G02X27699Y13500I142J142*
G01*
X27699Y16617D01*
X27339Y16976D01*
X24217Y20099D01*
X15383Y20099D01*
X13185Y17901D01*
X14737Y17901D01*
X16260Y19424D01*
G75*
D01*
G02X16544Y19140I400J116*
G01*
X15105Y17701D01*
X16275Y17701D01*
G75*
D01*
G02X16320Y17299I385J-161*
G01*
X14885Y17299D01*
X15383Y16801D01*
X16335Y16801D01*
G75*
D01*
G02X16268Y16399I325J-261*
G01*
X15300Y16399D01*
G75*
D01*
G02X15158Y16458I0J201*
G01*
X14617Y16999D01*
X-2199Y16999D01*
X-2199Y15428D01*
G75*
D01*
G02X-2000Y15601I199J-28*
G01*
X13700Y15601D01*
G74*
D01*
G02X13842Y15542I0J201*
G01*
X15183Y14201D01*
X16417Y14201D01*
G74*
D01*
G02X16270Y14392I243J339*
G01*
X16512Y14392D01*
X16512Y14201D01*
X16808Y14201D01*
X16808Y14392D01*
X17050Y14392D01*
G74*
D01*
G02X16903Y14201I390J148*
G01*
X22921Y14201D01*
G74*
D01*
G02X23063Y14142I0J201*
G01*
X23252Y13952D01*
X24642Y12563D01*
G74*
D01*
G02X24701Y12421I142J142*
G01*
X24701Y-4900D01*
G75*
D01*
G02X24642Y-5042I-201J0*
G01*
X23801Y-5883D01*
X23801Y-7500D01*
G75*
D01*
G02X23742Y-7642I-201J0*
G01*
X22509Y-8875D01*
G75*
D01*
G02X22250Y-8566I-409J-80*
G01*
X23399Y-7417D01*
X23399Y-5883D01*
X22225Y-4709D01*
G75*
D01*
G02X22497Y-4413I-133J395*
G01*
X23600Y-5516D01*
X24299Y-4817D01*
X24299Y-391D01*
X22769Y-1921D01*
X22769Y-1921D01*
X22492Y-2197D01*
G75*
D01*
G02X22208Y-1913I-400J-117*
G01*
X24099Y-22D01*
X24099Y12087D01*
X22679Y13508D01*
X22679Y13508D01*
X22587Y13599D01*
X18431Y13599D01*
G74*
D01*
G02X18659Y13332I258J451*
G01*
X18410Y13332D01*
G75*
D01*
G02X18410Y12963I-237J-184*
G01*
X18659Y12963D01*
G74*
D01*
G02X18357Y12661I486J185*
G01*
X18357Y12911D01*
G75*
D01*
G02X17989Y12911I-184J237*
G01*
X17989Y12661D01*
G74*
D01*
G02X17687Y12963I184J487*
G01*
X17936Y12963D01*
G75*
D01*
G02X17936Y13332I237J185*
G01*
X17687Y13332D01*
G74*
D01*
G02X17915Y13599I486J184*
G01*
X15000Y13599D01*
G75*
D01*
G02X14858Y13658I0J201*
G01*
X13517Y14999D01*
X-1599Y14999D01*
X-1599Y13800D01*
G75*
D01*
G02X-1658Y13658I-201J0*
G01*
X-4158Y11158D01*
G75*
D01*
G02X-4300Y11099I-142J142*
G01*
X-10117Y11099D01*
X-10199Y11017D01*
X-10199Y5683D01*
X-9933Y5417D01*
G75*
D01*
G02X-10217Y5133I33J-317*
G01*
X-10542Y5458D01*
G74*
D01*
G02X-10599Y5572I142J142*
G01*
X-10599Y3947D01*
G75*
D01*
G02X-10942Y3658I-1J-347*
G01*
G75*
D01*
G02X-11001Y3800I142J142*
G01*
X-11001Y8017D01*
G74*
D01*
G02X-11099Y8124I201J283*
G01*
X-11099Y2000D01*
G75*
D01*
G02X-11158Y1858I-201J0*
G01*
X-11299Y1717D01*
X-11299Y-3924D01*
G75*
D01*
G02X-10717Y-3899I299J-176*
G01*
X-9183Y-3899D01*
X-8901Y-3617D01*
X-8901Y4300D01*
G74*
D01*
G02X-8842Y4442I201J0*
G01*
X-7447Y5837D01*
X-7217Y6067D01*
G75*
D01*
G02X-6933Y5783I317J33*
G01*
X-7447Y5268D01*
X-8499Y4217D01*
X-8499Y2376D01*
G75*
D01*
G02X-7999Y1917I299J-176*
G01*
X-7999Y-11317D01*
X2497Y-17458D02*
X2497Y258D01*
G75*
D01*
G02X2648Y409I151J0*
G01*
X21152Y409D01*
G74*
D01*
G02X21303Y258I0J151*
G01*
X21303Y-15745D01*
G74*
D01*
G02X21792Y-15337I789J450*
G01*
X21792Y-15575D01*
G75*
D01*
G02X22392Y-15575I300J-620*
G01*
X22392Y-15337D01*
G74*
D01*
G02X22950Y-15895I300J858*
G01*
X22712Y-15895D01*
G75*
D01*
G02X22712Y-16495I-620J-300*
G01*
X22950Y-16495D01*
G74*
D01*
G02X22392Y-17053I858J300*
G01*
X22392Y-16816D01*
G75*
D01*
G02X21792Y-16816I-300J621*
G01*
X21792Y-17053D01*
G74*
D01*
G02X21303Y-16646I300J858*
G01*
X21303Y-17458D01*
G75*
D01*
G02X21152Y-17609I-151J0*
G01*
X2648Y-17609D01*
G75*
D01*
G02X2497Y-17458I0J151*
G01*
X24692Y16840D02*
G75*
D01*
G02X24692Y17440I548J300*
G01*
X24260Y17440D01*
G74*
D01*
G02X24940Y18120I980J300*
G01*
X24940Y17688D01*
G75*
D01*
G02X25540Y17688I300J-548*
G01*
X25540Y18120D01*
G74*
D01*
G02X26220Y17440I300J980*
G01*
X25788Y17440D01*
G75*
D01*
G02X25788Y16840I-548J-300*
G01*
X26220Y16840D01*
G74*
D01*
G02X25540Y16160I980J300*
G01*
X25540Y16592D01*
G75*
D01*
G02X24940Y16592I-300J548*
G01*
X24940Y16160D01*
G74*
D01*
G02X24260Y16840I300J980*
G01*
X24692Y16840D01*
X-12597Y7528D02*
G75*
D01*
G02X-12597Y7528I397J-128*
G01*
X-31130Y-11190D02*
G74*
D01*
G02X-31810Y-11870I980J300*
G01*
X-31810Y-11438D01*
G75*
D01*
G02X-32410Y-11438I-300J548*
G01*
X-32410Y-11870D01*
G74*
D01*
G02X-33090Y-11190I300J980*
G01*
X-32658Y-11190D01*
G75*
D01*
G02X-32658Y-10590I548J300*
G01*
X-33090Y-10590D01*
G74*
D01*
G02X-32410Y-9910I980J300*
G01*
X-32410Y-10342D01*
G75*
D01*
G02X-31810Y-10342I300J-548*
G01*
X-31810Y-9910D01*
G74*
D01*
G02X-31130Y-10590I300J980*
G01*
X-31562Y-10590D01*
G75*
D01*
G02X-31562Y-11190I-548J-300*
G01*
X-31130Y-11190D01*
X-7543Y-13036D02*
G74*
D01*
G02X-7257Y-12749I343J56*
G01*
X-7257Y-13036D01*
X-7543Y-13036D01*
X-7543Y-13357D02*
X-7257Y-13357D01*
X-7257Y-13643D01*
G74*
D01*
G02X-7543Y-13357I57J342*
G01*
X-12653Y-11466D02*
G74*
D01*
G02X-13066Y-11053I253J666*
G01*
X-12822Y-11053D01*
G75*
D01*
G02X-12822Y-10547I422J253*
G01*
X-13066Y-10547D01*
G74*
D01*
G02X-12653Y-10134I666J253*
G01*
X-12653Y-10378D01*
G75*
D01*
G02X-12147Y-10378I253J-422*
G01*
X-12147Y-10134D01*
G74*
D01*
G02X-11734Y-10547I253J666*
G01*
X-11978Y-10547D01*
G75*
D01*
G02X-11978Y-11053I-422J-253*
G01*
X-11734Y-11053D01*
G74*
D01*
G02X-12147Y-11466I666J253*
G01*
X-12147Y-11222D01*
G75*
D01*
G02X-12653Y-11222I-253J422*
G01*
X-12653Y-11466D01*
X-16983Y-3899D02*
G75*
D01*
G02X-16983Y-4301I283J-201*
G01*
X-17117Y-4301D01*
X-18558Y-5742D01*
G74*
D01*
G02X-18630Y-5788I142J142*
G01*
G74*
D01*
G02X-18700Y-5801I70J188*
G01*
X-20835Y-5801D01*
G75*
D01*
G02X-20835Y-5399I-365J201*
G01*
X-18783Y-5399D01*
X-17342Y-3958D01*
G74*
D01*
G02X-17221Y-3900I142J142*
G01*
G75*
D01*
G02X-17200Y-3899I21J-200*
G01*
X-16983Y-3899D01*
X-17042Y-5158D02*
G75*
D01*
G02X-16758Y-5442I342J58*
G01*
X-16896Y-5580D01*
X-16896Y-5580D01*
X-18058Y-6742D01*
G74*
D01*
G02X-18130Y-6788I142J142*
G01*
G74*
D01*
G02X-18200Y-6801I70J188*
G01*
X-20835Y-6801D01*
G75*
D01*
G02X-20835Y-6399I-365J201*
G01*
X-18283Y-6399D01*
X-17042Y-5158D01*
X-25788Y16840D02*
G75*
D01*
G02X-25788Y17440I548J300*
G01*
X-26220Y17440D01*
G74*
D01*
G02X-25540Y18120I980J300*
G01*
X-25540Y17688D01*
G75*
D01*
G02X-24940Y17688I300J-548*
G01*
X-24940Y18120D01*
G74*
D01*
G02X-24260Y17440I300J980*
G01*
X-24692Y17440D01*
G75*
D01*
G02X-24692Y16840I-548J-300*
G01*
X-24260Y16840D01*
G74*
D01*
G02X-24940Y16160I980J300*
G01*
X-24940Y16592D01*
G75*
D01*
G02X-25540Y16592I-300J548*
G01*
X-25540Y16160D01*
G74*
D01*
G02X-26220Y16840I300J980*
G01*
X-25788Y16840D01*
X-20803Y7528D02*
G75*
D01*
G02X-20803Y7528I-397J-128*
G01*
X-27621Y-1921D02*
G75*
D01*
G02X-27621Y-1921I-179J-79*
G01*
X-10218Y-2700D02*
G75*
D01*
G02X-10218Y-2700I318J0*
G01*
X-11978Y9853D02*
G75*
D01*
G02X-11978Y9347I-422J-253*
G01*
X-11734Y9347D01*
G74*
D01*
G02X-12147Y8934I666J253*
G01*
X-12147Y9178D01*
G75*
D01*
G02X-12653Y9178I-253J422*
G01*
X-12653Y8934D01*
G74*
D01*
G02X-13066Y9347I253J666*
G01*
X-12822Y9347D01*
G75*
D01*
G02X-12822Y9853I422J253*
G01*
X-13066Y9853D01*
G74*
D01*
G02X-12653Y10266I666J253*
G01*
X-12653Y10022D01*
G75*
D01*
G02X-12147Y10022I253J-422*
G01*
X-12147Y10266D01*
G74*
D01*
G02X-11734Y9853I253J666*
G01*
X-11978Y9853D01*
X-12617Y8400D02*
G75*
D01*
G02X-12617Y8400I417J0*
G01*
X32658Y11190D02*
G75*
D01*
G02X32658Y10590I-548J-300*
G01*
X33090Y10590D01*
G74*
D01*
G02X32410Y9910I980J300*
G01*
X32410Y10342D01*
G75*
D01*
G02X31810Y10342I-300J548*
G01*
X31810Y9910D01*
G74*
D01*
G02X31130Y10590I300J980*
G01*
X31562Y10590D01*
G75*
D01*
G02X31562Y11190I548J300*
G01*
X31130Y11190D01*
G74*
D01*
G02X31810Y11870I980J300*
G01*
X31810Y11438D01*
G75*
D01*
G02X32410Y11438I300J-548*
G01*
X32410Y11870D01*
G74*
D01*
G02X33090Y11190I300J980*
G01*
X32658Y11190D01*
X16243Y18540D02*
G75*
D01*
G02X16243Y18540I417J0*
G01*
X16463Y14540D02*
G75*
D01*
G02X16463Y14540I197J0*
G01*
X16270Y14688D02*
G74*
D01*
G02X16512Y14930I390J148*
G01*
X16512Y14688D01*
X16270Y14688D01*
X16808Y14930D02*
G74*
D01*
G02X17050Y14688I148J390*
G01*
X16808Y14688D01*
X16808Y14930D01*
X16243Y15540D02*
G75*
D01*
G02X16243Y15540I417J0*
G01*
X-12617Y-600D02*
G75*
D01*
G02X-12617Y-600I417J0*
G01*
X-12617Y1400D02*
G75*
D01*
G02X-12617Y1400I417J0*
G01*
X-12617Y2400D02*
G75*
D01*
G02X-12617Y2400I417J0*
G01*
X-12617Y3400D02*
G75*
D01*
G02X-12617Y3400I417J0*
G01*
X-12617Y4400D02*
G75*
D01*
G02X-12617Y4400I417J0*
G01*
X-12617Y5400D02*
G75*
D01*
G02X-12617Y5400I417J0*
G01*
X-12617Y6400D02*
G75*
D01*
G02X-12617Y6400I417J0*
G01*
X21675Y-1314D02*
G75*
D01*
G02X21675Y-1314I417J0*
G01*
X-10198Y6213D02*
G74*
D01*
G02X-10013Y6398I298J113*
G01*
X-10013Y6213D01*
X-10198Y6213D01*
X-9787Y6398D02*
G74*
D01*
G02X-9602Y6213I113J298*
G01*
X-9787Y6213D01*
X-9787Y6398D01*
X-9602Y5987D02*
G74*
D01*
G02X-9787Y5802I298J113*
G01*
X-9787Y5987D01*
X-9602Y5987D01*
X-10013Y5802D02*
G74*
D01*
G02X-10198Y5987I113J298*
G01*
X-10013Y5987D01*
X-10013Y5802D01*
X-9998Y6100D02*
G75*
D01*
G02X-9998Y6100I98J0*
G01*
X-12590Y-9452D02*
G74*
D01*
G02X-12348Y-9210I390J148*
G01*
X-12348Y-9452D01*
X-12590Y-9452D01*
X-12052Y-9210D02*
G74*
D01*
G02X-11810Y-9452I148J390*
G01*
X-12052Y-9452D01*
X-12052Y-9210D01*
X-11810Y-9748D02*
G74*
D01*
G02X-12052Y-9990I390J148*
G01*
X-12052Y-9748D01*
X-11810Y-9748D01*
X-12397Y-9600D02*
G75*
D01*
G02X-12397Y-9600I197J0*
G01*
X-12348Y-9990D02*
G74*
D01*
G02X-12590Y-9748I148J390*
G01*
X-12348Y-9748D01*
X-12348Y-9990D01*
X-12617Y-8600D02*
G75*
D01*
G02X-12617Y-8600I417J0*
G01*
X-12617Y-7600D02*
G75*
D01*
G02X-12617Y-7600I417J0*
G01*
X-12617Y-6600D02*
G75*
D01*
G02X-12617Y-6600I417J0*
G01*
X-12617Y-5600D02*
G75*
D01*
G02X-12617Y-5600I417J0*
G01*
X-12617Y-4600D02*
G75*
D01*
G02X-12617Y-4600I417J0*
G01*
X-12617Y-3600D02*
G75*
D01*
G02X-12617Y-3600I417J0*
G01*
X-12617Y-2600D02*
G75*
D01*
G02X-12617Y-2600I417J0*
G01*
X21683Y-14955D02*
G75*
D01*
G02X21683Y-14955I417J0*
G01*
X21683Y-13955D02*
G75*
D01*
G02X21683Y-13955I417J0*
G01*
X21683Y-12955D02*
G75*
D01*
G02X21683Y-12955I417J0*
G01*
X21683Y-11955D02*
G75*
D01*
G02X21683Y-11955I417J0*
G01*
X-3415Y7634D02*
G75*
D01*
G02X-3566Y7785I0J151*
G01*
X-3566Y9215D01*
G75*
D01*
G02X-3415Y9366I151J0*
G01*
X-1985Y9366D01*
G74*
D01*
G02X-1834Y9215I0J151*
G01*
X-1834Y7785D01*
G75*
D01*
G02X-1985Y7634I-151J0*
G01*
X-3415Y7634D01*
X3264Y13332D02*
G75*
D01*
G02X3264Y12963I-237J-184*
G01*
X3513Y12963D01*
G74*
D01*
G02X3211Y12661I486J185*
G01*
X3211Y12911D01*
G75*
D01*
G02X2843Y12911I-184J237*
G01*
X2843Y12661D01*
G74*
D01*
G02X2541Y12963I184J487*
G01*
X2790Y12963D01*
G75*
D01*
G02X2790Y13332I237J185*
G01*
X2541Y13332D01*
G74*
D01*
G02X2843Y13634I486J184*
G01*
X2843Y13384D01*
G75*
D01*
G02X3211Y13384I184J-236*
G01*
X3211Y13634D01*
G74*
D01*
G02X3513Y13332I184J486*
G01*
X3264Y13332D01*
X-24692Y-16840D02*
G75*
D01*
G02X-24692Y-17440I-548J-300*
G01*
X-24260Y-17440D01*
G74*
D01*
G02X-24940Y-18120I980J300*
G01*
X-24940Y-17688D01*
G75*
D01*
G02X-25540Y-17688I-300J548*
G01*
X-25540Y-18120D01*
G74*
D01*
G02X-26220Y-17440I300J980*
G01*
X-25788Y-17440D01*
G75*
D01*
G02X-25788Y-16840I548J300*
G01*
X-26220Y-16840D01*
G74*
D01*
G02X-25540Y-16160I980J300*
G01*
X-25540Y-16592D01*
G75*
D01*
G02X-24940Y-16592I300J-548*
G01*
X-24940Y-16160D01*
G74*
D01*
G02X-24260Y-16840I300J980*
G01*
X-24692Y-16840D01*
X-20966Y-15415D02*
X-20966Y-15000D01*
X-20400Y-15000D01*
X-20400Y-15566D01*
X-20815Y-15566D01*
G75*
D01*
G02X-20966Y-15415I0J151*
G01*
X-19454Y-14700D02*
G75*
D01*
G02X-19730Y-14976I-276J0*
G01*
X-20470Y-14976D01*
G75*
D01*
G02X-20746Y-14700I0J276*
G01*
G75*
D01*
G02X-20470Y-14424I276J0*
G01*
X-19730Y-14424D01*
G74*
D01*
G02X-19454Y-14700I0J276*
G01*
X-19234Y-15415D02*
G75*
D01*
G02X-19385Y-15566I-151J0*
G01*
X-19800Y-15566D01*
X-19800Y-15000D01*
X-19234Y-15000D01*
X-19234Y-15415D01*
X-20815Y-13834D02*
X-20400Y-13834D01*
X-20400Y-14400D01*
X-20966Y-14400D01*
X-20966Y-13985D01*
G75*
D01*
G02X-20815Y-13834I151J0*
G01*
X-19234Y-13985D02*
X-19234Y-14400D01*
X-19800Y-14400D01*
X-19800Y-13834D01*
X-19385Y-13834D01*
G74*
D01*
G02X-19234Y-13985I0J151*
G01*
X-9563Y-13196D02*
G75*
D01*
G02X-9563Y-13196I467J0*
G01*
X-8563Y-13196D02*
G75*
D01*
G02X-8563Y-13196I467J0*
G01*
X-7292Y-13196D02*
G75*
D01*
G02X-7292Y-13196I196J0*
G01*
X-6936Y-13643D02*
X-6936Y-13357D01*
X-6649Y-13357D01*
G74*
D01*
G02X-6936Y-13643I343J56*
G01*
X-6649Y-13036D02*
X-6936Y-13036D01*
X-6936Y-12749D01*
G74*
D01*
G02X-6649Y-13036I56J343*
G01*
X-21617Y-600D02*
G75*
D01*
G02X-21617Y-600I417J0*
G01*
X-21617Y1400D02*
G75*
D01*
G02X-21617Y1400I417J0*
G01*
X-21617Y2400D02*
G75*
D01*
G02X-21617Y2400I417J0*
G01*
X-21617Y3400D02*
G75*
D01*
G02X-21617Y3400I417J0*
G01*
X-21617Y4400D02*
G75*
D01*
G02X-21617Y4400I417J0*
G01*
X-21617Y5400D02*
G75*
D01*
G02X-21617Y5400I417J0*
G01*
X-21617Y6400D02*
G75*
D01*
G02X-21617Y6400I417J0*
G01*
X-21617Y-9600D02*
G75*
D01*
G02X-21617Y-9600I417J0*
G01*
X-21617Y-8600D02*
G75*
D01*
G02X-21617Y-8600I417J0*
G01*
X-21617Y-7600D02*
G75*
D01*
G02X-21617Y-7600I417J0*
G01*
X-21617Y-4600D02*
G75*
D01*
G02X-21617Y-4600I417J0*
G01*
X-21617Y-3600D02*
G75*
D01*
G02X-21617Y-3600I417J0*
G01*
X-27518Y-8400D02*
G75*
D01*
G02X-27518Y-8400I118J0*
G01*
X-27277Y-8076D02*
G74*
D01*
G02X-27076Y-8277I123J324*
G01*
X-27277Y-8277D01*
X-27277Y-8076D01*
X-27076Y-8523D02*
G74*
D01*
G02X-27277Y-8724I324J123*
G01*
X-27277Y-8523D01*
X-27076Y-8523D01*
X-27523Y-8724D02*
G74*
D01*
G02X-27724Y-8523I123J324*
G01*
X-27523Y-8523D01*
X-27523Y-8724D01*
X-28267Y-4000D02*
G75*
D01*
G02X-28267Y-4000I467J0*
G01*
X-28267Y-3000D02*
G75*
D01*
G02X-28267Y-3000I467J0*
G01*
X-28247Y-2160D02*
X-27960Y-2160D01*
X-27960Y-2447D01*
G74*
D01*
G02X-28247Y-2160I56J343*
G01*
X-27640Y-2447D02*
X-27640Y-2160D01*
X-27353Y-2160D01*
G74*
D01*
G02X-27640Y-2447I343J56*
G01*
X-33618Y5800D02*
G75*
D01*
G02X-33618Y5800I118J0*
G01*
X-27960Y-1553D02*
X-27960Y-1840D01*
X-28247Y-1840D01*
G74*
D01*
G02X-27960Y-1553I343J56*
G01*
X-27353Y-1840D02*
X-27640Y-1840D01*
X-27640Y-1553D01*
G74*
D01*
G02X-27353Y-1840I56J343*
G01*
X-33176Y5677D02*
G74*
D01*
G02X-33377Y5476I324J123*
G01*
X-33377Y5677D01*
X-33176Y5677D01*
X-33623Y5476D02*
G74*
D01*
G02X-33824Y5677I123J324*
G01*
X-33623Y5677D01*
X-33623Y5476D01*
X-33824Y5923D02*
G74*
D01*
G02X-33623Y6124I324J123*
G01*
X-33623Y5923D01*
X-33824Y5923D01*
X-33377Y6124D02*
G74*
D01*
G02X-33176Y5923I123J324*
G01*
X-33377Y5923D01*
X-33377Y6124D01*
X21683Y-9955D02*
G75*
D01*
G02X21683Y-9955I417J0*
G01*
X21675Y-5314D02*
G75*
D01*
G02X21675Y-5314I417J0*
G01*
X21683Y-7955D02*
G75*
D01*
G02X21683Y-7955I417J0*
G01*
X21895Y-6314D02*
G75*
D01*
G02X21895Y-6314I197J0*
G01*
X21944Y-6703D02*
G74*
D01*
G02X21702Y-6461I148J389*
G01*
X21944Y-6461D01*
X21944Y-6703D01*
X22482Y-6461D02*
G74*
D01*
G02X22240Y-6703I390J147*
G01*
X22240Y-6461D01*
X22482Y-6461D01*
X26815Y-5334D02*
G74*
D01*
G02X26966Y-5485I0J151*
G01*
X26966Y-6915D01*
G75*
D01*
G02X26815Y-7066I-151J0*
G01*
X25385Y-7066D01*
G75*
D01*
G02X25234Y-6915I0J151*
G01*
X25234Y-5485D01*
G75*
D01*
G02X25385Y-5334I151J0*
G01*
X26815Y-5334D01*
X21702Y-6166D02*
G74*
D01*
G02X21944Y-5924I390J148*
G01*
X21944Y-6166D01*
X21702Y-6166D01*
X22240Y-5924D02*
G74*
D01*
G02X22482Y-6166I148J390*
G01*
X22240Y-6166D01*
X22240Y-5924D01*
X27553Y-5660D02*
X27840Y-5660D01*
X27840Y-5947D01*
G74*
D01*
G02X27553Y-5660I56J343*
G01*
X28160Y-5947D02*
X28160Y-5660D01*
X28447Y-5660D01*
G74*
D01*
G02X28160Y-5947I343J56*
G01*
X27804Y-5500D02*
G75*
D01*
G02X27804Y-5500I196J0*
G01*
X27840Y-5053D02*
X27840Y-5340D01*
X27553Y-5340D01*
G74*
D01*
G02X27840Y-5053I343J56*
G01*
X27533Y-4500D02*
G75*
D01*
G02X27533Y-4500I467J0*
G01*
X28447Y-5340D02*
X28160Y-5340D01*
X28160Y-5053D01*
G74*
D01*
G02X28447Y-5340I56J343*
G01*
X27533Y-3500D02*
G75*
D01*
G02X27533Y-3500I467J0*
G01*
X21675Y-3314D02*
G75*
D01*
G02X21675Y-3314I417J0*
G01*
X-31562Y11190D02*
G75*
D01*
G02X-31562Y10590I-548J-300*
G01*
X-31130Y10590D01*
G74*
D01*
G02X-31810Y9910I980J300*
G01*
X-31810Y10342D01*
G75*
D01*
G02X-32410Y10342I-300J548*
G01*
X-32410Y9910D01*
G74*
D01*
G02X-33090Y10590I300J980*
G01*
X-32658Y10590D01*
G75*
D01*
G02X-32658Y11190I548J300*
G01*
X-33090Y11190D01*
G74*
D01*
G02X-32410Y11870I980J300*
G01*
X-32410Y11438D01*
G75*
D01*
G02X-31810Y11438I300J-548*
G01*
X-31810Y11870D01*
G74*
D01*
G02X-31130Y11190I300J980*
G01*
X-31562Y11190D01*
X-7218Y5100D02*
G75*
D01*
G02X-7218Y5100I318J0*
G01*
X-3415Y-7066D02*
G75*
D01*
G02X-3566Y-6915I0J151*
G01*
X-3566Y-6500D01*
X-3000Y-6500D01*
X-3000Y-7066D01*
X-3415Y-7066D01*
X-1985Y-7066D02*
X-2400Y-7066D01*
X-2400Y-6500D01*
X-1834Y-6500D01*
X-1834Y-6915D01*
G75*
D01*
G02X-1985Y-7066I-151J0*
G01*
X-2700Y-6846D02*
G75*
D01*
G02X-2976Y-6570I0J276*
G01*
X-2976Y-5830D01*
G75*
D01*
G02X-2700Y-5554I276J0*
G01*
G74*
D01*
G02X-2424Y-5830I0J276*
G01*
X-2424Y-6570D01*
G75*
D01*
G02X-2700Y-6846I-276J0*
G01*
X-3415Y-5334D02*
X-3000Y-5334D01*
X-3000Y-5900D01*
X-3566Y-5900D01*
X-3566Y-5485D01*
G75*
D01*
G02X-3415Y-5334I151J0*
G01*
X-1834Y-5485D02*
X-1834Y-5900D01*
X-2400Y-5900D01*
X-2400Y-5334D01*
X-1985Y-5334D01*
G74*
D01*
G02X-1834Y-5485I0J151*
G01*
X-7198Y-2587D02*
G74*
D01*
G02X-7013Y-2402I298J113*
G01*
X-7013Y-2587D01*
X-7198Y-2587D01*
X-7013Y-2998D02*
G74*
D01*
G02X-7198Y-2813I113J298*
G01*
X-7013Y-2813D01*
X-7013Y-2998D01*
X-6787Y-2402D02*
G74*
D01*
G02X-6602Y-2587I113J298*
G01*
X-6787Y-2587D01*
X-6787Y-2402D01*
X-6602Y-2813D02*
G74*
D01*
G02X-6787Y-2998I298J113*
G01*
X-6787Y-2813D01*
X-6602Y-2813D01*
X-6998Y-2700D02*
G75*
D01*
G02X-6998Y-2700I98J0*
G01*
X26815Y9366D02*
G74*
D01*
G02X26966Y9215I0J151*
G01*
X26966Y7785D01*
G75*
D01*
G02X26815Y7634I-151J0*
G01*
X25385Y7634D01*
G75*
D01*
G02X25234Y7785I0J151*
G01*
X25234Y9215D01*
G75*
D01*
G02X25385Y9366I151J0*
G01*
X26815Y9366D01*
X-21617Y8400D02*
G75*
D01*
G02X-21617Y8400I417J0*
G01*
X-20478Y9853D02*
G75*
D01*
G02X-20478Y9347I-422J-253*
G01*
X-20234Y9347D01*
G74*
D01*
G02X-20647Y8934I666J253*
G01*
X-20647Y9178D01*
G75*
D01*
G02X-21153Y9178I-253J422*
G01*
X-21153Y8934D01*
G74*
D01*
G02X-21566Y9347I253J666*
G01*
X-21322Y9347D01*
G75*
D01*
G02X-21322Y9853I422J253*
G01*
X-21566Y9853D01*
G74*
D01*
G02X-21153Y10266I666J253*
G01*
X-21153Y10022D01*
G75*
D01*
G02X-20647Y10022I253J-422*
G01*
X-20647Y10266D01*
G74*
D01*
G02X-20234Y9853I253J666*
G01*
X-20478Y9853D01*
X-20966Y14815D02*
G75*
D01*
G02X-20815Y14966I151J0*
G01*
X-19385Y14966D01*
G74*
D01*
G02X-19234Y14815I0J151*
G01*
X-19234Y13385D01*
G75*
D01*
G02X-19385Y13234I-151J0*
G01*
X-20815Y13234D01*
G75*
D01*
G02X-20966Y13385I0J151*
G01*
X-20966Y14815D01*
X-9853Y13460D02*
X-10140Y13460D01*
X-10140Y13747D01*
G74*
D01*
G02X-9853Y13460I56J343*
G01*
X-10496Y13300D02*
G75*
D01*
G02X-10496Y13300I196J0*
G01*
X-10460Y13747D02*
X-10460Y13460D01*
X-10747Y13460D01*
G74*
D01*
G02X-10460Y13747I343J56*
G01*
X28809Y-8000D02*
X28809Y0D01*
G75*
D01*
G02X28960Y151I151J0*
G01*
X35489Y151D01*
X35489Y8000D01*
X35489Y8000D01*
X35492Y12725D01*
G75*
D01*
G02X35491Y12737I151J12*
G01*
G74*
D01*
G03X34393Y13835I1098J0*
G01*
G75*
D01*
G02X34381Y13836I0J152*
G01*
X32296Y13836D01*
G74*
D01*
G02X32266Y13833I30J151*
G01*
G75*
D01*
G02X28305Y17794I0J3961*
G01*
G74*
D01*
G02X28308Y17824I154J0*
G01*
X28308Y19406D01*
G75*
D01*
G02X28308Y19418I151J12*
G01*
G74*
D01*
G03X27209Y20516I1099J0*
G01*
G75*
D01*
G02X27197Y20517I0J152*
G01*
X-4349Y20517D01*
X-4349Y13987D01*
G75*
D01*
G02X-4500Y13836I-151J0*
G01*
X-12500Y13836D01*
G75*
D01*
G02X-12651Y13987I0J151*
G01*
X-12651Y20517D01*
X-16896Y20517D01*
X-16896Y20517D01*
X-20500Y20517D01*
X-20500Y20517D01*
X-26345Y20517D01*
X-26345Y20517D01*
X-27197Y20517D01*
G74*
D01*
G02X-27209Y20516I12J151*
G01*
G75*
D01*
G03X-28308Y19418I0J-1098*
G01*
G75*
D01*
G02X-28308Y19406I-151J0*
G01*
X-28308Y17824D01*
G74*
D01*
G02X-28305Y17794I151J30*
G01*
G75*
D01*
G02X-32266Y13833I-3961J0*
G01*
G75*
D01*
G02X-32296Y13836I0J154*
G01*
X-34381Y13836D01*
G74*
D01*
G02X-34393Y13835I12J151*
G01*
G75*
D01*
G03X-35491Y12737I0J-1098*
G01*
G75*
D01*
G02X-35492Y12725I-152J0*
G01*
X-35492Y151D01*
X-28459Y151D01*
G74*
D01*
G02X-28308Y0I0J151*
G01*
X-28308Y-8000D01*
G75*
D01*
G02X-28459Y-8151I-151J0*
G01*
X-35489Y-8151D01*
X-35491Y-11370D01*
X-35491Y-11370D01*
X-35492Y-12725D01*
G74*
D01*
G02X-35491Y-12737I151J12*
G01*
G75*
D01*
G03X-34393Y-13835I1098J0*
G01*
G74*
D01*
G02X-34381Y-13836I0J152*
G01*
X-32296Y-13836D01*
G75*
D01*
G02X-32266Y-13833I30J-151*
G01*
G74*
D01*
G02X-28305Y-17794I0J3961*
G01*
G75*
D01*
G02X-28308Y-17824I-154J0*
G01*
X-28308Y-19406D01*
G74*
D01*
G02X-28308Y-19418I151J12*
G01*
G75*
D01*
G03X-27209Y-20516I1099J0*
G01*
G74*
D01*
G02X-27197Y-20517I0J152*
G01*
X-12651Y-20517D01*
X-12651Y-13988D01*
G75*
D01*
G02X-12500Y-13837I151J0*
G01*
X-4500Y-13837D01*
G74*
D01*
G02X-4349Y-13988I0J151*
G01*
X-4349Y-20517D01*
X0Y-20517D01*
X0Y-20517D01*
X2001Y-20517D01*
X2001Y-20517D01*
X4296Y-20517D01*
X4296Y-20517D01*
X11450Y-20517D01*
X11450Y-20517D01*
X12500Y-20517D01*
X12500Y-20517D01*
X20500Y-20517D01*
X20899Y-20517D01*
X20899Y-20517D01*
X27197Y-20517D01*
G75*
D01*
G02X27209Y-20516I12J-151*
G01*
G75*
D01*
G03X28308Y-19418I0J1098*
G01*
G74*
D01*
G02X28308Y-19406I151J0*
G01*
X28308Y-17824D01*
G75*
D01*
G02X28305Y-17794I151J30*
G01*
G75*
D01*
G02X32266Y-13833I3961J0*
G01*
G74*
D01*
G02X32296Y-13836I0J154*
G01*
X34381Y-13836D01*
G75*
D01*
G02X34393Y-13835I12J-151*
G01*
G74*
D01*
G03X35489Y-12808I0J1098*
G01*
X35489Y-12806D01*
X35489Y-8151D01*
X28960Y-8151D01*
G75*
D01*
G02X28809Y-8000I0J151*
G01*
X-17158Y-19758D02*
X-16817Y-20099D01*
X-14713Y-20099D01*
X-13101Y-18487D01*
X-13101Y-18228D01*
G74*
D01*
G02X-13158Y-18342I199J28*
G01*
X-14658Y-19842D01*
G75*
D01*
G02X-14800Y-19901I-142J142*
G01*
X-16317Y-19901D01*
G75*
D01*
G02X-16898Y-19522I-283J201*
G01*
X-25671Y-19522D01*
G75*
D01*
G02X-25813Y-19463I0J201*
G01*
X-26345Y-18931D01*
X-27242Y-18034D01*
G74*
D01*
G02X-27299Y-17919I142J143*
G01*
X-27299Y-18017D01*
X-25617Y-19699D01*
X-17300Y-19699D01*
G75*
D01*
G02X-17158Y-19758I0J-201*
G01*
X25788Y-16840D02*
G75*
D01*
G02X25788Y-17440I-548J-300*
G01*
X26199Y-17440D01*
X26199Y-16840D01*
X25788Y-16840D01*
X21472Y-16495D02*
G75*
D01*
G02X21472Y-15895I620J300*
G01*
X21303Y-15895D01*
X21303Y-16495D01*
X21472Y-16495D01*
X-27301Y-15972D02*
G74*
D01*
G03X-27358Y-15858I199J28*
G01*
X-30158Y-13058D01*
G74*
D01*
G03X-30255Y-13004I142J142*
G01*
G74*
D01*
G03X-30272Y-13001I45J196*
G01*
X-30083Y-13001D01*
X-27301Y-15783D01*
X-27301Y-15972D01*
X-34499Y-12228D02*
G74*
D01*
G03X-34442Y-12342I199J28*
G01*
X-33842Y-12942D01*
G74*
D01*
G03X-33728Y-12999I142J142*
G01*
X-33917Y-12999D01*
X-34499Y-12417D01*
X-34499Y-12228D01*
X-8401Y-11317D02*
G75*
D01*
G03X-8376Y-11899I201J-283*
G01*
X-11415Y-11899D01*
X-11358Y-11842D01*
G75*
D01*
G03X-11299Y-11700I-142J142*
G01*
X-11299Y-4276D01*
G75*
D01*
G03X-10717Y-4301I299J176*
G01*
X-9100Y-4301D01*
G74*
D01*
G03X-9050Y-4295I0J201*
G01*
G74*
D01*
G03X-8958Y-4242I50J195*
G01*
X-8558Y-3842D01*
G75*
D01*
G03X-8499Y-3700I-142J142*
G01*
X-8499Y2024D01*
G74*
D01*
G03X-8401Y1917I299J176*
G01*
X-8401Y-11317D01*
X-20647Y-11222D02*
X-20647Y-11399D01*
X-21153Y-11399D01*
X-21153Y-11222D01*
G75*
D01*
G03X-20647Y-11222I253J422*
G01*
X32658Y-10590D02*
G75*
D01*
G02X32658Y-11190I-548J-300*
G01*
X32999Y-11190D01*
X32999Y-10590D01*
X32658Y-10590D01*
X-11099Y8476D02*
X-11099Y10617D01*
X-10600Y11115D01*
G74*
D01*
G03X-10601Y11100I200J15*
G01*
X-10601Y8584D01*
G75*
D01*
G03X-11099Y8476I-199J-284*
G01*
X18357Y13384D02*
X18357Y13599D01*
X17989Y13599D01*
X17989Y13384D01*
G75*
D01*
G02X18357Y13384I184J-236*
G01*
X28600Y-1900D02*
X28000Y-2500D01*
X-10300Y13300D02*
X-12500Y13300D01*
X-34000Y-13200D02*
X-34700Y-12500D01*
X-34700Y-8700D01*
X-26700Y-7700D02*
X-26700Y-1500D01*
X-26700Y-7700D02*
X-27400Y-8400D01*
X-34100Y-9100D02*
X-34300Y-9300D01*
X-34300Y-12200D01*
X-33700Y-12800D01*
X-6900Y-2700D02*
X-6900Y-6196D01*
X-2704Y-6196D01*
X27200Y-4700D02*
X28000Y-5500D01*
X27200Y-4700D02*
X27200Y-500D01*
X22145Y-8955D02*
X23600Y-7500D01*
X22114Y-4314D02*
X23600Y-5800D01*
X22092Y-4314D02*
X22114Y-4314D01*
X-17300Y-19900D02*
X-16900Y-20300D01*
X-33700Y-12800D02*
X-30000Y-12800D01*
X-30300Y-13200D02*
X-34000Y-13200D01*
X-34700Y-8700D02*
X-34650Y-8650D01*
X-14721Y-19321D02*
X-13500Y-18100D01*
X-12900Y-18571D02*
X-14629Y-20300D01*
X-16900Y-20300D02*
X-14629Y-20300D01*
X-30000Y-12800D02*
X-27100Y-15700D01*
X-27500Y-16000D02*
X-30300Y-13200D01*
X27200Y-500D02*
X29000Y1300D01*
X28600Y571D02*
X28600Y-1900D01*
X28929Y900D02*
X28600Y571D01*
X34800Y929D02*
X34771Y900D01*
X28929Y900D01*
X34771Y12300D02*
X34800Y12271D01*
X34800Y929D01*
X27700Y13200D02*
X28900Y12000D01*
X27900Y13500D02*
X29100Y12300D01*
X27900Y16700D02*
X27900Y13500D01*
X29100Y12300D02*
X34771Y12300D01*
X-33500Y5800D02*
X-34900Y4400D01*
X-34871Y1100D02*
X-34900Y1129D01*
X-34900Y4400D01*
X-27800Y-400D02*
X-26700Y-1500D01*
X-28600Y1100D02*
X-27800Y300D01*
X-34871Y1100D02*
X-28600Y1100D01*
X-27800Y300D02*
X-27800Y-2000D01*
X-34900Y4400D02*
X-34900Y11900D01*
X-34500Y12300D02*
X-34900Y11900D01*
X-25240Y17140D02*
X-25240Y16460D01*
X-25900Y15800D01*
X25240Y17140D02*
X26100Y18000D01*
X32110Y10890D02*
X32110Y11990D01*
X32110Y-10890D02*
X31100Y-11900D01*
X29500Y-11900D01*
X25240Y-16160D01*
X25300Y-16100D01*
X25240Y-17140D02*
X25240Y-16160D01*
X-27100Y-17891D02*
X-25671Y-19321D01*
X-14721Y-19321D01*
X-27100Y-15700D02*
X-27100Y-17891D01*
X-28150Y-8650D02*
X-27800Y-8300D01*
X-34650Y-8650D02*
X-28150Y-8650D01*
X-27800Y-8300D02*
X-27800Y-5000D01*
X-27500Y-18100D02*
X-25700Y-19900D01*
X-27500Y-18100D02*
X-27500Y-16000D01*
X-25700Y-19900D02*
X-17300Y-19900D01*
X-12900Y-13271D02*
X-12900Y-18571D01*
X-10096Y-13196D02*
X-12826Y-13196D01*
X-12900Y-13271D01*
X-13500Y-18100D02*
X-13500Y-12971D01*
X-12429Y-11900D01*
X-11700Y-11900D01*
X-11500Y-11700D01*
X-17200Y-4100D02*
X-18700Y-5600D01*
X-16700Y-4100D02*
X-17200Y-4100D01*
X-2785Y-14515D02*
X-2785Y-18371D01*
X26400Y-18371D02*
X26400Y-15300D01*
X-2756Y-18400D02*
X26371Y-18400D01*
X-2756Y-18400D02*
X-2785Y-18371D01*
X26371Y-18400D02*
X26400Y-18371D01*
X33200Y-12171D02*
X33171Y-12200D01*
X29500Y-12200D02*
X33171Y-12200D01*
X-4100Y-13200D02*
X-2785Y-14515D01*
X-6200Y-12100D02*
X-5100Y-13200D01*
X-14800Y-19700D02*
X-13300Y-18200D01*
X-13300Y-13071D02*
X-12329Y-12100D01*
X-14829Y-19100D02*
X-13800Y-18071D01*
X-16600Y-19700D02*
X-14800Y-19700D01*
X-20100Y-18300D02*
X-19300Y-19100D01*
X-12329Y-12100D02*
X-6200Y-12100D01*
X-13300Y-18200D02*
X-13300Y-13071D01*
X-5100Y-13200D02*
X-4100Y-13200D01*
X26400Y-15300D02*
X29500Y-12200D01*
X-18200Y-6600D02*
X-21200Y-6600D01*
X-20100Y-14700D02*
X-20100Y-18300D01*
X-6900Y6100D02*
X-8700Y4300D01*
X-18700Y-5600D02*
X-21200Y-5600D01*
X-11000Y-4100D02*
X-9100Y-4100D01*
X-8700Y-3700D02*
X-9100Y-4100D01*
X-8700Y4300D02*
X-8700Y-3700D01*
X28200Y-7929D02*
X27200Y-7929D01*
X-13800Y-10000D02*
X-13400Y-9600D01*
X-13800Y-18071D02*
X-13800Y-10000D01*
X-13400Y-9600D02*
X-12200Y-9600D01*
X-20900Y-10800D02*
X-12400Y-10800D01*
X-10800Y8300D02*
X-10800Y3800D01*
X-10600Y3600D01*
X-16700Y-5100D02*
X-18200Y-6600D01*
X-21200Y400D02*
X-16700Y400D01*
X-10500Y11500D02*
X-4400Y11500D01*
X-16700Y400D02*
X-15600Y1500D01*
X-11500Y-11700D02*
X-11500Y1800D01*
X-10400Y5600D02*
X-9900Y5100D01*
X-18400Y-1600D02*
X-15300Y1500D01*
X-18400Y-1600D02*
X-21200Y-1600D01*
X-27200Y15800D02*
X-30700Y12300D01*
X-34500Y12300D01*
X-24800Y15800D02*
X-27200Y15800D01*
X-11300Y10700D02*
X-11300Y2000D01*
X-10500Y11500D02*
X-11300Y10700D01*
X-11300Y2000D02*
X-11500Y1800D01*
X-7000Y13000D02*
X-4100Y13000D01*
X-7000Y13000D02*
X-7300Y13300D01*
X-10200Y11300D02*
X-10400Y11100D01*
X-4300Y11300D02*
X-10200Y11300D01*
X-10400Y11100D02*
X-10400Y5600D01*
X33300Y1329D02*
X33271Y1300D01*
X33300Y11971D02*
X33271Y12000D01*
X28900Y12000D02*
X33271Y12000D01*
X29000Y1300D02*
X33271Y1300D01*
X33300Y1329D02*
X33300Y11971D01*
X22121Y-17192D02*
X22092Y-17163D01*
X22092Y-16195D02*
X22092Y-17163D01*
X22121Y-17192D02*
X25192Y-17192D01*
X33171Y-9000D02*
X33200Y-9029D01*
X33200Y-12171D02*
X33200Y-9029D01*
X29271Y-9000D02*
X28200Y-7929D01*
X29271Y-9000D02*
X33171Y-9000D01*
X-26400Y9500D02*
X-26300Y9400D01*
X-26300Y-8200D02*
X-27200Y-9100D01*
X-34100Y-9100D01*
X-26300Y9400D02*
X-26300Y-8200D01*
X-19300Y-19100D02*
X-14829Y-19100D01*
X-25240Y-17140D02*
X-20160Y-17140D01*
X23600Y-5800D02*
X23600Y-7500D01*
X24500Y-4900D02*
X23600Y-5800D01*
X24300Y-106D02*
X22092Y-2314D01*
X26150Y18050D02*
X27700Y16500D01*
X27700Y13200D01*
X-15600Y1500D02*
X-15600Y10600D01*
X-8329Y12700D02*
X-8300Y12729D01*
X-15600Y10600D02*
X-13500Y12700D01*
X-8300Y12729D02*
X-8300Y13300D01*
X-13500Y12700D02*
X-8329Y12700D01*
X-13271Y12500D02*
X-15300Y10471D01*
X-15300Y1500D02*
X-15300Y10471D01*
X-13271Y12500D02*
X-4600Y12500D01*
X-3000Y14100D01*
X-2971Y17900D02*
X-3000Y17871D01*
X-3000Y14100D01*
X24300Y20300D02*
X27900Y16700D01*
X12900Y17900D02*
X15300Y20300D01*
X-2971Y17900D02*
X12900Y17900D01*
X15300Y20300D02*
X24300Y20300D01*
X-9900Y6100D02*
X-9100Y6900D01*
X-6300Y6900D02*
X-6300Y-2100D01*
X-6900Y-2700D01*
X-12500Y13300D02*
X-13000Y13800D01*
X-2800Y14000D02*
X-2800Y17671D01*
X-2771Y17700D02*
X-2800Y17671D01*
X-2371Y17200D02*
X14700Y17200D01*
X-2371Y17200D02*
X-2400Y17171D01*
X-2571Y17500D02*
X-2600Y17471D01*
X-2600Y13900D02*
X-2600Y17471D01*
X-2400Y13800D02*
X-2400Y17171D01*
X-4500Y11700D02*
X-2400Y13800D01*
X-13171Y12200D02*
X-4600Y12200D01*
X-21200Y-2600D02*
X-18700Y-2600D01*
X-12971Y11700D02*
X-4500Y11700D01*
X-15100Y10271D02*
X-13171Y12200D01*
X-2600Y13900D02*
X-4600Y11900D01*
X-13100Y11900D02*
X-4600Y11900D01*
X-14700Y-1000D02*
X-14100Y-1600D01*
X-13800Y400D02*
X-14400Y1000D01*
X-14100Y-1600D02*
X-12200Y-1600D01*
X-14700Y10300D02*
X-14700Y-1000D01*
X-14400Y1000D02*
X-14400Y10271D01*
X-13100Y11900D02*
X-14700Y10300D01*
X-12971Y11700D02*
X-14400Y10271D01*
X-4600Y12200D02*
X-2800Y14000D01*
X-15100Y1000D02*
X-15100Y10271D01*
X-18700Y-2600D02*
X-15100Y1000D01*
X-25800Y-11600D02*
X-17800Y-11600D01*
X-28000Y12200D02*
X-26200Y12200D01*
X-8200Y-11600D02*
X-8200Y2200D01*
X-26000Y-11400D02*
X-25800Y-11600D01*
X-26200Y12200D02*
X-26000Y12000D01*
X-26000Y-11400D01*
X-13800Y400D02*
X-12200Y400D01*
X-2571Y17500D02*
X15500Y17500D01*
X24300Y12171D02*
X24300Y-106D01*
X24500Y12421D02*
X24500Y-4900D01*
X-2771Y17700D02*
X14820Y17700D01*
X16660Y19540D01*
X15500Y17500D02*
X16620Y17500D01*
X16660Y17540D01*
X15300Y16600D02*
X16520Y16600D01*
X16620Y16500D01*
X14700Y17200D02*
X15300Y16600D01*
X22821Y13650D02*
X24300Y12171D01*
X-4400Y11500D02*
X-2000Y13900D01*
X-2000Y15400D01*
X13700Y15400D01*
X15100Y14000D01*
X22921Y14000D01*
X23110Y13810D02*
X24500Y12421D01*
X22921Y14000D02*
X23110Y13810D01*
X-4300Y11300D02*
X-1800Y13800D01*
X-1800Y15200D01*
X13600Y15200D01*
X15000Y13800D01*
X22671Y13800D01*
X22821Y13650D01*
X-13029Y17400D02*
X-13000Y17371D01*
X-13000Y13800D02*
X-13000Y17371D01*
X-23200Y17400D02*
X-24800Y15800D01*
X-13029Y17400D02*
X-23200Y17400D01*
X-32110Y10890D02*
X-32110Y12290D01*
X-9100Y6900D02*
X-6300Y6900D01*
X-2700Y-6200D02*
X-2700Y5900D01*
X-2100Y6500D01*
X0Y6500D01*
X0Y10100D01*
X3000Y13100D01*
X3027Y13148D02*
X18148Y13148D01*
G54D12*
X-35743Y-20768D02*
X-35743Y-16614D01*
X-35743Y-20768D02*
X-28594Y-20768D01*
X35743Y-20768D02*
X28594Y-20768D01*
X35743Y-20768D02*
X35743Y-16614D01*
X35743Y20768D02*
X35743Y16614D01*
X35743Y20768D02*
X28594Y20768D01*
X-35743Y20768D02*
X-28594Y20768D01*
X-35743Y20768D02*
X-35743Y16614D01*
X-37711Y-20768D02*
X-41648Y-20768D01*
X-39680Y-22736D02*
X-39680Y-18799D01*
X-41156Y-20768D02*
G75*
D01*
G02X-41156Y-20768I1476J0*
G01*
X37711Y-20768D02*
X41648Y-20768D01*
X39680Y-22736D02*
X39680Y-18799D01*
X38203Y-20768D02*
G75*
D01*
G02X38203Y-20768I1477J0*
G01*
X39188Y-20768D02*
G75*
D01*
G02X39188Y-20768I492J0*
G01*
X-37711Y20768D02*
X-41648Y20768D01*
X-39680Y18799D02*
X-39680Y22736D01*
X-41156Y20768D02*
G75*
D01*
G02X-41156Y20768I1476J0*
G01*
X-40664Y20768D02*
G75*
D01*
G02X-40664Y20768I984J0*
G01*
X-40172Y20768D02*
G75*
D01*
G02X-40172Y20768I492J0*
G01*
G54D13*
X-33500Y5800D03*
X-26400Y9500D03*
X-27400Y-8400D03*
X-16600Y-19700D03*
X27200Y-7900D03*
X-10600Y3600D03*
X-10800Y8300D03*
X-11000Y-4100D03*
X-16700Y-4100D03*
X-16700Y-5100D03*
X-17800Y-11600D03*
X-28000Y12200D03*
X-8200Y2200D03*
X-8200Y-11600D03*
G54D14*
X-25240Y17140D03*
X25240Y17140D03*
X32110Y10890D03*
X32110Y-10890D03*
X-32110Y10890D03*
X-25240Y-17140D03*
X25240Y-17140D03*
X-32110Y-10890D03*
G54D15*
X-9900Y-1700D03*
X-9900Y-2700D03*
X-6900Y-1700D03*
X-6900Y-2700D03*
X-6900Y5100D03*
X-6900Y6100D03*
X-9900Y5100D03*
X-9900Y6100D03*
G54D16*
X-8300Y13300D03*
X-9300Y13300D03*
X-7300Y13300D03*
X-27800Y-4000D03*
X-27800Y-3000D03*
X-27800Y-5000D03*
X28000Y-3500D03*
X28000Y-4500D03*
X28000Y-2500D03*
X-9096Y-13196D03*
X-8096Y-13196D03*
X-10096Y-13196D03*
G54D17*
X-10300Y13300D03*
X-27800Y-2000D03*
X28000Y-5500D03*
X-7096Y-13196D03*
G54D18*
X-10404Y13196D02*
X-10196Y13196D01*
X-10196Y13404D01*
X-10404Y13404D01*
X-10404Y13196D01*D02*
X-27904Y-2104D02*
X-27696Y-2104D01*
X-27696Y-1896D01*
X-27904Y-1896D01*
X-27904Y-2104D01*D02*
X27896Y-5604D02*
X28104Y-5604D01*
X28104Y-5396D01*
X27896Y-5396D01*
X27896Y-5604D01*D02*
X-7200Y-13300D02*
X-6992Y-13300D01*
X-6992Y-13092D01*
X-7200Y-13092D01*
X-7200Y-13300D01*D02*
G54D19*
X22100Y-7955D03*
X22100Y-8955D03*
X22100Y-9955D03*
X22100Y-10955D03*
X22100Y-11955D03*
X22100Y-12955D03*
X22100Y-13955D03*
X22100Y-14955D03*
X22092Y-6314D03*
X22092Y-5314D03*
X22092Y-4314D03*
X22092Y-3314D03*
X22092Y-2314D03*
X22092Y-1314D03*
X-12200Y-9600D03*
X-12200Y-8600D03*
X-12200Y-7600D03*
X-12200Y-6600D03*
X-12200Y-5600D03*
X-12200Y-4600D03*
X-12200Y-3600D03*
X-12200Y-2600D03*
X-12200Y-1600D03*
X-12200Y-600D03*
X-12200Y400D03*
X-12200Y1400D03*
X-12200Y2400D03*
X-12200Y3400D03*
X-12200Y4400D03*
X-12200Y5400D03*
X-12200Y6400D03*
X-12200Y7400D03*
X-12200Y8400D03*
X-21200Y-9600D03*
X-21200Y-8600D03*
X-21200Y-7600D03*
X-21200Y-6600D03*
X-21200Y-5600D03*
X-21200Y-4600D03*
X-21200Y-3600D03*
X-21200Y-2600D03*
X-21200Y-1600D03*
X-21200Y-600D03*
X-21200Y400D03*
X-21200Y1400D03*
X-21200Y2400D03*
X-21200Y3400D03*
X-21200Y4400D03*
X-21200Y5400D03*
X-21200Y6400D03*
X-21200Y7400D03*
X-21200Y8400D03*
X16660Y14540D03*
X16660Y15540D03*
X16660Y16540D03*
X16660Y17540D03*
X16660Y18540D03*
X16660Y19540D03*
G54D20*
X22092Y-16195D03*
G54D21*
X-20100Y-14700D03*
X-20100Y14100D03*
X-2700Y-6200D03*
X26100Y-6200D03*
X26100Y8500D03*
X-2700Y8500D03*
G54D22*
X-12400Y-10800D03*
X-20900Y-10800D03*
X-20900Y9600D03*
X-12400Y9600D03*
G54D23*
X18173Y13148D03*
X3027Y13148D03*

M02*
