G04 Generated by Ultiboard 14.2 *
%FSLAX24Y24*%
%MOIN*%

%ADD10C,0.0001*%
%ADD11C,0.0100*%
%ADD12C,0.0050*%
%ADD13C,0.0394*%
%ADD14C,0.1750*%
%ADD15C,0.0337*%
%ADD16C,0.0633*%
%ADD17R,0.0208X0.0208*%
%ADD18C,0.0392*%
%ADD19R,0.0413X0.0551*%
%ADD20C,0.0534*%
%ADD21C,0.1518*%
%ADD22R,0.1430X0.1430*%
%ADD23C,0.1124*%
%ADD24R,0.0571X0.0453*%
%ADD25R,0.0433X0.0236*%
%ADD26R,0.0236X0.0657*%
%ADD27R,0.0236X0.0157*%
%ADD28C,0.0740*%
%ADD29R,0.0551X0.0413*%


G04 ColorRGB 00FF00 for the following layer *
%LNCopper Top*%
%LPD*%
G54D10*
G36*
X-14069Y17076D02*
X-14069Y17076D01*
X-14069Y16524D01*
G75*
D01*
G02X-14219Y16374I-150J0*
G01*
X-14219Y16374D01*
X-14225Y16374D01*
X-14225Y14001D01*
X-12651Y14001D01*
X-12651Y20517D01*
X-16896Y20517D01*
X-16896Y20517D01*
X-20500Y20517D01*
X-20500Y20517D01*
X-20500Y20517D01*
X-26345Y20517D01*
X-26345Y20517D01*
X-27197Y20517D01*
G74*
D01*
G02X-27209Y20516I12J151*
G01*
G75*
D01*
G03X-28308Y19418I0J-1098*
G01*
G75*
D01*
G02X-28308Y19406I-151J0*
G01*
X-28308Y19406D01*
X-28308Y17824D01*
G74*
D01*
G02X-28305Y17794I151J30*
G01*
G75*
D01*
G02X-32266Y13833I-3961J0*
G01*
G75*
D01*
G02X-32296Y13836I0J154*
G01*
X-32296Y13836D01*
X-34381Y13836D01*
G74*
D01*
G02X-34393Y13835I12J151*
G01*
G75*
D01*
G03X-35491Y12737I0J-1098*
G01*
G75*
D01*
G02X-35492Y12725I-152J0*
G01*
X-35492Y12725D01*
X-35492Y151D01*
X-28459Y151D01*
G74*
D01*
G02X-28308Y0I0J151*
G01*
X-28308Y0D01*
X-28308Y-8000D01*
G75*
D01*
G02X-28459Y-8151I-151J0*
G01*
X-28459Y-8151D01*
X-35489Y-8151D01*
X-35491Y-11370D01*
X-35491Y-11370D01*
X-35492Y-12725D01*
G74*
D01*
G02X-35491Y-12737I151J12*
G01*
G75*
D01*
G03X-34393Y-13835I1098J0*
G01*
G74*
D01*
G02X-34381Y-13836I0J152*
G01*
X-34381Y-13836D01*
X-32296Y-13836D01*
G75*
D01*
G02X-32266Y-13833I30J-151*
G01*
G74*
D01*
G02X-28305Y-17794I0J3961*
G01*
G75*
D01*
G02X-28308Y-17824I-154J0*
G01*
X-28308Y-17824D01*
X-28308Y-19406D01*
G74*
D01*
G02X-28308Y-19418I151J12*
G01*
G75*
D01*
G03X-27209Y-20516I1099J0*
G01*
G74*
D01*
G02X-27197Y-20517I0J152*
G01*
X-27197Y-20517D01*
X-12651Y-20517D01*
X-12651Y-13988D01*
G74*
D01*
G02X-12649Y-13962I151J0*
G01*
X-12649Y-13962D01*
X-12899Y-14213D01*
X-12899Y-17870D01*
G75*
D01*
G02X-12958Y-18013I-201J-1*
G01*
X-12958Y-18013D01*
X-12987Y-18042D01*
G75*
D01*
G02X-13130Y-18101I-142J142*
G01*
X-13130Y-18101D01*
X-14243Y-18101D01*
X-14669Y-18527D01*
X-14669Y-18876D01*
G75*
D01*
G02X-14819Y-19026I-150J0*
G01*
X-14819Y-19026D01*
X-15233Y-19026D01*
G75*
D01*
G02X-15383Y-18876I0J150*
G01*
X-15383Y-18876D01*
X-15383Y-18368D01*
X-15417Y-18401D01*
X-15417Y-18876D01*
G75*
D01*
G02X-15567Y-19026I-150J0*
G01*
X-15567Y-19026D01*
X-15981Y-19026D01*
G75*
D01*
G02X-16131Y-18876I0J150*
G01*
X-16131Y-18876D01*
X-16131Y-18324D01*
G75*
D01*
G02X-15981Y-18174I150J0*
G01*
X-15981Y-18174D01*
X-15758Y-18174D01*
X-15142Y-17558D01*
G75*
D01*
G02X-15000Y-17499I142J-142*
G01*
X-15000Y-17499D01*
X-13516Y-17499D01*
X-13516Y-14130D01*
X-16671Y-14130D01*
G75*
D01*
G02X-16813Y-14071I0J201*
G01*
X-16813Y-14071D01*
X-19523Y-11361D01*
X-19742Y-11142D01*
G74*
D01*
G02X-19799Y-11028I142J142*
G01*
X-19799Y-11028D01*
X-19799Y-12417D01*
X-18858Y-13358D01*
G75*
D01*
G02X-18799Y-13500I-142J-142*
G01*
X-18799Y-13500D01*
X-18799Y-17187D01*
X-16896Y-19090D01*
X-16896Y-19090D01*
X-16632Y-19355D01*
G75*
D01*
G02X-16937Y-19618I32J-345*
G01*
X-16937Y-19618D01*
X-19142Y-17413D01*
G75*
D01*
G02X-19201Y-17271I142J142*
G01*
X-19201Y-17271D01*
X-19201Y-13583D01*
X-20142Y-12642D01*
G75*
D01*
G02X-20201Y-12500I142J142*
G01*
X-20201Y-12500D01*
X-20201Y-10936D01*
G75*
D01*
G02X-20201Y-10664I-699J136*
G01*
X-20201Y-10664D01*
X-20201Y117D01*
X-21084Y1000D01*
G75*
D01*
G02X-20800Y1284I-116J400*
G01*
X-20800Y1284D01*
X-19858Y342D01*
G74*
D01*
G02X-19801Y228I142J142*
G01*
X-19801Y228D01*
X-19801Y717D01*
X-21084Y2000D01*
G75*
D01*
G02X-20800Y2284I-116J400*
G01*
X-20800Y2284D01*
X-19458Y942D01*
G75*
D01*
G02X-19399Y800I-142J-142*
G01*
X-19399Y800D01*
X-19399Y-10917D01*
X-16587Y-13728D01*
X-13383Y-13728D01*
X-12242Y-12587D01*
G75*
D01*
G02X-12100Y-12528I142J-142*
G01*
X-12100Y-12528D01*
X-9564Y-12528D01*
G75*
D01*
G02X-9421Y-12587I1J-201*
G01*
X-9421Y-12587D01*
X-9252Y-12756D01*
G75*
D01*
G02X-8741Y-13499I156J-440*
G01*
X-8741Y-13499D01*
X-8683Y-13499D01*
X-8536Y-13352D01*
G75*
D01*
G02X-7741Y-13499I440J156*
G01*
X-7741Y-13499D01*
X-7486Y-13499D01*
G75*
D01*
G02X-7548Y-13301I286J198*
G01*
X-7548Y-13301D01*
X-7548Y-13092D01*
G75*
D01*
G02X-7200Y-12745I348J0*
G01*
X-7200Y-12745D01*
X-6992Y-12745D01*
G74*
D01*
G02X-6658Y-12995I0J347*
G01*
X-6658Y-12995D01*
X-6389Y-12995D01*
X-7447Y-11937D01*
X-7862Y-11522D01*
G75*
D01*
G02X-8483Y-11801I-338J-78*
G01*
X-8483Y-11801D01*
X-17517Y-11801D01*
G75*
D01*
G02X-17517Y-11399I-283J201*
G01*
X-17517Y-11399D01*
X-12785Y-11399D01*
G75*
D01*
G02X-13025Y-10459I385J599*
G01*
X-13025Y-10459D01*
X-16896Y-6588D01*
X-18142Y-5342D01*
G75*
D01*
G02X-18201Y-5200I142J142*
G01*
X-18201Y-5200D01*
X-18201Y9399D01*
X-20217Y9399D01*
G75*
D01*
G02X-20217Y9801I-683J201*
G01*
X-20217Y9801D01*
X-13083Y9801D01*
G75*
D01*
G02X-13083Y9399I683J-201*
G01*
X-13083Y9399D01*
X-17799Y9399D01*
X-17799Y-5117D01*
X-12741Y-10175D01*
G75*
D01*
G02X-12015Y-11399I341J-625*
G01*
X-12015Y-11399D01*
X-8483Y-11399D01*
G75*
D01*
G02X-8122Y-11262I283J-201*
G01*
X-8122Y-11262D01*
X-9583Y-9801D01*
X-11835Y-9801D01*
G75*
D01*
G02X-11835Y-9399I-365J201*
G01*
X-11835Y-9399D01*
X-9500Y-9399D01*
X-9500Y-9399D01*
X-9500Y-9399D01*
X-9472Y-9399D01*
G74*
D01*
G02X-9282Y-9533I0J201*
G01*
X-9282Y-9533D01*
X-7906Y-10910D01*
X-5820Y-12995D01*
X-4997Y-12995D01*
X-4997Y-6200D01*
G75*
D01*
G02X-4796Y-5999I201J0*
G01*
X-4796Y-5999D01*
X-3566Y-5999D01*
X-3566Y-5485D01*
G75*
D01*
G02X-3415Y-5334I151J0*
G01*
X-3415Y-5334D01*
X-1985Y-5334D01*
G74*
D01*
G02X-1834Y-5485I0J151*
G01*
X-1834Y-5485D01*
X-1834Y-6915D01*
G75*
D01*
G02X-1985Y-7066I-151J0*
G01*
X-1985Y-7066D01*
X-3415Y-7066D01*
G75*
D01*
G02X-3566Y-6915I0J151*
G01*
X-3566Y-6915D01*
X-3566Y-6401D01*
X-4595Y-6401D01*
X-4595Y-12995D01*
X-3304Y-12995D01*
G74*
D01*
G02X-3161Y-13055I0J201*
G01*
X-3161Y-13055D01*
X-2158Y-14058D01*
G75*
D01*
G02X-2099Y-14201I-142J-142*
G01*
X-2099Y-14201D01*
X-2099Y-18787D01*
X-1987Y-18899D01*
X24457Y-18899D01*
X25039Y-18317D01*
X25039Y-18145D01*
G75*
D01*
G02X26199Y-16778I201J1005*
G01*
X26199Y-16778D01*
X26199Y-15300D01*
G75*
D01*
G02X26258Y-15158I201J0*
G01*
X26258Y-15158D01*
X29358Y-12058D01*
G74*
D01*
G02X29432Y-12011I142J142*
G01*
G75*
D01*
G02X29500Y-11999I68J-189*
G01*
X29500Y-11999D01*
X32999Y-11999D01*
X32999Y-11400D01*
G75*
D01*
G02X32999Y-10380I-889J510*
G01*
X32999Y-10380D01*
X32999Y-9201D01*
X29300Y-9201D01*
G75*
D01*
G02X29158Y-9142I0J201*
G01*
X29158Y-9142D01*
X28517Y-8501D01*
X25900Y-8501D01*
G75*
D01*
G02X25758Y-8442I0J201*
G01*
X25758Y-8442D01*
X23830Y-6515D01*
X22457Y-6515D01*
G75*
D01*
G02X22457Y-6113I-365J201*
G01*
X22457Y-6113D01*
X23914Y-6113D01*
G74*
D01*
G02X24056Y-6172I0J201*
G01*
X24056Y-6172D01*
X25983Y-8099D01*
X26916Y-8099D01*
G75*
D01*
G02X26999Y-7617I284J199*
G01*
X26999Y-7617D01*
X26999Y-3471D01*
X26999Y-3470D01*
X26999Y-3470D01*
X26999Y-500D01*
G75*
D01*
G02X27058Y-358I201J0*
G01*
X27058Y-358D01*
X29774Y2358D01*
X29774Y2581D01*
G75*
D01*
G02X29924Y2731I150J0*
G01*
X29924Y2731D01*
X30476Y2731D01*
G74*
D01*
G02X30626Y2581I0J150*
G01*
X30626Y2581D01*
X30626Y2167D01*
G75*
D01*
G02X30476Y2017I-150J0*
G01*
X30476Y2017D01*
X30001Y2017D01*
X29968Y1983D01*
X30476Y1983D01*
G74*
D01*
G02X30626Y1833I0J150*
G01*
X30626Y1833D01*
X30626Y1419D01*
G75*
D01*
G02X30476Y1269I-150J0*
G01*
X30476Y1269D01*
X30401Y1269D01*
X30401Y1101D01*
X34599Y1101D01*
X34599Y12149D01*
X28450Y12149D01*
G75*
D01*
G02X28374Y12164I0J201*
G01*
G74*
D01*
G02X28308Y12208I76J186*
G01*
X28308Y12208D01*
X23539Y16976D01*
X23539Y16976D01*
X20617Y19899D01*
X16872Y19899D01*
G75*
D01*
G02X16448Y19899I-212J-359*
G01*
X16448Y19899D01*
X15283Y19899D01*
X13242Y17858D01*
G74*
D01*
G02X13146Y17804I142J142*
G01*
G75*
D01*
G02X13100Y17799I-46J196*
G01*
X13100Y17799D01*
X-1087Y17799D01*
X-3899Y14987D01*
X-3899Y13830D01*
G75*
D01*
G02X-3958Y13687I-201J-1*
G01*
X-3958Y13687D01*
X-3987Y13658D01*
G75*
D01*
G02X-4130Y13599I-142J142*
G01*
X-4130Y13599D01*
X-6942Y13599D01*
G75*
D01*
G02X-7658Y13599I-358J-299*
G01*
X-7658Y13599D01*
X-7942Y13599D01*
G75*
D01*
G02X-8099Y12879I-358J-299*
G01*
X-8099Y12879D01*
X-8099Y12830D01*
G75*
D01*
G02X-8158Y12687I-201J-1*
G01*
X-8158Y12687D01*
X-8187Y12658D01*
G75*
D01*
G02X-8329Y12599I-142J142*
G01*
X-8329Y12599D01*
X-11701Y12599D01*
G74*
D01*
G02X-11587Y12542I28J199*
G01*
X-11587Y12542D01*
X-10658Y11613D01*
G75*
D01*
G02X-10599Y11470I-142J-142*
G01*
X-10599Y11470D01*
X-10599Y8583D01*
G75*
D01*
G02X-11130Y8193I-201J-283*
G01*
G74*
D01*
G02X-11158Y8158I170J107*
G01*
X-11158Y8158D01*
X-11800Y7516D01*
G75*
D01*
G02X-12084Y7800I-400J-116*
G01*
X-12084Y7800D01*
X-11501Y8383D01*
X-11501Y11537D01*
X-11963Y11999D01*
X-15100Y11999D01*
G75*
D01*
G02X-15242Y12058I0J201*
G01*
X-15242Y12058D01*
X-17483Y14299D01*
X-19234Y14299D01*
X-19234Y13385D01*
G75*
D01*
G02X-19385Y13234I-151J0*
G01*
X-19385Y13234D01*
X-20815Y13234D01*
G75*
D01*
G02X-20966Y13385I0J151*
G01*
X-20966Y13385D01*
X-20966Y14815D01*
G75*
D01*
G02X-20815Y14966I151J0*
G01*
X-20815Y14966D01*
X-19385Y14966D01*
G74*
D01*
G02X-19234Y14815I0J151*
G01*
X-19234Y14815D01*
X-19234Y14701D01*
X-17585Y14701D01*
X-18533Y15649D01*
X-22467Y15649D01*
X-23048Y15068D01*
X-23048Y14443D01*
X-23032Y14443D01*
G74*
D01*
G02X-22906Y14375I0J151*
G01*
X-22906Y14375D01*
X-22874Y14375D01*
G75*
D01*
G02X-22732Y14316I0J-201*
G01*
X-22732Y14316D01*
X-22658Y14242D01*
G75*
D01*
G02X-22599Y14100I-142J-142*
G01*
X-22599Y14100D01*
X-22599Y12131D01*
X-22515Y12131D01*
G74*
D01*
G02X-22364Y11981I0J150*
G01*
X-22364Y11981D01*
X-22364Y11528D01*
G75*
D01*
G02X-22435Y11400I-151J0*
G01*
G74*
D01*
G02X-22364Y11272I80J128*
G01*
X-22364Y11272D01*
X-22364Y10819D01*
G75*
D01*
G02X-22515Y10669I-151J0*
G01*
X-22515Y10669D01*
X-23085Y10669D01*
G75*
D01*
G02X-23236Y10819I0J150*
G01*
X-23236Y10819D01*
X-23236Y10898D01*
G74*
D01*
G02X-23242Y10904I136J148*
G01*
X-23242Y10904D01*
X-23491Y11152D01*
G75*
D01*
G02X-23550Y11294I142J142*
G01*
X-23550Y11294D01*
X-23550Y13183D01*
G75*
D01*
G02X-23616Y13308I85J125*
G01*
X-23616Y13308D01*
X-23616Y13509D01*
X-23706Y13599D01*
X-23997Y13599D01*
G74*
D01*
G02X-23984Y13538I138J61*
G01*
X-23984Y13538D01*
X-23984Y13302D01*
G75*
D01*
G02X-24135Y13151I-151J0*
G01*
X-24135Y13151D01*
X-24365Y13151D01*
X-24750Y12766D01*
X-24750Y10634D01*
X-21643Y7528D01*
X-21607Y7491D01*
G75*
D01*
G02X-21109Y6993I407J-91*
G01*
X-21109Y6993D01*
X-21058Y6942D01*
G75*
D01*
G02X-20999Y6800I-142J-142*
G01*
X-20999Y6800D01*
X-20999Y6765D01*
G75*
D01*
G02X-21109Y5993I-201J-365*
G01*
X-21109Y5993D01*
X-21058Y5942D01*
G75*
D01*
G02X-20999Y5800I-142J-142*
G01*
X-20999Y5800D01*
X-20999Y5765D01*
G75*
D01*
G02X-21109Y4993I-201J-365*
G01*
X-21109Y4993D01*
X-21058Y4942D01*
G75*
D01*
G02X-20999Y4800I-142J-142*
G01*
X-20999Y4800D01*
X-20999Y4765D01*
G75*
D01*
G02X-21431Y4747I-201J-365*
G01*
X-21431Y4747D01*
X-23133Y6449D01*
X-29849Y6449D01*
G74*
D01*
G02X-29937Y6421I88J122*
G01*
X-29937Y6421D01*
X-30173Y6421D01*
G75*
D01*
G02X-30324Y6571I0J150*
G01*
X-30324Y6571D01*
X-30324Y6729D01*
G75*
D01*
G02X-30173Y6879I151J0*
G01*
X-30173Y6879D01*
X-29937Y6879D01*
G74*
D01*
G02X-29849Y6851I0J150*
G01*
X-29849Y6851D01*
X-23050Y6851D01*
G75*
D01*
G02X-22908Y6792I0J-201*
G01*
X-22908Y6792D01*
X-21607Y5491D01*
G74*
D01*
G02X-21431Y5747I407J91*
G01*
X-21431Y5747D01*
X-23212Y7528D01*
X-25933Y10249D01*
X-27249Y10249D01*
G74*
D01*
G02X-27337Y10221I88J122*
G01*
X-27337Y10221D01*
X-27573Y10221D01*
G75*
D01*
G02X-27724Y10371I0J150*
G01*
X-27724Y10371D01*
X-27724Y10529D01*
G75*
D01*
G02X-27573Y10679I151J0*
G01*
X-27573Y10679D01*
X-27337Y10679D01*
G74*
D01*
G02X-27249Y10651I0J150*
G01*
X-27249Y10651D01*
X-25850Y10651D01*
G74*
D01*
G02X-25826Y10650I0J201*
G01*
G74*
D01*
G02X-25708Y10592I24J200*
G01*
X-25708Y10592D01*
X-21607Y6491D01*
G74*
D01*
G02X-21431Y6747I407J91*
G01*
X-21431Y6747D01*
X-22212Y7528D01*
X-25093Y10409D01*
G75*
D01*
G02X-25152Y10551I142J142*
G01*
X-25152Y10551D01*
X-25152Y12849D01*
G74*
D01*
G02X-25093Y12991I201J0*
G01*
X-25093Y12991D01*
X-24718Y13366D01*
X-24718Y13397D01*
X-25364Y12752D01*
X-25364Y12419D01*
G75*
D01*
G02X-25515Y12269I-151J0*
G01*
X-25515Y12269D01*
X-26085Y12269D01*
G75*
D01*
G02X-26236Y12419I0J150*
G01*
X-26236Y12419D01*
X-26236Y12445D01*
X-26571Y12445D01*
X-26799Y12217D01*
X-26799Y11200D01*
G75*
D01*
G02X-27000Y10999I-201J0*
G01*
X-27000Y10999D01*
X-27186Y10999D01*
X-27186Y10871D01*
G75*
D01*
G02X-27337Y10721I-151J0*
G01*
X-27337Y10721D01*
X-27573Y10721D01*
G75*
D01*
G02X-27724Y10871I0J150*
G01*
X-27724Y10871D01*
X-27724Y10999D01*
X-29076Y10999D01*
X-29076Y10871D01*
G75*
D01*
G02X-29144Y10745I-151J0*
G01*
X-29144Y10745D01*
X-29144Y10655D01*
G74*
D01*
G02X-29076Y10529I83J126*
G01*
X-29076Y10529D01*
X-29076Y10371D01*
G75*
D01*
G02X-29227Y10221I-151J0*
G01*
X-29227Y10221D01*
X-29463Y10221D01*
G75*
D01*
G02X-29614Y10371I0J150*
G01*
X-29614Y10371D01*
X-29614Y10529D01*
G74*
D01*
G02X-29546Y10655I151J0*
G01*
X-29546Y10655D01*
X-29546Y10707D01*
G75*
D01*
G02X-29668Y10666I-121J160*
G01*
X-29668Y10666D01*
X-31110Y10666D01*
G75*
D01*
G02X-33110Y10666I-1000J224*
G01*
X-33110Y10666D01*
X-33113Y10666D01*
G75*
D01*
G02X-33147Y10669I0J201*
G01*
G74*
D01*
G02X-33255Y10726I34J198*
G01*
X-33255Y10726D01*
X-33483Y10953D01*
X-33564Y10953D01*
X-33564Y10928D01*
G75*
D01*
G02X-33635Y10800I-151J0*
G01*
G74*
D01*
G02X-33564Y10672I80J128*
G01*
X-33564Y10672D01*
X-33564Y10579D01*
X-33866Y10579D01*
X-33866Y10777D01*
X-34134Y10777D01*
X-34134Y10579D01*
X-34436Y10579D01*
X-34436Y10672D01*
G74*
D01*
G02X-34365Y10800I151J0*
G01*
G75*
D01*
G02X-34436Y10928I80J128*
G01*
X-34436Y10928D01*
X-34436Y11381D01*
G75*
D01*
G02X-34285Y11531I151J0*
G01*
X-34285Y11531D01*
X-33715Y11531D01*
G74*
D01*
G02X-33564Y11381I0J150*
G01*
X-33564Y11381D01*
X-33564Y11355D01*
X-33400Y11355D01*
G74*
D01*
G02X-33336Y11345I0J201*
G01*
G74*
D01*
G02X-33258Y11296I64J191*
G01*
X-33258Y11296D01*
X-33104Y11142D01*
G75*
D01*
G02X-31101Y11068I994J-252*
G01*
X-31101Y11068D01*
X-29751Y11068D01*
X-29614Y11205D01*
X-29614Y11529D01*
G75*
D01*
G02X-29463Y11679I151J0*
G01*
X-29463Y11679D01*
X-29227Y11679D01*
G74*
D01*
G02X-29076Y11529I0J150*
G01*
X-29076Y11529D01*
X-29076Y11401D01*
X-27724Y11401D01*
X-27724Y11529D01*
G75*
D01*
G02X-27573Y11679I151J0*
G01*
X-27573Y11679D01*
X-27337Y11679D01*
G74*
D01*
G02X-27201Y11594I0J150*
G01*
X-27201Y11594D01*
X-27201Y11806D01*
G74*
D01*
G02X-27337Y11721I136J65*
G01*
X-27337Y11721D01*
X-27573Y11721D01*
G75*
D01*
G02X-27724Y11871I0J150*
G01*
X-27724Y11871D01*
X-27724Y11990D01*
G75*
D01*
G02X-27717Y12401I-276J210*
G01*
X-27717Y12401D01*
X-27656Y12401D01*
X-27656Y13145D01*
G74*
D01*
G02X-27597Y13287I201J0*
G01*
X-27597Y13287D01*
X-27388Y13496D01*
G74*
D01*
G02X-27270Y13554I142J142*
G01*
G75*
D01*
G02X-27246Y13555I24J-200*
G01*
X-27246Y13555D01*
X-26236Y13555D01*
X-26236Y13581D01*
G75*
D01*
G02X-26085Y13731I151J0*
G01*
X-26085Y13731D01*
X-25515Y13731D01*
G74*
D01*
G02X-25364Y13581I0J150*
G01*
X-25364Y13581D01*
X-25364Y13320D01*
X-24742Y13942D01*
G74*
D01*
G02X-24710Y13968I142J142*
G01*
G74*
D01*
G02X-24700Y13990I142J50*
G01*
G75*
D01*
G02X-24718Y14062I132J72*
G01*
X-24718Y14062D01*
X-24718Y14085D01*
X-24447Y14085D01*
X-24447Y14069D01*
X-24256Y14069D01*
X-24256Y14085D01*
X-23984Y14085D01*
X-23984Y14062D01*
G75*
D01*
G02X-23997Y14001I-151J0*
G01*
X-23997Y14001D01*
X-23623Y14001D01*
G75*
D01*
G02X-23605Y14000I0J-201*
G01*
G75*
D01*
G02X-23616Y14056I140J56*
G01*
X-23616Y14056D01*
X-23616Y14292D01*
G75*
D01*
G02X-23465Y14443I151J0*
G01*
X-23465Y14443D01*
X-23450Y14443D01*
X-23450Y15151D01*
G74*
D01*
G02X-23391Y15294I201J0*
G01*
X-23391Y15294D01*
X-22692Y15992D01*
G74*
D01*
G02X-22598Y16045I142J142*
G01*
G75*
D01*
G02X-22550Y16051I48J-195*
G01*
X-22550Y16051D01*
X-18450Y16051D01*
G75*
D01*
G02X-18308Y15992I0J-201*
G01*
X-18308Y15992D01*
X-16896Y14580D01*
X-14917Y12601D01*
X-14828Y12601D01*
G74*
D01*
G02X-14942Y12658I28J199*
G01*
X-14942Y12658D01*
X-15316Y13032D01*
G75*
D01*
G02X-15375Y13174I142J142*
G01*
X-15375Y13174D01*
X-15375Y16374D01*
X-15381Y16374D01*
G75*
D01*
G02X-15531Y16524I0J150*
G01*
X-15531Y16524D01*
X-15531Y17076D01*
G74*
D01*
G02X-15512Y17149I150J0*
G01*
X-15512Y17149D01*
X-23167Y17149D01*
X-26058Y14258D01*
G74*
D01*
G02X-26185Y14200I142J142*
G01*
G74*
D01*
G02X-26200Y14199I15J200*
G01*
X-26200Y14199D01*
X-28017Y14199D01*
X-30158Y12058D01*
G74*
D01*
G02X-30237Y12009I142J142*
G01*
G74*
D01*
G02X-30300Y11999I63J191*
G01*
X-30300Y11999D01*
X-34568Y11999D01*
X-34680Y11887D01*
X-34680Y5094D01*
X-34168Y4582D01*
X-33810Y4582D01*
G74*
D01*
G02X-33796Y4581I0J201*
G01*
G75*
D01*
G02X-33781Y4582I15J-200*
G01*
X-33781Y4582D01*
X-26449Y4582D01*
G75*
D01*
G02X-26323Y4650I126J-83*
G01*
X-26323Y4650D01*
X-25890Y4650D01*
G74*
D01*
G02X-25739Y4499I0J151*
G01*
X-25739Y4499D01*
X-25739Y4263D01*
G75*
D01*
G02X-25890Y4112I-151J0*
G01*
X-25890Y4112D01*
X-25899Y4112D01*
X-25899Y2183D01*
X-25517Y1801D01*
X-24767Y1801D01*
G75*
D01*
G02X-24836Y1928I82J127*
G01*
X-24836Y1928D01*
X-24836Y2381D01*
G74*
D01*
G02X-24801Y2478I151J0*
G01*
X-24801Y2478D01*
X-24801Y4106D01*
X-24908Y4106D01*
X-24908Y4280D01*
X-24801Y4280D01*
X-24801Y4470D01*
X-24908Y4470D01*
X-24908Y4486D01*
X-25099Y4486D01*
X-25099Y4470D01*
X-25371Y4470D01*
X-25371Y4493D01*
G74*
D01*
G02X-25358Y4554I151J0*
G01*
G74*
D01*
G02X-25410Y4562I3J201*
G01*
G74*
D01*
G02X-25497Y4613I55J193*
G01*
X-25497Y4613D01*
X-25786Y4902D01*
G74*
D01*
G02X-25890Y4860I104J109*
G01*
X-25890Y4860D01*
X-26323Y4860D01*
G75*
D01*
G02X-26424Y4899I0J151*
G01*
X-26424Y4899D01*
X-34300Y4899D01*
G75*
D01*
G02X-34372Y4912I0J201*
G01*
G74*
D01*
G02X-34442Y4958I72J188*
G01*
X-34442Y4958D01*
X-34542Y5058D01*
G75*
D01*
G02X-34601Y5200I142J142*
G01*
X-34601Y5200D01*
X-34601Y8471D01*
G74*
D01*
G02X-34542Y8613I201J0*
G01*
X-34542Y8613D01*
X-34238Y8917D01*
G75*
D01*
G02X-33962Y8925I142J-142*
G01*
G74*
D01*
G02X-33954Y8917I134J150*
G01*
X-33954Y8917D01*
X-32637Y7601D01*
X-32214Y7601D01*
X-32214Y7729D01*
G75*
D01*
G02X-32063Y7879I151J0*
G01*
X-32063Y7879D01*
X-31827Y7879D01*
G74*
D01*
G02X-31676Y7729I0J150*
G01*
X-31676Y7729D01*
X-31676Y7601D01*
X-30324Y7601D01*
X-30324Y7729D01*
G75*
D01*
G02X-30173Y7879I151J0*
G01*
X-30173Y7879D01*
X-29937Y7879D01*
G74*
D01*
G02X-29786Y7729I0J150*
G01*
X-29786Y7729D01*
X-29786Y7601D01*
X-28929Y7601D01*
X-28636Y7894D01*
X-28636Y8272D01*
G74*
D01*
G02X-28565Y8400I151J0*
G01*
G75*
D01*
G02X-28636Y8528I80J128*
G01*
X-28636Y8528D01*
X-28636Y8553D01*
X-29262Y8553D01*
X-29795Y8021D01*
G74*
D01*
G02X-29937Y7921I142J50*
G01*
X-29937Y7921D01*
X-30173Y7921D01*
G75*
D01*
G02X-30324Y8071I0J150*
G01*
X-30324Y8071D01*
X-30324Y8229D01*
G75*
D01*
G02X-30173Y8379I151J0*
G01*
X-30173Y8379D01*
X-30005Y8379D01*
X-29488Y8896D01*
G75*
D01*
G02X-29346Y8955I142J-142*
G01*
X-29346Y8955D01*
X-28636Y8955D01*
X-28636Y8981D01*
G75*
D01*
G02X-28485Y9131I151J0*
G01*
X-28485Y9131D01*
X-27915Y9131D01*
G74*
D01*
G02X-27764Y8981I0J150*
G01*
X-27764Y8981D01*
X-27764Y8955D01*
X-27229Y8955D01*
X-26742Y9442D01*
G75*
D01*
G02X-26458Y9158I342J58*
G01*
X-26458Y9158D01*
X-27004Y8612D01*
G75*
D01*
G02X-27146Y8553I-142J142*
G01*
X-27146Y8553D01*
X-27764Y8553D01*
X-27764Y8528D01*
G75*
D01*
G02X-27835Y8400I-151J0*
G01*
G74*
D01*
G02X-27764Y8272I80J128*
G01*
X-27764Y8272D01*
X-27764Y7819D01*
G75*
D01*
G02X-27915Y7669I-151J0*
G01*
X-27915Y7669D01*
X-28293Y7669D01*
X-28434Y7528D01*
X-28434Y7528D01*
X-28704Y7258D01*
G75*
D01*
G02X-28846Y7199I-142J142*
G01*
X-28846Y7199D01*
X-29786Y7199D01*
X-29786Y7071D01*
G75*
D01*
G02X-29937Y6921I-151J0*
G01*
X-29937Y6921D01*
X-30173Y6921D01*
G75*
D01*
G02X-30324Y7071I0J150*
G01*
X-30324Y7071D01*
X-30324Y7199D01*
X-31676Y7199D01*
X-31676Y7071D01*
G75*
D01*
G02X-31744Y6945I-151J0*
G01*
X-31744Y6945D01*
X-31744Y6855D01*
G74*
D01*
G02X-31676Y6729I83J126*
G01*
X-31676Y6729D01*
X-31676Y6571D01*
G75*
D01*
G02X-31827Y6421I-151J0*
G01*
X-31827Y6421D01*
X-32063Y6421D01*
G75*
D01*
G02X-32214Y6571I0J150*
G01*
X-32214Y6571D01*
X-32214Y6729D01*
G74*
D01*
G02X-32146Y6855I151J0*
G01*
X-32146Y6855D01*
X-32146Y6945D01*
G75*
D01*
G02X-32214Y7071I83J126*
G01*
X-32214Y7071D01*
X-32214Y7199D01*
X-32720Y7199D01*
G75*
D01*
G02X-32789Y7211I-1J201*
G01*
G74*
D01*
G02X-32863Y7258I68J189*
G01*
X-32863Y7258D01*
X-33133Y7528D01*
X-33133Y7528D01*
X-34096Y8491D01*
X-34199Y8387D01*
X-34199Y6001D01*
X-33783Y6001D01*
G75*
D01*
G02X-33783Y5599I283J-201*
G01*
X-33783Y5599D01*
X-34199Y5599D01*
X-34199Y5301D01*
X-26463Y5301D01*
G75*
D01*
G02X-26323Y5398I140J-54*
G01*
X-26323Y5398D01*
X-25890Y5398D01*
G74*
D01*
G02X-25764Y5330I0J151*
G01*
X-25764Y5330D01*
X-25729Y5330D01*
G74*
D01*
G02X-25682Y5325I0J201*
G01*
G74*
D01*
G02X-25587Y5271I47J196*
G01*
X-25587Y5271D01*
X-25371Y5055D01*
X-25371Y5253D01*
G75*
D01*
G02X-25220Y5404I151J0*
G01*
X-25220Y5404D01*
X-24787Y5404D01*
G74*
D01*
G02X-24661Y5336I0J151*
G01*
X-24661Y5336D01*
X-22935Y5336D01*
G75*
D01*
G02X-22793Y5277I0J-201*
G01*
X-22793Y5277D01*
X-21316Y3800D01*
G75*
D01*
G02X-21600Y3516I116J-400*
G01*
X-21600Y3516D01*
X-23018Y4934D01*
X-24550Y4934D01*
X-24458Y4842D01*
G75*
D01*
G02X-24399Y4700I-142J-142*
G01*
X-24399Y4700D01*
X-24399Y2531D01*
X-24115Y2531D01*
G74*
D01*
G02X-23964Y2381I0J150*
G01*
X-23964Y2381D01*
X-23964Y1928D01*
G75*
D01*
G02X-24035Y1800I-151J0*
G01*
G74*
D01*
G02X-23964Y1672I80J128*
G01*
X-23964Y1672D01*
X-23964Y1219D01*
G75*
D01*
G02X-24115Y1069I-151J0*
G01*
X-24115Y1069D01*
X-24685Y1069D01*
G75*
D01*
G02X-24836Y1219I0J150*
G01*
X-24836Y1219D01*
X-24836Y1399D01*
X-25600Y1399D01*
G75*
D01*
G02X-25742Y1458I0J201*
G01*
X-25742Y1458D01*
X-26242Y1958D01*
G75*
D01*
G02X-26301Y2100I142J142*
G01*
X-26301Y2100D01*
X-26301Y4112D01*
X-26323Y4112D01*
G75*
D01*
G02X-26449Y4180I0J151*
G01*
X-26449Y4180D01*
X-33199Y4180D01*
X-33199Y3931D01*
X-33124Y3931D01*
G74*
D01*
G02X-32974Y3781I0J150*
G01*
X-32974Y3781D01*
X-32974Y3367D01*
G75*
D01*
G02X-33124Y3217I-150J0*
G01*
X-33124Y3217D01*
X-33676Y3217D01*
G75*
D01*
G02X-33826Y3367I0J150*
G01*
X-33826Y3367D01*
X-33826Y3781D01*
G75*
D01*
G02X-33676Y3931I150J0*
G01*
X-33676Y3931D01*
X-33601Y3931D01*
X-33601Y4180D01*
X-33781Y4180D01*
G75*
D01*
G02X-33796Y4181I0J201*
G01*
G74*
D01*
G02X-33810Y4180I14J200*
G01*
X-33810Y4180D01*
X-34084Y4180D01*
X-34084Y851D01*
X-27835Y851D01*
X-29609Y2625D01*
X-32974Y2625D01*
X-32974Y2619D01*
G75*
D01*
G02X-33124Y2469I-150J0*
G01*
X-33124Y2469D01*
X-33676Y2469D01*
G75*
D01*
G02X-33826Y2619I0J150*
G01*
X-33826Y2619D01*
X-33826Y3033D01*
G75*
D01*
G02X-33676Y3183I150J0*
G01*
X-33676Y3183D01*
X-33124Y3183D01*
G74*
D01*
G02X-32974Y3033I0J150*
G01*
X-32974Y3033D01*
X-32974Y3027D01*
X-29526Y3027D01*
G75*
D01*
G02X-29384Y2968I0J-201*
G01*
X-29384Y2968D01*
X-26345Y-71D01*
X-26017Y-399D01*
X-23800Y-399D01*
X-23800Y-399D01*
X-23800Y-399D01*
X-21565Y-399D01*
G75*
D01*
G02X-21565Y-801I365J-201*
G01*
X-21565Y-801D01*
X-23717Y-801D01*
X-24837Y-1921D01*
X-24837Y-1921D01*
X-26345Y-3429D01*
X-27058Y-4142D01*
G74*
D01*
G02X-27179Y-4200I142J142*
G01*
G74*
D01*
G02X-27200Y-4201I21J200*
G01*
X-27200Y-4201D01*
X-27379Y-4201D01*
G75*
D01*
G02X-27379Y-3799I-421J201*
G01*
X-27379Y-3799D01*
X-27283Y-3799D01*
X-26345Y-2861D01*
X-25405Y-1921D01*
X-25405Y-1921D01*
X-24285Y-801D01*
X-26100Y-801D01*
G75*
D01*
G02X-26242Y-742I0J201*
G01*
X-26242Y-742D01*
X-26345Y-639D01*
X-26345Y-639D01*
X-26999Y15D01*
X-26999Y-2400D01*
G75*
D01*
G02X-27058Y-2542I-201J0*
G01*
X-27058Y-2542D01*
X-27360Y-2844D01*
G75*
D01*
G02X-27644Y-2560I-440J-156*
G01*
X-27644Y-2560D01*
X-27401Y-2317D01*
X-27401Y-2288D01*
G74*
D01*
G02X-27696Y-2452I295J184*
G01*
X-27696Y-2452D01*
X-27904Y-2452D01*
G75*
D01*
G02X-28252Y-2104I0J348*
G01*
X-28252Y-2104D01*
X-28252Y-1896D01*
G75*
D01*
G02X-27904Y-1548I348J0*
G01*
X-27904Y-1548D01*
X-27696Y-1548D01*
G74*
D01*
G02X-27401Y-1712I0J348*
G01*
X-27401Y-1712D01*
X-27401Y117D01*
X-27733Y449D01*
X-34250Y449D01*
G75*
D01*
G02X-34392Y508I0J201*
G01*
X-34392Y508D01*
X-34427Y543D01*
G75*
D01*
G02X-34486Y685I142J142*
G01*
X-34486Y685D01*
X-34486Y4331D01*
X-35023Y4868D01*
G75*
D01*
G02X-35082Y5010I142J142*
G01*
X-35082Y5010D01*
X-35082Y11971D01*
G74*
D01*
G02X-35023Y12113I201J0*
G01*
X-35023Y12113D01*
X-34794Y12342D01*
G75*
D01*
G02X-34652Y12401I142J-142*
G01*
X-34652Y12401D01*
X-30383Y12401D01*
X-28242Y14542D01*
G74*
D01*
G02X-28135Y14598I142J142*
G01*
G75*
D01*
G02X-28100Y14601I35J-198*
G01*
X-28100Y14601D01*
X-26283Y14601D01*
X-23908Y16976D01*
X-23908Y16976D01*
X-23392Y17492D01*
G74*
D01*
G02X-23322Y17537I142J142*
G01*
G75*
D01*
G02X-23250Y17551I72J-187*
G01*
X-23250Y17551D01*
X-14876Y17551D01*
G75*
D01*
G02X-14734Y17492I0J-201*
G01*
X-14734Y17492D01*
X-14468Y17226D01*
X-14219Y17226D01*
G74*
D01*
G02X-14069Y17076I0J150*
G01*
D02*
G37*
%LPC*%
G36*
X-26252Y16976D02*
G75*
D01*
G02X-26252Y16976I1012J164*
G01*
D02*
G37*
G36*
X-28001Y-14671D02*
X-28001Y-14671D01*
X-28001Y-11370D01*
X-28001Y-11370D01*
X-28001Y-11091D01*
X-31105Y-11091D01*
G75*
D01*
G02X-31105Y-10689I-1005J201*
G01*
X-31105Y-10689D01*
X-28001Y-10689D01*
X-28001Y-8800D01*
G74*
D01*
G02X-27942Y-8658I201J0*
G01*
X-27942Y-8658D01*
X-27742Y-8458D01*
G75*
D01*
G02X-27458Y-8742I342J58*
G01*
X-27458Y-8742D01*
X-27599Y-8883D01*
X-27599Y-10890D01*
G75*
D01*
G02X-27600Y-10905I-201J0*
G01*
G74*
D01*
G02X-27599Y-10919I200J14*
G01*
X-27599Y-10919D01*
X-27599Y-11370D01*
X-27599Y-11370D01*
X-27599Y-14587D01*
X-27287Y-14899D01*
X-20966Y-14899D01*
X-20966Y-13985D01*
G75*
D01*
G02X-20815Y-13834I151J0*
G01*
X-20815Y-13834D01*
X-19385Y-13834D01*
G74*
D01*
G02X-19234Y-13985I0J151*
G01*
X-19234Y-13985D01*
X-19234Y-15415D01*
G75*
D01*
G02X-19385Y-15566I-151J0*
G01*
X-19385Y-15566D01*
X-20815Y-15566D01*
G75*
D01*
G02X-20966Y-15415I0J151*
G01*
X-20966Y-15415D01*
X-20966Y-15301D01*
X-27370Y-15301D01*
G75*
D01*
G02X-27416Y-15296I-1J201*
G01*
G74*
D01*
G02X-27513Y-15242I45J196*
G01*
X-27513Y-15242D01*
X-27942Y-14813D01*
G75*
D01*
G02X-28001Y-14671I142J142*
G01*
D02*
G37*
G36*
X-21565Y-1399D02*
G75*
D01*
G02X-21565Y-1801I365J-201*
G01*
X-21565Y-1801D01*
X-22517Y-1801D01*
X-22637Y-1921D01*
X-22637Y-1921D01*
X-25858Y-5142D01*
G74*
D01*
G02X-25979Y-5200I142J142*
G01*
G74*
D01*
G02X-26000Y-5201I21J200*
G01*
X-26000Y-5201D01*
X-27379Y-5201D01*
G75*
D01*
G02X-27379Y-4799I-421J201*
G01*
X-27379Y-4799D01*
X-26083Y-4799D01*
X-23205Y-1921D01*
X-23205Y-1921D01*
X-22742Y-1458D01*
G75*
D01*
G02X-22600Y-1399I142J-142*
G01*
X-22600Y-1399D01*
X-21565Y-1399D01*
D02*
G37*
G36*
X-499Y7200D02*
G75*
D01*
G02X-558Y7058I-201J0*
G01*
X-558Y7058D01*
X-758Y6858D01*
G75*
D01*
G02X-900Y6799I-142J142*
G01*
X-900Y6799D01*
X-4617Y6799D01*
X-4799Y6617D01*
X-4799Y-2200D01*
G75*
D01*
G02X-5000Y-2401I-201J0*
G01*
X-5000Y-2401D01*
X-6791Y-2401D01*
G75*
D01*
G02X-7206Y-2790I-109J-299*
G01*
X-7206Y-2790D01*
X-7258Y-2842D01*
G75*
D01*
G02X-7400Y-2901I-142J142*
G01*
X-7400Y-2901D01*
X-9653Y-2901D01*
G75*
D01*
G02X-10009Y-2401I-247J201*
G01*
X-10009Y-2401D01*
X-10137Y-2401D01*
X-10249Y-2513D01*
X-10249Y-5070D01*
G75*
D01*
G02X-10308Y-5213I-201J-1*
G01*
X-10308Y-5213D01*
X-10337Y-5242D01*
G74*
D01*
G02X-10428Y-5294I142J142*
G01*
G74*
D01*
G02X-10479Y-5301I51J194*
G01*
X-10479Y-5301D01*
X-11910Y-5301D01*
G75*
D01*
G02X-12490Y-5301I-290J-299*
G01*
X-12490Y-5301D01*
X-16417Y-5301D01*
G75*
D01*
G02X-16417Y-4899I-283J201*
G01*
X-16417Y-4899D01*
X-12490Y-4899D01*
G75*
D01*
G02X-12490Y-4301I290J299*
G01*
X-12490Y-4301D01*
X-16417Y-4301D01*
G75*
D01*
G02X-16417Y-3899I-283J201*
G01*
X-16417Y-3899D01*
X-12490Y-3899D01*
G75*
D01*
G02X-11910Y-3899I290J299*
G01*
X-11910Y-3899D01*
X-11283Y-3899D01*
G75*
D01*
G02X-11283Y-4301I283J-201*
G01*
X-11283Y-4301D01*
X-11910Y-4301D01*
G75*
D01*
G02X-11910Y-4899I-290J-299*
G01*
X-11910Y-4899D01*
X-10651Y-4899D01*
X-10651Y-2429D01*
G74*
D01*
G02X-10592Y-2287I201J0*
G01*
X-10592Y-2287D01*
X-10363Y-2058D01*
G75*
D01*
G02X-10221Y-1999I142J-142*
G01*
X-10221Y-1999D01*
X-10009Y-1999D01*
G75*
D01*
G02X-10201Y-1596I109J299*
G01*
X-10201Y-1596D01*
X-10201Y-931D01*
X-10276Y-931D01*
G75*
D01*
G02X-10426Y-781I0J150*
G01*
X-10426Y-781D01*
X-10426Y-367D01*
G75*
D01*
G02X-10276Y-217I150J0*
G01*
X-10276Y-217D01*
X-9724Y-217D01*
G74*
D01*
G02X-9574Y-367I0J150*
G01*
X-9574Y-367D01*
X-9574Y-781D01*
G75*
D01*
G02X-9724Y-931I-150J0*
G01*
X-9724Y-931D01*
X-9799Y-931D01*
X-9799Y-1398D01*
G75*
D01*
G02X-9791Y-1999I-101J-302*
G01*
X-9791Y-1999D01*
X-7483Y-1999D01*
X-7447Y-1963D01*
X-7405Y-1921D01*
X-7405Y-1921D01*
X-7217Y-1733D01*
G75*
D01*
G02X-7101Y-1453I317J33*
G01*
X-7101Y-1453D01*
X-7101Y-929D01*
G75*
D01*
G02X-7226Y-781I25J148*
G01*
X-7226Y-781D01*
X-7226Y-367D01*
G75*
D01*
G02X-7076Y-217I150J0*
G01*
X-7076Y-217D01*
X-6524Y-217D01*
G74*
D01*
G02X-6374Y-367I0J150*
G01*
X-6374Y-367D01*
X-6374Y-781D01*
G75*
D01*
G02X-6524Y-931I-150J0*
G01*
X-6524Y-931D01*
X-6699Y-931D01*
X-6699Y-1453D01*
G75*
D01*
G02X-6791Y-1999I-201J-247*
G01*
X-6791Y-1999D01*
X-5201Y-1999D01*
X-5201Y6700D01*
G74*
D01*
G02X-5142Y6842I201J0*
G01*
X-5142Y6842D01*
X-4985Y6999D01*
X-6917Y6999D01*
X-7999Y5917D01*
X-7999Y2483D01*
G75*
D01*
G02X-8401Y2483I-201J-283*
G01*
X-8401Y2483D01*
X-8401Y6000D01*
G74*
D01*
G02X-8342Y6142I201J0*
G01*
X-8342Y6142D01*
X-7285Y7199D01*
X-9087Y7199D01*
X-9699Y6587D01*
X-9699Y6347D01*
G75*
D01*
G02X-10101Y6347I-201J-247*
G01*
X-10101Y6347D01*
X-10101Y6486D01*
X-11299Y5287D01*
X-11299Y100D01*
G75*
D01*
G02X-11358Y-42I-201J0*
G01*
X-11358Y-42D01*
X-11800Y-484D01*
G75*
D01*
G02X-12084Y-200I-400J-116*
G01*
X-12084Y-200D01*
X-11701Y183D01*
X-11701Y5371D01*
G74*
D01*
G02X-11642Y5513I201J0*
G01*
X-11642Y5513D01*
X-9413Y7742D01*
G74*
D01*
G02X-9330Y7792I142J142*
G01*
G75*
D01*
G02X-9270Y7801I59J-192*
G01*
X-9270Y7801D01*
X-3566Y7801D01*
X-3566Y8200D01*
X-3000Y8200D01*
X-3000Y7801D01*
X-2400Y7801D01*
X-2400Y8200D01*
X-1834Y8200D01*
X-1834Y7801D01*
X-1613Y7801D01*
X-1501Y7913D01*
X-1501Y14700D01*
G74*
D01*
G02X-1442Y14842I201J0*
G01*
X-1442Y14842D01*
X-1442Y14842D01*
X-342Y15942D01*
X-342Y15942D01*
G75*
D01*
G02X-200Y16001I142J-142*
G01*
X-200Y16001D01*
X12717Y16001D01*
X15398Y18682D01*
G75*
D01*
G02X15540Y18741I142J-142*
G01*
X15540Y18741D01*
X16295Y18741D01*
G75*
D01*
G02X16295Y18339I365J-201*
G01*
X16295Y18339D01*
X15623Y18339D01*
X13085Y15801D01*
X14571Y15801D01*
G74*
D01*
G02X14713Y15742I0J201*
G01*
X14713Y15742D01*
X15654Y14801D01*
X16335Y14801D01*
G75*
D01*
G02X16268Y14399I325J-261*
G01*
X16268Y14399D01*
X15685Y14399D01*
X15983Y14101D01*
X17287Y14101D01*
X17399Y14213D01*
X17399Y14517D01*
X16776Y15140D01*
G75*
D01*
G02X17060Y15424I-116J400*
G01*
X17060Y15424D01*
X17742Y14742D01*
G74*
D01*
G02X17801Y14600I142J142*
G01*
X17801Y14600D01*
X17801Y14129D01*
G75*
D01*
G02X17794Y14079I-201J0*
G01*
X17794Y14079D01*
X18058Y14342D01*
G75*
D01*
G02X18200Y14401I142J-142*
G01*
X18200Y14401D01*
X22871Y14401D01*
G74*
D01*
G02X23013Y14342I0J201*
G01*
X23013Y14342D01*
X24542Y12813D01*
G74*
D01*
G02X24601Y12671I142J142*
G01*
X24601Y12671D01*
X24601Y-1006D01*
G75*
D01*
G02X24542Y-1148I-201J0*
G01*
X24542Y-1148D01*
X23769Y-1921D01*
X23769Y-1921D01*
X22492Y-3197D01*
G75*
D01*
G02X22208Y-2913I-400J-117*
G01*
X22208Y-2913D01*
X23200Y-1921D01*
X23200Y-1921D01*
X24199Y-922D01*
X24199Y12587D01*
X22787Y13999D01*
X18283Y13999D01*
X17642Y13358D01*
G74*
D01*
G02X17500Y13299I142J142*
G01*
X17500Y13299D01*
X15100Y13299D01*
G75*
D01*
G02X14958Y13358I0J201*
G01*
X14958Y13358D01*
X13317Y14999D01*
X183Y14999D01*
X-499Y14317D01*
X-499Y7200D01*
D02*
G37*
G36*
X2497Y258D02*
G75*
D01*
G02X2648Y409I151J0*
G01*
X2648Y409D01*
X21152Y409D01*
G74*
D01*
G02X21303Y258I0J151*
G01*
X21303Y258D01*
X21303Y-15745D01*
G74*
D01*
G02X21883Y-15311I789J450*
G01*
G75*
D01*
G02X22313Y-15314I217J356*
G01*
G75*
D01*
G02X21303Y-16646I-221J-881*
G01*
X21303Y-16646D01*
X21303Y-17458D01*
G75*
D01*
G02X21152Y-17609I-151J0*
G01*
X21152Y-17609D01*
X2648Y-17609D01*
G75*
D01*
G02X2497Y-17458I0J151*
G01*
X2497Y-17458D01*
X2497Y258D01*
D02*
G37*
G36*
X-9724Y531D02*
G74*
D01*
G02X-9574Y381I0J150*
G01*
X-9574Y381D01*
X-9574Y-33D01*
G75*
D01*
G02X-9724Y-183I-150J0*
G01*
X-9724Y-183D01*
X-10276Y-183D01*
G75*
D01*
G02X-10426Y-33I0J150*
G01*
X-10426Y-33D01*
X-10426Y381D01*
G75*
D01*
G02X-10276Y531I150J0*
G01*
X-10276Y531D01*
X-10201Y531D01*
X-10201Y1469D01*
X-10276Y1469D01*
G75*
D01*
G02X-10426Y1619I0J150*
G01*
X-10426Y1619D01*
X-10426Y1625D01*
X-10574Y1625D01*
G75*
D01*
G02X-10775Y1826I0J201*
G01*
X-10775Y1826D01*
X-10775Y3301D01*
G75*
D01*
G02X-10373Y3338I175J299*
G01*
X-10373Y3338D01*
X-10373Y2896D01*
G75*
D01*
G02X-10276Y2931I97J-115*
G01*
X-10276Y2931D01*
X-10101Y2931D01*
X-10101Y4853D01*
G75*
D01*
G02X-9699Y4853I201J247*
G01*
X-9699Y4853D01*
X-9699Y2929D01*
G74*
D01*
G02X-9574Y2781I25J148*
G01*
X-9574Y2781D01*
X-9574Y2367D01*
G75*
D01*
G02X-9724Y2217I-150J0*
G01*
X-9724Y2217D01*
X-10276Y2217D01*
G75*
D01*
G02X-10373Y2252I0J150*
G01*
X-10373Y2252D01*
X-10373Y2148D01*
G75*
D01*
G02X-10276Y2183I97J-115*
G01*
X-10276Y2183D01*
X-9724Y2183D01*
G74*
D01*
G02X-9574Y2033I0J150*
G01*
X-9574Y2033D01*
X-9574Y1619D01*
G75*
D01*
G02X-9724Y1469I-150J0*
G01*
X-9724Y1469D01*
X-9799Y1469D01*
X-9799Y1201D01*
X-7001Y1201D01*
X-7001Y1469D01*
X-7076Y1469D01*
G75*
D01*
G02X-7226Y1619I0J150*
G01*
X-7226Y1619D01*
X-7226Y2033D01*
G75*
D01*
G02X-7076Y2183I150J0*
G01*
X-7076Y2183D01*
X-6524Y2183D01*
G74*
D01*
G02X-6374Y2033I0J150*
G01*
X-6374Y2033D01*
X-6374Y1842D01*
G75*
D01*
G02X-6374Y1810I-200J-16*
G01*
X-6374Y1810D01*
X-6374Y1619D01*
G75*
D01*
G02X-6524Y1469I-150J0*
G01*
X-6524Y1469D01*
X-6599Y1469D01*
X-6599Y531D01*
X-6524Y531D01*
G74*
D01*
G02X-6374Y381I0J150*
G01*
X-6374Y381D01*
X-6374Y-33D01*
G75*
D01*
G02X-6524Y-183I-150J0*
G01*
X-6524Y-183D01*
X-7076Y-183D01*
G75*
D01*
G02X-7226Y-33I0J150*
G01*
X-7226Y-33D01*
X-7226Y381D01*
G75*
D01*
G02X-7076Y531I150J0*
G01*
X-7076Y531D01*
X-7001Y531D01*
X-7001Y799D01*
X-9799Y799D01*
X-9799Y531D01*
X-9724Y531D01*
D02*
G37*
G36*
X-11934Y-1921D02*
G75*
D01*
G02X-11934Y-1921I-266J321*
G01*
D02*
G37*
G36*
X21951Y-1921D02*
G75*
D01*
G02X21951Y-1921I141J-393*
G01*
D02*
G37*
G36*
X22142Y-11370D02*
G75*
D01*
G02X22142Y-11370I-42J415*
G01*
D02*
G37*
G36*
X26815Y7634D02*
X26815Y7634D01*
X25801Y7634D01*
X25801Y-5334D01*
X26815Y-5334D01*
G74*
D01*
G02X26966Y-5485I0J151*
G01*
X26966Y-5485D01*
X26966Y-6915D01*
G75*
D01*
G02X26815Y-7066I-151J0*
G01*
X26815Y-7066D01*
X25385Y-7066D01*
G75*
D01*
G02X25234Y-6915I0J151*
G01*
X25234Y-6915D01*
X25234Y-5485D01*
G75*
D01*
G02X25385Y-5334I151J0*
G01*
X25385Y-5334D01*
X25399Y-5334D01*
X25399Y7634D01*
X25385Y7634D01*
G75*
D01*
G02X25234Y7785I0J151*
G01*
X25234Y7785D01*
X25234Y9215D01*
G75*
D01*
G02X25385Y9366I151J0*
G01*
X25385Y9366D01*
X26815Y9366D01*
G74*
D01*
G02X26966Y9215I0J151*
G01*
X26966Y9215D01*
X26966Y7785D01*
G75*
D01*
G02X26815Y7634I-151J0*
G01*
D02*
G37*
G36*
X-25371Y4257D02*
X-25371Y4257D01*
X-25371Y4280D01*
X-25099Y4280D01*
X-25099Y4106D01*
X-25220Y4106D01*
G75*
D01*
G02X-25371Y4257I0J151*
G01*
D02*
G37*
G36*
X31085Y10890D02*
G75*
D01*
G02X31085Y10890I1025J0*
G01*
D02*
G37*
G36*
X-12617Y-2600D02*
G75*
D01*
G02X-12617Y-2600I417J0*
G01*
D02*
G37*
G36*
X-6699Y4853D02*
X-6699Y4853D01*
X-6699Y2931D01*
X-6524Y2931D01*
G74*
D01*
G02X-6374Y2781I0J150*
G01*
X-6374Y2781D01*
X-6374Y2367D01*
G75*
D01*
G02X-6524Y2217I-150J0*
G01*
X-6524Y2217D01*
X-7076Y2217D01*
G75*
D01*
G02X-7226Y2367I0J150*
G01*
X-7226Y2367D01*
X-7226Y2781D01*
G74*
D01*
G02X-7101Y2929I150J0*
G01*
X-7101Y2929D01*
X-7101Y4853D01*
G75*
D01*
G02X-6699Y4853I201J247*
G01*
D02*
G37*
G36*
X-7218Y6100D02*
G75*
D01*
G02X-7218Y6100I318J0*
G01*
D02*
G37*
G36*
X16243Y16540D02*
G75*
D01*
G02X16243Y16540I417J0*
G01*
D02*
G37*
G36*
X16243Y17540D02*
G75*
D01*
G02X16243Y17540I417J0*
G01*
D02*
G37*
G36*
X21675Y-1314D02*
G75*
D01*
G02X21675Y-1314I417J0*
G01*
D02*
G37*
G36*
X-12617Y8400D02*
G75*
D01*
G02X-12617Y8400I417J0*
G01*
D02*
G37*
G36*
X-24718Y14298D02*
G75*
D01*
G02X-24568Y14449I150J0*
G01*
X-24568Y14449D01*
X-24447Y14449D01*
X-24447Y14275D01*
X-24718Y14275D01*
X-24718Y14298D01*
D02*
G37*
G36*
X-23984Y14298D02*
X-23984Y14298D01*
X-23984Y14275D01*
X-24256Y14275D01*
X-24256Y14449D01*
X-24135Y14449D01*
G74*
D01*
G02X-23984Y14298I0J151*
G01*
D02*
G37*
G36*
X-29076Y12031D02*
X-29076Y12031D01*
X-29264Y12031D01*
X-29264Y12179D01*
X-29227Y12179D01*
G74*
D01*
G02X-29076Y12031I0J150*
G01*
D02*
G37*
G36*
X-29463Y12179D02*
X-29463Y12179D01*
X-29426Y12179D01*
X-29426Y12031D01*
X-29614Y12031D01*
G75*
D01*
G02X-29463Y12179I151J-2*
G01*
D02*
G37*
G36*
X-29227Y11721D02*
X-29227Y11721D01*
X-29264Y11721D01*
X-29264Y11869D01*
X-29076Y11869D01*
G74*
D01*
G02X-29227Y11721I151J2*
G01*
D02*
G37*
G36*
X-29614Y11869D02*
X-29614Y11869D01*
X-29426Y11869D01*
X-29426Y11721D01*
X-29463Y11721D01*
G75*
D01*
G02X-29614Y11869I0J150*
G01*
D02*
G37*
G36*
X-34436Y10219D02*
X-34436Y10219D01*
X-34436Y10312D01*
X-34134Y10312D01*
X-34134Y10069D01*
X-34285Y10069D01*
G75*
D01*
G02X-34436Y10219I0J150*
G01*
D02*
G37*
G36*
X-33564Y10219D02*
G75*
D01*
G02X-33715Y10069I-151J0*
G01*
X-33715Y10069D01*
X-33866Y10069D01*
X-33866Y10312D01*
X-33564Y10312D01*
X-33564Y10219D01*
D02*
G37*
G36*
X-32063Y8379D02*
X-32063Y8379D01*
X-32026Y8379D01*
X-32026Y8231D01*
X-32214Y8231D01*
G75*
D01*
G02X-32063Y8379I151J-2*
G01*
D02*
G37*
G36*
X-31676Y8231D02*
X-31676Y8231D01*
X-31864Y8231D01*
X-31864Y8379D01*
X-31827Y8379D01*
G74*
D01*
G02X-31676Y8231I0J150*
G01*
D02*
G37*
G36*
X-31827Y7921D02*
X-31827Y7921D01*
X-31864Y7921D01*
X-31864Y8069D01*
X-31676Y8069D01*
G74*
D01*
G02X-31827Y7921I151J2*
G01*
D02*
G37*
G36*
X-32214Y8069D02*
X-32214Y8069D01*
X-32026Y8069D01*
X-32026Y7921D01*
X-32063Y7921D01*
G75*
D01*
G02X-32214Y8069I0J150*
G01*
D02*
G37*
G36*
X-21617Y-9600D02*
G75*
D01*
G02X-21617Y-9600I417J0*
G01*
D02*
G37*
G36*
X-21617Y-8600D02*
G75*
D01*
G02X-21617Y-8600I417J0*
G01*
D02*
G37*
G36*
X-21617Y-7600D02*
G75*
D01*
G02X-21617Y-7600I417J0*
G01*
D02*
G37*
G36*
X-21617Y-6600D02*
G75*
D01*
G02X-21617Y-6600I417J0*
G01*
D02*
G37*
G36*
X-21617Y-5600D02*
G75*
D01*
G02X-21617Y-5600I417J0*
G01*
D02*
G37*
G36*
X-21617Y-4600D02*
G75*
D01*
G02X-21617Y-4600I417J0*
G01*
D02*
G37*
G36*
X-21617Y-3600D02*
G75*
D01*
G02X-21617Y-3600I417J0*
G01*
D02*
G37*
G36*
X-21617Y-2600D02*
G75*
D01*
G02X-21617Y-2600I417J0*
G01*
D02*
G37*
G36*
X-21617Y8400D02*
G75*
D01*
G02X-21617Y8400I417J0*
G01*
D02*
G37*
G36*
X17653Y13148D02*
G75*
D01*
G02X17653Y13148I520J0*
G01*
D02*
G37*
G36*
X2507Y13148D02*
G75*
D01*
G02X2507Y13148I520J0*
G01*
D02*
G37*
G36*
X21683Y-13955D02*
G75*
D01*
G02X21683Y-13955I417J0*
G01*
D02*
G37*
G36*
X21683Y-12955D02*
G75*
D01*
G02X21683Y-12955I417J0*
G01*
D02*
G37*
G36*
X21683Y-11955D02*
G75*
D01*
G02X21683Y-11955I417J0*
G01*
D02*
G37*
G36*
X-21617Y400D02*
G75*
D01*
G02X-21617Y400I417J0*
G01*
D02*
G37*
G36*
X-12617Y-8600D02*
G75*
D01*
G02X-12617Y-8600I417J0*
G01*
D02*
G37*
G36*
X-12617Y-7600D02*
G75*
D01*
G02X-12617Y-7600I417J0*
G01*
D02*
G37*
G36*
X-12617Y-6600D02*
G75*
D01*
G02X-12617Y-6600I417J0*
G01*
D02*
G37*
G36*
X21683Y-9955D02*
G75*
D01*
G02X21683Y-9955I417J0*
G01*
D02*
G37*
G36*
X21683Y-8955D02*
G75*
D01*
G02X21683Y-8955I417J0*
G01*
D02*
G37*
G36*
X21683Y-7955D02*
G75*
D01*
G02X21683Y-7955I417J0*
G01*
D02*
G37*
G36*
X21675Y-5314D02*
G75*
D01*
G02X21675Y-5314I417J0*
G01*
D02*
G37*
G36*
X21675Y-4314D02*
G75*
D01*
G02X21675Y-4314I417J0*
G01*
D02*
G37*
G36*
X-26265Y-17140D02*
G75*
D01*
G02X-26265Y-17140I1025J0*
G01*
D02*
G37*
G36*
X-2700Y7854D02*
G75*
D01*
G02X-2976Y8130I0J276*
G01*
X-2976Y8130D01*
X-2976Y8870D01*
G75*
D01*
G02X-2700Y9146I276J0*
G01*
G74*
D01*
G02X-2424Y8870I0J276*
G01*
X-2424Y8870D01*
X-2424Y8130D01*
G75*
D01*
G02X-2700Y7854I-276J0*
G01*
D02*
G37*
G36*
X-3415Y9366D02*
X-3415Y9366D01*
X-3000Y9366D01*
X-3000Y8800D01*
X-3566Y8800D01*
X-3566Y9215D01*
G75*
D01*
G02X-3415Y9366I151J0*
G01*
D02*
G37*
G36*
X-1834Y9215D02*
X-1834Y9215D01*
X-1834Y8800D01*
X-2400Y8800D01*
X-2400Y9366D01*
X-1985Y9366D01*
G74*
D01*
G02X-1834Y9215I0J151*
G01*
D02*
G37*
G36*
X-12617Y400D02*
G75*
D01*
G02X-12617Y400I417J0*
G01*
D02*
G37*
G36*
X-12617Y1400D02*
G75*
D01*
G02X-12617Y1400I417J0*
G01*
D02*
G37*
G36*
X-12617Y2400D02*
G75*
D01*
G02X-12617Y2400I417J0*
G01*
D02*
G37*
G36*
X-12617Y3400D02*
G75*
D01*
G02X-12617Y3400I417J0*
G01*
D02*
G37*
G36*
X-12617Y4400D02*
G75*
D01*
G02X-12617Y4400I417J0*
G01*
D02*
G37*
G36*
X-12617Y5400D02*
G75*
D01*
G02X-12617Y5400I417J0*
G01*
D02*
G37*
G36*
X-12617Y6400D02*
G75*
D01*
G02X-12617Y6400I417J0*
G01*
D02*
G37*
%LPD*%
G36*
X-1313Y18142D02*
X-1313Y18142D01*
X-2478Y16976D01*
X-2478Y16976D01*
X-4242Y15213D01*
G74*
D01*
G03X-4301Y15071I142J142*
G01*
X-4301Y15071D01*
X-4301Y14001D01*
X-4349Y14001D01*
X-4349Y20517D01*
X27197Y20517D01*
G75*
D01*
G03X27209Y20516I12J151*
G01*
G74*
D01*
G02X28308Y19418I0J1098*
G01*
G75*
D01*
G03X28308Y19406I151J0*
G01*
X28308Y19406D01*
X28308Y17824D01*
G74*
D01*
G03X28305Y17794I151J30*
G01*
G75*
D01*
G03X32266Y13833I3961J0*
G01*
G74*
D01*
G03X32296Y13836I0J154*
G01*
X32296Y13836D01*
X34381Y13836D01*
G75*
D01*
G03X34393Y13835I12J151*
G01*
G74*
D01*
G02X35491Y12737I0J1098*
G01*
G75*
D01*
G03X35492Y12725I152J0*
G01*
X35492Y12725D01*
X35489Y8000D01*
X35489Y8000D01*
X35489Y8000D01*
X35489Y151D01*
X28960Y151D01*
G75*
D01*
G03X28809Y0I0J-151*
G01*
X28809Y0D01*
X28809Y-7896D01*
X28686Y-7773D01*
X28686Y-4683D01*
X28727Y-4642D01*
G74*
D01*
G03X28772Y-4575I142J142*
G01*
G75*
D01*
G03X28801Y-4471I-172J104*
G01*
X28801Y-4471D01*
X28801Y487D01*
X29013Y699D01*
X30200Y699D01*
G74*
D01*
G03X30215Y700I0J201*
G01*
G75*
D01*
G03X30229Y699I14J200*
G01*
X30229Y699D01*
X34770Y699D01*
G75*
D01*
G03X34821Y706I1J201*
G01*
G74*
D01*
G03X34913Y758I50J194*
G01*
X34913Y758D01*
X34942Y787D01*
G75*
D01*
G03X35001Y929I-142J142*
G01*
X35001Y929D01*
X35001Y12321D01*
G74*
D01*
G03X34942Y12463I201J0*
G01*
X34942Y12463D01*
X34913Y12492D01*
G74*
D01*
G03X34771Y12551I142J142*
G01*
X34771Y12551D01*
X28533Y12551D01*
X24917Y16167D01*
G75*
D01*
G03X24267Y16817I323J973*
G01*
X24267Y16817D01*
X24108Y16976D01*
X24108Y16976D01*
X20899Y20185D01*
X20899Y20185D01*
X20842Y20242D01*
G74*
D01*
G03X20702Y20301I142J142*
G01*
X20700Y20301D01*
X20700Y20301D01*
X15200Y20301D01*
G75*
D01*
G03X15144Y20293I0J-201*
G01*
G74*
D01*
G03X15058Y20242I56J193*
G01*
X15058Y20242D01*
X13017Y18201D01*
X-1171Y18201D01*
G75*
D01*
G03X-1313Y18142I0J-201*
G01*
D02*
G37*
G36*
X33406Y-8584D02*
X33406Y-8584D01*
X29498Y-8584D01*
X29064Y-8151D01*
X35489Y-8151D01*
X35489Y-12806D01*
X35489Y-12808D01*
G74*
D01*
G02X34393Y-13835I1096J71*
G01*
G75*
D01*
G03X34381Y-13836I0J-152*
G01*
X34381Y-13836D01*
X32296Y-13836D01*
G74*
D01*
G03X32266Y-13833I30J151*
G01*
G75*
D01*
G03X28305Y-17794I0J-3961*
G01*
G75*
D01*
G03X28308Y-17824I154J0*
G01*
X28308Y-17824D01*
X28308Y-19406D01*
G74*
D01*
G03X28308Y-19418I151J12*
G01*
G75*
D01*
G02X27209Y-20516I-1099J0*
G01*
G75*
D01*
G03X27197Y-20517I0J-152*
G01*
X27197Y-20517D01*
X20899Y-20517D01*
X20899Y-20517D01*
X20500Y-20517D01*
X12500Y-20517D01*
X12500Y-20517D01*
X12500Y-20517D01*
X11450Y-20517D01*
X11450Y-20517D01*
X4296Y-20517D01*
X4296Y-20517D01*
X4296Y-20517D01*
X2001Y-20517D01*
X2001Y-20517D01*
X0Y-20517D01*
X0Y-20517D01*
X0Y-20517D01*
X-4349Y-20517D01*
X-4349Y-13988D01*
G74*
D01*
G03X-4377Y-13901I151J0*
G01*
X-4377Y-13901D01*
X-3913Y-13901D01*
X-3701Y-14113D01*
X-3701Y-18371D01*
G75*
D01*
G03X-3642Y-18513I201J0*
G01*
X-3642Y-18513D01*
X-2513Y-19642D01*
G74*
D01*
G03X-2417Y-19695I142J142*
G01*
G75*
D01*
G03X-2370Y-19701I46J195*
G01*
X-2370Y-19701D01*
X26371Y-19701D01*
G74*
D01*
G03X26513Y-19642I0J201*
G01*
X26513Y-19642D01*
X27242Y-18913D01*
G75*
D01*
G03X27301Y-18771I-142J142*
G01*
X27301Y-18771D01*
X27301Y-15583D01*
X30183Y-12701D01*
X33406Y-12701D01*
G75*
D01*
G03X33457Y-12694I0J201*
G01*
G74*
D01*
G03X33548Y-12642I51J194*
G01*
X33548Y-12642D01*
X33577Y-12613D01*
G75*
D01*
G03X33636Y-12471I-142J142*
G01*
X33636Y-12471D01*
X33636Y-8815D01*
G74*
D01*
G03X33577Y-8672I201J0*
G01*
X33577Y-8672D01*
X33548Y-8643D01*
G74*
D01*
G03X33457Y-8591I142J142*
G01*
G75*
D01*
G03X33406Y-8584I-51J-194*
G01*
D02*
G37*
G36*
X26601Y-18371D02*
X26601Y-18371D01*
X26601Y-15383D01*
X29583Y-12401D01*
X29915Y-12401D01*
X26958Y-15358D01*
G75*
D01*
G03X26899Y-15500I142J-142*
G01*
X26899Y-15500D01*
X26899Y-18687D01*
X26287Y-19299D01*
X24568Y-19299D01*
G74*
D01*
G03X24682Y-19242I28J199*
G01*
X24682Y-19242D01*
X25323Y-18601D01*
X26371Y-18601D01*
G74*
D01*
G03X26513Y-18542I0J201*
G01*
X26513Y-18542D01*
X26542Y-18513D01*
G75*
D01*
G03X26601Y-18371I-142J142*
G01*
D02*
G37*
G36*
X-3299Y-14030D02*
G75*
D01*
G03X-3358Y-13887I-201J1*
G01*
X-3358Y-13887D01*
X-3687Y-13558D01*
G75*
D01*
G03X-3830Y-13499I-142J-142*
G01*
X-3830Y-13499D01*
X-6707Y-13499D01*
G74*
D01*
G03X-6658Y-13397I285J198*
G01*
X-6658Y-13397D01*
X-3387Y-13397D01*
X-2501Y-14283D01*
X-2501Y-18871D01*
G75*
D01*
G03X-2442Y-19013I201J0*
G01*
X-2442Y-19013D01*
X-2213Y-19242D01*
G74*
D01*
G03X-2099Y-19299I142J142*
G01*
X-2099Y-19299D01*
X-2287Y-19299D01*
X-3299Y-18287D01*
X-3299Y-14030D01*
D02*
G37*
G36*
X-14783Y16524D02*
X-14783Y16524D01*
X-14783Y16973D01*
X-14817Y17006D01*
X-14817Y16524D01*
G75*
D01*
G02X-14967Y16374I-150J0*
G01*
X-14967Y16374D01*
X-14973Y16374D01*
X-14973Y13257D01*
X-14717Y13001D01*
X-10692Y13001D01*
G75*
D01*
G02X-10752Y13196I288J195*
G01*
X-10752Y13196D01*
X-10752Y13404D01*
G74*
D01*
G02X-10692Y13599I348J0*
G01*
X-10692Y13599D01*
X-14352Y13599D01*
G75*
D01*
G02X-14494Y13658I0J201*
G01*
X-14494Y13658D01*
X-14568Y13732D01*
G75*
D01*
G02X-14627Y13874I142J142*
G01*
X-14627Y13874D01*
X-14627Y16374D01*
X-14633Y16374D01*
G75*
D01*
G02X-14783Y16524I0J150*
G01*
D02*
G37*
G36*
X27484Y-8099D02*
X27484Y-8099D01*
X28115Y-8099D01*
X27858Y-7842D01*
G75*
D01*
G02X27799Y-7700I142J142*
G01*
X27799Y-7700D01*
X27799Y-5938D01*
G75*
D01*
G02X27548Y-5604I97J334*
G01*
X27548Y-5604D01*
X27548Y-5396D01*
G75*
D01*
G02X27896Y-5048I348J0*
G01*
X27896Y-5048D01*
X28104Y-5048D01*
G74*
D01*
G02X28284Y-5099I0J348*
G01*
X28284Y-5099D01*
X28284Y-4870D01*
G75*
D01*
G02X28399Y-4258I-284J370*
G01*
X28399Y-4258D01*
X28399Y-3742D01*
G75*
D01*
G02X27579Y-3701I-399J242*
G01*
X27579Y-3701D01*
X27401Y-3701D01*
X27401Y-7617D01*
G75*
D01*
G02X27484Y-8099I-201J-283*
G01*
D02*
G37*
G36*
X27579Y-3299D02*
X27579Y-3299D01*
X27401Y-3299D01*
X27401Y-583D01*
X28399Y415D01*
X28399Y-2258D01*
G75*
D01*
G03X28399Y-2742I-399J-242*
G01*
X28399Y-2742D01*
X28399Y-3258D01*
G75*
D01*
G03X27579Y-3299I-399J-242*
G01*
D02*
G37*
G36*
X15872Y13701D02*
G74*
D01*
G02X15758Y13758I28J199*
G01*
X15758Y13758D01*
X14317Y15199D01*
X13685Y15199D01*
X15183Y13701D01*
X15872Y13701D01*
D02*
G37*
G36*
X-10452Y-13499D02*
G75*
D01*
G02X-10480Y-12930I356J303*
G01*
X-10480Y-12930D01*
X-12017Y-12930D01*
X-12586Y-13499D01*
X-10452Y-13499D01*
D02*
G37*
G36*
X-26654Y12847D02*
X-26654Y12847D01*
X-26236Y12847D01*
X-26236Y12872D01*
G74*
D01*
G02X-26165Y13000I151J0*
G01*
G75*
D01*
G02X-26236Y13128I80J128*
G01*
X-26236Y13128D01*
X-26236Y13153D01*
X-27162Y13153D01*
X-27254Y13062D01*
X-27254Y12201D01*
G75*
D01*
G02X-27254Y12199I-201J-1*
G01*
X-27254Y12199D01*
X-27254Y12155D01*
G74*
D01*
G02X-27201Y12094I83J126*
G01*
X-27201Y12094D01*
X-27201Y12300D01*
G74*
D01*
G02X-27142Y12442I201J0*
G01*
X-27142Y12442D01*
X-26797Y12788D01*
G74*
D01*
G02X-26684Y12844I143J142*
G01*
G75*
D01*
G02X-26654Y12847I30J-198*
G01*
D02*
G37*
G36*
X29774Y1419D02*
X29774Y1419D01*
X29774Y1789D01*
X29085Y1101D01*
X29999Y1101D01*
X29999Y1269D01*
X29924Y1269D01*
G75*
D01*
G02X29774Y1419I0J150*
G01*
D02*
G37*
G36*
X26199Y-17502D02*
X26199Y-17502D01*
X26199Y-18199D01*
X25441Y-18199D01*
X25441Y-18145D01*
G74*
D01*
G03X26199Y-17502I201J1005*
G01*
D02*
G37*
G36*
X-11099Y8476D02*
X-11099Y8476D01*
X-11099Y11486D01*
X-11001Y11387D01*
X-11001Y8583D01*
G74*
D01*
G03X-11099Y8476I201J283*
G01*
D02*
G37*
G36*
X-7385Y-2400D02*
X-7385Y-2400D01*
X-7447Y-2463D01*
X-7483Y-2499D01*
X-9653Y-2499D01*
G74*
D01*
G03X-9791Y-2401I247J201*
G01*
X-9791Y-2401D01*
X-7400Y-2401D01*
G75*
D01*
G03X-7385Y-2400I0J201*
G01*
D02*
G37*
G36*
X-8942Y13001D02*
G75*
D01*
G03X-8942Y13599I-358J299*
G01*
X-8942Y13599D01*
X-8658Y13599D01*
G75*
D01*
G03X-8658Y13001I358J-299*
G01*
X-8658Y13001D01*
X-8942Y13001D01*
D02*
G37*
G36*
X-9713Y-12930D02*
G75*
D01*
G02X-9741Y-13499I-383J-266*
G01*
X-9741Y-13499D01*
X-9452Y-13499D01*
G75*
D01*
G02X-9536Y-13041I356J303*
G01*
X-9536Y-13041D01*
X-9647Y-12930D01*
X-9713Y-12930D01*
D02*
G37*
G36*
X-14884Y-18174D02*
X-14884Y-18174D01*
X-14611Y-17901D01*
X-14917Y-17901D01*
X-15189Y-18174D01*
X-14884Y-18174D01*
D02*
G37*
G36*
X-23148Y12118D02*
X-23148Y12118D01*
X-23148Y13157D01*
X-23032Y13157D01*
G74*
D01*
G03X-23001Y13160I0J151*
G01*
X-23001Y13160D01*
X-23001Y12131D01*
X-23085Y12131D01*
G75*
D01*
G03X-23148Y12118I0J-150*
G01*
D02*
G37*
G36*
X28284Y-5901D02*
G74*
D01*
G02X28201Y-5938I180J297*
G01*
X28201Y-5938D01*
X28201Y-7617D01*
X28284Y-7700D01*
X28284Y-5901D01*
D02*
G37*
G36*
X-9908Y13001D02*
G75*
D01*
G03X-9848Y13196I-288J195*
G01*
X-9848Y13196D01*
X-9848Y13404D01*
G74*
D01*
G03X-9908Y13599I348J0*
G01*
X-9908Y13599D01*
X-9658Y13599D01*
G75*
D01*
G03X-9658Y13001I358J-299*
G01*
X-9658Y13001D01*
X-9908Y13001D01*
D02*
G37*
G36*
X-23032Y13905D02*
G74*
D01*
G03X-23001Y13908I0J151*
G01*
X-23001Y13908D01*
X-23001Y13692D01*
G74*
D01*
G03X-23032Y13695I31J148*
G01*
X-23032Y13695D01*
X-23233Y13695D01*
X-23444Y13905D01*
X-23032Y13905D01*
D02*
G37*
G36*
X17421Y13706D02*
G74*
D01*
G02X17399Y13701I50J194*
G01*
X17399Y13701D01*
X17417Y13701D01*
X17421Y13706D01*
D02*
G37*
G54D11*
X-26252Y16976D02*
G75*
D01*
G02X-26252Y16976I1012J164*
G01*
X-28001Y-14671D02*
X-28001Y-11370D01*
X-28001Y-11370D01*
X-28001Y-11091D01*
X-31105Y-11091D01*
G75*
D01*
G02X-31105Y-10689I-1005J201*
G01*
X-28001Y-10689D01*
X-28001Y-8800D01*
G74*
D01*
G02X-27942Y-8658I201J0*
G01*
X-27742Y-8458D01*
G75*
D01*
G02X-27458Y-8742I342J58*
G01*
X-27599Y-8883D01*
X-27599Y-10890D01*
G75*
D01*
G02X-27600Y-10905I-201J0*
G01*
G74*
D01*
G02X-27599Y-10919I200J14*
G01*
X-27599Y-11370D01*
X-27599Y-11370D01*
X-27599Y-14587D01*
X-27287Y-14899D01*
X-20966Y-14899D01*
X-20966Y-13985D01*
G75*
D01*
G02X-20815Y-13834I151J0*
G01*
X-19385Y-13834D01*
G74*
D01*
G02X-19234Y-13985I0J151*
G01*
X-19234Y-15415D01*
G75*
D01*
G02X-19385Y-15566I-151J0*
G01*
X-20815Y-15566D01*
G75*
D01*
G02X-20966Y-15415I0J151*
G01*
X-20966Y-15301D01*
X-27370Y-15301D01*
G75*
D01*
G02X-27416Y-15296I-1J201*
G01*
G74*
D01*
G02X-27513Y-15242I45J196*
G01*
X-27942Y-14813D01*
G75*
D01*
G02X-28001Y-14671I142J142*
G01*
X-21565Y-1399D02*
G75*
D01*
G02X-21565Y-1801I365J-201*
G01*
X-22517Y-1801D01*
X-22637Y-1921D01*
X-22637Y-1921D01*
X-25858Y-5142D01*
G74*
D01*
G02X-25979Y-5200I142J142*
G01*
G74*
D01*
G02X-26000Y-5201I21J200*
G01*
X-27379Y-5201D01*
G75*
D01*
G02X-27379Y-4799I-421J201*
G01*
X-26083Y-4799D01*
X-23205Y-1921D01*
X-23205Y-1921D01*
X-22742Y-1458D01*
G75*
D01*
G02X-22600Y-1399I142J-142*
G01*
X-21565Y-1399D01*
X-499Y7200D02*
G75*
D01*
G02X-558Y7058I-201J0*
G01*
X-758Y6858D01*
G75*
D01*
G02X-900Y6799I-142J142*
G01*
X-4617Y6799D01*
X-4799Y6617D01*
X-4799Y-2200D01*
G75*
D01*
G02X-5000Y-2401I-201J0*
G01*
X-6791Y-2401D01*
G75*
D01*
G02X-7206Y-2790I-109J-299*
G01*
X-7258Y-2842D01*
G75*
D01*
G02X-7400Y-2901I-142J142*
G01*
X-9653Y-2901D01*
G75*
D01*
G02X-10009Y-2401I-247J201*
G01*
X-10137Y-2401D01*
X-10249Y-2513D01*
X-10249Y-5070D01*
G75*
D01*
G02X-10308Y-5213I-201J-1*
G01*
X-10337Y-5242D01*
G74*
D01*
G02X-10428Y-5294I142J142*
G01*
G74*
D01*
G02X-10479Y-5301I51J194*
G01*
X-11910Y-5301D01*
G75*
D01*
G02X-12490Y-5301I-290J-299*
G01*
X-16417Y-5301D01*
G75*
D01*
G02X-16417Y-4899I-283J201*
G01*
X-12490Y-4899D01*
G75*
D01*
G02X-12490Y-4301I290J299*
G01*
X-16417Y-4301D01*
G75*
D01*
G02X-16417Y-3899I-283J201*
G01*
X-12490Y-3899D01*
G75*
D01*
G02X-11910Y-3899I290J299*
G01*
X-11283Y-3899D01*
G75*
D01*
G02X-11283Y-4301I283J-201*
G01*
X-11910Y-4301D01*
G75*
D01*
G02X-11910Y-4899I-290J-299*
G01*
X-10651Y-4899D01*
X-10651Y-2429D01*
G74*
D01*
G02X-10592Y-2287I201J0*
G01*
X-10363Y-2058D01*
G75*
D01*
G02X-10221Y-1999I142J-142*
G01*
X-10009Y-1999D01*
G75*
D01*
G02X-10201Y-1596I109J299*
G01*
X-10201Y-931D01*
X-10276Y-931D01*
G75*
D01*
G02X-10426Y-781I0J150*
G01*
X-10426Y-367D01*
G75*
D01*
G02X-10276Y-217I150J0*
G01*
X-9724Y-217D01*
G74*
D01*
G02X-9574Y-367I0J150*
G01*
X-9574Y-781D01*
G75*
D01*
G02X-9724Y-931I-150J0*
G01*
X-9799Y-931D01*
X-9799Y-1398D01*
G75*
D01*
G02X-9791Y-1999I-101J-302*
G01*
X-7483Y-1999D01*
X-7447Y-1963D01*
X-7405Y-1921D01*
X-7405Y-1921D01*
X-7217Y-1733D01*
G75*
D01*
G02X-7101Y-1453I317J33*
G01*
X-7101Y-929D01*
G75*
D01*
G02X-7226Y-781I25J148*
G01*
X-7226Y-367D01*
G75*
D01*
G02X-7076Y-217I150J0*
G01*
X-6524Y-217D01*
G74*
D01*
G02X-6374Y-367I0J150*
G01*
X-6374Y-781D01*
G75*
D01*
G02X-6524Y-931I-150J0*
G01*
X-6699Y-931D01*
X-6699Y-1453D01*
G75*
D01*
G02X-6791Y-1999I-201J-247*
G01*
X-5201Y-1999D01*
X-5201Y6700D01*
G74*
D01*
G02X-5142Y6842I201J0*
G01*
X-4985Y6999D01*
X-6917Y6999D01*
X-7999Y5917D01*
X-7999Y2483D01*
G75*
D01*
G02X-8401Y2483I-201J-283*
G01*
X-8401Y6000D01*
G74*
D01*
G02X-8342Y6142I201J0*
G01*
X-7285Y7199D01*
X-9087Y7199D01*
X-9699Y6587D01*
X-9699Y6347D01*
G75*
D01*
G02X-10101Y6347I-201J-247*
G01*
X-10101Y6486D01*
X-11299Y5287D01*
X-11299Y100D01*
G75*
D01*
G02X-11358Y-42I-201J0*
G01*
X-11800Y-484D01*
G75*
D01*
G02X-12084Y-200I-400J-116*
G01*
X-11701Y183D01*
X-11701Y5371D01*
G74*
D01*
G02X-11642Y5513I201J0*
G01*
X-9413Y7742D01*
G74*
D01*
G02X-9330Y7792I142J142*
G01*
G75*
D01*
G02X-9270Y7801I59J-192*
G01*
X-3566Y7801D01*
X-3566Y8200D01*
X-3000Y8200D01*
X-3000Y7801D01*
X-2400Y7801D01*
X-2400Y8200D01*
X-1834Y8200D01*
X-1834Y7801D01*
X-1613Y7801D01*
X-1501Y7913D01*
X-1501Y14700D01*
G74*
D01*
G02X-1442Y14842I201J0*
G01*
X-342Y15942D01*
G75*
D01*
G02X-200Y16001I142J-142*
G01*
X12717Y16001D01*
X15398Y18682D01*
G75*
D01*
G02X15540Y18741I142J-142*
G01*
X16295Y18741D01*
G75*
D01*
G02X16295Y18339I365J-201*
G01*
X15623Y18339D01*
X13085Y15801D01*
X14571Y15801D01*
G74*
D01*
G02X14713Y15742I0J201*
G01*
X15654Y14801D01*
X16335Y14801D01*
G75*
D01*
G02X16268Y14399I325J-261*
G01*
X15685Y14399D01*
X15983Y14101D01*
X17287Y14101D01*
X17399Y14213D01*
X17399Y14517D01*
X16776Y15140D01*
G75*
D01*
G02X17060Y15424I-116J400*
G01*
X17742Y14742D01*
G74*
D01*
G02X17801Y14600I142J142*
G01*
X17801Y14129D01*
G75*
D01*
G02X17794Y14079I-201J0*
G01*
X18058Y14342D01*
G75*
D01*
G02X18200Y14401I142J-142*
G01*
X22871Y14401D01*
G74*
D01*
G02X23013Y14342I0J201*
G01*
X24542Y12813D01*
G74*
D01*
G02X24601Y12671I142J142*
G01*
X24601Y-1006D01*
G75*
D01*
G02X24542Y-1148I-201J0*
G01*
X23769Y-1921D01*
X23769Y-1921D01*
X22492Y-3197D01*
G75*
D01*
G02X22208Y-2913I-400J-117*
G01*
X23200Y-1921D01*
X23200Y-1921D01*
X24199Y-922D01*
X24199Y12587D01*
X22787Y13999D01*
X18283Y13999D01*
X17642Y13358D01*
G74*
D01*
G02X17500Y13299I142J142*
G01*
X15100Y13299D01*
G75*
D01*
G02X14958Y13358I0J201*
G01*
X13317Y14999D01*
X183Y14999D01*
X-499Y14317D01*
X-499Y7200D01*
X2497Y258D02*
G75*
D01*
G02X2648Y409I151J0*
G01*
X21152Y409D01*
G74*
D01*
G02X21303Y258I0J151*
G01*
X21303Y-15745D01*
G74*
D01*
G02X21883Y-15311I789J450*
G01*
G75*
D01*
G02X22313Y-15314I217J356*
G01*
G75*
D01*
G02X21303Y-16646I-221J-881*
G01*
X21303Y-17458D01*
G75*
D01*
G02X21152Y-17609I-151J0*
G01*
X2648Y-17609D01*
G75*
D01*
G02X2497Y-17458I0J151*
G01*
X2497Y258D01*
X-9724Y531D02*
G74*
D01*
G02X-9574Y381I0J150*
G01*
X-9574Y-33D01*
G75*
D01*
G02X-9724Y-183I-150J0*
G01*
X-10276Y-183D01*
G75*
D01*
G02X-10426Y-33I0J150*
G01*
X-10426Y381D01*
G75*
D01*
G02X-10276Y531I150J0*
G01*
X-10201Y531D01*
X-10201Y1469D01*
X-10276Y1469D01*
G75*
D01*
G02X-10426Y1619I0J150*
G01*
X-10426Y1625D01*
X-10574Y1625D01*
G75*
D01*
G02X-10775Y1826I0J201*
G01*
X-10775Y3301D01*
G75*
D01*
G02X-10373Y3338I175J299*
G01*
X-10373Y2896D01*
G75*
D01*
G02X-10276Y2931I97J-115*
G01*
X-10101Y2931D01*
X-10101Y4853D01*
G75*
D01*
G02X-9699Y4853I201J247*
G01*
X-9699Y2929D01*
G74*
D01*
G02X-9574Y2781I25J148*
G01*
X-9574Y2367D01*
G75*
D01*
G02X-9724Y2217I-150J0*
G01*
X-10276Y2217D01*
G75*
D01*
G02X-10373Y2252I0J150*
G01*
X-10373Y2148D01*
G75*
D01*
G02X-10276Y2183I97J-115*
G01*
X-9724Y2183D01*
G74*
D01*
G02X-9574Y2033I0J150*
G01*
X-9574Y1619D01*
G75*
D01*
G02X-9724Y1469I-150J0*
G01*
X-9799Y1469D01*
X-9799Y1201D01*
X-7001Y1201D01*
X-7001Y1469D01*
X-7076Y1469D01*
G75*
D01*
G02X-7226Y1619I0J150*
G01*
X-7226Y2033D01*
G75*
D01*
G02X-7076Y2183I150J0*
G01*
X-6524Y2183D01*
G74*
D01*
G02X-6374Y2033I0J150*
G01*
X-6374Y1842D01*
G75*
D01*
G02X-6374Y1810I-200J-16*
G01*
X-6374Y1619D01*
G75*
D01*
G02X-6524Y1469I-150J0*
G01*
X-6599Y1469D01*
X-6599Y531D01*
X-6524Y531D01*
G74*
D01*
G02X-6374Y381I0J150*
G01*
X-6374Y-33D01*
G75*
D01*
G02X-6524Y-183I-150J0*
G01*
X-7076Y-183D01*
G75*
D01*
G02X-7226Y-33I0J150*
G01*
X-7226Y381D01*
G75*
D01*
G02X-7076Y531I150J0*
G01*
X-7001Y531D01*
X-7001Y799D01*
X-9799Y799D01*
X-9799Y531D01*
X-9724Y531D01*
X-11934Y-1921D02*
G75*
D01*
G02X-11934Y-1921I-266J321*
G01*
X21951Y-1921D02*
G75*
D01*
G02X21951Y-1921I141J-393*
G01*
X22142Y-11370D02*
G75*
D01*
G02X22142Y-11370I-42J415*
G01*
X26815Y7634D02*
X25801Y7634D01*
X25801Y-5334D01*
X26815Y-5334D01*
G74*
D01*
G02X26966Y-5485I0J151*
G01*
X26966Y-6915D01*
G75*
D01*
G02X26815Y-7066I-151J0*
G01*
X25385Y-7066D01*
G75*
D01*
G02X25234Y-6915I0J151*
G01*
X25234Y-5485D01*
G75*
D01*
G02X25385Y-5334I151J0*
G01*
X25399Y-5334D01*
X25399Y7634D01*
X25385Y7634D01*
G75*
D01*
G02X25234Y7785I0J151*
G01*
X25234Y9215D01*
G75*
D01*
G02X25385Y9366I151J0*
G01*
X26815Y9366D01*
G74*
D01*
G02X26966Y9215I0J151*
G01*
X26966Y7785D01*
G75*
D01*
G02X26815Y7634I-151J0*
G01*
X-25371Y4257D02*
X-25371Y4280D01*
X-25099Y4280D01*
X-25099Y4106D01*
X-25220Y4106D01*
G75*
D01*
G02X-25371Y4257I0J151*
G01*
X31085Y10890D02*
G75*
D01*
G02X31085Y10890I1025J0*
G01*
X-12617Y-2600D02*
G75*
D01*
G02X-12617Y-2600I417J0*
G01*
X-6699Y4853D02*
X-6699Y2931D01*
X-6524Y2931D01*
G74*
D01*
G02X-6374Y2781I0J150*
G01*
X-6374Y2367D01*
G75*
D01*
G02X-6524Y2217I-150J0*
G01*
X-7076Y2217D01*
G75*
D01*
G02X-7226Y2367I0J150*
G01*
X-7226Y2781D01*
G74*
D01*
G02X-7101Y2929I150J0*
G01*
X-7101Y4853D01*
G75*
D01*
G02X-6699Y4853I201J247*
G01*
X-7218Y6100D02*
G75*
D01*
G02X-7218Y6100I318J0*
G01*
X16243Y16540D02*
G75*
D01*
G02X16243Y16540I417J0*
G01*
X16243Y17540D02*
G75*
D01*
G02X16243Y17540I417J0*
G01*
X21675Y-1314D02*
G75*
D01*
G02X21675Y-1314I417J0*
G01*
X-12617Y8400D02*
G75*
D01*
G02X-12617Y8400I417J0*
G01*
X-24718Y14298D02*
G75*
D01*
G02X-24568Y14449I150J0*
G01*
X-24447Y14449D01*
X-24447Y14275D01*
X-24718Y14275D01*
X-24718Y14298D01*
X-23984Y14298D02*
X-23984Y14275D01*
X-24256Y14275D01*
X-24256Y14449D01*
X-24135Y14449D01*
G74*
D01*
G02X-23984Y14298I0J151*
G01*
X-29076Y12031D02*
X-29264Y12031D01*
X-29264Y12179D01*
X-29227Y12179D01*
G74*
D01*
G02X-29076Y12031I0J150*
G01*
X-29463Y12179D02*
X-29426Y12179D01*
X-29426Y12031D01*
X-29614Y12031D01*
G75*
D01*
G02X-29463Y12179I151J-2*
G01*
X-29227Y11721D02*
X-29264Y11721D01*
X-29264Y11869D01*
X-29076Y11869D01*
G74*
D01*
G02X-29227Y11721I151J2*
G01*
X-29614Y11869D02*
X-29426Y11869D01*
X-29426Y11721D01*
X-29463Y11721D01*
G75*
D01*
G02X-29614Y11869I0J150*
G01*
X-34436Y10219D02*
X-34436Y10312D01*
X-34134Y10312D01*
X-34134Y10069D01*
X-34285Y10069D01*
G75*
D01*
G02X-34436Y10219I0J150*
G01*
X-33564Y10219D02*
G75*
D01*
G02X-33715Y10069I-151J0*
G01*
X-33866Y10069D01*
X-33866Y10312D01*
X-33564Y10312D01*
X-33564Y10219D01*
X-32063Y8379D02*
X-32026Y8379D01*
X-32026Y8231D01*
X-32214Y8231D01*
G75*
D01*
G02X-32063Y8379I151J-2*
G01*
X-31676Y8231D02*
X-31864Y8231D01*
X-31864Y8379D01*
X-31827Y8379D01*
G74*
D01*
G02X-31676Y8231I0J150*
G01*
X-31827Y7921D02*
X-31864Y7921D01*
X-31864Y8069D01*
X-31676Y8069D01*
G74*
D01*
G02X-31827Y7921I151J2*
G01*
X-32214Y8069D02*
X-32026Y8069D01*
X-32026Y7921D01*
X-32063Y7921D01*
G75*
D01*
G02X-32214Y8069I0J150*
G01*
X-21617Y-9600D02*
G75*
D01*
G02X-21617Y-9600I417J0*
G01*
X-21617Y-8600D02*
G75*
D01*
G02X-21617Y-8600I417J0*
G01*
X-21617Y-7600D02*
G75*
D01*
G02X-21617Y-7600I417J0*
G01*
X-21617Y-6600D02*
G75*
D01*
G02X-21617Y-6600I417J0*
G01*
X-21617Y-5600D02*
G75*
D01*
G02X-21617Y-5600I417J0*
G01*
X-21617Y-4600D02*
G75*
D01*
G02X-21617Y-4600I417J0*
G01*
X-21617Y-3600D02*
G75*
D01*
G02X-21617Y-3600I417J0*
G01*
X-21617Y-2600D02*
G75*
D01*
G02X-21617Y-2600I417J0*
G01*
X-21617Y8400D02*
G75*
D01*
G02X-21617Y8400I417J0*
G01*
X17653Y13148D02*
G75*
D01*
G02X17653Y13148I520J0*
G01*
X2507Y13148D02*
G75*
D01*
G02X2507Y13148I520J0*
G01*
X21683Y-13955D02*
G75*
D01*
G02X21683Y-13955I417J0*
G01*
X21683Y-12955D02*
G75*
D01*
G02X21683Y-12955I417J0*
G01*
X21683Y-11955D02*
G75*
D01*
G02X21683Y-11955I417J0*
G01*
X-21617Y400D02*
G75*
D01*
G02X-21617Y400I417J0*
G01*
X-12617Y-8600D02*
G75*
D01*
G02X-12617Y-8600I417J0*
G01*
X-12617Y-7600D02*
G75*
D01*
G02X-12617Y-7600I417J0*
G01*
X-12617Y-6600D02*
G75*
D01*
G02X-12617Y-6600I417J0*
G01*
X21683Y-9955D02*
G75*
D01*
G02X21683Y-9955I417J0*
G01*
X21683Y-8955D02*
G75*
D01*
G02X21683Y-8955I417J0*
G01*
X21683Y-7955D02*
G75*
D01*
G02X21683Y-7955I417J0*
G01*
X21675Y-5314D02*
G75*
D01*
G02X21675Y-5314I417J0*
G01*
X21675Y-4314D02*
G75*
D01*
G02X21675Y-4314I417J0*
G01*
X-26265Y-17140D02*
G75*
D01*
G02X-26265Y-17140I1025J0*
G01*
X-2700Y7854D02*
G75*
D01*
G02X-2976Y8130I0J276*
G01*
X-2976Y8870D01*
G75*
D01*
G02X-2700Y9146I276J0*
G01*
G74*
D01*
G02X-2424Y8870I0J276*
G01*
X-2424Y8130D01*
G75*
D01*
G02X-2700Y7854I-276J0*
G01*
X-3415Y9366D02*
X-3000Y9366D01*
X-3000Y8800D01*
X-3566Y8800D01*
X-3566Y9215D01*
G75*
D01*
G02X-3415Y9366I151J0*
G01*
X-1834Y9215D02*
X-1834Y8800D01*
X-2400Y8800D01*
X-2400Y9366D01*
X-1985Y9366D01*
G74*
D01*
G02X-1834Y9215I0J151*
G01*
X-12617Y400D02*
G75*
D01*
G02X-12617Y400I417J0*
G01*
X-12617Y1400D02*
G75*
D01*
G02X-12617Y1400I417J0*
G01*
X-12617Y2400D02*
G75*
D01*
G02X-12617Y2400I417J0*
G01*
X-12617Y3400D02*
G75*
D01*
G02X-12617Y3400I417J0*
G01*
X-12617Y4400D02*
G75*
D01*
G02X-12617Y4400I417J0*
G01*
X-12617Y5400D02*
G75*
D01*
G02X-12617Y5400I417J0*
G01*
X-12617Y6400D02*
G75*
D01*
G02X-12617Y6400I417J0*
G01*
X-14069Y17076D02*
X-14069Y16524D01*
G75*
D01*
G02X-14219Y16374I-150J0*
G01*
X-14225Y16374D01*
X-14225Y14001D01*
X-12651Y14001D01*
X-12651Y20517D01*
X-16896Y20517D01*
X-16896Y20517D01*
X-20500Y20517D01*
X-20500Y20517D01*
X-26345Y20517D01*
X-26345Y20517D01*
X-27197Y20517D01*
G74*
D01*
G02X-27209Y20516I12J151*
G01*
G75*
D01*
G03X-28308Y19418I0J-1098*
G01*
G75*
D01*
G02X-28308Y19406I-151J0*
G01*
X-28308Y17824D01*
G74*
D01*
G02X-28305Y17794I151J30*
G01*
G75*
D01*
G02X-32266Y13833I-3961J0*
G01*
G75*
D01*
G02X-32296Y13836I0J154*
G01*
X-34381Y13836D01*
G74*
D01*
G02X-34393Y13835I12J151*
G01*
G75*
D01*
G03X-35491Y12737I0J-1098*
G01*
G75*
D01*
G02X-35492Y12725I-152J0*
G01*
X-35492Y151D01*
X-28459Y151D01*
G74*
D01*
G02X-28308Y0I0J151*
G01*
X-28308Y-8000D01*
G75*
D01*
G02X-28459Y-8151I-151J0*
G01*
X-35489Y-8151D01*
X-35491Y-11370D01*
X-35491Y-11370D01*
X-35492Y-12725D01*
G74*
D01*
G02X-35491Y-12737I151J12*
G01*
G75*
D01*
G03X-34393Y-13835I1098J0*
G01*
G74*
D01*
G02X-34381Y-13836I0J152*
G01*
X-32296Y-13836D01*
G75*
D01*
G02X-32266Y-13833I30J-151*
G01*
G74*
D01*
G02X-28305Y-17794I0J3961*
G01*
G75*
D01*
G02X-28308Y-17824I-154J0*
G01*
X-28308Y-19406D01*
G74*
D01*
G02X-28308Y-19418I151J12*
G01*
G75*
D01*
G03X-27209Y-20516I1099J0*
G01*
G74*
D01*
G02X-27197Y-20517I0J152*
G01*
X-12651Y-20517D01*
X-12651Y-13988D01*
G74*
D01*
G02X-12649Y-13962I151J0*
G01*
X-12899Y-14213D01*
X-12899Y-17870D01*
G75*
D01*
G02X-12958Y-18013I-201J-1*
G01*
X-12987Y-18042D01*
G75*
D01*
G02X-13130Y-18101I-142J142*
G01*
X-14243Y-18101D01*
X-14669Y-18527D01*
X-14669Y-18876D01*
G75*
D01*
G02X-14819Y-19026I-150J0*
G01*
X-15233Y-19026D01*
G75*
D01*
G02X-15383Y-18876I0J150*
G01*
X-15383Y-18368D01*
X-15417Y-18401D01*
X-15417Y-18876D01*
G75*
D01*
G02X-15567Y-19026I-150J0*
G01*
X-15981Y-19026D01*
G75*
D01*
G02X-16131Y-18876I0J150*
G01*
X-16131Y-18324D01*
G75*
D01*
G02X-15981Y-18174I150J0*
G01*
X-15758Y-18174D01*
X-15142Y-17558D01*
G75*
D01*
G02X-15000Y-17499I142J-142*
G01*
X-13516Y-17499D01*
X-13516Y-14130D01*
X-16671Y-14130D01*
G75*
D01*
G02X-16813Y-14071I0J201*
G01*
X-19523Y-11361D01*
X-19742Y-11142D01*
G74*
D01*
G02X-19799Y-11028I142J142*
G01*
X-19799Y-12417D01*
X-18858Y-13358D01*
G75*
D01*
G02X-18799Y-13500I-142J-142*
G01*
X-18799Y-17187D01*
X-16896Y-19090D01*
X-16896Y-19090D01*
X-16632Y-19355D01*
G75*
D01*
G02X-16937Y-19618I32J-345*
G01*
X-19142Y-17413D01*
G75*
D01*
G02X-19201Y-17271I142J142*
G01*
X-19201Y-13583D01*
X-20142Y-12642D01*
G75*
D01*
G02X-20201Y-12500I142J142*
G01*
X-20201Y-10936D01*
G75*
D01*
G02X-20201Y-10664I-699J136*
G01*
X-20201Y117D01*
X-21084Y1000D01*
G75*
D01*
G02X-20800Y1284I-116J400*
G01*
X-19858Y342D01*
G74*
D01*
G02X-19801Y228I142J142*
G01*
X-19801Y717D01*
X-21084Y2000D01*
G75*
D01*
G02X-20800Y2284I-116J400*
G01*
X-19458Y942D01*
G75*
D01*
G02X-19399Y800I-142J-142*
G01*
X-19399Y-10917D01*
X-16587Y-13728D01*
X-13383Y-13728D01*
X-12242Y-12587D01*
G75*
D01*
G02X-12100Y-12528I142J-142*
G01*
X-9564Y-12528D01*
G75*
D01*
G02X-9421Y-12587I1J-201*
G01*
X-9252Y-12756D01*
G75*
D01*
G02X-8741Y-13499I156J-440*
G01*
X-8683Y-13499D01*
X-8536Y-13352D01*
G75*
D01*
G02X-7741Y-13499I440J156*
G01*
X-7486Y-13499D01*
G75*
D01*
G02X-7548Y-13301I286J198*
G01*
X-7548Y-13092D01*
G75*
D01*
G02X-7200Y-12745I348J0*
G01*
X-6992Y-12745D01*
G74*
D01*
G02X-6658Y-12995I0J347*
G01*
X-6389Y-12995D01*
X-7447Y-11937D01*
X-7862Y-11522D01*
G75*
D01*
G02X-8483Y-11801I-338J-78*
G01*
X-17517Y-11801D01*
G75*
D01*
G02X-17517Y-11399I-283J201*
G01*
X-12785Y-11399D01*
G75*
D01*
G02X-13025Y-10459I385J599*
G01*
X-16896Y-6588D01*
X-18142Y-5342D01*
G75*
D01*
G02X-18201Y-5200I142J142*
G01*
X-18201Y9399D01*
X-20217Y9399D01*
G75*
D01*
G02X-20217Y9801I-683J201*
G01*
X-13083Y9801D01*
G75*
D01*
G02X-13083Y9399I683J-201*
G01*
X-17799Y9399D01*
X-17799Y-5117D01*
X-12741Y-10175D01*
G75*
D01*
G02X-12015Y-11399I341J-625*
G01*
X-8483Y-11399D01*
G75*
D01*
G02X-8122Y-11262I283J-201*
G01*
X-9583Y-9801D01*
X-11835Y-9801D01*
G75*
D01*
G02X-11835Y-9399I-365J201*
G01*
X-9500Y-9399D01*
X-9500Y-9399D01*
X-9472Y-9399D01*
G74*
D01*
G02X-9282Y-9533I0J201*
G01*
X-7906Y-10910D01*
X-5820Y-12995D01*
X-4997Y-12995D01*
X-4997Y-6200D01*
G75*
D01*
G02X-4796Y-5999I201J0*
G01*
X-3566Y-5999D01*
X-3566Y-5485D01*
G75*
D01*
G02X-3415Y-5334I151J0*
G01*
X-1985Y-5334D01*
G74*
D01*
G02X-1834Y-5485I0J151*
G01*
X-1834Y-6915D01*
G75*
D01*
G02X-1985Y-7066I-151J0*
G01*
X-3415Y-7066D01*
G75*
D01*
G02X-3566Y-6915I0J151*
G01*
X-3566Y-6401D01*
X-4595Y-6401D01*
X-4595Y-12995D01*
X-3304Y-12995D01*
G74*
D01*
G02X-3161Y-13055I0J201*
G01*
X-2158Y-14058D01*
G75*
D01*
G02X-2099Y-14201I-142J-142*
G01*
X-2099Y-18787D01*
X-1987Y-18899D01*
X24457Y-18899D01*
X25039Y-18317D01*
X25039Y-18145D01*
G75*
D01*
G02X26199Y-16778I201J1005*
G01*
X26199Y-15300D01*
G75*
D01*
G02X26258Y-15158I201J0*
G01*
X29358Y-12058D01*
G74*
D01*
G02X29432Y-12011I142J142*
G01*
G75*
D01*
G02X29500Y-11999I68J-189*
G01*
X32999Y-11999D01*
X32999Y-11400D01*
G75*
D01*
G02X32999Y-10380I-889J510*
G01*
X32999Y-9201D01*
X29300Y-9201D01*
G75*
D01*
G02X29158Y-9142I0J201*
G01*
X28517Y-8501D01*
X25900Y-8501D01*
G75*
D01*
G02X25758Y-8442I0J201*
G01*
X23830Y-6515D01*
X22457Y-6515D01*
G75*
D01*
G02X22457Y-6113I-365J201*
G01*
X23914Y-6113D01*
G74*
D01*
G02X24056Y-6172I0J201*
G01*
X25983Y-8099D01*
X26916Y-8099D01*
G75*
D01*
G02X26999Y-7617I284J199*
G01*
X26999Y-3471D01*
X26999Y-3470D01*
X26999Y-500D01*
G75*
D01*
G02X27058Y-358I201J0*
G01*
X29774Y2358D01*
X29774Y2581D01*
G75*
D01*
G02X29924Y2731I150J0*
G01*
X30476Y2731D01*
G74*
D01*
G02X30626Y2581I0J150*
G01*
X30626Y2167D01*
G75*
D01*
G02X30476Y2017I-150J0*
G01*
X30001Y2017D01*
X29968Y1983D01*
X30476Y1983D01*
G74*
D01*
G02X30626Y1833I0J150*
G01*
X30626Y1419D01*
G75*
D01*
G02X30476Y1269I-150J0*
G01*
X30401Y1269D01*
X30401Y1101D01*
X34599Y1101D01*
X34599Y12149D01*
X28450Y12149D01*
G75*
D01*
G02X28374Y12164I0J201*
G01*
G74*
D01*
G02X28308Y12208I76J186*
G01*
X23539Y16976D01*
X23539Y16976D01*
X20617Y19899D01*
X16872Y19899D01*
G75*
D01*
G02X16448Y19899I-212J-359*
G01*
X15283Y19899D01*
X13242Y17858D01*
G74*
D01*
G02X13146Y17804I142J142*
G01*
G75*
D01*
G02X13100Y17799I-46J196*
G01*
X-1087Y17799D01*
X-3899Y14987D01*
X-3899Y13830D01*
G75*
D01*
G02X-3958Y13687I-201J-1*
G01*
X-3987Y13658D01*
G75*
D01*
G02X-4130Y13599I-142J142*
G01*
X-6942Y13599D01*
G75*
D01*
G02X-7658Y13599I-358J-299*
G01*
X-7942Y13599D01*
G75*
D01*
G02X-8099Y12879I-358J-299*
G01*
X-8099Y12830D01*
G75*
D01*
G02X-8158Y12687I-201J-1*
G01*
X-8187Y12658D01*
G75*
D01*
G02X-8329Y12599I-142J142*
G01*
X-11701Y12599D01*
G74*
D01*
G02X-11587Y12542I28J199*
G01*
X-10658Y11613D01*
G75*
D01*
G02X-10599Y11470I-142J-142*
G01*
X-10599Y8583D01*
G75*
D01*
G02X-11130Y8193I-201J-283*
G01*
G74*
D01*
G02X-11158Y8158I170J107*
G01*
X-11800Y7516D01*
G75*
D01*
G02X-12084Y7800I-400J-116*
G01*
X-11501Y8383D01*
X-11501Y11537D01*
X-11963Y11999D01*
X-15100Y11999D01*
G75*
D01*
G02X-15242Y12058I0J201*
G01*
X-17483Y14299D01*
X-19234Y14299D01*
X-19234Y13385D01*
G75*
D01*
G02X-19385Y13234I-151J0*
G01*
X-20815Y13234D01*
G75*
D01*
G02X-20966Y13385I0J151*
G01*
X-20966Y14815D01*
G75*
D01*
G02X-20815Y14966I151J0*
G01*
X-19385Y14966D01*
G74*
D01*
G02X-19234Y14815I0J151*
G01*
X-19234Y14701D01*
X-17585Y14701D01*
X-18533Y15649D01*
X-22467Y15649D01*
X-23048Y15068D01*
X-23048Y14443D01*
X-23032Y14443D01*
G74*
D01*
G02X-22906Y14375I0J151*
G01*
X-22874Y14375D01*
G75*
D01*
G02X-22732Y14316I0J-201*
G01*
X-22658Y14242D01*
G75*
D01*
G02X-22599Y14100I-142J-142*
G01*
X-22599Y12131D01*
X-22515Y12131D01*
G74*
D01*
G02X-22364Y11981I0J150*
G01*
X-22364Y11528D01*
G75*
D01*
G02X-22435Y11400I-151J0*
G01*
G74*
D01*
G02X-22364Y11272I80J128*
G01*
X-22364Y10819D01*
G75*
D01*
G02X-22515Y10669I-151J0*
G01*
X-23085Y10669D01*
G75*
D01*
G02X-23236Y10819I0J150*
G01*
X-23236Y10898D01*
G74*
D01*
G02X-23242Y10904I136J148*
G01*
X-23491Y11152D01*
G75*
D01*
G02X-23550Y11294I142J142*
G01*
X-23550Y13183D01*
G75*
D01*
G02X-23616Y13308I85J125*
G01*
X-23616Y13509D01*
X-23706Y13599D01*
X-23997Y13599D01*
G74*
D01*
G02X-23984Y13538I138J61*
G01*
X-23984Y13302D01*
G75*
D01*
G02X-24135Y13151I-151J0*
G01*
X-24365Y13151D01*
X-24750Y12766D01*
X-24750Y10634D01*
X-21643Y7528D01*
X-21607Y7491D01*
G75*
D01*
G02X-21109Y6993I407J-91*
G01*
X-21058Y6942D01*
G75*
D01*
G02X-20999Y6800I-142J-142*
G01*
X-20999Y6765D01*
G75*
D01*
G02X-21109Y5993I-201J-365*
G01*
X-21058Y5942D01*
G75*
D01*
G02X-20999Y5800I-142J-142*
G01*
X-20999Y5765D01*
G75*
D01*
G02X-21109Y4993I-201J-365*
G01*
X-21058Y4942D01*
G75*
D01*
G02X-20999Y4800I-142J-142*
G01*
X-20999Y4765D01*
G75*
D01*
G02X-21431Y4747I-201J-365*
G01*
X-23133Y6449D01*
X-29849Y6449D01*
G74*
D01*
G02X-29937Y6421I88J122*
G01*
X-30173Y6421D01*
G75*
D01*
G02X-30324Y6571I0J150*
G01*
X-30324Y6729D01*
G75*
D01*
G02X-30173Y6879I151J0*
G01*
X-29937Y6879D01*
G74*
D01*
G02X-29849Y6851I0J150*
G01*
X-23050Y6851D01*
G75*
D01*
G02X-22908Y6792I0J-201*
G01*
X-21607Y5491D01*
G74*
D01*
G02X-21431Y5747I407J91*
G01*
X-23212Y7528D01*
X-25933Y10249D01*
X-27249Y10249D01*
G74*
D01*
G02X-27337Y10221I88J122*
G01*
X-27573Y10221D01*
G75*
D01*
G02X-27724Y10371I0J150*
G01*
X-27724Y10529D01*
G75*
D01*
G02X-27573Y10679I151J0*
G01*
X-27337Y10679D01*
G74*
D01*
G02X-27249Y10651I0J150*
G01*
X-25850Y10651D01*
G74*
D01*
G02X-25826Y10650I0J201*
G01*
G74*
D01*
G02X-25708Y10592I24J200*
G01*
X-21607Y6491D01*
G74*
D01*
G02X-21431Y6747I407J91*
G01*
X-22212Y7528D01*
X-25093Y10409D01*
G75*
D01*
G02X-25152Y10551I142J142*
G01*
X-25152Y12849D01*
G74*
D01*
G02X-25093Y12991I201J0*
G01*
X-24718Y13366D01*
X-24718Y13397D01*
X-25364Y12752D01*
X-25364Y12419D01*
G75*
D01*
G02X-25515Y12269I-151J0*
G01*
X-26085Y12269D01*
G75*
D01*
G02X-26236Y12419I0J150*
G01*
X-26236Y12445D01*
X-26571Y12445D01*
X-26799Y12217D01*
X-26799Y11200D01*
G75*
D01*
G02X-27000Y10999I-201J0*
G01*
X-27186Y10999D01*
X-27186Y10871D01*
G75*
D01*
G02X-27337Y10721I-151J0*
G01*
X-27573Y10721D01*
G75*
D01*
G02X-27724Y10871I0J150*
G01*
X-27724Y10999D01*
X-29076Y10999D01*
X-29076Y10871D01*
G75*
D01*
G02X-29144Y10745I-151J0*
G01*
X-29144Y10655D01*
G74*
D01*
G02X-29076Y10529I83J126*
G01*
X-29076Y10371D01*
G75*
D01*
G02X-29227Y10221I-151J0*
G01*
X-29463Y10221D01*
G75*
D01*
G02X-29614Y10371I0J150*
G01*
X-29614Y10529D01*
G74*
D01*
G02X-29546Y10655I151J0*
G01*
X-29546Y10707D01*
G75*
D01*
G02X-29668Y10666I-121J160*
G01*
X-31110Y10666D01*
G75*
D01*
G02X-33110Y10666I-1000J224*
G01*
X-33113Y10666D01*
G75*
D01*
G02X-33147Y10669I0J201*
G01*
G74*
D01*
G02X-33255Y10726I34J198*
G01*
X-33483Y10953D01*
X-33564Y10953D01*
X-33564Y10928D01*
G75*
D01*
G02X-33635Y10800I-151J0*
G01*
G74*
D01*
G02X-33564Y10672I80J128*
G01*
X-33564Y10579D01*
X-33866Y10579D01*
X-33866Y10777D01*
X-34134Y10777D01*
X-34134Y10579D01*
X-34436Y10579D01*
X-34436Y10672D01*
G74*
D01*
G02X-34365Y10800I151J0*
G01*
G75*
D01*
G02X-34436Y10928I80J128*
G01*
X-34436Y11381D01*
G75*
D01*
G02X-34285Y11531I151J0*
G01*
X-33715Y11531D01*
G74*
D01*
G02X-33564Y11381I0J150*
G01*
X-33564Y11355D01*
X-33400Y11355D01*
G74*
D01*
G02X-33336Y11345I0J201*
G01*
G74*
D01*
G02X-33258Y11296I64J191*
G01*
X-33104Y11142D01*
G75*
D01*
G02X-31101Y11068I994J-252*
G01*
X-29751Y11068D01*
X-29614Y11205D01*
X-29614Y11529D01*
G75*
D01*
G02X-29463Y11679I151J0*
G01*
X-29227Y11679D01*
G74*
D01*
G02X-29076Y11529I0J150*
G01*
X-29076Y11401D01*
X-27724Y11401D01*
X-27724Y11529D01*
G75*
D01*
G02X-27573Y11679I151J0*
G01*
X-27337Y11679D01*
G74*
D01*
G02X-27201Y11594I0J150*
G01*
X-27201Y11806D01*
G74*
D01*
G02X-27337Y11721I136J65*
G01*
X-27573Y11721D01*
G75*
D01*
G02X-27724Y11871I0J150*
G01*
X-27724Y11990D01*
G75*
D01*
G02X-27717Y12401I-276J210*
G01*
X-27656Y12401D01*
X-27656Y13145D01*
G74*
D01*
G02X-27597Y13287I201J0*
G01*
X-27388Y13496D01*
G74*
D01*
G02X-27270Y13554I142J142*
G01*
G75*
D01*
G02X-27246Y13555I24J-200*
G01*
X-26236Y13555D01*
X-26236Y13581D01*
G75*
D01*
G02X-26085Y13731I151J0*
G01*
X-25515Y13731D01*
G74*
D01*
G02X-25364Y13581I0J150*
G01*
X-25364Y13320D01*
X-24742Y13942D01*
G74*
D01*
G02X-24710Y13968I142J142*
G01*
G74*
D01*
G02X-24700Y13990I142J50*
G01*
G75*
D01*
G02X-24718Y14062I132J72*
G01*
X-24718Y14085D01*
X-24447Y14085D01*
X-24447Y14069D01*
X-24256Y14069D01*
X-24256Y14085D01*
X-23984Y14085D01*
X-23984Y14062D01*
G75*
D01*
G02X-23997Y14001I-151J0*
G01*
X-23623Y14001D01*
G75*
D01*
G02X-23605Y14000I0J-201*
G01*
G75*
D01*
G02X-23616Y14056I140J56*
G01*
X-23616Y14292D01*
G75*
D01*
G02X-23465Y14443I151J0*
G01*
X-23450Y14443D01*
X-23450Y15151D01*
G74*
D01*
G02X-23391Y15294I201J0*
G01*
X-22692Y15992D01*
G74*
D01*
G02X-22598Y16045I142J142*
G01*
G75*
D01*
G02X-22550Y16051I48J-195*
G01*
X-18450Y16051D01*
G75*
D01*
G02X-18308Y15992I0J-201*
G01*
X-16896Y14580D01*
X-14917Y12601D01*
X-14828Y12601D01*
G74*
D01*
G02X-14942Y12658I28J199*
G01*
X-15316Y13032D01*
G75*
D01*
G02X-15375Y13174I142J142*
G01*
X-15375Y16374D01*
X-15381Y16374D01*
G75*
D01*
G02X-15531Y16524I0J150*
G01*
X-15531Y17076D01*
G74*
D01*
G02X-15512Y17149I150J0*
G01*
X-23167Y17149D01*
X-26058Y14258D01*
G74*
D01*
G02X-26185Y14200I142J142*
G01*
G74*
D01*
G02X-26200Y14199I15J200*
G01*
X-28017Y14199D01*
X-30158Y12058D01*
G74*
D01*
G02X-30237Y12009I142J142*
G01*
G74*
D01*
G02X-30300Y11999I63J191*
G01*
X-34568Y11999D01*
X-34680Y11887D01*
X-34680Y5094D01*
X-34168Y4582D01*
X-33810Y4582D01*
G74*
D01*
G02X-33796Y4581I0J201*
G01*
G75*
D01*
G02X-33781Y4582I15J-200*
G01*
X-26449Y4582D01*
G75*
D01*
G02X-26323Y4650I126J-83*
G01*
X-25890Y4650D01*
G74*
D01*
G02X-25739Y4499I0J151*
G01*
X-25739Y4263D01*
G75*
D01*
G02X-25890Y4112I-151J0*
G01*
X-25899Y4112D01*
X-25899Y2183D01*
X-25517Y1801D01*
X-24767Y1801D01*
G75*
D01*
G02X-24836Y1928I82J127*
G01*
X-24836Y2381D01*
G74*
D01*
G02X-24801Y2478I151J0*
G01*
X-24801Y4106D01*
X-24908Y4106D01*
X-24908Y4280D01*
X-24801Y4280D01*
X-24801Y4470D01*
X-24908Y4470D01*
X-24908Y4486D01*
X-25099Y4486D01*
X-25099Y4470D01*
X-25371Y4470D01*
X-25371Y4493D01*
G74*
D01*
G02X-25358Y4554I151J0*
G01*
G74*
D01*
G02X-25410Y4562I3J201*
G01*
G74*
D01*
G02X-25497Y4613I55J193*
G01*
X-25786Y4902D01*
G74*
D01*
G02X-25890Y4860I104J109*
G01*
X-26323Y4860D01*
G75*
D01*
G02X-26424Y4899I0J151*
G01*
X-34300Y4899D01*
G75*
D01*
G02X-34372Y4912I0J201*
G01*
G74*
D01*
G02X-34442Y4958I72J188*
G01*
X-34542Y5058D01*
G75*
D01*
G02X-34601Y5200I142J142*
G01*
X-34601Y8471D01*
G74*
D01*
G02X-34542Y8613I201J0*
G01*
X-34238Y8917D01*
G75*
D01*
G02X-33962Y8925I142J-142*
G01*
G74*
D01*
G02X-33954Y8917I134J150*
G01*
X-32637Y7601D01*
X-32214Y7601D01*
X-32214Y7729D01*
G75*
D01*
G02X-32063Y7879I151J0*
G01*
X-31827Y7879D01*
G74*
D01*
G02X-31676Y7729I0J150*
G01*
X-31676Y7601D01*
X-30324Y7601D01*
X-30324Y7729D01*
G75*
D01*
G02X-30173Y7879I151J0*
G01*
X-29937Y7879D01*
G74*
D01*
G02X-29786Y7729I0J150*
G01*
X-29786Y7601D01*
X-28929Y7601D01*
X-28636Y7894D01*
X-28636Y8272D01*
G74*
D01*
G02X-28565Y8400I151J0*
G01*
G75*
D01*
G02X-28636Y8528I80J128*
G01*
X-28636Y8553D01*
X-29262Y8553D01*
X-29795Y8021D01*
G74*
D01*
G02X-29937Y7921I142J50*
G01*
X-30173Y7921D01*
G75*
D01*
G02X-30324Y8071I0J150*
G01*
X-30324Y8229D01*
G75*
D01*
G02X-30173Y8379I151J0*
G01*
X-30005Y8379D01*
X-29488Y8896D01*
G75*
D01*
G02X-29346Y8955I142J-142*
G01*
X-28636Y8955D01*
X-28636Y8981D01*
G75*
D01*
G02X-28485Y9131I151J0*
G01*
X-27915Y9131D01*
G74*
D01*
G02X-27764Y8981I0J150*
G01*
X-27764Y8955D01*
X-27229Y8955D01*
X-26742Y9442D01*
G75*
D01*
G02X-26458Y9158I342J58*
G01*
X-27004Y8612D01*
G75*
D01*
G02X-27146Y8553I-142J142*
G01*
X-27764Y8553D01*
X-27764Y8528D01*
G75*
D01*
G02X-27835Y8400I-151J0*
G01*
G74*
D01*
G02X-27764Y8272I80J128*
G01*
X-27764Y7819D01*
G75*
D01*
G02X-27915Y7669I-151J0*
G01*
X-28293Y7669D01*
X-28434Y7528D01*
X-28434Y7528D01*
X-28704Y7258D01*
G75*
D01*
G02X-28846Y7199I-142J142*
G01*
X-29786Y7199D01*
X-29786Y7071D01*
G75*
D01*
G02X-29937Y6921I-151J0*
G01*
X-30173Y6921D01*
G75*
D01*
G02X-30324Y7071I0J150*
G01*
X-30324Y7199D01*
X-31676Y7199D01*
X-31676Y7071D01*
G75*
D01*
G02X-31744Y6945I-151J0*
G01*
X-31744Y6855D01*
G74*
D01*
G02X-31676Y6729I83J126*
G01*
X-31676Y6571D01*
G75*
D01*
G02X-31827Y6421I-151J0*
G01*
X-32063Y6421D01*
G75*
D01*
G02X-32214Y6571I0J150*
G01*
X-32214Y6729D01*
G74*
D01*
G02X-32146Y6855I151J0*
G01*
X-32146Y6945D01*
G75*
D01*
G02X-32214Y7071I83J126*
G01*
X-32214Y7199D01*
X-32720Y7199D01*
G75*
D01*
G02X-32789Y7211I-1J201*
G01*
G74*
D01*
G02X-32863Y7258I68J189*
G01*
X-33133Y7528D01*
X-33133Y7528D01*
X-34096Y8491D01*
X-34199Y8387D01*
X-34199Y6001D01*
X-33783Y6001D01*
G75*
D01*
G02X-33783Y5599I283J-201*
G01*
X-34199Y5599D01*
X-34199Y5301D01*
X-26463Y5301D01*
G75*
D01*
G02X-26323Y5398I140J-54*
G01*
X-25890Y5398D01*
G74*
D01*
G02X-25764Y5330I0J151*
G01*
X-25729Y5330D01*
G74*
D01*
G02X-25682Y5325I0J201*
G01*
G74*
D01*
G02X-25587Y5271I47J196*
G01*
X-25371Y5055D01*
X-25371Y5253D01*
G75*
D01*
G02X-25220Y5404I151J0*
G01*
X-24787Y5404D01*
G74*
D01*
G02X-24661Y5336I0J151*
G01*
X-22935Y5336D01*
G75*
D01*
G02X-22793Y5277I0J-201*
G01*
X-21316Y3800D01*
G75*
D01*
G02X-21600Y3516I116J-400*
G01*
X-23018Y4934D01*
X-24550Y4934D01*
X-24458Y4842D01*
G75*
D01*
G02X-24399Y4700I-142J-142*
G01*
X-24399Y2531D01*
X-24115Y2531D01*
G74*
D01*
G02X-23964Y2381I0J150*
G01*
X-23964Y1928D01*
G75*
D01*
G02X-24035Y1800I-151J0*
G01*
G74*
D01*
G02X-23964Y1672I80J128*
G01*
X-23964Y1219D01*
G75*
D01*
G02X-24115Y1069I-151J0*
G01*
X-24685Y1069D01*
G75*
D01*
G02X-24836Y1219I0J150*
G01*
X-24836Y1399D01*
X-25600Y1399D01*
G75*
D01*
G02X-25742Y1458I0J201*
G01*
X-26242Y1958D01*
G75*
D01*
G02X-26301Y2100I142J142*
G01*
X-26301Y4112D01*
X-26323Y4112D01*
G75*
D01*
G02X-26449Y4180I0J151*
G01*
X-33199Y4180D01*
X-33199Y3931D01*
X-33124Y3931D01*
G74*
D01*
G02X-32974Y3781I0J150*
G01*
X-32974Y3367D01*
G75*
D01*
G02X-33124Y3217I-150J0*
G01*
X-33676Y3217D01*
G75*
D01*
G02X-33826Y3367I0J150*
G01*
X-33826Y3781D01*
G75*
D01*
G02X-33676Y3931I150J0*
G01*
X-33601Y3931D01*
X-33601Y4180D01*
X-33781Y4180D01*
G75*
D01*
G02X-33796Y4181I0J201*
G01*
G74*
D01*
G02X-33810Y4180I14J200*
G01*
X-34084Y4180D01*
X-34084Y851D01*
X-27835Y851D01*
X-29609Y2625D01*
X-32974Y2625D01*
X-32974Y2619D01*
G75*
D01*
G02X-33124Y2469I-150J0*
G01*
X-33676Y2469D01*
G75*
D01*
G02X-33826Y2619I0J150*
G01*
X-33826Y3033D01*
G75*
D01*
G02X-33676Y3183I150J0*
G01*
X-33124Y3183D01*
G74*
D01*
G02X-32974Y3033I0J150*
G01*
X-32974Y3027D01*
X-29526Y3027D01*
G75*
D01*
G02X-29384Y2968I0J-201*
G01*
X-26345Y-71D01*
X-26017Y-399D01*
X-23800Y-399D01*
X-23800Y-399D01*
X-21565Y-399D01*
G75*
D01*
G02X-21565Y-801I365J-201*
G01*
X-23717Y-801D01*
X-24837Y-1921D01*
X-24837Y-1921D01*
X-26345Y-3429D01*
X-27058Y-4142D01*
G74*
D01*
G02X-27179Y-4200I142J142*
G01*
G74*
D01*
G02X-27200Y-4201I21J200*
G01*
X-27379Y-4201D01*
G75*
D01*
G02X-27379Y-3799I-421J201*
G01*
X-27283Y-3799D01*
X-26345Y-2861D01*
X-25405Y-1921D01*
X-25405Y-1921D01*
X-24285Y-801D01*
X-26100Y-801D01*
G75*
D01*
G02X-26242Y-742I0J201*
G01*
X-26345Y-639D01*
X-26345Y-639D01*
X-26999Y15D01*
X-26999Y-2400D01*
G75*
D01*
G02X-27058Y-2542I-201J0*
G01*
X-27360Y-2844D01*
G75*
D01*
G02X-27644Y-2560I-440J-156*
G01*
X-27401Y-2317D01*
X-27401Y-2288D01*
G74*
D01*
G02X-27696Y-2452I295J184*
G01*
X-27904Y-2452D01*
G75*
D01*
G02X-28252Y-2104I0J348*
G01*
X-28252Y-1896D01*
G75*
D01*
G02X-27904Y-1548I348J0*
G01*
X-27696Y-1548D01*
G74*
D01*
G02X-27401Y-1712I0J348*
G01*
X-27401Y117D01*
X-27733Y449D01*
X-34250Y449D01*
G75*
D01*
G02X-34392Y508I0J201*
G01*
X-34427Y543D01*
G75*
D01*
G02X-34486Y685I142J142*
G01*
X-34486Y4331D01*
X-35023Y4868D01*
G75*
D01*
G02X-35082Y5010I142J142*
G01*
X-35082Y11971D01*
G74*
D01*
G02X-35023Y12113I201J0*
G01*
X-34794Y12342D01*
G75*
D01*
G02X-34652Y12401I142J-142*
G01*
X-30383Y12401D01*
X-28242Y14542D01*
G74*
D01*
G02X-28135Y14598I142J142*
G01*
G75*
D01*
G02X-28100Y14601I35J-198*
G01*
X-26283Y14601D01*
X-23908Y16976D01*
X-23908Y16976D01*
X-23392Y17492D01*
G74*
D01*
G02X-23322Y17537I142J142*
G01*
G75*
D01*
G02X-23250Y17551I72J-187*
G01*
X-14876Y17551D01*
G75*
D01*
G02X-14734Y17492I0J-201*
G01*
X-14468Y17226D01*
X-14219Y17226D01*
G74*
D01*
G02X-14069Y17076I0J150*
G01*
X33406Y-8584D02*
X29498Y-8584D01*
X29064Y-8151D01*
X35489Y-8151D01*
X35489Y-12806D01*
X35489Y-12808D01*
G74*
D01*
G02X34393Y-13835I1096J71*
G01*
G75*
D01*
G03X34381Y-13836I0J-152*
G01*
X32296Y-13836D01*
G74*
D01*
G03X32266Y-13833I30J151*
G01*
G75*
D01*
G03X28305Y-17794I0J-3961*
G01*
G75*
D01*
G03X28308Y-17824I154J0*
G01*
X28308Y-19406D01*
G74*
D01*
G03X28308Y-19418I151J12*
G01*
G75*
D01*
G02X27209Y-20516I-1099J0*
G01*
G75*
D01*
G03X27197Y-20517I0J-152*
G01*
X20899Y-20517D01*
X20899Y-20517D01*
X20500Y-20517D01*
X12500Y-20517D01*
X12500Y-20517D01*
X11450Y-20517D01*
X11450Y-20517D01*
X4296Y-20517D01*
X4296Y-20517D01*
X2001Y-20517D01*
X2001Y-20517D01*
X0Y-20517D01*
X0Y-20517D01*
X-4349Y-20517D01*
X-4349Y-13988D01*
G74*
D01*
G03X-4377Y-13901I151J0*
G01*
X-3913Y-13901D01*
X-3701Y-14113D01*
X-3701Y-18371D01*
G75*
D01*
G03X-3642Y-18513I201J0*
G01*
X-2513Y-19642D01*
G74*
D01*
G03X-2417Y-19695I142J142*
G01*
G75*
D01*
G03X-2370Y-19701I46J195*
G01*
X26371Y-19701D01*
G74*
D01*
G03X26513Y-19642I0J201*
G01*
X27242Y-18913D01*
G75*
D01*
G03X27301Y-18771I-142J142*
G01*
X27301Y-15583D01*
X30183Y-12701D01*
X33406Y-12701D01*
G75*
D01*
G03X33457Y-12694I0J201*
G01*
G74*
D01*
G03X33548Y-12642I51J194*
G01*
X33577Y-12613D01*
G75*
D01*
G03X33636Y-12471I-142J142*
G01*
X33636Y-8815D01*
G74*
D01*
G03X33577Y-8672I201J0*
G01*
X33548Y-8643D01*
G74*
D01*
G03X33457Y-8591I142J142*
G01*
G75*
D01*
G03X33406Y-8584I-51J-194*
G01*
X-3299Y-14030D02*
G75*
D01*
G03X-3358Y-13887I-201J1*
G01*
X-3687Y-13558D01*
G75*
D01*
G03X-3830Y-13499I-142J-142*
G01*
X-6707Y-13499D01*
G74*
D01*
G03X-6658Y-13397I285J198*
G01*
X-3387Y-13397D01*
X-2501Y-14283D01*
X-2501Y-18871D01*
G75*
D01*
G03X-2442Y-19013I201J0*
G01*
X-2213Y-19242D01*
G74*
D01*
G03X-2099Y-19299I142J142*
G01*
X-2287Y-19299D01*
X-3299Y-18287D01*
X-3299Y-14030D01*
X26601Y-18371D02*
X26601Y-15383D01*
X29583Y-12401D01*
X29915Y-12401D01*
X26958Y-15358D01*
G75*
D01*
G03X26899Y-15500I142J-142*
G01*
X26899Y-18687D01*
X26287Y-19299D01*
X24568Y-19299D01*
G74*
D01*
G03X24682Y-19242I28J199*
G01*
X25323Y-18601D01*
X26371Y-18601D01*
G74*
D01*
G03X26513Y-18542I0J201*
G01*
X26542Y-18513D01*
G75*
D01*
G03X26601Y-18371I-142J142*
G01*
X-14884Y-18174D02*
X-14611Y-17901D01*
X-14917Y-17901D01*
X-15189Y-18174D01*
X-14884Y-18174D01*
X26199Y-17502D02*
X26199Y-18199D01*
X25441Y-18199D01*
X25441Y-18145D01*
G74*
D01*
G03X26199Y-17502I201J1005*
G01*
X-10452Y-13499D02*
G75*
D01*
G02X-10480Y-12930I356J303*
G01*
X-12017Y-12930D01*
X-12586Y-13499D01*
X-10452Y-13499D01*
X-9713Y-12930D02*
G75*
D01*
G02X-9741Y-13499I-383J-266*
G01*
X-9452Y-13499D01*
G75*
D01*
G02X-9536Y-13041I356J303*
G01*
X-9647Y-12930D01*
X-9713Y-12930D01*
X-1313Y18142D02*
X-2478Y16976D01*
X-2478Y16976D01*
X-4242Y15213D01*
G74*
D01*
G03X-4301Y15071I142J142*
G01*
X-4301Y14001D01*
X-4349Y14001D01*
X-4349Y20517D01*
X27197Y20517D01*
G75*
D01*
G03X27209Y20516I12J151*
G01*
G74*
D01*
G02X28308Y19418I0J1098*
G01*
G75*
D01*
G03X28308Y19406I151J0*
G01*
X28308Y17824D01*
G74*
D01*
G03X28305Y17794I151J30*
G01*
G75*
D01*
G03X32266Y13833I3961J0*
G01*
G74*
D01*
G03X32296Y13836I0J154*
G01*
X34381Y13836D01*
G75*
D01*
G03X34393Y13835I12J151*
G01*
G74*
D01*
G02X35491Y12737I0J1098*
G01*
G75*
D01*
G03X35492Y12725I152J0*
G01*
X35489Y8000D01*
X35489Y8000D01*
X35489Y151D01*
X28960Y151D01*
G75*
D01*
G03X28809Y0I0J-151*
G01*
X28809Y-7896D01*
X28686Y-7773D01*
X28686Y-4683D01*
X28727Y-4642D01*
G74*
D01*
G03X28772Y-4575I142J142*
G01*
G75*
D01*
G03X28801Y-4471I-172J104*
G01*
X28801Y487D01*
X29013Y699D01*
X30200Y699D01*
G74*
D01*
G03X30215Y700I0J201*
G01*
G75*
D01*
G03X30229Y699I14J200*
G01*
X34770Y699D01*
G75*
D01*
G03X34821Y706I1J201*
G01*
G74*
D01*
G03X34913Y758I50J194*
G01*
X34942Y787D01*
G75*
D01*
G03X35001Y929I-142J142*
G01*
X35001Y12321D01*
G74*
D01*
G03X34942Y12463I201J0*
G01*
X34913Y12492D01*
G74*
D01*
G03X34771Y12551I142J142*
G01*
X28533Y12551D01*
X24917Y16167D01*
G75*
D01*
G03X24267Y16817I323J973*
G01*
X24108Y16976D01*
X24108Y16976D01*
X20899Y20185D01*
X20899Y20185D01*
X20842Y20242D01*
G74*
D01*
G03X20702Y20301I142J142*
G01*
X20700Y20301D01*
X15200Y20301D01*
G75*
D01*
G03X15144Y20293I0J-201*
G01*
G74*
D01*
G03X15058Y20242I56J193*
G01*
X13017Y18201D01*
X-1171Y18201D01*
G75*
D01*
G03X-1313Y18142I0J-201*
G01*
X27484Y-8099D02*
X28115Y-8099D01*
X27858Y-7842D01*
G75*
D01*
G02X27799Y-7700I142J142*
G01*
X27799Y-5938D01*
G75*
D01*
G02X27548Y-5604I97J334*
G01*
X27548Y-5396D01*
G75*
D01*
G02X27896Y-5048I348J0*
G01*
X28104Y-5048D01*
G74*
D01*
G02X28284Y-5099I0J348*
G01*
X28284Y-4870D01*
G75*
D01*
G02X28399Y-4258I-284J370*
G01*
X28399Y-3742D01*
G75*
D01*
G02X27579Y-3701I-399J242*
G01*
X27401Y-3701D01*
X27401Y-7617D01*
G75*
D01*
G02X27484Y-8099I-201J-283*
G01*
X28284Y-5901D02*
G74*
D01*
G02X28201Y-5938I180J297*
G01*
X28201Y-7617D01*
X28284Y-7700D01*
X28284Y-5901D01*
X27579Y-3299D02*
X27401Y-3299D01*
X27401Y-583D01*
X28399Y415D01*
X28399Y-2258D01*
G75*
D01*
G03X28399Y-2742I-399J-242*
G01*
X28399Y-3258D01*
G75*
D01*
G03X27579Y-3299I-399J-242*
G01*
X-7385Y-2400D02*
X-7447Y-2463D01*
X-7483Y-2499D01*
X-9653Y-2499D01*
G74*
D01*
G03X-9791Y-2401I247J201*
G01*
X-7400Y-2401D01*
G75*
D01*
G03X-7385Y-2400I0J201*
G01*
X29774Y1419D02*
X29774Y1789D01*
X29085Y1101D01*
X29999Y1101D01*
X29999Y1269D01*
X29924Y1269D01*
G75*
D01*
G02X29774Y1419I0J150*
G01*
X-11099Y8476D02*
X-11099Y11486D01*
X-11001Y11387D01*
X-11001Y8583D01*
G74*
D01*
G03X-11099Y8476I201J283*
G01*
X-26654Y12847D02*
X-26236Y12847D01*
X-26236Y12872D01*
G74*
D01*
G02X-26165Y13000I151J0*
G01*
G75*
D01*
G02X-26236Y13128I80J128*
G01*
X-26236Y13153D01*
X-27162Y13153D01*
X-27254Y13062D01*
X-27254Y12201D01*
G75*
D01*
G02X-27254Y12199I-201J-1*
G01*
X-27254Y12155D01*
G74*
D01*
G02X-27201Y12094I83J126*
G01*
X-27201Y12300D01*
G74*
D01*
G02X-27142Y12442I201J0*
G01*
X-26797Y12788D01*
G74*
D01*
G02X-26684Y12844I143J142*
G01*
G75*
D01*
G02X-26654Y12847I30J-198*
G01*
X-23148Y12118D02*
X-23148Y13157D01*
X-23032Y13157D01*
G74*
D01*
G03X-23001Y13160I0J151*
G01*
X-23001Y12131D01*
X-23085Y12131D01*
G75*
D01*
G03X-23148Y12118I0J-150*
G01*
X-14783Y16524D02*
X-14783Y16973D01*
X-14817Y17006D01*
X-14817Y16524D01*
G75*
D01*
G02X-14967Y16374I-150J0*
G01*
X-14973Y16374D01*
X-14973Y13257D01*
X-14717Y13001D01*
X-10692Y13001D01*
G75*
D01*
G02X-10752Y13196I288J195*
G01*
X-10752Y13404D01*
G74*
D01*
G02X-10692Y13599I348J0*
G01*
X-14352Y13599D01*
G75*
D01*
G02X-14494Y13658I0J201*
G01*
X-14568Y13732D01*
G75*
D01*
G02X-14627Y13874I142J142*
G01*
X-14627Y16374D01*
X-14633Y16374D01*
G75*
D01*
G02X-14783Y16524I0J150*
G01*
X-9908Y13001D02*
G75*
D01*
G03X-9848Y13196I-288J195*
G01*
X-9848Y13404D01*
G74*
D01*
G03X-9908Y13599I348J0*
G01*
X-9658Y13599D01*
G75*
D01*
G03X-9658Y13001I358J-299*
G01*
X-9908Y13001D01*
X-8942Y13001D02*
G75*
D01*
G03X-8942Y13599I-358J299*
G01*
X-8658Y13599D01*
G75*
D01*
G03X-8658Y13001I358J-299*
G01*
X-8942Y13001D01*
X-23032Y13905D02*
G74*
D01*
G03X-23001Y13908I0J151*
G01*
X-23001Y13692D01*
G74*
D01*
G03X-23032Y13695I31J148*
G01*
X-23233Y13695D01*
X-23444Y13905D01*
X-23032Y13905D01*
X15872Y13701D02*
G74*
D01*
G02X15758Y13758I28J199*
G01*
X14317Y15199D01*
X13685Y15199D01*
X15183Y13701D01*
X15872Y13701D01*
X17421Y13706D02*
G74*
D01*
G02X17399Y13701I50J194*
G01*
X17417Y13701D01*
X17421Y13706D01*
X30200Y2374D02*
X30074Y2374D01*
X30126Y1626D02*
X30200Y1626D01*
X-8600Y-13700D02*
X-8096Y-13196D01*
X-12671Y-13700D02*
X-13100Y-14129D01*
X-13129Y-17900D02*
X-13100Y-17871D01*
X-13100Y-14129D01*
X-14326Y-17900D02*
X-15026Y-18600D01*
X-14326Y-17900D02*
X-13129Y-17900D01*
X-13329Y-17700D02*
X-13300Y-17671D01*
X-26135Y5100D02*
X-26106Y5129D01*
X-25355Y4755D02*
X-25729Y5129D01*
X-26106Y5129D01*
X-29345Y11200D02*
X-29345Y10450D01*
X-9563Y-12729D02*
X-9096Y-13196D01*
X-13315Y-17685D02*
X-13315Y-13944D01*
X-12100Y-12729D01*
X-6900Y5100D02*
X-6900Y2674D01*
X-6800Y2574D01*
X-9900Y5100D02*
X-9900Y2674D01*
X-10000Y2574D01*
X-10000Y1826D02*
X-10000Y174D01*
X-10000Y-574D02*
X-10000Y-1600D01*
X-9900Y-1700D01*
X-6800Y174D02*
X-6800Y1826D01*
X-10000Y1000D02*
X-6800Y1000D01*
X30074Y2374D02*
X27200Y-500D01*
X27200Y-3471D02*
X27229Y-3500D01*
X28000Y-3500D01*
X28571Y-4500D02*
X28000Y-4500D01*
X28600Y-4471D02*
X28571Y-4500D01*
X-10000Y1826D02*
X-10574Y1826D01*
X-27200Y-2400D02*
X-27800Y-3000D01*
X-6574Y1826D02*
X-6800Y1826D01*
X-33781Y4381D02*
X-26106Y4381D01*
X-34252Y4381D02*
X-33810Y4381D01*
X-12100Y-12729D02*
X-9563Y-12729D01*
X-34300Y5100D02*
X-26135Y5100D01*
X-34300Y5100D02*
X-34400Y5200D01*
X-33500Y5800D02*
X-34400Y5800D01*
X28585Y-4485D02*
X28585Y-4500D01*
X28485Y-4600D02*
X28585Y-4500D01*
X28485Y-4600D02*
X28485Y-7856D01*
X28000Y-5500D02*
X28000Y-7700D01*
X28600Y-4471D02*
X28600Y571D01*
X30229Y900D02*
X30200Y929D01*
X30200Y1626D02*
X30200Y929D01*
X28929Y900D02*
X30200Y900D01*
X28929Y900D02*
X28600Y571D01*
X34800Y929D02*
X34771Y900D01*
X30229Y900D02*
X34771Y900D01*
X34800Y929D02*
X34800Y9800D01*
X34771Y12350D02*
X34800Y12321D01*
X34800Y9800D02*
X34800Y12321D01*
X29050Y12350D02*
X34771Y12350D01*
X29500Y-12200D02*
X26400Y-15300D01*
X26371Y-18400D02*
X26400Y-18371D01*
X26400Y-15300D02*
X26400Y-18371D01*
X33200Y-12171D02*
X33171Y-12200D01*
X29500Y-12200D01*
X-26200Y14400D02*
X-28100Y14400D01*
X-30300Y12200D01*
X-34252Y4381D02*
X-34881Y5010D01*
X-27200Y200D02*
X-27200Y-2400D01*
X-27650Y650D02*
X-27200Y200D01*
X-34881Y11971D02*
X-34652Y12200D01*
X-30300Y12200D01*
X-34881Y5010D02*
X-34881Y11971D01*
X25240Y-17140D02*
X25240Y-18360D01*
X-25475Y4375D02*
X-25004Y4375D01*
X-25850Y4750D02*
X-25475Y4375D01*
X-34250Y4750D02*
X-25850Y4750D01*
X-34650Y5150D02*
X-34250Y4750D01*
X-34650Y11850D02*
X-34650Y5150D01*
X-34550Y11950D02*
X-34650Y11850D01*
X-34550Y11950D02*
X-29345Y11950D01*
X-25355Y4755D02*
X-24801Y4755D01*
X-27455Y11950D02*
X-27455Y13145D01*
X-2700Y-6200D02*
X-4796Y-6200D01*
X-4796Y-13193D01*
X-34029Y9000D02*
X-34000Y9029D01*
X-34000Y10446D02*
X-34000Y9029D01*
X-29310Y11190D02*
X-29300Y11200D01*
X-33400Y4381D02*
X-33400Y3574D01*
X-33400Y2826D02*
X-29526Y2826D01*
X-34200Y650D02*
X-27650Y650D01*
X-34071Y650D02*
X-34250Y650D01*
X-34285Y4415D02*
X-34285Y685D01*
X-34250Y650D01*
X-9500Y-9600D02*
X-5904Y-13196D01*
X-21900Y-600D02*
X-21200Y-600D01*
X-12200Y-9600D02*
X-9472Y-9600D01*
X-21200Y2400D02*
X-19600Y800D01*
X-21200Y5800D02*
X-25850Y10450D01*
X-21200Y5800D02*
X-21200Y5400D01*
X-21200Y1400D02*
X-20000Y200D01*
X-25850Y10450D02*
X-27455Y10450D01*
X-19600Y800D02*
X-19600Y-11000D01*
X-16671Y-13929D01*
X-19000Y-13500D02*
X-19000Y-17271D01*
X-16571Y-19700D01*
X-20000Y-12500D02*
X-19000Y-13500D01*
X-20000Y200D02*
X-20000Y-12500D01*
X-25004Y5135D02*
X-22935Y5135D01*
X-21200Y3400D01*
X27200Y-500D02*
X27200Y-3600D01*
X27200Y-7871D02*
X27200Y-3600D01*
X-10574Y3571D02*
X-10603Y3600D01*
X-10574Y1826D02*
X-10574Y3571D01*
X-10800Y8300D02*
X-10800Y11471D01*
X-11300Y8300D02*
X-12200Y7400D01*
X-12400Y9600D02*
X-20900Y9600D01*
X-29345Y11190D02*
X-29310Y11190D01*
X-16671Y-13929D02*
X-13315Y-13929D01*
X-13300Y-13929D01*
X-16700Y-4100D02*
X-11000Y-4100D01*
X-6900Y-674D02*
X-6800Y-574D01*
X-7400Y-2200D02*
X-6900Y-1700D01*
X-6900Y-674D01*
X-11300Y11621D02*
X-11300Y8300D01*
X-15174Y16800D02*
X-15174Y13174D01*
X33171Y-9000D02*
X33200Y-9029D01*
X28000Y-7700D02*
X29300Y-9000D01*
X33200Y-9029D02*
X33200Y-12171D01*
X29300Y-9000D02*
X33171Y-9000D01*
X28485Y-7856D02*
X29415Y-8785D01*
X33435Y-8815D02*
X33406Y-8785D01*
X33435Y-12471D02*
X33406Y-12500D01*
X29415Y-8785D02*
X33406Y-8785D01*
X33435Y-8815D02*
X33435Y-12471D01*
X-14426Y13874D02*
X-14352Y13800D01*
X-6800Y13800D01*
X-15174Y13174D02*
X-14800Y12800D01*
X-14900Y12600D02*
X-15600Y13300D01*
X-15000Y12400D02*
X-11729Y12400D01*
X-10800Y11471D02*
X-11729Y12400D01*
X-11879Y12200D02*
X-11300Y11621D01*
X-15100Y12200D02*
X-11879Y12200D01*
X-21200Y-1600D02*
X-22600Y-1600D01*
X-29526Y2826D02*
X-26100Y-600D01*
X-21900Y-600D01*
X-26000Y-5000D02*
X-27800Y-5000D01*
X-22600Y-1600D02*
X-26000Y-5000D01*
X-23800Y-600D02*
X-27200Y-4000D01*
X-27800Y-4000D01*
X-15774Y-18474D02*
X-15000Y-17700D01*
X-13329Y-17700D01*
X-15774Y-18600D02*
X-15774Y-18474D01*
X24400Y12671D02*
X24400Y-1006D01*
X22092Y-3314D01*
X30100Y-12500D02*
X27100Y-15500D01*
X27100Y-18771D01*
X33406Y-12500D02*
X30100Y-12500D01*
X-6800Y13800D02*
X-4129Y13800D01*
X-4100Y13829D01*
X-4100Y15071D02*
X-1171Y18000D01*
X-4100Y13829D02*
X-4100Y15071D01*
X-8329Y12800D02*
X-8300Y12829D01*
X-8300Y13300D01*
X-14800Y12800D02*
X-8329Y12800D01*
X15200Y20100D02*
X13100Y18000D01*
X20700Y20100D02*
X15200Y20100D01*
X-1171Y18000D02*
X13100Y18000D01*
X29050Y12350D02*
X28450Y12350D01*
X20700Y20100D01*
X26371Y-19500D02*
X-2371Y-19500D01*
X26371Y-19500D02*
X27100Y-18771D01*
X26371Y-18400D02*
X25240Y-18400D01*
X24540Y-19100D02*
X-2071Y-19100D01*
X24540Y-19100D02*
X25240Y-18400D01*
X-2371Y-19500D02*
X-3500Y-18371D01*
X-2071Y-19100D02*
X-2300Y-18871D01*
X-2300Y-14200D02*
X-3304Y-13196D01*
X-7096Y-13196D01*
X-2300Y-18871D02*
X-2300Y-14200D01*
X-3829Y-13700D02*
X-3500Y-14029D01*
X-12671Y-13700D02*
X-3829Y-13700D01*
X-3500Y-18371D02*
X-3500Y-14029D01*
X-21200Y4400D02*
X-21200Y4800D01*
X-33450Y9000D02*
X-34650Y9000D01*
X-34400Y8471D02*
X-34096Y8775D01*
X-34400Y5200D02*
X-34400Y8471D01*
X-33500Y9000D02*
X-32650Y8150D01*
X-31945Y8150D01*
X-32721Y7400D02*
X-34096Y8775D01*
X-31945Y7400D02*
X-31945Y6650D01*
X-30055Y8150D02*
X-29950Y8150D01*
X-29346Y8754D01*
X-27146Y8754D01*
X-26400Y9500D01*
X-32721Y7400D02*
X-28846Y7400D01*
X-28200Y8046D01*
X-30055Y6650D02*
X-23050Y6650D01*
X-21200Y4800D01*
X-29345Y11200D02*
X-27000Y11200D01*
X-28150Y13850D02*
X-26452Y13850D01*
X-24951Y10551D02*
X-21200Y6800D01*
X-21200Y6400D01*
X-25600Y1600D02*
X-24400Y1600D01*
X-24400Y1446D01*
X-25004Y4755D02*
X-25004Y4800D01*
X-24700Y4800D01*
X-24600Y4700D01*
X-24600Y2154D01*
X-24400Y2154D01*
X-26100Y4375D02*
X-26100Y2100D01*
X-26106Y4381D02*
X-26100Y4375D01*
X-26100Y2100D02*
X-25600Y1600D01*
X-27000Y12300D02*
X-27000Y11200D01*
X-18450Y15850D02*
X-15000Y12400D01*
X-22550Y15850D02*
X-18450Y15850D01*
X-9900Y6671D02*
X-9171Y7400D01*
X-9271Y7600D02*
X-11500Y5371D01*
X-3800Y7600D02*
X-9271Y7600D01*
X-11500Y5371D02*
X-11500Y100D01*
X-12200Y-600D01*
X-9900Y6671D02*
X-9900Y6100D01*
X-17800Y-11600D02*
X-8200Y-11600D01*
X-27455Y12200D02*
X-28000Y12200D01*
X14571Y15600D02*
X15571Y14600D01*
X15540Y18540D02*
X16660Y18540D01*
X15571Y14600D02*
X16600Y14600D01*
X16660Y14540D01*
X-8200Y2200D02*
X-8200Y6000D01*
X-7000Y7200D01*
X17600Y14600D02*
X16660Y15540D01*
X17600Y14129D02*
X17600Y14600D01*
X14400Y15400D02*
X15900Y13900D01*
X17371Y13900D01*
X17600Y14129D01*
X-9900Y-2700D02*
X-7400Y-2700D01*
X-6900Y-2200D01*
X-5000Y-2200D01*
X-5000Y6700D01*
X-4700Y7000D01*
X22871Y14200D02*
X24400Y12671D01*
X17500Y13500D02*
X18200Y14200D01*
X15100Y13500D02*
X17500Y13500D01*
X18200Y14200D02*
X22871Y14200D01*
X-900Y7000D02*
X-700Y7200D01*
X-700Y14400D01*
X-4700Y7000D02*
X-900Y7000D01*
X-1000Y7200D02*
X-900Y7300D01*
X-7000Y7200D02*
X-1000Y7200D01*
X-1100Y7529D02*
X-1229Y7400D01*
X-9171Y7400D01*
X-1300Y7829D02*
X-1529Y7600D01*
X-3800Y7600D01*
X-900Y14500D02*
X0Y15400D01*
X14400Y15400D01*
X-900Y7300D02*
X-900Y14500D01*
X-1100Y14600D02*
X-100Y15600D01*
X-1100Y7529D02*
X-1100Y14600D01*
X-100Y15600D02*
X14571Y15600D01*
X-1300Y14700D02*
X-1300Y7829D01*
X-15629Y16810D02*
X-15600Y16781D01*
X-15600Y13300D02*
X-15600Y16781D01*
X-15629Y16810D02*
X-23492Y16810D01*
X-23250Y17350D02*
X-26200Y14400D01*
X-14426Y16800D02*
X-14426Y13874D01*
X-14397Y16871D02*
X-14397Y16829D01*
X-23250Y17350D02*
X-14876Y17350D01*
X-14397Y16871D01*
X-3200Y12571D02*
X-3229Y12600D01*
X-14900Y12600D02*
X-3229Y12600D01*
X-3200Y8600D02*
X-3100Y8500D01*
X-2700Y8500D01*
X-3200Y12571D02*
X-3200Y8600D01*
X25600Y-6000D02*
X25800Y-6200D01*
X26100Y-6200D01*
X25600Y8400D02*
X25700Y8500D01*
X26100Y8500D01*
X25600Y8400D02*
X25600Y-6000D01*
X-20200Y-15100D02*
X-20100Y-15000D01*
X-20100Y-14700D01*
X-27371Y-15100D02*
X-20200Y-15100D01*
X-17400Y14500D02*
X-15100Y12200D01*
X-20000Y14500D02*
X-20100Y14400D01*
X-20000Y14500D02*
X-17400Y14500D01*
X-20100Y14400D02*
X-20100Y14100D01*
X-33400Y11154D02*
X-34000Y11154D01*
X-33113Y10867D02*
X-29667Y10867D01*
X-33113Y10867D02*
X-33400Y11154D01*
X-29667Y10867D02*
X-29345Y11190D01*
X-9300Y13800D02*
X-9300Y13300D01*
X-27371Y-15100D02*
X-27800Y-14671D01*
X-27800Y-8800D02*
X-27800Y-10890D01*
X-27800Y-8800D02*
X-27400Y-8400D01*
X-27800Y-10919D02*
X-27829Y-10890D01*
X-27800Y-10919D02*
X-27800Y-14671D01*
X-32110Y-10890D02*
X-27829Y-10890D01*
X100Y15200D02*
X13400Y15200D01*
X-700Y14400D02*
X100Y15200D01*
X13400Y15200D02*
X15100Y13500D01*
X-200Y15800D02*
X12800Y15800D01*
X-1300Y14700D02*
X-200Y15800D01*
X12800Y15800D02*
X15540Y18540D01*
X22092Y-6314D02*
X23914Y-6314D01*
X25900Y-8300D02*
X28600Y-8300D01*
X23914Y-6314D02*
X25900Y-8300D01*
X-10450Y-5071D02*
X-10479Y-5100D01*
X-16700Y-5100D01*
X-10450Y-2429D02*
X-10221Y-2200D01*
X-7400Y-2200D02*
X-10221Y-2200D01*
X-10450Y-2429D02*
X-10450Y-5071D01*
X-18000Y-5200D02*
X-18000Y9571D01*
X-12400Y-10800D02*
X-18000Y-5200D01*
X-26452Y13850D02*
X-23492Y16810D01*
X-28150Y13850D02*
X-30050Y11950D01*
X-25800Y13354D02*
X-27246Y13354D01*
X-27455Y13145D01*
X-26654Y12646D02*
X-27000Y12300D01*
X-24351Y13420D02*
X-24380Y13420D01*
X-24951Y12849D01*
X-24951Y10551D01*
X-23100Y11046D02*
X-22800Y11046D01*
X-23349Y13326D02*
X-23349Y11294D01*
X-23349Y13326D02*
X-23249Y13426D01*
X-23349Y11294D02*
X-23100Y11046D01*
X-23249Y14174D02*
X-22874Y14174D01*
X-22800Y14100D01*
X-22800Y11754D01*
X-22550Y15850D02*
X-23249Y15151D01*
X-23249Y14174D01*
X-23623Y13800D02*
X-23249Y13426D01*
X-24351Y14180D02*
X-25020Y14180D01*
X-25349Y13851D01*
X-26451Y13851D01*
X-24600Y13800D02*
X-23623Y13800D01*
X-24600Y13800D02*
X-25754Y12646D01*
X-26654Y12646D02*
X-25754Y12646D01*
G54D12*
X-35743Y-20768D02*
X-35743Y-16614D01*
X-35743Y-20768D02*
X-28594Y-20768D01*
X35743Y-20768D02*
X28594Y-20768D01*
X35743Y-20768D02*
X35743Y-16614D01*
X35743Y20768D02*
X35743Y16614D01*
X35743Y20768D02*
X28594Y20768D01*
X-35743Y20768D02*
X-28594Y20768D01*
X-35743Y20768D02*
X-35743Y16614D01*
X-37711Y-20768D02*
X-41648Y-20768D01*
X-39680Y-22736D02*
X-39680Y-18799D01*
X-41156Y-20768D02*
G75*
D01*
G02X-41156Y-20768I1476J0*
G01*
X37711Y-20768D02*
X41648Y-20768D01*
X39680Y-22736D02*
X39680Y-18799D01*
X38203Y-20768D02*
G75*
D01*
G02X38203Y-20768I1477J0*
G01*
X39188Y-20768D02*
G75*
D01*
G02X39188Y-20768I492J0*
G01*
X-37711Y20768D02*
X-41648Y20768D01*
X-39680Y18799D02*
X-39680Y22736D01*
X-41156Y20768D02*
G75*
D01*
G02X-41156Y20768I1476J0*
G01*
X-40664Y20768D02*
G75*
D01*
G02X-40664Y20768I984J0*
G01*
X-40172Y20768D02*
G75*
D01*
G02X-40172Y20768I492J0*
G01*
G54D13*
X-33500Y5800D03*
X-26400Y9500D03*
X-27400Y-8400D03*
X-16600Y-19700D03*
X27200Y-7900D03*
X-10600Y3600D03*
X-10800Y8300D03*
X-11000Y-4100D03*
X-16700Y-4100D03*
X-16700Y-5100D03*
X-17800Y-11600D03*
X-28000Y12200D03*
X-8200Y2200D03*
X-8200Y-11600D03*
G54D14*
X-25240Y17140D03*
X25240Y17140D03*
X32110Y10890D03*
X32110Y-10890D03*
X-32110Y10890D03*
X-25240Y-17140D03*
X25240Y-17140D03*
X-32110Y-10890D03*
G54D15*
X-9900Y-1700D03*
X-9900Y-2700D03*
X-6900Y-1700D03*
X-6900Y-2700D03*
X-6900Y5100D03*
X-6900Y6100D03*
X-9900Y5100D03*
X-9900Y6100D03*
G54D16*
X-8300Y13300D03*
X-9300Y13300D03*
X-7300Y13300D03*
X-27800Y-4000D03*
X-27800Y-3000D03*
X-27800Y-5000D03*
X28000Y-3500D03*
X28000Y-4500D03*
X28000Y-2500D03*
X-9096Y-13196D03*
X-8096Y-13196D03*
X-10096Y-13196D03*
G54D17*
X-10300Y13300D03*
X-27800Y-2000D03*
X28000Y-5500D03*
X-7096Y-13196D03*
G54D18*
X-10404Y13196D02*
X-10196Y13196D01*
X-10196Y13404D01*
X-10404Y13404D01*
X-10404Y13196D01*D02*
X-27904Y-2104D02*
X-27696Y-2104D01*
X-27696Y-1896D01*
X-27904Y-1896D01*
X-27904Y-2104D01*D02*
X27896Y-5604D02*
X28104Y-5604D01*
X28104Y-5396D01*
X27896Y-5396D01*
X27896Y-5604D01*D02*
X-7200Y-13300D02*
X-6992Y-13300D01*
X-6992Y-13092D01*
X-7200Y-13092D01*
X-7200Y-13300D01*D02*
G54D19*
X-15774Y-18600D03*
X-15026Y-18600D03*
X-15174Y16800D03*
X-14426Y16800D03*
G54D20*
X22100Y-7955D03*
X22100Y-8955D03*
X22100Y-9955D03*
X22100Y-10955D03*
X22100Y-11955D03*
X22100Y-12955D03*
X22100Y-13955D03*
X22100Y-14955D03*
X22092Y-6314D03*
X22092Y-5314D03*
X22092Y-4314D03*
X22092Y-3314D03*
X22092Y-2314D03*
X22092Y-1314D03*
X-12200Y-9600D03*
X-12200Y-8600D03*
X-12200Y-7600D03*
X-12200Y-6600D03*
X-12200Y-5600D03*
X-12200Y-4600D03*
X-12200Y-3600D03*
X-12200Y-2600D03*
X-12200Y-1600D03*
X-12200Y-600D03*
X-12200Y400D03*
X-12200Y1400D03*
X-12200Y2400D03*
X-12200Y3400D03*
X-12200Y4400D03*
X-12200Y5400D03*
X-12200Y6400D03*
X-12200Y7400D03*
X-12200Y8400D03*
X-21200Y-9600D03*
X-21200Y-8600D03*
X-21200Y-7600D03*
X-21200Y-6600D03*
X-21200Y-5600D03*
X-21200Y-4600D03*
X-21200Y-3600D03*
X-21200Y-2600D03*
X-21200Y-1600D03*
X-21200Y-600D03*
X-21200Y400D03*
X-21200Y1400D03*
X-21200Y2400D03*
X-21200Y3400D03*
X-21200Y4400D03*
X-21200Y5400D03*
X-21200Y6400D03*
X-21200Y7400D03*
X-21200Y8400D03*
X16660Y14540D03*
X16660Y15540D03*
X16660Y16540D03*
X16660Y17540D03*
X16660Y18540D03*
X16660Y19540D03*
G54D21*
X22092Y-16195D03*
G54D22*
X-20100Y-14700D03*
X-20100Y14100D03*
X-2700Y-6200D03*
X26100Y-6200D03*
X26100Y8500D03*
X-2700Y8500D03*
G54D23*
X-12400Y-10800D03*
X-20900Y-10800D03*
X-20900Y9600D03*
X-12400Y9600D03*
G54D24*
X-22800Y11754D03*
X-22800Y11046D03*
X-25800Y13354D03*
X-25800Y12646D03*
X-24400Y1446D03*
X-24400Y2154D03*
X-28200Y8754D03*
X-28200Y8046D03*
X-34000Y10446D03*
X-34000Y11154D03*
G54D25*
X-23249Y13426D03*
X-23249Y14174D03*
X-24351Y13800D03*
X-24351Y14180D03*
X-24351Y13420D03*
X-26106Y5129D03*
X-26106Y4381D03*
X-25004Y4755D03*
X-25004Y4375D03*
X-25004Y5135D03*
G54D26*
X-29345Y11200D03*
X-27455Y11200D03*
X-31945Y7400D03*
X-30055Y7400D03*
G54D27*
X-29345Y10450D03*
X-29345Y11950D03*
X-27455Y11950D03*
X-27455Y10450D03*
X-31945Y6650D03*
X-30055Y6650D03*
X-31945Y8150D03*
X-30055Y8150D03*
G54D28*
X18173Y13148D03*
X3027Y13148D03*
G54D29*
X-10000Y-574D03*
X-10000Y174D03*
X-6800Y-574D03*
X-6800Y174D03*
X-6800Y1826D03*
X-6800Y2574D03*
X-10000Y1826D03*
X-10000Y2574D03*
X30200Y1626D03*
X30200Y2374D03*
X-33400Y2826D03*
X-33400Y3574D03*

M02*
