G04 Generated by Ultiboard 14.2 *
%FSLAX24Y24*%
%MOIN*%

%ADD10C,0.0001*%
%ADD11C,0.0100*%
%ADD12C,0.0050*%
%ADD13C,0.0394*%
%ADD14C,0.1750*%
%ADD15R,0.0591X0.0157*%
%ADD16C,0.0380*%
%ADD17C,0.0534*%
%ADD18C,0.1518*%
%ADD19R,0.1430X0.1430*%
%ADD20C,0.1124*%
%ADD21R,0.0433X0.0236*%
%ADD22R,0.0236X0.0657*%
%ADD23R,0.0236X0.0157*%
%ADD24R,0.0551X0.0413*%
%ADD25R,0.0413X0.0551*%
%ADD26C,0.0633*%
%ADD27R,0.0208X0.0208*%
%ADD28C,0.0392*%
%ADD29R,0.0571X0.0453*%


G04 ColorRGB 00FF00 for the following layer *
%LNCopper Top*%
%LPD*%
G54D10*
G54D11*
X30200Y2374D02*
X30074Y2374D01*
X30126Y1626D02*
X30200Y1626D01*
X-8600Y-13700D02*
X-8096Y-13196D01*
X-12671Y-13700D02*
X-13100Y-14129D01*
X-13129Y-17900D02*
X-13100Y-17871D01*
X-13100Y-14129D01*
X-14326Y-17900D02*
X-15026Y-18600D01*
X-14326Y-17900D02*
X-13129Y-17900D01*
X-13329Y-17700D02*
X-13300Y-17671D01*
X-26135Y5100D02*
X-26106Y5129D01*
X-25355Y4755D02*
X-25729Y5129D01*
X-26106Y5129D01*
X-29345Y11200D02*
X-29345Y10450D01*
X-9563Y-12729D02*
X-9096Y-13196D01*
X-13315Y-17685D02*
X-13315Y-13944D01*
X-12100Y-12729D01*
X-6900Y2674D02*
X-6800Y2574D01*
X-9900Y2674D02*
X-10000Y2574D01*
X-10000Y1826D02*
X-10000Y174D01*
X-10000Y-574D02*
X-10000Y-1600D01*
X-9900Y-1700D01*
X-6800Y174D02*
X-6800Y1826D01*
X-10000Y1000D02*
X-6800Y1000D01*
X30074Y2374D02*
X27200Y-500D01*
X27200Y-3471D02*
X27229Y-3500D01*
X28000Y-3500D01*
X28571Y-4500D02*
X28000Y-4500D01*
X28600Y-4471D02*
X28571Y-4500D01*
X-10000Y1826D02*
X-10574Y1826D01*
X-27200Y-2400D02*
X-27800Y-3000D01*
X-6574Y1826D02*
X-6800Y1826D01*
X-33781Y4381D02*
X-26106Y4381D01*
X-34252Y4381D02*
X-33810Y4381D01*
X-12100Y-12729D02*
X-9563Y-12729D01*
X-34300Y5100D02*
X-26135Y5100D01*
X-34300Y5100D02*
X-34400Y5200D01*
X-33500Y5800D02*
X-34400Y5800D01*
X28585Y-4485D02*
X28585Y-4500D01*
X28485Y-4600D02*
X28585Y-4500D01*
X28485Y-4600D02*
X28485Y-7856D01*
X28000Y-5500D02*
X28000Y-7700D01*
X28600Y-4471D02*
X28600Y571D01*
X30229Y900D02*
X30200Y929D01*
X30200Y1626D02*
X30200Y929D01*
X28929Y900D02*
X30200Y900D01*
X28929Y900D02*
X28600Y571D01*
X34800Y929D02*
X34771Y900D01*
X30229Y900D02*
X34771Y900D01*
X34800Y929D02*
X34800Y9800D01*
X34771Y12350D02*
X34800Y12321D01*
X34800Y9800D02*
X34800Y12321D01*
X29050Y12350D02*
X34771Y12350D01*
X29500Y-12200D02*
X26400Y-15300D01*
X26371Y-18400D02*
X26400Y-18371D01*
X26400Y-15300D02*
X26400Y-18371D01*
X33200Y-12171D02*
X33171Y-12200D01*
X29500Y-12200D01*
X-26200Y14400D02*
X-28100Y14400D01*
X-30300Y12200D01*
X-34252Y4381D02*
X-34881Y5010D01*
X-34881Y11971D02*
X-34652Y12200D01*
X-30300Y12200D01*
X-34881Y5010D02*
X-34881Y11971D01*
X25240Y-17140D02*
X25240Y-18360D01*
X-25475Y4375D02*
X-25004Y4375D01*
X-25850Y4750D02*
X-25475Y4375D01*
X-34250Y4750D02*
X-25850Y4750D01*
X-34650Y5150D02*
X-34250Y4750D01*
X-34650Y11850D02*
X-34650Y5150D01*
X-34550Y11950D02*
X-34650Y11850D01*
X-34550Y11950D02*
X-29345Y11950D01*
X-25355Y4755D02*
X-24801Y4755D01*
X-27455Y11950D02*
X-27455Y13145D01*
X-34029Y9000D02*
X-34000Y9029D01*
X-34000Y10446D02*
X-34000Y9029D01*
X-29310Y11190D02*
X-29300Y11200D01*
X-33400Y4381D02*
X-33400Y3574D01*
X-33400Y2826D02*
X-29526Y2826D01*
X-34285Y4415D02*
X-34285Y685D01*
X-9500Y-9600D02*
X-5904Y-13196D01*
X-21900Y-600D02*
X-21200Y-600D01*
X-21200Y2400D02*
X-19600Y800D01*
X-21200Y1400D02*
X-20000Y200D01*
X-19600Y800D02*
X-19600Y-11000D01*
X-16671Y-13929D01*
X-19000Y-13500D02*
X-19000Y-17271D01*
X-16571Y-19700D01*
X-20000Y-12500D02*
X-19000Y-13500D01*
X-20000Y200D02*
X-20000Y-12500D01*
X-25004Y5135D02*
X-22935Y5135D01*
X-21200Y3400D01*
X27200Y-500D02*
X27200Y-3600D01*
X27200Y-7871D02*
X27200Y-3600D01*
X-10574Y3571D02*
X-10603Y3600D01*
X-10574Y1826D02*
X-10574Y3571D01*
X-10800Y8300D02*
X-10800Y11471D01*
X-12400Y9600D02*
X-20900Y9600D01*
X-16671Y-13929D02*
X-13315Y-13929D01*
X-13300Y-13929D01*
X-6900Y-674D02*
X-6800Y-574D01*
X-6900Y-1700D02*
X-6900Y-674D01*
X33171Y-9000D02*
X33200Y-9029D01*
X28000Y-7700D02*
X29300Y-9000D01*
X33200Y-9029D02*
X33200Y-12171D01*
X29300Y-9000D02*
X33171Y-9000D01*
X28485Y-7856D02*
X29415Y-8785D01*
X33435Y-8815D02*
X33406Y-8785D01*
X33435Y-12471D02*
X33406Y-12500D01*
X29415Y-8785D02*
X33406Y-8785D01*
X33435Y-8815D02*
X33435Y-12471D01*
X-14352Y13800D02*
X-6800Y13800D01*
X-21200Y-1600D02*
X-22600Y-1600D01*
X-29526Y2826D02*
X-26100Y-600D01*
X-21900Y-600D01*
X-26000Y-5000D02*
X-27800Y-5000D01*
X-22600Y-1600D02*
X-26000Y-5000D01*
X-23800Y-600D02*
X-27200Y-4000D01*
X-27800Y-4000D01*
X-15774Y-18474D02*
X-15000Y-17700D01*
X-13329Y-17700D01*
X-15774Y-18600D02*
X-15774Y-18474D01*
X30100Y-12500D02*
X27100Y-15500D01*
X27100Y-18771D01*
X33406Y-12500D02*
X30100Y-12500D01*
X29050Y12350D02*
X28450Y12350D01*
X20700Y20100D01*
X26371Y-19500D02*
X-2371Y-19500D01*
X26371Y-19500D02*
X27100Y-18771D01*
X26371Y-18400D02*
X25240Y-18400D01*
X-2371Y-19500D02*
X-3500Y-18371D01*
X-3829Y-13700D02*
X-3500Y-14029D01*
X-12671Y-13700D02*
X-3829Y-13700D01*
X-3500Y-18371D02*
X-3500Y-14029D01*
X-33450Y9000D02*
X-34650Y9000D01*
X-34400Y8471D02*
X-34096Y8775D01*
X-34400Y5200D02*
X-34400Y8471D01*
X-33500Y9000D02*
X-32650Y8150D01*
X-31945Y8150D01*
X-32721Y7400D02*
X-34096Y8775D01*
X-31945Y7400D02*
X-31945Y6650D01*
X-30055Y8150D02*
X-29950Y8150D01*
X-29346Y8754D01*
X-32721Y7400D02*
X-28846Y7400D01*
X-28200Y8046D01*
X-25600Y1600D02*
X-24400Y1600D01*
X-24400Y1446D01*
X-25004Y4755D02*
X-25004Y4800D01*
X-24700Y4800D01*
X-24600Y4700D01*
X-24600Y2154D01*
X-24400Y2154D01*
X-26100Y4375D02*
X-26100Y2100D01*
X-26106Y4381D02*
X-26100Y4375D01*
X-26100Y2100D02*
X-25600Y1600D01*
X-11500Y100D02*
X-12200Y-600D01*
X-27455Y12200D02*
X-28000Y12200D01*
X14571Y15600D02*
X15571Y14600D01*
X15540Y18540D02*
X16660Y18540D01*
X15571Y14600D02*
X16600Y14600D01*
X16660Y14540D01*
X17600Y14600D02*
X16660Y15540D01*
X17600Y14129D02*
X17600Y14600D01*
X14400Y15400D02*
X15900Y13900D01*
X17371Y13900D01*
X17600Y14129D01*
X-23250Y17350D02*
X-26200Y14400D01*
X-14397Y16871D02*
X-14397Y16829D01*
X-23250Y17350D02*
X-14876Y17350D01*
X-14397Y16871D01*
X-9300Y13800D02*
X-9300Y13300D01*
X-27800Y-8800D02*
X-27800Y-10890D01*
X-27800Y-8800D02*
X-27400Y-8400D01*
X-27800Y-10919D02*
X-27829Y-10890D01*
X-32110Y-10890D02*
X-27829Y-10890D01*
X12800Y15800D02*
X15540Y18540D01*
X-10450Y-5071D02*
X-10479Y-5100D01*
X-16700Y-5100D01*
X-10450Y-2429D02*
X-10221Y-2200D01*
X-10450Y-2429D02*
X-10450Y-5071D01*
X-28150Y13850D02*
X-30050Y11950D01*
X-25800Y13354D02*
X-27246Y13354D01*
X-27455Y13145D01*
X-24351Y13420D02*
X-24380Y13420D01*
X-24951Y12849D01*
X-23349Y13326D02*
X-23249Y13426D01*
X-23249Y14174D02*
X-22874Y14174D01*
X-22800Y14100D01*
X-22800Y11754D01*
X-23623Y13800D02*
X-23249Y13426D01*
X-24351Y14180D02*
X-25020Y14180D01*
X-25349Y13851D01*
X-26451Y13851D01*
X-28150Y13850D02*
X-26452Y13850D01*
X26100Y8500D02*
X26100Y-6200D01*
X-24951Y10151D02*
X-21200Y6400D01*
X-24951Y12849D02*
X-24951Y10151D01*
X-21200Y5400D02*
X-26250Y10450D01*
X-27455Y10450D01*
X-23350Y6650D02*
X-21200Y4500D01*
X-21200Y4400D02*
X-21200Y4500D01*
X-30055Y6650D02*
X-23350Y6650D01*
X-2300Y-14500D02*
X-3604Y-13196D01*
X-7096Y-13196D01*
X-2300Y-16571D02*
X-2300Y-14500D01*
X-17800Y-11600D02*
X-10700Y-11600D01*
X-27800Y-10919D02*
X-27800Y-14671D01*
X-27771Y-14700D02*
X-20100Y-14700D01*
X-27771Y-14700D02*
X-27800Y-14671D01*
X-29346Y8754D02*
X-26454Y8754D01*
X-26400Y8700D01*
X-25800Y12646D02*
X-25800Y12600D01*
X-27200Y11200D01*
X-30967Y10867D02*
X-30645Y11190D01*
X-29310Y11190D01*
X-22800Y11046D02*
X-22800Y11100D01*
X-24600Y13800D02*
X-23623Y13800D01*
X-24600Y13800D02*
X-25754Y12646D01*
X-29490Y11200D02*
X-27200Y11200D01*
X-23349Y11149D02*
X-23349Y13326D01*
X-23349Y11149D02*
X-23200Y11000D01*
X-22846Y11000D01*
X-22800Y11046D01*
X24740Y-18900D02*
X29Y-18900D01*
X-2300Y-16571D01*
X24740Y-18900D02*
X25240Y-18400D01*
X-14426Y13874D02*
X-14352Y13800D01*
X-14426Y16800D02*
X-14426Y13874D01*
X-15174Y16800D02*
X-15174Y13174D01*
X-8600Y10100D02*
X-8600Y9300D01*
X-11300Y7500D02*
X-10900Y7100D01*
X-10200Y7100D02*
X-8000Y9300D01*
X-10900Y7100D02*
X-10200Y7100D01*
X-12200Y7400D02*
X-17700Y1900D01*
X-15600Y13300D02*
X-15600Y16281D01*
X22600Y13900D02*
X23400Y13100D01*
X23400Y-1006D01*
X22092Y-2314D01*
X-18200Y12200D02*
X-15100Y12200D01*
X-18200Y12200D02*
X-20100Y14100D01*
X17700Y13900D02*
X22600Y13900D01*
X-971Y19345D02*
X-1026Y19400D01*
X17500Y13700D02*
X17700Y13900D01*
X-4300Y9300D02*
X100Y13700D01*
X17500Y13700D01*
X-10600Y-10200D02*
X-10600Y-11500D01*
X-10700Y-11600D01*
X-18000Y-10700D02*
X-18000Y9571D01*
X-18000Y-10700D02*
X-17900Y-10800D01*
X-12400Y-10800D01*
X-12200Y-9600D02*
X-9500Y-9600D01*
X-12200Y-9600D02*
X-12200Y-10600D01*
X-12400Y-10800D01*
X-17700Y-8800D02*
X-17350Y-9150D01*
X-7954Y-9150D01*
X-17700Y1900D02*
X-17700Y-8800D01*
X-4000Y7200D02*
X-2700Y8500D01*
X-32400Y11154D02*
X-34000Y11154D01*
X-32113Y10867D02*
X-30967Y10867D01*
X-32123Y10877D02*
X-32400Y11154D01*
X-32113Y10867D02*
X-32123Y10877D01*
X-11329Y11600D02*
X-11300Y11571D01*
X-14500Y11600D02*
X-15100Y12200D01*
X-11300Y7500D02*
X-11300Y11571D01*
X-14500Y11600D02*
X-11329Y11600D01*
X-14400Y11800D02*
X-11129Y11800D01*
X-10800Y11471D02*
X-11129Y11800D01*
X-14300Y12000D02*
X-10500Y12000D01*
X-14300Y12000D02*
X-15600Y13300D01*
X-10500Y12000D02*
X-8600Y10100D01*
X-15174Y13174D02*
X-14200Y12200D01*
X-8529Y12200D02*
X-8300Y12429D01*
X-14200Y12200D02*
X-8529Y12200D01*
X-8300Y12429D02*
X-8300Y13300D01*
X15100Y20100D02*
X13000Y18000D01*
X-971Y18000D02*
X13000Y18000D01*
X20700Y20100D02*
X15100Y20100D01*
X-7616Y-1700D02*
X-6900Y-1700D01*
X-10221Y-2200D02*
X-7500Y-2200D01*
X-7500Y-1816D01*
X-7616Y-1700D01*
X-4000Y-3204D02*
X-6700Y-5904D01*
X-4000Y7200D02*
X-4000Y-3204D01*
X-9900Y-2700D02*
X-9900Y-4971D01*
X-4300Y-3100D02*
X-4300Y9300D01*
X-9321Y-5550D02*
X-6750Y-5550D01*
X-4300Y-3100D01*
X-9321Y-5550D02*
X-9900Y-4971D01*
X-7616Y-2700D02*
X-6300Y-2700D01*
X-9384Y5700D02*
X-9384Y5584D01*
X-9000Y5200D01*
X-5900Y5200D01*
X-5900Y-2300D01*
X-7416Y4700D02*
X-6800Y4084D01*
X-6800Y2574D01*
X-10000Y2574D02*
X-10000Y4084D01*
X-9384Y4700D01*
X-11500Y5300D02*
X-1000Y15800D01*
X12800Y15800D01*
X-11500Y100D02*
X-11500Y5300D01*
X-11300Y-4071D02*
X-11329Y-4100D01*
X-16700Y-4100D02*
X-11329Y-4100D01*
X-11300Y-4071D02*
X-11300Y5200D01*
X-9200Y7300D01*
X-8316Y7300D02*
X-7416Y6400D01*
X-7416Y5700D01*
X-9200Y7300D02*
X-8316Y7300D01*
X-10400Y4700D02*
X-9384Y4700D01*
X-200Y14500D02*
X700Y15400D01*
X14400Y15400D01*
X400Y15600D02*
X14571Y15600D01*
X400Y15600D02*
X-4700Y10500D01*
X-4700Y-1100D01*
X-6300Y-2700D01*
X-3496Y-6229D02*
X-3467Y-6200D01*
X-2700Y-6200D02*
X-3467Y-6200D01*
X-3496Y-6229D02*
X-3496Y-13193D01*
X-5400Y-5200D02*
X-5400Y-6200D01*
X-7698Y-8898D02*
X-7700Y-8900D01*
X-3000Y19400D02*
X-1774Y19400D01*
X-4071Y13800D02*
X-971Y16900D01*
X-971Y19345D02*
X-971Y16900D01*
X-6800Y13800D02*
X-4071Y13800D01*
X-27200Y-700D02*
X-27200Y-2400D01*
X-27200Y-700D02*
X-28600Y700D01*
X-34285Y700D01*
X22092Y-6314D02*
X22714Y-6314D01*
X25400Y-9000D02*
X29300Y-9000D01*
X22714Y-6314D02*
X25400Y-9000D01*
X-4400Y-8200D02*
X-4400Y-6974D01*
X-5000Y-8800D02*
X-4400Y-8200D01*
X-4600Y-3800D02*
X-4600Y-3804D01*
X-4400Y-4004D02*
X-4400Y-6226D01*
X-4400Y-4004D02*
X-4600Y-3804D01*
X-6696Y-8896D02*
X-6600Y-8800D01*
X-5000Y-8800D01*
X-5400Y-6974D02*
X-5400Y-8100D01*
X-5800Y-8500D01*
X-7304Y-8500D01*
X-7954Y-9150D01*
X-23220Y16700D02*
X-23249Y16671D01*
X-23249Y14174D01*
X-19300Y16700D02*
X-14400Y11800D01*
X-23220Y16700D02*
X-19300Y16700D01*
X-16329Y17010D02*
X-23292Y17010D01*
X-26452Y13850D02*
X-23292Y17010D01*
X-16329Y17010D02*
X-15600Y16281D01*
G54D12*
X-35743Y-20768D02*
X-35743Y-16614D01*
X-35743Y-20768D02*
X-28594Y-20768D01*
X35743Y-20768D02*
X28594Y-20768D01*
X35743Y-20768D02*
X35743Y-16614D01*
X35743Y20768D02*
X35743Y16614D01*
X35743Y20768D02*
X28594Y20768D01*
X-35743Y20768D02*
X-28594Y20768D01*
X-35743Y20768D02*
X-35743Y16614D01*
X-37711Y-20768D02*
X-41648Y-20768D01*
X-39680Y-22736D02*
X-39680Y-18799D01*
X-41156Y-20768D02*
G75*
D01*
G02X-41156Y-20768I1476J0*
G01*
X37711Y-20768D02*
X41648Y-20768D01*
X39680Y-22736D02*
X39680Y-18799D01*
X38203Y-20768D02*
G75*
D01*
G02X38203Y-20768I1477J0*
G01*
X39188Y-20768D02*
G75*
D01*
G02X39188Y-20768I492J0*
G01*
X-37711Y20768D02*
X-41648Y20768D01*
X-39680Y18799D02*
X-39680Y22736D01*
X-41156Y20768D02*
G75*
D01*
G02X-41156Y20768I1476J0*
G01*
X-40664Y20768D02*
G75*
D01*
G02X-40664Y20768I984J0*
G01*
X-40172Y20768D02*
G75*
D01*
G02X-40172Y20768I492J0*
G01*
G54D13*
X-33500Y5800D03*
X-27400Y-8400D03*
X-16600Y-19700D03*
X27200Y-7900D03*
X-10600Y3600D03*
X-10800Y8300D03*
X-16700Y-4100D03*
X-16700Y-5100D03*
X-17800Y-11600D03*
X-26400Y8700D03*
X-28000Y12200D03*
X-8600Y9300D03*
X-8000Y9300D03*
X-10600Y-10200D03*
X-6300Y-2700D03*
X-10400Y4700D03*
X-200Y14500D03*
X-5400Y-5200D03*
X-3000Y19400D03*
G54D14*
X-25240Y17140D03*
X25240Y17140D03*
X32110Y10890D03*
X32110Y-10890D03*
X-32110Y10890D03*
X-25240Y-17140D03*
X25240Y-17140D03*
X-32110Y-10890D03*
G54D15*
X-7416Y4700D03*
X-7416Y5700D03*
X-9384Y4700D03*
X-9384Y5700D03*
X-9584Y-1700D03*
X-9584Y-2700D03*
X-7616Y-1700D03*
X-7616Y-2700D03*
G54D16*
X-7700Y-8896D03*
X-6700Y-8896D03*
X-6700Y-5904D03*
X-7700Y-5904D03*
G54D17*
X22100Y-7955D03*
X22100Y-8955D03*
X22100Y-9955D03*
X22100Y-10955D03*
X22100Y-11955D03*
X22100Y-12955D03*
X22100Y-13955D03*
X22100Y-14955D03*
X22092Y-6314D03*
X22092Y-5314D03*
X22092Y-4314D03*
X22092Y-3314D03*
X22092Y-2314D03*
X22092Y-1314D03*
X-12200Y-9600D03*
X-12200Y-8600D03*
X-12200Y-7600D03*
X-12200Y-6600D03*
X-12200Y-5600D03*
X-12200Y-4600D03*
X-12200Y-3600D03*
X-12200Y-2600D03*
X-12200Y-1600D03*
X-12200Y-600D03*
X-12200Y400D03*
X-12200Y1400D03*
X-12200Y2400D03*
X-12200Y3400D03*
X-12200Y4400D03*
X-12200Y5400D03*
X-12200Y6400D03*
X-12200Y7400D03*
X-12200Y8400D03*
X-21200Y-9600D03*
X-21200Y-8600D03*
X-21200Y-7600D03*
X-21200Y-6600D03*
X-21200Y-5600D03*
X-21200Y-4600D03*
X-21200Y-3600D03*
X-21200Y-2600D03*
X-21200Y-1600D03*
X-21200Y-600D03*
X-21200Y400D03*
X-21200Y1400D03*
X-21200Y2400D03*
X-21200Y3400D03*
X-21200Y4400D03*
X-21200Y5400D03*
X-21200Y6400D03*
X-21200Y7400D03*
X-21200Y8400D03*
X16660Y14540D03*
X16660Y15540D03*
X16660Y16540D03*
X16660Y17540D03*
X16660Y18540D03*
X16660Y19540D03*
G54D18*
X22092Y-16195D03*
G54D19*
X-20100Y-14700D03*
X-20100Y14100D03*
X-2700Y-6200D03*
X26100Y-6200D03*
X26100Y8500D03*
X-2700Y8500D03*
G54D20*
X-12400Y-10800D03*
X-20900Y-10800D03*
X-20900Y9600D03*
X-12400Y9600D03*
G54D21*
X-23249Y13426D03*
X-23249Y14174D03*
X-24351Y13800D03*
X-24351Y14180D03*
X-24351Y13420D03*
X-26106Y5129D03*
X-26106Y4381D03*
X-25004Y4755D03*
X-25004Y4375D03*
X-25004Y5135D03*
G54D22*
X-29345Y11200D03*
X-27455Y11200D03*
X-31945Y7400D03*
X-30055Y7400D03*
G54D23*
X-29345Y10450D03*
X-29345Y11950D03*
X-27455Y11950D03*
X-27455Y10450D03*
X-31945Y6650D03*
X-31945Y8150D03*
X-30055Y8150D03*
X-30055Y6650D03*
G54D24*
X-5400Y-6226D03*
X-5400Y-6974D03*
X-10000Y174D03*
X-10000Y-574D03*
X-6800Y174D03*
X-6800Y-574D03*
X-6800Y1826D03*
X-6800Y2574D03*
X-10000Y1826D03*
X-10000Y2574D03*
X30200Y2374D03*
X30200Y1626D03*
X-33400Y2826D03*
X-33400Y3574D03*
X-4400Y-6226D03*
X-4400Y-6974D03*
G54D25*
X-1774Y19400D03*
X-1026Y19400D03*
X-15774Y-18600D03*
X-15026Y-18600D03*
X-15174Y16800D03*
X-14426Y16800D03*
G54D26*
X28000Y-3500D03*
X28000Y-4500D03*
X28000Y-2500D03*
X-27800Y-4000D03*
X-27800Y-3000D03*
X-27800Y-5000D03*
X-9096Y-13196D03*
X-8096Y-13196D03*
X-10096Y-13196D03*
X-8300Y13300D03*
X-9300Y13300D03*
X-7300Y13300D03*
G54D27*
X28000Y-5500D03*
X-27800Y-2000D03*
X-7096Y-13196D03*
X-10300Y13300D03*
G54D28*
X27896Y-5604D02*
X28104Y-5604D01*
X28104Y-5396D01*
X27896Y-5396D01*
X27896Y-5604D01*D02*
X-27904Y-2104D02*
X-27696Y-2104D01*
X-27696Y-1896D01*
X-27904Y-1896D01*
X-27904Y-2104D01*D02*
X-7200Y-13300D02*
X-6992Y-13300D01*
X-6992Y-13092D01*
X-7200Y-13092D01*
X-7200Y-13300D01*D02*
X-10404Y13196D02*
X-10196Y13196D01*
X-10196Y13404D01*
X-10404Y13404D01*
X-10404Y13196D01*D02*
G54D29*
X-22800Y11754D03*
X-22800Y11046D03*
X-25800Y13354D03*
X-25800Y12646D03*
X-24400Y1446D03*
X-24400Y2154D03*
X-28200Y8754D03*
X-28200Y8046D03*
X-34000Y10446D03*
X-34000Y11154D03*

M02*
