G04 Generated by Ultiboard 14.2 *
%FSLAX24Y24*%
%MOIN*%

%ADD10C,0.0001*%
%ADD11C,0.0050*%
%ADD12C,0.0394*%
%ADD13C,0.1750*%
%ADD14R,1.8504X1.7717*%
%ADD15R,0.0591X0.0157*%
%ADD16C,0.0380*%
%ADD17C,0.0534*%
%ADD18C,0.1518*%
%ADD19R,0.1430X0.1430*%
%ADD20C,0.1124*%
%ADD21R,0.0433X0.0236*%
%ADD22R,0.0236X0.0657*%
%ADD23R,0.0236X0.0157*%
%ADD24R,0.0551X0.0413*%
%ADD25R,0.0413X0.0551*%
%ADD26C,0.0633*%
%ADD27R,0.0208X0.0208*%
%ADD28C,0.0392*%
%ADD29R,0.0571X0.0453*%


G04 ColorRGB FF00CC for the following layer *
%LNSolder Mask Top*%
%LPD*%
G54D10*
G54D11*
X-35743Y-20768D02*
X-35743Y-16614D01*
X-35743Y-20768D02*
X-28594Y-20768D01*
X35743Y-20768D02*
X28594Y-20768D01*
X35743Y-20768D02*
X35743Y-16614D01*
X35743Y20768D02*
X35743Y16614D01*
X35743Y20768D02*
X28594Y20768D01*
X-35743Y20768D02*
X-28594Y20768D01*
X-35743Y20768D02*
X-35743Y16614D01*
X-37711Y-20768D02*
X-41648Y-20768D01*
X-39680Y-22736D02*
X-39680Y-18799D01*
X-41156Y-20768D02*
G75*
D01*
G02X-41156Y-20768I1476J0*
G01*
X37711Y-20768D02*
X41648Y-20768D01*
X39680Y-22736D02*
X39680Y-18799D01*
X38203Y-20768D02*
G75*
D01*
G02X38203Y-20768I1477J0*
G01*
X39188Y-20768D02*
G75*
D01*
G02X39188Y-20768I492J0*
G01*
X-37711Y20768D02*
X-41648Y20768D01*
X-39680Y18799D02*
X-39680Y22736D01*
X-41156Y20768D02*
G75*
D01*
G02X-41156Y20768I1476J0*
G01*
X-40664Y20768D02*
G75*
D01*
G02X-40664Y20768I984J0*
G01*
X-40172Y20768D02*
G75*
D01*
G02X-40172Y20768I492J0*
G01*
G54D12*
X-33500Y5800D03*
X-27400Y-8400D03*
X-16600Y-19700D03*
X27200Y-7900D03*
X-10600Y3600D03*
X-10800Y8300D03*
X-16700Y-4100D03*
X-16700Y-5100D03*
X-17800Y-11600D03*
X-26400Y8700D03*
X-28000Y12200D03*
X-8600Y9300D03*
X-8000Y9300D03*
X-10600Y-10200D03*
X-6300Y-2700D03*
X-10400Y4700D03*
X-200Y14500D03*
X-5400Y-5200D03*
X-3000Y19400D03*
G54D13*
X-25240Y17140D03*
X25240Y17140D03*
X32110Y10890D03*
X32110Y-10890D03*
X-32110Y10890D03*
X-25240Y-17140D03*
X25240Y-17140D03*
X-32110Y-10890D03*
G54D14*
X11900Y-8600D03*
G54D15*
X-7416Y4700D03*
X-7416Y5700D03*
X-9384Y4700D03*
X-9384Y5700D03*
X-9584Y-1700D03*
X-9584Y-2700D03*
X-7616Y-1700D03*
X-7616Y-2700D03*
G54D16*
X-7700Y-8896D03*
X-6700Y-8896D03*
X-6700Y-5904D03*
X-7700Y-5904D03*
G54D17*
X22100Y-7955D03*
X22100Y-8955D03*
X22100Y-9955D03*
X22100Y-10955D03*
X22100Y-11955D03*
X22100Y-12955D03*
X22100Y-13955D03*
X22100Y-14955D03*
X22092Y-6314D03*
X22092Y-5314D03*
X22092Y-4314D03*
X22092Y-3314D03*
X22092Y-2314D03*
X22092Y-1314D03*
X-12200Y-9600D03*
X-12200Y-8600D03*
X-12200Y-7600D03*
X-12200Y-6600D03*
X-12200Y-5600D03*
X-12200Y-4600D03*
X-12200Y-3600D03*
X-12200Y-2600D03*
X-12200Y-1600D03*
X-12200Y-600D03*
X-12200Y400D03*
X-12200Y1400D03*
X-12200Y2400D03*
X-12200Y3400D03*
X-12200Y4400D03*
X-12200Y5400D03*
X-12200Y6400D03*
X-12200Y7400D03*
X-12200Y8400D03*
X-21200Y-9600D03*
X-21200Y-8600D03*
X-21200Y-7600D03*
X-21200Y-6600D03*
X-21200Y-5600D03*
X-21200Y-4600D03*
X-21200Y-3600D03*
X-21200Y-2600D03*
X-21200Y-1600D03*
X-21200Y-600D03*
X-21200Y400D03*
X-21200Y1400D03*
X-21200Y2400D03*
X-21200Y3400D03*
X-21200Y4400D03*
X-21200Y5400D03*
X-21200Y6400D03*
X-21200Y7400D03*
X-21200Y8400D03*
X16660Y14540D03*
X16660Y15540D03*
X16660Y16540D03*
X16660Y17540D03*
X16660Y18540D03*
X16660Y19540D03*
G54D18*
X22092Y-16195D03*
G54D19*
X-20100Y-14700D03*
X-20100Y14100D03*
X-2700Y-6200D03*
X26100Y-6200D03*
X26100Y8500D03*
X-2700Y8500D03*
G54D20*
X-12400Y-10800D03*
X-20900Y-10800D03*
X-20900Y9600D03*
X-12400Y9600D03*
G54D21*
X-23249Y13426D03*
X-23249Y14174D03*
X-24351Y13800D03*
X-24351Y14180D03*
X-24351Y13420D03*
X-26106Y5129D03*
X-26106Y4381D03*
X-25004Y4755D03*
X-25004Y4375D03*
X-25004Y5135D03*
G54D22*
X-29345Y11200D03*
X-27455Y11200D03*
X-31945Y7400D03*
X-30055Y7400D03*
G54D23*
X-29345Y10450D03*
X-29345Y11950D03*
X-27455Y11950D03*
X-27455Y10450D03*
X-31945Y6650D03*
X-31945Y8150D03*
X-30055Y8150D03*
X-30055Y6650D03*
G54D24*
X-5400Y-6226D03*
X-5400Y-6974D03*
X-10000Y174D03*
X-10000Y-574D03*
X-6800Y174D03*
X-6800Y-574D03*
X-6800Y1826D03*
X-6800Y2574D03*
X-10000Y1826D03*
X-10000Y2574D03*
X30200Y2374D03*
X30200Y1626D03*
X-33400Y2826D03*
X-33400Y3574D03*
X-4400Y-6226D03*
X-4400Y-6974D03*
G54D25*
X-1774Y19400D03*
X-1026Y19400D03*
X-15774Y-18600D03*
X-15026Y-18600D03*
X-15174Y16800D03*
X-14426Y16800D03*
G54D26*
X28000Y-3500D03*
X28000Y-4500D03*
X28000Y-2500D03*
X-27800Y-4000D03*
X-27800Y-3000D03*
X-27800Y-5000D03*
X-9096Y-13196D03*
X-8096Y-13196D03*
X-10096Y-13196D03*
X-8300Y13300D03*
X-9300Y13300D03*
X-7300Y13300D03*
G54D27*
X28000Y-5500D03*
X-27800Y-2000D03*
X-7096Y-13196D03*
X-10300Y13300D03*
G54D28*
X27896Y-5604D02*
X28104Y-5604D01*
X28104Y-5396D01*
X27896Y-5396D01*
X27896Y-5604D01*D02*
X-27904Y-2104D02*
X-27696Y-2104D01*
X-27696Y-1896D01*
X-27904Y-1896D01*
X-27904Y-2104D01*D02*
X-7200Y-13300D02*
X-6992Y-13300D01*
X-6992Y-13092D01*
X-7200Y-13092D01*
X-7200Y-13300D01*D02*
X-10404Y13196D02*
X-10196Y13196D01*
X-10196Y13404D01*
X-10404Y13404D01*
X-10404Y13196D01*D02*
G54D29*
X-22800Y11754D03*
X-22800Y11046D03*
X-25800Y13354D03*
X-25800Y12646D03*
X-24400Y1446D03*
X-24400Y2154D03*
X-28200Y8754D03*
X-28200Y8046D03*
X-34000Y10446D03*
X-34000Y11154D03*

M02*
