M48
INCH,TZ
VER,1
FMAT,2
DETECT,ON
ATC,ON
T1C0.0236
T2C0.1250
T3C0.0100
T4C0.0240
T5C0.0394
T6C0.1378
T7C0.0550
T8C0.0984
T9C0.0350
T10C0.0392
%
T1
X-33500Y5800
X-27400Y-8400
X-16600Y-19700
X27200Y-7900
X-10600Y3600
X-10800Y8300
X-16700Y-4100
Y-5100
X-17800Y-11600
X-26400Y8700
X-28000Y12200
X-8600Y9300
X-8000
X-10600Y-10200
X-6300Y-2700
X-10400Y4700
X-200Y14500
X-5400Y-5200
X-3000Y19400
T2
X-25240Y17140
X25240
X32110Y10890
Y-10890
X-32110Y10890
X-25240Y-17140
X25240
X-32110Y-10890
T3
X2698Y-17408G85X21102Y-17408
X21102Y-17408G85X21102Y208
X21102Y208G85X2698Y208
X2698Y208G85X2698Y-17408
T4
X-7700Y-8896
X-6700
Y-5904
X-7700
T5
X22100Y-7955
Y-8955
Y-9955
Y-10955
Y-11955
Y-12955
Y-13955
Y-14955
X22092Y-6314
Y-5314
Y-4314
Y-3314
X22092Y-2314
Y-1314
X-12200Y-9600
Y-8600
Y-7600
Y-6600
Y-5600
Y-4600
Y-3600
Y-2600
Y-1600
Y-600
Y400
Y1400
Y2400
Y3400
Y4400
Y5400
Y6400
Y7400
Y8400
X-21200Y-9600
Y-8600
Y-7600
Y-6600
Y-5600
Y-4600
Y-3600
Y-2600
Y-1600
Y-600
Y400
Y1400
Y2400
Y3400
Y4400
Y5400
Y6400
Y7400
Y8400
X16660Y14540
Y15540
Y16540
Y17540
Y18540
Y19540
T6
X22092Y-16195
T7
X-19730Y-14700G85X-20470Y-14700
X-20470Y14100G85X-19730Y14100
X-2700Y-6570G85X-2700Y-5830
X26100Y-5830G85X26100Y-6570
X26100Y8870G85X26100Y8130
X-2700Y8130G85X-2700Y8870
T8
X-12400Y-10800
X-20900
Y9600
X-12400
T9
X28000Y-3500
Y-4500
Y-2500
X-27800Y-4000
Y-3000
Y-5000
X-9096Y-13196
X-8096
X-10096
X-8300Y13300
X-9300
X-7300
T10
X28000Y-5500
X-27800Y-2000
X-7096Y-13196
X-10300Y13300
M30
