G04 Generated by Ultiboard 14.2 *
%FSLAX24Y24*%
%MOIN*%

%ADD10C,0.0001*%
%ADD11C,0.0100*%
%ADD12C,0.0050*%
%ADD13C,0.0394*%
%ADD14C,0.1750*%
%ADD15C,0.0380*%
%ADD16C,0.0534*%
%ADD17C,0.1518*%
%ADD18R,0.1430X0.1430*%
%ADD19C,0.1124*%
%ADD20C,0.0633*%
%ADD21R,0.0208X0.0208*%
%ADD22C,0.0392*%


G04 ColorRGB 0000FF for the following layer *
%LNCopper Bottom*%
%LPD*%
G54D10*
G54D11*
X28600Y-1900D02*
X28000Y-2500D01*
X-10300Y13300D02*
X-12500Y13300D01*
X-26700Y-7700D02*
X-26700Y-1500D01*
X-26700Y-7700D02*
X-27400Y-8400D01*
X27200Y-4700D02*
X28000Y-5500D01*
X27200Y-4700D02*
X27200Y-500D01*
X22145Y-8955D02*
X23600Y-7500D01*
X22114Y-4314D02*
X23600Y-5800D01*
X22092Y-4314D02*
X22114Y-4314D01*
X-27500Y-16000D02*
X-30300Y-13200D01*
X27200Y-500D02*
X29000Y1300D01*
X28600Y571D02*
X28600Y-1900D01*
X28929Y900D02*
X28600Y571D01*
X34800Y929D02*
X34771Y900D01*
X28929Y900D01*
X34771Y12300D02*
X34800Y12271D01*
X34800Y929D01*
X27700Y13200D02*
X28900Y12000D01*
X27900Y13500D02*
X29100Y12300D01*
X27900Y16700D02*
X27900Y13500D01*
X29100Y12300D02*
X34771Y12300D01*
X-33500Y5800D02*
X-34900Y4400D01*
X-34871Y1100D02*
X-34900Y1129D01*
X-34900Y4400D01*
X-27800Y-400D02*
X-26700Y-1500D01*
X-28600Y1100D02*
X-27800Y300D01*
X-34871Y1100D02*
X-28600Y1100D01*
X-27800Y300D02*
X-27800Y-2000D01*
X-34900Y4400D02*
X-34900Y11900D01*
X-34500Y12300D02*
X-34900Y11900D01*
X-25240Y17140D02*
X-25240Y16460D01*
X-25900Y15800D01*
X32110Y10890D02*
X32110Y11990D01*
X32110Y-10890D02*
X31100Y-11900D01*
X29500Y-11900D01*
X25240Y-16160D01*
X25300Y-16100D01*
X25240Y-17140D02*
X25240Y-16160D01*
X-27800Y-8300D02*
X-27800Y-5000D01*
X-27500Y-18100D02*
X-25700Y-19900D01*
X-27500Y-18100D02*
X-27500Y-16000D01*
X-25700Y-19900D02*
X-17300Y-19900D01*
X-12900Y-13271D02*
X-12900Y-18571D01*
X-10096Y-13196D02*
X-12826Y-13196D01*
X-12900Y-13271D01*
X-11700Y-11900D02*
X-11500Y-11700D01*
X-17200Y-4100D02*
X-18700Y-5600D01*
X-16700Y-4100D02*
X-17200Y-4100D01*
X33200Y-12171D02*
X33171Y-12200D01*
X29500Y-12200D02*
X33171Y-12200D01*
X-14800Y-19700D02*
X-13300Y-18200D01*
X-16600Y-19700D02*
X-14800Y-19700D01*
X26400Y-15300D02*
X29500Y-12200D01*
X-18200Y-6600D02*
X-21200Y-6600D01*
X-18700Y-5600D02*
X-21200Y-5600D01*
X28200Y-7929D02*
X27200Y-7929D01*
X-20900Y-10800D02*
X-12400Y-10800D01*
X-16700Y-5100D02*
X-18200Y-6600D01*
X-21200Y400D02*
X-16700Y400D01*
X-15600Y1500D01*
X-11500Y-11700D02*
X-11500Y1800D01*
X-18400Y-1600D02*
X-21200Y-1600D01*
X-27200Y15800D02*
X-30700Y12300D01*
X-34500Y12300D01*
X-24800Y15800D02*
X-27200Y15800D01*
X-11300Y2000D02*
X-11500Y1800D01*
X33300Y1329D02*
X33271Y1300D01*
X33300Y11971D02*
X33271Y12000D01*
X28900Y12000D02*
X33271Y12000D01*
X29000Y1300D02*
X33271Y1300D01*
X33300Y1329D02*
X33300Y11971D01*
X22121Y-17192D02*
X22092Y-17163D01*
X22092Y-16195D02*
X22092Y-17163D01*
X22121Y-17192D02*
X25192Y-17192D01*
X33171Y-9000D02*
X33200Y-9029D01*
X33200Y-12171D02*
X33200Y-9029D01*
X29271Y-9000D02*
X28200Y-7929D01*
X29271Y-9000D02*
X33171Y-9000D01*
X-26300Y-8200D02*
X-27200Y-9100D01*
X23600Y-5800D02*
X23600Y-7500D01*
X24500Y-4900D02*
X23600Y-5800D01*
X-15600Y1500D02*
X-15600Y10600D01*
X-2971Y17900D02*
X-3000Y17871D01*
X24300Y20300D02*
X27900Y16700D01*
X12900Y17900D02*
X15300Y20300D01*
X-2971Y17900D02*
X12900Y17900D01*
X15300Y20300D02*
X24300Y20300D01*
X-12500Y13300D02*
X-13000Y13800D01*
X-2771Y17700D02*
X-2800Y17671D01*
X-2371Y17200D02*
X14700Y17200D01*
X-2371Y17200D02*
X-2400Y17171D01*
X-2571Y17500D02*
X-2600Y17471D01*
X-14100Y-1600D02*
X-12200Y-1600D01*
X-25800Y-11600D02*
X-17800Y-11600D01*
X-26000Y-11400D02*
X-25800Y-11600D01*
X-26000Y12000D02*
X-26000Y-11400D01*
X-13800Y400D02*
X-12200Y400D01*
X-2571Y17500D02*
X15500Y17500D01*
X24500Y12421D02*
X24500Y-4900D01*
X-2771Y17700D02*
X14820Y17700D01*
X16660Y19540D01*
X15500Y17500D02*
X16620Y17500D01*
X16660Y17540D01*
X15300Y16600D02*
X16520Y16600D01*
X16620Y16500D01*
X14700Y17200D02*
X15300Y16600D01*
X22821Y13650D02*
X24300Y12171D01*
X15100Y14000D02*
X22921Y14000D01*
X23110Y13810D02*
X24500Y12421D01*
X22921Y14000D02*
X23110Y13810D01*
X15000Y13800D02*
X22671Y13800D01*
X22821Y13650D01*
X-13029Y17400D02*
X-13000Y17371D01*
X-13000Y13800D02*
X-13000Y17371D01*
X-23200Y17400D02*
X-24800Y15800D01*
X-13029Y17400D02*
X-23200Y17400D01*
X-32110Y10890D02*
X-32110Y12290D01*
X26371Y-18200D02*
X26400Y-18171D01*
X26400Y-15300D01*
X944Y-18200D02*
X-4056Y-13200D01*
X944Y-18200D02*
X26371Y-18200D01*
X-30000Y-9129D02*
X-29971Y-9100D01*
X-27200Y-9100D02*
X-29971Y-9100D01*
X-27800Y-8300D02*
X-28200Y-8700D01*
X-30300Y-8700D02*
X-28200Y-8700D01*
X-30300Y-8700D02*
X-30300Y-13200D01*
X-30000Y-9129D02*
X-30000Y-13100D01*
X-27300Y-15800D01*
X-27300Y-17991D02*
X-25971Y-19321D01*
X-27300Y-15800D02*
X-27300Y-17991D01*
X-25971Y-19321D02*
X-14721Y-19321D01*
X-13700Y-18300D01*
X-25240Y-17140D02*
X-18540Y-17140D01*
X-14500Y-13100D01*
X-10371Y10200D02*
X-10400Y10171D01*
X-4100Y10200D02*
X-10371Y10200D01*
X-11271Y10400D02*
X-11300Y10371D01*
X-11300Y2000D01*
X-11271Y10400D02*
X-4200Y10400D01*
X-4300Y10600D02*
X-2400Y12500D01*
X-2400Y17171D01*
X-2600Y12600D02*
X-2600Y17471D01*
X-2600Y12600D02*
X-4400Y10800D01*
X-4600Y11000D02*
X-2800Y12800D01*
X-2800Y17671D01*
X-3029Y13000D02*
X-3000Y13029D01*
X-3000Y17871D02*
X-3000Y13029D01*
X-15600Y10600D02*
X-14800Y11400D01*
X-8729Y11400D02*
X-8300Y11829D01*
X-14800Y11400D02*
X-8729Y11400D01*
X-8300Y11829D02*
X-8300Y13300D01*
X-26300Y-8200D02*
X-26300Y8600D01*
X-26400Y8700D01*
X-26200Y12200D02*
X-26000Y12000D01*
X-28000Y12200D02*
X-26200Y12200D01*
X-20100Y-14700D02*
X-20100Y-17140D01*
X-14500Y-13100D02*
X-14500Y-10800D01*
X-3404Y-6196D02*
X-2704Y-6196D01*
X-8600Y9300D02*
X-8600Y8000D01*
X-7700Y7100D01*
X-5500Y7100D01*
X-2700Y-10900D02*
X-2700Y-6196D01*
X-6700Y-8896D02*
X-6700Y-11100D01*
X-6800Y-11200D01*
X-8000Y9300D02*
X-7400Y9300D01*
X-5000Y6900D01*
X-13300Y-13371D02*
X-12029Y-12100D01*
X-13300Y-18200D02*
X-13300Y-13371D01*
X-13700Y-13471D02*
X-12129Y-11900D01*
X-11700Y-11900D01*
X-13700Y-18300D02*
X-13700Y-13471D01*
X24300Y-1106D02*
X24300Y12171D01*
X24300Y-1106D02*
X22092Y-3314D01*
X-6800Y-12100D02*
X-5700Y-13200D01*
X-12029Y-12100D02*
X-6800Y-12100D01*
X-5700Y-13200D02*
X-4056Y-13200D01*
X-3200Y-11400D02*
X-2700Y-10900D01*
X-10600Y-5900D02*
X-8200Y-3500D01*
X-10600Y-10200D02*
X-10600Y-5900D01*
X-10300Y-10000D02*
X-8900Y-11400D01*
X-3200Y-11400D01*
X-10000Y-9900D02*
X-8700Y-11200D01*
X-6800Y-11200D01*
X-21200Y-2600D02*
X-19100Y-2600D01*
X-18400Y-1600D02*
X-15400Y1400D01*
X-19100Y-2600D02*
X-15200Y1300D01*
X-14671Y11200D02*
X-4800Y11200D01*
X-15400Y1400D02*
X-15400Y10471D01*
X-14671Y11200D02*
X-15400Y10471D01*
X-4800Y11200D02*
X-3000Y13000D01*
X-15200Y10271D02*
X-14471Y11000D01*
X-15200Y1300D02*
X-15200Y10271D01*
X-14471Y11000D02*
X-4600Y11000D01*
X-14371Y10800D02*
X-4400Y10800D01*
X-15000Y10171D02*
X-15000Y-700D01*
X-14371Y10800D02*
X-15000Y10171D01*
X-15000Y-700D02*
X-14100Y-1600D01*
X-14271Y10600D02*
X-4300Y10600D01*
X-14800Y1400D02*
X-14800Y10071D01*
X-14271Y10600D02*
X-14800Y10071D01*
X-13800Y400D02*
X-14800Y1400D01*
X-7300Y13300D02*
X-7300Y11200D01*
X-5000Y-2900D02*
X-7700Y-5600D01*
X-7700Y-5904D01*
X-5000Y6900D02*
X-5000Y-2900D01*
X-5500Y-3000D02*
X-10000Y-7500D01*
X-5500Y7100D02*
X-5500Y-3000D01*
X-10000Y-7500D02*
X-10000Y-9900D01*
X-6300Y-3500D02*
X-10300Y-7500D01*
X-10300Y-10000D01*
X-6300Y-3500D02*
X-6300Y-2700D01*
X-10800Y8300D02*
X-10800Y3800D01*
X-10600Y3600D01*
X-10400Y10171D02*
X-10400Y4700D01*
X-8200Y-3500D02*
X-8200Y7100D01*
X-9100Y8000D01*
X-9100Y9600D01*
X-8700Y10000D01*
X-3900Y10000D01*
X-200Y13700D01*
X-200Y14500D01*
X-6100Y-4000D02*
X-5400Y-4700D01*
X-5400Y-5200D01*
X-3000Y19371D02*
X-3000Y17900D01*
X-17150Y-20050D02*
X-14379Y-20050D01*
X-12900Y-18571D02*
X-14379Y-20050D01*
X-17300Y-19900D02*
X-17150Y-20050D01*
X26150Y17950D02*
X27700Y16400D01*
X27700Y13200D01*
X26150Y17950D02*
X25300Y17100D01*
X25200Y17100D01*
X-4200Y10400D02*
X-2200Y12400D01*
X-2200Y15371D01*
X-1871Y15700D02*
X13400Y15700D01*
X15100Y14000D01*
X-2200Y15371D02*
X-1871Y15700D01*
X13350Y15450D02*
X15000Y13800D01*
X-1771Y15450D02*
X13350Y15450D01*
X-1900Y12400D02*
X-1900Y15321D01*
X-4100Y10200D02*
X-1900Y12400D01*
X-1771Y15450D02*
X-1900Y15321D01*
G54D12*
X-35743Y-20768D02*
X-35743Y-16614D01*
X-35743Y-20768D02*
X-28594Y-20768D01*
X35743Y-20768D02*
X28594Y-20768D01*
X35743Y-20768D02*
X35743Y-16614D01*
X35743Y20768D02*
X35743Y16614D01*
X35743Y20768D02*
X28594Y20768D01*
X-35743Y20768D02*
X-28594Y20768D01*
X-35743Y20768D02*
X-35743Y16614D01*
X-37711Y-20768D02*
X-41648Y-20768D01*
X-39680Y-22736D02*
X-39680Y-18799D01*
X-41156Y-20768D02*
G75*
D01*
G02X-41156Y-20768I1476J0*
G01*
X37711Y-20768D02*
X41648Y-20768D01*
X39680Y-22736D02*
X39680Y-18799D01*
X38203Y-20768D02*
G75*
D01*
G02X38203Y-20768I1477J0*
G01*
X39188Y-20768D02*
G75*
D01*
G02X39188Y-20768I492J0*
G01*
X-37711Y20768D02*
X-41648Y20768D01*
X-39680Y18799D02*
X-39680Y22736D01*
X-41156Y20768D02*
G75*
D01*
G02X-41156Y20768I1476J0*
G01*
X-40664Y20768D02*
G75*
D01*
G02X-40664Y20768I984J0*
G01*
X-40172Y20768D02*
G75*
D01*
G02X-40172Y20768I492J0*
G01*
G54D13*
X-33500Y5800D03*
X-27400Y-8400D03*
X-16600Y-19700D03*
X27200Y-7900D03*
X-10600Y3600D03*
X-10800Y8300D03*
X-16700Y-4100D03*
X-16700Y-5100D03*
X-17800Y-11600D03*
X-26400Y8700D03*
X-28000Y12200D03*
X-8600Y9300D03*
X-8000Y9300D03*
X-10600Y-10200D03*
X-6300Y-2700D03*
X-10400Y4700D03*
X-200Y14500D03*
X-5400Y-5200D03*
X-3000Y19400D03*
G54D14*
X-25240Y17140D03*
X25240Y17140D03*
X32110Y10890D03*
X32110Y-10890D03*
X-32110Y10890D03*
X-25240Y-17140D03*
X25240Y-17140D03*
X-32110Y-10890D03*
G54D15*
X-7700Y-8896D03*
X-6700Y-8896D03*
X-6700Y-5904D03*
X-7700Y-5904D03*
G54D16*
X22100Y-7955D03*
X22100Y-8955D03*
X22100Y-9955D03*
X22100Y-10955D03*
X22100Y-11955D03*
X22100Y-12955D03*
X22100Y-13955D03*
X22100Y-14955D03*
X22092Y-6314D03*
X22092Y-5314D03*
X22092Y-4314D03*
X22092Y-3314D03*
X22092Y-2314D03*
X22092Y-1314D03*
X-12200Y-9600D03*
X-12200Y-8600D03*
X-12200Y-7600D03*
X-12200Y-6600D03*
X-12200Y-5600D03*
X-12200Y-4600D03*
X-12200Y-3600D03*
X-12200Y-2600D03*
X-12200Y-1600D03*
X-12200Y-600D03*
X-12200Y400D03*
X-12200Y1400D03*
X-12200Y2400D03*
X-12200Y3400D03*
X-12200Y4400D03*
X-12200Y5400D03*
X-12200Y6400D03*
X-12200Y7400D03*
X-12200Y8400D03*
X-21200Y-9600D03*
X-21200Y-8600D03*
X-21200Y-7600D03*
X-21200Y-6600D03*
X-21200Y-5600D03*
X-21200Y-4600D03*
X-21200Y-3600D03*
X-21200Y-2600D03*
X-21200Y-1600D03*
X-21200Y-600D03*
X-21200Y400D03*
X-21200Y1400D03*
X-21200Y2400D03*
X-21200Y3400D03*
X-21200Y4400D03*
X-21200Y5400D03*
X-21200Y6400D03*
X-21200Y7400D03*
X-21200Y8400D03*
X16660Y14540D03*
X16660Y15540D03*
X16660Y16540D03*
X16660Y17540D03*
X16660Y18540D03*
X16660Y19540D03*
G54D17*
X22092Y-16195D03*
G54D18*
X-20100Y-14700D03*
X-20100Y14100D03*
X-2700Y-6200D03*
X26100Y-6200D03*
X26100Y8500D03*
X-2700Y8500D03*
G54D19*
X-12400Y-10800D03*
X-20900Y-10800D03*
X-20900Y9600D03*
X-12400Y9600D03*
G54D20*
X28000Y-3500D03*
X28000Y-4500D03*
X28000Y-2500D03*
X-27800Y-4000D03*
X-27800Y-3000D03*
X-27800Y-5000D03*
X-9096Y-13196D03*
X-8096Y-13196D03*
X-10096Y-13196D03*
X-8300Y13300D03*
X-9300Y13300D03*
X-7300Y13300D03*
G54D21*
X28000Y-5500D03*
X-27800Y-2000D03*
X-7096Y-13196D03*
X-10300Y13300D03*
G54D22*
X27896Y-5604D02*
X28104Y-5604D01*
X28104Y-5396D01*
X27896Y-5396D01*
X27896Y-5604D01*D02*
X-27904Y-2104D02*
X-27696Y-2104D01*
X-27696Y-1896D01*
X-27904Y-1896D01*
X-27904Y-2104D01*D02*
X-7200Y-13300D02*
X-6992Y-13300D01*
X-6992Y-13092D01*
X-7200Y-13092D01*
X-7200Y-13300D01*D02*
X-10404Y13196D02*
X-10196Y13196D01*
X-10196Y13404D01*
X-10404Y13404D01*
X-10404Y13196D01*D02*

M02*
